G04*
G04 #@! TF.GenerationSoftware,Altium Limited,Altium Designer,19.1.9 (167)*
G04*
G04 Layer_Color=16711935*
%FSLAX42Y42*%
%MOMM*%
G71*
G01*
G75*
%ADD10C,0.10*%
D10*
X13475Y10660D02*
G03*
X13475Y10660I-50J0D01*
G01*
X14040Y7660D02*
G03*
X14040Y7660I-50J0D01*
G01*
X12196Y9157D02*
G03*
X11867Y9486I-164J164D01*
G01*
X11440Y8991D02*
G03*
X11701Y8730I131J-131D01*
G01*
X12150Y9179D02*
G03*
X11889Y9440I-131J131D01*
G01*
X11394Y9013D02*
G03*
X11723Y8684I164J-164D01*
G01*
X21742Y12310D02*
G03*
X21742Y12310I-50J0D01*
G01*
X19762Y12325D02*
G03*
X19762Y12325I-50J0D01*
G01*
X19370Y9020D02*
G03*
X19370Y9020I-50J0D01*
G01*
X15565Y10570D02*
Y11590D01*
X13335Y10570D02*
Y11590D01*
X15565D01*
X13335Y10570D02*
X15565D01*
X8996Y9632D02*
X9144Y9483D01*
X9091Y9727D02*
X9239Y9578D01*
X9144Y9483D02*
X9239Y9578D01*
X8996Y9632D02*
X9091Y9727D01*
X9338Y9287D02*
X9487Y9138D01*
X9433Y9382D02*
X9582Y9233D01*
X9487Y9138D02*
X9582Y9233D01*
X9338Y9287D02*
X9433Y9382D01*
X10386Y8758D02*
X10534Y8907D01*
X10481Y8663D02*
X10629Y8812D01*
X10386Y8758D02*
X10481Y8663D01*
X10534Y8907D02*
X10629Y8812D01*
X13593Y11843D02*
X13802D01*
X13593Y11978D02*
X13802D01*
Y11843D02*
Y11978D01*
X13593Y11843D02*
Y11978D01*
X14273Y11972D02*
X14482D01*
X14273Y11838D02*
X14482D01*
X14273D02*
Y11972D01*
X14482Y11838D02*
Y11972D01*
X15682Y11453D02*
Y11662D01*
X15818Y11453D02*
Y11662D01*
X15682Y11453D02*
X15818D01*
X15682Y11662D02*
X15818D01*
X13580Y10325D02*
X13790D01*
X13580Y10190D02*
X13790D01*
X13580D02*
Y10325D01*
X13790Y10190D02*
Y10325D01*
X13945D02*
X14155D01*
X13945Y10190D02*
X14155D01*
X13945D02*
Y10325D01*
X14155Y10190D02*
Y10325D01*
X14315Y10190D02*
X14525D01*
X14315Y10325D02*
X14525D01*
Y10190D02*
Y10325D01*
X14315Y10190D02*
Y10325D01*
X15675Y10503D02*
Y10712D01*
X15810Y10503D02*
Y10712D01*
X15675Y10503D02*
X15810D01*
X15675Y10712D02*
X15810D01*
X14470Y12385D02*
Y12885D01*
X13970Y12385D02*
Y12885D01*
Y12385D02*
X14470D01*
X13970Y12885D02*
X14470D01*
X14080Y13132D02*
X14290D01*
X14080Y12998D02*
X14290D01*
X14080D02*
Y13132D01*
X14290Y12998D02*
Y13132D01*
X14640Y12820D02*
Y13030D01*
X14775Y12820D02*
Y13030D01*
X14640Y12820D02*
X14775D01*
X14640Y13030D02*
X14775D01*
X13825Y6425D02*
Y6825D01*
X14275Y6425D02*
Y6825D01*
X13825D02*
X14275D01*
X13825Y6425D02*
X14275D01*
X13223Y13110D02*
Y13320D01*
X13357Y13110D02*
Y13320D01*
X13223Y13110D02*
X13357D01*
X13223Y13320D02*
X13357D01*
X13452Y13110D02*
Y13320D01*
X13588Y13110D02*
Y13320D01*
X13452Y13110D02*
X13588D01*
X13452Y13320D02*
X13588D01*
X15025Y12957D02*
X15235D01*
X15025Y13093D02*
X15235D01*
Y12957D02*
Y13093D01*
X15025Y12957D02*
Y13093D01*
X15515Y12562D02*
Y12772D01*
X15650Y12562D02*
Y12772D01*
X15515Y12562D02*
X15650D01*
X15515Y12772D02*
X15650D01*
X15762Y12562D02*
Y12772D01*
X15898Y12562D02*
Y12772D01*
X15762Y12562D02*
X15898D01*
X15762Y12772D02*
X15898D01*
X15998Y12560D02*
Y12770D01*
X16132Y12560D02*
Y12770D01*
X15998Y12560D02*
X16132D01*
X15998Y12770D02*
X16132D01*
X13900Y7350D02*
Y7750D01*
X14300Y7350D02*
Y7750D01*
X13900D02*
X14300D01*
X13900Y7350D02*
X14300D01*
X14593Y7097D02*
X14802D01*
X14593Y6962D02*
X14802D01*
X14593D02*
Y7097D01*
X14802Y6962D02*
Y7097D01*
X15027Y13223D02*
X15238D01*
X15027Y13357D02*
X15238D01*
Y13223D02*
Y13357D01*
X15027Y13223D02*
Y13357D01*
X14607Y5865D02*
X14818D01*
X14607Y6000D02*
X14818D01*
Y5865D02*
Y6000D01*
X14607Y5865D02*
Y6000D01*
X14610Y6280D02*
X14820D01*
X14610Y6145D02*
X14820D01*
X14610D02*
Y6280D01*
X14820Y6145D02*
Y6280D01*
X14610Y6422D02*
X14820D01*
X14610Y6557D02*
X14820D01*
Y6422D02*
Y6557D01*
X14610Y6422D02*
Y6557D01*
X13475Y7572D02*
X13685D01*
X13475Y7438D02*
X13685D01*
X13475D02*
Y7572D01*
X13685Y7438D02*
Y7572D01*
X14085Y7975D02*
X14295D01*
X14085Y8110D02*
X14295D01*
Y7975D02*
Y8110D01*
X14085Y7975D02*
Y8110D01*
X16880Y11130D02*
X17380D01*
X16880Y10630D02*
X17380D01*
Y11130D01*
X16880Y10630D02*
Y11130D01*
X14130Y5580D02*
X14340D01*
X14130Y5715D02*
X14340D01*
Y5580D02*
Y5715D01*
X14130Y5580D02*
Y5715D01*
Y5995D02*
X14340D01*
X14130Y5860D02*
X14340D01*
X14130D02*
Y5995D01*
X14340Y5860D02*
Y5995D01*
X14132Y6145D02*
X14343D01*
X14132Y6280D02*
X14343D01*
Y6145D02*
Y6280D01*
X14132Y6145D02*
Y6280D01*
X16720Y10303D02*
X16930D01*
X16720Y10438D02*
X16930D01*
Y10303D02*
Y10438D01*
X16720Y10303D02*
Y10438D01*
X16735Y11295D02*
X16945D01*
X16735Y11430D02*
X16945D01*
Y11295D02*
Y11430D01*
X16735Y11295D02*
Y11430D01*
X17305Y10457D02*
X17515D01*
X17305Y10322D02*
X17515D01*
X17305D02*
Y10457D01*
X17515Y10322D02*
Y10457D01*
X17305Y10247D02*
X17515D01*
X17305Y10112D02*
X17515D01*
X17305D02*
Y10247D01*
X17515Y10112D02*
Y10247D01*
X16575Y11782D02*
X16785D01*
X16575Y11918D02*
X16785D01*
Y11782D02*
Y11918D01*
X16575Y11782D02*
Y11918D01*
X14598Y7190D02*
X14807D01*
X14598Y7325D02*
X14807D01*
Y7190D02*
Y7325D01*
X14598Y7190D02*
Y7325D01*
X17502Y11735D02*
X17712D01*
X17502Y11600D02*
X17712D01*
X17502D02*
Y11735D01*
X17712Y11600D02*
Y11735D01*
X17507Y11985D02*
X17718D01*
X17507Y11850D02*
X17718D01*
X17507D02*
Y11985D01*
X17718Y11850D02*
Y11985D01*
X17507Y12245D02*
X17718D01*
X17507Y12110D02*
X17718D01*
X17507D02*
Y12245D01*
X17718Y12110D02*
Y12245D01*
X16575Y12053D02*
X16785D01*
X16575Y12188D02*
X16785D01*
Y12053D02*
Y12188D01*
X16575Y12053D02*
Y12188D01*
X13045Y8107D02*
X13255D01*
X13045Y7972D02*
X13255D01*
X13045D02*
Y8107D01*
X13255Y7972D02*
Y8107D01*
X13475Y7845D02*
X13685D01*
X13475Y7710D02*
X13685D01*
X13475D02*
Y7845D01*
X13685Y7710D02*
Y7845D01*
X16607Y9935D02*
Y10145D01*
X16473Y9935D02*
Y10145D01*
X16607D01*
X16473Y9935D02*
X16607D01*
X16940Y10100D02*
Y10200D01*
X16760Y10100D02*
Y10200D01*
Y10100D02*
X16940D01*
X16760Y10200D02*
X16940D01*
X15725Y6460D02*
X15935D01*
X15725Y6595D02*
X15935D01*
Y6460D02*
Y6595D01*
X15725Y6460D02*
Y6595D01*
X15925Y6192D02*
X16135D01*
X15925Y6328D02*
X16135D01*
Y6192D02*
Y6328D01*
X15925Y6192D02*
Y6328D01*
X6150Y7120D02*
X6650D01*
X6150Y6620D02*
X6650D01*
Y7120D01*
X6150Y6620D02*
Y7120D01*
X16307Y6262D02*
Y6472D01*
X16443Y6262D02*
Y6472D01*
X16307Y6262D02*
X16443D01*
X16307Y6472D02*
X16443D01*
X13840Y8025D02*
Y8235D01*
X13975Y8025D02*
Y8235D01*
X13840Y8025D02*
X13975D01*
X13840Y8235D02*
X13975D01*
X7072Y6778D02*
Y6953D01*
X6768Y6778D02*
Y6953D01*
X7072D01*
X6768Y6778D02*
X7072D01*
X16560Y6718D02*
Y6928D01*
X16695Y6718D02*
Y6928D01*
X16560Y6718D02*
X16695D01*
X16560Y6928D02*
X16695D01*
X7345Y6632D02*
X7555D01*
X7345Y6768D02*
X7555D01*
Y6632D02*
Y6768D01*
X7345Y6632D02*
Y6768D01*
X7493Y5955D02*
Y6165D01*
X7628Y5955D02*
Y6165D01*
X7493Y5955D02*
X7628D01*
X7493Y6165D02*
X7628D01*
X7203Y5955D02*
Y6165D01*
X7338Y5955D02*
Y6165D01*
X7203Y5955D02*
X7338D01*
X7203Y6165D02*
X7338D01*
X6953Y5955D02*
Y6165D01*
X7088Y5955D02*
Y6165D01*
X6953Y5955D02*
X7088D01*
X6953Y6165D02*
X7088D01*
X16307Y6712D02*
Y6922D01*
X16443Y6712D02*
Y6922D01*
X16307Y6712D02*
X16443D01*
X16307Y6922D02*
X16443D01*
X6782Y7335D02*
X6993D01*
X6782Y7200D02*
X6993D01*
X6782D02*
Y7335D01*
X6993Y7200D02*
Y7335D01*
X14632Y7655D02*
Y7855D01*
X14507Y7655D02*
Y7855D01*
Y7655D02*
X14632D01*
X14507Y7855D02*
X14632D01*
X7035Y6322D02*
X7245D01*
X7035Y6457D02*
X7245D01*
Y6322D02*
Y6457D01*
X7035Y6322D02*
Y6457D01*
X15360Y7897D02*
Y8107D01*
X15495Y7897D02*
Y8107D01*
X15360Y7897D02*
X15495D01*
X15360Y8107D02*
X15495D01*
X15235Y7897D02*
Y8107D01*
X15100Y7897D02*
Y8107D01*
X15235D01*
X15100Y7897D02*
X15235D01*
X14830Y7900D02*
Y8110D01*
X14965Y7900D02*
Y8110D01*
X14830Y7900D02*
X14965D01*
X14830Y8110D02*
X14965D01*
X15132Y7195D02*
X15343D01*
X15132Y7060D02*
X15343D01*
X15132D02*
Y7195D01*
X15343Y7060D02*
Y7195D01*
X15132Y7325D02*
X15343D01*
X15132Y7460D02*
X15343D01*
Y7325D02*
Y7460D01*
X15132Y7325D02*
Y7460D01*
X15135Y7728D02*
X15345D01*
X15135Y7593D02*
X15345D01*
X15135D02*
Y7728D01*
X15345Y7593D02*
Y7728D01*
X16282Y7895D02*
Y8105D01*
X16148Y7895D02*
Y8105D01*
X16282D01*
X16148Y7895D02*
X16282D01*
X15882Y7897D02*
Y8107D01*
X16018Y7897D02*
Y8107D01*
X15882Y7897D02*
X16018D01*
X15882Y8107D02*
X16018D01*
X15755Y7897D02*
Y8107D01*
X15620Y7897D02*
Y8107D01*
X15755D01*
X15620Y7897D02*
X15755D01*
X15575Y7728D02*
X15785D01*
X15575Y7593D02*
X15785D01*
X15575D02*
Y7728D01*
X15785Y7593D02*
Y7728D01*
X15577Y7322D02*
X15788D01*
X15577Y7457D02*
X15788D01*
Y7322D02*
Y7457D01*
X15577Y7322D02*
Y7457D01*
X15575Y7195D02*
X15785D01*
X15575Y7060D02*
X15785D01*
X15575D02*
Y7195D01*
X15785Y7060D02*
Y7195D01*
X16273Y7328D02*
Y7538D01*
X16138Y7328D02*
Y7538D01*
X16273D01*
X16138Y7328D02*
X16273D01*
X11293Y13205D02*
Y13415D01*
X11157Y13205D02*
Y13415D01*
X11293D01*
X11157Y13205D02*
X11293D01*
X11100D02*
Y13415D01*
X10965Y13205D02*
Y13415D01*
X11100D01*
X10965Y13205D02*
X11100D01*
X10907D02*
Y13415D01*
X10772Y13205D02*
Y13415D01*
X10907D01*
X10772Y13205D02*
X10907D01*
X11157Y12755D02*
Y12965D01*
X11293Y12755D02*
Y12965D01*
X11157Y12755D02*
X11293D01*
X11157Y12965D02*
X11293D01*
X10770Y12755D02*
Y12965D01*
X10905Y12755D02*
Y12965D01*
X10770Y12755D02*
X10905D01*
X10770Y12965D02*
X10905D01*
X10965Y12755D02*
Y12965D01*
X11100Y12755D02*
Y12965D01*
X10965Y12755D02*
X11100D01*
X10965Y12965D02*
X11100D01*
X14682Y8370D02*
Y8580D01*
X14818Y8370D02*
Y8580D01*
X14682Y8370D02*
X14818D01*
X14682Y8580D02*
X14818D01*
X15823Y5770D02*
X16032D01*
X15823Y5905D02*
X16032D01*
Y5770D02*
Y5905D01*
X15823Y5770D02*
Y5905D01*
X15825Y5974D02*
X16035D01*
X15825Y6109D02*
X16035D01*
Y5974D02*
Y6109D01*
X15825Y5974D02*
Y6109D01*
X14232Y8370D02*
Y8580D01*
X14368Y8370D02*
Y8580D01*
X14232Y8370D02*
X14368D01*
X14232Y8580D02*
X14368D01*
X15823Y5567D02*
X16032D01*
X15823Y5703D02*
X16032D01*
Y5567D02*
Y5703D01*
X15823Y5567D02*
Y5703D01*
X14457Y8370D02*
Y8580D01*
X14593Y8370D02*
Y8580D01*
X14457Y8370D02*
X14593D01*
X14457Y8580D02*
X14593D01*
X11601Y8018D02*
X12109D01*
Y7257D02*
Y8018D01*
X11601Y7257D02*
Y8018D01*
Y7257D02*
X12109D01*
X11424Y8975D02*
X11889Y9440D01*
X11685Y8714D02*
X12150Y9179D01*
X11394Y9013D02*
X11867Y9486D01*
X11723Y8684D02*
X12196Y9157D01*
X11841Y8579D02*
X11989Y8431D01*
X11936Y8674D02*
X12084Y8526D01*
X11989Y8431D02*
X12084Y8526D01*
X11841Y8579D02*
X11936Y8674D01*
X12200Y8934D02*
X12349Y8786D01*
X12296Y9030D02*
X12444Y8881D01*
X12349Y8786D02*
X12444Y8881D01*
X12200Y8934D02*
X12296Y9030D01*
X8341Y8968D02*
X8849D01*
Y8207D02*
Y8968D01*
X8341Y8207D02*
Y8968D01*
Y8207D02*
X8849D01*
X7938Y11585D02*
X8147D01*
X7938Y11450D02*
X8147D01*
X7938D02*
Y11585D01*
X8147Y11450D02*
Y11585D01*
X12445Y9655D02*
X12655D01*
X12445Y9790D02*
X12655D01*
Y9655D02*
Y9790D01*
X12445Y9655D02*
Y9790D01*
X9633Y11974D02*
X9782Y11826D01*
X9538Y11879D02*
X9687Y11731D01*
X9538Y11879D02*
X9633Y11974D01*
X9687Y11731D02*
X9782Y11826D01*
X9831Y12169D02*
X9979Y12021D01*
X9736Y12074D02*
X9884Y11926D01*
X9736Y12074D02*
X9831Y12169D01*
X9884Y11926D02*
X9979Y12021D01*
X9698Y8693D02*
X9847Y8842D01*
X9793Y8598D02*
X9942Y8747D01*
X9698Y8693D02*
X9793Y8598D01*
X9847Y8842D02*
X9942Y8747D01*
X9511Y8878D02*
X9659Y9027D01*
X9606Y8783D02*
X9754Y8932D01*
X9511Y8878D02*
X9606Y8783D01*
X9659Y9027D02*
X9754Y8932D01*
X11686Y9548D02*
X11834Y9697D01*
X11591Y9643D02*
X11739Y9792D01*
X11834Y9697D01*
X11591Y9643D02*
X11686Y9548D01*
X11441Y9793D02*
X11589Y9942D01*
X11536Y9698D02*
X11684Y9847D01*
X11441Y9793D02*
X11536Y9698D01*
X11589Y9942D02*
X11684Y9847D01*
X11038Y9196D02*
X11187Y9344D01*
X10943Y9291D02*
X11092Y9439D01*
X11187Y9344D01*
X10943Y9291D02*
X11038Y9196D01*
X10551Y11887D02*
X10699Y11738D01*
X10456Y11792D02*
X10604Y11643D01*
X10456Y11792D02*
X10551Y11887D01*
X10604Y11643D02*
X10699Y11738D01*
X11668Y10754D02*
X11817Y10606D01*
X11573Y10659D02*
X11722Y10511D01*
X11573Y10659D02*
X11668Y10754D01*
X11722Y10511D02*
X11817Y10606D01*
X11211Y11219D02*
X11359Y11071D01*
X11116Y11124D02*
X11264Y10976D01*
X11116Y11124D02*
X11211Y11219D01*
X11264Y10976D02*
X11359Y11071D01*
X10858Y11569D02*
X11007Y11421D01*
X10763Y11474D02*
X10912Y11326D01*
X10763Y11474D02*
X10858Y11569D01*
X10912Y11326D02*
X11007Y11421D01*
X9448Y11436D02*
X9596Y11585D01*
X9543Y11341D02*
X9692Y11489D01*
X9448Y11436D02*
X9543Y11341D01*
X9596Y11585D02*
X9692Y11489D01*
X9066Y11036D02*
X9214Y11184D01*
X9161Y10941D02*
X9309Y11089D01*
X9066Y11036D02*
X9161Y10941D01*
X9214Y11184D02*
X9309Y11089D01*
X8606Y10571D02*
X8754Y10719D01*
X8701Y10476D02*
X8849Y10624D01*
X8606Y10571D02*
X8701Y10476D01*
X8754Y10719D02*
X8849Y10624D01*
X7808Y9578D02*
X7957Y9727D01*
X7713Y9673D02*
X7862Y9822D01*
X7957Y9727D01*
X7713Y9673D02*
X7808Y9578D01*
X11332Y7672D02*
Y7882D01*
X11468Y7672D02*
Y7882D01*
X11332Y7672D02*
X11468D01*
X11332Y7882D02*
X11468D01*
X8928Y6247D02*
X11857D01*
Y5678D02*
Y6247D01*
Y5678D02*
X11918D01*
Y5592D02*
Y5678D01*
X8868Y5592D02*
X11918D01*
X8868Y5593D02*
Y5678D01*
X8928D02*
Y6247D01*
X8868Y5678D02*
X8928D01*
X11943Y6455D02*
X12153D01*
X11943Y6590D02*
X12153D01*
Y6455D02*
Y6590D01*
X11943Y6455D02*
Y6590D01*
X9228Y6518D02*
X9438D01*
X9228Y6653D02*
X9438D01*
Y6518D02*
Y6653D01*
X9228Y6518D02*
Y6653D01*
X9230Y6735D02*
X9440D01*
X9230Y6870D02*
X9440D01*
Y6735D02*
Y6870D01*
X9230Y6735D02*
Y6870D01*
Y6950D02*
X9440D01*
X9230Y7085D02*
X9440D01*
Y6950D02*
Y7085D01*
X9230Y6950D02*
Y7085D01*
X11543Y6453D02*
X11753D01*
X11543Y6588D02*
X11753D01*
Y6453D02*
Y6588D01*
X11543Y6453D02*
Y6588D01*
X9328Y7212D02*
Y7422D01*
X9193Y7212D02*
Y7422D01*
X9328D01*
X9193Y7212D02*
X9328D01*
X8157Y5825D02*
Y6035D01*
X8293Y5825D02*
Y6035D01*
X8157Y5825D02*
X8293D01*
X8157Y6035D02*
X8293D01*
X11547Y6685D02*
X11757D01*
X11547Y6820D02*
X11757D01*
Y6685D02*
Y6820D01*
X11547Y6685D02*
Y6820D01*
X22230Y7085D02*
X22320D01*
X22230Y6915D02*
X22320D01*
Y7085D01*
X22230Y6915D02*
Y7085D01*
Y6485D02*
X22320D01*
X22230Y6315D02*
X22320D01*
Y6485D01*
X22230Y6315D02*
Y6485D01*
X22440Y6650D02*
Y6750D01*
X22260Y6650D02*
Y6750D01*
Y6650D02*
X22440D01*
X22260Y6750D02*
X22440D01*
X18310Y12325D02*
Y12425D01*
X18490Y12325D02*
Y12425D01*
X18310D02*
X18490D01*
X18310Y12325D02*
X18490D01*
X22192Y11520D02*
Y11620D01*
X22372Y11520D02*
Y11620D01*
X22192D02*
X22372D01*
X22192Y11520D02*
X22372D01*
X21787Y11555D02*
X21877D01*
X21787Y11385D02*
X21877D01*
Y11555D01*
X21787Y11385D02*
Y11555D01*
X21602Y11890D02*
X22112D01*
X21602Y12400D02*
X22112D01*
Y11890D02*
Y12400D01*
X21602Y11890D02*
Y12400D01*
X21787Y12930D02*
X21877D01*
X21787Y12760D02*
X21877D01*
Y12930D01*
X21787Y12760D02*
Y12930D01*
X18310Y11775D02*
Y11875D01*
X18490Y11775D02*
Y11875D01*
X18310D02*
X18490D01*
X18310Y11775D02*
X18490D01*
X21982Y11560D02*
X22082D01*
X21982Y11380D02*
X22082D01*
Y11560D01*
X21982Y11380D02*
Y11560D01*
X18310Y12050D02*
Y12150D01*
X18490Y12050D02*
Y12150D01*
X18310D02*
X18490D01*
X18310Y12050D02*
X18490D01*
X22782Y12475D02*
Y12565D01*
X22612Y12475D02*
Y12565D01*
Y12475D02*
X22782D01*
X22612Y12565D02*
X22782D01*
X22372Y11345D02*
Y11445D01*
X22192Y11345D02*
Y11445D01*
Y11345D02*
X22372D01*
X22192Y11445D02*
X22372D01*
X22367Y10925D02*
Y11015D01*
X22197Y10925D02*
Y11015D01*
Y10925D02*
X22367D01*
X22197Y11015D02*
X22367D01*
Y11150D02*
Y11240D01*
X22197Y11150D02*
Y11240D01*
Y11150D02*
X22367D01*
X22197Y11240D02*
X22367D01*
X22782Y12250D02*
Y12340D01*
X22612Y12250D02*
Y12340D01*
Y12250D02*
X22782D01*
X22612Y12340D02*
X22782D01*
X20555Y7085D02*
X20645D01*
X20555Y6915D02*
X20645D01*
Y7085D01*
X20555Y6915D02*
Y7085D01*
Y6485D02*
X20645D01*
X20555Y6315D02*
X20645D01*
Y6485D01*
X20555Y6315D02*
Y6485D01*
X22427Y12725D02*
Y12815D01*
X22257Y12725D02*
Y12815D01*
Y12725D02*
X22427D01*
X22257Y12815D02*
X22427D01*
X21785Y13163D02*
X21885D01*
X21785Y13343D02*
X21885D01*
X21785Y13163D02*
Y13343D01*
X21885Y13163D02*
Y13343D01*
X19890Y8240D02*
Y8450D01*
X19755Y8240D02*
Y8450D01*
X19890D01*
X19755Y8240D02*
X19890D01*
X20498Y9078D02*
Y9288D01*
X20362Y9078D02*
Y9288D01*
X20498D01*
X20362Y9078D02*
X20498D01*
X19993Y9155D02*
X20202D01*
X19993Y9020D02*
X20202D01*
X19993D02*
Y9155D01*
X20202Y9020D02*
Y9155D01*
X22430Y12950D02*
Y13040D01*
X22260Y12950D02*
Y13040D01*
Y12950D02*
X22430D01*
X22260Y13040D02*
X22430D01*
X20765Y6650D02*
Y6750D01*
X20585Y6650D02*
Y6750D01*
Y6650D02*
X20765D01*
X20585Y6750D02*
X20765D01*
X21965Y13115D02*
Y13325D01*
X22100Y13115D02*
Y13325D01*
X21965Y13115D02*
X22100D01*
X21965Y13325D02*
X22100D01*
X21982Y12745D02*
X22082D01*
X21982Y12925D02*
X22082D01*
X21982Y12745D02*
Y12925D01*
X22082Y12745D02*
Y12925D01*
X22785Y12953D02*
Y13043D01*
X22615Y12953D02*
Y13043D01*
Y12953D02*
X22785D01*
X22615Y13043D02*
X22785D01*
Y12710D02*
Y12800D01*
X22615Y12710D02*
Y12800D01*
Y12710D02*
X22785D01*
X22615Y12800D02*
X22785D01*
X21475Y11700D02*
X21565D01*
X21475Y11530D02*
X21565D01*
Y11700D01*
X21475Y11530D02*
Y11700D01*
X21265Y11673D02*
X21365D01*
X21265Y11853D02*
X21365D01*
X21265Y11673D02*
Y11853D01*
X21365Y11673D02*
Y11853D01*
X21535Y11163D02*
Y11263D01*
X21355Y11163D02*
Y11263D01*
Y11163D02*
X21535D01*
X21355Y11263D02*
X21535D01*
X20875Y11373D02*
X20965D01*
X20875Y11203D02*
X20965D01*
Y11373D01*
X20875Y11203D02*
Y11373D01*
X21095Y11853D02*
X21195D01*
X21095Y11673D02*
X21195D01*
Y11853D01*
X21095Y11673D02*
Y11853D01*
X21100Y11373D02*
X21190D01*
X21100Y11203D02*
X21190D01*
Y11373D01*
X21100Y11203D02*
Y11373D01*
X22587Y11955D02*
X22677D01*
X22587Y11785D02*
X22677D01*
Y11955D01*
X22587Y11785D02*
Y11955D01*
X23038Y13410D02*
Y13500D01*
X22868Y13410D02*
Y13500D01*
Y13410D02*
X23038D01*
X22868Y13500D02*
X23038D01*
X23373Y11318D02*
Y11528D01*
X23238Y11318D02*
Y11528D01*
X23373D01*
X23238Y11318D02*
X23373D01*
X23255Y10982D02*
X23355D01*
X23255Y11162D02*
X23355D01*
X23255Y10982D02*
Y11162D01*
X23355Y10982D02*
Y11162D01*
X22940Y10957D02*
Y11057D01*
X23120Y10957D02*
Y11057D01*
X22940D02*
X23120D01*
X22940Y10957D02*
X23120D01*
X21220Y9332D02*
X21430D01*
X21220Y9468D02*
X21430D01*
Y9332D02*
Y9468D01*
X21220Y9332D02*
Y9468D01*
X21493Y8870D02*
Y9080D01*
X21357Y8870D02*
Y9080D01*
X21493D01*
X21357Y8870D02*
X21493D01*
X20182Y8435D02*
Y8525D01*
X20012Y8435D02*
Y8525D01*
Y8435D02*
X20182D01*
X20012Y8525D02*
X20182D01*
X19990Y8760D02*
X20200D01*
X19990Y8625D02*
X20200D01*
X19990D02*
Y8760D01*
X20200Y8625D02*
Y8760D01*
X19990Y8960D02*
X20200D01*
X19990Y8825D02*
X20200D01*
X19990D02*
Y8960D01*
X20200Y8825D02*
Y8960D01*
X20793Y9272D02*
Y9482D01*
X20657Y9272D02*
Y9482D01*
X20793D01*
X20657Y9272D02*
X20793D01*
X20237Y11535D02*
Y11635D01*
X20417Y11535D02*
Y11635D01*
X20237D02*
X20417D01*
X20237Y11535D02*
X20417D01*
X19807Y11570D02*
X19897D01*
X19807Y11400D02*
X19897D01*
Y11570D01*
X19807Y11400D02*
Y11570D01*
X19622Y11905D02*
X20132D01*
X19622Y12415D02*
X20132D01*
Y11905D02*
Y12415D01*
X19622Y11905D02*
Y12415D01*
X19807Y12945D02*
X19897D01*
X19807Y12775D02*
X19897D01*
Y12945D01*
X19807Y12775D02*
Y12945D01*
X20002Y11575D02*
X20102D01*
X20002Y11395D02*
X20102D01*
Y11575D01*
X20002Y11395D02*
Y11575D01*
X20760Y12315D02*
Y12405D01*
X20590Y12315D02*
Y12405D01*
Y12315D02*
X20760D01*
X20590Y12405D02*
X20760D01*
X20417Y11360D02*
Y11460D01*
X20237Y11360D02*
Y11460D01*
Y11360D02*
X20417D01*
X20237Y11460D02*
X20417D01*
X20412Y11165D02*
Y11255D01*
X20242Y11165D02*
Y11255D01*
Y11165D02*
X20412D01*
X20242Y11255D02*
X20412D01*
Y10940D02*
Y11030D01*
X20242Y10940D02*
Y11030D01*
Y10940D02*
X20412D01*
X20242Y11030D02*
X20412D01*
X20762Y12540D02*
Y12630D01*
X20592Y12540D02*
Y12630D01*
Y12540D02*
X20762D01*
X20592Y12630D02*
X20762D01*
X20412Y12765D02*
Y12855D01*
X20242Y12765D02*
Y12855D01*
Y12765D02*
X20412D01*
X20242Y12855D02*
X20412D01*
X19802Y13180D02*
X19902D01*
X19802Y13360D02*
X19902D01*
X19802Y13180D02*
Y13360D01*
X19902Y13180D02*
Y13360D01*
X20412Y12990D02*
Y13080D01*
X20242Y12990D02*
Y13080D01*
Y12990D02*
X20412D01*
X20242Y13080D02*
X20412D01*
X19985Y13130D02*
Y13340D01*
X20120Y13130D02*
Y13340D01*
X19985Y13130D02*
X20120D01*
X19985Y13340D02*
X20120D01*
X20002Y12770D02*
X20102D01*
X20002Y12950D02*
X20102D01*
X20002Y12770D02*
Y12950D01*
X20102Y12770D02*
Y12950D01*
X19230Y8790D02*
X19550D01*
X19230Y9110D02*
X19550D01*
Y8790D02*
Y9110D01*
X19230Y8790D02*
Y9110D01*
X19400Y9328D02*
X19610D01*
X19400Y9193D02*
X19610D01*
X19400D02*
Y9328D01*
X19610Y9193D02*
Y9328D01*
X19432Y9755D02*
X19773D01*
X19432Y9485D02*
X19773D01*
X19432D02*
Y9755D01*
X19773Y9485D02*
Y9755D01*
X20182D02*
X20523D01*
X20182Y9485D02*
X20523D01*
X20182D02*
Y9755D01*
X20523Y9485D02*
Y9755D01*
X18877Y8903D02*
Y9112D01*
X19012Y8903D02*
Y9112D01*
X18877Y8903D02*
X19012D01*
X18877Y9112D02*
X19012D01*
X20762Y12765D02*
Y12855D01*
X20592Y12765D02*
Y12855D01*
Y12765D02*
X20762D01*
X20592Y12855D02*
X20762D01*
X19285Y9207D02*
Y9307D01*
X19105Y9207D02*
Y9307D01*
Y9207D02*
X19285D01*
X19105Y9307D02*
X19285D01*
X20762Y12990D02*
Y13080D01*
X20592Y12990D02*
Y13080D01*
Y12990D02*
X20762D01*
X20592Y13080D02*
X20762D01*
X19295Y8582D02*
Y8682D01*
X19115Y8582D02*
Y8682D01*
Y8582D02*
X19295D01*
X19115Y8682D02*
X19295D01*
X19280Y8362D02*
Y8453D01*
X19110Y8362D02*
Y8453D01*
Y8362D02*
X19280D01*
X19110Y8453D02*
X19280D01*
X20682Y9805D02*
X20773D01*
X20682Y9635D02*
X20773D01*
Y9805D01*
X20682Y9635D02*
Y9805D01*
X19407Y11670D02*
X19497D01*
X19407Y11500D02*
X19497D01*
Y11670D01*
X19407Y11500D02*
Y11670D01*
X19182Y9805D02*
X19273D01*
X19182Y9635D02*
X19273D01*
Y9805D01*
X19182Y9635D02*
Y9805D01*
X19932D02*
X20023D01*
X19932Y9635D02*
X20023D01*
Y9805D01*
X19932Y9635D02*
Y9805D01*
X19227Y11643D02*
X19327D01*
X19227Y11823D02*
X19327D01*
X19227Y11643D02*
Y11823D01*
X19327Y11643D02*
Y11823D01*
X19467Y11233D02*
Y11333D01*
X19287Y11233D02*
Y11333D01*
Y11233D02*
X19467D01*
X19287Y11333D02*
X19467D01*
X18832Y11443D02*
X18922D01*
X18832Y11273D02*
X18922D01*
Y11443D01*
X18832Y11273D02*
Y11443D01*
X19460Y8362D02*
Y8453D01*
X19630Y8362D02*
Y8453D01*
X19460D02*
X19630D01*
X19460Y8362D02*
X19630D01*
X19052Y11823D02*
X19152D01*
X19052Y11643D02*
X19152D01*
Y11823D01*
X19052Y11643D02*
Y11823D01*
X19460Y8588D02*
Y8678D01*
X19630Y8588D02*
Y8678D01*
X19460D02*
X19630D01*
X19460Y8588D02*
X19630D01*
X19057Y11440D02*
X19147D01*
X19057Y11270D02*
X19147D01*
Y11440D01*
X19057Y11270D02*
Y11440D01*
X20682Y11995D02*
X20772D01*
X20682Y11825D02*
X20772D01*
Y11995D01*
X20682Y11825D02*
Y11995D01*
M02*
