G04*
G04 #@! TF.GenerationSoftware,Altium Limited,Altium Designer,19.1.9 (167)*
G04*
G04 Layer_Physical_Order=3*
G04 Layer_Color=6736896*
%FSLAX42Y42*%
%MOMM*%
G71*
G01*
G75*
%ADD127C,1.57*%
%ADD136C,1.55*%
%ADD138C,0.45*%
%ADD139C,0.80*%
%ADD140C,0.40*%
%ADD141C,0.50*%
G36*
X18390Y13365D02*
Y5660D01*
X18207Y5478D01*
X6305D01*
X5978Y5805D01*
Y8555D01*
X5983Y13365D01*
X6195Y13577D01*
X18177D01*
X18390Y13365D01*
D02*
G37*
G36*
X23507Y13365D02*
Y13325D01*
X23495Y13322D01*
X23495Y13322D01*
X23482Y13330D01*
X23468Y13333D01*
X23453Y13330D01*
X23440Y13322D01*
X23432Y13310D01*
X23429Y13295D01*
X23432Y13280D01*
X23440Y13268D01*
X23453Y13260D01*
X23468Y13257D01*
X23482Y13260D01*
X23495Y13268D01*
X23495Y13268D01*
X23507Y13265D01*
Y5647D01*
X23312Y5453D01*
X18657D01*
X18440Y5670D01*
X18440Y13362D01*
X18632Y13555D01*
X23318D01*
X23507Y13365D01*
D02*
G37*
%LPC*%
G36*
X9455Y13323D02*
X9440Y13320D01*
X9428Y13312D01*
X9420Y13300D01*
X9417Y13285D01*
X9420Y13270D01*
X9428Y13258D01*
X9440Y13250D01*
X9455Y13247D01*
X9470Y13250D01*
X9482Y13258D01*
X9490Y13270D01*
X9493Y13285D01*
X9490Y13300D01*
X9482Y13312D01*
X9470Y13320D01*
X9455Y13323D01*
D02*
G37*
G36*
X9155Y13321D02*
X9140Y13318D01*
X9128Y13310D01*
X9120Y13297D01*
X9117Y13282D01*
X9120Y13268D01*
X9128Y13255D01*
X9140Y13247D01*
X9155Y13244D01*
X9170Y13247D01*
X9182Y13255D01*
X9190Y13268D01*
X9193Y13282D01*
X9190Y13297D01*
X9182Y13310D01*
X9170Y13318D01*
X9155Y13321D01*
D02*
G37*
G36*
X13875Y13181D02*
X13854Y13177D01*
X13835Y13165D01*
X13831Y13159D01*
X13819D01*
X13815Y13165D01*
X13796Y13177D01*
X13775Y13181D01*
X13754Y13177D01*
X13735Y13165D01*
X13723Y13146D01*
X13719Y13125D01*
X13723Y13104D01*
X13735Y13085D01*
X13741Y13081D01*
Y13069D01*
X13735Y13065D01*
X13723Y13046D01*
X13719Y13025D01*
X13723Y13004D01*
X13735Y12985D01*
X13741Y12981D01*
Y12969D01*
X13735Y12965D01*
X13723Y12946D01*
X13719Y12925D01*
X13723Y12904D01*
X13735Y12885D01*
X13741Y12881D01*
Y12869D01*
X13735Y12865D01*
X13723Y12846D01*
X13719Y12825D01*
X13723Y12804D01*
X13735Y12785D01*
X13741Y12781D01*
Y12769D01*
X13735Y12765D01*
X13723Y12746D01*
X13719Y12725D01*
X13723Y12704D01*
X13735Y12685D01*
X13741Y12681D01*
Y12669D01*
X13735Y12665D01*
X13723Y12646D01*
X13719Y12625D01*
X13723Y12604D01*
X13735Y12585D01*
X13741Y12581D01*
Y12569D01*
X13735Y12565D01*
X13723Y12546D01*
X13719Y12525D01*
X13723Y12504D01*
X13735Y12485D01*
X13741Y12481D01*
Y12469D01*
X13735Y12465D01*
X13723Y12446D01*
X13719Y12425D01*
X13723Y12404D01*
X13735Y12385D01*
X13754Y12373D01*
X13775Y12369D01*
X13796Y12373D01*
X13815Y12385D01*
X13819Y12391D01*
X13831D01*
X13835Y12385D01*
X13854Y12373D01*
X13875Y12369D01*
X13896Y12373D01*
X13915Y12385D01*
X13927Y12404D01*
X13931Y12425D01*
X13927Y12446D01*
X13915Y12465D01*
X13909Y12469D01*
Y12481D01*
X13915Y12485D01*
X13927Y12504D01*
X13931Y12525D01*
X13927Y12546D01*
X13915Y12565D01*
X13909Y12569D01*
Y12581D01*
X13915Y12585D01*
X13927Y12604D01*
X13931Y12625D01*
X13927Y12646D01*
X13915Y12665D01*
X13909Y12669D01*
Y12681D01*
X13915Y12685D01*
X13927Y12704D01*
X13931Y12725D01*
X13927Y12746D01*
X13915Y12765D01*
X13909Y12769D01*
Y12781D01*
X13915Y12785D01*
X13927Y12804D01*
X13931Y12825D01*
X13927Y12846D01*
X13915Y12865D01*
X13909Y12869D01*
Y12881D01*
X13915Y12885D01*
X13927Y12904D01*
X13931Y12925D01*
X13927Y12946D01*
X13915Y12965D01*
X13909Y12969D01*
Y12981D01*
X13915Y12985D01*
X13927Y13004D01*
X13931Y13025D01*
X13927Y13046D01*
X13915Y13065D01*
X13909Y13069D01*
Y13081D01*
X13915Y13085D01*
X13927Y13104D01*
X13931Y13125D01*
X13927Y13146D01*
X13915Y13165D01*
X13896Y13177D01*
X13875Y13181D01*
D02*
G37*
G36*
X14707Y13133D02*
X14693Y13130D01*
X14680Y13122D01*
X14672Y13110D01*
X14669Y13095D01*
X14672Y13080D01*
X14680Y13068D01*
X14693Y13060D01*
X14707Y13057D01*
X14722Y13060D01*
X14735Y13068D01*
X14743Y13080D01*
X14746Y13095D01*
X14743Y13110D01*
X14735Y13122D01*
X14722Y13130D01*
X14707Y13133D01*
D02*
G37*
G36*
X13590Y12976D02*
X13569Y12972D01*
X13550Y12960D01*
X13538Y12941D01*
X13534Y12920D01*
X13538Y12899D01*
X13550Y12880D01*
X13569Y12868D01*
X13590Y12864D01*
X13611Y12868D01*
X13630Y12880D01*
X13642Y12899D01*
X13646Y12920D01*
X13642Y12941D01*
X13630Y12960D01*
X13611Y12972D01*
X13590Y12976D01*
D02*
G37*
G36*
X13390D02*
X13369Y12972D01*
X13350Y12960D01*
X13338Y12941D01*
X13334Y12920D01*
X13338Y12899D01*
X13350Y12880D01*
X13369Y12868D01*
X13390Y12864D01*
X13411Y12868D01*
X13430Y12880D01*
X13442Y12899D01*
X13446Y12920D01*
X13442Y12941D01*
X13430Y12960D01*
X13411Y12972D01*
X13390Y12976D01*
D02*
G37*
G36*
X13190D02*
X13169Y12972D01*
X13150Y12960D01*
X13138Y12941D01*
X13134Y12920D01*
X13138Y12899D01*
X13150Y12880D01*
X13169Y12868D01*
X13190Y12864D01*
X13211Y12868D01*
X13230Y12880D01*
X13242Y12899D01*
X13246Y12920D01*
X13242Y12941D01*
X13230Y12960D01*
X13211Y12972D01*
X13190Y12976D01*
D02*
G37*
G36*
X16550Y12856D02*
X16529Y12852D01*
X16510Y12840D01*
X16506Y12834D01*
X16494D01*
X16490Y12840D01*
X16471Y12852D01*
X16450Y12856D01*
X16429Y12852D01*
X16410Y12840D01*
X16398Y12821D01*
X16394Y12802D01*
X16388Y12797D01*
X16382Y12795D01*
X16371Y12802D01*
X16350Y12806D01*
X16329Y12802D01*
X16310Y12790D01*
X16298Y12771D01*
X16294Y12750D01*
X16298Y12729D01*
X16310Y12710D01*
X16329Y12698D01*
X16350Y12694D01*
X16371Y12698D01*
X16390Y12710D01*
X16402Y12729D01*
X16406Y12748D01*
X16412Y12753D01*
X16418Y12755D01*
X16429Y12748D01*
X16450Y12744D01*
X16471Y12748D01*
X16490Y12760D01*
X16494Y12766D01*
X16506D01*
X16510Y12760D01*
X16529Y12748D01*
X16550Y12744D01*
X16571Y12748D01*
X16590Y12760D01*
X16602Y12779D01*
X16606Y12800D01*
X16602Y12821D01*
X16590Y12840D01*
X16571Y12852D01*
X16550Y12856D01*
D02*
G37*
G36*
X15232Y12886D02*
X15218Y12883D01*
X15205Y12875D01*
X15197Y12862D01*
X15194Y12848D01*
X15197Y12833D01*
X15205Y12820D01*
X15218Y12812D01*
X15232Y12809D01*
X15247Y12812D01*
X15260Y12820D01*
X15268Y12833D01*
X15271Y12848D01*
X15268Y12862D01*
X15260Y12875D01*
X15247Y12883D01*
X15232Y12886D01*
D02*
G37*
G36*
X13590Y12776D02*
X13569Y12772D01*
X13550Y12760D01*
X13538Y12741D01*
X13534Y12720D01*
X13538Y12699D01*
X13550Y12680D01*
X13569Y12668D01*
X13590Y12664D01*
X13611Y12668D01*
X13630Y12680D01*
X13642Y12699D01*
X13646Y12720D01*
X13642Y12741D01*
X13630Y12760D01*
X13611Y12772D01*
X13590Y12776D01*
D02*
G37*
G36*
X13390D02*
X13369Y12772D01*
X13350Y12760D01*
X13338Y12741D01*
X13334Y12720D01*
X13338Y12699D01*
X13350Y12680D01*
X13369Y12668D01*
X13390Y12664D01*
X13411Y12668D01*
X13430Y12680D01*
X13442Y12699D01*
X13446Y12720D01*
X13442Y12741D01*
X13430Y12760D01*
X13411Y12772D01*
X13390Y12776D01*
D02*
G37*
G36*
X13190D02*
X13169Y12772D01*
X13150Y12760D01*
X13138Y12741D01*
X13134Y12720D01*
X13138Y12699D01*
X13150Y12680D01*
X13169Y12668D01*
X13190Y12664D01*
X13211Y12668D01*
X13230Y12680D01*
X13242Y12699D01*
X13246Y12720D01*
X13242Y12741D01*
X13230Y12760D01*
X13211Y12772D01*
X13190Y12776D01*
D02*
G37*
G36*
X16450Y12656D02*
X16429Y12652D01*
X16410Y12640D01*
X16406Y12634D01*
X16394D01*
X16390Y12640D01*
X16371Y12652D01*
X16350Y12656D01*
X16329Y12652D01*
X16310Y12640D01*
X16298Y12621D01*
X16294Y12600D01*
X16298Y12579D01*
X16310Y12560D01*
X16329Y12548D01*
X16350Y12544D01*
X16371Y12548D01*
X16390Y12560D01*
X16394Y12566D01*
X16406D01*
X16410Y12560D01*
X16429Y12548D01*
X16450Y12544D01*
X16471Y12548D01*
X16490Y12560D01*
X16502Y12579D01*
X16506Y12600D01*
X16502Y12621D01*
X16490Y12640D01*
X16471Y12652D01*
X16450Y12656D01*
D02*
G37*
G36*
X16200D02*
X16179Y12652D01*
X16160Y12640D01*
X16148Y12621D01*
X16144Y12600D01*
X16148Y12579D01*
X16160Y12560D01*
X16179Y12548D01*
X16200Y12544D01*
X16221Y12548D01*
X16240Y12560D01*
X16252Y12579D01*
X16256Y12600D01*
X16252Y12621D01*
X16240Y12640D01*
X16221Y12652D01*
X16200Y12656D01*
D02*
G37*
G36*
X13590Y12576D02*
X13569Y12572D01*
X13550Y12560D01*
X13538Y12541D01*
X13534Y12520D01*
X13538Y12499D01*
X13550Y12480D01*
X13569Y12468D01*
X13590Y12464D01*
X13611Y12468D01*
X13630Y12480D01*
X13642Y12499D01*
X13646Y12520D01*
X13642Y12541D01*
X13630Y12560D01*
X13611Y12572D01*
X13590Y12576D01*
D02*
G37*
G36*
X13390D02*
X13369Y12572D01*
X13350Y12560D01*
X13338Y12541D01*
X13334Y12520D01*
X13338Y12499D01*
X13350Y12480D01*
X13369Y12468D01*
X13390Y12464D01*
X13411Y12468D01*
X13430Y12480D01*
X13442Y12499D01*
X13446Y12520D01*
X13442Y12541D01*
X13430Y12560D01*
X13411Y12572D01*
X13390Y12576D01*
D02*
G37*
G36*
X13190D02*
X13169Y12572D01*
X13150Y12560D01*
X13138Y12541D01*
X13134Y12520D01*
X13138Y12499D01*
X13150Y12480D01*
X13169Y12468D01*
X13190Y12464D01*
X13211Y12468D01*
X13230Y12480D01*
X13242Y12499D01*
X13246Y12520D01*
X13242Y12541D01*
X13230Y12560D01*
X13211Y12572D01*
X13190Y12576D01*
D02*
G37*
G36*
X16350Y12506D02*
X16329Y12502D01*
X16310Y12490D01*
X16298Y12471D01*
X16294Y12450D01*
X16298Y12429D01*
X16310Y12410D01*
X16329Y12398D01*
X16350Y12394D01*
X16371Y12398D01*
X16390Y12410D01*
X16402Y12429D01*
X16406Y12450D01*
X16402Y12471D01*
X16390Y12490D01*
X16371Y12502D01*
X16350Y12506D01*
D02*
G37*
G36*
X16200D02*
X16179Y12502D01*
X16160Y12490D01*
X16148Y12471D01*
X16144Y12450D01*
X16148Y12429D01*
X16160Y12410D01*
X16179Y12398D01*
X16200Y12394D01*
X16221Y12398D01*
X16240Y12410D01*
X16252Y12429D01*
X16256Y12450D01*
X16252Y12471D01*
X16240Y12490D01*
X16221Y12502D01*
X16200Y12506D01*
D02*
G37*
G36*
X16050D02*
X16029Y12502D01*
X16010Y12490D01*
X15998Y12471D01*
X15994Y12450D01*
X15998Y12429D01*
X16010Y12410D01*
X16029Y12398D01*
X16050Y12394D01*
X16071Y12398D01*
X16090Y12410D01*
X16102Y12429D01*
X16106Y12450D01*
X16102Y12471D01*
X16090Y12490D01*
X16071Y12502D01*
X16050Y12506D01*
D02*
G37*
G36*
X15900D02*
X15879Y12502D01*
X15860Y12490D01*
X15848Y12471D01*
X15844Y12450D01*
X15848Y12429D01*
X15860Y12410D01*
X15879Y12398D01*
X15900Y12394D01*
X15921Y12398D01*
X15940Y12410D01*
X15952Y12429D01*
X15956Y12450D01*
X15952Y12471D01*
X15940Y12490D01*
X15921Y12502D01*
X15900Y12506D01*
D02*
G37*
G36*
X15750D02*
X15729Y12502D01*
X15710Y12490D01*
X15698Y12471D01*
X15694Y12450D01*
X15698Y12429D01*
X15710Y12410D01*
X15729Y12398D01*
X15750Y12394D01*
X15771Y12398D01*
X15790Y12410D01*
X15802Y12429D01*
X15806Y12450D01*
X15802Y12471D01*
X15790Y12490D01*
X15771Y12502D01*
X15750Y12506D01*
D02*
G37*
G36*
X15600D02*
X15579Y12502D01*
X15560Y12490D01*
X15548Y12471D01*
X15544Y12450D01*
X15548Y12429D01*
X15560Y12410D01*
X15579Y12398D01*
X15600Y12394D01*
X15621Y12398D01*
X15640Y12410D01*
X15652Y12429D01*
X15656Y12450D01*
X15652Y12471D01*
X15640Y12490D01*
X15621Y12502D01*
X15600Y12506D01*
D02*
G37*
G36*
X15450D02*
X15429Y12502D01*
X15410Y12490D01*
X15398Y12471D01*
X15394Y12450D01*
X15398Y12429D01*
X15410Y12410D01*
X15429Y12398D01*
X15450Y12394D01*
X15471Y12398D01*
X15490Y12410D01*
X15502Y12429D01*
X15506Y12450D01*
X15502Y12471D01*
X15490Y12490D01*
X15471Y12502D01*
X15450Y12506D01*
D02*
G37*
G36*
X15300D02*
X15279Y12502D01*
X15260Y12490D01*
X15248Y12471D01*
X15244Y12450D01*
X15248Y12429D01*
X15260Y12410D01*
X15279Y12398D01*
X15300Y12394D01*
X15321Y12398D01*
X15340Y12410D01*
X15352Y12429D01*
X15356Y12450D01*
X15352Y12471D01*
X15340Y12490D01*
X15321Y12502D01*
X15300Y12506D01*
D02*
G37*
G36*
X15150D02*
X15129Y12502D01*
X15110Y12490D01*
X15098Y12471D01*
X15094Y12450D01*
X15098Y12429D01*
X15110Y12410D01*
X15129Y12398D01*
X15150Y12394D01*
X15171Y12398D01*
X15190Y12410D01*
X15202Y12429D01*
X15206Y12450D01*
X15202Y12471D01*
X15190Y12490D01*
X15171Y12502D01*
X15150Y12506D01*
D02*
G37*
G36*
X11425Y12356D02*
X11404Y12352D01*
X11385Y12340D01*
X11373Y12321D01*
X11369Y12300D01*
X11373Y12279D01*
X11385Y12260D01*
X11404Y12248D01*
X11425Y12244D01*
X11446Y12248D01*
X11465Y12260D01*
X11477Y12279D01*
X11481Y12300D01*
X11477Y12321D01*
X11465Y12340D01*
X11446Y12352D01*
X11425Y12356D01*
D02*
G37*
G36*
X11275D02*
X11254Y12352D01*
X11235Y12340D01*
X11223Y12321D01*
X11219Y12300D01*
X11223Y12279D01*
X11235Y12260D01*
X11254Y12248D01*
X11275Y12244D01*
X11296Y12248D01*
X11315Y12260D01*
X11327Y12279D01*
X11331Y12300D01*
X11327Y12321D01*
X11315Y12340D01*
X11296Y12352D01*
X11275Y12356D01*
D02*
G37*
G36*
X11125D02*
X11104Y12352D01*
X11085Y12340D01*
X11073Y12321D01*
X11069Y12300D01*
X11073Y12279D01*
X11085Y12260D01*
X11104Y12248D01*
X11125Y12244D01*
X11146Y12248D01*
X11165Y12260D01*
X11177Y12279D01*
X11181Y12300D01*
X11177Y12321D01*
X11165Y12340D01*
X11146Y12352D01*
X11125Y12356D01*
D02*
G37*
G36*
X10975D02*
X10954Y12352D01*
X10935Y12340D01*
X10923Y12321D01*
X10919Y12300D01*
X10923Y12279D01*
X10935Y12260D01*
X10954Y12248D01*
X10975Y12244D01*
X10996Y12248D01*
X11015Y12260D01*
X11027Y12279D01*
X11031Y12300D01*
X11027Y12321D01*
X11015Y12340D01*
X10996Y12352D01*
X10975Y12356D01*
D02*
G37*
G36*
X10825D02*
X10804Y12352D01*
X10785Y12340D01*
X10773Y12321D01*
X10769Y12300D01*
X10773Y12279D01*
X10785Y12260D01*
X10804Y12248D01*
X10825Y12244D01*
X10846Y12248D01*
X10865Y12260D01*
X10877Y12279D01*
X10881Y12300D01*
X10877Y12321D01*
X10865Y12340D01*
X10846Y12352D01*
X10825Y12356D01*
D02*
G37*
G36*
X10650D02*
X10629Y12352D01*
X10610Y12340D01*
X10598Y12321D01*
X10594Y12300D01*
X10598Y12279D01*
X10610Y12260D01*
X10629Y12248D01*
X10650Y12244D01*
X10671Y12248D01*
X10690Y12260D01*
X10702Y12279D01*
X10706Y12300D01*
X10702Y12321D01*
X10690Y12340D01*
X10671Y12352D01*
X10650Y12356D01*
D02*
G37*
G36*
X16775Y12281D02*
X16760Y12278D01*
X16748Y12270D01*
X16740Y12257D01*
X16737Y12243D01*
X16740Y12228D01*
X16748Y12215D01*
X16760Y12207D01*
X16775Y12204D01*
X16790Y12207D01*
X16802Y12215D01*
X16810Y12228D01*
X16813Y12243D01*
X16810Y12257D01*
X16802Y12270D01*
X16790Y12278D01*
X16775Y12281D01*
D02*
G37*
G36*
X9700Y12238D02*
X9685Y12235D01*
X9673Y12227D01*
X9665Y12215D01*
X9662Y12200D01*
X9665Y12185D01*
X9673Y12173D01*
X9685Y12165D01*
X9700Y12162D01*
X9715Y12165D01*
X9727Y12173D01*
X9735Y12185D01*
X9738Y12200D01*
X9735Y12215D01*
X9727Y12227D01*
X9715Y12235D01*
X9700Y12238D01*
D02*
G37*
G36*
X17350Y12206D02*
X17329Y12202D01*
X17310Y12190D01*
X17298Y12171D01*
X17294Y12150D01*
X17298Y12129D01*
X17310Y12110D01*
X17329Y12098D01*
X17350Y12094D01*
X17371Y12098D01*
X17390Y12110D01*
X17402Y12129D01*
X17406Y12150D01*
X17402Y12171D01*
X17390Y12190D01*
X17371Y12202D01*
X17350Y12206D01*
D02*
G37*
G36*
X10053Y12113D02*
X10038Y12110D01*
X10025Y12102D01*
X10017Y12090D01*
X10014Y12075D01*
X10017Y12060D01*
X10025Y12048D01*
X10038Y12040D01*
X10053Y12037D01*
X10067Y12040D01*
X10080Y12048D01*
X10088Y12060D01*
X10091Y12075D01*
X10088Y12090D01*
X10080Y12102D01*
X10067Y12110D01*
X10053Y12113D01*
D02*
G37*
G36*
X9500Y12063D02*
X9485Y12060D01*
X9473Y12052D01*
X9465Y12040D01*
X9462Y12025D01*
X9465Y12010D01*
X9473Y11998D01*
X9485Y11990D01*
X9500Y11987D01*
X9515Y11990D01*
X9527Y11998D01*
X9535Y12010D01*
X9538Y12025D01*
X9535Y12040D01*
X9527Y12052D01*
X9515Y12060D01*
X9500Y12063D01*
D02*
G37*
G36*
X13782Y12051D02*
X13768Y12048D01*
X13755Y12040D01*
X13747Y12027D01*
X13744Y12012D01*
X13747Y11998D01*
X13755Y11985D01*
X13768Y11977D01*
X13782Y11974D01*
X13797Y11977D01*
X13810Y11985D01*
X13818Y11998D01*
X13821Y12012D01*
X13818Y12027D01*
X13810Y12040D01*
X13797Y12048D01*
X13782Y12051D01*
D02*
G37*
G36*
X14293Y12046D02*
X14278Y12043D01*
X14265Y12035D01*
X14257Y12022D01*
X14254Y12007D01*
X14257Y11993D01*
X14265Y11980D01*
X14278Y11972D01*
X14293Y11969D01*
X14307Y11972D01*
X14320Y11980D01*
X14328Y11993D01*
X14331Y12007D01*
X14328Y12022D01*
X14320Y12035D01*
X14307Y12043D01*
X14293Y12046D01*
D02*
G37*
G36*
X17350Y12056D02*
X17329Y12052D01*
X17310Y12040D01*
X17298Y12021D01*
X17294Y12000D01*
X17298Y11979D01*
X17310Y11960D01*
X17329Y11948D01*
X17350Y11944D01*
X17371Y11948D01*
X17390Y11960D01*
X17402Y11979D01*
X17406Y12000D01*
X17402Y12021D01*
X17390Y12040D01*
X17371Y12052D01*
X17350Y12056D01*
D02*
G37*
G36*
X10593Y11931D02*
X10578Y11928D01*
X10565Y11920D01*
X10557Y11907D01*
X10554Y11893D01*
X10557Y11878D01*
X10565Y11865D01*
X10578Y11857D01*
X10593Y11854D01*
X10607Y11857D01*
X10620Y11865D01*
X10628Y11878D01*
X10631Y11893D01*
X10628Y11907D01*
X10620Y11920D01*
X10607Y11928D01*
X10593Y11931D01*
D02*
G37*
G36*
X9812Y11928D02*
X9798Y11925D01*
X9785Y11917D01*
X9777Y11905D01*
X9774Y11890D01*
X9777Y11875D01*
X9785Y11863D01*
X9798Y11855D01*
X9812Y11852D01*
X9827Y11855D01*
X9840Y11863D01*
X9848Y11875D01*
X9851Y11890D01*
X9848Y11905D01*
X9840Y11917D01*
X9827Y11925D01*
X9812Y11928D01*
D02*
G37*
G36*
X16970Y11918D02*
X16955Y11915D01*
X16943Y11907D01*
X16935Y11895D01*
X16932Y11880D01*
X16935Y11865D01*
X16943Y11853D01*
X16955Y11845D01*
X16970Y11842D01*
X16985Y11845D01*
X16997Y11853D01*
X17005Y11865D01*
X17008Y11880D01*
X17005Y11895D01*
X16997Y11907D01*
X16985Y11915D01*
X16970Y11918D01*
D02*
G37*
G36*
X13965Y11841D02*
X13951Y11838D01*
X13940Y11830D01*
X13933Y11820D01*
X13926Y11819D01*
X13919Y11820D01*
X13913Y11830D01*
X13901Y11838D01*
X13888Y11841D01*
X13874Y11838D01*
X13862Y11830D01*
X13855Y11819D01*
X13852Y11805D01*
X13855Y11791D01*
X13862Y11780D01*
X13874Y11772D01*
X13888Y11769D01*
X13901Y11772D01*
X13913Y11780D01*
X13919Y11790D01*
X13926Y11791D01*
X13933Y11790D01*
X13940Y11780D01*
X13951Y11772D01*
X13965Y11769D01*
X13979Y11772D01*
X13990Y11780D01*
X13998Y11791D01*
X14001Y11805D01*
X13998Y11819D01*
X13990Y11830D01*
X13979Y11838D01*
X13965Y11841D01*
D02*
G37*
G36*
X17350Y11906D02*
X17329Y11902D01*
X17310Y11890D01*
X17298Y11871D01*
X17294Y11850D01*
X17298Y11829D01*
X17310Y11810D01*
X17329Y11798D01*
X17350Y11794D01*
X17371Y11798D01*
X17390Y11810D01*
X17402Y11829D01*
X17406Y11850D01*
X17402Y11871D01*
X17390Y11890D01*
X17371Y11902D01*
X17350Y11906D01*
D02*
G37*
G36*
X14132Y11848D02*
X14119Y11845D01*
X14107Y11838D01*
X14100Y11826D01*
X14097Y11812D01*
X14100Y11799D01*
X14107Y11787D01*
X14119Y11780D01*
X14132Y11777D01*
X14146Y11780D01*
X14158Y11787D01*
X14162Y11794D01*
X14166Y11795D01*
X14176Y11794D01*
X14182Y11785D01*
X14194Y11777D01*
X14207Y11774D01*
X14221Y11777D01*
X14233Y11785D01*
X14240Y11796D01*
X14243Y11810D01*
X14240Y11824D01*
X14233Y11835D01*
X14221Y11843D01*
X14207Y11846D01*
X14194Y11843D01*
X14182Y11835D01*
X14178Y11829D01*
X14174Y11828D01*
X14164Y11829D01*
X14158Y11838D01*
X14146Y11845D01*
X14132Y11848D01*
D02*
G37*
G36*
X17350Y11756D02*
X17329Y11752D01*
X17310Y11740D01*
X17298Y11721D01*
X17294Y11700D01*
X17298Y11679D01*
X17310Y11660D01*
X17329Y11648D01*
X17350Y11644D01*
X17371Y11648D01*
X17390Y11660D01*
X17402Y11679D01*
X17406Y11700D01*
X17402Y11721D01*
X17390Y11740D01*
X17371Y11752D01*
X17350Y11756D01*
D02*
G37*
G36*
X9938Y11786D02*
X9924Y11783D01*
X9912Y11775D01*
X9905Y11764D01*
X9902Y11750D01*
X9905Y11736D01*
X9912Y11725D01*
X9923Y11717D01*
X9924Y11714D01*
X9924Y11704D01*
X9915Y11698D01*
X9907Y11686D01*
X9904Y11672D01*
X9907Y11659D01*
X9915Y11647D01*
X9926Y11640D01*
X9940Y11637D01*
X9954Y11640D01*
X9965Y11647D01*
X9973Y11659D01*
X9976Y11672D01*
X9973Y11686D01*
X9965Y11698D01*
X9954Y11705D01*
X9953Y11709D01*
X9953Y11718D01*
X9963Y11725D01*
X9970Y11736D01*
X9973Y11750D01*
X9970Y11764D01*
X9963Y11775D01*
X9951Y11783D01*
X9938Y11786D01*
D02*
G37*
G36*
X10212Y11708D02*
X10198Y11705D01*
X10185Y11697D01*
X10177Y11685D01*
X10174Y11670D01*
X10177Y11655D01*
X10185Y11643D01*
X10198Y11635D01*
X10212Y11632D01*
X10227Y11635D01*
X10240Y11643D01*
X10248Y11655D01*
X10251Y11670D01*
X10248Y11685D01*
X10240Y11697D01*
X10227Y11705D01*
X10212Y11708D01*
D02*
G37*
G36*
X10735Y11663D02*
X10721Y11660D01*
X10710Y11653D01*
X10702Y11641D01*
X10699Y11628D01*
X10702Y11614D01*
X10710Y11602D01*
X10721Y11595D01*
X10735Y11592D01*
X10749Y11595D01*
X10760Y11602D01*
X10768Y11614D01*
X10771Y11628D01*
X10768Y11641D01*
X10760Y11653D01*
X10749Y11660D01*
X10735Y11663D01*
D02*
G37*
G36*
X10885Y11656D02*
X10870Y11653D01*
X10858Y11645D01*
X10849Y11633D01*
X10846Y11618D01*
X10849Y11603D01*
X10858Y11591D01*
X10870Y11583D01*
X10885Y11580D01*
X10899Y11583D01*
X10912Y11591D01*
X10920Y11603D01*
X10923Y11618D01*
X10920Y11633D01*
X10912Y11645D01*
X10899Y11653D01*
X10885Y11656D01*
D02*
G37*
G36*
X7745Y11563D02*
X7730Y11560D01*
X7718Y11552D01*
X7710Y11540D01*
X7707Y11525D01*
X7710Y11510D01*
X7718Y11498D01*
X7730Y11490D01*
X7745Y11487D01*
X7760Y11490D01*
X7772Y11498D01*
X7780Y11510D01*
X7783Y11525D01*
X7780Y11540D01*
X7772Y11552D01*
X7760Y11560D01*
X7745Y11563D01*
D02*
G37*
G36*
X14370Y11518D02*
X14356Y11515D01*
X14345Y11508D01*
X14337Y11496D01*
X14334Y11482D01*
X14337Y11469D01*
X14345Y11457D01*
X14356Y11450D01*
X14370Y11447D01*
X14384Y11450D01*
X14395Y11457D01*
X14403Y11469D01*
X14406Y11482D01*
X14403Y11496D01*
X14395Y11508D01*
X14384Y11515D01*
X14370Y11518D01*
D02*
G37*
G36*
X9437Y11513D02*
X9423Y11511D01*
X9410Y11502D01*
X9402Y11490D01*
X9399Y11475D01*
X9402Y11461D01*
X9410Y11448D01*
X9423Y11440D01*
X9437Y11437D01*
X9452Y11440D01*
X9464Y11448D01*
X9473Y11461D01*
X9476Y11475D01*
X9473Y11490D01*
X9464Y11502D01*
X9452Y11511D01*
X9437Y11513D01*
D02*
G37*
G36*
X15850Y11511D02*
X15835Y11508D01*
X15823Y11500D01*
X15815Y11487D01*
X15812Y11472D01*
X15815Y11458D01*
X15823Y11445D01*
X15835Y11437D01*
X15850Y11434D01*
X15865Y11437D01*
X15877Y11445D01*
X15885Y11458D01*
X15888Y11472D01*
X15885Y11487D01*
X15877Y11500D01*
X15865Y11508D01*
X15850Y11511D01*
D02*
G37*
G36*
X16760Y11511D02*
X16745Y11508D01*
X16733Y11500D01*
X16725Y11487D01*
X16722Y11472D01*
X16725Y11458D01*
X16733Y11445D01*
X16745Y11437D01*
X16760Y11434D01*
X16775Y11437D01*
X16787Y11445D01*
X16795Y11458D01*
X16798Y11472D01*
X16795Y11487D01*
X16787Y11500D01*
X16775Y11508D01*
X16760Y11511D01*
D02*
G37*
G36*
X14927Y11501D02*
X14914Y11498D01*
X14902Y11490D01*
X14895Y11479D01*
X14892Y11465D01*
X14895Y11451D01*
X14902Y11440D01*
X14914Y11432D01*
X14927Y11429D01*
X14941Y11432D01*
X14953Y11440D01*
X14960Y11451D01*
X14963Y11465D01*
X14960Y11479D01*
X14953Y11490D01*
X14941Y11498D01*
X14927Y11501D01*
D02*
G37*
G36*
X15015Y11506D02*
X15001Y11503D01*
X14990Y11495D01*
X14982Y11484D01*
X14979Y11470D01*
X14982Y11456D01*
X14990Y11445D01*
X15001Y11437D01*
X15015Y11434D01*
X15029Y11437D01*
X15040Y11445D01*
X15044Y11451D01*
X15049Y11451D01*
X15058Y11449D01*
X15065Y11440D01*
X15076Y11432D01*
X15090Y11429D01*
X15104Y11432D01*
X15115Y11440D01*
X15123Y11451D01*
X15124Y11459D01*
X15125Y11459D01*
X15137D01*
X15138Y11459D01*
X15139Y11452D01*
X15147Y11440D01*
X15158Y11433D01*
X15172Y11430D01*
X15186Y11433D01*
X15197Y11440D01*
X15205Y11452D01*
X15207Y11462D01*
X15219Y11460D01*
X15222Y11446D01*
X15230Y11435D01*
X15241Y11427D01*
X15255Y11424D01*
X15269Y11427D01*
X15280Y11435D01*
X15288Y11446D01*
X15289Y11452D01*
X15290Y11455D01*
X15303D01*
X15303Y11452D01*
X15305Y11446D01*
X15312Y11435D01*
X15324Y11427D01*
X15338Y11424D01*
X15351Y11427D01*
X15363Y11435D01*
X15364Y11437D01*
X15379D01*
X15382Y11432D01*
X15394Y11425D01*
X15407Y11422D01*
X15421Y11425D01*
X15433Y11432D01*
X15440Y11444D01*
X15443Y11457D01*
X15440Y11471D01*
X15433Y11483D01*
X15421Y11490D01*
X15407Y11493D01*
X15394Y11490D01*
X15382Y11483D01*
X15381Y11481D01*
X15366D01*
X15363Y11485D01*
X15351Y11493D01*
X15338Y11496D01*
X15324Y11493D01*
X15312Y11485D01*
X15305Y11474D01*
X15303Y11468D01*
X15303Y11465D01*
X15290D01*
X15289Y11468D01*
X15288Y11474D01*
X15280Y11485D01*
X15269Y11493D01*
X15255Y11496D01*
X15241Y11493D01*
X15230Y11485D01*
X15222Y11474D01*
X15220Y11463D01*
X15208Y11466D01*
X15205Y11479D01*
X15197Y11491D01*
X15186Y11499D01*
X15172Y11501D01*
X15158Y11499D01*
X15147Y11491D01*
X15139Y11479D01*
X15137Y11472D01*
X15137Y11471D01*
X15124D01*
X15124Y11472D01*
X15123Y11479D01*
X15115Y11490D01*
X15104Y11498D01*
X15090Y11501D01*
X15076Y11498D01*
X15065Y11490D01*
X15061Y11484D01*
X15056Y11484D01*
X15047Y11486D01*
X15040Y11495D01*
X15029Y11503D01*
X15015Y11506D01*
D02*
G37*
G36*
X10068Y11456D02*
X10054Y11453D01*
X10042Y11445D01*
X10035Y11434D01*
X10032Y11420D01*
X10035Y11406D01*
X10042Y11395D01*
X10054Y11387D01*
X10068Y11384D01*
X10081Y11387D01*
X10093Y11395D01*
X10100Y11406D01*
X10103Y11420D01*
X10100Y11434D01*
X10093Y11445D01*
X10081Y11453D01*
X10068Y11456D01*
D02*
G37*
G36*
X10132Y11516D02*
X10119Y11513D01*
X10107Y11505D01*
X10100Y11494D01*
X10097Y11480D01*
X10100Y11466D01*
X10107Y11455D01*
X10119Y11447D01*
X10129Y11445D01*
X10134Y11436D01*
X10135Y11432D01*
X10135Y11432D01*
X10132Y11418D01*
X10135Y11404D01*
X10143Y11393D01*
X10154Y11385D01*
X10168Y11382D01*
X10182Y11385D01*
X10193Y11393D01*
X10201Y11404D01*
X10204Y11418D01*
X10201Y11432D01*
X10193Y11443D01*
X10182Y11451D01*
X10172Y11453D01*
X10166Y11462D01*
X10165Y11466D01*
X10165Y11466D01*
X10168Y11480D01*
X10165Y11494D01*
X10158Y11505D01*
X10146Y11513D01*
X10132Y11516D01*
D02*
G37*
G36*
X13727Y11398D02*
X13714Y11395D01*
X13702Y11388D01*
X13697Y11380D01*
X13696Y11380D01*
X13684D01*
X13683Y11380D01*
X13678Y11388D01*
X13666Y11395D01*
X13652Y11398D01*
X13639Y11395D01*
X13627Y11388D01*
X13620Y11376D01*
X13617Y11362D01*
X13620Y11349D01*
X13627Y11337D01*
X13639Y11330D01*
X13652Y11327D01*
X13666Y11330D01*
X13678Y11337D01*
X13683Y11345D01*
X13684Y11345D01*
X13696D01*
X13697Y11345D01*
X13702Y11337D01*
X13714Y11330D01*
X13727Y11327D01*
X13741Y11330D01*
X13753Y11337D01*
X13760Y11349D01*
X13763Y11362D01*
X13760Y11376D01*
X13753Y11388D01*
X13741Y11395D01*
X13727Y11398D01*
D02*
G37*
G36*
X10285Y11431D02*
X10271Y11428D01*
X10260Y11420D01*
X10252Y11409D01*
X10249Y11395D01*
X10252Y11384D01*
X10246Y11378D01*
X10241Y11375D01*
X10241Y11375D01*
X10228Y11378D01*
X10214Y11375D01*
X10202Y11368D01*
X10195Y11356D01*
X10192Y11343D01*
X10195Y11329D01*
X10202Y11317D01*
X10214Y11310D01*
X10228Y11307D01*
X10241Y11310D01*
X10248Y11314D01*
X10261Y11310D01*
X10262Y11309D01*
X10262Y11309D01*
X10270Y11297D01*
X10281Y11290D01*
X10295Y11287D01*
X10309Y11290D01*
X10320Y11297D01*
X10328Y11309D01*
X10331Y11322D01*
X10328Y11336D01*
X10320Y11348D01*
X10310Y11354D01*
X10308Y11362D01*
X10308Y11368D01*
X10310Y11370D01*
X10318Y11381D01*
X10321Y11395D01*
X10318Y11409D01*
X10310Y11420D01*
X10299Y11428D01*
X10285Y11431D01*
D02*
G37*
G36*
X14838Y11411D02*
X14824Y11408D01*
X14812Y11400D01*
X14805Y11389D01*
X14802Y11375D01*
X14805Y11361D01*
X14812Y11350D01*
X14824Y11342D01*
X14838Y11339D01*
X14851Y11342D01*
X14863Y11350D01*
X14870Y11361D01*
X14873Y11375D01*
X14870Y11389D01*
X14863Y11400D01*
X14851Y11408D01*
X14838Y11411D01*
D02*
G37*
G36*
X13493Y11398D02*
X13479Y11395D01*
X13467Y11388D01*
X13460Y11376D01*
X13457Y11362D01*
X13460Y11349D01*
X13467Y11337D01*
X13479Y11330D01*
X13493Y11327D01*
X13506Y11330D01*
X13518Y11337D01*
X13525Y11349D01*
X13528Y11362D01*
X13525Y11376D01*
X13518Y11388D01*
X13506Y11395D01*
X13493Y11398D01*
D02*
G37*
G36*
X9988Y11386D02*
X9974Y11384D01*
X9963Y11376D01*
X9955Y11364D01*
X9952Y11351D01*
X9955Y11337D01*
X9963Y11325D01*
X9974Y11318D01*
X9988Y11315D01*
X10002Y11318D01*
X10013Y11325D01*
X10021Y11337D01*
X10024Y11351D01*
X10021Y11364D01*
X10013Y11376D01*
X10002Y11384D01*
X9988Y11386D01*
D02*
G37*
G36*
X11000Y11343D02*
X10987Y11340D01*
X10975Y11332D01*
X10967Y11321D01*
X10965Y11307D01*
X10967Y11294D01*
X10975Y11282D01*
X10987Y11274D01*
X11000Y11271D01*
X11014Y11274D01*
X11026Y11282D01*
X11033Y11294D01*
X11036Y11307D01*
X11033Y11321D01*
X11026Y11332D01*
X11014Y11340D01*
X11000Y11343D01*
D02*
G37*
G36*
X14690Y11328D02*
X14676Y11325D01*
X14665Y11318D01*
X14657Y11306D01*
X14654Y11293D01*
X14657Y11279D01*
X14665Y11267D01*
X14676Y11260D01*
X14690Y11257D01*
X14704Y11260D01*
X14715Y11267D01*
X14723Y11279D01*
X14726Y11293D01*
X14723Y11306D01*
X14715Y11318D01*
X14704Y11325D01*
X14690Y11328D01*
D02*
G37*
G36*
X10375Y11316D02*
X10361Y11313D01*
X10350Y11305D01*
X10342Y11294D01*
X10339Y11280D01*
X10342Y11266D01*
X10350Y11255D01*
X10361Y11247D01*
X10375Y11244D01*
X10389Y11247D01*
X10400Y11255D01*
X10408Y11266D01*
X10411Y11280D01*
X10408Y11294D01*
X10400Y11305D01*
X10389Y11313D01*
X10375Y11316D01*
D02*
G37*
G36*
X9480Y11273D02*
X9465Y11270D01*
X9453Y11262D01*
X9445Y11250D01*
X9442Y11235D01*
X9443Y11231D01*
X9441Y11229D01*
X9432Y11221D01*
X9422Y11223D01*
X9409Y11220D01*
X9397Y11213D01*
X9390Y11201D01*
X9387Y11188D01*
X9390Y11174D01*
X9397Y11162D01*
X9409Y11155D01*
X9422Y11152D01*
X9436Y11155D01*
X9448Y11162D01*
X9455Y11174D01*
X9458Y11188D01*
X9458Y11189D01*
X9460Y11193D01*
X9469Y11199D01*
X9480Y11197D01*
X9495Y11200D01*
X9507Y11208D01*
X9515Y11220D01*
X9518Y11235D01*
X9515Y11250D01*
X9507Y11262D01*
X9495Y11270D01*
X9480Y11273D01*
D02*
G37*
G36*
X7060Y11389D02*
X7036Y11386D01*
X7014Y11377D01*
X6995Y11363D01*
X6980Y11343D01*
X6971Y11321D01*
X6968Y11297D01*
X6971Y11274D01*
X6980Y11252D01*
X6995Y11232D01*
X7014Y11218D01*
X7036Y11209D01*
X7060Y11206D01*
X7084Y11209D01*
X7106Y11218D01*
X7125Y11232D01*
X7140Y11252D01*
X7149Y11274D01*
X7152Y11297D01*
X7149Y11321D01*
X7140Y11343D01*
X7125Y11363D01*
X7106Y11377D01*
X7084Y11386D01*
X7060Y11389D01*
D02*
G37*
G36*
X11088Y11266D02*
X11074Y11263D01*
X11062Y11255D01*
X11055Y11244D01*
X11052Y11230D01*
X11055Y11216D01*
X11062Y11205D01*
X11074Y11197D01*
X11088Y11194D01*
X11101Y11197D01*
X11113Y11205D01*
X11120Y11216D01*
X11123Y11230D01*
X11120Y11244D01*
X11113Y11255D01*
X11101Y11263D01*
X11088Y11266D01*
D02*
G37*
G36*
X11253Y11271D02*
X11238Y11268D01*
X11225Y11260D01*
X11217Y11247D01*
X11214Y11232D01*
X11217Y11218D01*
X11225Y11205D01*
X11238Y11197D01*
X11253Y11194D01*
X11267Y11197D01*
X11280Y11205D01*
X11288Y11218D01*
X11291Y11232D01*
X11288Y11247D01*
X11280Y11260D01*
X11267Y11268D01*
X11253Y11271D01*
D02*
G37*
G36*
X6317Y11314D02*
X6294Y11309D01*
X6274Y11296D01*
X6261Y11276D01*
X6256Y11253D01*
X6261Y11229D01*
X6274Y11209D01*
X6294Y11196D01*
X6317Y11191D01*
X6341Y11196D01*
X6361Y11209D01*
X6374Y11229D01*
X6379Y11253D01*
X6374Y11276D01*
X6361Y11296D01*
X6341Y11309D01*
X6317Y11314D01*
D02*
G37*
G36*
X10343Y11108D02*
X10329Y11105D01*
X10317Y11098D01*
X10312Y11090D01*
X10311Y11090D01*
X10299D01*
X10298Y11090D01*
X10293Y11098D01*
X10281Y11105D01*
X10268Y11108D01*
X10254Y11105D01*
X10242Y11098D01*
X10235Y11086D01*
X10232Y11072D01*
X10235Y11059D01*
X10242Y11047D01*
X10254Y11040D01*
X10268Y11037D01*
X10281Y11040D01*
X10293Y11047D01*
X10298Y11055D01*
X10299Y11055D01*
X10311D01*
X10312Y11055D01*
X10317Y11047D01*
X10329Y11040D01*
X10343Y11037D01*
X10356Y11040D01*
X10368Y11047D01*
X10375Y11059D01*
X10378Y11072D01*
X10375Y11086D01*
X10368Y11098D01*
X10356Y11105D01*
X10343Y11108D01*
D02*
G37*
G36*
X10705Y11116D02*
X10691Y11113D01*
X10680Y11105D01*
X10672Y11094D01*
X10669Y11080D01*
X10672Y11066D01*
X10680Y11055D01*
X10691Y11047D01*
X10705Y11044D01*
X10719Y11047D01*
X10730Y11055D01*
X10738Y11066D01*
X10741Y11080D01*
X10738Y11094D01*
X10730Y11105D01*
X10719Y11113D01*
X10705Y11116D01*
D02*
G37*
G36*
X10538Y11108D02*
X10524Y11105D01*
X10512Y11098D01*
X10505Y11086D01*
X10502Y11072D01*
X10505Y11059D01*
X10512Y11047D01*
X10524Y11040D01*
X10538Y11037D01*
X10551Y11040D01*
X10563Y11047D01*
X10570Y11059D01*
X10573Y11072D01*
X10570Y11086D01*
X10563Y11098D01*
X10551Y11105D01*
X10538Y11108D01*
D02*
G37*
G36*
X9055Y11113D02*
X9040Y11110D01*
X9028Y11102D01*
X9020Y11090D01*
X9017Y11075D01*
X9020Y11060D01*
X9028Y11048D01*
X9040Y11040D01*
X9055Y11037D01*
X9070Y11040D01*
X9082Y11048D01*
X9090Y11060D01*
X9093Y11075D01*
X9090Y11090D01*
X9082Y11102D01*
X9070Y11110D01*
X9055Y11113D01*
D02*
G37*
G36*
X9768Y10988D02*
X9754Y10985D01*
X9742Y10978D01*
X9735Y10966D01*
X9732Y10953D01*
X9735Y10939D01*
X9739Y10932D01*
X9730Y10923D01*
X9726Y10925D01*
X9712Y10928D01*
X9699Y10925D01*
X9687Y10918D01*
X9680Y10906D01*
X9677Y10893D01*
X9680Y10879D01*
X9687Y10867D01*
X9699Y10860D01*
X9712Y10857D01*
X9726Y10860D01*
X9738Y10867D01*
X9745Y10879D01*
X9748Y10893D01*
X9745Y10906D01*
X9741Y10913D01*
X9750Y10922D01*
X9754Y10920D01*
X9768Y10917D01*
X9781Y10920D01*
X9793Y10927D01*
X9800Y10939D01*
X9803Y10953D01*
X9800Y10966D01*
X9793Y10978D01*
X9781Y10985D01*
X9768Y10988D01*
D02*
G37*
G36*
X14862Y10991D02*
X14849Y10988D01*
X14837Y10980D01*
X14830Y10969D01*
X14827Y10955D01*
X14830Y10941D01*
X14837Y10930D01*
X14849Y10922D01*
X14862Y10919D01*
X14876Y10922D01*
X14888Y10930D01*
X14895Y10941D01*
X14898Y10955D01*
X14895Y10969D01*
X14888Y10980D01*
X14876Y10988D01*
X14862Y10991D01*
D02*
G37*
G36*
X9535Y10933D02*
X9521Y10930D01*
X9510Y10923D01*
X9502Y10911D01*
X9499Y10897D01*
X9502Y10884D01*
X9510Y10872D01*
X9521Y10865D01*
X9535Y10862D01*
X9549Y10865D01*
X9560Y10872D01*
X9568Y10884D01*
X9571Y10897D01*
X9568Y10911D01*
X9560Y10923D01*
X9549Y10930D01*
X9535Y10933D01*
D02*
G37*
G36*
X9830Y10931D02*
X9816Y10928D01*
X9805Y10920D01*
X9797Y10909D01*
X9794Y10895D01*
X9797Y10881D01*
X9805Y10870D01*
X9816Y10862D01*
X9830Y10859D01*
X9844Y10862D01*
X9855Y10870D01*
X9863Y10881D01*
X9866Y10895D01*
X9863Y10909D01*
X9855Y10920D01*
X9844Y10928D01*
X9830Y10931D01*
D02*
G37*
G36*
X14603Y10903D02*
X14590Y10900D01*
X14578Y10892D01*
X14570Y10881D01*
X14568Y10867D01*
X14570Y10854D01*
X14578Y10842D01*
X14590Y10834D01*
X14603Y10832D01*
X14617Y10834D01*
X14629Y10842D01*
X14636Y10854D01*
X14639Y10867D01*
X14636Y10881D01*
X14629Y10892D01*
X14617Y10900D01*
X14603Y10903D01*
D02*
G37*
G36*
X10888Y10881D02*
X10874Y10878D01*
X10862Y10870D01*
X10855Y10859D01*
X10852Y10845D01*
X10855Y10831D01*
X10862Y10820D01*
X10874Y10812D01*
X10888Y10809D01*
X10901Y10812D01*
X10913Y10820D01*
X10920Y10831D01*
X10923Y10845D01*
X10920Y10859D01*
X10913Y10870D01*
X10901Y10878D01*
X10888Y10881D01*
D02*
G37*
G36*
X10707D02*
X10694Y10878D01*
X10682Y10870D01*
X10675Y10859D01*
X10672Y10845D01*
X10675Y10831D01*
X10682Y10820D01*
X10694Y10812D01*
X10707Y10809D01*
X10721Y10812D01*
X10733Y10820D01*
X10740Y10831D01*
X10743Y10845D01*
X10740Y10859D01*
X10733Y10870D01*
X10721Y10878D01*
X10707Y10881D01*
D02*
G37*
G36*
X10597Y10873D02*
X10584Y10870D01*
X10572Y10863D01*
X10565Y10851D01*
X10562Y10838D01*
X10565Y10824D01*
X10572Y10812D01*
X10584Y10805D01*
X10597Y10802D01*
X10611Y10805D01*
X10623Y10812D01*
X10630Y10824D01*
X10633Y10838D01*
X10630Y10851D01*
X10623Y10863D01*
X10611Y10870D01*
X10597Y10873D01*
D02*
G37*
G36*
X9890Y10871D02*
X9876Y10868D01*
X9865Y10860D01*
X9857Y10849D01*
X9854Y10835D01*
X9857Y10821D01*
X9865Y10810D01*
X9876Y10802D01*
X9890Y10799D01*
X9904Y10802D01*
X9915Y10810D01*
X9923Y10821D01*
X9926Y10835D01*
X9923Y10849D01*
X9915Y10860D01*
X9904Y10868D01*
X9890Y10871D01*
D02*
G37*
G36*
X9628Y10864D02*
X9614Y10861D01*
X9603Y10853D01*
X9595Y10842D01*
X9592Y10828D01*
X9595Y10814D01*
X9603Y10803D01*
X9614Y10795D01*
X9628Y10792D01*
X9642Y10795D01*
X9653Y10803D01*
X9661Y10814D01*
X9664Y10828D01*
X9661Y10842D01*
X9653Y10853D01*
X9642Y10861D01*
X9628Y10864D01*
D02*
G37*
G36*
X9040Y10858D02*
X9025Y10855D01*
X9013Y10847D01*
X9005Y10835D01*
X9002Y10820D01*
X9005Y10805D01*
X9013Y10793D01*
X9025Y10785D01*
X9040Y10782D01*
X9055Y10785D01*
X9067Y10793D01*
X9075Y10805D01*
X9078Y10820D01*
X9075Y10835D01*
X9067Y10847D01*
X9055Y10855D01*
X9040Y10858D01*
D02*
G37*
G36*
X11010Y10846D02*
X10996Y10843D01*
X10985Y10835D01*
X10977Y10824D01*
X10974Y10810D01*
X10977Y10796D01*
X10985Y10785D01*
X10996Y10777D01*
X11010Y10774D01*
X11024Y10777D01*
X11035Y10785D01*
X11043Y10796D01*
X11046Y10810D01*
X11043Y10824D01*
X11035Y10835D01*
X11024Y10843D01*
X11010Y10846D01*
D02*
G37*
G36*
X10782Y10828D02*
X10769Y10825D01*
X10757Y10818D01*
X10750Y10806D01*
X10747Y10793D01*
X10750Y10779D01*
X10757Y10767D01*
X10769Y10760D01*
X10782Y10757D01*
X10796Y10760D01*
X10808Y10767D01*
X10815Y10779D01*
X10818Y10793D01*
X10815Y10806D01*
X10808Y10818D01*
X10796Y10825D01*
X10782Y10828D01*
D02*
G37*
G36*
X6317Y10874D02*
X6294Y10869D01*
X6274Y10856D01*
X6261Y10836D01*
X6256Y10813D01*
X6261Y10789D01*
X6274Y10769D01*
X6294Y10756D01*
X6317Y10751D01*
X6341Y10756D01*
X6361Y10769D01*
X6374Y10789D01*
X6379Y10813D01*
X6374Y10836D01*
X6361Y10856D01*
X6341Y10869D01*
X6317Y10874D01*
D02*
G37*
G36*
X11705Y10803D02*
X11690Y10800D01*
X11678Y10792D01*
X11670Y10780D01*
X11667Y10765D01*
X11670Y10750D01*
X11678Y10738D01*
X11690Y10730D01*
X11705Y10727D01*
X11720Y10730D01*
X11732Y10738D01*
X11740Y10750D01*
X11743Y10765D01*
X11740Y10780D01*
X11732Y10792D01*
X11720Y10800D01*
X11705Y10803D01*
D02*
G37*
G36*
X11468Y10788D02*
X11454Y10785D01*
X11442Y10778D01*
X11435Y10766D01*
X11432Y10753D01*
X11435Y10739D01*
X11442Y10727D01*
X11454Y10720D01*
X11468Y10717D01*
X11481Y10720D01*
X11493Y10727D01*
X11500Y10739D01*
X11503Y10753D01*
X11500Y10766D01*
X11493Y10778D01*
X11481Y10785D01*
X11468Y10788D01*
D02*
G37*
G36*
X13493Y10783D02*
X13479Y10780D01*
X13467Y10773D01*
X13460Y10761D01*
X13457Y10747D01*
X13460Y10734D01*
X13467Y10722D01*
X13479Y10715D01*
X13493Y10712D01*
X13506Y10715D01*
X13518Y10722D01*
X13525Y10734D01*
X13528Y10747D01*
X13525Y10761D01*
X13518Y10773D01*
X13506Y10780D01*
X13493Y10783D01*
D02*
G37*
G36*
X9440Y10776D02*
X9426Y10773D01*
X9415Y10765D01*
X9407Y10754D01*
X9404Y10740D01*
X9407Y10726D01*
X9415Y10715D01*
X9426Y10707D01*
X9440Y10704D01*
X9454Y10707D01*
X9465Y10715D01*
X9473Y10726D01*
X9476Y10740D01*
X9473Y10754D01*
X9465Y10765D01*
X9454Y10773D01*
X9440Y10776D01*
D02*
G37*
G36*
X9347Y10763D02*
X9334Y10760D01*
X9322Y10753D01*
X9315Y10741D01*
X9312Y10728D01*
X9315Y10714D01*
X9322Y10702D01*
X9334Y10695D01*
X9347Y10692D01*
X9361Y10695D01*
X9373Y10702D01*
X9380Y10714D01*
X9383Y10728D01*
X9380Y10741D01*
X9373Y10753D01*
X9361Y10760D01*
X9347Y10763D01*
D02*
G37*
G36*
X11026Y10745D02*
X11012Y10742D01*
X11000Y10735D01*
X10993Y10723D01*
X10990Y10709D01*
X10993Y10696D01*
X11000Y10684D01*
X11012Y10676D01*
X11026Y10674D01*
X11039Y10676D01*
X11051Y10684D01*
X11058Y10696D01*
X11061Y10709D01*
X11058Y10723D01*
X11051Y10735D01*
X11039Y10742D01*
X11026Y10745D01*
D02*
G37*
G36*
X14130Y10721D02*
X14116Y10718D01*
X14105Y10710D01*
X14097Y10699D01*
X14094Y10685D01*
X14097Y10671D01*
X14105Y10660D01*
X14116Y10652D01*
X14130Y10649D01*
X14144Y10652D01*
X14155Y10660D01*
X14163Y10671D01*
X14166Y10685D01*
X14163Y10699D01*
X14155Y10710D01*
X14144Y10718D01*
X14130Y10721D01*
D02*
G37*
G36*
X14932D02*
X14919Y10718D01*
X14907Y10710D01*
X14900Y10699D01*
X14897Y10685D01*
X14900Y10671D01*
X14907Y10660D01*
X14919Y10652D01*
X14932Y10649D01*
X14946Y10652D01*
X14958Y10660D01*
X14962Y10666D01*
X14966Y10667D01*
X14976Y10666D01*
X14982Y10657D01*
X14994Y10650D01*
X15007Y10647D01*
X15021Y10650D01*
X15033Y10657D01*
X15040Y10669D01*
X15043Y10682D01*
X15040Y10696D01*
X15033Y10708D01*
X15021Y10715D01*
X15007Y10718D01*
X14994Y10715D01*
X14982Y10708D01*
X14978Y10701D01*
X14974Y10700D01*
X14964Y10701D01*
X14958Y10710D01*
X14946Y10718D01*
X14932Y10721D01*
D02*
G37*
G36*
X14265Y10716D02*
X14251Y10713D01*
X14240Y10705D01*
X14232Y10694D01*
X14229Y10680D01*
X14232Y10666D01*
X14240Y10655D01*
X14251Y10647D01*
X14265Y10644D01*
X14279Y10647D01*
X14290Y10655D01*
X14298Y10666D01*
X14301Y10680D01*
X14298Y10694D01*
X14290Y10705D01*
X14279Y10713D01*
X14265Y10716D01*
D02*
G37*
G36*
X14606Y10704D02*
X14592Y10701D01*
X14580Y10693D01*
X14573Y10682D01*
X14570Y10668D01*
X14573Y10654D01*
X14580Y10643D01*
X14592Y10635D01*
X14606Y10632D01*
X14619Y10635D01*
X14631Y10643D01*
X14639Y10654D01*
X14641Y10668D01*
X14639Y10682D01*
X14631Y10693D01*
X14619Y10701D01*
X14606Y10704D01*
D02*
G37*
G36*
X17225Y10631D02*
X17204Y10627D01*
X17185Y10615D01*
X17181Y10609D01*
X17169D01*
X17165Y10615D01*
X17146Y10627D01*
X17125Y10631D01*
X17104Y10627D01*
X17085Y10615D01*
X17081Y10609D01*
X17069D01*
X17065Y10615D01*
X17046Y10627D01*
X17025Y10631D01*
X17004Y10627D01*
X16985Y10615D01*
X16973Y10596D01*
X16969Y10575D01*
X16973Y10554D01*
X16985Y10535D01*
X17004Y10523D01*
X17025Y10519D01*
X17046Y10523D01*
X17065Y10535D01*
X17069Y10541D01*
X17081D01*
X17085Y10535D01*
X17104Y10523D01*
X17125Y10519D01*
X17146Y10523D01*
X17165Y10535D01*
X17169Y10541D01*
X17181D01*
X17185Y10535D01*
X17204Y10523D01*
X17225Y10519D01*
X17246Y10523D01*
X17265Y10535D01*
X17277Y10554D01*
X17281Y10575D01*
X17277Y10596D01*
X17265Y10615D01*
X17246Y10627D01*
X17225Y10631D01*
D02*
G37*
G36*
X11275Y10621D02*
X11260Y10618D01*
X11248Y10610D01*
X11240Y10597D01*
X11239Y10591D01*
X11229Y10590D01*
X11225Y10590D01*
X11218Y10601D01*
X11207Y10608D01*
X11193Y10611D01*
X11179Y10608D01*
X11168Y10601D01*
X11167Y10599D01*
X11153Y10598D01*
X11141Y10605D01*
X11128Y10608D01*
X11114Y10605D01*
X11102Y10598D01*
X11095Y10586D01*
X11094Y10585D01*
X11081D01*
X11080Y10589D01*
X11073Y10600D01*
X11061Y10608D01*
X11047Y10611D01*
X11034Y10608D01*
X11022Y10600D01*
X11015Y10589D01*
X11012Y10575D01*
X11015Y10561D01*
X11022Y10550D01*
X11034Y10542D01*
X11047Y10539D01*
X11061Y10542D01*
X11073Y10550D01*
X11080Y10561D01*
X11081Y10563D01*
X11094D01*
X11095Y10559D01*
X11102Y10547D01*
X11114Y10540D01*
X11128Y10537D01*
X11141Y10540D01*
X11153Y10547D01*
X11154Y10549D01*
X11168Y10550D01*
X11179Y10543D01*
X11193Y10540D01*
X11207Y10543D01*
X11218Y10550D01*
X11226Y10562D01*
X11227Y10567D01*
X11238Y10568D01*
X11240Y10567D01*
X11248Y10555D01*
X11260Y10547D01*
X11275Y10544D01*
X11290Y10547D01*
X11302Y10555D01*
X11310Y10568D01*
X11313Y10582D01*
X11310Y10597D01*
X11302Y10610D01*
X11290Y10618D01*
X11275Y10621D01*
D02*
G37*
G36*
X9197Y10648D02*
X9184Y10645D01*
X9172Y10638D01*
X9165Y10626D01*
X9162Y10612D01*
X9165Y10599D01*
X9172Y10587D01*
X9184Y10580D01*
X9197Y10577D01*
X9211Y10580D01*
X9223Y10587D01*
X9230Y10599D01*
X9233Y10612D01*
X9230Y10626D01*
X9223Y10638D01*
X9211Y10645D01*
X9197Y10648D01*
D02*
G37*
G36*
X8595Y10651D02*
X8580Y10648D01*
X8568Y10640D01*
X8560Y10627D01*
X8557Y10612D01*
X8560Y10598D01*
X8568Y10585D01*
X8580Y10577D01*
X8595Y10574D01*
X8610Y10577D01*
X8622Y10585D01*
X8630Y10598D01*
X8633Y10612D01*
X8630Y10627D01*
X8622Y10640D01*
X8610Y10648D01*
X8595Y10651D01*
D02*
G37*
G36*
X15840Y10558D02*
X15825Y10555D01*
X15813Y10547D01*
X15805Y10535D01*
X15802Y10520D01*
X15805Y10505D01*
X15813Y10493D01*
X15825Y10485D01*
X15840Y10482D01*
X15855Y10485D01*
X15867Y10493D01*
X15875Y10505D01*
X15878Y10520D01*
X15875Y10535D01*
X15867Y10547D01*
X15855Y10555D01*
X15840Y10558D01*
D02*
G37*
G36*
X9182Y10543D02*
X9169Y10540D01*
X9157Y10533D01*
X9150Y10521D01*
X9147Y10507D01*
X9150Y10494D01*
X9157Y10482D01*
X9169Y10475D01*
X9182Y10472D01*
X9196Y10475D01*
X9208Y10482D01*
X9215Y10494D01*
X9218Y10507D01*
X9215Y10521D01*
X9208Y10533D01*
X9196Y10540D01*
X9182Y10543D01*
D02*
G37*
G36*
X17225Y10481D02*
X17204Y10477D01*
X17185Y10465D01*
X17181Y10459D01*
X17169D01*
X17165Y10465D01*
X17146Y10477D01*
X17125Y10481D01*
X17104Y10477D01*
X17085Y10465D01*
X17081Y10459D01*
X17069D01*
X17065Y10465D01*
X17046Y10477D01*
X17025Y10481D01*
X17004Y10477D01*
X16985Y10465D01*
X16973Y10446D01*
X16969Y10425D01*
X16973Y10404D01*
X16985Y10385D01*
X17004Y10373D01*
X17025Y10369D01*
X17046Y10373D01*
X17065Y10385D01*
X17069Y10391D01*
X17081D01*
X17085Y10385D01*
X17104Y10373D01*
X17125Y10369D01*
X17146Y10373D01*
X17165Y10385D01*
X17169Y10391D01*
X17181D01*
X17185Y10385D01*
X17204Y10373D01*
X17225Y10369D01*
X17246Y10373D01*
X17265Y10385D01*
X17277Y10404D01*
X17281Y10425D01*
X17277Y10446D01*
X17265Y10465D01*
X17246Y10477D01*
X17225Y10481D01*
D02*
G37*
G36*
X16697Y10534D02*
X16682Y10531D01*
X16670Y10523D01*
X16662Y10510D01*
X16659Y10496D01*
X16662Y10481D01*
X16670Y10469D01*
X16682Y10460D01*
X16697Y10457D01*
X16711Y10460D01*
X16724Y10469D01*
X16732Y10481D01*
X16735Y10496D01*
X16732Y10510D01*
X16724Y10523D01*
X16711Y10531D01*
X16697Y10534D01*
D02*
G37*
G36*
X17325Y10556D02*
X17304Y10552D01*
X17285Y10540D01*
X17273Y10521D01*
X17269Y10500D01*
X17273Y10479D01*
X17285Y10460D01*
X17304Y10448D01*
X17325Y10444D01*
X17346Y10448D01*
X17365Y10460D01*
X17377Y10479D01*
X17381Y10500D01*
X17377Y10521D01*
X17365Y10540D01*
X17346Y10552D01*
X17325Y10556D01*
D02*
G37*
G36*
X16925D02*
X16904Y10552D01*
X16885Y10540D01*
X16873Y10521D01*
X16869Y10500D01*
X16873Y10479D01*
X16885Y10460D01*
X16904Y10448D01*
X16925Y10444D01*
X16946Y10448D01*
X16965Y10460D01*
X16977Y10479D01*
X16981Y10500D01*
X16977Y10521D01*
X16965Y10540D01*
X16946Y10552D01*
X16925Y10556D01*
D02*
G37*
G36*
X13730Y10416D02*
X13716Y10413D01*
X13705Y10405D01*
X13698Y10395D01*
X13691Y10394D01*
X13684Y10395D01*
X13678Y10405D01*
X13666Y10413D01*
X13652Y10416D01*
X13639Y10413D01*
X13627Y10405D01*
X13620Y10394D01*
X13617Y10380D01*
X13620Y10366D01*
X13627Y10355D01*
X13639Y10347D01*
X13652Y10344D01*
X13666Y10347D01*
X13678Y10355D01*
X13684Y10365D01*
X13691Y10366D01*
X13698Y10365D01*
X13705Y10355D01*
X13716Y10347D01*
X13730Y10344D01*
X13744Y10347D01*
X13755Y10355D01*
X13763Y10366D01*
X13766Y10380D01*
X13763Y10394D01*
X13755Y10405D01*
X13744Y10413D01*
X13730Y10416D01*
D02*
G37*
G36*
X13970Y10413D02*
X13956Y10410D01*
X13945Y10403D01*
X13937Y10391D01*
X13936Y10388D01*
X13924D01*
X13923Y10391D01*
X13915Y10403D01*
X13904Y10410D01*
X13890Y10413D01*
X13876Y10410D01*
X13865Y10403D01*
X13857Y10391D01*
X13854Y10378D01*
X13857Y10364D01*
X13865Y10352D01*
X13876Y10345D01*
X13890Y10342D01*
X13904Y10345D01*
X13915Y10352D01*
X13923Y10364D01*
X13924Y10367D01*
X13936D01*
X13937Y10364D01*
X13945Y10352D01*
X13956Y10345D01*
X13970Y10342D01*
X13984Y10345D01*
X13995Y10352D01*
X14003Y10364D01*
X14006Y10378D01*
X14003Y10391D01*
X13995Y10403D01*
X13984Y10410D01*
X13970Y10413D01*
D02*
G37*
G36*
X14088Y10441D02*
X14075Y10438D01*
X14063Y10431D01*
X14055Y10419D01*
X14053Y10406D01*
X14055Y10392D01*
X14063Y10380D01*
X14075Y10373D01*
X14088Y10370D01*
X14102Y10373D01*
X14113Y10380D01*
X14121Y10392D01*
X14124Y10406D01*
X14121Y10419D01*
X14113Y10431D01*
X14102Y10438D01*
X14088Y10441D01*
D02*
G37*
G36*
X9312Y10433D02*
X9298Y10430D01*
X9285Y10422D01*
X9277Y10410D01*
X9274Y10395D01*
X9277Y10380D01*
X9285Y10368D01*
X9298Y10360D01*
X9312Y10357D01*
X9327Y10360D01*
X9340Y10368D01*
X9348Y10380D01*
X9351Y10395D01*
X9348Y10410D01*
X9340Y10422D01*
X9327Y10430D01*
X9312Y10433D01*
D02*
G37*
G36*
X14530Y10418D02*
X14516Y10415D01*
X14505Y10408D01*
X14497Y10396D01*
X14494Y10382D01*
X14497Y10369D01*
X14505Y10357D01*
X14516Y10350D01*
X14530Y10347D01*
X14544Y10350D01*
X14555Y10357D01*
X14563Y10369D01*
X14566Y10382D01*
X14563Y10396D01*
X14555Y10408D01*
X14544Y10415D01*
X14530Y10418D01*
D02*
G37*
G36*
X13490Y10413D02*
X13476Y10410D01*
X13465Y10403D01*
X13457Y10391D01*
X13454Y10378D01*
X13457Y10364D01*
X13465Y10352D01*
X13476Y10345D01*
X13490Y10342D01*
X13504Y10345D01*
X13515Y10352D01*
X13523Y10364D01*
X13526Y10378D01*
X13523Y10391D01*
X13515Y10403D01*
X13504Y10410D01*
X13490Y10413D01*
D02*
G37*
G36*
X9415Y10413D02*
X9400Y10410D01*
X9388Y10402D01*
X9380Y10390D01*
X9377Y10375D01*
X9380Y10360D01*
X9388Y10348D01*
X9400Y10340D01*
X9415Y10337D01*
X9430Y10340D01*
X9442Y10348D01*
X9450Y10360D01*
X9453Y10375D01*
X9450Y10390D01*
X9442Y10402D01*
X9430Y10410D01*
X9415Y10413D01*
D02*
G37*
G36*
X14848Y10383D02*
X14834Y10380D01*
X14822Y10373D01*
X14815Y10361D01*
X14812Y10347D01*
X14815Y10334D01*
X14822Y10322D01*
X14834Y10315D01*
X14848Y10312D01*
X14861Y10315D01*
X14873Y10322D01*
X14880Y10334D01*
X14883Y10347D01*
X14880Y10361D01*
X14873Y10373D01*
X14861Y10380D01*
X14848Y10383D01*
D02*
G37*
G36*
X17225Y10331D02*
X17204Y10327D01*
X17185Y10315D01*
X17181Y10309D01*
X17169D01*
X17165Y10315D01*
X17146Y10327D01*
X17125Y10331D01*
X17104Y10327D01*
X17085Y10315D01*
X17081Y10309D01*
X17069D01*
X17065Y10315D01*
X17046Y10327D01*
X17025Y10331D01*
X17004Y10327D01*
X16985Y10315D01*
X16973Y10296D01*
X16969Y10275D01*
X16973Y10254D01*
X16985Y10235D01*
X17004Y10223D01*
X17025Y10219D01*
X17046Y10223D01*
X17065Y10235D01*
X17069Y10241D01*
X17081D01*
X17085Y10235D01*
X17104Y10223D01*
X17125Y10219D01*
X17146Y10223D01*
X17165Y10235D01*
X17169Y10241D01*
X17181D01*
X17185Y10235D01*
X17204Y10223D01*
X17225Y10219D01*
X17246Y10223D01*
X17265Y10235D01*
X17277Y10254D01*
X17281Y10275D01*
X17277Y10296D01*
X17265Y10315D01*
X17246Y10327D01*
X17225Y10331D01*
D02*
G37*
G36*
X10093Y10338D02*
X10078Y10335D01*
X10065Y10327D01*
X10057Y10315D01*
X10054Y10300D01*
X10057Y10285D01*
X10065Y10273D01*
X10078Y10265D01*
X10093Y10262D01*
X10107Y10265D01*
X10120Y10273D01*
X10128Y10285D01*
X10131Y10300D01*
X10128Y10315D01*
X10120Y10327D01*
X10107Y10335D01*
X10093Y10338D01*
D02*
G37*
G36*
X14688Y10316D02*
X14674Y10313D01*
X14662Y10305D01*
X14655Y10294D01*
X14652Y10280D01*
X14655Y10266D01*
X14662Y10255D01*
X14674Y10247D01*
X14688Y10244D01*
X14701Y10247D01*
X14713Y10255D01*
X14720Y10266D01*
X14723Y10280D01*
X14720Y10294D01*
X14713Y10305D01*
X14701Y10313D01*
X14688Y10316D01*
D02*
G37*
G36*
X11130Y10295D02*
X11116Y10293D01*
X11105Y10285D01*
X11097Y10273D01*
X11094Y10260D01*
X11097Y10246D01*
X11105Y10235D01*
X11116Y10227D01*
X11130Y10224D01*
X11144Y10227D01*
X11155Y10235D01*
X11163Y10246D01*
X11166Y10260D01*
X11163Y10273D01*
X11155Y10285D01*
X11144Y10293D01*
X11130Y10295D01*
D02*
G37*
G36*
X10905Y10263D02*
X10891Y10260D01*
X10880Y10253D01*
X10872Y10241D01*
X10869Y10228D01*
X10872Y10214D01*
X10880Y10202D01*
X10891Y10195D01*
X10905Y10192D01*
X10919Y10195D01*
X10930Y10202D01*
X10938Y10214D01*
X10941Y10228D01*
X10938Y10241D01*
X10930Y10253D01*
X10919Y10260D01*
X10905Y10263D01*
D02*
G37*
G36*
X17225Y10181D02*
X17204Y10177D01*
X17185Y10165D01*
X17181Y10159D01*
X17169D01*
X17165Y10165D01*
X17146Y10177D01*
X17125Y10181D01*
X17104Y10177D01*
X17085Y10165D01*
X17081Y10159D01*
X17069D01*
X17065Y10165D01*
X17046Y10177D01*
X17025Y10181D01*
X17004Y10177D01*
X16985Y10165D01*
X16973Y10146D01*
X16969Y10125D01*
X16973Y10104D01*
X16985Y10085D01*
X17004Y10073D01*
X17025Y10069D01*
X17046Y10073D01*
X17065Y10085D01*
X17069Y10091D01*
X17081D01*
X17085Y10085D01*
X17104Y10073D01*
X17125Y10069D01*
X17146Y10073D01*
X17165Y10085D01*
X17169Y10091D01*
X17181D01*
X17185Y10085D01*
X17204Y10073D01*
X17225Y10069D01*
X17246Y10073D01*
X17265Y10085D01*
X17277Y10104D01*
X17281Y10125D01*
X17277Y10146D01*
X17265Y10165D01*
X17246Y10177D01*
X17225Y10181D01*
D02*
G37*
G36*
X10000Y10213D02*
X9985Y10210D01*
X9973Y10202D01*
X9965Y10190D01*
X9962Y10175D01*
X9965Y10160D01*
X9973Y10148D01*
X9985Y10140D01*
X10000Y10137D01*
X10015Y10140D01*
X10027Y10148D01*
X10035Y10160D01*
X10038Y10175D01*
X10035Y10190D01*
X10027Y10202D01*
X10015Y10210D01*
X10000Y10213D01*
D02*
G37*
G36*
X10845Y10203D02*
X10831Y10200D01*
X10820Y10193D01*
X10812Y10181D01*
X10809Y10168D01*
X10812Y10154D01*
X10820Y10142D01*
X10831Y10135D01*
X10845Y10132D01*
X10859Y10135D01*
X10870Y10142D01*
X10878Y10154D01*
X10881Y10168D01*
X10878Y10181D01*
X10870Y10193D01*
X10859Y10200D01*
X10845Y10203D01*
D02*
G37*
G36*
X13962Y10196D02*
X13948Y10193D01*
X13935Y10185D01*
X13927Y10172D01*
X13924Y10157D01*
X13927Y10143D01*
X13935Y10130D01*
X13948Y10122D01*
X13962Y10119D01*
X13977Y10122D01*
X13990Y10130D01*
X13998Y10143D01*
X14001Y10157D01*
X13998Y10172D01*
X13990Y10185D01*
X13977Y10193D01*
X13962Y10196D01*
D02*
G37*
G36*
X13605D02*
X13590Y10193D01*
X13578Y10185D01*
X13570Y10172D01*
X13567Y10157D01*
X13570Y10143D01*
X13578Y10130D01*
X13590Y10122D01*
X13605Y10119D01*
X13620Y10122D01*
X13632Y10130D01*
X13640Y10143D01*
X13643Y10157D01*
X13640Y10172D01*
X13632Y10185D01*
X13620Y10193D01*
X13605Y10196D01*
D02*
G37*
G36*
X14507Y10191D02*
X14493Y10188D01*
X14480Y10180D01*
X14472Y10167D01*
X14469Y10153D01*
X14472Y10138D01*
X14480Y10125D01*
X14493Y10117D01*
X14507Y10114D01*
X14522Y10117D01*
X14535Y10125D01*
X14543Y10138D01*
X14546Y10153D01*
X14543Y10167D01*
X14535Y10180D01*
X14522Y10188D01*
X14507Y10191D01*
D02*
G37*
G36*
X17325Y10031D02*
X17304Y10027D01*
X17285Y10015D01*
X17281Y10009D01*
X17269D01*
X17265Y10015D01*
X17246Y10027D01*
X17225Y10031D01*
X17204Y10027D01*
X17185Y10015D01*
X17181Y10009D01*
X17169D01*
X17165Y10015D01*
X17146Y10027D01*
X17125Y10031D01*
X17104Y10027D01*
X17085Y10015D01*
X17081Y10009D01*
X17069D01*
X17065Y10015D01*
X17046Y10027D01*
X17025Y10031D01*
X17004Y10027D01*
X16985Y10015D01*
X16981Y10009D01*
X16969D01*
X16965Y10015D01*
X16946Y10027D01*
X16925Y10031D01*
X16904Y10027D01*
X16885Y10015D01*
X16873Y9996D01*
X16869Y9975D01*
X16873Y9954D01*
X16885Y9935D01*
X16904Y9923D01*
X16925Y9919D01*
X16946Y9923D01*
X16965Y9935D01*
X16969Y9941D01*
X16981D01*
X16985Y9935D01*
X17004Y9923D01*
X17025Y9919D01*
X17046Y9923D01*
X17065Y9935D01*
X17069Y9941D01*
X17081D01*
X17085Y9935D01*
X17104Y9923D01*
X17125Y9919D01*
X17146Y9923D01*
X17165Y9935D01*
X17169Y9941D01*
X17181D01*
X17185Y9935D01*
X17204Y9923D01*
X17225Y9919D01*
X17246Y9923D01*
X17265Y9935D01*
X17269Y9941D01*
X17281D01*
X17285Y9935D01*
X17304Y9923D01*
X17325Y9919D01*
X17346Y9923D01*
X17365Y9935D01*
X17377Y9954D01*
X17381Y9975D01*
X17377Y9996D01*
X17365Y10015D01*
X17346Y10027D01*
X17325Y10031D01*
D02*
G37*
G36*
X9147Y10133D02*
X9134Y10130D01*
X9122Y10123D01*
X9115Y10111D01*
X9112Y10097D01*
X9115Y10084D01*
X9122Y10072D01*
X9134Y10065D01*
X9147Y10062D01*
X9156Y10063D01*
X9161Y10057D01*
X9164Y10053D01*
X9162Y10040D01*
X9165Y10026D01*
X9172Y10015D01*
X9184Y10007D01*
X9197Y10004D01*
X9211Y10007D01*
X9223Y10015D01*
X9230Y10026D01*
X9233Y10040D01*
X9230Y10054D01*
X9223Y10065D01*
X9211Y10073D01*
X9197Y10076D01*
X9189Y10074D01*
X9184Y10080D01*
X9181Y10085D01*
X9183Y10097D01*
X9180Y10111D01*
X9173Y10123D01*
X9161Y10130D01*
X9147Y10133D01*
D02*
G37*
G36*
X14507Y10066D02*
X14494Y10063D01*
X14482Y10055D01*
X14475Y10044D01*
X14472Y10030D01*
X14475Y10016D01*
X14482Y10005D01*
X14494Y9997D01*
X14507Y9994D01*
X14521Y9997D01*
X14533Y10005D01*
X14540Y10016D01*
X14543Y10030D01*
X14540Y10044D01*
X14533Y10055D01*
X14521Y10063D01*
X14507Y10066D01*
D02*
G37*
G36*
X9260Y10016D02*
X9246Y10013D01*
X9235Y10005D01*
X9227Y9994D01*
X9224Y9980D01*
X9227Y9966D01*
X9235Y9955D01*
X9246Y9947D01*
X9260Y9944D01*
X9274Y9947D01*
X9285Y9955D01*
X9293Y9966D01*
X9296Y9980D01*
X9293Y9994D01*
X9285Y10005D01*
X9274Y10013D01*
X9260Y10016D01*
D02*
G37*
G36*
X14431Y9976D02*
X14417Y9973D01*
X14405Y9966D01*
X14398Y9954D01*
X14395Y9940D01*
X14398Y9927D01*
X14403Y9919D01*
X14405Y9915D01*
X14398Y9905D01*
X14394Y9908D01*
X14380Y9911D01*
X14366Y9908D01*
X14355Y9900D01*
X14347Y9889D01*
X14344Y9875D01*
X14347Y9861D01*
X14355Y9850D01*
X14366Y9842D01*
X14380Y9839D01*
X14394Y9842D01*
X14405Y9850D01*
X14413Y9861D01*
X14416Y9875D01*
X14413Y9889D01*
X14407Y9897D01*
X14405Y9900D01*
X14412Y9911D01*
X14417Y9908D01*
X14431Y9905D01*
X14444Y9908D01*
X14456Y9915D01*
X14464Y9927D01*
X14466Y9940D01*
X14464Y9954D01*
X14456Y9966D01*
X14444Y9973D01*
X14431Y9976D01*
D02*
G37*
G36*
X11147Y9953D02*
X11134Y9950D01*
X11122Y9943D01*
X11115Y9931D01*
X11112Y9918D01*
X11115Y9904D01*
X11122Y9892D01*
X11134Y9885D01*
X11147Y9882D01*
X11161Y9885D01*
X11173Y9892D01*
X11180Y9904D01*
X11183Y9918D01*
X11180Y9931D01*
X11173Y9943D01*
X11161Y9950D01*
X11147Y9953D01*
D02*
G37*
G36*
X7262Y9948D02*
X7248Y9945D01*
X7235Y9937D01*
X7227Y9925D01*
X7224Y9910D01*
X7227Y9895D01*
X7235Y9883D01*
X7248Y9875D01*
X7262Y9872D01*
X7277Y9875D01*
X7290Y9883D01*
X7298Y9895D01*
X7301Y9910D01*
X7298Y9925D01*
X7290Y9937D01*
X7277Y9945D01*
X7262Y9948D01*
D02*
G37*
G36*
X11430Y9878D02*
X11416Y9875D01*
X11405Y9868D01*
X11397Y9856D01*
X11394Y9843D01*
X11397Y9829D01*
X11405Y9817D01*
X11416Y9810D01*
X11430Y9807D01*
X11444Y9810D01*
X11455Y9817D01*
X11463Y9829D01*
X11466Y9843D01*
X11463Y9856D01*
X11455Y9868D01*
X11444Y9875D01*
X11430Y9878D01*
D02*
G37*
G36*
X14303Y9866D02*
X14290Y9863D01*
X14278Y9856D01*
X14270Y9844D01*
X14268Y9830D01*
X14270Y9817D01*
X14278Y9805D01*
X14290Y9798D01*
X14303Y9795D01*
X14317Y9798D01*
X14328Y9805D01*
X14336Y9817D01*
X14339Y9830D01*
X14336Y9844D01*
X14328Y9856D01*
X14317Y9863D01*
X14303Y9866D01*
D02*
G37*
G36*
X11033Y9864D02*
X11019Y9861D01*
X11008Y9853D01*
X11000Y9842D01*
X10997Y9828D01*
X11000Y9814D01*
X11008Y9803D01*
X11019Y9795D01*
X11033Y9792D01*
X11047Y9795D01*
X11058Y9803D01*
X11066Y9814D01*
X11069Y9828D01*
X11066Y9842D01*
X11058Y9853D01*
X11047Y9861D01*
X11033Y9864D01*
D02*
G37*
G36*
X8970Y9868D02*
X8955Y9865D01*
X8943Y9857D01*
X8935Y9845D01*
X8932Y9830D01*
X8935Y9815D01*
X8943Y9803D01*
X8955Y9795D01*
X8970Y9792D01*
X8985Y9795D01*
X8997Y9803D01*
X9005Y9815D01*
X9008Y9830D01*
X9005Y9845D01*
X8997Y9857D01*
X8985Y9865D01*
X8970Y9868D01*
D02*
G37*
G36*
X7955Y9858D02*
X7941Y9856D01*
X7928Y9847D01*
X7920Y9835D01*
X7917Y9820D01*
X7920Y9806D01*
X7928Y9793D01*
X7941Y9785D01*
X7955Y9782D01*
X7970Y9785D01*
X7982Y9793D01*
X7991Y9806D01*
X7993Y9820D01*
X7991Y9835D01*
X7982Y9847D01*
X7970Y9856D01*
X7955Y9858D01*
D02*
G37*
G36*
X9453Y9851D02*
X9439Y9848D01*
X9427Y9840D01*
X9420Y9829D01*
X9417Y9815D01*
X9420Y9801D01*
X9427Y9790D01*
X9439Y9782D01*
X9453Y9779D01*
X9466Y9782D01*
X9478Y9790D01*
X9485Y9801D01*
X9488Y9815D01*
X9485Y9829D01*
X9478Y9840D01*
X9466Y9848D01*
X9453Y9851D01*
D02*
G37*
G36*
X11995Y9798D02*
X11981Y9795D01*
X11970Y9788D01*
X11962Y9776D01*
X11959Y9762D01*
X11962Y9749D01*
X11970Y9737D01*
X11981Y9730D01*
X11995Y9727D01*
X12009Y9730D01*
X12020Y9737D01*
X12028Y9749D01*
X12031Y9762D01*
X12028Y9776D01*
X12020Y9788D01*
X12009Y9795D01*
X11995Y9798D01*
D02*
G37*
G36*
X13010Y9771D02*
X12995Y9768D01*
X12983Y9760D01*
X12975Y9747D01*
X12972Y9732D01*
X12975Y9718D01*
X12983Y9705D01*
X12995Y9697D01*
X13010Y9694D01*
X13025Y9697D01*
X13037Y9705D01*
X13045Y9718D01*
X13048Y9732D01*
X13045Y9747D01*
X13037Y9760D01*
X13025Y9768D01*
X13010Y9771D01*
D02*
G37*
G36*
X12760Y9761D02*
X12745Y9758D01*
X12733Y9750D01*
X12725Y9737D01*
X12722Y9722D01*
X12725Y9708D01*
X12733Y9695D01*
X12745Y9687D01*
X12760Y9684D01*
X12775Y9687D01*
X12787Y9695D01*
X12795Y9708D01*
X12798Y9722D01*
X12795Y9737D01*
X12787Y9750D01*
X12775Y9758D01*
X12760Y9761D01*
D02*
G37*
G36*
X9755Y9748D02*
X9741Y9745D01*
X9730Y9738D01*
X9722Y9726D01*
X9719Y9712D01*
X9722Y9699D01*
X9730Y9687D01*
X9741Y9680D01*
X9755Y9677D01*
X9769Y9680D01*
X9780Y9687D01*
X9788Y9699D01*
X9791Y9712D01*
X9788Y9726D01*
X9780Y9738D01*
X9769Y9745D01*
X9755Y9748D01*
D02*
G37*
G36*
X12110Y9743D02*
X12096Y9740D01*
X12085Y9733D01*
X12077Y9721D01*
X12074Y9707D01*
X12077Y9694D01*
X12085Y9682D01*
X12096Y9675D01*
X12110Y9672D01*
X12124Y9675D01*
X12135Y9682D01*
X12143Y9694D01*
X12146Y9707D01*
X12143Y9721D01*
X12135Y9733D01*
X12124Y9740D01*
X12110Y9743D01*
D02*
G37*
G36*
X6700Y10181D02*
X6679Y10177D01*
X6660Y10165D01*
X6648Y10146D01*
X6644Y10125D01*
X6648Y10104D01*
X6660Y10085D01*
X6666Y10081D01*
Y10069D01*
X6660Y10065D01*
X6648Y10046D01*
X6644Y10025D01*
X6648Y10004D01*
X6660Y9985D01*
X6666Y9981D01*
Y9969D01*
X6660Y9965D01*
X6648Y9946D01*
X6644Y9925D01*
X6648Y9904D01*
X6660Y9885D01*
X6666Y9881D01*
Y9869D01*
X6660Y9865D01*
X6648Y9846D01*
X6644Y9825D01*
X6648Y9804D01*
X6660Y9785D01*
X6666Y9781D01*
Y9769D01*
X6660Y9765D01*
X6648Y9746D01*
X6644Y9725D01*
X6648Y9704D01*
X6660Y9685D01*
X6679Y9673D01*
X6700Y9669D01*
X6721Y9673D01*
X6740Y9685D01*
X6752Y9704D01*
X6756Y9725D01*
X6752Y9746D01*
X6740Y9765D01*
X6734Y9769D01*
Y9781D01*
X6740Y9785D01*
X6752Y9804D01*
X6756Y9825D01*
X6752Y9846D01*
X6740Y9865D01*
X6734Y9869D01*
Y9881D01*
X6740Y9885D01*
X6752Y9904D01*
X6756Y9925D01*
X6752Y9946D01*
X6740Y9965D01*
X6734Y9969D01*
Y9981D01*
X6740Y9985D01*
X6752Y10004D01*
X6756Y10025D01*
X6752Y10046D01*
X6740Y10065D01*
X6734Y10069D01*
Y10081D01*
X6740Y10085D01*
X6752Y10104D01*
X6756Y10125D01*
X6752Y10146D01*
X6740Y10165D01*
X6721Y10177D01*
X6700Y10181D01*
D02*
G37*
G36*
X6575D02*
X6554Y10177D01*
X6535Y10165D01*
X6523Y10146D01*
X6519Y10125D01*
X6523Y10104D01*
X6535Y10085D01*
X6541Y10081D01*
Y10069D01*
X6535Y10065D01*
X6523Y10046D01*
X6519Y10025D01*
X6523Y10004D01*
X6535Y9985D01*
X6541Y9981D01*
Y9969D01*
X6535Y9965D01*
X6523Y9946D01*
X6519Y9925D01*
X6523Y9904D01*
X6535Y9885D01*
X6541Y9881D01*
Y9869D01*
X6535Y9865D01*
X6523Y9846D01*
X6519Y9825D01*
X6523Y9804D01*
X6535Y9785D01*
X6541Y9781D01*
Y9769D01*
X6535Y9765D01*
X6523Y9746D01*
X6519Y9725D01*
X6523Y9704D01*
X6535Y9685D01*
X6554Y9673D01*
X6575Y9669D01*
X6596Y9673D01*
X6615Y9685D01*
X6627Y9704D01*
X6631Y9725D01*
X6627Y9746D01*
X6615Y9765D01*
X6609Y9769D01*
Y9781D01*
X6615Y9785D01*
X6627Y9804D01*
X6631Y9825D01*
X6627Y9846D01*
X6615Y9865D01*
X6609Y9869D01*
Y9881D01*
X6615Y9885D01*
X6627Y9904D01*
X6631Y9925D01*
X6627Y9946D01*
X6615Y9965D01*
X6609Y9969D01*
Y9981D01*
X6615Y9985D01*
X6627Y10004D01*
X6631Y10025D01*
X6627Y10046D01*
X6615Y10065D01*
X6609Y10069D01*
Y10081D01*
X6615Y10085D01*
X6627Y10104D01*
X6631Y10125D01*
X6627Y10146D01*
X6615Y10165D01*
X6596Y10177D01*
X6575Y10181D01*
D02*
G37*
G36*
X6450D02*
X6429Y10177D01*
X6410Y10165D01*
X6398Y10146D01*
X6394Y10125D01*
X6398Y10104D01*
X6410Y10085D01*
X6416Y10081D01*
Y10069D01*
X6410Y10065D01*
X6398Y10046D01*
X6394Y10025D01*
X6398Y10004D01*
X6410Y9985D01*
X6416Y9981D01*
Y9969D01*
X6410Y9965D01*
X6398Y9946D01*
X6394Y9925D01*
X6398Y9904D01*
X6410Y9885D01*
X6416Y9881D01*
Y9869D01*
X6410Y9865D01*
X6398Y9846D01*
X6394Y9825D01*
X6398Y9804D01*
X6410Y9785D01*
X6416Y9781D01*
Y9769D01*
X6410Y9765D01*
X6398Y9746D01*
X6394Y9725D01*
X6398Y9704D01*
X6410Y9685D01*
X6429Y9673D01*
X6450Y9669D01*
X6471Y9673D01*
X6490Y9685D01*
X6502Y9704D01*
X6506Y9725D01*
X6502Y9746D01*
X6490Y9765D01*
X6484Y9769D01*
Y9781D01*
X6490Y9785D01*
X6502Y9804D01*
X6506Y9825D01*
X6502Y9846D01*
X6490Y9865D01*
X6484Y9869D01*
Y9881D01*
X6490Y9885D01*
X6502Y9904D01*
X6506Y9925D01*
X6502Y9946D01*
X6490Y9965D01*
X6484Y9969D01*
Y9981D01*
X6490Y9985D01*
X6502Y10004D01*
X6506Y10025D01*
X6502Y10046D01*
X6490Y10065D01*
X6484Y10069D01*
Y10081D01*
X6490Y10085D01*
X6502Y10104D01*
X6506Y10125D01*
X6502Y10146D01*
X6490Y10165D01*
X6471Y10177D01*
X6450Y10181D01*
D02*
G37*
G36*
X6325D02*
X6304Y10177D01*
X6285Y10165D01*
X6273Y10146D01*
X6269Y10125D01*
X6273Y10104D01*
X6285Y10085D01*
X6291Y10081D01*
Y10069D01*
X6285Y10065D01*
X6273Y10046D01*
X6269Y10025D01*
X6273Y10004D01*
X6285Y9985D01*
X6291Y9981D01*
Y9969D01*
X6285Y9965D01*
X6273Y9946D01*
X6269Y9925D01*
X6273Y9904D01*
X6285Y9885D01*
X6291Y9881D01*
Y9869D01*
X6285Y9865D01*
X6273Y9846D01*
X6269Y9825D01*
X6273Y9804D01*
X6285Y9785D01*
X6291Y9781D01*
Y9769D01*
X6285Y9765D01*
X6273Y9746D01*
X6269Y9725D01*
X6273Y9704D01*
X6285Y9685D01*
X6304Y9673D01*
X6325Y9669D01*
X6346Y9673D01*
X6365Y9685D01*
X6377Y9704D01*
X6381Y9725D01*
X6377Y9746D01*
X6365Y9765D01*
X6359Y9769D01*
Y9781D01*
X6365Y9785D01*
X6377Y9804D01*
X6381Y9825D01*
X6377Y9846D01*
X6365Y9865D01*
X6359Y9869D01*
Y9881D01*
X6365Y9885D01*
X6377Y9904D01*
X6381Y9925D01*
X6377Y9946D01*
X6365Y9965D01*
X6359Y9969D01*
Y9981D01*
X6365Y9985D01*
X6377Y10004D01*
X6381Y10025D01*
X6377Y10046D01*
X6365Y10065D01*
X6359Y10069D01*
Y10081D01*
X6365Y10085D01*
X6377Y10104D01*
X6381Y10125D01*
X6377Y10146D01*
X6365Y10165D01*
X6346Y10177D01*
X6325Y10181D01*
D02*
G37*
G36*
X6200D02*
X6179Y10177D01*
X6160Y10165D01*
X6148Y10146D01*
X6144Y10125D01*
X6148Y10104D01*
X6160Y10085D01*
X6166Y10081D01*
Y10069D01*
X6160Y10065D01*
X6148Y10046D01*
X6144Y10025D01*
X6148Y10004D01*
X6160Y9985D01*
X6166Y9981D01*
Y9969D01*
X6160Y9965D01*
X6148Y9946D01*
X6144Y9925D01*
X6148Y9904D01*
X6160Y9885D01*
X6166Y9881D01*
Y9869D01*
X6160Y9865D01*
X6148Y9846D01*
X6144Y9825D01*
X6148Y9804D01*
X6160Y9785D01*
X6166Y9781D01*
Y9769D01*
X6160Y9765D01*
X6148Y9746D01*
X6144Y9725D01*
X6148Y9704D01*
X6160Y9685D01*
X6179Y9673D01*
X6200Y9669D01*
X6221Y9673D01*
X6240Y9685D01*
X6252Y9704D01*
X6256Y9725D01*
X6252Y9746D01*
X6240Y9765D01*
X6234Y9769D01*
Y9781D01*
X6240Y9785D01*
X6252Y9804D01*
X6256Y9825D01*
X6252Y9846D01*
X6240Y9865D01*
X6234Y9869D01*
Y9881D01*
X6240Y9885D01*
X6252Y9904D01*
X6256Y9925D01*
X6252Y9946D01*
X6240Y9965D01*
X6234Y9969D01*
Y9981D01*
X6240Y9985D01*
X6252Y10004D01*
X6256Y10025D01*
X6252Y10046D01*
X6240Y10065D01*
X6234Y10069D01*
Y10081D01*
X6240Y10085D01*
X6252Y10104D01*
X6256Y10125D01*
X6252Y10146D01*
X6240Y10165D01*
X6221Y10177D01*
X6200Y10181D01*
D02*
G37*
G36*
X6075D02*
X6054Y10177D01*
X6035Y10165D01*
X6023Y10146D01*
X6019Y10125D01*
X6023Y10104D01*
X6035Y10085D01*
X6041Y10081D01*
Y10069D01*
X6035Y10065D01*
X6023Y10046D01*
X6019Y10025D01*
X6023Y10004D01*
X6035Y9985D01*
X6041Y9981D01*
Y9969D01*
X6035Y9965D01*
X6023Y9946D01*
X6019Y9925D01*
X6023Y9904D01*
X6035Y9885D01*
X6041Y9881D01*
Y9869D01*
X6035Y9865D01*
X6023Y9846D01*
X6019Y9825D01*
X6023Y9804D01*
X6035Y9785D01*
X6041Y9781D01*
Y9769D01*
X6035Y9765D01*
X6023Y9746D01*
X6019Y9725D01*
X6023Y9704D01*
X6035Y9685D01*
X6054Y9673D01*
X6075Y9669D01*
X6096Y9673D01*
X6115Y9685D01*
X6127Y9704D01*
X6131Y9725D01*
X6127Y9746D01*
X6115Y9765D01*
X6109Y9769D01*
Y9781D01*
X6115Y9785D01*
X6127Y9804D01*
X6131Y9825D01*
X6127Y9846D01*
X6115Y9865D01*
X6109Y9869D01*
Y9881D01*
X6115Y9885D01*
X6127Y9904D01*
X6131Y9925D01*
X6127Y9946D01*
X6115Y9965D01*
X6109Y9969D01*
Y9981D01*
X6115Y9985D01*
X6127Y10004D01*
X6131Y10025D01*
X6127Y10046D01*
X6115Y10065D01*
X6109Y10069D01*
Y10081D01*
X6115Y10085D01*
X6127Y10104D01*
X6131Y10125D01*
X6127Y10146D01*
X6115Y10165D01*
X6096Y10177D01*
X6075Y10181D01*
D02*
G37*
G36*
X11442Y9738D02*
X11428Y9735D01*
X11415Y9727D01*
X11407Y9714D01*
X11404Y9700D01*
X11407Y9685D01*
X11415Y9673D01*
X11428Y9664D01*
X11442Y9662D01*
X11457Y9664D01*
X11469Y9673D01*
X11478Y9685D01*
X11481Y9700D01*
X11478Y9714D01*
X11469Y9727D01*
X11457Y9735D01*
X11442Y9738D01*
D02*
G37*
G36*
X9524Y9682D02*
X9511Y9679D01*
X9499Y9671D01*
X9491Y9659D01*
X9489Y9646D01*
X9491Y9632D01*
X9499Y9621D01*
X9511Y9613D01*
X9524Y9610D01*
X9538Y9613D01*
X9550Y9621D01*
X9557Y9632D01*
X9560Y9646D01*
X9557Y9659D01*
X9550Y9671D01*
X9538Y9679D01*
X9524Y9682D01*
D02*
G37*
G36*
X10630Y9736D02*
X10616Y9733D01*
X10605Y9725D01*
X10597Y9714D01*
X10594Y9700D01*
X10597Y9686D01*
X10605Y9675D01*
X10610Y9671D01*
Y9656D01*
X10605Y9653D01*
X10597Y9641D01*
X10594Y9628D01*
X10597Y9614D01*
X10597Y9613D01*
X10590Y9605D01*
X10589Y9604D01*
X10576Y9606D01*
X10562Y9603D01*
X10550Y9596D01*
X10543Y9584D01*
X10540Y9570D01*
X10543Y9557D01*
X10550Y9545D01*
X10552Y9544D01*
Y9532D01*
X10550Y9530D01*
X10542Y9519D01*
X10539Y9505D01*
X10542Y9491D01*
X10550Y9480D01*
X10553Y9478D01*
Y9462D01*
X10549Y9460D01*
X10542Y9449D01*
X10539Y9435D01*
X10542Y9421D01*
X10549Y9410D01*
X10551Y9408D01*
X10551Y9402D01*
X10550Y9394D01*
X10540Y9388D01*
X10532Y9376D01*
X10529Y9362D01*
X10532Y9349D01*
X10540Y9337D01*
X10551Y9330D01*
X10565Y9327D01*
X10579Y9330D01*
X10590Y9337D01*
X10598Y9349D01*
X10601Y9362D01*
X10598Y9376D01*
X10590Y9388D01*
X10588Y9389D01*
X10588Y9395D01*
X10590Y9403D01*
X10600Y9410D01*
X10608Y9421D01*
X10610Y9435D01*
X10608Y9449D01*
X10600Y9460D01*
X10597Y9462D01*
Y9478D01*
X10600Y9480D01*
X10608Y9491D01*
X10611Y9505D01*
X10608Y9519D01*
X10600Y9530D01*
X10599Y9531D01*
Y9544D01*
X10601Y9545D01*
X10608Y9557D01*
X10611Y9570D01*
X10608Y9584D01*
X10608Y9585D01*
X10615Y9593D01*
X10617Y9594D01*
X10630Y9592D01*
X10644Y9595D01*
X10655Y9602D01*
X10663Y9614D01*
X10666Y9628D01*
X10663Y9641D01*
X10655Y9653D01*
X10650Y9656D01*
Y9671D01*
X10655Y9675D01*
X10663Y9686D01*
X10666Y9700D01*
X10663Y9714D01*
X10655Y9725D01*
X10644Y9733D01*
X10630Y9736D01*
D02*
G37*
G36*
X9645Y9633D02*
X9631Y9630D01*
X9620Y9623D01*
X9612Y9611D01*
X9609Y9597D01*
X9612Y9584D01*
X9620Y9572D01*
X9631Y9565D01*
X9645Y9562D01*
X9659Y9565D01*
X9670Y9572D01*
X9678Y9584D01*
X9681Y9597D01*
X9678Y9611D01*
X9670Y9623D01*
X9659Y9630D01*
X9645Y9633D01*
D02*
G37*
G36*
X8197Y9608D02*
X8183Y9605D01*
X8170Y9597D01*
X8162Y9585D01*
X8159Y9570D01*
X8162Y9555D01*
X8170Y9543D01*
X8183Y9535D01*
X8197Y9532D01*
X8212Y9535D01*
X8225Y9543D01*
X8233Y9555D01*
X8236Y9570D01*
X8233Y9585D01*
X8225Y9597D01*
X8212Y9605D01*
X8197Y9608D01*
D02*
G37*
G36*
X11553Y9556D02*
X11538Y9553D01*
X11525Y9545D01*
X11517Y9532D01*
X11514Y9518D01*
X11517Y9503D01*
X11525Y9490D01*
X11538Y9482D01*
X11553Y9479D01*
X11567Y9482D01*
X11580Y9490D01*
X11588Y9503D01*
X11591Y9518D01*
X11588Y9532D01*
X11580Y9545D01*
X11567Y9553D01*
X11553Y9556D01*
D02*
G37*
G36*
X9105Y9513D02*
X9090Y9510D01*
X9078Y9502D01*
X9070Y9490D01*
X9067Y9475D01*
X9070Y9460D01*
X9078Y9448D01*
X9090Y9440D01*
X9105Y9437D01*
X9120Y9440D01*
X9132Y9448D01*
X9140Y9460D01*
X9143Y9475D01*
X9140Y9490D01*
X9132Y9502D01*
X9120Y9510D01*
X9105Y9513D01*
D02*
G37*
G36*
X9308Y9513D02*
X9293Y9510D01*
X9281Y9502D01*
X9273Y9489D01*
X9270Y9475D01*
X9273Y9460D01*
X9281Y9448D01*
X9293Y9439D01*
X9308Y9436D01*
X9323Y9439D01*
X9335Y9448D01*
X9343Y9460D01*
X9346Y9475D01*
X9343Y9489D01*
X9335Y9502D01*
X9323Y9510D01*
X9308Y9513D01*
D02*
G37*
G36*
X9790Y9506D02*
X9776Y9503D01*
X9765Y9495D01*
X9757Y9484D01*
X9754Y9470D01*
X9757Y9456D01*
X9765Y9445D01*
X9776Y9437D01*
X9790Y9434D01*
X9804Y9437D01*
X9815Y9445D01*
X9823Y9456D01*
X9826Y9470D01*
X9823Y9484D01*
X9815Y9495D01*
X9804Y9503D01*
X9790Y9506D01*
D02*
G37*
G36*
X11190Y9351D02*
X11175Y9348D01*
X11163Y9340D01*
X11155Y9327D01*
X11152Y9312D01*
X11155Y9298D01*
X11163Y9285D01*
X11175Y9277D01*
X11190Y9274D01*
X11205Y9277D01*
X11217Y9285D01*
X11225Y9298D01*
X11228Y9312D01*
X11225Y9327D01*
X11217Y9340D01*
X11205Y9348D01*
X11190Y9351D01*
D02*
G37*
G36*
X10150Y9316D02*
X10137Y9313D01*
X10125Y9306D01*
X10118Y9294D01*
X10115Y9280D01*
X10118Y9267D01*
X10125Y9255D01*
X10137Y9247D01*
X10150Y9245D01*
X10164Y9247D01*
X10176Y9255D01*
X10183Y9267D01*
X10186Y9280D01*
X10183Y9294D01*
X10176Y9306D01*
X10164Y9313D01*
X10150Y9316D01*
D02*
G37*
G36*
X11465Y9293D02*
X11450Y9290D01*
X11438Y9282D01*
X11430Y9270D01*
X11427Y9255D01*
X11430Y9240D01*
X11438Y9228D01*
X11450Y9220D01*
X11465Y9217D01*
X11480Y9220D01*
X11492Y9228D01*
X11500Y9240D01*
X11503Y9255D01*
X11500Y9270D01*
X11492Y9282D01*
X11480Y9290D01*
X11465Y9293D01*
D02*
G37*
G36*
X11968Y9333D02*
X11948Y9331D01*
X11930Y9323D01*
X11914Y9311D01*
X11902Y9295D01*
X11894Y9277D01*
X11892Y9258D01*
X11894Y9238D01*
X11902Y9220D01*
X11914Y9204D01*
X11930Y9192D01*
X11948Y9184D01*
X11968Y9182D01*
X11987Y9184D01*
X12005Y9192D01*
X12021Y9204D01*
X12033Y9220D01*
X12041Y9238D01*
X12043Y9258D01*
X12041Y9277D01*
X12033Y9295D01*
X12021Y9311D01*
X12005Y9323D01*
X11987Y9331D01*
X11968Y9333D01*
D02*
G37*
G36*
X9985Y9233D02*
X9971Y9230D01*
X9960Y9223D01*
X9952Y9211D01*
X9949Y9197D01*
X9952Y9184D01*
X9960Y9172D01*
X9971Y9165D01*
X9985Y9162D01*
X9999Y9165D01*
X10010Y9172D01*
X10018Y9184D01*
X10021Y9197D01*
X10018Y9211D01*
X10010Y9223D01*
X9999Y9230D01*
X9985Y9233D01*
D02*
G37*
G36*
X9638Y9206D02*
X9623Y9203D01*
X9611Y9195D01*
X9603Y9183D01*
X9600Y9168D01*
X9603Y9153D01*
X9611Y9141D01*
X9623Y9133D01*
X9638Y9130D01*
X9653Y9133D01*
X9665Y9141D01*
X9673Y9153D01*
X9676Y9168D01*
X9673Y9183D01*
X9665Y9195D01*
X9653Y9203D01*
X9638Y9206D01*
D02*
G37*
G36*
X10090Y9189D02*
X10077Y9186D01*
X10065Y9178D01*
X10058Y9167D01*
X10055Y9153D01*
X10058Y9139D01*
X10065Y9128D01*
X10077Y9120D01*
X10090Y9117D01*
X10104Y9120D01*
X10116Y9128D01*
X10123Y9139D01*
X10126Y9153D01*
X10123Y9167D01*
X10116Y9178D01*
X10104Y9186D01*
X10090Y9189D01*
D02*
G37*
G36*
X9447Y9171D02*
X9433Y9168D01*
X9420Y9160D01*
X9412Y9147D01*
X9409Y9132D01*
X9412Y9118D01*
X9420Y9105D01*
X9433Y9097D01*
X9447Y9094D01*
X9462Y9097D01*
X9475Y9105D01*
X9483Y9118D01*
X9486Y9132D01*
X9483Y9147D01*
X9475Y9160D01*
X9462Y9168D01*
X9447Y9171D01*
D02*
G37*
G36*
X10322Y9073D02*
X10309Y9070D01*
X10297Y9063D01*
X10290Y9051D01*
X10287Y9038D01*
X10290Y9024D01*
X10297Y9012D01*
X10309Y9005D01*
X10322Y9002D01*
X10336Y9005D01*
X10348Y9012D01*
X10355Y9024D01*
X10358Y9038D01*
X10355Y9051D01*
X10348Y9063D01*
X10336Y9070D01*
X10322Y9073D01*
D02*
G37*
G36*
X9458Y9026D02*
X9443Y9023D01*
X9431Y9015D01*
X9423Y9003D01*
X9420Y8988D01*
X9423Y8973D01*
X9431Y8961D01*
X9443Y8953D01*
X9458Y8950D01*
X9473Y8953D01*
X9485Y8961D01*
X9493Y8973D01*
X9496Y8988D01*
X9493Y9003D01*
X9485Y9015D01*
X9473Y9023D01*
X9458Y9026D01*
D02*
G37*
G36*
X9205Y8958D02*
X9190Y8955D01*
X9178Y8947D01*
X9170Y8935D01*
X9167Y8920D01*
X9170Y8905D01*
X9178Y8893D01*
X9190Y8885D01*
X9205Y8882D01*
X9220Y8885D01*
X9232Y8893D01*
X9240Y8905D01*
X9243Y8920D01*
X9240Y8935D01*
X9232Y8947D01*
X9220Y8955D01*
X9205Y8958D01*
D02*
G37*
G36*
X11153Y8919D02*
X11138Y8916D01*
X11126Y8907D01*
X11118Y8895D01*
X11115Y8880D01*
X11118Y8866D01*
X11126Y8853D01*
X11138Y8845D01*
X11153Y8842D01*
X11168Y8845D01*
X11180Y8853D01*
X11188Y8866D01*
X11191Y8880D01*
X11188Y8895D01*
X11180Y8907D01*
X11168Y8916D01*
X11153Y8919D01*
D02*
G37*
G36*
X11622Y8988D02*
X11603Y8986D01*
X11585Y8978D01*
X11569Y8966D01*
X11557Y8950D01*
X11549Y8932D01*
X11547Y8912D01*
X11549Y8893D01*
X11557Y8875D01*
X11569Y8859D01*
X11585Y8847D01*
X11603Y8839D01*
X11622Y8837D01*
X11642Y8839D01*
X11660Y8847D01*
X11676Y8859D01*
X11688Y8875D01*
X11696Y8893D01*
X11698Y8912D01*
X11696Y8932D01*
X11688Y8950D01*
X11676Y8966D01*
X11660Y8978D01*
X11642Y8986D01*
X11622Y8988D01*
D02*
G37*
G36*
X10022Y8888D02*
X10009Y8885D01*
X9997Y8878D01*
X9990Y8866D01*
X9987Y8853D01*
X9990Y8839D01*
X9997Y8827D01*
X10009Y8820D01*
X10022Y8817D01*
X10036Y8820D01*
X10048Y8827D01*
X10055Y8839D01*
X10058Y8853D01*
X10055Y8866D01*
X10048Y8878D01*
X10036Y8885D01*
X10022Y8888D01*
D02*
G37*
G36*
X9747Y8879D02*
X9734Y8876D01*
X9722Y8868D01*
X9715Y8857D01*
X9712Y8843D01*
X9715Y8830D01*
X9722Y8818D01*
X9734Y8810D01*
X9747Y8808D01*
X9761Y8810D01*
X9773Y8818D01*
X9780Y8830D01*
X9783Y8843D01*
X9780Y8857D01*
X9773Y8868D01*
X9761Y8876D01*
X9747Y8879D01*
D02*
G37*
G36*
X11095Y8846D02*
X11080Y8843D01*
X11068Y8835D01*
X11060Y8822D01*
X11057Y8807D01*
X11060Y8793D01*
X11068Y8780D01*
X11080Y8772D01*
X11095Y8769D01*
X11110Y8772D01*
X11122Y8780D01*
X11130Y8793D01*
X11133Y8807D01*
X11130Y8822D01*
X11122Y8835D01*
X11110Y8843D01*
X11095Y8846D01*
D02*
G37*
G36*
X8468Y8993D02*
X8453Y8990D01*
X8440Y8982D01*
X8432Y8970D01*
X8429Y8955D01*
X8431Y8947D01*
X8422Y8934D01*
X8375D01*
Y8749D01*
X8561D01*
Y8934D01*
X8513D01*
X8504Y8947D01*
X8506Y8955D01*
X8503Y8970D01*
X8495Y8982D01*
X8482Y8990D01*
X8468Y8993D01*
D02*
G37*
G36*
X8722Y8983D02*
X8708Y8980D01*
X8695Y8972D01*
X8687Y8960D01*
X8684Y8945D01*
X8687Y8930D01*
X8686Y8927D01*
X8675Y8922D01*
X8656Y8907D01*
X8641Y8888D01*
X8632Y8866D01*
X8629Y8842D01*
X8632Y8817D01*
X8641Y8795D01*
X8656Y8776D01*
X8675Y8761D01*
X8698Y8751D01*
X8722Y8748D01*
X8746Y8751D01*
X8769Y8761D01*
X8788Y8776D01*
X8803Y8795D01*
X8812Y8817D01*
X8815Y8842D01*
X8812Y8866D01*
X8803Y8888D01*
X8788Y8907D01*
X8769Y8922D01*
X8759Y8926D01*
X8758Y8930D01*
X8761Y8945D01*
X8758Y8960D01*
X8750Y8972D01*
X8737Y8980D01*
X8722Y8983D01*
D02*
G37*
G36*
X10321Y8801D02*
X10307Y8798D01*
X10295Y8791D01*
X10288Y8779D01*
X10285Y8765D01*
X10288Y8752D01*
X10295Y8740D01*
X10307Y8732D01*
X10321Y8730D01*
X10334Y8732D01*
X10346Y8740D01*
X10353Y8752D01*
X10356Y8765D01*
X10353Y8779D01*
X10346Y8791D01*
X10334Y8798D01*
X10321Y8801D01*
D02*
G37*
G36*
X10890Y8796D02*
X10876Y8793D01*
X10865Y8785D01*
X10857Y8774D01*
X10854Y8760D01*
X10857Y8746D01*
X10865Y8735D01*
X10876Y8727D01*
X10890Y8724D01*
X10904Y8727D01*
X10915Y8735D01*
X10923Y8746D01*
X10926Y8760D01*
X10923Y8774D01*
X10915Y8785D01*
X10904Y8793D01*
X10890Y8796D01*
D02*
G37*
G36*
X9275Y8798D02*
X9260Y8795D01*
X9248Y8787D01*
X9240Y8775D01*
X9237Y8760D01*
X9240Y8745D01*
X9248Y8733D01*
X9260Y8725D01*
X9275Y8722D01*
X9290Y8725D01*
X9302Y8733D01*
X9310Y8745D01*
X9313Y8760D01*
X9310Y8775D01*
X9302Y8787D01*
X9290Y8795D01*
X9275Y8798D01*
D02*
G37*
G36*
X10090Y8753D02*
X10076Y8750D01*
X10065Y8743D01*
X10057Y8731D01*
X10054Y8718D01*
X10057Y8704D01*
X10065Y8692D01*
X10076Y8685D01*
X10090Y8682D01*
X10104Y8685D01*
X10115Y8692D01*
X10123Y8704D01*
X10126Y8718D01*
X10123Y8731D01*
X10115Y8743D01*
X10104Y8750D01*
X10090Y8753D01*
D02*
G37*
G36*
X17075Y8718D02*
X17060Y8715D01*
X17048Y8707D01*
X17040Y8694D01*
X17037Y8679D01*
X17040Y8665D01*
X17048Y8652D01*
X17060Y8644D01*
X17075Y8641D01*
X17090Y8644D01*
X17102Y8652D01*
X17110Y8665D01*
X17113Y8679D01*
X17110Y8694D01*
X17102Y8707D01*
X17090Y8715D01*
X17075Y8718D01*
D02*
G37*
G36*
X10022Y8701D02*
X10009Y8698D01*
X9997Y8690D01*
X9990Y8679D01*
X9987Y8665D01*
X9990Y8651D01*
X9997Y8640D01*
X10009Y8632D01*
X10022Y8629D01*
X10036Y8632D01*
X10048Y8640D01*
X10055Y8651D01*
X10058Y8665D01*
X10055Y8679D01*
X10048Y8690D01*
X10036Y8698D01*
X10022Y8701D01*
D02*
G37*
G36*
X10516Y8699D02*
X10501Y8696D01*
X10488Y8687D01*
X10480Y8675D01*
X10477Y8660D01*
X10480Y8646D01*
X10488Y8633D01*
X10501Y8625D01*
X10516Y8622D01*
X10530Y8625D01*
X10543Y8633D01*
X10551Y8646D01*
X10554Y8660D01*
X10551Y8675D01*
X10543Y8687D01*
X10530Y8696D01*
X10516Y8699D01*
D02*
G37*
G36*
X10832Y8681D02*
X10819Y8678D01*
X10807Y8670D01*
X10800Y8659D01*
X10797Y8645D01*
X10800Y8631D01*
X10807Y8620D01*
X10819Y8612D01*
X10832Y8609D01*
X10846Y8612D01*
X10858Y8620D01*
X10865Y8631D01*
X10868Y8645D01*
X10865Y8659D01*
X10858Y8670D01*
X10846Y8678D01*
X10832Y8681D01*
D02*
G37*
G36*
X9540Y8663D02*
X9526Y8660D01*
X9515Y8653D01*
X9507Y8641D01*
X9504Y8628D01*
X9507Y8614D01*
X9515Y8602D01*
X9526Y8595D01*
X9540Y8592D01*
X9554Y8595D01*
X9565Y8602D01*
X9573Y8614D01*
X9576Y8628D01*
X9573Y8641D01*
X9565Y8653D01*
X9554Y8660D01*
X9540Y8663D01*
D02*
G37*
G36*
X11120Y8618D02*
X11106Y8615D01*
X11095Y8608D01*
X11087Y8596D01*
X11084Y8582D01*
X11087Y8569D01*
X11095Y8557D01*
X11106Y8550D01*
X11120Y8547D01*
X11134Y8550D01*
X11145Y8557D01*
X11153Y8569D01*
X11156Y8582D01*
X11153Y8596D01*
X11145Y8608D01*
X11134Y8615D01*
X11120Y8618D01*
D02*
G37*
G36*
X10945Y8601D02*
X10931Y8598D01*
X10920Y8590D01*
X10912Y8579D01*
X10909Y8565D01*
X10912Y8551D01*
X10920Y8540D01*
X10931Y8532D01*
X10945Y8529D01*
X10959Y8532D01*
X10970Y8540D01*
X10978Y8551D01*
X10981Y8565D01*
X10978Y8579D01*
X10970Y8590D01*
X10959Y8598D01*
X10945Y8601D01*
D02*
G37*
G36*
X17302Y8588D02*
X17288Y8585D01*
X17275Y8577D01*
X17267Y8564D01*
X17264Y8550D01*
X17267Y8535D01*
X17275Y8522D01*
X17288Y8514D01*
X17302Y8511D01*
X17317Y8514D01*
X17330Y8522D01*
X17338Y8535D01*
X17341Y8550D01*
X17338Y8564D01*
X17330Y8577D01*
X17317Y8585D01*
X17302Y8588D01*
D02*
G37*
G36*
X10768Y8576D02*
X10754Y8573D01*
X10743Y8566D01*
X10735Y8554D01*
X10732Y8540D01*
X10735Y8527D01*
X10743Y8515D01*
X10754Y8507D01*
X10768Y8505D01*
X10782Y8507D01*
X10793Y8515D01*
X10801Y8527D01*
X10804Y8540D01*
X10801Y8554D01*
X10793Y8566D01*
X10782Y8573D01*
X10768Y8576D01*
D02*
G37*
G36*
X8722Y8681D02*
X8698Y8678D01*
X8675Y8668D01*
X8656Y8653D01*
X8641Y8634D01*
X8632Y8612D01*
X8629Y8588D01*
X8632Y8563D01*
X8641Y8541D01*
X8656Y8522D01*
X8675Y8507D01*
X8698Y8497D01*
X8722Y8494D01*
X8746Y8497D01*
X8769Y8507D01*
X8788Y8522D01*
X8803Y8541D01*
X8812Y8563D01*
X8815Y8588D01*
X8812Y8612D01*
X8803Y8634D01*
X8788Y8653D01*
X8769Y8668D01*
X8746Y8678D01*
X8722Y8681D01*
D02*
G37*
G36*
X8468D02*
X8444Y8678D01*
X8421Y8668D01*
X8402Y8653D01*
X8387Y8634D01*
X8378Y8612D01*
X8375Y8588D01*
X8378Y8563D01*
X8387Y8541D01*
X8402Y8522D01*
X8421Y8507D01*
X8444Y8497D01*
X8468Y8494D01*
X8492Y8497D01*
X8515Y8507D01*
X8534Y8522D01*
X8549Y8541D01*
X8558Y8563D01*
X8561Y8588D01*
X8558Y8612D01*
X8549Y8634D01*
X8534Y8653D01*
X8515Y8668D01*
X8492Y8678D01*
X8468Y8681D01*
D02*
G37*
G36*
X11210Y8536D02*
X11196Y8533D01*
X11185Y8525D01*
X11177Y8514D01*
X11174Y8500D01*
X11177Y8486D01*
X11185Y8475D01*
X11196Y8467D01*
X11210Y8464D01*
X11224Y8467D01*
X11235Y8475D01*
X11243Y8486D01*
X11246Y8500D01*
X11243Y8514D01*
X11235Y8525D01*
X11224Y8533D01*
X11210Y8536D01*
D02*
G37*
G36*
X11090Y8526D02*
X11076Y8523D01*
X11065Y8515D01*
X11057Y8504D01*
X11054Y8490D01*
X11057Y8476D01*
X11065Y8465D01*
X11076Y8457D01*
X11090Y8454D01*
X11104Y8457D01*
X11115Y8465D01*
X11123Y8476D01*
X11126Y8490D01*
X11123Y8504D01*
X11115Y8515D01*
X11104Y8523D01*
X11090Y8526D01*
D02*
G37*
G36*
X9855Y8511D02*
X9841Y8508D01*
X9830Y8500D01*
X9822Y8489D01*
X9819Y8475D01*
X9822Y8461D01*
X9830Y8450D01*
X9841Y8442D01*
X9855Y8439D01*
X9869Y8442D01*
X9880Y8450D01*
X9888Y8461D01*
X9891Y8475D01*
X9888Y8489D01*
X9880Y8500D01*
X9869Y8508D01*
X9855Y8511D01*
D02*
G37*
G36*
X15032Y8614D02*
X15011Y8609D01*
X14993Y8597D01*
X14981Y8579D01*
X14976Y8557D01*
X14981Y8536D01*
X14993Y8518D01*
X15011Y8506D01*
X15032Y8501D01*
X15054Y8506D01*
X15068Y8515D01*
X15077Y8506D01*
X15076Y8504D01*
X15071Y8482D01*
X15076Y8461D01*
X15088Y8443D01*
X15106Y8431D01*
X15127Y8426D01*
X15149Y8431D01*
X15167Y8443D01*
X15179Y8461D01*
X15184Y8482D01*
X15179Y8504D01*
X15167Y8522D01*
X15149Y8534D01*
X15127Y8539D01*
X15106Y8534D01*
X15092Y8525D01*
X15083Y8534D01*
X15084Y8536D01*
X15089Y8557D01*
X15084Y8579D01*
X15072Y8597D01*
X15054Y8609D01*
X15032Y8614D01*
D02*
G37*
G36*
X14930Y8539D02*
X14909Y8534D01*
X14890Y8522D01*
X14878Y8504D01*
X14874Y8482D01*
X14878Y8461D01*
X14890Y8443D01*
X14909Y8431D01*
X14930Y8426D01*
X14951Y8431D01*
X14970Y8443D01*
X14982Y8461D01*
X14986Y8482D01*
X14982Y8504D01*
X14970Y8522D01*
X14951Y8534D01*
X14930Y8539D01*
D02*
G37*
G36*
X16350Y8488D02*
X16335Y8485D01*
X16323Y8477D01*
X16315Y8465D01*
X16312Y8450D01*
X16315Y8435D01*
X16323Y8423D01*
X16335Y8415D01*
X16350Y8412D01*
X16365Y8415D01*
X16377Y8423D01*
X16385Y8435D01*
X16388Y8450D01*
X16385Y8465D01*
X16377Y8477D01*
X16365Y8485D01*
X16350Y8488D01*
D02*
G37*
G36*
X10990Y8463D02*
X10976Y8460D01*
X10965Y8453D01*
X10957Y8441D01*
X10954Y8428D01*
X10957Y8414D01*
X10965Y8402D01*
X10976Y8395D01*
X10990Y8392D01*
X11004Y8395D01*
X11015Y8402D01*
X11023Y8414D01*
X11026Y8428D01*
X11023Y8441D01*
X11015Y8453D01*
X11004Y8460D01*
X10990Y8463D01*
D02*
G37*
G36*
X17302Y8465D02*
X17288Y8462D01*
X17275Y8454D01*
X17267Y8442D01*
X17264Y8427D01*
X17267Y8412D01*
X17275Y8400D01*
X17288Y8392D01*
X17302Y8389D01*
X17317Y8392D01*
X17330Y8400D01*
X17338Y8412D01*
X17341Y8427D01*
X17338Y8442D01*
X17330Y8454D01*
X17317Y8462D01*
X17302Y8465D01*
D02*
G37*
G36*
X9710Y8433D02*
X9696Y8430D01*
X9685Y8423D01*
X9677Y8411D01*
X9674Y8397D01*
X9677Y8384D01*
X9685Y8372D01*
X9696Y8365D01*
X9710Y8362D01*
X9724Y8365D01*
X9735Y8372D01*
X9743Y8384D01*
X9746Y8397D01*
X9743Y8411D01*
X9735Y8423D01*
X9724Y8430D01*
X9710Y8433D01*
D02*
G37*
G36*
X9918Y8389D02*
X9904Y8386D01*
X9893Y8378D01*
X9885Y8367D01*
X9882Y8353D01*
X9885Y8339D01*
X9893Y8328D01*
X9904Y8320D01*
X9918Y8317D01*
X9932Y8320D01*
X9943Y8328D01*
X9951Y8339D01*
X9954Y8353D01*
X9951Y8367D01*
X9943Y8378D01*
X9932Y8386D01*
X9918Y8389D01*
D02*
G37*
G36*
X9640Y8381D02*
X9626Y8378D01*
X9615Y8370D01*
X9607Y8359D01*
X9604Y8345D01*
X9607Y8331D01*
X9615Y8320D01*
X9626Y8312D01*
X9640Y8309D01*
X9654Y8312D01*
X9665Y8320D01*
X9673Y8331D01*
X9676Y8345D01*
X9673Y8359D01*
X9665Y8370D01*
X9654Y8378D01*
X9640Y8381D01*
D02*
G37*
G36*
X15900Y8338D02*
X15885Y8335D01*
X15873Y8327D01*
X15865Y8315D01*
X15862Y8300D01*
X15865Y8285D01*
X15873Y8273D01*
X15885Y8265D01*
X15900Y8262D01*
X15915Y8265D01*
X15927Y8273D01*
X15935Y8285D01*
X15938Y8300D01*
X15935Y8315D01*
X15927Y8327D01*
X15915Y8335D01*
X15900Y8338D01*
D02*
G37*
G36*
X16014Y8278D02*
X16000Y8275D01*
X15987Y8266D01*
X15979Y8254D01*
X15976Y8239D01*
X15979Y8225D01*
X15987Y8212D01*
X16000Y8204D01*
X16014Y8201D01*
X16029Y8204D01*
X16041Y8212D01*
X16050Y8225D01*
X16053Y8239D01*
X16050Y8254D01*
X16041Y8266D01*
X16029Y8275D01*
X16014Y8278D01*
D02*
G37*
G36*
X15425Y8188D02*
X15410Y8185D01*
X15398Y8177D01*
X15390Y8165D01*
X15387Y8150D01*
X15390Y8135D01*
X15398Y8123D01*
X15410Y8115D01*
X15425Y8112D01*
X15440Y8115D01*
X15452Y8123D01*
X15460Y8135D01*
X15463Y8150D01*
X15460Y8165D01*
X15452Y8177D01*
X15440Y8185D01*
X15425Y8188D01*
D02*
G37*
G36*
X14650Y8181D02*
X14629Y8177D01*
X14610Y8165D01*
X14598Y8146D01*
X14594Y8125D01*
X14598Y8104D01*
X14610Y8085D01*
X14629Y8073D01*
X14650Y8069D01*
X14671Y8073D01*
X14690Y8085D01*
X14702Y8104D01*
X14706Y8125D01*
X14702Y8146D01*
X14690Y8165D01*
X14671Y8177D01*
X14650Y8181D01*
D02*
G37*
G36*
Y8031D02*
X14629Y8027D01*
X14610Y8015D01*
X14598Y7996D01*
X14594Y7975D01*
X14598Y7954D01*
X14610Y7935D01*
X14629Y7923D01*
X14650Y7919D01*
X14671Y7923D01*
X14690Y7935D01*
X14702Y7954D01*
X14706Y7975D01*
X14702Y7996D01*
X14690Y8015D01*
X14671Y8027D01*
X14650Y8031D01*
D02*
G37*
G36*
X17282Y7955D02*
X17268Y7952D01*
X17255Y7944D01*
X17247Y7932D01*
X17244Y7917D01*
X17247Y7902D01*
X17255Y7890D01*
X17268Y7882D01*
X17282Y7879D01*
X17297Y7882D01*
X17310Y7890D01*
X17318Y7902D01*
X17321Y7917D01*
X17318Y7932D01*
X17310Y7944D01*
X17297Y7952D01*
X17282Y7955D01*
D02*
G37*
G36*
X13875Y7913D02*
X13860Y7910D01*
X13848Y7902D01*
X13840Y7890D01*
X13837Y7875D01*
X13840Y7860D01*
X13848Y7848D01*
X13860Y7840D01*
X13875Y7837D01*
X13890Y7840D01*
X13902Y7848D01*
X13910Y7860D01*
X13913Y7875D01*
X13910Y7890D01*
X13902Y7902D01*
X13890Y7910D01*
X13875Y7913D01*
D02*
G37*
G36*
X11735Y8061D02*
X11720Y8058D01*
X11708Y8050D01*
X11700Y8037D01*
X11697Y8022D01*
X11700Y8008D01*
X11707Y7997D01*
X11706Y7991D01*
X11702Y7984D01*
X11636D01*
Y7799D01*
X11821D01*
Y7984D01*
X11768D01*
X11764Y7991D01*
X11763Y7997D01*
X11770Y8008D01*
X11773Y8022D01*
X11770Y8037D01*
X11762Y8050D01*
X11750Y8058D01*
X11735Y8061D01*
D02*
G37*
G36*
X10588Y7838D02*
X10574Y7835D01*
X10562Y7828D01*
X10555Y7816D01*
X10552Y7803D01*
X10555Y7789D01*
X10562Y7777D01*
X10574Y7770D01*
X10588Y7767D01*
X10601Y7770D01*
X10613Y7777D01*
X10620Y7789D01*
X10623Y7803D01*
X10620Y7816D01*
X10613Y7828D01*
X10601Y7835D01*
X10588Y7838D01*
D02*
G37*
G36*
X13893Y7796D02*
X13878Y7793D01*
X13865Y7785D01*
X13857Y7772D01*
X13854Y7757D01*
X13857Y7743D01*
X13865Y7730D01*
X13878Y7722D01*
X13893Y7719D01*
X13907Y7722D01*
X13920Y7730D01*
X13928Y7743D01*
X13931Y7757D01*
X13928Y7772D01*
X13920Y7785D01*
X13907Y7793D01*
X13893Y7796D01*
D02*
G37*
G36*
X11728Y7731D02*
X11704Y7728D01*
X11681Y7718D01*
X11662Y7703D01*
X11647Y7684D01*
X11641Y7668D01*
X11636Y7667D01*
X11626Y7666D01*
X11616Y7673D01*
X11601Y7676D01*
X11586Y7673D01*
X11574Y7665D01*
X11566Y7652D01*
X11563Y7637D01*
X11566Y7623D01*
X11574Y7610D01*
X11586Y7602D01*
X11601Y7599D01*
X11616Y7602D01*
X11626Y7609D01*
X11636Y7608D01*
X11641Y7607D01*
X11647Y7591D01*
X11662Y7572D01*
X11681Y7557D01*
X11704Y7547D01*
X11728Y7544D01*
X11752Y7547D01*
X11775Y7557D01*
X11794Y7572D01*
X11809Y7591D01*
X11818Y7613D01*
X11821Y7638D01*
X11818Y7662D01*
X11809Y7684D01*
X11794Y7703D01*
X11775Y7718D01*
X11752Y7728D01*
X11728Y7731D01*
D02*
G37*
G36*
X10538Y7736D02*
X10524Y7733D01*
X10512Y7725D01*
X10505Y7714D01*
X10502Y7700D01*
X10505Y7686D01*
X10512Y7675D01*
X10524Y7667D01*
X10538Y7664D01*
X10551Y7667D01*
X10563Y7675D01*
X10570Y7686D01*
X10573Y7700D01*
X10570Y7714D01*
X10563Y7725D01*
X10551Y7733D01*
X10538Y7736D01*
D02*
G37*
G36*
X15025Y7656D02*
X15004Y7652D01*
X14985Y7640D01*
X14973Y7621D01*
X14969Y7600D01*
X14973Y7579D01*
X14985Y7560D01*
X15004Y7548D01*
X15025Y7544D01*
X15046Y7548D01*
X15065Y7560D01*
X15077Y7579D01*
X15081Y7600D01*
X15077Y7621D01*
X15065Y7640D01*
X15046Y7652D01*
X15025Y7656D01*
D02*
G37*
G36*
X17080Y7600D02*
X17065Y7597D01*
X17053Y7589D01*
X17045Y7577D01*
X17042Y7562D01*
X17045Y7547D01*
X17053Y7535D01*
X17065Y7527D01*
X17080Y7524D01*
X17095Y7527D01*
X17107Y7535D01*
X17115Y7547D01*
X17118Y7562D01*
X17115Y7577D01*
X17107Y7589D01*
X17095Y7597D01*
X17080Y7600D01*
D02*
G37*
G36*
X10513Y7564D02*
X10499Y7561D01*
X10488Y7553D01*
X10480Y7542D01*
X10477Y7528D01*
X10480Y7514D01*
X10488Y7503D01*
X10499Y7495D01*
X10513Y7492D01*
X10527Y7495D01*
X10538Y7503D01*
X10546Y7514D01*
X10549Y7528D01*
X10546Y7542D01*
X10538Y7553D01*
X10527Y7561D01*
X10513Y7564D01*
D02*
G37*
G36*
X16075Y7563D02*
X16060Y7560D01*
X16048Y7552D01*
X16040Y7540D01*
X16037Y7525D01*
X16040Y7510D01*
X16048Y7498D01*
X16060Y7490D01*
X16075Y7487D01*
X16090Y7490D01*
X16102Y7498D01*
X16110Y7510D01*
X16113Y7525D01*
X16110Y7540D01*
X16102Y7552D01*
X16090Y7560D01*
X16075Y7563D01*
D02*
G37*
G36*
X9260Y7526D02*
X9245Y7523D01*
X9233Y7515D01*
X9225Y7502D01*
X9222Y7488D01*
X9225Y7473D01*
X9233Y7460D01*
X9245Y7452D01*
X9260Y7449D01*
X9275Y7452D01*
X9287Y7460D01*
X9295Y7473D01*
X9298Y7488D01*
X9295Y7502D01*
X9287Y7515D01*
X9275Y7523D01*
X9260Y7526D01*
D02*
G37*
G36*
X13810Y7488D02*
X13795Y7485D01*
X13783Y7477D01*
X13775Y7465D01*
X13772Y7450D01*
X13775Y7435D01*
X13783Y7423D01*
X13795Y7415D01*
X13810Y7412D01*
X13825Y7415D01*
X13837Y7423D01*
X13845Y7435D01*
X13848Y7450D01*
X13845Y7465D01*
X13837Y7477D01*
X13825Y7485D01*
X13810Y7488D01*
D02*
G37*
G36*
X17075Y7470D02*
X17060Y7467D01*
X17048Y7459D01*
X17040Y7447D01*
X17037Y7432D01*
X17040Y7417D01*
X17048Y7405D01*
X17060Y7397D01*
X17075Y7394D01*
X17090Y7397D01*
X17102Y7405D01*
X17110Y7417D01*
X17113Y7432D01*
X17110Y7447D01*
X17102Y7459D01*
X17090Y7467D01*
X17075Y7470D01*
D02*
G37*
G36*
X14775Y7456D02*
X14760Y7453D01*
X14748Y7445D01*
X14740Y7432D01*
X14737Y7418D01*
X14740Y7403D01*
X14748Y7390D01*
X14760Y7382D01*
X14775Y7379D01*
X14790Y7382D01*
X14802Y7390D01*
X14810Y7403D01*
X14813Y7418D01*
X14810Y7432D01*
X14802Y7445D01*
X14790Y7453D01*
X14775Y7456D01*
D02*
G37*
G36*
X13480Y7401D02*
X13465Y7398D01*
X13453Y7390D01*
X13445Y7377D01*
X13442Y7362D01*
X13445Y7348D01*
X13453Y7335D01*
X13465Y7327D01*
X13480Y7324D01*
X13495Y7327D01*
X13507Y7335D01*
X13515Y7348D01*
X13518Y7362D01*
X13515Y7377D01*
X13507Y7390D01*
X13495Y7398D01*
X13480Y7401D01*
D02*
G37*
G36*
X17075Y7363D02*
X17060Y7360D01*
X17048Y7352D01*
X17040Y7340D01*
X17037Y7325D01*
X17040Y7310D01*
X17048Y7298D01*
X17060Y7290D01*
X17075Y7287D01*
X17090Y7290D01*
X17102Y7298D01*
X17110Y7310D01*
X17113Y7325D01*
X17110Y7340D01*
X17102Y7352D01*
X17090Y7360D01*
X17075Y7363D01*
D02*
G37*
G36*
X14300Y7346D02*
X14285Y7343D01*
X14273Y7335D01*
X14265Y7322D01*
X14262Y7307D01*
X14265Y7293D01*
X14273Y7280D01*
X14285Y7272D01*
X14300Y7269D01*
X14315Y7272D01*
X14327Y7280D01*
X14335Y7293D01*
X14338Y7307D01*
X14335Y7322D01*
X14327Y7335D01*
X14315Y7343D01*
X14300Y7346D01*
D02*
G37*
G36*
X14900Y7313D02*
X14885Y7310D01*
X14873Y7302D01*
X14865Y7290D01*
X14862Y7275D01*
X14865Y7260D01*
X14873Y7248D01*
X14885Y7240D01*
X14900Y7237D01*
X14915Y7240D01*
X14927Y7248D01*
X14935Y7260D01*
X14938Y7275D01*
X14935Y7290D01*
X14927Y7302D01*
X14915Y7310D01*
X14900Y7313D01*
D02*
G37*
G36*
X9397Y7287D02*
X9383Y7284D01*
X9370Y7276D01*
X9362Y7264D01*
X9359Y7249D01*
X9362Y7234D01*
X9370Y7222D01*
X9383Y7214D01*
X9397Y7211D01*
X9412Y7214D01*
X9424Y7222D01*
X9433Y7234D01*
X9436Y7249D01*
X9433Y7264D01*
X9424Y7276D01*
X9412Y7284D01*
X9397Y7287D01*
D02*
G37*
G36*
X14925Y7181D02*
X14910Y7178D01*
X14898Y7170D01*
X14890Y7157D01*
X14887Y7143D01*
X14890Y7128D01*
X14898Y7115D01*
X14910Y7107D01*
X14925Y7104D01*
X14940Y7107D01*
X14952Y7115D01*
X14960Y7128D01*
X14963Y7143D01*
X14960Y7157D01*
X14952Y7170D01*
X14940Y7178D01*
X14925Y7181D01*
D02*
G37*
G36*
X7020Y7138D02*
X7005Y7135D01*
X6993Y7127D01*
X6985Y7115D01*
X6982Y7100D01*
X6985Y7085D01*
X6993Y7073D01*
X7005Y7065D01*
X7020Y7062D01*
X7035Y7065D01*
X7047Y7073D01*
X7055Y7085D01*
X7058Y7100D01*
X7055Y7115D01*
X7047Y7127D01*
X7035Y7135D01*
X7020Y7138D01*
D02*
G37*
G36*
X13200Y7106D02*
X13179Y7102D01*
X13160Y7090D01*
X13148Y7071D01*
X13144Y7050D01*
X13148Y7029D01*
X13160Y7010D01*
X13179Y6998D01*
X13200Y6994D01*
X13221Y6998D01*
X13240Y7010D01*
X13252Y7029D01*
X13256Y7050D01*
X13252Y7071D01*
X13240Y7090D01*
X13221Y7102D01*
X13200Y7106D01*
D02*
G37*
G36*
X14895Y7063D02*
X14880Y7060D01*
X14868Y7052D01*
X14860Y7040D01*
X14857Y7025D01*
X14860Y7010D01*
X14868Y6998D01*
X14880Y6990D01*
X14895Y6987D01*
X14910Y6990D01*
X14922Y6998D01*
X14930Y7010D01*
X14933Y7025D01*
X14930Y7040D01*
X14922Y7052D01*
X14910Y7060D01*
X14895Y7063D01*
D02*
G37*
G36*
X12250Y6938D02*
X12235Y6935D01*
X12223Y6927D01*
X12215Y6915D01*
X12212Y6900D01*
X12215Y6885D01*
X12223Y6873D01*
X12235Y6865D01*
X12250Y6862D01*
X12265Y6865D01*
X12277Y6873D01*
X12285Y6885D01*
X12288Y6900D01*
X12285Y6915D01*
X12277Y6927D01*
X12265Y6935D01*
X12250Y6938D01*
D02*
G37*
G36*
X13200Y6956D02*
X13179Y6952D01*
X13160Y6940D01*
X13148Y6921D01*
X13144Y6900D01*
X13148Y6879D01*
X13160Y6860D01*
X13179Y6848D01*
X13200Y6844D01*
X13221Y6848D01*
X13240Y6860D01*
X13252Y6879D01*
X13256Y6900D01*
X13252Y6921D01*
X13240Y6940D01*
X13221Y6952D01*
X13200Y6956D01*
D02*
G37*
G36*
X15375Y6906D02*
X15354Y6902D01*
X15335Y6890D01*
X15323Y6871D01*
X15319Y6850D01*
X15323Y6829D01*
X15335Y6810D01*
X15354Y6798D01*
X15375Y6794D01*
X15396Y6798D01*
X15415Y6810D01*
X15427Y6829D01*
X15431Y6850D01*
X15427Y6871D01*
X15415Y6890D01*
X15396Y6902D01*
X15375Y6906D01*
D02*
G37*
G36*
X15225D02*
X15204Y6902D01*
X15185Y6890D01*
X15173Y6871D01*
X15169Y6850D01*
X15173Y6829D01*
X15185Y6810D01*
X15204Y6798D01*
X15225Y6794D01*
X15246Y6798D01*
X15265Y6810D01*
X15277Y6829D01*
X15281Y6850D01*
X15277Y6871D01*
X15265Y6890D01*
X15246Y6902D01*
X15225Y6906D01*
D02*
G37*
G36*
X15075D02*
X15054Y6902D01*
X15035Y6890D01*
X15023Y6871D01*
X15019Y6850D01*
X15023Y6829D01*
X15035Y6810D01*
X15054Y6798D01*
X15075Y6794D01*
X15096Y6798D01*
X15115Y6810D01*
X15127Y6829D01*
X15131Y6850D01*
X15127Y6871D01*
X15115Y6890D01*
X15096Y6902D01*
X15075Y6906D01*
D02*
G37*
G36*
X17282Y6843D02*
X17268Y6840D01*
X17255Y6832D01*
X17247Y6819D01*
X17244Y6804D01*
X17247Y6790D01*
X17255Y6777D01*
X17268Y6769D01*
X17282Y6766D01*
X17297Y6769D01*
X17310Y6777D01*
X17318Y6790D01*
X17321Y6804D01*
X17318Y6819D01*
X17310Y6832D01*
X17297Y6840D01*
X17282Y6843D01*
D02*
G37*
G36*
X9505Y6841D02*
X9490Y6838D01*
X9478Y6830D01*
X9470Y6817D01*
X9467Y6803D01*
X9470Y6788D01*
X9478Y6775D01*
X9490Y6767D01*
X9505Y6764D01*
X9520Y6767D01*
X9532Y6775D01*
X9540Y6788D01*
X9543Y6803D01*
X9540Y6817D01*
X9532Y6830D01*
X9520Y6838D01*
X9505Y6841D01*
D02*
G37*
G36*
X13200Y6831D02*
X13179Y6827D01*
X13160Y6815D01*
X13148Y6796D01*
X13144Y6775D01*
X13148Y6754D01*
X13160Y6735D01*
X13179Y6723D01*
X13200Y6719D01*
X13221Y6723D01*
X13240Y6735D01*
X13252Y6754D01*
X13256Y6775D01*
X13252Y6796D01*
X13240Y6815D01*
X13221Y6827D01*
X13200Y6831D01*
D02*
G37*
G36*
X13050D02*
X13029Y6827D01*
X13010Y6815D01*
X12998Y6796D01*
X12994Y6775D01*
X12998Y6754D01*
X13010Y6735D01*
X13029Y6723D01*
X13050Y6719D01*
X13071Y6723D01*
X13090Y6735D01*
X13102Y6754D01*
X13106Y6775D01*
X13102Y6796D01*
X13090Y6815D01*
X13071Y6827D01*
X13050Y6831D01*
D02*
G37*
G36*
X12900D02*
X12879Y6827D01*
X12860Y6815D01*
X12848Y6796D01*
X12844Y6775D01*
X12848Y6754D01*
X12860Y6735D01*
X12879Y6723D01*
X12900Y6719D01*
X12921Y6723D01*
X12940Y6735D01*
X12952Y6754D01*
X12956Y6775D01*
X12952Y6796D01*
X12940Y6815D01*
X12921Y6827D01*
X12900Y6831D01*
D02*
G37*
G36*
X12750D02*
X12729Y6827D01*
X12710Y6815D01*
X12698Y6796D01*
X12694Y6775D01*
X12698Y6754D01*
X12710Y6735D01*
X12729Y6723D01*
X12750Y6719D01*
X12771Y6723D01*
X12790Y6735D01*
X12802Y6754D01*
X12806Y6775D01*
X12802Y6796D01*
X12790Y6815D01*
X12771Y6827D01*
X12750Y6831D01*
D02*
G37*
G36*
X12600D02*
X12579Y6827D01*
X12560Y6815D01*
X12548Y6796D01*
X12544Y6775D01*
X12548Y6754D01*
X12560Y6735D01*
X12579Y6723D01*
X12600Y6719D01*
X12621Y6723D01*
X12640Y6735D01*
X12652Y6754D01*
X12656Y6775D01*
X12652Y6796D01*
X12640Y6815D01*
X12621Y6827D01*
X12600Y6831D01*
D02*
G37*
G36*
X9665Y6763D02*
X9651Y6760D01*
X9640Y6753D01*
X9632Y6741D01*
X9629Y6728D01*
X9632Y6714D01*
X9640Y6702D01*
X9651Y6695D01*
X9665Y6692D01*
X9679Y6695D01*
X9690Y6702D01*
X9698Y6714D01*
X9701Y6728D01*
X9698Y6741D01*
X9690Y6753D01*
X9679Y6760D01*
X9665Y6763D01*
D02*
G37*
G36*
X15525Y6781D02*
X15504Y6777D01*
X15485Y6765D01*
X15473Y6746D01*
X15469Y6725D01*
X15473Y6704D01*
X15485Y6685D01*
X15504Y6673D01*
X15525Y6669D01*
X15546Y6673D01*
X15565Y6685D01*
X15577Y6704D01*
X15581Y6725D01*
X15577Y6746D01*
X15565Y6765D01*
X15546Y6777D01*
X15525Y6781D01*
D02*
G37*
G36*
X15375D02*
X15354Y6777D01*
X15335Y6765D01*
X15323Y6746D01*
X15319Y6725D01*
X15323Y6704D01*
X15335Y6685D01*
X15354Y6673D01*
X15375Y6669D01*
X15396Y6673D01*
X15415Y6685D01*
X15427Y6704D01*
X15431Y6725D01*
X15427Y6746D01*
X15415Y6765D01*
X15396Y6777D01*
X15375Y6781D01*
D02*
G37*
G36*
X15225D02*
X15204Y6777D01*
X15185Y6765D01*
X15173Y6746D01*
X15169Y6725D01*
X15173Y6704D01*
X15185Y6685D01*
X15204Y6673D01*
X15225Y6669D01*
X15246Y6673D01*
X15265Y6685D01*
X15277Y6704D01*
X15281Y6725D01*
X15277Y6746D01*
X15265Y6765D01*
X15246Y6777D01*
X15225Y6781D01*
D02*
G37*
G36*
X15075D02*
X15054Y6777D01*
X15035Y6765D01*
X15023Y6746D01*
X15019Y6725D01*
X15023Y6704D01*
X15035Y6685D01*
X15054Y6673D01*
X15075Y6669D01*
X15096Y6673D01*
X15115Y6685D01*
X15127Y6704D01*
X15131Y6725D01*
X15127Y6746D01*
X15115Y6765D01*
X15096Y6777D01*
X15075Y6781D01*
D02*
G37*
G36*
X9805Y6726D02*
X9791Y6723D01*
X9780Y6715D01*
X9772Y6704D01*
X9769Y6690D01*
X9772Y6676D01*
X9780Y6665D01*
X9791Y6657D01*
X9805Y6654D01*
X9819Y6657D01*
X9830Y6665D01*
X9838Y6676D01*
X9841Y6690D01*
X9838Y6704D01*
X9830Y6715D01*
X9819Y6723D01*
X9805Y6726D01*
D02*
G37*
G36*
X9603Y6676D02*
X9589Y6673D01*
X9577Y6665D01*
X9570Y6654D01*
X9567Y6640D01*
X9570Y6626D01*
X9577Y6615D01*
X9589Y6607D01*
X9603Y6604D01*
X9616Y6607D01*
X9628Y6615D01*
X9635Y6626D01*
X9638Y6640D01*
X9635Y6654D01*
X9628Y6665D01*
X9616Y6673D01*
X9603Y6676D01*
D02*
G37*
G36*
X10150Y6624D02*
X10137Y6621D01*
X10125Y6613D01*
X10118Y6601D01*
X10115Y6588D01*
X10118Y6574D01*
X10125Y6563D01*
X10137Y6555D01*
X10150Y6552D01*
X10164Y6555D01*
X10176Y6563D01*
X10183Y6574D01*
X10186Y6588D01*
X10183Y6601D01*
X10176Y6613D01*
X10164Y6621D01*
X10150Y6624D01*
D02*
G37*
G36*
X9503Y6623D02*
X9488Y6620D01*
X9475Y6612D01*
X9467Y6600D01*
X9464Y6585D01*
X9467Y6570D01*
X9475Y6558D01*
X9488Y6550D01*
X9503Y6547D01*
X9517Y6550D01*
X9530Y6558D01*
X9538Y6570D01*
X9541Y6585D01*
X9538Y6600D01*
X9530Y6612D01*
X9517Y6620D01*
X9503Y6623D01*
D02*
G37*
G36*
X15075Y6656D02*
X15054Y6652D01*
X15035Y6640D01*
X15023Y6621D01*
X15019Y6600D01*
X15023Y6579D01*
X15035Y6560D01*
X15054Y6548D01*
X15075Y6544D01*
X15096Y6548D01*
X15115Y6560D01*
X15127Y6579D01*
X15131Y6600D01*
X15127Y6621D01*
X15115Y6640D01*
X15096Y6652D01*
X15075Y6656D01*
D02*
G37*
G36*
X10204Y6555D02*
X10191Y6552D01*
X10179Y6544D01*
X10171Y6533D01*
X10169Y6519D01*
X10171Y6505D01*
X10179Y6494D01*
X10191Y6486D01*
X10204Y6483D01*
X10218Y6486D01*
X10230Y6494D01*
X10237Y6505D01*
X10240Y6519D01*
X10237Y6533D01*
X10230Y6544D01*
X10218Y6552D01*
X10204Y6555D01*
D02*
G37*
G36*
X11838Y6559D02*
X11823Y6557D01*
X11810Y6548D01*
X11802Y6536D01*
X11799Y6521D01*
X11802Y6507D01*
X11810Y6494D01*
X11823Y6486D01*
X11838Y6483D01*
X11852Y6486D01*
X11865Y6494D01*
X11873Y6507D01*
X11876Y6521D01*
X11873Y6536D01*
X11865Y6548D01*
X11852Y6557D01*
X11838Y6559D01*
D02*
G37*
G36*
X10376Y6496D02*
X10362Y6493D01*
X10350Y6486D01*
X10343Y6474D01*
X10340Y6460D01*
X10343Y6447D01*
X10350Y6435D01*
X10362Y6427D01*
X10376Y6425D01*
X10389Y6427D01*
X10401Y6435D01*
X10408Y6447D01*
X10411Y6460D01*
X10408Y6474D01*
X10401Y6486D01*
X10389Y6493D01*
X10376Y6496D01*
D02*
G37*
G36*
X10267Y6494D02*
X10254Y6491D01*
X10242Y6484D01*
X10234Y6472D01*
X10232Y6458D01*
X10234Y6445D01*
X10242Y6433D01*
X10254Y6425D01*
X10267Y6423D01*
X10281Y6425D01*
X10293Y6433D01*
X10300Y6445D01*
X10303Y6458D01*
X10300Y6472D01*
X10293Y6484D01*
X10281Y6491D01*
X10267Y6494D01*
D02*
G37*
G36*
X15075Y6531D02*
X15054Y6527D01*
X15035Y6515D01*
X15023Y6496D01*
X15019Y6475D01*
X15023Y6454D01*
X15035Y6435D01*
X15054Y6423D01*
X15075Y6419D01*
X15096Y6423D01*
X15115Y6435D01*
X15127Y6454D01*
X15131Y6475D01*
X15127Y6496D01*
X15115Y6515D01*
X15096Y6527D01*
X15075Y6531D01*
D02*
G37*
G36*
X9770Y6488D02*
X9756Y6485D01*
X9745Y6478D01*
X9737Y6466D01*
X9734Y6453D01*
X9737Y6439D01*
X9745Y6427D01*
X9756Y6420D01*
X9770Y6417D01*
X9784Y6420D01*
X9795Y6427D01*
X9803Y6439D01*
X9806Y6453D01*
X9803Y6466D01*
X9795Y6478D01*
X9784Y6485D01*
X9770Y6488D01*
D02*
G37*
G36*
X9615Y6563D02*
X9601Y6560D01*
X9590Y6553D01*
X9582Y6541D01*
X9579Y6528D01*
X9582Y6514D01*
X9590Y6502D01*
X9601Y6495D01*
X9607Y6493D01*
X9610Y6493D01*
Y6480D01*
X9607Y6479D01*
X9601Y6478D01*
X9590Y6470D01*
X9582Y6459D01*
X9579Y6445D01*
X9582Y6431D01*
X9590Y6420D01*
X9601Y6412D01*
X9615Y6409D01*
X9629Y6412D01*
X9640Y6420D01*
X9648Y6431D01*
X9651Y6445D01*
X9648Y6459D01*
X9640Y6470D01*
X9629Y6478D01*
X9623Y6479D01*
X9620Y6480D01*
Y6493D01*
X9623Y6493D01*
X9629Y6495D01*
X9640Y6502D01*
X9648Y6514D01*
X9651Y6528D01*
X9648Y6541D01*
X9640Y6553D01*
X9629Y6560D01*
X9615Y6563D01*
D02*
G37*
G36*
X17282Y6480D02*
X17268Y6477D01*
X17255Y6469D01*
X17247Y6457D01*
X17244Y6442D01*
X17247Y6427D01*
X17255Y6415D01*
X17268Y6407D01*
X17282Y6404D01*
X17297Y6407D01*
X17310Y6415D01*
X17318Y6427D01*
X17321Y6442D01*
X17318Y6457D01*
X17310Y6469D01*
X17297Y6477D01*
X17282Y6480D01*
D02*
G37*
G36*
X10875Y6443D02*
X10861Y6440D01*
X10850Y6433D01*
X10842Y6421D01*
X10839Y6407D01*
X10842Y6394D01*
X10850Y6382D01*
X10861Y6375D01*
X10875Y6372D01*
X10889Y6375D01*
X10900Y6382D01*
X10908Y6394D01*
X10911Y6407D01*
X10908Y6421D01*
X10900Y6433D01*
X10889Y6440D01*
X10875Y6443D01*
D02*
G37*
G36*
X10618Y6436D02*
X10604Y6433D01*
X10592Y6425D01*
X10585Y6414D01*
X10582Y6400D01*
X10585Y6386D01*
X10592Y6375D01*
X10604Y6367D01*
X10618Y6364D01*
X10631Y6367D01*
X10643Y6375D01*
X10650Y6386D01*
X10653Y6400D01*
X10650Y6414D01*
X10643Y6425D01*
X10631Y6433D01*
X10618Y6436D01*
D02*
G37*
G36*
X11425Y6438D02*
X11410Y6435D01*
X11398Y6427D01*
X11390Y6415D01*
X11387Y6400D01*
X11390Y6385D01*
X11398Y6373D01*
X11410Y6365D01*
X11425Y6362D01*
X11440Y6365D01*
X11452Y6373D01*
X11460Y6385D01*
X11463Y6400D01*
X11460Y6415D01*
X11452Y6427D01*
X11440Y6435D01*
X11425Y6438D01*
D02*
G37*
G36*
X16125Y6418D02*
X16110Y6415D01*
X16098Y6407D01*
X16090Y6395D01*
X16087Y6380D01*
X16090Y6365D01*
X16098Y6353D01*
X16110Y6345D01*
X16125Y6342D01*
X16140Y6345D01*
X16152Y6353D01*
X16160Y6365D01*
X16163Y6380D01*
X16160Y6395D01*
X16152Y6407D01*
X16140Y6415D01*
X16125Y6418D01*
D02*
G37*
G36*
X13852Y6256D02*
X13831Y6252D01*
X13813Y6240D01*
X13801Y6221D01*
X13796Y6200D01*
X13801Y6179D01*
X13813Y6160D01*
X13831Y6148D01*
X13852Y6144D01*
X13874Y6148D01*
X13892Y6160D01*
X13904Y6179D01*
X13909Y6200D01*
X13904Y6221D01*
X13892Y6240D01*
X13874Y6252D01*
X13852Y6256D01*
D02*
G37*
G36*
X13700D02*
X13679Y6252D01*
X13660Y6240D01*
X13648Y6221D01*
X13644Y6200D01*
X13648Y6179D01*
X13660Y6160D01*
X13679Y6148D01*
X13700Y6144D01*
X13721Y6148D01*
X13740Y6160D01*
X13752Y6179D01*
X13756Y6200D01*
X13752Y6221D01*
X13740Y6240D01*
X13721Y6252D01*
X13700Y6256D01*
D02*
G37*
G36*
X13550D02*
X13529Y6252D01*
X13510Y6240D01*
X13498Y6221D01*
X13494Y6200D01*
X13498Y6179D01*
X13510Y6160D01*
X13529Y6148D01*
X13550Y6144D01*
X13571Y6148D01*
X13590Y6160D01*
X13602Y6179D01*
X13606Y6200D01*
X13602Y6221D01*
X13590Y6240D01*
X13571Y6252D01*
X13550Y6256D01*
D02*
G37*
G36*
X13375D02*
X13354Y6252D01*
X13335Y6240D01*
X13323Y6221D01*
X13319Y6200D01*
X13323Y6179D01*
X13335Y6160D01*
X13354Y6148D01*
X13375Y6144D01*
X13396Y6148D01*
X13415Y6160D01*
X13427Y6179D01*
X13431Y6200D01*
X13427Y6221D01*
X13415Y6240D01*
X13396Y6252D01*
X13375Y6256D01*
D02*
G37*
G36*
X13225D02*
X13204Y6252D01*
X13185Y6240D01*
X13173Y6221D01*
X13169Y6200D01*
X13173Y6179D01*
X13185Y6160D01*
X13204Y6148D01*
X13225Y6144D01*
X13246Y6148D01*
X13265Y6160D01*
X13277Y6179D01*
X13281Y6200D01*
X13277Y6221D01*
X13265Y6240D01*
X13246Y6252D01*
X13225Y6256D01*
D02*
G37*
G36*
X13075D02*
X13054Y6252D01*
X13035Y6240D01*
X13023Y6221D01*
X13019Y6200D01*
X13023Y6179D01*
X13035Y6160D01*
X13054Y6148D01*
X13075Y6144D01*
X13096Y6148D01*
X13115Y6160D01*
X13127Y6179D01*
X13131Y6200D01*
X13127Y6221D01*
X13115Y6240D01*
X13096Y6252D01*
X13075Y6256D01*
D02*
G37*
G36*
X11425Y6213D02*
X11410Y6210D01*
X11398Y6202D01*
X11390Y6190D01*
X11387Y6175D01*
X11390Y6160D01*
X11398Y6148D01*
X11410Y6140D01*
X11425Y6137D01*
X11440Y6140D01*
X11452Y6148D01*
X11460Y6160D01*
X11463Y6175D01*
X11460Y6190D01*
X11452Y6202D01*
X11440Y6210D01*
X11425Y6213D01*
D02*
G37*
G36*
X9425Y6188D02*
X9410Y6185D01*
X9398Y6177D01*
X9390Y6165D01*
X9387Y6150D01*
X9390Y6135D01*
X9398Y6123D01*
X9410Y6115D01*
X9425Y6112D01*
X9440Y6115D01*
X9452Y6123D01*
X9460Y6135D01*
X9463Y6150D01*
X9460Y6165D01*
X9452Y6177D01*
X9440Y6185D01*
X9425Y6188D01*
D02*
G37*
G36*
X11225Y6138D02*
X11210Y6135D01*
X11198Y6127D01*
X11190Y6115D01*
X11187Y6100D01*
X11190Y6085D01*
X11198Y6073D01*
X11210Y6065D01*
X11225Y6062D01*
X11240Y6065D01*
X11252Y6073D01*
X11260Y6085D01*
X11263Y6100D01*
X11260Y6115D01*
X11252Y6127D01*
X11240Y6135D01*
X11225Y6138D01*
D02*
G37*
G36*
X16550Y6131D02*
X16529Y6127D01*
X16510Y6115D01*
X16498Y6096D01*
X16494Y6075D01*
X16498Y6054D01*
X16510Y6035D01*
X16529Y6023D01*
X16550Y6019D01*
X16571Y6023D01*
X16590Y6035D01*
X16602Y6054D01*
X16606Y6075D01*
X16602Y6096D01*
X16590Y6115D01*
X16571Y6127D01*
X16550Y6131D01*
D02*
G37*
G36*
X16350D02*
X16329Y6127D01*
X16310Y6115D01*
X16298Y6096D01*
X16294Y6075D01*
X16298Y6054D01*
X16310Y6035D01*
X16329Y6023D01*
X16350Y6019D01*
X16371Y6023D01*
X16390Y6035D01*
X16402Y6054D01*
X16406Y6075D01*
X16402Y6096D01*
X16390Y6115D01*
X16371Y6127D01*
X16350Y6131D01*
D02*
G37*
G36*
X16150D02*
X16129Y6127D01*
X16110Y6115D01*
X16098Y6096D01*
X16094Y6075D01*
X16098Y6054D01*
X16110Y6035D01*
X16129Y6023D01*
X16150Y6019D01*
X16171Y6023D01*
X16190Y6035D01*
X16202Y6054D01*
X16206Y6075D01*
X16202Y6096D01*
X16190Y6115D01*
X16171Y6127D01*
X16150Y6131D01*
D02*
G37*
G36*
X12005Y6076D02*
X11990Y6073D01*
X11978Y6065D01*
X11970Y6052D01*
X11967Y6038D01*
X11970Y6023D01*
X11978Y6010D01*
X11990Y6002D01*
X12005Y5999D01*
X12020Y6002D01*
X12032Y6010D01*
X12040Y6023D01*
X12043Y6038D01*
X12040Y6052D01*
X12032Y6065D01*
X12020Y6073D01*
X12005Y6076D01*
D02*
G37*
G36*
X13850Y6106D02*
X13829Y6102D01*
X13810Y6090D01*
X13798Y6071D01*
X13794Y6050D01*
X13798Y6029D01*
X13810Y6010D01*
X13829Y5998D01*
X13850Y5994D01*
X13871Y5998D01*
X13890Y6010D01*
X13902Y6029D01*
X13906Y6050D01*
X13902Y6071D01*
X13890Y6090D01*
X13871Y6102D01*
X13850Y6106D01*
D02*
G37*
G36*
X13700D02*
X13679Y6102D01*
X13660Y6090D01*
X13648Y6071D01*
X13644Y6050D01*
X13648Y6029D01*
X13660Y6010D01*
X13679Y5998D01*
X13700Y5994D01*
X13721Y5998D01*
X13740Y6010D01*
X13752Y6029D01*
X13756Y6050D01*
X13752Y6071D01*
X13740Y6090D01*
X13721Y6102D01*
X13700Y6106D01*
D02*
G37*
G36*
X13550D02*
X13529Y6102D01*
X13510Y6090D01*
X13498Y6071D01*
X13494Y6050D01*
X13498Y6029D01*
X13510Y6010D01*
X13529Y5998D01*
X13550Y5994D01*
X13571Y5998D01*
X13590Y6010D01*
X13602Y6029D01*
X13606Y6050D01*
X13602Y6071D01*
X13590Y6090D01*
X13571Y6102D01*
X13550Y6106D01*
D02*
G37*
G36*
X13375D02*
X13354Y6102D01*
X13335Y6090D01*
X13323Y6071D01*
X13319Y6050D01*
X13323Y6029D01*
X13335Y6010D01*
X13354Y5998D01*
X13375Y5994D01*
X13396Y5998D01*
X13415Y6010D01*
X13427Y6029D01*
X13431Y6050D01*
X13427Y6071D01*
X13415Y6090D01*
X13396Y6102D01*
X13375Y6106D01*
D02*
G37*
G36*
X13225D02*
X13204Y6102D01*
X13185Y6090D01*
X13173Y6071D01*
X13169Y6050D01*
X13173Y6029D01*
X13185Y6010D01*
X13204Y5998D01*
X13225Y5994D01*
X13246Y5998D01*
X13265Y6010D01*
X13277Y6029D01*
X13281Y6050D01*
X13277Y6071D01*
X13265Y6090D01*
X13246Y6102D01*
X13225Y6106D01*
D02*
G37*
G36*
X13075D02*
X13054Y6102D01*
X13035Y6090D01*
X13023Y6071D01*
X13019Y6050D01*
X13023Y6029D01*
X13035Y6010D01*
X13054Y5998D01*
X13075Y5994D01*
X13096Y5998D01*
X13115Y6010D01*
X13127Y6029D01*
X13131Y6050D01*
X13127Y6071D01*
X13115Y6090D01*
X13096Y6102D01*
X13075Y6106D01*
D02*
G37*
G36*
X12925D02*
X12904Y6102D01*
X12885Y6090D01*
X12873Y6071D01*
X12869Y6050D01*
X12873Y6029D01*
X12885Y6010D01*
X12904Y5998D01*
X12925Y5994D01*
X12946Y5998D01*
X12965Y6010D01*
X12977Y6029D01*
X12981Y6050D01*
X12977Y6071D01*
X12965Y6090D01*
X12946Y6102D01*
X12925Y6106D01*
D02*
G37*
G36*
X11707Y6089D02*
X11653D01*
X11641Y6084D01*
X11636Y6072D01*
Y5903D01*
X11641Y5891D01*
X11653Y5886D01*
X11707D01*
X11719Y5891D01*
X11724Y5903D01*
Y6072D01*
X11719Y6084D01*
X11707Y6089D01*
D02*
G37*
G36*
X9132Y6089D02*
X9078D01*
X9066Y6084D01*
X9061Y6072D01*
Y5903D01*
X9066Y5891D01*
X9078Y5886D01*
X9132D01*
X9144Y5891D01*
X9149Y5903D01*
Y6072D01*
X9144Y6084D01*
X9132Y6089D01*
D02*
G37*
G36*
X12295Y6062D02*
X12271Y6059D01*
X12248Y6049D01*
X12228Y6034D01*
X12213Y6015D01*
X12204Y5992D01*
X12201Y5967D01*
X12204Y5943D01*
X12213Y5920D01*
X12228Y5901D01*
X12248Y5886D01*
X12271Y5876D01*
X12295Y5873D01*
X12319Y5876D01*
X12342Y5886D01*
X12362Y5901D01*
X12377Y5920D01*
X12386Y5943D01*
X12389Y5967D01*
X12386Y5992D01*
X12377Y6015D01*
X12362Y6034D01*
X12342Y6049D01*
X12319Y6059D01*
X12295Y6062D01*
D02*
G37*
G36*
X16350Y5981D02*
X16329Y5977D01*
X16310Y5965D01*
X16298Y5946D01*
X16294Y5925D01*
X16298Y5904D01*
X16310Y5885D01*
X16329Y5873D01*
X16350Y5869D01*
X16371Y5873D01*
X16390Y5885D01*
X16402Y5904D01*
X16406Y5925D01*
X16402Y5946D01*
X16390Y5965D01*
X16371Y5977D01*
X16350Y5981D01*
D02*
G37*
G36*
X16150D02*
X16129Y5977D01*
X16110Y5965D01*
X16098Y5946D01*
X16094Y5925D01*
X16098Y5904D01*
X16110Y5885D01*
X16129Y5873D01*
X16150Y5869D01*
X16171Y5873D01*
X16190Y5885D01*
X16202Y5904D01*
X16206Y5925D01*
X16202Y5946D01*
X16190Y5965D01*
X16171Y5977D01*
X16150Y5981D01*
D02*
G37*
G36*
X8497Y6056D02*
X8473Y6053D01*
X8450Y6043D01*
X8431Y6028D01*
X8416Y6009D01*
X8406Y5986D01*
X8403Y5962D01*
X8406Y5937D01*
X8416Y5914D01*
X8431Y5895D01*
X8450Y5880D01*
X8473Y5870D01*
X8497Y5867D01*
X8522Y5870D01*
X8545Y5880D01*
X8564Y5895D01*
X8579Y5914D01*
X8589Y5937D01*
X8592Y5962D01*
X8589Y5986D01*
X8579Y6009D01*
X8564Y6028D01*
X8545Y6043D01*
X8522Y6053D01*
X8497Y6056D01*
D02*
G37*
G36*
X13850Y5931D02*
X13829Y5927D01*
X13810Y5915D01*
X13798Y5896D01*
X13794Y5875D01*
X13798Y5854D01*
X13810Y5835D01*
X13829Y5823D01*
X13850Y5819D01*
X13871Y5823D01*
X13890Y5835D01*
X13902Y5854D01*
X13906Y5875D01*
X13902Y5896D01*
X13890Y5915D01*
X13871Y5927D01*
X13850Y5931D01*
D02*
G37*
G36*
X13700D02*
X13679Y5927D01*
X13660Y5915D01*
X13648Y5896D01*
X13644Y5875D01*
X13648Y5854D01*
X13660Y5835D01*
X13679Y5823D01*
X13700Y5819D01*
X13721Y5823D01*
X13740Y5835D01*
X13752Y5854D01*
X13756Y5875D01*
X13752Y5896D01*
X13740Y5915D01*
X13721Y5927D01*
X13700Y5931D01*
D02*
G37*
G36*
X13550D02*
X13529Y5927D01*
X13510Y5915D01*
X13498Y5896D01*
X13494Y5875D01*
X13498Y5854D01*
X13510Y5835D01*
X13529Y5823D01*
X13550Y5819D01*
X13571Y5823D01*
X13590Y5835D01*
X13602Y5854D01*
X13606Y5875D01*
X13602Y5896D01*
X13590Y5915D01*
X13571Y5927D01*
X13550Y5931D01*
D02*
G37*
G36*
X13375D02*
X13354Y5927D01*
X13335Y5915D01*
X13323Y5896D01*
X13319Y5875D01*
X13323Y5854D01*
X13335Y5835D01*
X13354Y5823D01*
X13375Y5819D01*
X13396Y5823D01*
X13415Y5835D01*
X13427Y5854D01*
X13431Y5875D01*
X13427Y5896D01*
X13415Y5915D01*
X13396Y5927D01*
X13375Y5931D01*
D02*
G37*
G36*
X13225D02*
X13204Y5927D01*
X13185Y5915D01*
X13173Y5896D01*
X13169Y5875D01*
X13173Y5854D01*
X13185Y5835D01*
X13204Y5823D01*
X13225Y5819D01*
X13246Y5823D01*
X13265Y5835D01*
X13277Y5854D01*
X13281Y5875D01*
X13277Y5896D01*
X13265Y5915D01*
X13246Y5927D01*
X13225Y5931D01*
D02*
G37*
G36*
X13075D02*
X13054Y5927D01*
X13035Y5915D01*
X13023Y5896D01*
X13019Y5875D01*
X13023Y5854D01*
X13035Y5835D01*
X13054Y5823D01*
X13075Y5819D01*
X13096Y5823D01*
X13115Y5835D01*
X13127Y5854D01*
X13131Y5875D01*
X13127Y5896D01*
X13115Y5915D01*
X13096Y5927D01*
X13075Y5931D01*
D02*
G37*
G36*
X12925D02*
X12904Y5927D01*
X12885Y5915D01*
X12873Y5896D01*
X12869Y5875D01*
X12873Y5854D01*
X12885Y5835D01*
X12904Y5823D01*
X12925Y5819D01*
X12946Y5823D01*
X12965Y5835D01*
X12977Y5854D01*
X12981Y5875D01*
X12977Y5896D01*
X12965Y5915D01*
X12946Y5927D01*
X12925Y5931D01*
D02*
G37*
G36*
X8225Y5798D02*
X8210Y5795D01*
X8198Y5787D01*
X8190Y5775D01*
X8187Y5760D01*
X8190Y5745D01*
X8198Y5733D01*
X8210Y5725D01*
X8225Y5722D01*
X8240Y5725D01*
X8252Y5733D01*
X8260Y5745D01*
X8263Y5760D01*
X8260Y5775D01*
X8252Y5787D01*
X8240Y5795D01*
X8225Y5798D01*
D02*
G37*
G36*
X16550Y5831D02*
X16529Y5827D01*
X16510Y5815D01*
X16498Y5796D01*
X16494Y5775D01*
X16498Y5754D01*
X16510Y5735D01*
X16529Y5723D01*
X16550Y5719D01*
X16571Y5723D01*
X16590Y5735D01*
X16602Y5754D01*
X16606Y5775D01*
X16602Y5796D01*
X16590Y5815D01*
X16571Y5827D01*
X16550Y5831D01*
D02*
G37*
G36*
X16350D02*
X16329Y5827D01*
X16310Y5815D01*
X16298Y5796D01*
X16294Y5775D01*
X16298Y5754D01*
X16310Y5735D01*
X16329Y5723D01*
X16350Y5719D01*
X16371Y5723D01*
X16390Y5735D01*
X16402Y5754D01*
X16406Y5775D01*
X16402Y5796D01*
X16390Y5815D01*
X16371Y5827D01*
X16350Y5831D01*
D02*
G37*
G36*
X16150D02*
X16129Y5827D01*
X16110Y5815D01*
X16098Y5796D01*
X16094Y5775D01*
X16098Y5754D01*
X16110Y5735D01*
X16129Y5723D01*
X16150Y5719D01*
X16171Y5723D01*
X16190Y5735D01*
X16202Y5754D01*
X16206Y5775D01*
X16202Y5796D01*
X16190Y5815D01*
X16171Y5827D01*
X16150Y5831D01*
D02*
G37*
G36*
X13850Y5756D02*
X13829Y5752D01*
X13810Y5740D01*
X13798Y5721D01*
X13794Y5700D01*
X13798Y5679D01*
X13810Y5660D01*
X13829Y5648D01*
X13850Y5644D01*
X13871Y5648D01*
X13890Y5660D01*
X13902Y5679D01*
X13906Y5700D01*
X13902Y5721D01*
X13890Y5740D01*
X13871Y5752D01*
X13850Y5756D01*
D02*
G37*
G36*
X13700D02*
X13679Y5752D01*
X13660Y5740D01*
X13648Y5721D01*
X13644Y5700D01*
X13648Y5679D01*
X13660Y5660D01*
X13679Y5648D01*
X13700Y5644D01*
X13721Y5648D01*
X13740Y5660D01*
X13752Y5679D01*
X13756Y5700D01*
X13752Y5721D01*
X13740Y5740D01*
X13721Y5752D01*
X13700Y5756D01*
D02*
G37*
G36*
X13550D02*
X13529Y5752D01*
X13510Y5740D01*
X13498Y5721D01*
X13494Y5700D01*
X13498Y5679D01*
X13510Y5660D01*
X13529Y5648D01*
X13550Y5644D01*
X13571Y5648D01*
X13590Y5660D01*
X13602Y5679D01*
X13606Y5700D01*
X13602Y5721D01*
X13590Y5740D01*
X13571Y5752D01*
X13550Y5756D01*
D02*
G37*
G36*
X13375D02*
X13354Y5752D01*
X13335Y5740D01*
X13323Y5721D01*
X13319Y5700D01*
X13323Y5679D01*
X13335Y5660D01*
X13354Y5648D01*
X13375Y5644D01*
X13396Y5648D01*
X13415Y5660D01*
X13427Y5679D01*
X13431Y5700D01*
X13427Y5721D01*
X13415Y5740D01*
X13396Y5752D01*
X13375Y5756D01*
D02*
G37*
G36*
X13225D02*
X13204Y5752D01*
X13185Y5740D01*
X13173Y5721D01*
X13169Y5700D01*
X13173Y5679D01*
X13185Y5660D01*
X13204Y5648D01*
X13225Y5644D01*
X13246Y5648D01*
X13265Y5660D01*
X13277Y5679D01*
X13281Y5700D01*
X13277Y5721D01*
X13265Y5740D01*
X13246Y5752D01*
X13225Y5756D01*
D02*
G37*
G36*
X13075D02*
X13054Y5752D01*
X13035Y5740D01*
X13023Y5721D01*
X13019Y5700D01*
X13023Y5679D01*
X13035Y5660D01*
X13054Y5648D01*
X13075Y5644D01*
X13096Y5648D01*
X13115Y5660D01*
X13127Y5679D01*
X13131Y5700D01*
X13127Y5721D01*
X13115Y5740D01*
X13096Y5752D01*
X13075Y5756D01*
D02*
G37*
G36*
X12925D02*
X12904Y5752D01*
X12885Y5740D01*
X12873Y5721D01*
X12869Y5700D01*
X12873Y5679D01*
X12885Y5660D01*
X12904Y5648D01*
X12925Y5644D01*
X12946Y5648D01*
X12965Y5660D01*
X12977Y5679D01*
X12981Y5700D01*
X12977Y5721D01*
X12965Y5740D01*
X12946Y5752D01*
X12925Y5756D01*
D02*
G37*
G36*
X17280Y5720D02*
X17265Y5717D01*
X17253Y5709D01*
X17245Y5697D01*
X17242Y5682D01*
X17245Y5667D01*
X17253Y5655D01*
X17265Y5647D01*
X17280Y5644D01*
X17295Y5647D01*
X17307Y5655D01*
X17315Y5667D01*
X17318Y5682D01*
X17315Y5697D01*
X17307Y5709D01*
X17295Y5717D01*
X17280Y5720D01*
D02*
G37*
G36*
X12389Y5807D02*
X12201D01*
Y5620D01*
X12389D01*
Y5807D01*
D02*
G37*
G36*
X8591Y5801D02*
X8404D01*
Y5614D01*
X8591D01*
Y5801D01*
D02*
G37*
G36*
X16500Y5706D02*
X16479Y5702D01*
X16460Y5690D01*
X16448Y5671D01*
X16444Y5650D01*
X16448Y5629D01*
X16460Y5610D01*
X16479Y5598D01*
X16500Y5594D01*
X16521Y5598D01*
X16540Y5610D01*
X16552Y5629D01*
X16556Y5650D01*
X16552Y5671D01*
X16540Y5690D01*
X16521Y5702D01*
X16500Y5706D01*
D02*
G37*
G36*
X16350Y5681D02*
X16329Y5677D01*
X16310Y5665D01*
X16298Y5646D01*
X16294Y5625D01*
X16298Y5604D01*
X16310Y5585D01*
X16329Y5573D01*
X16350Y5569D01*
X16371Y5573D01*
X16390Y5585D01*
X16402Y5604D01*
X16406Y5625D01*
X16402Y5646D01*
X16390Y5665D01*
X16371Y5677D01*
X16350Y5681D01*
D02*
G37*
G36*
X16150D02*
X16129Y5677D01*
X16110Y5665D01*
X16098Y5646D01*
X16094Y5625D01*
X16098Y5604D01*
X16110Y5585D01*
X16129Y5573D01*
X16150Y5569D01*
X16171Y5573D01*
X16190Y5585D01*
X16202Y5604D01*
X16206Y5625D01*
X16202Y5646D01*
X16190Y5665D01*
X16171Y5677D01*
X16150Y5681D01*
D02*
G37*
G36*
X20182Y13373D02*
X20168Y13370D01*
X20155Y13362D01*
X20147Y13350D01*
X20144Y13335D01*
X20147Y13320D01*
X20155Y13308D01*
X20168Y13300D01*
X20182Y13297D01*
X20197Y13300D01*
X20210Y13308D01*
X20218Y13320D01*
X20221Y13335D01*
X20218Y13350D01*
X20210Y13362D01*
X20197Y13370D01*
X20182Y13373D01*
D02*
G37*
G36*
X22152Y13366D02*
X22138Y13363D01*
X22125Y13355D01*
X22117Y13342D01*
X22114Y13327D01*
X22117Y13313D01*
X22125Y13300D01*
X22138Y13292D01*
X22152Y13289D01*
X22167Y13292D01*
X22180Y13300D01*
X22188Y13313D01*
X22191Y13327D01*
X22188Y13342D01*
X22180Y13355D01*
X22167Y13363D01*
X22152Y13366D01*
D02*
G37*
G36*
X20195Y13238D02*
X20180Y13235D01*
X20168Y13227D01*
X20160Y13215D01*
X20157Y13200D01*
X20160Y13185D01*
X20168Y13173D01*
X20180Y13165D01*
X20195Y13162D01*
X20210Y13165D01*
X20222Y13173D01*
X20230Y13185D01*
X20233Y13200D01*
X20230Y13215D01*
X20222Y13227D01*
X20210Y13235D01*
X20195Y13238D01*
D02*
G37*
G36*
X22198Y13223D02*
X22183Y13220D01*
X22170Y13212D01*
X22162Y13200D01*
X22159Y13185D01*
X22162Y13170D01*
X22170Y13158D01*
X22183Y13150D01*
X22198Y13147D01*
X22212Y13150D01*
X22225Y13158D01*
X22233Y13170D01*
X22236Y13185D01*
X22233Y13200D01*
X22225Y13212D01*
X22212Y13220D01*
X22198Y13223D01*
D02*
G37*
G36*
X19852Y13123D02*
X19838Y13120D01*
X19825Y13112D01*
X19817Y13100D01*
X19814Y13085D01*
X19817Y13070D01*
X19825Y13058D01*
X19838Y13050D01*
X19852Y13047D01*
X19867Y13050D01*
X19879Y13058D01*
X19888Y13070D01*
X19891Y13085D01*
X19888Y13100D01*
X19879Y13112D01*
X19867Y13120D01*
X19852Y13123D01*
D02*
G37*
G36*
X21835Y13118D02*
X21820Y13116D01*
X21808Y13107D01*
X21799Y13095D01*
X21796Y13080D01*
X21799Y13066D01*
X21808Y13053D01*
X21820Y13045D01*
X21835Y13042D01*
X21849Y13045D01*
X21862Y13053D01*
X21870Y13066D01*
X21873Y13080D01*
X21870Y13095D01*
X21862Y13107D01*
X21849Y13116D01*
X21835Y13118D01*
D02*
G37*
G36*
X23223Y13011D02*
X23208Y13008D01*
X23195Y13000D01*
X23187Y12987D01*
X23184Y12973D01*
X23187Y12958D01*
X23195Y12945D01*
X23208Y12937D01*
X23223Y12934D01*
X23237Y12937D01*
X23250Y12945D01*
X23258Y12958D01*
X23261Y12973D01*
X23258Y12987D01*
X23250Y13000D01*
X23237Y13008D01*
X23223Y13011D01*
D02*
G37*
G36*
X19927Y12673D02*
X19913Y12670D01*
X19900Y12662D01*
X19892Y12650D01*
X19889Y12635D01*
X19892Y12620D01*
X19900Y12608D01*
X19913Y12600D01*
X19927Y12597D01*
X19942Y12600D01*
X19954Y12608D01*
X19963Y12620D01*
X19966Y12635D01*
X19963Y12650D01*
X19954Y12662D01*
X19942Y12670D01*
X19927Y12673D01*
D02*
G37*
G36*
X21907Y12658D02*
X21892Y12656D01*
X21880Y12647D01*
X21872Y12635D01*
X21869Y12620D01*
X21872Y12606D01*
X21880Y12593D01*
X21892Y12585D01*
X21907Y12582D01*
X21922Y12585D01*
X21934Y12593D01*
X21942Y12606D01*
X21945Y12620D01*
X21942Y12635D01*
X21934Y12647D01*
X21922Y12656D01*
X21907Y12658D01*
D02*
G37*
G36*
X23090Y12631D02*
X23075Y12628D01*
X23063Y12620D01*
X23055Y12607D01*
X23052Y12593D01*
X23055Y12578D01*
X23063Y12565D01*
X23075Y12557D01*
X23090Y12554D01*
X23105Y12557D01*
X23117Y12565D01*
X23125Y12578D01*
X23128Y12593D01*
X23125Y12607D01*
X23117Y12620D01*
X23105Y12628D01*
X23090Y12631D01*
D02*
G37*
G36*
X19977Y12573D02*
X19963Y12570D01*
X19950Y12562D01*
X19942Y12550D01*
X19939Y12535D01*
X19942Y12520D01*
X19950Y12508D01*
X19963Y12500D01*
X19977Y12497D01*
X19992Y12500D01*
X20004Y12508D01*
X20013Y12520D01*
X20016Y12535D01*
X20013Y12550D01*
X20004Y12562D01*
X19992Y12570D01*
X19977Y12573D01*
D02*
G37*
G36*
X23157Y12558D02*
X23143Y12555D01*
X23130Y12547D01*
X23122Y12535D01*
X23119Y12520D01*
X23122Y12505D01*
X23130Y12493D01*
X23143Y12485D01*
X23157Y12482D01*
X23172Y12485D01*
X23185Y12493D01*
X23193Y12505D01*
X23196Y12520D01*
X23193Y12535D01*
X23185Y12547D01*
X23172Y12555D01*
X23157Y12558D01*
D02*
G37*
G36*
X22007Y12533D02*
X21992Y12531D01*
X21980Y12522D01*
X21972Y12510D01*
X21969Y12495D01*
X21972Y12481D01*
X21980Y12468D01*
X21992Y12460D01*
X22007Y12457D01*
X22022Y12460D01*
X22034Y12468D01*
X22042Y12481D01*
X22045Y12495D01*
X22042Y12510D01*
X22034Y12522D01*
X22022Y12531D01*
X22007Y12533D01*
D02*
G37*
G36*
X23330Y12526D02*
X23315Y12523D01*
X23303Y12515D01*
X23295Y12502D01*
X23292Y12488D01*
X23295Y12473D01*
X23303Y12460D01*
X23315Y12452D01*
X23330Y12449D01*
X23345Y12452D01*
X23357Y12460D01*
X23365Y12473D01*
X23368Y12488D01*
X23365Y12502D01*
X23357Y12515D01*
X23345Y12523D01*
X23330Y12526D01*
D02*
G37*
G36*
X19702Y12523D02*
X19688Y12520D01*
X19675Y12512D01*
X19667Y12500D01*
X19664Y12485D01*
X19667Y12470D01*
X19675Y12458D01*
X19688Y12450D01*
X19702Y12447D01*
X19717Y12450D01*
X19729Y12458D01*
X19738Y12470D01*
X19741Y12485D01*
X19738Y12500D01*
X19729Y12512D01*
X19717Y12520D01*
X19702Y12523D01*
D02*
G37*
G36*
X19530Y12396D02*
X19515Y12393D01*
X19503Y12385D01*
X19495Y12372D01*
X19492Y12357D01*
X19495Y12343D01*
X19503Y12330D01*
X19515Y12322D01*
X19530Y12319D01*
X19545Y12322D01*
X19557Y12330D01*
X19565Y12343D01*
X19568Y12357D01*
X19565Y12372D01*
X19557Y12385D01*
X19545Y12393D01*
X19530Y12396D01*
D02*
G37*
G36*
X21490Y12383D02*
X21475Y12380D01*
X21463Y12372D01*
X21455Y12360D01*
X21452Y12345D01*
X21455Y12330D01*
X21463Y12318D01*
X21475Y12310D01*
X21490Y12307D01*
X21505Y12310D01*
X21517Y12318D01*
X21525Y12330D01*
X21528Y12345D01*
X21525Y12360D01*
X21517Y12372D01*
X21505Y12380D01*
X21490Y12383D01*
D02*
G37*
G36*
X20352Y12373D02*
X20338Y12370D01*
X20325Y12362D01*
X20317Y12350D01*
X20314Y12335D01*
X20317Y12320D01*
X20325Y12308D01*
X20338Y12300D01*
X20352Y12297D01*
X20367Y12300D01*
X20379Y12308D01*
X20388Y12320D01*
X20391Y12335D01*
X20388Y12350D01*
X20379Y12362D01*
X20367Y12370D01*
X20352Y12373D01*
D02*
G37*
G36*
X22412Y12351D02*
X22397Y12348D01*
X22385Y12340D01*
X22377Y12327D01*
X22374Y12313D01*
X22377Y12298D01*
X22385Y12286D01*
X22397Y12277D01*
X22412Y12274D01*
X22427Y12277D01*
X22439Y12286D01*
X22447Y12298D01*
X22450Y12313D01*
X22447Y12327D01*
X22439Y12340D01*
X22427Y12348D01*
X22412Y12351D01*
D02*
G37*
G36*
X19440Y12311D02*
X19425Y12308D01*
X19413Y12300D01*
X19405Y12287D01*
X19402Y12272D01*
X19405Y12258D01*
X19413Y12245D01*
X19425Y12237D01*
X19440Y12234D01*
X19455Y12237D01*
X19467Y12245D01*
X19475Y12258D01*
X19478Y12272D01*
X19475Y12287D01*
X19467Y12300D01*
X19455Y12308D01*
X19440Y12311D01*
D02*
G37*
G36*
X20273Y12256D02*
X20259Y12253D01*
X20246Y12245D01*
X20238Y12233D01*
X20235Y12218D01*
X20238Y12203D01*
X20246Y12191D01*
X20259Y12183D01*
X20273Y12180D01*
X20288Y12183D01*
X20301Y12191D01*
X20309Y12203D01*
X20312Y12218D01*
X20309Y12233D01*
X20301Y12245D01*
X20288Y12253D01*
X20273Y12256D01*
D02*
G37*
G36*
X19374Y12227D02*
X19359Y12224D01*
X19347Y12215D01*
X19339Y12203D01*
X19336Y12188D01*
X19339Y12174D01*
X19347Y12161D01*
X19359Y12153D01*
X19374Y12150D01*
X19389Y12153D01*
X19401Y12161D01*
X19409Y12174D01*
X19412Y12188D01*
X19409Y12203D01*
X19401Y12215D01*
X19389Y12224D01*
X19374Y12227D01*
D02*
G37*
G36*
X21318Y12253D02*
X21303Y12250D01*
X21290Y12242D01*
X21282Y12230D01*
X21279Y12215D01*
X21282Y12200D01*
X21290Y12188D01*
X21303Y12180D01*
X21318Y12177D01*
X21331Y12179D01*
X21334Y12177D01*
X21337Y12173D01*
X21340Y12169D01*
X21337Y12155D01*
X21340Y12140D01*
X21348Y12128D01*
X21360Y12120D01*
X21375Y12117D01*
X21390Y12120D01*
X21402Y12128D01*
X21410Y12140D01*
X21413Y12155D01*
X21410Y12170D01*
X21402Y12182D01*
X21390Y12190D01*
X21375Y12193D01*
X21362Y12191D01*
X21358Y12193D01*
X21355Y12197D01*
X21353Y12201D01*
X21356Y12215D01*
X21353Y12230D01*
X21345Y12242D01*
X21332Y12250D01*
X21318Y12253D01*
D02*
G37*
G36*
X22342Y12176D02*
X22327Y12173D01*
X22315Y12165D01*
X22307Y12152D01*
X22304Y12138D01*
X22307Y12123D01*
X22315Y12111D01*
X22327Y12102D01*
X22342Y12099D01*
X22357Y12102D01*
X22369Y12111D01*
X22377Y12123D01*
X22380Y12138D01*
X22377Y12152D01*
X22369Y12165D01*
X22357Y12173D01*
X22342Y12176D01*
D02*
G37*
G36*
X21517Y12098D02*
X21502Y12096D01*
X21490Y12087D01*
X21482Y12075D01*
X21479Y12060D01*
X21482Y12046D01*
X21490Y12033D01*
X21502Y12025D01*
X21517Y12022D01*
X21532Y12025D01*
X21544Y12033D01*
X21552Y12046D01*
X21555Y12060D01*
X21552Y12075D01*
X21544Y12087D01*
X21532Y12096D01*
X21517Y12098D01*
D02*
G37*
G36*
X19502Y12098D02*
X19488Y12095D01*
X19475Y12087D01*
X19467Y12075D01*
X19464Y12060D01*
X19467Y12045D01*
X19475Y12033D01*
X19488Y12025D01*
X19502Y12022D01*
X19517Y12025D01*
X19529Y12033D01*
X19538Y12045D01*
X19541Y12060D01*
X19538Y12075D01*
X19529Y12087D01*
X19517Y12095D01*
X19502Y12098D01*
D02*
G37*
G36*
X22277Y11828D02*
X22262Y11826D01*
X22250Y11817D01*
X22242Y11805D01*
X22239Y11790D01*
X22242Y11776D01*
X22250Y11763D01*
X22262Y11755D01*
X22277Y11752D01*
X22292Y11755D01*
X22304Y11763D01*
X22312Y11776D01*
X22315Y11790D01*
X22312Y11805D01*
X22304Y11817D01*
X22292Y11826D01*
X22277Y11828D01*
D02*
G37*
G36*
X21675Y11811D02*
X21660Y11808D01*
X21648Y11800D01*
X21639Y11788D01*
X21636Y11773D01*
X21639Y11758D01*
X21648Y11746D01*
X21660Y11738D01*
X21675Y11735D01*
X21689Y11738D01*
X21702Y11746D01*
X21710Y11758D01*
X21713Y11773D01*
X21710Y11788D01*
X21702Y11800D01*
X21689Y11808D01*
X21675Y11811D01*
D02*
G37*
G36*
X20402Y11798D02*
X20388Y11795D01*
X20375Y11787D01*
X20367Y11775D01*
X20364Y11760D01*
X20367Y11745D01*
X20375Y11733D01*
X20388Y11725D01*
X20402Y11722D01*
X20417Y11725D01*
X20429Y11733D01*
X20438Y11745D01*
X20441Y11760D01*
X20438Y11775D01*
X20429Y11787D01*
X20417Y11795D01*
X20402Y11798D01*
D02*
G37*
G36*
X22632Y11738D02*
X22617Y11736D01*
X22605Y11727D01*
X22597Y11715D01*
X22594Y11700D01*
X22597Y11687D01*
X22596Y11686D01*
X22594Y11683D01*
X22588Y11676D01*
X22577Y11678D01*
X22572Y11677D01*
X22569Y11680D01*
X22563Y11689D01*
X22565Y11700D01*
X22562Y11715D01*
X22554Y11727D01*
X22542Y11736D01*
X22527Y11738D01*
X22512Y11736D01*
X22500Y11727D01*
X22492Y11715D01*
X22489Y11700D01*
X22491Y11689D01*
X22485Y11680D01*
X22482Y11677D01*
X22477Y11678D01*
X22462Y11676D01*
X22450Y11667D01*
X22442Y11655D01*
X22439Y11640D01*
X22442Y11626D01*
X22450Y11613D01*
X22454Y11610D01*
Y11595D01*
X22450Y11592D01*
X22442Y11580D01*
X22439Y11565D01*
X22442Y11551D01*
X22450Y11538D01*
X22462Y11530D01*
X22477Y11527D01*
X22492Y11530D01*
X22504Y11538D01*
X22512Y11551D01*
X22515Y11565D01*
X22512Y11580D01*
X22504Y11592D01*
X22500Y11595D01*
Y11610D01*
X22504Y11613D01*
X22512Y11626D01*
X22515Y11640D01*
X22513Y11652D01*
X22519Y11660D01*
X22522Y11663D01*
X22527Y11662D01*
X22532Y11663D01*
X22535Y11660D01*
X22541Y11652D01*
X22539Y11640D01*
X22542Y11626D01*
X22550Y11613D01*
X22554Y11610D01*
Y11595D01*
X22550Y11592D01*
X22542Y11580D01*
X22539Y11565D01*
X22542Y11551D01*
X22550Y11538D01*
X22562Y11530D01*
X22577Y11527D01*
X22592Y11530D01*
X22604Y11538D01*
X22612Y11551D01*
X22615Y11565D01*
X22612Y11580D01*
X22604Y11592D01*
X22600Y11595D01*
Y11610D01*
X22604Y11613D01*
X22612Y11626D01*
X22615Y11640D01*
X22613Y11654D01*
X22613Y11654D01*
X22615Y11658D01*
X22622Y11664D01*
X22632Y11662D01*
X22647Y11665D01*
X22659Y11673D01*
X22667Y11686D01*
X22670Y11700D01*
X22667Y11715D01*
X22659Y11727D01*
X22647Y11736D01*
X22632Y11738D01*
D02*
G37*
G36*
X22347Y11693D02*
X22332Y11691D01*
X22320Y11682D01*
X22312Y11670D01*
X22309Y11655D01*
X22312Y11641D01*
X22320Y11628D01*
X22332Y11620D01*
X22347Y11617D01*
X22362Y11620D01*
X22374Y11628D01*
X22382Y11641D01*
X22385Y11655D01*
X22382Y11670D01*
X22374Y11682D01*
X22362Y11691D01*
X22347Y11693D01*
D02*
G37*
G36*
X19677Y11673D02*
X19663Y11670D01*
X19650Y11662D01*
X19642Y11650D01*
X19639Y11635D01*
X19642Y11620D01*
X19650Y11608D01*
X19663Y11600D01*
X19677Y11597D01*
X19692Y11600D01*
X19704Y11608D01*
X19713Y11620D01*
X19716Y11635D01*
X19713Y11650D01*
X19704Y11662D01*
X19692Y11670D01*
X19677Y11673D01*
D02*
G37*
G36*
X20702Y11773D02*
X20688Y11770D01*
X20675Y11762D01*
X20667Y11750D01*
X20664Y11735D01*
X20667Y11720D01*
X20675Y11708D01*
X20679Y11705D01*
Y11690D01*
X20675Y11687D01*
X20667Y11675D01*
X20664Y11660D01*
X20667Y11645D01*
X20675Y11633D01*
X20679Y11630D01*
Y11615D01*
X20675Y11612D01*
X20667Y11600D01*
X20664Y11585D01*
X20667Y11570D01*
X20675Y11558D01*
X20688Y11550D01*
X20702Y11547D01*
X20717Y11550D01*
X20729Y11558D01*
X20738Y11570D01*
X20741Y11585D01*
X20738Y11600D01*
X20729Y11612D01*
X20725Y11615D01*
Y11630D01*
X20729Y11633D01*
X20738Y11645D01*
X20741Y11660D01*
X20738Y11675D01*
X20729Y11687D01*
X20725Y11690D01*
Y11705D01*
X20729Y11708D01*
X20738Y11720D01*
X20741Y11735D01*
X20738Y11750D01*
X20729Y11762D01*
X20717Y11770D01*
X20702Y11773D01*
D02*
G37*
G36*
X20602D02*
X20588Y11770D01*
X20575Y11762D01*
X20567Y11750D01*
X20564Y11735D01*
X20567Y11720D01*
X20575Y11708D01*
X20579Y11705D01*
Y11690D01*
X20575Y11687D01*
X20567Y11675D01*
X20564Y11660D01*
X20567Y11645D01*
X20575Y11633D01*
X20579Y11630D01*
Y11615D01*
X20575Y11612D01*
X20567Y11600D01*
X20564Y11585D01*
X20567Y11570D01*
X20575Y11558D01*
X20588Y11550D01*
X20602Y11547D01*
X20617Y11550D01*
X20629Y11558D01*
X20638Y11570D01*
X20641Y11585D01*
X20638Y11600D01*
X20629Y11612D01*
X20625Y11615D01*
Y11630D01*
X20629Y11633D01*
X20638Y11645D01*
X20641Y11660D01*
X20638Y11675D01*
X20629Y11687D01*
X20625Y11690D01*
Y11705D01*
X20629Y11708D01*
X20638Y11720D01*
X20641Y11735D01*
X20638Y11750D01*
X20629Y11762D01*
X20617Y11770D01*
X20602Y11773D01*
D02*
G37*
G36*
X20502D02*
X20488Y11770D01*
X20475Y11762D01*
X20467Y11750D01*
X20464Y11735D01*
X20467Y11720D01*
X20475Y11708D01*
X20479Y11705D01*
Y11690D01*
X20475Y11687D01*
X20467Y11675D01*
X20464Y11660D01*
X20467Y11645D01*
X20475Y11633D01*
X20479Y11630D01*
Y11615D01*
X20475Y11612D01*
X20467Y11600D01*
X20464Y11585D01*
X20467Y11570D01*
X20475Y11558D01*
X20488Y11550D01*
X20502Y11547D01*
X20517Y11550D01*
X20529Y11558D01*
X20538Y11570D01*
X20541Y11585D01*
X20538Y11600D01*
X20529Y11612D01*
X20525Y11615D01*
Y11630D01*
X20529Y11633D01*
X20538Y11645D01*
X20541Y11660D01*
X20538Y11675D01*
X20529Y11687D01*
X20525Y11690D01*
Y11705D01*
X20529Y11708D01*
X20538Y11720D01*
X20541Y11735D01*
X20538Y11750D01*
X20529Y11762D01*
X20517Y11770D01*
X20502Y11773D01*
D02*
G37*
G36*
X19677Y11498D02*
X19663Y11495D01*
X19650Y11487D01*
X19642Y11475D01*
X19639Y11460D01*
X19642Y11445D01*
X19650Y11433D01*
X19663Y11425D01*
X19677Y11422D01*
X19692Y11425D01*
X19704Y11433D01*
X19713Y11445D01*
X19716Y11460D01*
X19713Y11475D01*
X19704Y11487D01*
X19692Y11495D01*
X19677Y11498D01*
D02*
G37*
G36*
X21675Y11473D02*
X21660Y11471D01*
X21648Y11462D01*
X21639Y11450D01*
X21636Y11435D01*
X21639Y11421D01*
X21648Y11408D01*
X21660Y11400D01*
X21675Y11397D01*
X21689Y11400D01*
X21702Y11408D01*
X21710Y11421D01*
X21713Y11435D01*
X21710Y11450D01*
X21702Y11462D01*
X21689Y11471D01*
X21675Y11473D01*
D02*
G37*
G36*
X19320Y11441D02*
X19305Y11438D01*
X19293Y11430D01*
X19284Y11417D01*
X19282Y11403D01*
X19284Y11388D01*
X19293Y11376D01*
X19305Y11367D01*
X19320Y11364D01*
X19334Y11367D01*
X19347Y11376D01*
X19355Y11388D01*
X19358Y11403D01*
X19355Y11417D01*
X19347Y11430D01*
X19334Y11438D01*
X19320Y11441D01*
D02*
G37*
G36*
X21382Y11348D02*
X21367Y11346D01*
X21355Y11337D01*
X21347Y11325D01*
X21344Y11310D01*
X21347Y11296D01*
X21355Y11283D01*
X21367Y11275D01*
X21382Y11272D01*
X21397Y11275D01*
X21409Y11283D01*
X21417Y11296D01*
X21420Y11310D01*
X21417Y11325D01*
X21409Y11337D01*
X21397Y11346D01*
X21382Y11348D01*
D02*
G37*
G36*
X21825Y10738D02*
X21810Y10735D01*
X21798Y10727D01*
X21790Y10715D01*
X21787Y10700D01*
X21790Y10685D01*
X21798Y10673D01*
X21810Y10665D01*
X21825Y10662D01*
X21840Y10665D01*
X21852Y10673D01*
X21860Y10685D01*
X21863Y10700D01*
X21860Y10715D01*
X21852Y10727D01*
X21840Y10735D01*
X21825Y10738D01*
D02*
G37*
G36*
X19825Y10713D02*
X19810Y10710D01*
X19798Y10702D01*
X19790Y10690D01*
X19787Y10675D01*
X19790Y10660D01*
X19798Y10648D01*
X19810Y10640D01*
X19825Y10637D01*
X19840Y10640D01*
X19852Y10648D01*
X19860Y10660D01*
X19863Y10675D01*
X19860Y10690D01*
X19852Y10702D01*
X19840Y10710D01*
X19825Y10713D01*
D02*
G37*
G36*
X21690Y10606D02*
X21675Y10603D01*
X21663Y10595D01*
X21655Y10582D01*
X21652Y10568D01*
X21655Y10553D01*
X21663Y10540D01*
X21675Y10532D01*
X21690Y10529D01*
X21705Y10532D01*
X21717Y10540D01*
X21725Y10553D01*
X21728Y10568D01*
X21725Y10582D01*
X21717Y10595D01*
X21705Y10603D01*
X21690Y10606D01*
D02*
G37*
G36*
X19698Y10581D02*
X19683Y10578D01*
X19670Y10570D01*
X19662Y10557D01*
X19659Y10543D01*
X19662Y10528D01*
X19670Y10515D01*
X19683Y10507D01*
X19698Y10504D01*
X19712Y10507D01*
X19725Y10515D01*
X19733Y10528D01*
X19736Y10543D01*
X19733Y10557D01*
X19725Y10570D01*
X19712Y10578D01*
X19698Y10581D01*
D02*
G37*
G36*
X21825Y10538D02*
X21810Y10535D01*
X21798Y10527D01*
X21790Y10515D01*
X21787Y10500D01*
X21790Y10485D01*
X21798Y10473D01*
X21810Y10465D01*
X21825Y10462D01*
X21840Y10465D01*
X21852Y10473D01*
X21860Y10485D01*
X21863Y10500D01*
X21860Y10515D01*
X21852Y10527D01*
X21840Y10535D01*
X21825Y10538D01*
D02*
G37*
G36*
X19825D02*
X19810Y10535D01*
X19798Y10527D01*
X19790Y10515D01*
X19787Y10500D01*
X19790Y10485D01*
X19798Y10473D01*
X19810Y10465D01*
X19825Y10462D01*
X19840Y10465D01*
X19852Y10473D01*
X19860Y10485D01*
X19863Y10500D01*
X19860Y10515D01*
X19852Y10527D01*
X19840Y10535D01*
X19825Y10538D01*
D02*
G37*
G36*
X21700Y10513D02*
X21685Y10510D01*
X21673Y10502D01*
X21665Y10490D01*
X21662Y10475D01*
X21665Y10460D01*
X21673Y10448D01*
X21685Y10440D01*
X21700Y10437D01*
X21715Y10440D01*
X21727Y10448D01*
X21735Y10460D01*
X21738Y10475D01*
X21735Y10490D01*
X21727Y10502D01*
X21715Y10510D01*
X21700Y10513D01*
D02*
G37*
G36*
X19950Y10488D02*
X19935Y10485D01*
X19923Y10477D01*
X19915Y10465D01*
X19912Y10450D01*
X19915Y10435D01*
X19923Y10423D01*
X19935Y10415D01*
X19950Y10412D01*
X19965Y10415D01*
X19977Y10423D01*
X19985Y10435D01*
X19988Y10450D01*
X19985Y10465D01*
X19977Y10477D01*
X19965Y10485D01*
X19950Y10488D01*
D02*
G37*
G36*
X19700D02*
X19685Y10485D01*
X19673Y10477D01*
X19665Y10465D01*
X19662Y10450D01*
X19665Y10435D01*
X19673Y10423D01*
X19685Y10415D01*
X19700Y10412D01*
X19715Y10415D01*
X19727Y10423D01*
X19735Y10435D01*
X19738Y10450D01*
X19735Y10465D01*
X19727Y10477D01*
X19715Y10485D01*
X19700Y10488D01*
D02*
G37*
G36*
X23100Y10438D02*
X23085Y10435D01*
X23073Y10427D01*
X23065Y10415D01*
X23062Y10400D01*
X23065Y10385D01*
X23073Y10373D01*
X23085Y10365D01*
X23100Y10362D01*
X23115Y10365D01*
X23127Y10373D01*
X23135Y10385D01*
X23138Y10400D01*
X23135Y10415D01*
X23127Y10427D01*
X23115Y10435D01*
X23100Y10438D01*
D02*
G37*
G36*
X21712Y10348D02*
X21697Y10345D01*
X21685Y10337D01*
X21676Y10325D01*
X21673Y10310D01*
X21676Y10295D01*
X21685Y10283D01*
X21697Y10275D01*
X21712Y10272D01*
X21726Y10275D01*
X21739Y10283D01*
X21747Y10295D01*
X21750Y10310D01*
X21747Y10325D01*
X21739Y10337D01*
X21726Y10345D01*
X21712Y10348D01*
D02*
G37*
G36*
X22920Y10333D02*
X22905Y10330D01*
X22893Y10322D01*
X22885Y10310D01*
X22882Y10295D01*
X22885Y10280D01*
X22893Y10268D01*
X22905Y10260D01*
X22920Y10257D01*
X22935Y10260D01*
X22947Y10268D01*
X22955Y10280D01*
X22958Y10295D01*
X22955Y10310D01*
X22947Y10322D01*
X22935Y10330D01*
X22920Y10333D01*
D02*
G37*
G36*
X23200Y10263D02*
X23185Y10260D01*
X23173Y10252D01*
X23165Y10240D01*
X23162Y10225D01*
X23165Y10210D01*
X23173Y10198D01*
X23185Y10190D01*
X23200Y10187D01*
X23215Y10190D01*
X23227Y10198D01*
X23235Y10210D01*
X23238Y10225D01*
X23235Y10240D01*
X23227Y10252D01*
X23215Y10260D01*
X23200Y10263D01*
D02*
G37*
G36*
X23100D02*
X23085Y10260D01*
X23073Y10252D01*
X23065Y10240D01*
X23062Y10225D01*
X23065Y10210D01*
X23073Y10198D01*
X23085Y10190D01*
X23100Y10187D01*
X23115Y10190D01*
X23127Y10198D01*
X23135Y10210D01*
X23138Y10225D01*
X23135Y10240D01*
X23127Y10252D01*
X23115Y10260D01*
X23100Y10263D01*
D02*
G37*
G36*
X22975D02*
X22960Y10260D01*
X22948Y10252D01*
X22940Y10240D01*
X22937Y10225D01*
X22940Y10210D01*
X22948Y10198D01*
X22960Y10190D01*
X22975Y10187D01*
X22990Y10190D01*
X23002Y10198D01*
X23010Y10210D01*
X23013Y10225D01*
X23010Y10240D01*
X23002Y10252D01*
X22990Y10260D01*
X22975Y10263D01*
D02*
G37*
G36*
X23402Y10171D02*
X23388Y10168D01*
X23375Y10160D01*
X23367Y10147D01*
X23364Y10132D01*
X23367Y10118D01*
X23375Y10105D01*
X23388Y10097D01*
X23402Y10094D01*
X23417Y10097D01*
X23430Y10105D01*
X23438Y10118D01*
X23441Y10132D01*
X23438Y10147D01*
X23430Y10160D01*
X23417Y10168D01*
X23402Y10171D01*
D02*
G37*
G36*
X19388Y10108D02*
X19373Y10105D01*
X19360Y10097D01*
X19352Y10085D01*
X19349Y10070D01*
X19352Y10055D01*
X19360Y10043D01*
X19373Y10035D01*
X19388Y10032D01*
X19402Y10035D01*
X19415Y10043D01*
X19423Y10055D01*
X19426Y10070D01*
X19423Y10085D01*
X19415Y10097D01*
X19402Y10105D01*
X19388Y10108D01*
D02*
G37*
G36*
X19540Y10106D02*
X19525Y10103D01*
X19513Y10095D01*
X19505Y10082D01*
X19502Y10068D01*
X19505Y10053D01*
X19513Y10040D01*
X19525Y10032D01*
X19540Y10029D01*
X19555Y10032D01*
X19567Y10040D01*
X19575Y10053D01*
X19578Y10068D01*
X19575Y10082D01*
X19567Y10095D01*
X19555Y10103D01*
X19540Y10106D01*
D02*
G37*
G36*
X21630Y9906D02*
X21615Y9903D01*
X21603Y9895D01*
X21596Y9885D01*
X21587Y9883D01*
X21582Y9883D01*
X21580Y9887D01*
X21567Y9895D01*
X21552Y9898D01*
X21538Y9895D01*
X21525Y9887D01*
X21517Y9875D01*
X21514Y9860D01*
X21517Y9845D01*
X21525Y9833D01*
X21538Y9825D01*
X21552Y9822D01*
X21567Y9825D01*
X21580Y9833D01*
X21586Y9843D01*
X21596Y9845D01*
X21601Y9844D01*
X21603Y9840D01*
X21615Y9832D01*
X21630Y9829D01*
X21645Y9832D01*
X21657Y9840D01*
X21665Y9853D01*
X21668Y9868D01*
X21665Y9882D01*
X21657Y9895D01*
X21645Y9903D01*
X21630Y9906D01*
D02*
G37*
G36*
X19775Y8988D02*
X19760Y8985D01*
X19748Y8977D01*
X19740Y8965D01*
X19737Y8950D01*
X19740Y8935D01*
X19748Y8923D01*
X19760Y8915D01*
X19775Y8912D01*
X19790Y8915D01*
X19802Y8923D01*
X19810Y8935D01*
X19813Y8950D01*
X19810Y8965D01*
X19802Y8977D01*
X19790Y8985D01*
X19775Y8988D01*
D02*
G37*
G36*
X21112Y8983D02*
X21098Y8980D01*
X21085Y8972D01*
X21077Y8960D01*
X21074Y8945D01*
X21077Y8930D01*
X21085Y8918D01*
X21098Y8910D01*
X21112Y8907D01*
X21127Y8910D01*
X21140Y8918D01*
X21148Y8930D01*
X21151Y8945D01*
X21148Y8960D01*
X21140Y8972D01*
X21127Y8980D01*
X21112Y8983D01*
D02*
G37*
G36*
X19775Y8888D02*
X19760Y8885D01*
X19748Y8877D01*
X19740Y8865D01*
X19737Y8850D01*
X19740Y8835D01*
X19748Y8823D01*
X19760Y8815D01*
X19775Y8812D01*
X19790Y8815D01*
X19802Y8823D01*
X19810Y8835D01*
X19813Y8850D01*
X19810Y8865D01*
X19802Y8877D01*
X19790Y8885D01*
X19775Y8888D01*
D02*
G37*
G36*
Y8788D02*
X19760Y8785D01*
X19748Y8777D01*
X19740Y8765D01*
X19737Y8750D01*
X19740Y8735D01*
X19748Y8723D01*
X19760Y8715D01*
X19775Y8712D01*
X19790Y8715D01*
X19802Y8723D01*
X19810Y8735D01*
X19813Y8750D01*
X19810Y8765D01*
X19802Y8777D01*
X19790Y8785D01*
X19775Y8788D01*
D02*
G37*
G36*
X19675D02*
X19660Y8785D01*
X19648Y8777D01*
X19640Y8765D01*
X19637Y8750D01*
X19640Y8735D01*
X19648Y8723D01*
X19660Y8715D01*
X19675Y8712D01*
X19690Y8715D01*
X19702Y8723D01*
X19710Y8735D01*
X19713Y8750D01*
X19710Y8765D01*
X19702Y8777D01*
X19690Y8785D01*
X19675Y8788D01*
D02*
G37*
G36*
X19575D02*
X19560Y8785D01*
X19548Y8777D01*
X19540Y8765D01*
X19537Y8750D01*
X19540Y8735D01*
X19548Y8723D01*
X19560Y8715D01*
X19575Y8712D01*
X19590Y8715D01*
X19602Y8723D01*
X19610Y8735D01*
X19613Y8750D01*
X19610Y8765D01*
X19602Y8777D01*
X19590Y8785D01*
X19575Y8788D01*
D02*
G37*
G36*
X19775Y8688D02*
X19760Y8685D01*
X19748Y8677D01*
X19740Y8665D01*
X19737Y8650D01*
X19740Y8635D01*
X19748Y8623D01*
X19760Y8615D01*
X19775Y8612D01*
X19790Y8615D01*
X19802Y8623D01*
X19810Y8635D01*
X19813Y8650D01*
X19810Y8665D01*
X19802Y8677D01*
X19790Y8685D01*
X19775Y8688D01*
D02*
G37*
G36*
X18982Y8649D02*
X18967Y8646D01*
X18955Y8638D01*
X18947Y8625D01*
X18944Y8611D01*
X18947Y8596D01*
X18955Y8584D01*
X18967Y8575D01*
X18982Y8572D01*
X18997Y8575D01*
X19009Y8584D01*
X19017Y8596D01*
X19020Y8611D01*
X19017Y8625D01*
X19009Y8638D01*
X18997Y8646D01*
X18982Y8649D01*
D02*
G37*
G36*
X21440Y8598D02*
X21425Y8595D01*
X21413Y8587D01*
X21405Y8575D01*
X21402Y8560D01*
X21405Y8545D01*
X21413Y8533D01*
X21425Y8525D01*
X21440Y8522D01*
X21455Y8525D01*
X21467Y8533D01*
X21475Y8545D01*
X21478Y8560D01*
X21475Y8575D01*
X21467Y8587D01*
X21455Y8595D01*
X21440Y8598D01*
D02*
G37*
G36*
X21650Y8438D02*
X21635Y8435D01*
X21623Y8427D01*
X21615Y8415D01*
X21612Y8400D01*
X21615Y8385D01*
X21623Y8373D01*
X21635Y8365D01*
X21650Y8362D01*
X21665Y8365D01*
X21677Y8373D01*
X21685Y8385D01*
X21688Y8400D01*
X21685Y8415D01*
X21677Y8427D01*
X21665Y8435D01*
X21650Y8438D01*
D02*
G37*
G36*
X21495Y8343D02*
X21480Y8340D01*
X21468Y8332D01*
X21460Y8320D01*
X21457Y8305D01*
X21460Y8290D01*
X21468Y8278D01*
X21480Y8270D01*
X21495Y8267D01*
X21510Y8270D01*
X21522Y8278D01*
X21530Y8290D01*
X21533Y8305D01*
X21530Y8320D01*
X21522Y8332D01*
X21510Y8340D01*
X21495Y8343D01*
D02*
G37*
G36*
X21802Y8331D02*
X21788Y8328D01*
X21775Y8320D01*
X21767Y8307D01*
X21764Y8293D01*
X21767Y8278D01*
X21775Y8265D01*
X21788Y8257D01*
X21802Y8254D01*
X21817Y8257D01*
X21830Y8265D01*
X21838Y8278D01*
X21841Y8293D01*
X21838Y8307D01*
X21830Y8320D01*
X21817Y8328D01*
X21802Y8331D01*
D02*
G37*
G36*
X21675Y8338D02*
X21660Y8335D01*
X21648Y8327D01*
X21640Y8315D01*
X21637Y8300D01*
X21640Y8285D01*
X21646Y8275D01*
X21644Y8266D01*
X21642Y8262D01*
X21635Y8260D01*
X21623Y8252D01*
X21615Y8240D01*
X21612Y8225D01*
X21615Y8210D01*
X21623Y8198D01*
X21635Y8190D01*
X21650Y8187D01*
X21665Y8190D01*
X21677Y8198D01*
X21685Y8210D01*
X21688Y8225D01*
X21685Y8240D01*
X21679Y8250D01*
X21681Y8259D01*
X21683Y8263D01*
X21690Y8265D01*
X21702Y8273D01*
X21710Y8285D01*
X21713Y8300D01*
X21710Y8315D01*
X21702Y8327D01*
X21690Y8335D01*
X21675Y8338D01*
D02*
G37*
G36*
X21623Y8171D02*
X21608Y8168D01*
X21595Y8160D01*
X21587Y8147D01*
X21584Y8132D01*
X21587Y8118D01*
X21589Y8116D01*
X21589Y8115D01*
X21580Y8107D01*
X21578Y8108D01*
X21567Y8115D01*
X21552Y8118D01*
X21538Y8115D01*
X21525Y8107D01*
X21517Y8095D01*
X21514Y8080D01*
X21517Y8065D01*
X21525Y8053D01*
X21538Y8045D01*
X21552Y8042D01*
X21567Y8045D01*
X21580Y8053D01*
X21588Y8065D01*
X21591Y8080D01*
X21588Y8095D01*
X21586Y8097D01*
X21586Y8098D01*
X21595Y8105D01*
X21597Y8104D01*
X21608Y8097D01*
X21623Y8094D01*
X21637Y8097D01*
X21650Y8105D01*
X21658Y8118D01*
X21661Y8132D01*
X21658Y8147D01*
X21650Y8160D01*
X21637Y8168D01*
X21623Y8171D01*
D02*
G37*
G36*
X21440Y8091D02*
X21425Y8088D01*
X21413Y8080D01*
X21405Y8067D01*
X21402Y8053D01*
X21405Y8038D01*
X21413Y8025D01*
X21425Y8017D01*
X21440Y8014D01*
X21455Y8017D01*
X21467Y8025D01*
X21475Y8038D01*
X21478Y8053D01*
X21475Y8067D01*
X21467Y8080D01*
X21455Y8088D01*
X21440Y8091D01*
D02*
G37*
G36*
X19431Y7966D02*
X19417Y7963D01*
X19404Y7955D01*
X19396Y7942D01*
X19393Y7928D01*
X19396Y7913D01*
X19404Y7900D01*
X19417Y7892D01*
X19431Y7889D01*
X19446Y7892D01*
X19458Y7900D01*
X19467Y7913D01*
X19469Y7928D01*
X19467Y7942D01*
X19458Y7955D01*
X19446Y7963D01*
X19431Y7966D01*
D02*
G37*
G36*
X19357Y7896D02*
X19343Y7893D01*
X19330Y7885D01*
X19322Y7872D01*
X19319Y7857D01*
X19322Y7843D01*
X19330Y7830D01*
X19343Y7822D01*
X19357Y7819D01*
X19372Y7822D01*
X19385Y7830D01*
X19393Y7843D01*
X19396Y7857D01*
X19393Y7872D01*
X19385Y7885D01*
X19372Y7893D01*
X19357Y7896D01*
D02*
G37*
G36*
X19270Y7858D02*
X19255Y7855D01*
X19243Y7847D01*
X19235Y7835D01*
X19232Y7820D01*
X19235Y7805D01*
X19243Y7793D01*
X19255Y7785D01*
X19270Y7782D01*
X19285Y7785D01*
X19297Y7793D01*
X19305Y7805D01*
X19308Y7820D01*
X19305Y7835D01*
X19297Y7847D01*
X19285Y7855D01*
X19270Y7858D01*
D02*
G37*
G36*
X22162Y7853D02*
X22148Y7850D01*
X22135Y7842D01*
X22127Y7830D01*
X22124Y7815D01*
X22127Y7800D01*
X22135Y7788D01*
X22148Y7780D01*
X22162Y7777D01*
X22177Y7780D01*
X22190Y7788D01*
X22198Y7800D01*
X22201Y7815D01*
X22198Y7830D01*
X22190Y7842D01*
X22177Y7850D01*
X22162Y7853D01*
D02*
G37*
G36*
X22275Y7788D02*
X22260Y7785D01*
X22248Y7777D01*
X22240Y7765D01*
X22237Y7750D01*
X22240Y7735D01*
X22248Y7723D01*
X22260Y7715D01*
X22275Y7712D01*
X22290Y7715D01*
X22302Y7723D01*
X22310Y7735D01*
X22313Y7750D01*
X22310Y7765D01*
X22302Y7777D01*
X22290Y7785D01*
X22275Y7788D01*
D02*
G37*
G36*
X19190Y7783D02*
X19175Y7780D01*
X19163Y7772D01*
X19155Y7760D01*
X19152Y7745D01*
X19155Y7730D01*
X19163Y7718D01*
X19175Y7710D01*
X19190Y7707D01*
X19205Y7710D01*
X19217Y7718D01*
X19225Y7730D01*
X19228Y7745D01*
X19225Y7760D01*
X19217Y7772D01*
X19205Y7780D01*
X19190Y7783D01*
D02*
G37*
G36*
X22200Y7738D02*
X22185Y7735D01*
X22173Y7727D01*
X22165Y7715D01*
X22162Y7700D01*
X22165Y7685D01*
X22173Y7673D01*
X22185Y7665D01*
X22200Y7662D01*
X22215Y7665D01*
X22227Y7673D01*
X22235Y7685D01*
X22238Y7700D01*
X22235Y7715D01*
X22227Y7727D01*
X22215Y7735D01*
X22200Y7738D01*
D02*
G37*
G36*
X19450Y7726D02*
X19435Y7723D01*
X19423Y7715D01*
X19415Y7702D01*
X19412Y7688D01*
X19415Y7673D01*
X19423Y7660D01*
X19435Y7652D01*
X19450Y7649D01*
X19465Y7652D01*
X19477Y7660D01*
X19485Y7673D01*
X19488Y7688D01*
X19485Y7702D01*
X19477Y7715D01*
X19465Y7723D01*
X19450Y7726D01*
D02*
G37*
G36*
X22455Y7721D02*
X22440Y7718D01*
X22428Y7710D01*
X22420Y7697D01*
X22417Y7682D01*
X22420Y7668D01*
X22428Y7655D01*
X22440Y7647D01*
X22455Y7644D01*
X22470Y7647D01*
X22482Y7655D01*
X22490Y7668D01*
X22493Y7682D01*
X22490Y7697D01*
X22482Y7710D01*
X22470Y7718D01*
X22455Y7721D01*
D02*
G37*
G36*
X19523Y7671D02*
X19508Y7668D01*
X19495Y7660D01*
X19487Y7647D01*
X19484Y7632D01*
X19487Y7618D01*
X19495Y7605D01*
X19508Y7597D01*
X19523Y7594D01*
X19537Y7597D01*
X19550Y7605D01*
X19558Y7618D01*
X19561Y7632D01*
X19558Y7647D01*
X19550Y7660D01*
X19537Y7668D01*
X19523Y7671D01*
D02*
G37*
G36*
X22350Y7738D02*
X22335Y7735D01*
X22323Y7727D01*
X22315Y7715D01*
X22312Y7700D01*
X22315Y7685D01*
X22323Y7673D01*
X22335Y7665D01*
X22342Y7663D01*
X22348Y7649D01*
X22345Y7645D01*
X22342Y7630D01*
X22345Y7615D01*
X22353Y7603D01*
X22365Y7595D01*
X22380Y7592D01*
X22395Y7595D01*
X22407Y7603D01*
X22415Y7615D01*
X22418Y7630D01*
X22415Y7645D01*
X22407Y7657D01*
X22395Y7665D01*
X22388Y7667D01*
X22382Y7681D01*
X22385Y7685D01*
X22388Y7700D01*
X22385Y7715D01*
X22377Y7727D01*
X22365Y7735D01*
X22350Y7738D01*
D02*
G37*
G36*
X20750Y7638D02*
X20735Y7635D01*
X20723Y7627D01*
X20715Y7615D01*
X20712Y7600D01*
X20715Y7585D01*
X20723Y7573D01*
X20735Y7565D01*
X20750Y7562D01*
X20765Y7565D01*
X20777Y7573D01*
X20785Y7585D01*
X20788Y7600D01*
X20785Y7615D01*
X20777Y7627D01*
X20765Y7635D01*
X20750Y7638D01*
D02*
G37*
G36*
X19593Y7601D02*
X19578Y7598D01*
X19565Y7590D01*
X19557Y7577D01*
X19554Y7562D01*
X19557Y7548D01*
X19565Y7535D01*
X19578Y7527D01*
X19593Y7524D01*
X19607Y7527D01*
X19620Y7535D01*
X19628Y7548D01*
X19631Y7562D01*
X19628Y7577D01*
X19620Y7590D01*
X19607Y7598D01*
X19593Y7601D01*
D02*
G37*
G36*
X19338Y7546D02*
X19323Y7543D01*
X19310Y7535D01*
X19302Y7522D01*
X19299Y7507D01*
X19302Y7493D01*
X19310Y7480D01*
X19323Y7472D01*
X19338Y7469D01*
X19352Y7472D01*
X19365Y7480D01*
X19373Y7493D01*
X19376Y7507D01*
X19373Y7522D01*
X19365Y7535D01*
X19352Y7543D01*
X19338Y7546D01*
D02*
G37*
G36*
X21020Y7541D02*
X21005Y7538D01*
X20993Y7530D01*
X20985Y7517D01*
X20982Y7503D01*
X20985Y7488D01*
X20993Y7475D01*
X21005Y7467D01*
X21020Y7464D01*
X21035Y7467D01*
X21047Y7475D01*
X21055Y7488D01*
X21058Y7503D01*
X21055Y7517D01*
X21047Y7530D01*
X21035Y7538D01*
X21020Y7541D01*
D02*
G37*
G36*
X22275Y7538D02*
X22260Y7535D01*
X22248Y7527D01*
X22240Y7515D01*
X22237Y7500D01*
X22240Y7485D01*
X22248Y7473D01*
X22260Y7465D01*
X22275Y7462D01*
X22290Y7465D01*
X22302Y7473D01*
X22310Y7485D01*
X22313Y7500D01*
X22310Y7515D01*
X22302Y7527D01*
X22290Y7535D01*
X22275Y7538D01*
D02*
G37*
G36*
X20575D02*
X20560Y7535D01*
X20548Y7527D01*
X20540Y7515D01*
X20537Y7500D01*
X20540Y7485D01*
X20548Y7473D01*
X20560Y7465D01*
X20575Y7462D01*
X20590Y7465D01*
X20602Y7473D01*
X20610Y7485D01*
X20613Y7500D01*
X20610Y7515D01*
X20602Y7527D01*
X20590Y7535D01*
X20575Y7538D01*
D02*
G37*
G36*
X22557Y7518D02*
X22543Y7515D01*
X22530Y7507D01*
X22522Y7495D01*
X22519Y7480D01*
X22522Y7465D01*
X22530Y7453D01*
X22543Y7445D01*
X22557Y7442D01*
X22572Y7445D01*
X22585Y7453D01*
X22593Y7465D01*
X22596Y7480D01*
X22593Y7495D01*
X22585Y7507D01*
X22572Y7515D01*
X22557Y7518D01*
D02*
G37*
G36*
X19448D02*
X19433Y7515D01*
X19420Y7507D01*
X19412Y7495D01*
X19409Y7480D01*
X19412Y7465D01*
X19420Y7453D01*
X19433Y7445D01*
X19448Y7442D01*
X19462Y7445D01*
X19475Y7453D01*
X19483Y7465D01*
X19486Y7480D01*
X19483Y7495D01*
X19475Y7507D01*
X19462Y7515D01*
X19448Y7518D01*
D02*
G37*
G36*
X19545Y7493D02*
X19530Y7490D01*
X19518Y7482D01*
X19510Y7470D01*
X19507Y7455D01*
X19510Y7440D01*
X19518Y7428D01*
X19530Y7420D01*
X19545Y7417D01*
X19560Y7420D01*
X19572Y7428D01*
X19580Y7440D01*
X19583Y7455D01*
X19580Y7470D01*
X19572Y7482D01*
X19560Y7490D01*
X19545Y7493D01*
D02*
G37*
G36*
X20750Y7413D02*
X20735Y7410D01*
X20723Y7402D01*
X20715Y7390D01*
X20712Y7376D01*
X20708Y7374D01*
X20704Y7373D01*
X20699Y7372D01*
X20687Y7380D01*
X20673Y7383D01*
X20658Y7380D01*
X20645Y7372D01*
X20637Y7360D01*
X20634Y7345D01*
X20637Y7330D01*
X20645Y7318D01*
X20658Y7310D01*
X20673Y7307D01*
X20687Y7310D01*
X20700Y7318D01*
X20708Y7330D01*
X20710Y7344D01*
X20714Y7346D01*
X20718Y7347D01*
X20723Y7348D01*
X20735Y7340D01*
X20750Y7337D01*
X20765Y7340D01*
X20777Y7348D01*
X20785Y7360D01*
X20788Y7375D01*
X20785Y7390D01*
X20777Y7402D01*
X20765Y7410D01*
X20750Y7413D01*
D02*
G37*
G36*
X20488Y7316D02*
X20473Y7313D01*
X20460Y7305D01*
X20452Y7292D01*
X20449Y7278D01*
X20452Y7263D01*
X20460Y7250D01*
X20473Y7242D01*
X20488Y7239D01*
X20502Y7242D01*
X20515Y7250D01*
X20523Y7263D01*
X20526Y7278D01*
X20523Y7292D01*
X20515Y7305D01*
X20502Y7313D01*
X20488Y7316D01*
D02*
G37*
G36*
X18660Y7288D02*
X18645Y7285D01*
X18633Y7277D01*
X18625Y7265D01*
X18622Y7250D01*
X18625Y7235D01*
X18633Y7223D01*
X18645Y7215D01*
X18660Y7212D01*
X18675Y7215D01*
X18687Y7223D01*
X18695Y7235D01*
X18698Y7250D01*
X18695Y7265D01*
X18687Y7277D01*
X18675Y7285D01*
X18660Y7288D01*
D02*
G37*
G36*
X19423Y7058D02*
X19408Y7055D01*
X19395Y7047D01*
X19387Y7035D01*
X19384Y7020D01*
X19387Y7005D01*
X19395Y6993D01*
X19408Y6985D01*
X19423Y6982D01*
X19437Y6985D01*
X19450Y6993D01*
X19458Y7005D01*
X19461Y7020D01*
X19458Y7035D01*
X19450Y7047D01*
X19437Y7055D01*
X19423Y7058D01*
D02*
G37*
G36*
X19035Y6958D02*
X19020Y6955D01*
X19008Y6947D01*
X19000Y6935D01*
X18997Y6920D01*
X19000Y6905D01*
X19008Y6893D01*
X19015Y6888D01*
X19013Y6879D01*
X19011Y6875D01*
X18998Y6873D01*
X18985Y6865D01*
X18977Y6852D01*
X18974Y6838D01*
X18977Y6823D01*
X18985Y6810D01*
X18998Y6802D01*
X19012Y6799D01*
X19027Y6802D01*
X19040Y6810D01*
X19048Y6823D01*
X19051Y6838D01*
X19048Y6852D01*
X19040Y6865D01*
X19032Y6869D01*
X19034Y6878D01*
X19036Y6882D01*
X19050Y6885D01*
X19062Y6893D01*
X19070Y6905D01*
X19073Y6920D01*
X19070Y6935D01*
X19062Y6947D01*
X19050Y6955D01*
X19035Y6958D01*
D02*
G37*
G36*
X18965Y6798D02*
X18950Y6795D01*
X18938Y6787D01*
X18930Y6775D01*
X18927Y6760D01*
X18930Y6745D01*
X18938Y6733D01*
X18950Y6725D01*
X18965Y6722D01*
X18980Y6725D01*
X18992Y6733D01*
X19000Y6745D01*
X19003Y6760D01*
X19000Y6775D01*
X18992Y6787D01*
X18980Y6795D01*
X18965Y6798D01*
D02*
G37*
G36*
X18805Y5968D02*
X18790Y5965D01*
X18778Y5957D01*
X18770Y5945D01*
X18767Y5930D01*
X18770Y5915D01*
X18778Y5903D01*
X18790Y5895D01*
X18796Y5893D01*
X18799Y5893D01*
Y5880D01*
X18796Y5879D01*
X18788Y5878D01*
X18775Y5870D01*
X18767Y5857D01*
X18764Y5842D01*
X18767Y5828D01*
X18775Y5815D01*
X18788Y5807D01*
X18802Y5804D01*
X18817Y5807D01*
X18830Y5815D01*
X18838Y5828D01*
X18841Y5842D01*
X18838Y5857D01*
X18830Y5870D01*
X18817Y5878D01*
X18811Y5879D01*
X18809Y5880D01*
Y5892D01*
X18812Y5893D01*
X18820Y5895D01*
X18832Y5903D01*
X18840Y5915D01*
X18843Y5930D01*
X18840Y5945D01*
X18832Y5957D01*
X18820Y5965D01*
X18805Y5968D01*
D02*
G37*
%LPD*%
D127*
X12295Y6222D02*
D03*
X8497Y6215D02*
D03*
D136*
X11982Y7892D02*
D03*
X11728Y7383D02*
D03*
X11982Y7638D02*
D03*
Y7383D02*
D03*
X8468Y8333D02*
D03*
X8722D02*
D03*
D138*
X19475Y8525D02*
D03*
X19375Y8632D02*
D03*
Y8528D02*
D03*
X23315Y12047D02*
D03*
X21423Y9222D02*
D03*
X20302Y8590D02*
D03*
Y8788D02*
D03*
X20600Y8932D02*
D03*
X19323Y9820D02*
D03*
X20060Y9818D02*
D03*
X19888D02*
D03*
X20643Y9820D02*
D03*
X19140Y9812D02*
D03*
X19025Y9300D02*
D03*
X18875D02*
D03*
Y9425D02*
D03*
Y9550D02*
D03*
Y9675D02*
D03*
X19275Y8525D02*
D03*
X19375Y8407D02*
D03*
X18555Y11820D02*
D03*
X18560Y12097D02*
D03*
X18555Y12370D02*
D03*
X16400Y7100D02*
D03*
X16000Y7725D02*
D03*
X21027Y11365D02*
D03*
X21145Y11529D02*
D03*
X18989Y11430D02*
D03*
X19102Y11548D02*
D03*
X22347Y11075D02*
D03*
Y11300D02*
D03*
X20392Y11315D02*
D03*
Y11090D02*
D03*
X22417Y12884D02*
D03*
X20400Y12923D02*
D03*
X20750Y12474D02*
D03*
Y12705D02*
D03*
Y12915D02*
D03*
X20460Y13160D02*
D03*
X20583D02*
D03*
X20707D02*
D03*
X22770Y12408D02*
D03*
X22772Y12639D02*
D03*
Y12860D02*
D03*
X22719Y13130D02*
D03*
X22596D02*
D03*
X22472D02*
D03*
X10635Y8780D02*
D03*
X12119Y7638D02*
D03*
X12112Y7895D02*
D03*
X10915Y6167D02*
D03*
X12293Y8762D02*
D03*
X16540Y9838D02*
D03*
X14940Y13020D02*
D03*
Y12960D02*
D03*
X15060Y12900D02*
D03*
X15000D02*
D03*
X14940D02*
D03*
X15060Y12840D02*
D03*
X15000D02*
D03*
X14940D02*
D03*
X15040Y13180D02*
D03*
X14990D02*
D03*
X14940D02*
D03*
Y13230D02*
D03*
Y13280D02*
D03*
Y13340D02*
D03*
X7520Y10160D02*
D03*
X7390Y11400D02*
D03*
X7868Y12780D02*
D03*
X7585Y12778D02*
D03*
X7685Y12500D02*
D03*
X7865Y12497D02*
D03*
X8055Y12500D02*
D03*
X8145Y12782D02*
D03*
X8053Y13060D02*
D03*
X7862Y13057D02*
D03*
X7680D02*
D03*
X8690Y13530D02*
D03*
X7240Y13532D02*
D03*
X7395Y11907D02*
D03*
X6125Y10407D02*
D03*
X6555Y10412D02*
D03*
Y11660D02*
D03*
X6140D02*
D03*
X6745Y10875D02*
D03*
X8718Y10725D02*
D03*
X11901Y10573D02*
D03*
X8595Y8333D02*
D03*
X8138Y9157D02*
D03*
X7715Y9580D02*
D03*
X9693Y8593D02*
D03*
X17280Y6062D02*
D03*
X17077Y7179D02*
D03*
Y8294D02*
D03*
X17620Y8804D02*
D03*
Y7689D02*
D03*
X17615Y6572D02*
D03*
X11732Y7265D02*
D03*
X12112Y7382D02*
D03*
X11018Y6167D02*
D03*
X11565Y6636D02*
D03*
X12655Y6060D02*
D03*
X8225Y6100D02*
D03*
X11072Y9193D02*
D03*
X11683Y9910D02*
D03*
X11007Y11455D02*
D03*
X12210Y8685D02*
D03*
X14335Y10155D02*
D03*
X13770Y10153D02*
D03*
X10722Y11793D02*
D03*
X13612Y12012D02*
D03*
X14460Y12007D02*
D03*
X15852Y11645D02*
D03*
X15843Y10693D02*
D03*
X14138Y10155D02*
D03*
X11833Y9790D02*
D03*
X11370Y11115D02*
D03*
X9557Y11598D02*
D03*
X9172Y11195D02*
D03*
X8982Y9590D02*
D03*
X9330Y9255D02*
D03*
X9507Y8780D02*
D03*
X12125Y8595D02*
D03*
D139*
X17825Y12150D02*
D03*
X16450Y12000D02*
D03*
Y12125D02*
D03*
Y11875D02*
D03*
X16600Y11625D02*
D03*
X16450Y11750D02*
D03*
X17825Y10950D02*
D03*
X22700Y5600D02*
D03*
Y5750D02*
D03*
Y5900D02*
D03*
Y6050D02*
D03*
Y6200D02*
D03*
X21850Y5600D02*
D03*
Y5750D02*
D03*
Y5900D02*
D03*
Y6050D02*
D03*
Y6200D02*
D03*
X21050Y5600D02*
D03*
Y5750D02*
D03*
Y5900D02*
D03*
Y6050D02*
D03*
Y6200D02*
D03*
X20150Y5600D02*
D03*
Y5750D02*
D03*
Y5900D02*
D03*
Y6050D02*
D03*
Y6200D02*
D03*
X14300Y8825D02*
D03*
X14750D02*
D03*
X14600D02*
D03*
X14450D02*
D03*
X14750Y8675D02*
D03*
X14600D02*
D03*
X14450D02*
D03*
X13850D02*
D03*
X14000D02*
D03*
X14150D02*
D03*
X14300D02*
D03*
X13275D02*
D03*
X13425D02*
D03*
X13575D02*
D03*
X13725D02*
D03*
X13125D02*
D03*
X12975D02*
D03*
X12825D02*
D03*
X12675D02*
D03*
X12250Y7475D02*
D03*
X12475D02*
D03*
X12250Y7600D02*
D03*
X12475Y7750D02*
D03*
X14380Y7190D02*
D03*
X12250Y7150D02*
D03*
X12475D02*
D03*
Y8025D02*
D03*
X12250D02*
D03*
Y7900D02*
D03*
X12475D02*
D03*
X15450Y5650D02*
D03*
X15575Y5775D02*
D03*
X15450D02*
D03*
X15325D02*
D03*
Y5650D02*
D03*
Y5525D02*
D03*
X15200D02*
D03*
Y5650D02*
D03*
Y5775D02*
D03*
X14925Y5525D02*
D03*
Y5650D02*
D03*
X15075Y5525D02*
D03*
Y5650D02*
D03*
Y5775D02*
D03*
Y5900D02*
D03*
Y6025D02*
D03*
Y6150D02*
D03*
X14245Y7190D02*
D03*
X12475Y7600D02*
D03*
Y7300D02*
D03*
X12250D02*
D03*
Y7750D02*
D03*
X11375Y13175D02*
D03*
X11225Y13075D02*
D03*
X11075D02*
D03*
X10925D02*
D03*
X10775D02*
D03*
X10625D02*
D03*
X6930Y6515D02*
D03*
Y6390D02*
D03*
Y6265D02*
D03*
X7300Y8000D02*
D03*
X7175D02*
D03*
X7050D02*
D03*
X7300Y8125D02*
D03*
X7175D02*
D03*
X7050D02*
D03*
X7300Y8250D02*
D03*
X7175D02*
D03*
X7050D02*
D03*
X17675Y13050D02*
D03*
Y13500D02*
D03*
Y13350D02*
D03*
Y13200D02*
D03*
X17825Y13500D02*
D03*
Y13350D02*
D03*
Y13200D02*
D03*
Y12600D02*
D03*
Y12750D02*
D03*
Y12900D02*
D03*
Y13050D02*
D03*
Y10050D02*
D03*
X17525D02*
D03*
Y10500D02*
D03*
Y10650D02*
D03*
X17675D02*
D03*
Y10500D02*
D03*
Y10350D02*
D03*
Y10200D02*
D03*
Y10050D02*
D03*
X17525Y11400D02*
D03*
Y11250D02*
D03*
Y11100D02*
D03*
Y10950D02*
D03*
Y10800D02*
D03*
X17675Y11400D02*
D03*
Y11250D02*
D03*
Y11100D02*
D03*
Y10950D02*
D03*
Y10800D02*
D03*
X17825Y10825D02*
D03*
Y10675D02*
D03*
Y10525D02*
D03*
Y10375D02*
D03*
Y10225D02*
D03*
Y11550D02*
D03*
Y11400D02*
D03*
Y11250D02*
D03*
Y11100D02*
D03*
Y12000D02*
D03*
Y11850D02*
D03*
Y11700D02*
D03*
X16450Y11625D02*
D03*
X16900D02*
D03*
X13820Y13300D02*
D03*
X13970D02*
D03*
X14120D02*
D03*
X14270D02*
D03*
X13820Y13520D02*
D03*
X13970D02*
D03*
X14120D02*
D03*
X14270D02*
D03*
X13220D02*
D03*
X13370D02*
D03*
X13520D02*
D03*
X13670D02*
D03*
X16550Y13200D02*
D03*
Y13350D02*
D03*
Y13500D02*
D03*
X16000Y12900D02*
D03*
X15850D02*
D03*
X15700D02*
D03*
X15550D02*
D03*
X16300Y13050D02*
D03*
X16150D02*
D03*
X16000D02*
D03*
X15850D02*
D03*
X15700D02*
D03*
X15550D02*
D03*
X16450Y13200D02*
D03*
X16300D02*
D03*
X16150D02*
D03*
X16000D02*
D03*
X15850D02*
D03*
X15700D02*
D03*
X15550D02*
D03*
X15400D02*
D03*
X16450Y13350D02*
D03*
X16300D02*
D03*
X16150D02*
D03*
X16000D02*
D03*
X15850D02*
D03*
X15700D02*
D03*
X15550D02*
D03*
X15400D02*
D03*
X16450Y13500D02*
D03*
X16300D02*
D03*
X16150D02*
D03*
X16000D02*
D03*
X15850D02*
D03*
X15700D02*
D03*
X15550D02*
D03*
X15400D02*
D03*
D140*
X9162Y6585D02*
D03*
X9165Y6803D02*
D03*
Y7018D02*
D03*
D141*
X14100Y7550D02*
D03*
X14025Y7625D02*
D03*
X14175D02*
D03*
X14025Y7475D02*
D03*
X14175D02*
D03*
X21967Y12035D02*
D03*
X21857D02*
D03*
X21747D02*
D03*
X21967Y12145D02*
D03*
X21857D02*
D03*
X21747D02*
D03*
X21967Y12255D02*
D03*
X21857D02*
D03*
X21747D02*
D03*
X19987Y12050D02*
D03*
X19877D02*
D03*
X19767D02*
D03*
X19987Y12160D02*
D03*
X19877D02*
D03*
X19767D02*
D03*
X19987Y12270D02*
D03*
X19877D02*
D03*
X19767D02*
D03*
M02*
