G04*
G04 #@! TF.GenerationSoftware,Altium Limited,Altium Designer,19.1.9 (167)*
G04*
G04 Layer_Color=128*
%FSLAX42Y42*%
%MOMM*%
G71*
G01*
G75*
%ADD145C,0.05*%
D145*
X7022Y11297D02*
X7098D01*
X7060Y11259D02*
Y11336D01*
X6272Y11253D02*
X6362D01*
X6317Y11207D02*
Y11297D01*
X6272Y10813D02*
X6362D01*
X6317Y10768D02*
Y10858D01*
X11677Y7892D02*
X11779D01*
X11728Y7840D02*
Y7943D01*
X11931Y7892D02*
X12033D01*
X11982Y7840D02*
Y7943D01*
X11677Y7638D02*
X11779D01*
X11728Y7586D02*
Y7689D01*
X11677Y7383D02*
X11779D01*
X11728Y7332D02*
Y7435D01*
X11931Y7638D02*
X12033D01*
X11982Y7586D02*
Y7689D01*
X11931Y7383D02*
X12033D01*
X11982Y7332D02*
Y7435D01*
X11587Y8912D02*
X11657D01*
X11622Y8877D02*
Y8947D01*
X11933Y9258D02*
X12003D01*
X11968Y9223D02*
Y9293D01*
X8417Y8842D02*
X8519D01*
X8468Y8790D02*
Y8893D01*
X8671Y8842D02*
X8773D01*
X8722Y8790D02*
Y8893D01*
X8417Y8588D02*
X8519D01*
X8468Y8536D02*
Y8639D01*
X8417Y8333D02*
X8519D01*
X8468Y8282D02*
Y8385D01*
X8671Y8588D02*
X8773D01*
X8722Y8536D02*
Y8639D01*
X8671Y8333D02*
X8773D01*
X8722Y8282D02*
Y8385D01*
X12244Y6222D02*
X12346D01*
X12295Y6171D02*
Y6272D01*
X12244Y5967D02*
X12346D01*
X12295Y5917D02*
Y6019D01*
X12244Y5713D02*
X12346D01*
X12295Y5662D02*
Y5765D01*
X8446Y6215D02*
X8549D01*
X8497Y6165D02*
Y6267D01*
X8446Y5962D02*
X8549D01*
X8497Y5910D02*
Y6012D01*
X8446Y5708D02*
X8549D01*
X8497Y5656D02*
Y5758D01*
X20173Y13335D02*
X20193D01*
X20182Y13325D02*
Y13345D01*
X22143Y13327D02*
X22162D01*
X22152Y13318D02*
Y13338D01*
X9803Y11890D02*
X9822D01*
X9812Y11880D02*
Y11900D01*
X23080Y12593D02*
X23100D01*
X23090Y12582D02*
Y12603D01*
X10043Y12075D02*
X10062D01*
X10053Y12065D02*
Y12085D01*
X23148Y12520D02*
X23168D01*
X23157Y12510D02*
Y12530D01*
X17795Y12150D02*
X17855D01*
X17825Y12120D02*
Y12180D01*
X16420Y12000D02*
X16480D01*
X16450Y11970D02*
Y12030D01*
X16420Y12125D02*
X16480D01*
X16450Y12095D02*
Y12155D01*
X16420Y11875D02*
X16480D01*
X16450Y11845D02*
Y11905D01*
X22188Y13185D02*
X22207D01*
X22198Y13175D02*
Y13195D01*
X17320Y12000D02*
X17380D01*
X17350Y11970D02*
Y12030D01*
X9338Y10728D02*
X9357D01*
X9347Y10718D02*
Y10738D01*
X20185Y13200D02*
X20205D01*
X20195Y13190D02*
Y13210D01*
X19842Y13085D02*
X19862D01*
X19852Y13075D02*
Y13095D01*
X13745Y12525D02*
X13805D01*
X13775Y12495D02*
Y12555D01*
X13845Y12425D02*
X13905D01*
X13875Y12395D02*
Y12455D01*
X13745Y12425D02*
X13805D01*
X13775Y12395D02*
Y12455D01*
X13745Y12625D02*
X13805D01*
X13775Y12595D02*
Y12655D01*
X13845Y12525D02*
X13905D01*
X13875Y12495D02*
Y12555D01*
X15720Y12450D02*
X15780D01*
X15750Y12420D02*
Y12480D01*
X16570Y11625D02*
X16630D01*
X16600Y11595D02*
Y11655D01*
X16420Y11750D02*
X16480D01*
X16450Y11720D02*
Y11780D01*
X9172Y10507D02*
X9193D01*
X9182Y10497D02*
Y10518D01*
X9405Y10375D02*
X9425D01*
X9415Y10365D02*
Y10385D01*
X9303Y10395D02*
X9322D01*
X9312Y10385D02*
Y10405D01*
X20263Y12218D02*
X20283D01*
X20273Y12208D02*
Y12228D01*
X21480Y12345D02*
X21500D01*
X21490Y12335D02*
Y12355D01*
X21307Y12215D02*
X21327D01*
X21318Y12205D02*
Y12225D01*
X19364Y12188D02*
X19384D01*
X19374Y12178D02*
Y12198D01*
X19310Y11403D02*
X19330D01*
X19320Y11393D02*
Y11413D01*
X17795Y10950D02*
X17855D01*
X17825Y10920D02*
Y10980D01*
X11085Y8807D02*
X11105D01*
X11095Y8797D02*
Y8818D01*
X11143Y8880D02*
X11163D01*
X11153Y8870D02*
Y8890D01*
X21365Y12155D02*
X21385D01*
X21375Y12145D02*
Y12165D01*
X22467Y11565D02*
X22487D01*
X22477Y11555D02*
Y11575D01*
X22567Y11565D02*
X22587D01*
X22577Y11555D02*
Y11575D01*
X19690Y10450D02*
X19710D01*
X19700Y10440D02*
Y10460D01*
X19688Y10543D02*
X19707D01*
X19698Y10532D02*
Y10553D01*
X19430Y12272D02*
X19450D01*
X19440Y12262D02*
Y12282D01*
X16895Y9975D02*
X16955D01*
X16925Y9945D02*
Y10005D01*
X17095Y10125D02*
X17155D01*
X17125Y10095D02*
Y10155D01*
X16995Y9975D02*
X17055D01*
X17025Y9945D02*
Y10005D01*
X16895Y10500D02*
X16955D01*
X16925Y10470D02*
Y10530D01*
X17095Y10575D02*
X17155D01*
X17125Y10545D02*
Y10605D01*
X16995Y10125D02*
X17055D01*
X17025Y10095D02*
Y10155D01*
X21690Y10475D02*
X21710D01*
X21700Y10465D02*
Y10485D01*
X17195Y10575D02*
X17255D01*
X17225Y10545D02*
Y10605D01*
X17095Y10275D02*
X17155D01*
X17125Y10245D02*
Y10305D01*
X13000Y9732D02*
X13020D01*
X13010Y9722D02*
Y9743D01*
X14370Y9875D02*
X14390D01*
X14380Y9865D02*
Y9885D01*
X14421Y9940D02*
X14441D01*
X14431Y9930D02*
Y9950D01*
X14498Y10030D02*
X14518D01*
X14507Y10020D02*
Y10040D01*
X14293Y9830D02*
X14313D01*
X14303Y9820D02*
Y9840D01*
X11420Y9843D02*
X11440D01*
X11430Y9832D02*
Y9853D01*
X16420Y12800D02*
X16480D01*
X16450Y12770D02*
Y12830D01*
X10203Y11670D02*
X10222D01*
X10212Y11660D02*
Y11680D01*
X19520Y12357D02*
X19540D01*
X19530Y12347D02*
Y12368D01*
X21507Y12060D02*
X21527D01*
X21517Y12050D02*
Y12070D01*
X22670Y5600D02*
X22730D01*
X22700Y5570D02*
Y5630D01*
X22670Y5750D02*
X22730D01*
X22700Y5720D02*
Y5780D01*
X22670Y5900D02*
X22730D01*
X22700Y5870D02*
Y5930D01*
X22670Y6050D02*
X22730D01*
X22700Y6020D02*
Y6080D01*
X22670Y6200D02*
X22730D01*
X22700Y6170D02*
Y6230D01*
X21820Y5600D02*
X21880D01*
X21850Y5570D02*
Y5630D01*
X21820Y5750D02*
X21880D01*
X21850Y5720D02*
Y5780D01*
X21820Y5900D02*
X21880D01*
X21850Y5870D02*
Y5930D01*
X21820Y6050D02*
X21880D01*
X21850Y6020D02*
Y6080D01*
X21820Y6200D02*
X21880D01*
X21850Y6170D02*
Y6230D01*
X21020Y5600D02*
X21080D01*
X21050Y5570D02*
Y5630D01*
X21020Y5750D02*
X21080D01*
X21050Y5720D02*
Y5780D01*
X21020Y5900D02*
X21080D01*
X21050Y5870D02*
Y5930D01*
X21020Y6050D02*
X21080D01*
X21050Y6020D02*
Y6080D01*
X21020Y6200D02*
X21080D01*
X21050Y6170D02*
Y6230D01*
X20120Y5600D02*
X20180D01*
X20150Y5570D02*
Y5630D01*
X20120Y5750D02*
X20180D01*
X20150Y5720D02*
Y5780D01*
X20120Y5900D02*
X20180D01*
X20150Y5870D02*
Y5930D01*
X20120Y6050D02*
X20180D01*
X20150Y6020D02*
Y6080D01*
X20120Y6200D02*
X20180D01*
X20150Y6170D02*
Y6230D01*
X18955Y6760D02*
X18975D01*
X18965Y6750D02*
Y6770D01*
X19002Y6838D02*
X19023D01*
X19012Y6828D02*
Y6847D01*
X19025Y6920D02*
X19045D01*
X19035Y6910D02*
Y6930D01*
X19465Y8525D02*
X19485D01*
X19475Y8515D02*
Y8535D01*
X19365Y8632D02*
X19385D01*
X19375Y8622D02*
Y8643D01*
X19365Y8528D02*
X19385D01*
X19375Y8518D02*
Y8538D01*
X19815Y10500D02*
X19835D01*
X19825Y10490D02*
Y10510D01*
X18650Y7250D02*
X18670D01*
X18660Y7240D02*
Y7260D01*
X19377Y10070D02*
X19398D01*
X19388Y10060D02*
Y10080D01*
X21702Y10310D02*
X21722D01*
X21712Y10300D02*
Y10320D01*
X21815Y10500D02*
X21835D01*
X21825Y10490D02*
Y10510D01*
X18795Y5930D02*
X18815D01*
X18805Y5920D02*
Y5940D01*
X18793Y5842D02*
X18812D01*
X18802Y5833D02*
Y5853D01*
X21543Y9860D02*
X21562D01*
X21552Y9850D02*
Y9870D01*
X21485Y8305D02*
X21505D01*
X21495Y8295D02*
Y8315D01*
X19765Y8850D02*
X19785D01*
X19775Y8840D02*
Y8860D01*
X19765Y8750D02*
X19785D01*
X19775Y8740D02*
Y8760D01*
X19765Y8950D02*
X19785D01*
X19775Y8940D02*
Y8960D01*
X19665Y8750D02*
X19685D01*
X19675Y8740D02*
Y8760D01*
X19180Y7745D02*
X19200D01*
X19190Y7735D02*
Y7755D01*
X19421Y7928D02*
X19441D01*
X19431Y7918D02*
Y7938D01*
X19348Y7857D02*
X19368D01*
X19357Y7847D02*
Y7868D01*
X19260Y7820D02*
X19280D01*
X19270Y7810D02*
Y7830D01*
X19440Y7688D02*
X19460D01*
X19450Y7678D02*
Y7697D01*
X20740Y7600D02*
X20760D01*
X20750Y7590D02*
Y7610D01*
X19582Y7562D02*
X19602D01*
X19593Y7553D02*
Y7572D01*
X19327Y7507D02*
X19348D01*
X19338Y7497D02*
Y7518D01*
X19438Y7480D02*
X19457D01*
X19448Y7470D02*
Y7490D01*
X19512Y7632D02*
X19532D01*
X19523Y7622D02*
Y7643D01*
X18972Y8611D02*
X18992D01*
X18982Y8601D02*
Y8621D01*
X19535Y7455D02*
X19555D01*
X19545Y7445D02*
Y7465D01*
X19412Y7020D02*
X19432D01*
X19423Y7010D02*
Y7030D01*
X22265Y7750D02*
X22285D01*
X22275Y7740D02*
Y7760D01*
X22152Y7815D02*
X22173D01*
X22162Y7805D02*
Y7825D01*
X22190Y7700D02*
X22210D01*
X22200Y7690D02*
Y7710D01*
X20740Y7375D02*
X20760D01*
X20750Y7365D02*
Y7385D01*
X21620Y9868D02*
X21640D01*
X21630Y9857D02*
Y9878D01*
X21680Y10568D02*
X21700D01*
X21690Y10557D02*
Y10578D01*
X21430Y8053D02*
X21450D01*
X21440Y8043D02*
Y8062D01*
X21640Y8225D02*
X21660D01*
X21650Y8215D02*
Y8235D01*
X21612Y8132D02*
X21632D01*
X21623Y8122D02*
Y8143D01*
X21010Y7503D02*
X21030D01*
X21020Y7493D02*
Y7512D01*
X21102Y8945D02*
X21123D01*
X21112Y8935D02*
Y8955D01*
X21665Y8300D02*
X21685D01*
X21675Y8290D02*
Y8310D01*
X21640Y8400D02*
X21660D01*
X21650Y8390D02*
Y8410D01*
X22340Y7700D02*
X22360D01*
X22350Y7690D02*
Y7710D01*
X23190Y10225D02*
X23210D01*
X23200Y10215D02*
Y10235D01*
X23090Y10225D02*
X23110D01*
X23100Y10215D02*
Y10235D01*
X22965Y10225D02*
X22985D01*
X22975Y10215D02*
Y10235D01*
X19940Y10450D02*
X19960D01*
X19950Y10440D02*
Y10460D01*
X21543Y8080D02*
X21562D01*
X21552Y8070D02*
Y8090D01*
X23305Y12047D02*
X23325D01*
X23315Y12038D02*
Y12057D01*
X23320Y12488D02*
X23340D01*
X23330Y12478D02*
Y12497D01*
X23457Y13295D02*
X23477D01*
X23468Y13285D02*
Y13305D01*
X23212Y12973D02*
X23232D01*
X23223Y12962D02*
Y12982D01*
X22910Y10295D02*
X22930D01*
X22920Y10285D02*
Y10305D01*
X20662Y7345D02*
X20682D01*
X20673Y7335D02*
Y7355D01*
X23393Y10132D02*
X23412D01*
X23402Y10122D02*
Y10143D01*
X20477Y7278D02*
X20498D01*
X20488Y7268D02*
Y7288D01*
X23090Y10400D02*
X23110D01*
X23100Y10390D02*
Y10410D01*
X19815Y10675D02*
X19835D01*
X19825Y10665D02*
Y10685D01*
X21815Y10700D02*
X21835D01*
X21825Y10690D02*
Y10710D01*
X20565Y7500D02*
X20585D01*
X20575Y7490D02*
Y7510D01*
X22265Y7500D02*
X22285D01*
X22275Y7490D02*
Y7510D01*
X22370Y7630D02*
X22390D01*
X22380Y7620D02*
Y7640D01*
X21430Y8560D02*
X21450D01*
X21440Y8550D02*
Y8570D01*
X21793Y8293D02*
X21812D01*
X21802Y8282D02*
Y8303D01*
X22445Y7682D02*
X22465D01*
X22455Y7672D02*
Y7693D01*
X22548Y7480D02*
X22568D01*
X22557Y7470D02*
Y7490D01*
X19530Y10068D02*
X19550D01*
X19540Y10057D02*
Y10078D01*
X19667Y11460D02*
X19687D01*
X19677Y11450D02*
Y11470D01*
X21412Y9222D02*
X21432D01*
X21423Y9212D02*
Y9232D01*
X20293Y8590D02*
X20312D01*
X20302Y8580D02*
Y8600D01*
X20293Y8788D02*
X20312D01*
X20302Y8778D02*
Y8797D01*
X20590Y8932D02*
X20610D01*
X20600Y8922D02*
Y8943D01*
X19312Y9820D02*
X19332D01*
X19323Y9810D02*
Y9830D01*
X20050Y9818D02*
X20070D01*
X20060Y9807D02*
Y9828D01*
X19877Y9818D02*
X19898D01*
X19888Y9807D02*
Y9828D01*
X20632Y9820D02*
X20652D01*
X20643Y9810D02*
Y9830D01*
X19130Y9812D02*
X19150D01*
X19140Y9803D02*
Y9822D01*
X19015Y9300D02*
X19035D01*
X19025Y9290D02*
Y9310D01*
X18865Y9300D02*
X18885D01*
X18875Y9290D02*
Y9310D01*
X18865Y9425D02*
X18885D01*
X18875Y9415D02*
Y9435D01*
X18865Y9550D02*
X18885D01*
X18875Y9540D02*
Y9560D01*
X18865Y9675D02*
X18885D01*
X18875Y9665D02*
Y9685D01*
X19265Y8525D02*
X19285D01*
X19275Y8515D02*
Y8535D01*
X19365Y8407D02*
X19385D01*
X19375Y8397D02*
Y8418D01*
X19565Y8750D02*
X19585D01*
X19575Y8740D02*
Y8760D01*
X19765Y8650D02*
X19785D01*
X19775Y8640D02*
Y8660D01*
X9387Y7249D02*
X9407D01*
X9397Y7239D02*
Y7259D01*
X18545Y11820D02*
X18565D01*
X18555Y11810D02*
Y11830D01*
X18550Y12097D02*
X18570D01*
X18560Y12088D02*
Y12107D01*
X18545Y12370D02*
X18565D01*
X18555Y12360D02*
Y12380D01*
X11995Y6038D02*
X12015D01*
X12005Y6028D02*
Y6047D01*
X16390Y7100D02*
X16410D01*
X16400Y7090D02*
Y7110D01*
X15990Y7725D02*
X16010D01*
X16000Y7715D02*
Y7735D01*
X19967Y12535D02*
X19987D01*
X19977Y12525D02*
Y12545D01*
X19917Y12635D02*
X19937D01*
X19927Y12625D02*
Y12645D01*
X19492Y12060D02*
X19512D01*
X19502Y12050D02*
Y12070D01*
X19692Y12485D02*
X19712D01*
X19702Y12475D02*
Y12495D01*
X20342Y12335D02*
X20362D01*
X20352Y12325D02*
Y12345D01*
X21017Y11365D02*
X21037D01*
X21027Y11355D02*
Y11375D01*
X21135Y11529D02*
X21155D01*
X21145Y11519D02*
Y11539D01*
X18979Y11430D02*
X18999D01*
X18989Y11420D02*
Y11440D01*
X19092Y11548D02*
X19112D01*
X19102Y11538D02*
Y11558D01*
X22337Y11075D02*
X22357D01*
X22347Y11065D02*
Y11085D01*
X22337Y11300D02*
X22357D01*
X22347Y11290D02*
Y11310D01*
X20382Y11315D02*
X20402D01*
X20392Y11305D02*
Y11325D01*
X20382Y11090D02*
X20402D01*
X20392Y11080D02*
Y11100D01*
X20692Y11735D02*
X20712D01*
X20702Y11725D02*
Y11745D01*
X20592Y11735D02*
X20612D01*
X20602Y11725D02*
Y11745D01*
X20492Y11735D02*
X20512D01*
X20502Y11725D02*
Y11745D01*
X20492Y11660D02*
X20512D01*
X20502Y11650D02*
Y11670D01*
X20592Y11660D02*
X20612D01*
X20602Y11650D02*
Y11670D01*
X20692Y11660D02*
X20712D01*
X20702Y11650D02*
Y11670D01*
X20692Y11585D02*
X20712D01*
X20702Y11575D02*
Y11595D01*
X20592Y11585D02*
X20612D01*
X20602Y11575D02*
Y11595D01*
X20492Y11585D02*
X20512D01*
X20502Y11575D02*
Y11595D01*
X20392Y11760D02*
X20412D01*
X20402Y11750D02*
Y11770D01*
X21665Y11773D02*
X21685D01*
X21675Y11763D02*
Y11783D01*
X19667Y11635D02*
X19687D01*
X19677Y11625D02*
Y11645D01*
X22407Y12884D02*
X22427D01*
X22417Y12874D02*
Y12894D01*
X20390Y12923D02*
X20410D01*
X20400Y12913D02*
Y12933D01*
X20740Y12474D02*
X20760D01*
X20750Y12464D02*
Y12484D01*
X20740Y12705D02*
X20760D01*
X20750Y12695D02*
Y12715D01*
X20740Y12915D02*
X20760D01*
X20750Y12905D02*
Y12925D01*
X20450Y13160D02*
X20470D01*
X20460Y13150D02*
Y13170D01*
X20573Y13160D02*
X20593D01*
X20583Y13150D02*
Y13170D01*
X20697Y13160D02*
X20717D01*
X20707Y13150D02*
Y13170D01*
X22622Y11700D02*
X22642D01*
X22632Y11690D02*
Y11710D01*
X22267Y11790D02*
X22287D01*
X22277Y11780D02*
Y11800D01*
X22517Y11700D02*
X22537D01*
X22527Y11690D02*
Y11710D01*
X22567Y11640D02*
X22587D01*
X22577Y11630D02*
Y11650D01*
X22467Y11640D02*
X22487D01*
X22477Y11630D02*
Y11650D01*
X22760Y12408D02*
X22780D01*
X22770Y12398D02*
Y12418D01*
X22762Y12639D02*
X22782D01*
X22772Y12629D02*
Y12649D01*
X22762Y12860D02*
X22782D01*
X22772Y12850D02*
Y12870D01*
X22709Y13130D02*
X22729D01*
X22719Y13120D02*
Y13140D01*
X22586Y13130D02*
X22606D01*
X22596Y13120D02*
Y13140D01*
X22462Y13130D02*
X22482D01*
X22472Y13120D02*
Y13140D01*
X21825Y13080D02*
X21845D01*
X21835Y13070D02*
Y13090D01*
X22402Y12313D02*
X22422D01*
X22412Y12303D02*
Y12323D01*
X21665Y11435D02*
X21685D01*
X21675Y11425D02*
Y11445D01*
X22332Y12138D02*
X22352D01*
X22342Y12128D02*
Y12148D01*
X21372Y11310D02*
X21392D01*
X21382Y11300D02*
Y11320D01*
X22337Y11655D02*
X22357D01*
X22347Y11645D02*
Y11665D01*
X21997Y12495D02*
X22017D01*
X22007Y12485D02*
Y12505D01*
X21897Y12620D02*
X21917D01*
X21907Y12610D02*
Y12630D01*
X17065Y7325D02*
X17085D01*
X17075Y7315D02*
Y7335D01*
X14915Y7143D02*
X14935D01*
X14925Y7132D02*
Y7153D01*
X14270Y8825D02*
X14330D01*
X14300Y8795D02*
Y8855D01*
X14720Y8825D02*
X14780D01*
X14750Y8795D02*
Y8855D01*
X14570Y8825D02*
X14630D01*
X14600Y8795D02*
Y8855D01*
X14420Y8825D02*
X14480D01*
X14450Y8795D02*
Y8855D01*
X14720Y8675D02*
X14780D01*
X14750Y8645D02*
Y8705D01*
X14570Y8675D02*
X14630D01*
X14600Y8645D02*
Y8705D01*
X14420Y8675D02*
X14480D01*
X14450Y8645D02*
Y8705D01*
X13820Y8675D02*
X13880D01*
X13850Y8645D02*
Y8705D01*
X13970Y8675D02*
X14030D01*
X14000Y8645D02*
Y8705D01*
X14120Y8675D02*
X14180D01*
X14150Y8645D02*
Y8705D01*
X14270Y8675D02*
X14330D01*
X14300Y8645D02*
Y8705D01*
X13245Y8675D02*
X13305D01*
X13275Y8645D02*
Y8705D01*
X13395Y8675D02*
X13455D01*
X13425Y8645D02*
Y8705D01*
X13545Y8675D02*
X13605D01*
X13575Y8645D02*
Y8705D01*
X13695Y8675D02*
X13755D01*
X13725Y8645D02*
Y8705D01*
X13095Y8675D02*
X13155D01*
X13125Y8645D02*
Y8705D01*
X12945Y8675D02*
X13005D01*
X12975Y8645D02*
Y8705D01*
X12795Y8675D02*
X12855D01*
X12825Y8645D02*
Y8705D01*
X12645Y8675D02*
X12705D01*
X12675Y8645D02*
Y8705D01*
X9250Y7488D02*
X9270D01*
X9260Y7478D02*
Y7497D01*
X9495Y6803D02*
X9515D01*
X9505Y6793D02*
Y6812D01*
X9493Y6585D02*
X9512D01*
X9503Y6575D02*
Y6595D01*
X9690Y12200D02*
X9710D01*
X9700Y12190D02*
Y12210D01*
X9490Y12025D02*
X9510D01*
X9500Y12015D02*
Y12035D01*
X9430Y10740D02*
X9450D01*
X9440Y10730D02*
Y10750D01*
X9990Y10175D02*
X10010D01*
X10000Y10165D02*
Y10185D01*
X12220Y7475D02*
X12280D01*
X12250Y7445D02*
Y7505D01*
X12445Y7475D02*
X12505D01*
X12475Y7445D02*
Y7505D01*
X10625Y8780D02*
X10645D01*
X10635Y8770D02*
Y8790D01*
X12109Y7638D02*
X12129D01*
X12119Y7628D02*
Y7647D01*
X11080Y8490D02*
X11100D01*
X11090Y8480D02*
Y8500D01*
X12220Y7600D02*
X12280D01*
X12250Y7570D02*
Y7630D01*
X10980Y8428D02*
X11000D01*
X10990Y8418D02*
Y8438D01*
X10880Y8760D02*
X10900D01*
X10890Y8750D02*
Y8770D01*
X12103Y7895D02*
X12122D01*
X12112Y7885D02*
Y7905D01*
X12445Y7750D02*
X12505D01*
X12475Y7720D02*
Y7780D01*
X16340Y8450D02*
X16360D01*
X16350Y8440D02*
Y8460D01*
X16004Y8239D02*
X16024D01*
X16014Y8229D02*
Y8249D01*
X15890Y8300D02*
X15910D01*
X15900Y8290D02*
Y8310D01*
X10935Y8565D02*
X10955D01*
X10945Y8555D02*
Y8575D01*
X14900Y8482D02*
X14960D01*
X14930Y8453D02*
Y8512D01*
X15002Y8557D02*
X15062D01*
X15032Y8528D02*
Y8588D01*
X11110Y8582D02*
X11130D01*
X11120Y8572D02*
Y8593D01*
X12570Y6775D02*
X12630D01*
X12600Y6745D02*
Y6805D01*
X14350Y7190D02*
X14410D01*
X14380Y7160D02*
Y7220D01*
X14890Y7275D02*
X14910D01*
X14900Y7265D02*
Y7285D01*
X11415Y6400D02*
X11435D01*
X11425Y6390D02*
Y6410D01*
X10905Y6167D02*
X10925D01*
X10915Y6158D02*
Y6178D01*
X9415Y6150D02*
X9435D01*
X9425Y6140D02*
Y6160D01*
X11415Y6175D02*
X11435D01*
X11425Y6165D02*
Y6185D01*
X11215Y6100D02*
X11235D01*
X11225Y6090D02*
Y6110D01*
X12240Y6900D02*
X12260D01*
X12250Y6890D02*
Y6910D01*
X12220Y7150D02*
X12280D01*
X12250Y7120D02*
Y7180D01*
X12445Y7150D02*
X12505D01*
X12475Y7120D02*
Y7180D01*
X16120Y5625D02*
X16180D01*
X16150Y5595D02*
Y5655D01*
X16320Y5625D02*
X16380D01*
X16350Y5595D02*
Y5655D01*
X16470Y5650D02*
X16530D01*
X16500Y5620D02*
Y5680D01*
X16120Y5775D02*
X16180D01*
X16150Y5745D02*
Y5805D01*
X16320Y5775D02*
X16380D01*
X16350Y5745D02*
Y5805D01*
X16520Y5775D02*
X16580D01*
X16550Y5745D02*
Y5805D01*
X16120Y5925D02*
X16180D01*
X16150Y5895D02*
Y5955D01*
X16320Y5925D02*
X16380D01*
X16350Y5895D02*
Y5955D01*
X16520Y6075D02*
X16580D01*
X16550Y6045D02*
Y6105D01*
X16320Y6075D02*
X16380D01*
X16350Y6045D02*
Y6105D01*
X16120Y6075D02*
X16180D01*
X16150Y6045D02*
Y6105D01*
X14995Y7600D02*
X15055D01*
X15025Y7570D02*
Y7630D01*
X14620Y8125D02*
X14680D01*
X14650Y8095D02*
Y8155D01*
X14620Y7975D02*
X14680D01*
X14650Y7945D02*
Y8005D01*
X15098Y8482D02*
X15157D01*
X15127Y8453D02*
Y8512D01*
X15415Y8150D02*
X15435D01*
X15425Y8140D02*
Y8160D01*
X10822Y8645D02*
X10843D01*
X10832Y8635D02*
Y8655D01*
X10758Y8540D02*
X10778D01*
X10768Y8530D02*
Y8550D01*
X13882Y7757D02*
X13902D01*
X13893Y7747D02*
Y7768D01*
X11725Y8022D02*
X11745D01*
X11735Y8012D02*
Y8032D01*
X10578Y7803D02*
X10597D01*
X10588Y7793D02*
Y7812D01*
X17273Y7917D02*
X17293D01*
X17282Y7907D02*
Y7927D01*
X13865Y7875D02*
X13885D01*
X13875Y7865D02*
Y7885D01*
X12283Y8762D02*
X12303D01*
X12293Y8752D02*
Y8772D01*
X12445Y8025D02*
X12505D01*
X12475Y7995D02*
Y8055D01*
X12220Y8025D02*
X12280D01*
X12250Y7995D02*
Y8055D01*
X12220Y7900D02*
X12280D01*
X12250Y7870D02*
Y7930D01*
X12445Y7900D02*
X12505D01*
X12475Y7870D02*
Y7930D01*
X16065Y7525D02*
X16085D01*
X16075Y7515D02*
Y7535D01*
X12720Y6775D02*
X12780D01*
X12750Y6745D02*
Y6805D01*
X12870Y6775D02*
X12930D01*
X12900Y6745D02*
Y6805D01*
X13020Y6775D02*
X13080D01*
X13050Y6745D02*
Y6805D01*
X13170Y6775D02*
X13230D01*
X13200Y6745D02*
Y6805D01*
X13170Y6900D02*
X13230D01*
X13200Y6870D02*
Y6930D01*
X13170Y7050D02*
X13230D01*
X13200Y7020D02*
Y7080D01*
X15420Y5650D02*
X15480D01*
X15450Y5620D02*
Y5680D01*
X15545Y5775D02*
X15605D01*
X15575Y5745D02*
Y5805D01*
X15420Y5775D02*
X15480D01*
X15450Y5745D02*
Y5805D01*
X15295Y5775D02*
X15355D01*
X15325Y5745D02*
Y5805D01*
X15295Y5650D02*
X15355D01*
X15325Y5620D02*
Y5680D01*
X15295Y5525D02*
X15355D01*
X15325Y5495D02*
Y5555D01*
X15170Y5525D02*
X15230D01*
X15200Y5495D02*
Y5555D01*
X15170Y5650D02*
X15230D01*
X15200Y5620D02*
Y5680D01*
X15170Y5775D02*
X15230D01*
X15200Y5745D02*
Y5805D01*
X14895Y5525D02*
X14955D01*
X14925Y5495D02*
Y5555D01*
X14895Y5650D02*
X14955D01*
X14925Y5620D02*
Y5680D01*
X15045Y5525D02*
X15105D01*
X15075Y5495D02*
Y5555D01*
X15045Y5650D02*
X15105D01*
X15075Y5620D02*
Y5680D01*
X15045Y5775D02*
X15105D01*
X15075Y5745D02*
Y5805D01*
X15045Y5900D02*
X15105D01*
X15075Y5870D02*
Y5930D01*
X15045Y6025D02*
X15105D01*
X15075Y5995D02*
Y6055D01*
X15045Y6150D02*
X15105D01*
X15075Y6120D02*
Y6180D01*
X15495Y6725D02*
X15555D01*
X15525Y6695D02*
Y6755D01*
X15345Y6725D02*
X15405D01*
X15375Y6695D02*
Y6755D01*
X15195Y6725D02*
X15255D01*
X15225Y6695D02*
Y6755D01*
X15345Y6850D02*
X15405D01*
X15375Y6820D02*
Y6880D01*
X15195Y6850D02*
X15255D01*
X15225Y6820D02*
Y6880D01*
X15045Y6475D02*
X15105D01*
X15075Y6445D02*
Y6505D01*
X15045Y6600D02*
X15105D01*
X15075Y6570D02*
Y6630D01*
X15045Y6725D02*
X15105D01*
X15075Y6695D02*
Y6755D01*
X15045Y6850D02*
X15105D01*
X15075Y6820D02*
Y6880D01*
X13823Y6200D02*
X13882D01*
X13852Y6170D02*
Y6230D01*
X14765Y7418D02*
X14785D01*
X14775Y7407D02*
Y7428D01*
X14215Y7190D02*
X14275D01*
X14245Y7160D02*
Y7220D01*
X14885Y7025D02*
X14905D01*
X14895Y7015D02*
Y7035D01*
X16115Y6380D02*
X16135D01*
X16125Y6370D02*
Y6390D01*
X14290Y7307D02*
X14310D01*
X14300Y7297D02*
Y7318D01*
X12445Y7600D02*
X12505D01*
X12475Y7570D02*
Y7630D01*
X12445Y7300D02*
X12505D01*
X12475Y7270D02*
Y7330D01*
X12220Y7300D02*
X12280D01*
X12250Y7270D02*
Y7330D01*
X12220Y7750D02*
X12280D01*
X12250Y7720D02*
Y7780D01*
X13800Y7450D02*
X13820D01*
X13810Y7440D02*
Y7460D01*
X13470Y7362D02*
X13490D01*
X13480Y7353D02*
Y7372D01*
X13670Y6200D02*
X13730D01*
X13700Y6170D02*
Y6230D01*
X13520Y6200D02*
X13580D01*
X13550Y6170D02*
Y6230D01*
X13345Y6200D02*
X13405D01*
X13375Y6170D02*
Y6230D01*
X13195Y6200D02*
X13255D01*
X13225Y6170D02*
Y6230D01*
X13045Y6200D02*
X13105D01*
X13075Y6170D02*
Y6230D01*
X12895Y6050D02*
X12955D01*
X12925Y6020D02*
Y6080D01*
X13045Y6050D02*
X13105D01*
X13075Y6020D02*
Y6080D01*
X13195Y6050D02*
X13255D01*
X13225Y6020D02*
Y6080D01*
X13345Y6050D02*
X13405D01*
X13375Y6020D02*
Y6080D01*
X13520Y6050D02*
X13580D01*
X13550Y6020D02*
Y6080D01*
X13670Y6050D02*
X13730D01*
X13700Y6020D02*
Y6080D01*
X13820Y6050D02*
X13880D01*
X13850Y6020D02*
Y6080D01*
X12895Y5875D02*
X12955D01*
X12925Y5845D02*
Y5905D01*
X13045Y5875D02*
X13105D01*
X13075Y5845D02*
Y5905D01*
X13195Y5875D02*
X13255D01*
X13225Y5845D02*
Y5905D01*
X13345Y5875D02*
X13405D01*
X13375Y5845D02*
Y5905D01*
X13520Y5875D02*
X13580D01*
X13550Y5845D02*
Y5905D01*
X13670Y5875D02*
X13730D01*
X13700Y5845D02*
Y5905D01*
X13820Y5875D02*
X13880D01*
X13850Y5845D02*
Y5905D01*
X13820Y5700D02*
X13880D01*
X13850Y5670D02*
Y5730D01*
X13670Y5700D02*
X13730D01*
X13700Y5670D02*
Y5730D01*
X13520Y5700D02*
X13580D01*
X13550Y5670D02*
Y5730D01*
X13345Y5700D02*
X13405D01*
X13375Y5670D02*
Y5730D01*
X13195Y5700D02*
X13255D01*
X13225Y5670D02*
Y5730D01*
X13045Y5700D02*
X13105D01*
X13075Y5670D02*
Y5730D01*
X12895Y5700D02*
X12955D01*
X12925Y5670D02*
Y5730D01*
X11345Y13175D02*
X11405D01*
X11375Y13145D02*
Y13205D01*
X11195Y13075D02*
X11255D01*
X11225Y13045D02*
Y13105D01*
X11045Y13075D02*
X11105D01*
X11075Y13045D02*
Y13105D01*
X10895Y13075D02*
X10955D01*
X10925Y13045D02*
Y13105D01*
X10745Y13075D02*
X10805D01*
X10775Y13045D02*
Y13105D01*
X10595Y13075D02*
X10655D01*
X10625Y13045D02*
Y13105D01*
X11395Y12300D02*
X11455D01*
X11425Y12270D02*
Y12330D01*
X11245Y12300D02*
X11305D01*
X11275Y12270D02*
Y12330D01*
X11095Y12300D02*
X11155D01*
X11125Y12270D02*
Y12330D01*
X10945Y12300D02*
X11005D01*
X10975Y12270D02*
Y12330D01*
X10795Y12300D02*
X10855D01*
X10825Y12270D02*
Y12330D01*
X10620Y12300D02*
X10680D01*
X10650Y12270D02*
Y12330D01*
X6900Y6515D02*
X6960D01*
X6930Y6485D02*
Y6545D01*
X6900Y6390D02*
X6960D01*
X6930Y6360D02*
Y6420D01*
X6900Y6265D02*
X6960D01*
X6930Y6235D02*
Y6295D01*
X7270Y8000D02*
X7330D01*
X7300Y7970D02*
Y8030D01*
X7145Y8000D02*
X7205D01*
X7175Y7970D02*
Y8030D01*
X7020Y8000D02*
X7080D01*
X7050Y7970D02*
Y8030D01*
X7270Y8125D02*
X7330D01*
X7300Y8095D02*
Y8155D01*
X7145Y8125D02*
X7205D01*
X7175Y8095D02*
Y8155D01*
X7020Y8125D02*
X7080D01*
X7050Y8095D02*
Y8155D01*
X7270Y8250D02*
X7330D01*
X7300Y8220D02*
Y8280D01*
X7145Y8250D02*
X7205D01*
X7175Y8220D02*
Y8280D01*
X7020Y8250D02*
X7080D01*
X7050Y8220D02*
Y8280D01*
X6045Y10125D02*
X6105D01*
X6075Y10095D02*
Y10155D01*
X6170Y10125D02*
X6230D01*
X6200Y10095D02*
Y10155D01*
X6295Y10125D02*
X6355D01*
X6325Y10095D02*
Y10155D01*
X6420Y10125D02*
X6480D01*
X6450Y10095D02*
Y10155D01*
X6545Y10125D02*
X6605D01*
X6575Y10095D02*
Y10155D01*
X6670Y10125D02*
X6730D01*
X6700Y10095D02*
Y10155D01*
X6045Y9725D02*
X6105D01*
X6075Y9695D02*
Y9755D01*
X6170Y9725D02*
X6230D01*
X6200Y9695D02*
Y9755D01*
X6295Y9725D02*
X6355D01*
X6325Y9695D02*
Y9755D01*
X6420Y9725D02*
X6480D01*
X6450Y9695D02*
Y9755D01*
X6545Y9725D02*
X6605D01*
X6575Y9695D02*
Y9755D01*
X6670Y9725D02*
X6730D01*
X6700Y9695D02*
Y9755D01*
X6045Y9825D02*
X6105D01*
X6075Y9795D02*
Y9855D01*
X6170Y9825D02*
X6230D01*
X6200Y9795D02*
Y9855D01*
X6295Y9825D02*
X6355D01*
X6325Y9795D02*
Y9855D01*
X6420Y9825D02*
X6480D01*
X6450Y9795D02*
Y9855D01*
X6545Y9825D02*
X6605D01*
X6575Y9795D02*
Y9855D01*
X6670Y9825D02*
X6730D01*
X6700Y9795D02*
Y9855D01*
X6045Y9925D02*
X6105D01*
X6075Y9895D02*
Y9955D01*
X6170Y9925D02*
X6230D01*
X6200Y9895D02*
Y9955D01*
X6295Y9925D02*
X6355D01*
X6325Y9895D02*
Y9955D01*
X6420Y9925D02*
X6480D01*
X6450Y9895D02*
Y9955D01*
X6545Y9925D02*
X6605D01*
X6575Y9895D02*
Y9955D01*
X6670Y9925D02*
X6730D01*
X6700Y9895D02*
Y9955D01*
X6670Y10025D02*
X6730D01*
X6700Y9995D02*
Y10055D01*
X6545Y10025D02*
X6605D01*
X6575Y9995D02*
Y10055D01*
X6420Y10025D02*
X6480D01*
X6450Y9995D02*
Y10055D01*
X6295Y10025D02*
X6355D01*
X6325Y9995D02*
Y10055D01*
X6170Y10025D02*
X6230D01*
X6200Y9995D02*
Y10055D01*
X6045Y10025D02*
X6105D01*
X6075Y9995D02*
Y10055D01*
X9030Y10820D02*
X9050D01*
X9040Y10810D02*
Y10830D01*
X7010Y7100D02*
X7030D01*
X7020Y7090D02*
Y7110D01*
X17645Y13050D02*
X17705D01*
X17675Y13020D02*
Y13080D01*
X17645Y13500D02*
X17705D01*
X17675Y13470D02*
Y13530D01*
X17645Y13350D02*
X17705D01*
X17675Y13320D02*
Y13380D01*
X17645Y13200D02*
X17705D01*
X17675Y13170D02*
Y13230D01*
X17795Y13500D02*
X17855D01*
X17825Y13470D02*
Y13530D01*
X17795Y13350D02*
X17855D01*
X17825Y13320D02*
Y13380D01*
X17795Y13200D02*
X17855D01*
X17825Y13170D02*
Y13230D01*
X17795Y12600D02*
X17855D01*
X17825Y12570D02*
Y12630D01*
X17795Y12750D02*
X17855D01*
X17825Y12720D02*
Y12780D01*
X17795Y12900D02*
X17855D01*
X17825Y12870D02*
Y12930D01*
X17795Y13050D02*
X17855D01*
X17825Y13020D02*
Y13080D01*
X17795Y10050D02*
X17855D01*
X17825Y10020D02*
Y10080D01*
X17495Y10050D02*
X17555D01*
X17525Y10020D02*
Y10080D01*
X17495Y10500D02*
X17555D01*
X17525Y10470D02*
Y10530D01*
X17495Y10650D02*
X17555D01*
X17525Y10620D02*
Y10680D01*
X17295Y10500D02*
X17355D01*
X17325Y10470D02*
Y10530D01*
X17295Y9975D02*
X17355D01*
X17325Y9945D02*
Y10005D01*
X16995Y10575D02*
X17055D01*
X17025Y10545D02*
Y10605D01*
X16995Y10425D02*
X17055D01*
X17025Y10395D02*
Y10455D01*
X16995Y10275D02*
X17055D01*
X17025Y10245D02*
Y10305D01*
X17095Y10425D02*
X17155D01*
X17125Y10395D02*
Y10455D01*
X17095Y9975D02*
X17155D01*
X17125Y9945D02*
Y10005D01*
X17195Y10425D02*
X17255D01*
X17225Y10395D02*
Y10455D01*
X17195Y10275D02*
X17255D01*
X17225Y10245D02*
Y10305D01*
X17195Y10125D02*
X17255D01*
X17225Y10095D02*
Y10155D01*
X17195Y9975D02*
X17255D01*
X17225Y9945D02*
Y10005D01*
X17645Y10650D02*
X17705D01*
X17675Y10620D02*
Y10680D01*
X17645Y10500D02*
X17705D01*
X17675Y10470D02*
Y10530D01*
X17645Y10350D02*
X17705D01*
X17675Y10320D02*
Y10380D01*
X17645Y10200D02*
X17705D01*
X17675Y10170D02*
Y10230D01*
X17645Y10050D02*
X17705D01*
X17675Y10020D02*
Y10080D01*
X17495Y11400D02*
X17555D01*
X17525Y11370D02*
Y11430D01*
X17495Y11250D02*
X17555D01*
X17525Y11220D02*
Y11280D01*
X17495Y11100D02*
X17555D01*
X17525Y11070D02*
Y11130D01*
X17495Y10950D02*
X17555D01*
X17525Y10920D02*
Y10980D01*
X17495Y10800D02*
X17555D01*
X17525Y10770D02*
Y10830D01*
X17645Y11400D02*
X17705D01*
X17675Y11370D02*
Y11430D01*
X17645Y11250D02*
X17705D01*
X17675Y11220D02*
Y11280D01*
X17645Y11100D02*
X17705D01*
X17675Y11070D02*
Y11130D01*
X17645Y10950D02*
X17705D01*
X17675Y10920D02*
Y10980D01*
X17645Y10800D02*
X17705D01*
X17675Y10770D02*
Y10830D01*
X17795Y10825D02*
X17855D01*
X17825Y10795D02*
Y10855D01*
X17795Y10675D02*
X17855D01*
X17825Y10645D02*
Y10705D01*
X17795Y10525D02*
X17855D01*
X17825Y10495D02*
Y10555D01*
X17795Y10375D02*
X17855D01*
X17825Y10345D02*
Y10405D01*
X17795Y10225D02*
X17855D01*
X17825Y10195D02*
Y10255D01*
X17795Y11550D02*
X17855D01*
X17825Y11520D02*
Y11580D01*
X17795Y11400D02*
X17855D01*
X17825Y11370D02*
Y11430D01*
X17795Y11250D02*
X17855D01*
X17825Y11220D02*
Y11280D01*
X17795Y11100D02*
X17855D01*
X17825Y11070D02*
Y11130D01*
X17795Y12000D02*
X17855D01*
X17825Y11970D02*
Y12030D01*
X17795Y11850D02*
X17855D01*
X17825Y11820D02*
Y11880D01*
X17795Y11700D02*
X17855D01*
X17825Y11670D02*
Y11730D01*
X16420Y11625D02*
X16480D01*
X16450Y11595D02*
Y11655D01*
X16870Y11625D02*
X16930D01*
X16900Y11595D02*
Y11655D01*
X17320Y11700D02*
X17380D01*
X17350Y11670D02*
Y11730D01*
X17320Y11850D02*
X17380D01*
X17350Y11820D02*
Y11880D01*
X17320Y12150D02*
X17380D01*
X17350Y12120D02*
Y12180D01*
X16530Y9838D02*
X16550D01*
X16540Y9828D02*
Y9847D01*
X16687Y10496D02*
X16707D01*
X16697Y10486D02*
Y10506D01*
X16765Y12243D02*
X16785D01*
X16775Y12232D02*
Y12253D01*
X16960Y11880D02*
X16980D01*
X16970Y11870D02*
Y11890D01*
X16750Y11472D02*
X16770D01*
X16760Y11462D02*
Y11482D01*
X13790Y13300D02*
X13850D01*
X13820Y13270D02*
Y13330D01*
X13940Y13300D02*
X14000D01*
X13970Y13270D02*
Y13330D01*
X14090Y13300D02*
X14150D01*
X14120Y13270D02*
Y13330D01*
X14240Y13300D02*
X14300D01*
X14270Y13270D02*
Y13330D01*
X13790Y13520D02*
X13850D01*
X13820Y13490D02*
Y13550D01*
X13940Y13520D02*
X14000D01*
X13970Y13490D02*
Y13550D01*
X14090Y13520D02*
X14150D01*
X14120Y13490D02*
Y13550D01*
X14240Y13520D02*
X14300D01*
X14270Y13490D02*
Y13550D01*
X13190Y13520D02*
X13250D01*
X13220Y13490D02*
Y13550D01*
X13340Y13520D02*
X13400D01*
X13370Y13490D02*
Y13550D01*
X13490Y13520D02*
X13550D01*
X13520Y13490D02*
Y13550D01*
X13640Y13520D02*
X13700D01*
X13670Y13490D02*
Y13550D01*
X13560Y12520D02*
X13620D01*
X13590Y12490D02*
Y12550D01*
X13360Y12520D02*
X13420D01*
X13390Y12490D02*
Y12550D01*
X13160Y12520D02*
X13220D01*
X13190Y12490D02*
Y12550D01*
X13560Y12720D02*
X13620D01*
X13590Y12690D02*
Y12750D01*
X13360Y12720D02*
X13420D01*
X13390Y12690D02*
Y12750D01*
X13160Y12720D02*
X13220D01*
X13190Y12690D02*
Y12750D01*
X13160Y12920D02*
X13220D01*
X13190Y12890D02*
Y12950D01*
X13360Y12920D02*
X13420D01*
X13390Y12890D02*
Y12950D01*
X13560Y12920D02*
X13620D01*
X13590Y12890D02*
Y12950D01*
X14930Y13020D02*
X14950D01*
X14940Y13010D02*
Y13030D01*
X14930Y12960D02*
X14950D01*
X14940Y12950D02*
Y12970D01*
X15050Y12900D02*
X15070D01*
X15060Y12890D02*
Y12910D01*
X14990Y12900D02*
X15010D01*
X15000Y12890D02*
Y12910D01*
X14930Y12900D02*
X14950D01*
X14940Y12890D02*
Y12910D01*
X15050Y12840D02*
X15070D01*
X15060Y12830D02*
Y12850D01*
X14990Y12840D02*
X15010D01*
X15000Y12830D02*
Y12850D01*
X14930Y12840D02*
X14950D01*
X14940Y12830D02*
Y12850D01*
X15030Y13180D02*
X15050D01*
X15040Y13170D02*
Y13190D01*
X14980Y13180D02*
X15000D01*
X14990Y13170D02*
Y13190D01*
X14930Y13180D02*
X14950D01*
X14940Y13170D02*
Y13190D01*
X14930Y13230D02*
X14950D01*
X14940Y13220D02*
Y13240D01*
X14930Y13280D02*
X14950D01*
X14940Y13270D02*
Y13290D01*
X14930Y13340D02*
X14950D01*
X14940Y13330D02*
Y13350D01*
X16520Y12800D02*
X16580D01*
X16550Y12770D02*
Y12830D01*
X16520Y13200D02*
X16580D01*
X16550Y13170D02*
Y13230D01*
X16520Y13350D02*
X16580D01*
X16550Y13320D02*
Y13380D01*
X16520Y13500D02*
X16580D01*
X16550Y13470D02*
Y13530D01*
X16170Y12600D02*
X16230D01*
X16200Y12570D02*
Y12630D01*
X16320Y12600D02*
X16380D01*
X16350Y12570D02*
Y12630D01*
X16420Y12600D02*
X16480D01*
X16450Y12570D02*
Y12630D01*
X16320Y12750D02*
X16380D01*
X16350Y12720D02*
Y12780D01*
X16320Y12450D02*
X16380D01*
X16350Y12420D02*
Y12480D01*
X16170Y12450D02*
X16230D01*
X16200Y12420D02*
Y12480D01*
X16020Y12450D02*
X16080D01*
X16050Y12420D02*
Y12480D01*
X15870Y12450D02*
X15930D01*
X15900Y12420D02*
Y12480D01*
X15570Y12450D02*
X15630D01*
X15600Y12420D02*
Y12480D01*
X15420Y12450D02*
X15480D01*
X15450Y12420D02*
Y12480D01*
X15270Y12450D02*
X15330D01*
X15300Y12420D02*
Y12480D01*
X15120Y12450D02*
X15180D01*
X15150Y12420D02*
Y12480D01*
X15970Y12900D02*
X16030D01*
X16000Y12870D02*
Y12930D01*
X15820Y12900D02*
X15880D01*
X15850Y12870D02*
Y12930D01*
X15670Y12900D02*
X15730D01*
X15700Y12870D02*
Y12930D01*
X15520Y12900D02*
X15580D01*
X15550Y12870D02*
Y12930D01*
X16270Y13050D02*
X16330D01*
X16300Y13020D02*
Y13080D01*
X16120Y13050D02*
X16180D01*
X16150Y13020D02*
Y13080D01*
X15970Y13050D02*
X16030D01*
X16000Y13020D02*
Y13080D01*
X15820Y13050D02*
X15880D01*
X15850Y13020D02*
Y13080D01*
X15670Y13050D02*
X15730D01*
X15700Y13020D02*
Y13080D01*
X15520Y13050D02*
X15580D01*
X15550Y13020D02*
Y13080D01*
X16420Y13200D02*
X16480D01*
X16450Y13170D02*
Y13230D01*
X16270Y13200D02*
X16330D01*
X16300Y13170D02*
Y13230D01*
X16120Y13200D02*
X16180D01*
X16150Y13170D02*
Y13230D01*
X15970Y13200D02*
X16030D01*
X16000Y13170D02*
Y13230D01*
X15820Y13200D02*
X15880D01*
X15850Y13170D02*
Y13230D01*
X15670Y13200D02*
X15730D01*
X15700Y13170D02*
Y13230D01*
X15520Y13200D02*
X15580D01*
X15550Y13170D02*
Y13230D01*
X15370Y13200D02*
X15430D01*
X15400Y13170D02*
Y13230D01*
X16420Y13350D02*
X16480D01*
X16450Y13320D02*
Y13380D01*
X16270Y13350D02*
X16330D01*
X16300Y13320D02*
Y13380D01*
X16120Y13350D02*
X16180D01*
X16150Y13320D02*
Y13380D01*
X15970Y13350D02*
X16030D01*
X16000Y13320D02*
Y13380D01*
X15820Y13350D02*
X15880D01*
X15850Y13320D02*
Y13380D01*
X15670Y13350D02*
X15730D01*
X15700Y13320D02*
Y13380D01*
X15520Y13350D02*
X15580D01*
X15550Y13320D02*
Y13380D01*
X15370Y13350D02*
X15430D01*
X15400Y13320D02*
Y13380D01*
X16420Y13500D02*
X16480D01*
X16450Y13470D02*
Y13530D01*
X16270Y13500D02*
X16330D01*
X16300Y13470D02*
Y13530D01*
X16120Y13500D02*
X16180D01*
X16150Y13470D02*
Y13530D01*
X15970Y13500D02*
X16030D01*
X16000Y13470D02*
Y13530D01*
X15820Y13500D02*
X15880D01*
X15850Y13470D02*
Y13530D01*
X15670Y13500D02*
X15730D01*
X15700Y13470D02*
Y13530D01*
X15520Y13500D02*
X15580D01*
X15550Y13470D02*
Y13530D01*
X15370Y13500D02*
X15430D01*
X15400Y13470D02*
Y13530D01*
X13845Y13125D02*
X13905D01*
X13875Y13095D02*
Y13155D01*
X13845Y13025D02*
X13905D01*
X13875Y12995D02*
Y13055D01*
X13845Y12925D02*
X13905D01*
X13875Y12895D02*
Y12955D01*
X13845Y12825D02*
X13905D01*
X13875Y12795D02*
Y12855D01*
X13845Y12725D02*
X13905D01*
X13875Y12695D02*
Y12755D01*
X13845Y12625D02*
X13905D01*
X13875Y12595D02*
Y12655D01*
X13745Y12725D02*
X13805D01*
X13775Y12695D02*
Y12755D01*
X13745Y12825D02*
X13805D01*
X13775Y12795D02*
Y12855D01*
X13745Y12925D02*
X13805D01*
X13775Y12895D02*
Y12955D01*
X13745Y13025D02*
X13805D01*
X13775Y12995D02*
Y13055D01*
X13745Y13125D02*
X13805D01*
X13775Y13095D02*
Y13155D01*
X15223Y12848D02*
X15243D01*
X15232Y12838D02*
Y12857D01*
X14698Y13095D02*
X14718D01*
X14707Y13085D02*
Y13105D01*
X7510Y10160D02*
X7530D01*
X7520Y10150D02*
Y10170D01*
X7253Y9910D02*
X7272D01*
X7262Y9900D02*
Y9920D01*
X9628Y9168D02*
X9648D01*
X9638Y9158D02*
Y9178D01*
X9448Y8988D02*
X9468D01*
X9458Y8978D02*
Y8998D01*
X9195Y8920D02*
X9215D01*
X9205Y8910D02*
Y8930D01*
X9412Y11188D02*
X9432D01*
X9422Y11178D02*
Y11197D01*
X9470Y11235D02*
X9490D01*
X9480Y11225D02*
Y11245D01*
X9445Y13285D02*
X9465D01*
X9455Y13275D02*
Y13295D01*
X9265Y8760D02*
X9285D01*
X9275Y8750D02*
Y8770D01*
X9145Y13282D02*
X9165D01*
X9155Y13273D02*
Y13293D01*
X7735Y11525D02*
X7755D01*
X7745Y11515D02*
Y11535D01*
X7380Y11400D02*
X7400D01*
X7390Y11390D02*
Y11410D01*
X7857Y12780D02*
X7878D01*
X7868Y12770D02*
Y12790D01*
X7575Y12778D02*
X7595D01*
X7585Y12768D02*
Y12788D01*
X7675Y12500D02*
X7695D01*
X7685Y12490D02*
Y12510D01*
X7855Y12497D02*
X7875D01*
X7865Y12488D02*
Y12507D01*
X8045Y12500D02*
X8065D01*
X8055Y12490D02*
Y12510D01*
X8135Y12782D02*
X8155D01*
X8145Y12772D02*
Y12793D01*
X8043Y13060D02*
X8062D01*
X8053Y13050D02*
Y13070D01*
X7853Y13057D02*
X7872D01*
X7862Y13048D02*
Y13068D01*
X7670Y13057D02*
X7690D01*
X7680Y13048D02*
Y13068D01*
X8680Y13530D02*
X8700D01*
X8690Y13520D02*
Y13540D01*
X7230Y13532D02*
X7250D01*
X7240Y13523D02*
Y13543D01*
X7385Y11907D02*
X7405D01*
X7395Y11897D02*
Y11918D01*
X12750Y9722D02*
X12770D01*
X12760Y9712D02*
Y9732D01*
X6115Y10407D02*
X6135D01*
X6125Y10397D02*
Y10418D01*
X6545Y10412D02*
X6565D01*
X6555Y10403D02*
Y10422D01*
X6545Y11660D02*
X6565D01*
X6555Y11650D02*
Y11670D01*
X6130Y11660D02*
X6150D01*
X6140Y11650D02*
Y11670D01*
X6735Y10875D02*
X6755D01*
X6745Y10865D02*
Y10885D01*
X8707Y10725D02*
X8728D01*
X8718Y10715D02*
Y10735D01*
X11265Y10582D02*
X11285D01*
X11275Y10572D02*
Y10593D01*
X11183Y10576D02*
X11203D01*
X11193Y10566D02*
Y10586D01*
X11118Y10572D02*
X11138D01*
X11128Y10562D02*
Y10582D01*
X11038Y10575D02*
X11057D01*
X11047Y10565D02*
Y10585D01*
X11120Y10260D02*
X11140D01*
X11130Y10250D02*
Y10270D01*
X11891Y10573D02*
X11911D01*
X11901Y10563D02*
Y10583D01*
X11455Y9255D02*
X11475D01*
X11465Y9245D02*
Y9265D01*
X10082Y10300D02*
X10103D01*
X10093Y10290D02*
Y10310D01*
X9188Y10040D02*
X9207D01*
X9197Y10030D02*
Y10050D01*
X9138Y10097D02*
X9157D01*
X9147Y10088D02*
Y10107D01*
X8960Y9830D02*
X8980D01*
X8970Y9820D02*
Y9840D01*
X8457Y8955D02*
X8478D01*
X8468Y8945D02*
Y8965D01*
X8712Y8945D02*
X8732D01*
X8722Y8935D02*
Y8955D01*
X8585Y8333D02*
X8605D01*
X8595Y8324D02*
Y8343D01*
X8188Y9570D02*
X8207D01*
X8197Y9560D02*
Y9580D01*
X8128Y9157D02*
X8147D01*
X8138Y9147D02*
Y9168D01*
X7705Y9580D02*
X7725D01*
X7715Y9570D02*
Y9590D01*
X7945Y9820D02*
X7965D01*
X7955Y9810D02*
Y9830D01*
X9298Y9475D02*
X9318D01*
X9308Y9465D02*
Y9485D01*
X9683Y8593D02*
X9703D01*
X9693Y8583D02*
Y8603D01*
X9908Y8353D02*
X9928D01*
X9918Y8343D02*
Y8363D01*
X9630Y8345D02*
X9650D01*
X9640Y8335D02*
Y8355D01*
X9700Y8397D02*
X9720D01*
X9710Y8388D02*
Y8407D01*
X9188Y10612D02*
X9207D01*
X9197Y10603D02*
Y10622D01*
X10080Y8718D02*
X10100D01*
X10090Y8707D02*
Y8728D01*
X10012Y8665D02*
X10032D01*
X10022Y8655D02*
Y8675D01*
X10012Y8853D02*
X10032D01*
X10022Y8843D02*
Y8862D01*
X17293Y8550D02*
X17312D01*
X17302Y8539D02*
Y8560D01*
X17065Y7432D02*
X17085D01*
X17075Y7422D02*
Y7442D01*
X17293Y8427D02*
X17312D01*
X17302Y8417D02*
Y8437D01*
X17270Y5682D02*
X17290D01*
X17280Y5672D02*
Y5692D01*
X17270Y6062D02*
X17290D01*
X17280Y6052D02*
Y6072D01*
X17273Y6442D02*
X17293D01*
X17282Y6432D02*
Y6452D01*
X17273Y6804D02*
X17293D01*
X17282Y6794D02*
Y6814D01*
X17068Y7179D02*
X17088D01*
X17077Y7169D02*
Y7189D01*
X17070Y7562D02*
X17090D01*
X17080Y7552D02*
Y7572D01*
X17068Y8294D02*
X17088D01*
X17077Y8285D02*
Y8304D01*
X17065Y8679D02*
X17085D01*
X17075Y8669D02*
Y8689D01*
X17610Y8804D02*
X17630D01*
X17620Y8794D02*
Y8814D01*
X17610Y7689D02*
X17630D01*
X17620Y7679D02*
Y7700D01*
X17605Y6572D02*
X17625D01*
X17615Y6562D02*
Y6582D01*
X11543Y9518D02*
X11562D01*
X11553Y9507D02*
Y9528D01*
X11591Y7637D02*
X11611D01*
X11601Y7627D02*
Y7647D01*
X11722Y7265D02*
X11743D01*
X11732Y7255D02*
Y7275D01*
X12103Y7382D02*
X12122D01*
X12112Y7372D02*
Y7393D01*
X11007Y6167D02*
X11028D01*
X11018Y6158D02*
Y6178D01*
X11828Y6521D02*
X11847D01*
X11838Y6511D02*
Y6531D01*
X11555Y6636D02*
X11575D01*
X11565Y6626D02*
Y6646D01*
X12645Y6060D02*
X12665D01*
X12655Y6050D02*
Y6070D01*
X8215Y5760D02*
X8235D01*
X8225Y5750D02*
Y5770D01*
X8215Y6100D02*
X8235D01*
X8225Y6090D02*
Y6110D01*
X10772Y10793D02*
X10793D01*
X10782Y10782D02*
Y10803D01*
X10607Y6400D02*
X10628D01*
X10618Y6390D02*
Y6410D01*
X9153Y6585D02*
X9172D01*
X9162Y6575D02*
Y6595D01*
X9155Y6803D02*
X9175D01*
X9165Y6793D02*
Y6812D01*
X9155Y7018D02*
X9175D01*
X9165Y7007D02*
Y7028D01*
X9928Y11750D02*
X9947D01*
X9938Y11740D02*
Y11760D01*
X9978Y11351D02*
X9998D01*
X9988Y11341D02*
Y11361D01*
X10158Y11418D02*
X10178D01*
X10168Y11408D02*
Y11428D01*
X10275Y11395D02*
X10295D01*
X10285Y11385D02*
Y11405D01*
X10057Y11420D02*
X10078D01*
X10068Y11410D02*
Y11430D01*
X10122Y11480D02*
X10143D01*
X10132Y11470D02*
Y11490D01*
X10555Y9362D02*
X10575D01*
X10565Y9353D02*
Y9372D01*
X11062Y9193D02*
X11082D01*
X11072Y9182D02*
Y9203D01*
X11200Y8500D02*
X11220D01*
X11210Y8490D02*
Y8510D01*
X9930Y11672D02*
X9950D01*
X9940Y11662D02*
Y11682D01*
X9703Y10893D02*
X9722D01*
X9712Y10882D02*
Y10903D01*
X9757Y10953D02*
X9778D01*
X9768Y10943D02*
Y10962D01*
X9618Y10828D02*
X9638D01*
X9628Y10818D02*
Y10838D01*
X9635Y9597D02*
X9655D01*
X9645Y9588D02*
Y9607D01*
X10865Y6407D02*
X10885D01*
X10875Y6397D02*
Y6418D01*
X11673Y9910D02*
X11693D01*
X11683Y9900D02*
Y9920D01*
X12100Y9707D02*
X12120D01*
X12110Y9697D02*
Y9718D01*
X11985Y9762D02*
X12005D01*
X11995Y9753D02*
Y9772D01*
X11023Y9828D02*
X11043D01*
X11033Y9818D02*
Y9838D01*
X11457Y10753D02*
X11478D01*
X11468Y10743D02*
Y10762D01*
X10194Y6519D02*
X10214D01*
X10204Y6509D02*
Y6529D01*
X9593Y6640D02*
X9612D01*
X9603Y6630D02*
Y6650D01*
X9605Y6528D02*
X9625D01*
X9615Y6518D02*
Y6538D01*
X10528Y7700D02*
X10547D01*
X10538Y7690D02*
Y7710D01*
X10311Y8765D02*
X10331D01*
X10321Y8755D02*
Y8775D01*
X10506Y8660D02*
X10526D01*
X10516Y8650D02*
Y8670D01*
X10312Y9038D02*
X10332D01*
X10322Y9028D02*
Y9047D01*
X9795Y6690D02*
X9815D01*
X9805Y6680D02*
Y6700D01*
X10503Y7528D02*
X10523D01*
X10513Y7518D02*
Y7538D01*
X10895Y10228D02*
X10915D01*
X10905Y10218D02*
Y10238D01*
X10565Y9505D02*
X10585D01*
X10575Y9495D02*
Y9515D01*
X9605Y6445D02*
X9625D01*
X9615Y6435D02*
Y6455D01*
X9095Y9475D02*
X9115D01*
X9105Y9465D02*
Y9485D01*
X9250Y9980D02*
X9270D01*
X9260Y9970D02*
Y9990D01*
X9655Y6728D02*
X9675D01*
X9665Y6718D02*
Y6738D01*
X10835Y10168D02*
X10855D01*
X10845Y10157D02*
Y10178D01*
X9760Y6453D02*
X9780D01*
X9770Y6443D02*
Y6462D01*
X9738Y8843D02*
X9757D01*
X9747Y8833D02*
Y8853D01*
X9530Y8628D02*
X9550D01*
X9540Y8618D02*
Y8638D01*
X9975Y9197D02*
X9995D01*
X9985Y9188D02*
Y9207D01*
X9514Y9646D02*
X9534D01*
X9524Y9636D02*
Y9656D01*
X9745Y9712D02*
X9765D01*
X9755Y9703D02*
Y9722D01*
X9845Y8475D02*
X9865D01*
X9855Y8465D02*
Y8485D01*
X9443Y9815D02*
X9462D01*
X9453Y9805D02*
Y9825D01*
X10140Y9280D02*
X10160D01*
X10150Y9270D02*
Y9290D01*
X10080Y9153D02*
X10100D01*
X10090Y9143D02*
Y9163D01*
X9780Y9470D02*
X9800D01*
X9790Y9460D02*
Y9480D01*
X10257Y6458D02*
X10277D01*
X10267Y6448D02*
Y6468D01*
X10366Y6460D02*
X10386D01*
X10376Y6450D02*
Y6470D01*
X10140Y6588D02*
X10160D01*
X10150Y6578D02*
Y6598D01*
X10218Y11343D02*
X10238D01*
X10228Y11332D02*
Y11353D01*
X11000Y10810D02*
X11020D01*
X11010Y10800D02*
Y10820D01*
X11016Y10709D02*
X11036D01*
X11026Y10699D02*
Y10719D01*
X10565Y9435D02*
X10585D01*
X10575Y9425D02*
Y9445D01*
X10566Y9570D02*
X10586D01*
X10576Y9560D02*
Y9580D01*
X10620Y9628D02*
X10640D01*
X10630Y9618D02*
Y9638D01*
X10620Y9700D02*
X10640D01*
X10630Y9690D02*
Y9710D01*
X10257Y11072D02*
X10278D01*
X10268Y11062D02*
Y11082D01*
X10365Y11280D02*
X10385D01*
X10375Y11270D02*
Y11290D01*
X10528Y11072D02*
X10547D01*
X10538Y11062D02*
Y11082D01*
X10588Y10838D02*
X10607D01*
X10597Y10828D02*
Y10847D01*
X10332Y11072D02*
X10353D01*
X10343Y11062D02*
Y11082D01*
X10695Y11080D02*
X10715D01*
X10705Y11070D02*
Y11090D01*
X10697Y10845D02*
X10718D01*
X10707Y10835D02*
Y10855D01*
X10725Y11628D02*
X10745D01*
X10735Y11618D02*
Y11638D01*
X14838Y10347D02*
X14857D01*
X14848Y10338D02*
Y10357D01*
X13960Y10378D02*
X13980D01*
X13970Y10368D02*
Y10388D01*
X13643Y10380D02*
X13662D01*
X13652Y10370D02*
Y10390D01*
X13880Y10378D02*
X13900D01*
X13890Y10368D02*
Y10388D01*
X14078Y10406D02*
X14098D01*
X14088Y10396D02*
Y10416D01*
X11695Y10765D02*
X11715D01*
X11705Y10755D02*
Y10775D01*
X10990Y11307D02*
X11010D01*
X11000Y11297D02*
Y11317D01*
X11078Y11230D02*
X11097D01*
X11088Y11220D02*
Y11240D01*
X10285Y11322D02*
X10305D01*
X10295Y11312D02*
Y11332D01*
X13482Y10747D02*
X13502D01*
X13493Y10738D02*
Y10757D01*
X13877Y11805D02*
X13898D01*
X13888Y11795D02*
Y11815D01*
X10875Y11618D02*
X10895D01*
X10885Y11608D02*
Y11628D01*
X13955Y11805D02*
X13975D01*
X13965Y11795D02*
Y11815D01*
X10997Y11455D02*
X11018D01*
X11007Y11445D02*
Y11465D01*
X14123Y11812D02*
X14143D01*
X14132Y11803D02*
Y11822D01*
X14360Y11482D02*
X14380D01*
X14370Y11472D02*
Y11493D01*
X14198Y11810D02*
X14218D01*
X14207Y11800D02*
Y11820D01*
X14255Y10680D02*
X14275D01*
X14265Y10670D02*
Y10690D01*
X13595Y10157D02*
X13615D01*
X13605Y10147D02*
Y10168D01*
X14120Y10685D02*
X14140D01*
X14130Y10675D02*
Y10695D01*
X15245Y11460D02*
X15265D01*
X15255Y11450D02*
Y11470D01*
X15327Y11460D02*
X15348D01*
X15338Y11450D02*
Y11470D01*
X15162Y11466D02*
X15182D01*
X15172Y11456D02*
Y11476D01*
X15080Y11465D02*
X15100D01*
X15090Y11455D02*
Y11475D01*
X15398Y11457D02*
X15418D01*
X15407Y11447D02*
Y11468D01*
X14918Y11465D02*
X14938D01*
X14927Y11455D02*
Y11475D01*
X14827Y11375D02*
X14848D01*
X14838Y11365D02*
Y11385D01*
X14852Y10955D02*
X14873D01*
X14862Y10945D02*
Y10965D01*
X14680Y11293D02*
X14700D01*
X14690Y11282D02*
Y11303D01*
X10878Y10845D02*
X10897D01*
X10888Y10835D02*
Y10855D01*
X15005Y11470D02*
X15025D01*
X15015Y11460D02*
Y11480D01*
X14596Y10668D02*
X14616D01*
X14606Y10658D02*
Y10678D01*
X14998Y10682D02*
X15018D01*
X15007Y10672D02*
Y10693D01*
X14923Y10685D02*
X14943D01*
X14932Y10675D02*
Y10695D01*
X12200Y8685D02*
X12220D01*
X12210Y8675D02*
Y8695D01*
X11138Y9918D02*
X11157D01*
X11147Y9907D02*
Y9928D01*
X14325Y10155D02*
X14345D01*
X14335Y10145D02*
Y10165D01*
X13760Y10153D02*
X13780D01*
X13770Y10143D02*
Y10162D01*
X14593Y10867D02*
X14613D01*
X14603Y10857D02*
Y10877D01*
X14520Y10382D02*
X14540D01*
X14530Y10372D02*
Y10393D01*
X13718Y11362D02*
X13738D01*
X13727Y11353D02*
Y11372D01*
X13643Y11362D02*
X13662D01*
X13652Y11353D02*
Y11372D01*
X13482Y11362D02*
X13502D01*
X13493Y11353D02*
Y11372D01*
X13480Y10378D02*
X13500D01*
X13490Y10368D02*
Y10388D01*
X13720Y10380D02*
X13740D01*
X13730Y10370D02*
Y10390D01*
X9880Y10835D02*
X9900D01*
X9890Y10825D02*
Y10845D01*
X9820Y10895D02*
X9840D01*
X9830Y10885D02*
Y10905D01*
X9525Y10897D02*
X9545D01*
X9535Y10888D02*
Y10907D01*
X14677Y10280D02*
X14698D01*
X14688Y10270D02*
Y10290D01*
X10712Y11793D02*
X10732D01*
X10722Y11782D02*
Y11803D01*
X13773Y12012D02*
X13793D01*
X13782Y12003D02*
Y12022D01*
X13602Y12012D02*
X13623D01*
X13612Y12003D02*
Y12022D01*
X14282Y12007D02*
X14302D01*
X14293Y11997D02*
Y12018D01*
X14450Y12007D02*
X14470D01*
X14460Y11997D02*
Y12018D01*
X15843Y11645D02*
X15862D01*
X15852Y11635D02*
Y11655D01*
X15840Y11472D02*
X15860D01*
X15850Y11462D02*
Y11482D01*
X15832Y10693D02*
X15852D01*
X15843Y10682D02*
Y10703D01*
X15830Y10520D02*
X15850D01*
X15840Y10510D02*
Y10530D01*
X14498Y10153D02*
X14518D01*
X14507Y10143D02*
Y10162D01*
X14127Y10155D02*
X14148D01*
X14138Y10145D02*
Y10165D01*
X13952Y10157D02*
X13973D01*
X13962Y10147D02*
Y10168D01*
X11432Y9700D02*
X11452D01*
X11442Y9690D02*
Y9710D01*
X11823Y9790D02*
X11843D01*
X11833Y9780D02*
Y9800D01*
X11360Y11115D02*
X11380D01*
X11370Y11105D02*
Y11125D01*
X11243Y11232D02*
X11262D01*
X11253Y11222D02*
Y11243D01*
X10582Y11893D02*
X10603D01*
X10593Y11882D02*
Y11903D01*
X9427Y11475D02*
X9447D01*
X9437Y11465D02*
Y11485D01*
X9547Y11598D02*
X9567D01*
X9557Y11588D02*
Y11608D01*
X9045Y11075D02*
X9065D01*
X9055Y11065D02*
Y11085D01*
X9162Y11195D02*
X9182D01*
X9172Y11185D02*
Y11205D01*
X8585Y10612D02*
X8605D01*
X8595Y10603D02*
Y10622D01*
X8972Y9590D02*
X8993D01*
X8982Y9580D02*
Y9600D01*
X9320Y9255D02*
X9340D01*
X9330Y9245D02*
Y9265D01*
X9438Y9132D02*
X9457D01*
X9447Y9122D02*
Y9143D01*
X9497Y8780D02*
X9518D01*
X9507Y8770D02*
Y8790D01*
X11180Y9312D02*
X11200D01*
X11190Y9303D02*
Y9322D01*
X12115Y8595D02*
X12135D01*
X12125Y8585D02*
Y8605D01*
X14090Y7550D02*
X14110D01*
X14100Y7540D02*
Y7560D01*
X14015Y7625D02*
X14035D01*
X14025Y7615D02*
Y7635D01*
X14165Y7625D02*
X14185D01*
X14175Y7615D02*
Y7635D01*
X14015Y7475D02*
X14035D01*
X14025Y7465D02*
Y7485D01*
X14165Y7475D02*
X14185D01*
X14175Y7465D02*
Y7485D01*
X21957Y12035D02*
X21977D01*
X21967Y12025D02*
Y12045D01*
X21847Y12035D02*
X21867D01*
X21857Y12025D02*
Y12045D01*
X21737Y12035D02*
X21757D01*
X21747Y12025D02*
Y12045D01*
X21957Y12145D02*
X21977D01*
X21967Y12135D02*
Y12155D01*
X21847Y12145D02*
X21867D01*
X21857Y12135D02*
Y12155D01*
X21737Y12145D02*
X21757D01*
X21747Y12135D02*
Y12155D01*
X21957Y12255D02*
X21977D01*
X21967Y12245D02*
Y12265D01*
X21847Y12255D02*
X21867D01*
X21857Y12245D02*
Y12265D01*
X21737Y12255D02*
X21757D01*
X21747Y12245D02*
Y12265D01*
X19977Y12050D02*
X19997D01*
X19987Y12040D02*
Y12060D01*
X19867Y12050D02*
X19887D01*
X19877Y12040D02*
Y12060D01*
X19757Y12050D02*
X19777D01*
X19767Y12040D02*
Y12060D01*
X19977Y12160D02*
X19997D01*
X19987Y12150D02*
Y12170D01*
X19867Y12160D02*
X19887D01*
X19877Y12150D02*
Y12170D01*
X19757Y12160D02*
X19777D01*
X19767Y12150D02*
Y12170D01*
X19977Y12270D02*
X19997D01*
X19987Y12260D02*
Y12280D01*
X19867Y12270D02*
X19887D01*
X19877Y12260D02*
Y12280D01*
X19757Y12270D02*
X19777D01*
X19767Y12260D02*
Y12280D01*
M02*
