G04*
G04 #@! TF.GenerationSoftware,Altium Limited,Altium Designer,19.1.9 (167)*
G04*
G04 Layer_Color=32768*
%FSLAX42Y42*%
%MOMM*%
G71*
G01*
G75*
%ADD10C,0.10*%
%ADD143C,0.05*%
D10*
X14400Y11080D02*
X14500D01*
X14450Y11030D02*
Y11130D01*
X9082Y9570D02*
X9153Y9640D01*
X9082D02*
X9153Y9570D01*
X9425Y9225D02*
X9495Y9295D01*
X9425D02*
X9495Y9225D01*
X10472Y8820D02*
X10543Y8750D01*
X10472Y8750D02*
X10543Y8820D01*
X13698Y11860D02*
Y11960D01*
X13648Y11910D02*
X13748D01*
X14377Y11855D02*
Y11955D01*
X14327Y11905D02*
X14427D01*
X15700Y11557D02*
X15800D01*
X15750Y11507D02*
Y11608D01*
X13685Y10207D02*
Y10307D01*
X13635Y10257D02*
X13735D01*
X14050Y10207D02*
Y10307D01*
X14000Y10257D02*
X14100D01*
X14420Y10208D02*
Y10308D01*
X14370Y10257D02*
X14470D01*
X15693Y10607D02*
X15793D01*
X15743Y10557D02*
Y10657D01*
X14545Y12360D02*
Y12910D01*
X13895Y12360D02*
Y12910D01*
Y12360D02*
X14545D01*
X13895Y12910D02*
X14545D01*
X14170Y12635D02*
X14270D01*
X14220Y12585D02*
Y12685D01*
X14185Y13015D02*
Y13115D01*
X14135Y13065D02*
X14235D01*
X14657Y12925D02*
X14757D01*
X14707Y12875D02*
Y12975D01*
X13743Y6400D02*
Y6850D01*
X14357Y6400D02*
Y6850D01*
X13743D02*
X14357D01*
X13743Y6400D02*
X14357D01*
X14000Y6625D02*
X14100D01*
X14050Y6575D02*
Y6675D01*
X13240Y13215D02*
X13340D01*
X13290Y13165D02*
Y13265D01*
X13470Y13215D02*
X13570D01*
X13520Y13165D02*
Y13265D01*
X15130Y12975D02*
Y13075D01*
X15080Y13025D02*
X15180D01*
X15532Y12668D02*
X15632D01*
X15582Y12618D02*
Y12718D01*
X15780Y12668D02*
X15880D01*
X15830Y12618D02*
Y12718D01*
X16015Y12665D02*
X16115D01*
X16065Y12615D02*
Y12715D01*
X14050Y7550D02*
X14150D01*
X14100Y7500D02*
Y7600D01*
X14698Y6980D02*
Y7080D01*
X14648Y7030D02*
X14748D01*
X15132Y13240D02*
Y13340D01*
X15082Y13290D02*
X15182D01*
X14712Y5883D02*
Y5983D01*
X14662Y5933D02*
X14762D01*
X14715Y6162D02*
Y6262D01*
X14665Y6212D02*
X14765D01*
X14715Y6440D02*
Y6540D01*
X14665Y6490D02*
X14765D01*
X13580Y7455D02*
Y7555D01*
X13530Y7505D02*
X13630D01*
X14190Y7993D02*
Y8093D01*
X14140Y8043D02*
X14240D01*
X16855Y11205D02*
X17405D01*
X16855Y10555D02*
X17405D01*
Y11205D01*
X16855Y10555D02*
Y11205D01*
X17130Y10830D02*
Y10930D01*
X17080Y10880D02*
X17180D01*
X14235Y5597D02*
Y5697D01*
X14185Y5647D02*
X14285D01*
X14235Y5878D02*
Y5978D01*
X14185Y5928D02*
X14285D01*
X14238Y6162D02*
Y6262D01*
X14188Y6212D02*
X14288D01*
X16825Y10320D02*
Y10420D01*
X16775Y10370D02*
X16875D01*
X16840Y11312D02*
Y11412D01*
X16790Y11362D02*
X16890D01*
X17410Y10340D02*
Y10440D01*
X17360Y10390D02*
X17460D01*
X17410Y10130D02*
Y10230D01*
X17360Y10180D02*
X17460D01*
X16680Y11800D02*
Y11900D01*
X16630Y11850D02*
X16730D01*
X14702Y7207D02*
Y7307D01*
X14652Y7257D02*
X14752D01*
X17607Y11618D02*
Y11718D01*
X17557Y11668D02*
X17657D01*
X17612Y11868D02*
Y11968D01*
X17562Y11918D02*
X17662D01*
X17612Y12128D02*
Y12228D01*
X17562Y12178D02*
X17662D01*
X16680Y12070D02*
Y12170D01*
X16630Y12120D02*
X16730D01*
X13150Y7990D02*
Y8090D01*
X13100Y8040D02*
X13200D01*
X13580Y7728D02*
Y7828D01*
X13530Y7778D02*
X13630D01*
X16490Y10040D02*
X16590D01*
X16540Y9990D02*
Y10090D01*
X16625Y9868D02*
Y10212D01*
X16455Y9868D02*
Y10212D01*
X16625D01*
X16455Y9868D02*
X16625D01*
X16800Y10150D02*
X16900D01*
X16850Y10100D02*
Y10200D01*
X15830Y6478D02*
Y6578D01*
X15780Y6528D02*
X15880D01*
X16030Y6210D02*
Y6310D01*
X15980Y6260D02*
X16080D01*
X6125Y7195D02*
X6675D01*
X6125Y6545D02*
X6675D01*
Y7195D01*
X6125Y6545D02*
Y7195D01*
X6400Y6820D02*
Y6920D01*
X6350Y6870D02*
X6450D01*
X16325Y6367D02*
X16425D01*
X16375Y6317D02*
Y6418D01*
X13857Y8130D02*
X13957D01*
X13907Y8080D02*
Y8180D01*
X6870Y6865D02*
X6970D01*
X6920Y6815D02*
Y6915D01*
X16577Y6822D02*
X16677D01*
X16627Y6772D02*
Y6872D01*
X7450Y6650D02*
Y6750D01*
X7400Y6700D02*
X7500D01*
X7510Y6060D02*
X7610D01*
X7560Y6010D02*
Y6110D01*
X7220Y6060D02*
X7320D01*
X7270Y6010D02*
Y6110D01*
X6970Y6060D02*
X7070D01*
X7020Y6010D02*
Y6110D01*
X16325Y6818D02*
X16425D01*
X16375Y6768D02*
Y6868D01*
X6888Y7218D02*
Y7318D01*
X6838Y7268D02*
X6938D01*
X14520Y7755D02*
X14620D01*
X14570Y7705D02*
Y7805D01*
X7140Y6340D02*
Y6440D01*
X7090Y6390D02*
X7190D01*
X15377Y8003D02*
X15477D01*
X15427Y7953D02*
Y8053D01*
X15118Y8003D02*
X15218D01*
X15168Y7953D02*
Y8053D01*
X14848Y8005D02*
X14948D01*
X14898Y7955D02*
Y8055D01*
X15238Y7078D02*
Y7178D01*
X15188Y7128D02*
X15288D01*
X15238Y7343D02*
Y7443D01*
X15188Y7393D02*
X15288D01*
X15240Y7610D02*
Y7710D01*
X15190Y7660D02*
X15290D01*
X16165Y8000D02*
X16265D01*
X16215Y7950D02*
Y8050D01*
X15900Y8003D02*
X16000D01*
X15950Y7953D02*
Y8053D01*
X15638Y8003D02*
X15738D01*
X15688Y7953D02*
Y8053D01*
X15680Y7610D02*
Y7710D01*
X15630Y7660D02*
X15730D01*
X15682Y7340D02*
Y7440D01*
X15632Y7390D02*
X15732D01*
X15680Y7078D02*
Y7178D01*
X15630Y7128D02*
X15730D01*
X16155Y7432D02*
X16255D01*
X16205Y7382D02*
Y7482D01*
X11175Y13310D02*
X11275D01*
X11225Y13260D02*
Y13360D01*
X10982Y13310D02*
X11082D01*
X11032Y13260D02*
Y13360D01*
X10790Y13310D02*
X10890D01*
X10840Y13260D02*
Y13360D01*
X11175Y12860D02*
X11275D01*
X11225Y12810D02*
Y12910D01*
X10788Y12860D02*
X10888D01*
X10838Y12810D02*
Y12910D01*
X10982Y12860D02*
X11082D01*
X11032Y12810D02*
Y12910D01*
X14700Y8475D02*
X14800D01*
X14750Y8425D02*
Y8525D01*
X15927Y5788D02*
Y5888D01*
X15877Y5838D02*
X15977D01*
X15930Y5991D02*
Y6091D01*
X15880Y6041D02*
X15980D01*
X14250Y8475D02*
X14350D01*
X14300Y8425D02*
Y8525D01*
X15927Y5585D02*
Y5685D01*
X15877Y5635D02*
X15977D01*
X14475Y8475D02*
X14575D01*
X14525Y8425D02*
Y8525D01*
X11855Y7588D02*
Y7688D01*
X11805Y7638D02*
X11905D01*
X11760Y9120D02*
X11830Y9050D01*
X11760D02*
X11830Y9120D01*
X11927Y8517D02*
X11998Y8588D01*
X11927D02*
X11998Y8517D01*
X12287Y8872D02*
X12358Y8943D01*
X12287D02*
X12358Y8872D01*
X8595Y8538D02*
Y8638D01*
X8545Y8588D02*
X8645D01*
X8043Y11468D02*
Y11568D01*
X7993Y11518D02*
X8093D01*
X12550Y9672D02*
Y9772D01*
X12500Y9722D02*
X12600D01*
X9625Y11817D02*
X9695Y11888D01*
X9625D02*
X9695Y11817D01*
X9822Y12012D02*
X9893Y12083D01*
X9822D02*
X9893Y12012D01*
X9785Y8755D02*
X9855Y8685D01*
X9785D02*
X9855Y8755D01*
X9597Y8940D02*
X9668Y8870D01*
X9597D02*
X9668Y8940D01*
X11677Y9705D02*
X11748Y9635D01*
X11677Y9635D02*
X11748Y9705D01*
X11527Y9855D02*
X11598Y9785D01*
X11527Y9785D02*
X11598Y9855D01*
X11030Y9353D02*
X11100Y9282D01*
X11030Y9282D02*
X11100Y9353D01*
X10542Y11730D02*
X10613Y11800D01*
X10542D02*
X10613Y11730D01*
X11660Y10597D02*
X11730Y10668D01*
X11660D02*
X11730Y10597D01*
X11202Y11062D02*
X11273Y11133D01*
X11202D02*
X11273Y11062D01*
X10850Y11412D02*
X10920Y11483D01*
X10850D02*
X10920Y11412D01*
X9534Y11498D02*
X9605Y11427D01*
X9534Y11427D02*
X9605Y11498D01*
X9152Y11098D02*
X9223Y11027D01*
X9152Y11027D02*
X9223Y11098D01*
X8692Y10633D02*
X8763Y10562D01*
X8692Y10562D02*
X8763Y10633D01*
X7800Y9735D02*
X7870Y9665D01*
X7800Y9665D02*
X7870Y9735D01*
X11350Y7778D02*
X11450D01*
X11400Y7728D02*
Y7828D01*
X10343Y6128D02*
X10443D01*
X10393Y6078D02*
Y6178D01*
X12047Y6472D02*
Y6572D01*
X11997Y6522D02*
X12097D01*
X9332Y6535D02*
Y6635D01*
X9282Y6585D02*
X9382D01*
X9335Y6753D02*
Y6853D01*
X9285Y6803D02*
X9385D01*
X9335Y6968D02*
Y7068D01*
X9285Y7018D02*
X9385D01*
X11647Y6470D02*
Y6570D01*
X11597Y6520D02*
X11697D01*
X9210Y7318D02*
X9310D01*
X9260Y7268D02*
Y7368D01*
X8175Y5930D02*
X8275D01*
X8225Y5880D02*
Y5980D01*
X11653Y6703D02*
Y6803D01*
X11603Y6753D02*
X11703D01*
X22275Y6955D02*
Y7045D01*
X22230Y7000D02*
X22320D01*
X22275Y6355D02*
Y6445D01*
X22230Y6400D02*
X22320D01*
X22300Y6700D02*
X22400D01*
X22350Y6650D02*
Y6750D01*
X18350Y12375D02*
X18450D01*
X18400Y12325D02*
Y12425D01*
X22232Y11570D02*
X22332D01*
X22282Y11520D02*
Y11620D01*
X21832Y11425D02*
Y11515D01*
X21787Y11470D02*
X21877D01*
X21857Y12095D02*
Y12195D01*
X21807Y12145D02*
X21907D01*
X21832Y12800D02*
Y12890D01*
X21787Y12845D02*
X21877D01*
X18350Y11825D02*
X18450D01*
X18400Y11775D02*
Y11875D01*
X22032Y11420D02*
Y11520D01*
X21982Y11470D02*
X22082D01*
X18350Y12100D02*
X18450D01*
X18400Y12050D02*
Y12150D01*
X22652Y12520D02*
X22742D01*
X22697Y12475D02*
Y12565D01*
X22232Y11395D02*
X22332D01*
X22282Y11345D02*
Y11445D01*
X22237Y10970D02*
X22327D01*
X22282Y10925D02*
Y11015D01*
X22237Y11195D02*
X22327D01*
X22282Y11150D02*
Y11240D01*
X22652Y12295D02*
X22742D01*
X22697Y12250D02*
Y12340D01*
X20600Y6955D02*
Y7045D01*
X20555Y7000D02*
X20645D01*
X20600Y6355D02*
Y6445D01*
X20555Y6400D02*
X20645D01*
X22297Y12770D02*
X22387D01*
X22342Y12725D02*
Y12815D01*
X21835Y13203D02*
Y13303D01*
X21785Y13253D02*
X21885D01*
X19773Y8345D02*
X19873D01*
X19823Y8295D02*
Y8395D01*
X20380Y9182D02*
X20480D01*
X20430Y9132D02*
Y9232D01*
X20098Y9038D02*
Y9138D01*
X20048Y9088D02*
X20148D01*
X22300Y12995D02*
X22390D01*
X22345Y12950D02*
Y13040D01*
X20625Y6700D02*
X20725D01*
X20675Y6650D02*
Y6750D01*
X21982Y13220D02*
X22082D01*
X22032Y13170D02*
Y13270D01*
X21947Y13048D02*
Y13393D01*
X22117Y13048D02*
Y13393D01*
X21947Y13048D02*
X22117D01*
X21947Y13393D02*
X22117D01*
X22032Y12785D02*
Y12885D01*
X21982Y12835D02*
X22082D01*
X22655Y12998D02*
X22745D01*
X22700Y12953D02*
Y13043D01*
X22655Y12755D02*
X22745D01*
X22700Y12710D02*
Y12800D01*
X21520Y11570D02*
Y11660D01*
X21475Y11615D02*
X21565D01*
X21315Y11713D02*
Y11813D01*
X21265Y11763D02*
X21365D01*
X21395Y11213D02*
X21495D01*
X21445Y11163D02*
Y11263D01*
X20920Y11243D02*
Y11333D01*
X20875Y11288D02*
X20965D01*
X21145Y11713D02*
Y11813D01*
X21095Y11763D02*
X21195D01*
X21145Y11243D02*
Y11333D01*
X21100Y11288D02*
X21190D01*
X22632Y11825D02*
Y11915D01*
X22587Y11870D02*
X22677D01*
X22907Y13455D02*
X22998D01*
X22952Y13410D02*
Y13500D01*
X23255Y11422D02*
X23355D01*
X23305Y11372D02*
Y11472D01*
Y11022D02*
Y11122D01*
X23255Y11072D02*
X23355D01*
X22980Y11007D02*
X23080D01*
X23030Y10957D02*
Y11057D01*
X21325Y9350D02*
Y9450D01*
X21275Y9400D02*
X21375D01*
Y8975D02*
X21475D01*
X21425Y8925D02*
Y9025D01*
X20052Y8480D02*
X20143D01*
X20098Y8435D02*
Y8525D01*
X20095Y8643D02*
Y8743D01*
X20045Y8693D02*
X20145D01*
X20095Y8843D02*
Y8943D01*
X20045Y8893D02*
X20145D01*
X20675Y9378D02*
X20775D01*
X20725Y9328D02*
Y9428D01*
X20277Y11585D02*
X20377D01*
X20327Y11535D02*
Y11635D01*
X19852Y11440D02*
Y11530D01*
X19807Y11485D02*
X19897D01*
X19877Y12110D02*
Y12210D01*
X19827Y12160D02*
X19927D01*
X19852Y12815D02*
Y12905D01*
X19807Y12860D02*
X19897D01*
X20052Y11435D02*
Y11535D01*
X20002Y11485D02*
X20102D01*
X20630Y12360D02*
X20720D01*
X20675Y12315D02*
Y12405D01*
X20277Y11410D02*
X20377D01*
X20327Y11360D02*
Y11460D01*
X20282Y11210D02*
X20372D01*
X20327Y11165D02*
Y11255D01*
X20282Y10985D02*
X20372D01*
X20327Y10940D02*
Y11030D01*
X20632Y12585D02*
X20722D01*
X20677Y12540D02*
Y12630D01*
X20282Y12810D02*
X20372D01*
X20327Y12765D02*
Y12855D01*
X19852Y13220D02*
Y13320D01*
X19802Y13270D02*
X19902D01*
X20282Y13035D02*
X20372D01*
X20327Y12990D02*
Y13080D01*
X20002Y13235D02*
X20102D01*
X20052Y13185D02*
Y13285D01*
X19967Y13063D02*
Y13408D01*
X20137Y13063D02*
Y13408D01*
X19967Y13063D02*
X20137D01*
X19967Y13408D02*
X20137D01*
X20052Y12810D02*
Y12910D01*
X20002Y12860D02*
X20102D01*
X19390Y8900D02*
Y9000D01*
X19340Y8950D02*
X19440D01*
X19505Y9210D02*
Y9310D01*
X19455Y9260D02*
X19555D01*
X19602Y9570D02*
Y9670D01*
X19552Y9620D02*
X19652D01*
X19338Y9780D02*
X19868D01*
X19338Y9460D02*
X19868D01*
X19338D02*
Y9780D01*
X19868Y9460D02*
Y9780D01*
X20352Y9570D02*
Y9670D01*
X20302Y9620D02*
X20402D01*
X20088Y9780D02*
X20618D01*
X20088Y9460D02*
X20618D01*
X20088D02*
Y9780D01*
X20618Y9460D02*
Y9780D01*
X18895Y9007D02*
X18995D01*
X18945Y8957D02*
Y9057D01*
X20632Y12810D02*
X20722D01*
X20677Y12765D02*
Y12855D01*
X19145Y9257D02*
X19245D01*
X19195Y9207D02*
Y9307D01*
X20632Y13035D02*
X20722D01*
X20677Y12990D02*
Y13080D01*
X19155Y8632D02*
X19255D01*
X19205Y8582D02*
Y8682D01*
X19150Y8407D02*
X19240D01*
X19195Y8362D02*
Y8453D01*
X20727Y9675D02*
Y9765D01*
X20682Y9720D02*
X20773D01*
X19452Y11540D02*
Y11630D01*
X19407Y11585D02*
X19497D01*
X19227Y9675D02*
Y9765D01*
X19182Y9720D02*
X19273D01*
X19977Y9675D02*
Y9765D01*
X19932Y9720D02*
X20023D01*
X19277Y11683D02*
Y11783D01*
X19227Y11733D02*
X19327D01*
Y11283D02*
X19427D01*
X19377Y11233D02*
Y11333D01*
X18877Y11313D02*
Y11403D01*
X18832Y11358D02*
X18922D01*
X19500Y8407D02*
X19590D01*
X19545Y8362D02*
Y8453D01*
X19102Y11683D02*
Y11783D01*
X19052Y11733D02*
X19152D01*
X19500Y8632D02*
X19590D01*
X19545Y8588D02*
Y8678D01*
X19102Y11310D02*
Y11400D01*
X19057Y11355D02*
X19147D01*
X20727Y11865D02*
Y11955D01*
X20682Y11910D02*
X20772D01*
D143*
X15615Y10380D02*
Y11780D01*
X13285Y10380D02*
Y11780D01*
X15615D01*
X13285Y10380D02*
X15615D01*
X8930Y9658D02*
X9171Y9418D01*
X9064Y9792D02*
X9305Y9552D01*
X9171Y9418D02*
X9305Y9552D01*
X8930Y9658D02*
X9064Y9792D01*
X9273Y9313D02*
X9513Y9073D01*
X9407Y9447D02*
X9647Y9207D01*
X9513Y9073D02*
X9647Y9207D01*
X9273Y9313D02*
X9407Y9447D01*
X10320Y8732D02*
X10561Y8972D01*
X10454Y8598D02*
X10695Y8838D01*
X10320Y8732D02*
X10454Y8598D01*
X10561Y8972D02*
X10695Y8838D01*
X13527Y11815D02*
X13868D01*
X13527Y12005D02*
X13868D01*
Y11815D02*
Y12005D01*
X13527Y11815D02*
Y12005D01*
X14207Y12000D02*
X14548D01*
X14207Y11810D02*
X14548D01*
X14207D02*
Y12000D01*
X14548Y11810D02*
Y12000D01*
X15655Y11388D02*
Y11728D01*
X15845Y11388D02*
Y11728D01*
X15655Y11388D02*
X15845D01*
X15655Y11728D02*
X15845D01*
X13515Y10353D02*
X13855D01*
X13515Y10162D02*
X13855D01*
X13515D02*
Y10353D01*
X13855Y10162D02*
Y10353D01*
X13880D02*
X14220D01*
X13880Y10162D02*
X14220D01*
X13880D02*
Y10353D01*
X14220Y10162D02*
Y10353D01*
X14250Y10163D02*
X14590D01*
X14250Y10353D02*
X14590D01*
Y10163D02*
Y10353D01*
X14250Y10163D02*
Y10353D01*
X15648Y10438D02*
Y10778D01*
X15838Y10438D02*
Y10778D01*
X15648Y10438D02*
X15838D01*
X15648Y10778D02*
X15838D01*
X13975Y13190D02*
X14395D01*
X13975Y12940D02*
X14395D01*
X13975D02*
Y13190D01*
X14395Y12940D02*
Y13190D01*
X14612Y12755D02*
Y13095D01*
X14802Y12755D02*
Y13095D01*
X14612Y12755D02*
X14802D01*
X14612Y13095D02*
X14802D01*
X13195Y13045D02*
Y13385D01*
X13385Y13045D02*
Y13385D01*
X13195Y13045D02*
X13385D01*
X13195Y13385D02*
X13385D01*
X13425Y13045D02*
Y13385D01*
X13615Y13045D02*
Y13385D01*
X13425Y13045D02*
X13615D01*
X13425Y13385D02*
X13615D01*
X14920Y12900D02*
X15340D01*
X14920Y13150D02*
X15340D01*
Y12900D02*
Y13150D01*
X14920Y12900D02*
Y13150D01*
X15488Y12497D02*
Y12838D01*
X15677Y12497D02*
Y12838D01*
X15488Y12497D02*
X15677D01*
X15488Y12838D02*
X15677D01*
X15735Y12497D02*
Y12838D01*
X15925Y12497D02*
Y12838D01*
X15735Y12497D02*
X15925D01*
X15735Y12838D02*
X15925D01*
X15970Y12495D02*
Y12835D01*
X16160Y12495D02*
Y12835D01*
X15970Y12495D02*
X16160D01*
X15970Y12835D02*
X16160D01*
X13850Y7300D02*
Y7800D01*
X14350Y7300D02*
Y7800D01*
X13850D02*
X14350D01*
X13850Y7300D02*
X14350D01*
X14527Y7125D02*
X14868D01*
X14527Y6935D02*
X14868D01*
X14527D02*
Y7125D01*
X14868Y6935D02*
Y7125D01*
X14923Y13165D02*
X15343D01*
X14923Y13415D02*
X15343D01*
Y13165D02*
Y13415D01*
X14923Y13165D02*
Y13415D01*
X14502Y5808D02*
X14923D01*
X14502Y6058D02*
X14923D01*
Y5808D02*
Y6058D01*
X14502Y5808D02*
Y6058D01*
X14505Y6338D02*
X14925D01*
X14505Y6088D02*
X14925D01*
X14505D02*
Y6338D01*
X14925Y6088D02*
Y6338D01*
X14505Y6365D02*
X14925D01*
X14505Y6615D02*
X14925D01*
Y6365D02*
Y6615D01*
X14505Y6365D02*
Y6615D01*
X13370Y7630D02*
X13790D01*
X13370Y7380D02*
X13790D01*
X13370D02*
Y7630D01*
X13790Y7380D02*
Y7630D01*
X14020Y7947D02*
X14360D01*
X14020Y8138D02*
X14360D01*
Y7947D02*
Y8138D01*
X14020Y7947D02*
Y8138D01*
X14025Y5522D02*
X14445D01*
X14025Y5772D02*
X14445D01*
Y5522D02*
Y5772D01*
X14025Y5522D02*
Y5772D01*
X14025Y6053D02*
X14445D01*
X14025Y5803D02*
X14445D01*
X14025D02*
Y6053D01*
X14445Y5803D02*
Y6053D01*
X14027Y6088D02*
X14448D01*
X14027Y6338D02*
X14448D01*
Y6088D02*
Y6338D01*
X14027Y6088D02*
Y6338D01*
X16615Y10245D02*
X17035D01*
X16615Y10495D02*
X17035D01*
Y10245D02*
Y10495D01*
X16615Y10245D02*
Y10495D01*
X16670Y11268D02*
X17010D01*
X16670Y11457D02*
X17010D01*
Y11268D02*
Y11457D01*
X16670Y11268D02*
Y11457D01*
X17240Y10485D02*
X17580D01*
X17240Y10295D02*
X17580D01*
X17240D02*
Y10485D01*
X17580Y10295D02*
Y10485D01*
X17240Y10275D02*
X17580D01*
X17240Y10085D02*
X17580D01*
X17240D02*
Y10275D01*
X17580Y10085D02*
Y10275D01*
X16470Y11725D02*
X16890D01*
X16470Y11975D02*
X16890D01*
Y11725D02*
Y11975D01*
X16470Y11725D02*
Y11975D01*
X14532Y7162D02*
X14873D01*
X14532Y7353D02*
X14873D01*
Y7162D02*
Y7353D01*
X14532Y7162D02*
Y7353D01*
X17438Y11762D02*
X17777D01*
X17438Y11572D02*
X17777D01*
X17438D02*
Y11762D01*
X17777Y11572D02*
Y11762D01*
X17443Y12012D02*
X17782D01*
X17443Y11822D02*
X17782D01*
X17443D02*
Y12012D01*
X17782Y11822D02*
Y12012D01*
X17443Y12272D02*
X17782D01*
X17443Y12082D02*
X17782D01*
X17443D02*
Y12272D01*
X17782Y12082D02*
Y12272D01*
X16470Y11995D02*
X16890D01*
X16470Y12245D02*
X16890D01*
Y11995D02*
Y12245D01*
X16470Y11995D02*
Y12245D01*
X12980Y8135D02*
X13320D01*
X12980Y7945D02*
X13320D01*
X12980D02*
Y8135D01*
X13320Y7945D02*
Y8135D01*
X13370Y7903D02*
X13790D01*
X13370Y7653D02*
X13790D01*
X13370D02*
Y7903D01*
X13790Y7653D02*
Y7903D01*
X16985Y10075D02*
Y10225D01*
X16715Y10075D02*
Y10225D01*
Y10075D02*
X16985D01*
X16715Y10225D02*
X16985D01*
X15620Y6403D02*
X16040D01*
X15620Y6653D02*
X16040D01*
Y6403D02*
Y6653D01*
X15620Y6403D02*
Y6653D01*
X15820Y6135D02*
X16240D01*
X15820Y6385D02*
X16240D01*
Y6135D02*
Y6385D01*
X15820Y6135D02*
Y6385D01*
X16250Y6158D02*
Y6578D01*
X16500Y6158D02*
Y6578D01*
X16250Y6158D02*
X16500D01*
X16250Y6578D02*
X16500D01*
X13812Y7960D02*
Y8300D01*
X14002Y7960D02*
Y8300D01*
X13812Y7960D02*
X14002D01*
X13812Y8300D02*
X14002D01*
X7100Y6655D02*
Y7075D01*
X6740Y6655D02*
Y7075D01*
X7100D01*
X6740Y6655D02*
X7100D01*
X16532Y6653D02*
Y6993D01*
X16723Y6653D02*
Y6993D01*
X16532Y6653D02*
X16723D01*
X16532Y6993D02*
X16723D01*
X7240Y6575D02*
X7660D01*
X7240Y6825D02*
X7660D01*
Y6575D02*
Y6825D01*
X7240Y6575D02*
Y6825D01*
X7435Y5850D02*
Y6270D01*
X7685Y5850D02*
Y6270D01*
X7435Y5850D02*
X7685D01*
X7435Y6270D02*
X7685D01*
X7175Y5890D02*
Y6230D01*
X7365Y5890D02*
Y6230D01*
X7175Y5890D02*
X7365D01*
X7175Y6230D02*
X7365D01*
X6925Y5890D02*
Y6230D01*
X7115Y5890D02*
Y6230D01*
X6925Y5890D02*
X7115D01*
X6925Y6230D02*
X7115D01*
X16250Y6607D02*
Y7028D01*
X16500Y6607D02*
Y7028D01*
X16250Y6607D02*
X16500D01*
X16250Y7028D02*
X16500D01*
X6718Y7362D02*
X7057D01*
X6718Y7172D02*
X7057D01*
X6718D02*
Y7362D01*
X7057Y7172D02*
Y7362D01*
X14720Y7635D02*
Y7875D01*
X14420Y7635D02*
Y7875D01*
Y7635D02*
X14720D01*
X14420Y7875D02*
X14720D01*
X6930Y6265D02*
X7350D01*
X6930Y6515D02*
X7350D01*
Y6265D02*
Y6515D01*
X6930Y6265D02*
Y6515D01*
X15302Y7793D02*
Y8212D01*
X15552Y7793D02*
Y8212D01*
X15302Y7793D02*
X15552D01*
X15302Y8212D02*
X15552D01*
X15293Y7793D02*
Y8212D01*
X15043Y7793D02*
Y8212D01*
X15293D01*
X15043Y7793D02*
X15293D01*
X14773Y7795D02*
Y8215D01*
X15023Y7795D02*
Y8215D01*
X14773Y7795D02*
X15023D01*
X14773Y8215D02*
X15023D01*
X15027Y7253D02*
X15448D01*
X15027Y7003D02*
X15448D01*
X15027D02*
Y7253D01*
X15448Y7003D02*
Y7253D01*
X15027Y7268D02*
X15448D01*
X15027Y7518D02*
X15448D01*
Y7268D02*
Y7518D01*
X15027Y7268D02*
Y7518D01*
X15030Y7785D02*
X15450D01*
X15030Y7535D02*
X15450D01*
X15030D02*
Y7785D01*
X15450Y7535D02*
Y7785D01*
X16340Y7790D02*
Y8210D01*
X16090Y7790D02*
Y8210D01*
X16340D01*
X16090Y7790D02*
X16340D01*
X15825Y7793D02*
Y8212D01*
X16075Y7793D02*
Y8212D01*
X15825Y7793D02*
X16075D01*
X15825Y8212D02*
X16075D01*
X15812Y7793D02*
Y8212D01*
X15562Y7793D02*
Y8212D01*
X15812D01*
X15562Y7793D02*
X15812D01*
X15470Y7785D02*
X15890D01*
X15470Y7535D02*
X15890D01*
X15470D02*
Y7785D01*
X15890Y7535D02*
Y7785D01*
X15473Y7265D02*
X15893D01*
X15473Y7515D02*
X15893D01*
Y7265D02*
Y7515D01*
X15473Y7265D02*
Y7515D01*
X15470Y7253D02*
X15890D01*
X15470Y7003D02*
X15890D01*
X15470D02*
Y7253D01*
X15890Y7003D02*
Y7253D01*
X16300Y7262D02*
Y7603D01*
X16110Y7262D02*
Y7603D01*
X16300D01*
X16110Y7262D02*
X16300D01*
X11320Y13140D02*
Y13480D01*
X11130Y13140D02*
Y13480D01*
X11320D01*
X11130Y13140D02*
X11320D01*
X11128D02*
Y13480D01*
X10938Y13140D02*
Y13480D01*
X11128D01*
X10938Y13140D02*
X11128D01*
X10935D02*
Y13480D01*
X10745Y13140D02*
Y13480D01*
X10935D01*
X10745Y13140D02*
X10935D01*
X11130Y12690D02*
Y13030D01*
X11320Y12690D02*
Y13030D01*
X11130Y12690D02*
X11320D01*
X11130Y13030D02*
X11320D01*
X10743Y12690D02*
Y13030D01*
X10932Y12690D02*
Y13030D01*
X10743Y12690D02*
X10932D01*
X10743Y13030D02*
X10932D01*
X10938Y12690D02*
Y13030D01*
X11128Y12690D02*
Y13030D01*
X10938Y12690D02*
X11128D01*
X10938Y13030D02*
X11128D01*
X14655Y8305D02*
Y8645D01*
X14845Y8305D02*
Y8645D01*
X14655Y8305D02*
X14845D01*
X14655Y8645D02*
X14845D01*
X15757Y5742D02*
X16098D01*
X15757Y5933D02*
X16098D01*
Y5742D02*
Y5933D01*
X15757Y5742D02*
Y5933D01*
X15760Y5946D02*
X16100D01*
X15760Y6136D02*
X16100D01*
Y5946D02*
Y6136D01*
X15760Y5946D02*
Y6136D01*
X14205Y8305D02*
Y8645D01*
X14395Y8305D02*
Y8645D01*
X14205Y8305D02*
X14395D01*
X14205Y8645D02*
X14395D01*
X15757Y5540D02*
X16098D01*
X15757Y5730D02*
X16098D01*
Y5540D02*
Y5730D01*
X15757Y5540D02*
Y5730D01*
X14430Y8305D02*
Y8645D01*
X14620Y8305D02*
Y8645D01*
X14430Y8305D02*
X14620D01*
X14430Y8645D02*
X14620D01*
X11591Y8029D02*
X12119D01*
Y7246D02*
Y8029D01*
X11591Y7246D02*
Y8029D01*
Y7246D02*
X12119D01*
X11215Y8848D02*
X11558Y8505D01*
X11215Y8848D02*
X12032Y9665D01*
X12375Y9322D01*
X11558Y8505D02*
X12375Y9322D01*
X11775Y8606D02*
X12016Y8365D01*
X11909Y8740D02*
X12150Y8499D01*
X12016Y8365D02*
X12150Y8499D01*
X11775Y8606D02*
X11909Y8740D01*
X12135Y8961D02*
X12375Y8720D01*
X12269Y9095D02*
X12510Y8855D01*
X12375Y8720D02*
X12510Y8855D01*
X12135Y8961D02*
X12269Y9095D01*
X8331Y8979D02*
X8859D01*
Y8196D02*
Y8979D01*
X8331Y8196D02*
Y8979D01*
Y8196D02*
X8859D01*
X7832Y11643D02*
X8253D01*
X7832Y11393D02*
X8253D01*
X7832D02*
Y11643D01*
X8253Y11393D02*
Y11643D01*
X12340Y9597D02*
X12760D01*
X12340Y9847D02*
X12760D01*
Y9597D02*
Y9847D01*
X12340Y9597D02*
Y9847D01*
X9600Y12089D02*
X9897Y11792D01*
X9423Y11913D02*
X9720Y11616D01*
X9423Y11913D02*
X9600Y12089D01*
X9720Y11616D02*
X9897Y11792D01*
X9797Y12284D02*
X10094Y11987D01*
X9621Y12108D02*
X9918Y11811D01*
X9621Y12108D02*
X9797Y12284D01*
X9918Y11811D02*
X10094Y11987D01*
X9583Y8660D02*
X9880Y8957D01*
X9760Y8483D02*
X10057Y8780D01*
X9583Y8660D02*
X9760Y8483D01*
X9880Y8957D02*
X10057Y8780D01*
X9396Y8845D02*
X9693Y9142D01*
X9572Y8668D02*
X9869Y8965D01*
X9396Y8845D02*
X9572Y8668D01*
X9693Y9142D02*
X9869Y8965D01*
X11659Y9483D02*
X11900Y9723D01*
X11525Y9617D02*
X11766Y9857D01*
X11900Y9723D01*
X11525Y9617D02*
X11659Y9483D01*
X11375Y9767D02*
X11616Y10007D01*
X11509Y9633D02*
X11750Y9873D01*
X11375Y9767D02*
X11509Y9633D01*
X11616Y10007D02*
X11750Y9873D01*
X11012Y9130D02*
X11252Y9371D01*
X10878Y9264D02*
X11118Y9505D01*
X11252Y9371D01*
X10878Y9264D02*
X11012Y9130D01*
X10524Y11952D02*
X10765Y11712D01*
X10390Y11818D02*
X10631Y11578D01*
X10390Y11818D02*
X10524Y11952D01*
X10631Y11578D02*
X10765Y11712D01*
X11642Y10820D02*
X11882Y10579D01*
X11508Y10686D02*
X11748Y10445D01*
X11508Y10686D02*
X11642Y10820D01*
X11748Y10445D02*
X11882Y10579D01*
X11184Y11285D02*
X11425Y11044D01*
X11050Y11151D02*
X11291Y10910D01*
X11050Y11151D02*
X11184Y11285D01*
X11291Y10910D02*
X11425Y11044D01*
X10832Y11635D02*
X11072Y11394D01*
X10698Y11501D02*
X10938Y11260D01*
X10698Y11501D02*
X10832Y11635D01*
X10938Y11260D02*
X11072Y11394D01*
X9382Y11410D02*
X9623Y11650D01*
X9517Y11275D02*
X9757Y11516D01*
X9382Y11410D02*
X9517Y11275D01*
X9623Y11650D02*
X9757Y11516D01*
X9000Y11009D02*
X9241Y11250D01*
X9134Y10875D02*
X9375Y11116D01*
X9000Y11009D02*
X9134Y10875D01*
X9241Y11250D02*
X9375Y11116D01*
X8540Y10544D02*
X8781Y10785D01*
X8674Y10410D02*
X8915Y10651D01*
X8540Y10544D02*
X8674Y10410D01*
X8781Y10785D02*
X8915Y10651D01*
X7782Y9513D02*
X8022Y9753D01*
X7648Y9647D02*
X7888Y9887D01*
X8022Y9753D01*
X7648Y9647D02*
X7782Y9513D01*
X11275Y7568D02*
Y7988D01*
X11525Y7568D02*
Y7988D01*
X11275Y7568D02*
X11525D01*
X11275Y7988D02*
X11525D01*
X11957Y5583D02*
Y6347D01*
X8828Y5583D02*
Y6347D01*
Y5583D02*
X11957D01*
X8828Y6347D02*
X11957D01*
X11838Y6397D02*
X12257D01*
X11838Y6647D02*
X12257D01*
Y6397D02*
Y6647D01*
X11838Y6397D02*
Y6647D01*
X9162Y6490D02*
X9503D01*
X9162Y6680D02*
X9503D01*
Y6490D02*
Y6680D01*
X9162Y6490D02*
Y6680D01*
X9165Y6707D02*
X9505D01*
X9165Y6897D02*
X9505D01*
Y6707D02*
Y6897D01*
X9165Y6707D02*
Y6897D01*
Y6922D02*
X9505D01*
X9165Y7112D02*
X9505D01*
Y6922D02*
Y7112D01*
X9165Y6922D02*
Y7112D01*
X11478Y6425D02*
X11818D01*
X11478Y6615D02*
X11818D01*
Y6425D02*
Y6615D01*
X11478Y6425D02*
Y6615D01*
X9355Y7147D02*
Y7488D01*
X9165Y7147D02*
Y7488D01*
X9355D01*
X9165Y7147D02*
X9355D01*
X8130Y5760D02*
Y6100D01*
X8320Y5760D02*
Y6100D01*
X8130Y5760D02*
X8320D01*
X8130Y6100D02*
X8320D01*
X11482Y6657D02*
X11822D01*
X11482Y6847D02*
X11822D01*
Y6657D02*
Y6847D01*
X11482Y6657D02*
Y6847D01*
X22170Y7170D02*
X22380D01*
X22170Y6830D02*
X22380D01*
Y7170D01*
X22170Y6830D02*
Y7170D01*
Y6570D02*
X22380D01*
X22170Y6230D02*
X22380D01*
Y6570D01*
X22170Y6230D02*
Y6570D01*
X22485Y6625D02*
Y6775D01*
X22215Y6625D02*
Y6775D01*
Y6625D02*
X22485D01*
X22215Y6775D02*
X22485D01*
X18265Y12300D02*
Y12450D01*
X18535Y12300D02*
Y12450D01*
X18265D02*
X18535D01*
X18265Y12300D02*
X18535D01*
X22147Y11495D02*
Y11645D01*
X22417Y11495D02*
Y11645D01*
X22147D02*
X22417D01*
X22147Y11495D02*
X22417D01*
X21727Y11640D02*
X21937D01*
X21727Y11300D02*
X21937D01*
Y11640D01*
X21727Y11300D02*
Y11640D01*
X21542Y11830D02*
X22172D01*
X21542Y12460D02*
X22172D01*
Y11830D02*
Y12460D01*
X21542Y11830D02*
Y12460D01*
X21727Y13015D02*
X21937D01*
X21727Y12675D02*
X21937D01*
Y13015D01*
X21727Y12675D02*
Y13015D01*
X18265Y11750D02*
Y11900D01*
X18535Y11750D02*
Y11900D01*
X18265D02*
X18535D01*
X18265Y11750D02*
X18535D01*
X21957Y11605D02*
X22107D01*
X21957Y11335D02*
X22107D01*
Y11605D01*
X21957Y11335D02*
Y11605D01*
X18265Y12025D02*
Y12175D01*
X18535Y12025D02*
Y12175D01*
X18265D02*
X18535D01*
X18265Y12025D02*
X18535D01*
X22867Y12415D02*
Y12625D01*
X22527Y12415D02*
Y12625D01*
Y12415D02*
X22867D01*
X22527Y12625D02*
X22867D01*
X22417Y11320D02*
Y11470D01*
X22147Y11320D02*
Y11470D01*
Y11320D02*
X22417D01*
X22147Y11470D02*
X22417D01*
X22452Y10865D02*
Y11075D01*
X22112Y10865D02*
Y11075D01*
Y10865D02*
X22452D01*
X22112Y11075D02*
X22452D01*
Y11090D02*
Y11300D01*
X22112Y11090D02*
Y11300D01*
Y11090D02*
X22452D01*
X22112Y11300D02*
X22452D01*
X22867Y12190D02*
Y12400D01*
X22527Y12190D02*
Y12400D01*
Y12190D02*
X22867D01*
X22527Y12400D02*
X22867D01*
X20495Y7170D02*
X20705D01*
X20495Y6830D02*
X20705D01*
Y7170D01*
X20495Y6830D02*
Y7170D01*
Y6570D02*
X20705D01*
X20495Y6230D02*
X20705D01*
Y6570D01*
X20495Y6230D02*
Y6570D01*
X22512Y12665D02*
Y12875D01*
X22172Y12665D02*
Y12875D01*
Y12665D02*
X22512D01*
X22172Y12875D02*
X22512D01*
X21760Y13118D02*
X21910D01*
X21760Y13388D02*
X21910D01*
X21760Y13118D02*
Y13388D01*
X21910Y13118D02*
Y13388D01*
X19918Y8175D02*
Y8515D01*
X19727Y8175D02*
Y8515D01*
X19918D01*
X19727Y8175D02*
X19918D01*
X20525Y9012D02*
Y9353D01*
X20335Y9012D02*
Y9353D01*
X20525D01*
X20335Y9012D02*
X20525D01*
X19927Y9182D02*
X20268D01*
X19927Y8993D02*
X20268D01*
X19927D02*
Y9182D01*
X20268Y8993D02*
Y9182D01*
X22515Y12890D02*
Y13100D01*
X22175Y12890D02*
Y13100D01*
Y12890D02*
X22515D01*
X22175Y13100D02*
X22515D01*
X20810Y6625D02*
Y6775D01*
X20540Y6625D02*
Y6775D01*
Y6625D02*
X20810D01*
X20540Y6775D02*
X20810D01*
X21957Y12700D02*
X22107D01*
X21957Y12970D02*
X22107D01*
X21957Y12700D02*
Y12970D01*
X22107Y12700D02*
Y12970D01*
X22870Y12893D02*
Y13103D01*
X22530Y12893D02*
Y13103D01*
Y12893D02*
X22870D01*
X22530Y13103D02*
X22870D01*
Y12650D02*
Y12860D01*
X22530Y12650D02*
Y12860D01*
Y12650D02*
X22870D01*
X22530Y12860D02*
X22870D01*
X21415Y11785D02*
X21625D01*
X21415Y11445D02*
X21625D01*
Y11785D01*
X21415Y11445D02*
Y11785D01*
X21240Y11628D02*
X21390D01*
X21240Y11898D02*
X21390D01*
X21240Y11628D02*
Y11898D01*
X21390Y11628D02*
Y11898D01*
X21580Y11138D02*
Y11288D01*
X21310Y11138D02*
Y11288D01*
Y11138D02*
X21580D01*
X21310Y11288D02*
X21580D01*
X20815Y11458D02*
X21025D01*
X20815Y11118D02*
X21025D01*
Y11458D01*
X20815Y11118D02*
Y11458D01*
X21070Y11898D02*
X21220D01*
X21070Y11628D02*
X21220D01*
Y11898D01*
X21070Y11628D02*
Y11898D01*
X21040Y11458D02*
X21250D01*
X21040Y11118D02*
X21250D01*
Y11458D01*
X21040Y11118D02*
Y11458D01*
X22527Y12040D02*
X22737D01*
X22527Y11700D02*
X22737D01*
Y12040D01*
X22527Y11700D02*
Y12040D01*
X23123Y13350D02*
Y13560D01*
X22782Y13350D02*
Y13560D01*
Y13350D02*
X23123D01*
X22782Y13560D02*
X23123D01*
X23400Y11253D02*
Y11593D01*
X23210Y11253D02*
Y11593D01*
X23400D01*
X23210Y11253D02*
X23400D01*
X23230Y10938D02*
X23380D01*
X23230Y11207D02*
X23380D01*
X23230Y10938D02*
Y11207D01*
X23380Y10938D02*
Y11207D01*
X22895Y10932D02*
Y11082D01*
X23165Y10932D02*
Y11082D01*
X22895D02*
X23165D01*
X22895Y10932D02*
X23165D01*
X21155Y9305D02*
X21495D01*
X21155Y9495D02*
X21495D01*
Y9305D02*
Y9495D01*
X21155Y9305D02*
Y9495D01*
X21520Y8805D02*
Y9145D01*
X21330Y8805D02*
Y9145D01*
X21520D01*
X21330Y8805D02*
X21520D01*
X20268Y8375D02*
Y8585D01*
X19927Y8375D02*
Y8585D01*
Y8375D02*
X20268D01*
X19927Y8585D02*
X20268D01*
X19925Y8788D02*
X20265D01*
X19925Y8597D02*
X20265D01*
X19925D02*
Y8788D01*
X20265Y8597D02*
Y8788D01*
X19925Y8988D02*
X20265D01*
X19925Y8797D02*
X20265D01*
X19925D02*
Y8988D01*
X20265Y8797D02*
Y8988D01*
X20820Y9207D02*
Y9547D01*
X20630Y9207D02*
Y9547D01*
X20820D01*
X20630Y9207D02*
X20820D01*
X20192Y11510D02*
Y11660D01*
X20462Y11510D02*
Y11660D01*
X20192D02*
X20462D01*
X20192Y11510D02*
X20462D01*
X19747Y11655D02*
X19957D01*
X19747Y11315D02*
X19957D01*
Y11655D01*
X19747Y11315D02*
Y11655D01*
X19562Y11845D02*
X20192D01*
X19562Y12475D02*
X20192D01*
Y11845D02*
Y12475D01*
X19562Y11845D02*
Y12475D01*
X19747Y13030D02*
X19957D01*
X19747Y12690D02*
X19957D01*
Y13030D01*
X19747Y12690D02*
Y13030D01*
X19977Y11620D02*
X20127D01*
X19977Y11350D02*
X20127D01*
Y11620D01*
X19977Y11350D02*
Y11620D01*
X20845Y12255D02*
Y12465D01*
X20505Y12255D02*
Y12465D01*
Y12255D02*
X20845D01*
X20505Y12465D02*
X20845D01*
X20462Y11335D02*
Y11485D01*
X20192Y11335D02*
Y11485D01*
Y11335D02*
X20462D01*
X20192Y11485D02*
X20462D01*
X20497Y11105D02*
Y11315D01*
X20157Y11105D02*
Y11315D01*
Y11105D02*
X20497D01*
X20157Y11315D02*
X20497D01*
Y10880D02*
Y11090D01*
X20157Y10880D02*
Y11090D01*
Y10880D02*
X20497D01*
X20157Y11090D02*
X20497D01*
X20847Y12480D02*
Y12690D01*
X20507Y12480D02*
Y12690D01*
Y12480D02*
X20847D01*
X20507Y12690D02*
X20847D01*
X20497Y12705D02*
Y12915D01*
X20157Y12705D02*
Y12915D01*
Y12705D02*
X20497D01*
X20157Y12915D02*
X20497D01*
X19777Y13135D02*
X19927D01*
X19777Y13405D02*
X19927D01*
X19777Y13135D02*
Y13405D01*
X19927Y13135D02*
Y13405D01*
X20497Y12930D02*
Y13140D01*
X20157Y12930D02*
Y13140D01*
Y12930D02*
X20497D01*
X20157Y13140D02*
X20497D01*
X19977Y12725D02*
X20127D01*
X19977Y12995D02*
X20127D01*
X19977Y12725D02*
Y12995D01*
X20127Y12725D02*
Y12995D01*
X19070Y8765D02*
X19710D01*
X19070Y9135D02*
X19710D01*
Y8765D02*
Y9135D01*
X19070Y8765D02*
Y9135D01*
X19335Y9355D02*
X19675D01*
X19335Y9165D02*
X19675D01*
X19335D02*
Y9355D01*
X19675Y9165D02*
Y9355D01*
X18850Y8838D02*
Y9178D01*
X19040Y8838D02*
Y9178D01*
X18850Y8838D02*
X19040D01*
X18850Y9178D02*
X19040D01*
X20847Y12705D02*
Y12915D01*
X20507Y12705D02*
Y12915D01*
Y12705D02*
X20847D01*
X20507Y12915D02*
X20847D01*
X19330Y9182D02*
Y9332D01*
X19060Y9182D02*
Y9332D01*
Y9182D02*
X19330D01*
X19060Y9332D02*
X19330D01*
X20847Y12930D02*
Y13140D01*
X20507Y12930D02*
Y13140D01*
Y12930D02*
X20847D01*
X20507Y13140D02*
X20847D01*
X19340Y8557D02*
Y8707D01*
X19070Y8557D02*
Y8707D01*
Y8557D02*
X19340D01*
X19070Y8707D02*
X19340D01*
X19365Y8303D02*
Y8512D01*
X19025Y8303D02*
Y8512D01*
Y8303D02*
X19365D01*
X19025Y8512D02*
X19365D01*
X20623Y9890D02*
X20832D01*
X20623Y9550D02*
X20832D01*
Y9890D01*
X20623Y9550D02*
Y9890D01*
X19347Y11755D02*
X19557D01*
X19347Y11415D02*
X19557D01*
Y11755D01*
X19347Y11415D02*
Y11755D01*
X19123Y9890D02*
X19332D01*
X19123Y9550D02*
X19332D01*
Y9890D01*
X19123Y9550D02*
Y9890D01*
X19873D02*
X20082D01*
X19873Y9550D02*
X20082D01*
Y9890D01*
X19873Y9550D02*
Y9890D01*
X19202Y11598D02*
X19352D01*
X19202Y11868D02*
X19352D01*
X19202Y11598D02*
Y11868D01*
X19352Y11598D02*
Y11868D01*
X19512Y11208D02*
Y11358D01*
X19242Y11208D02*
Y11358D01*
Y11208D02*
X19512D01*
X19242Y11358D02*
X19512D01*
X18772Y11528D02*
X18982D01*
X18772Y11188D02*
X18982D01*
Y11528D01*
X18772Y11188D02*
Y11528D01*
X19375Y8303D02*
Y8512D01*
X19715Y8303D02*
Y8512D01*
X19375D02*
X19715D01*
X19375Y8303D02*
X19715D01*
X19027Y11868D02*
X19177D01*
X19027Y11598D02*
X19177D01*
Y11868D01*
X19027Y11598D02*
Y11868D01*
X19375Y8528D02*
Y8738D01*
X19715Y8528D02*
Y8738D01*
X19375D02*
X19715D01*
X19375Y8528D02*
X19715D01*
X18997Y11525D02*
X19207D01*
X18997Y11185D02*
X19207D01*
Y11525D01*
X18997Y11185D02*
Y11525D01*
X20622Y12080D02*
X20832D01*
X20622Y11740D02*
X20832D01*
Y12080D01*
X20622Y11740D02*
Y12080D01*
M02*
