G04*
G04 #@! TF.GenerationSoftware,Altium Limited,Altium Designer,19.1.9 (167)*
G04*
G04 Layer_Physical_Order=5*
G04 Layer_Color=16440176*
%FSLAX42Y42*%
%MOMM*%
G71*
G01*
G75*
%ADD129C,0.13*%
%ADD132C,0.25*%
%ADD133C,0.30*%
%ADD138C,0.45*%
%ADD140C,0.40*%
G36*
X10587Y6406D02*
X10588Y6406D01*
X10589Y6407D01*
X10591Y6407D01*
X10593Y6408D01*
X10594Y6409D01*
X10598Y6411D01*
X10601Y6413D01*
X10605Y6416D01*
Y6384D01*
X10603Y6386D01*
X10596Y6390D01*
X10594Y6391D01*
X10591Y6393D01*
X10589Y6393D01*
X10588Y6394D01*
X10587Y6394D01*
Y6406D01*
D02*
G37*
G36*
X10881Y6438D02*
X10881Y6437D01*
X10882Y6436D01*
X10882Y6434D01*
X10883Y6432D01*
X10884Y6431D01*
X10886Y6427D01*
X10888Y6424D01*
X10891Y6420D01*
X10859D01*
X10861Y6422D01*
X10865Y6429D01*
X10866Y6431D01*
X10868Y6434D01*
X10868Y6436D01*
X10869Y6437D01*
X10869Y6438D01*
X10881D01*
D02*
G37*
G36*
X9633Y6632D02*
X9631Y6632D01*
X9630Y6632D01*
X9628Y6631D01*
X9627Y6631D01*
X9625Y6630D01*
X9621Y6628D01*
X9618Y6626D01*
X9614Y6623D01*
X9616Y6655D01*
X9618Y6653D01*
X9624Y6648D01*
X9626Y6647D01*
X9628Y6646D01*
X9630Y6646D01*
X9631Y6645D01*
X9633Y6645D01*
X9634Y6645D01*
X9633Y6632D01*
D02*
G37*
G36*
X10327Y8796D02*
X10327Y8795D01*
X10327Y8794D01*
X10328Y8792D01*
X10328Y8790D01*
X10329Y8789D01*
X10332Y8785D01*
X10333Y8782D01*
X10336Y8777D01*
X10305D01*
X10306Y8780D01*
X10311Y8787D01*
X10312Y8789D01*
X10313Y8792D01*
X10314Y8794D01*
X10314Y8795D01*
X10314Y8796D01*
X10327D01*
D02*
G37*
G36*
X9619Y9580D02*
X9619Y9581D01*
X9620Y9582D01*
X9621Y9584D01*
X9622Y9585D01*
X9622Y9587D01*
X9624Y9592D01*
X9624Y9594D01*
X9625Y9600D01*
X9648Y9578D01*
X9645Y9577D01*
X9637Y9576D01*
X9635Y9575D01*
X9631Y9574D01*
X9630Y9573D01*
X9629Y9572D01*
X9628Y9571D01*
X9619Y9580D01*
D02*
G37*
G36*
X9002Y9840D02*
X9000Y9839D01*
X8996Y9834D01*
X8995Y9833D01*
X8993Y9830D01*
X8993Y9829D01*
X8992Y9828D01*
X8992Y9827D01*
X8967Y9852D01*
X8968Y9852D01*
X8969Y9853D01*
X8970Y9853D01*
X8971Y9854D01*
X8973Y9855D01*
X8975Y9857D01*
X8977Y9859D01*
X8980Y9862D01*
X9002Y9840D01*
D02*
G37*
G36*
X9987Y10143D02*
X9987Y10145D01*
X9987Y10149D01*
X9986Y10151D01*
X9986Y10153D01*
X9985Y10155D01*
X9985Y10157D01*
X9984Y10158D01*
X9983Y10160D01*
X9982Y10161D01*
X10018D01*
X10017Y10160D01*
X10016Y10158D01*
X10015Y10157D01*
X10015Y10155D01*
X10014Y10153D01*
X10014Y10151D01*
X10013Y10149D01*
X10013Y10147D01*
X10013Y10145D01*
X10013Y10143D01*
X9987D01*
D02*
G37*
G36*
X10062Y10315D02*
X10065Y10315D01*
X10071Y10316D01*
X10073Y10316D01*
X10076Y10317D01*
X10077Y10317D01*
X10078Y10317D01*
X10079Y10318D01*
Y10282D01*
X10078Y10283D01*
X10077Y10283D01*
X10076Y10283D01*
X10075Y10284D01*
X10073Y10284D01*
X10069Y10285D01*
X10067Y10285D01*
X10062Y10285D01*
Y10315D01*
D02*
G37*
G36*
X10657Y9615D02*
X10655Y9615D01*
X10650Y9614D01*
X10648Y9614D01*
X10647Y9614D01*
X10645Y9613D01*
X10644Y9613D01*
X10643Y9612D01*
X10642Y9612D01*
Y9643D01*
X10643Y9643D01*
X10644Y9642D01*
X10645Y9642D01*
X10647Y9641D01*
X10648Y9641D01*
X10650Y9641D01*
X10653Y9640D01*
X10655Y9640D01*
X10657Y9640D01*
Y9615D01*
D02*
G37*
G36*
Y9687D02*
X10655Y9687D01*
X10650Y9687D01*
X10648Y9686D01*
X10647Y9686D01*
X10645Y9686D01*
X10644Y9685D01*
X10643Y9685D01*
X10642Y9684D01*
Y9716D01*
X10643Y9715D01*
X10644Y9715D01*
X10645Y9714D01*
X10647Y9714D01*
X10648Y9714D01*
X10650Y9713D01*
X10653Y9713D01*
X10655Y9713D01*
X10657Y9713D01*
Y9687D01*
D02*
G37*
G36*
X10795Y10820D02*
X10795Y10808D01*
X10770D01*
X10770Y10808D01*
X10770Y10808D01*
X10770Y10811D01*
X10770Y10820D01*
X10795D01*
D02*
G37*
G36*
X9416Y11157D02*
X9416Y11158D01*
X9416Y11159D01*
X9415Y11161D01*
X9415Y11163D01*
X9414Y11164D01*
X9411Y11168D01*
X9410Y11171D01*
X9407Y11175D01*
X9438D01*
X9437Y11173D01*
X9432Y11166D01*
X9431Y11164D01*
X9430Y11161D01*
X9429Y11159D01*
X9429Y11158D01*
X9429Y11157D01*
X9416D01*
D02*
G37*
G36*
X9930Y11643D02*
X9930Y11645D01*
X9930Y11646D01*
X9929Y11648D01*
X9929Y11650D01*
X9928Y11651D01*
X9926Y11656D01*
X9925Y11658D01*
X9923Y11662D01*
X9953Y11658D01*
X9951Y11656D01*
X9948Y11652D01*
X9946Y11650D01*
X9945Y11649D01*
X9944Y11647D01*
X9944Y11645D01*
X9943Y11644D01*
X9943Y11642D01*
X9943Y11641D01*
X9930Y11643D01*
D02*
G37*
G36*
X9955Y11724D02*
X9954Y11724D01*
X9953Y11725D01*
X9951Y11726D01*
X9950Y11727D01*
X9948Y11727D01*
X9943Y11729D01*
X9941Y11729D01*
X9935Y11730D01*
X9957Y11753D01*
X9958Y11750D01*
X9959Y11742D01*
X9960Y11740D01*
X9961Y11736D01*
X9962Y11735D01*
X9963Y11734D01*
X9964Y11733D01*
X9955Y11724D01*
D02*
G37*
G36*
X10240Y11370D02*
X10240Y11368D01*
X10240Y11364D01*
X10240Y11363D01*
X10240Y11361D01*
X10241Y11360D01*
X10241Y11358D01*
X10242Y11357D01*
X10242Y11356D01*
X10243Y11355D01*
X10211Y11354D01*
X10212Y11355D01*
X10212Y11356D01*
X10213Y11357D01*
X10213Y11359D01*
X10213Y11360D01*
X10214Y11362D01*
X10214Y11365D01*
X10214Y11367D01*
X10214Y11369D01*
X10240Y11370D01*
D02*
G37*
G36*
X10313Y11405D02*
X10312Y11404D01*
X10308Y11400D01*
X10307Y11398D01*
X10307Y11397D01*
X10306Y11396D01*
X10305Y11394D01*
X10305Y11393D01*
X10305Y11392D01*
X10282Y11415D01*
X10283Y11415D01*
X10284Y11415D01*
X10286Y11416D01*
X10287Y11417D01*
X10288Y11417D01*
X10290Y11418D01*
X10292Y11421D01*
X10294Y11422D01*
X10295Y11423D01*
X10313Y11405D01*
D02*
G37*
G36*
X10323Y11333D02*
X10322Y11331D01*
X10318Y11327D01*
X10317Y11326D01*
X10317Y11324D01*
X10316Y11323D01*
X10315Y11322D01*
X10315Y11321D01*
X10315Y11320D01*
X10292Y11342D01*
X10293Y11343D01*
X10294Y11343D01*
X10296Y11343D01*
X10297Y11344D01*
X10298Y11345D01*
X10300Y11346D01*
X10302Y11348D01*
X10304Y11349D01*
X10305Y11351D01*
X10323Y11333D01*
D02*
G37*
G36*
X10403Y11290D02*
X10402Y11289D01*
X10398Y11285D01*
X10397Y11283D01*
X10397Y11282D01*
X10396Y11281D01*
X10395Y11279D01*
X10395Y11278D01*
X10395Y11277D01*
X10372Y11300D01*
X10373Y11300D01*
X10374Y11300D01*
X10376Y11301D01*
X10377Y11302D01*
X10378Y11302D01*
X10380Y11303D01*
X10382Y11306D01*
X10384Y11307D01*
X10385Y11308D01*
X10403Y11290D01*
D02*
G37*
G36*
X10733Y11090D02*
X10732Y11089D01*
X10728Y11085D01*
X10727Y11083D01*
X10727Y11082D01*
X10726Y11081D01*
X10725Y11079D01*
X10725Y11078D01*
X10725Y11077D01*
X10702Y11100D01*
X10703Y11100D01*
X10704Y11100D01*
X10706Y11101D01*
X10707Y11102D01*
X10708Y11102D01*
X10710Y11103D01*
X10712Y11106D01*
X10714Y11107D01*
X10715Y11108D01*
X10733Y11090D01*
D02*
G37*
G36*
X10553Y11060D02*
X10552Y11058D01*
X10552Y11057D01*
X10551Y11056D01*
X10551Y11054D01*
X10551Y11053D01*
X10550Y11049D01*
X10550Y11047D01*
X10550Y11045D01*
X10525D01*
X10525Y11047D01*
X10524Y11053D01*
X10524Y11054D01*
X10524Y11056D01*
X10523Y11057D01*
X10523Y11058D01*
X10522Y11060D01*
X10522Y11060D01*
X10553D01*
X10553Y11060D01*
D02*
G37*
G36*
X10363Y11074D02*
X10363Y11073D01*
X10363Y11072D01*
X10364Y11071D01*
X10365Y11069D01*
X10366Y11068D01*
X10368Y11065D01*
X10369Y11064D01*
X10371Y11062D01*
X10353Y11044D01*
X10351Y11046D01*
X10347Y11049D01*
X10346Y11050D01*
X10344Y11051D01*
X10343Y11052D01*
X10342Y11052D01*
X10341Y11052D01*
X10340Y11053D01*
X10362Y11075D01*
X10363Y11074D01*
D02*
G37*
G36*
X10736Y10855D02*
X10734Y10854D01*
X10731Y10850D01*
X10730Y10848D01*
X10729Y10847D01*
X10728Y10846D01*
X10728Y10844D01*
X10728Y10843D01*
X10727Y10842D01*
X10705Y10865D01*
X10706Y10865D01*
X10707Y10865D01*
X10708Y10866D01*
X10709Y10867D01*
X10711Y10867D01*
X10712Y10868D01*
X10715Y10871D01*
X10716Y10872D01*
X10718Y10873D01*
X10736Y10855D01*
D02*
G37*
G36*
X10626Y10848D02*
X10624Y10846D01*
X10621Y10842D01*
X10620Y10841D01*
X10619Y10839D01*
X10618Y10838D01*
X10618Y10837D01*
X10618Y10836D01*
X10617Y10835D01*
X10595Y10857D01*
X10596Y10858D01*
X10597Y10858D01*
X10598Y10858D01*
X10599Y10859D01*
X10601Y10860D01*
X10602Y10861D01*
X10605Y10863D01*
X10606Y10864D01*
X10608Y10866D01*
X10626Y10848D01*
D02*
G37*
G36*
X11075Y8517D02*
X11076Y8516D01*
X11077Y8516D01*
X11079Y8515D01*
X11080Y8514D01*
X11082Y8513D01*
X11086Y8512D01*
X11089Y8511D01*
X11094Y8510D01*
X11070Y8489D01*
X11070Y8492D01*
X11069Y8498D01*
X11069Y8500D01*
X11068Y8502D01*
X11068Y8504D01*
X11067Y8506D01*
X11067Y8507D01*
X11066Y8508D01*
X11065Y8509D01*
X11075Y8517D01*
D02*
G37*
G36*
X11216Y8531D02*
X11216Y8530D01*
X11217Y8528D01*
X11217Y8527D01*
X11218Y8525D01*
X11219Y8523D01*
X11221Y8519D01*
X11223Y8517D01*
X11226Y8512D01*
X11194D01*
X11196Y8515D01*
X11200Y8521D01*
X11201Y8523D01*
X11203Y8527D01*
X11203Y8528D01*
X11204Y8530D01*
X11204Y8531D01*
X11216D01*
D02*
G37*
G36*
X13448Y7375D02*
X13450Y7375D01*
X13454Y7376D01*
X13456Y7376D01*
X13458Y7377D01*
X13460Y7377D01*
X13462Y7378D01*
X13463Y7379D01*
X13465Y7379D01*
X13466Y7380D01*
Y7345D01*
X13465Y7346D01*
X13463Y7346D01*
X13462Y7347D01*
X13460Y7348D01*
X13458Y7348D01*
X13456Y7349D01*
X13454Y7349D01*
X13452Y7350D01*
X13450Y7350D01*
X13448Y7350D01*
Y7375D01*
D02*
G37*
G36*
X11103Y8609D02*
X11104Y8608D01*
X11105Y8607D01*
X11106Y8606D01*
X11108Y8606D01*
X11110Y8605D01*
X11114Y8604D01*
X11117Y8603D01*
X11123Y8602D01*
X11100Y8580D01*
X11100Y8583D01*
X11098Y8591D01*
X11097Y8593D01*
X11096Y8596D01*
X11095Y8598D01*
X11094Y8599D01*
X11094Y8600D01*
X11103Y8609D01*
D02*
G37*
G36*
X11458Y9853D02*
X11457Y9851D01*
X11453Y9847D01*
X11452Y9846D01*
X11452Y9844D01*
X11451Y9843D01*
X11450Y9842D01*
X11450Y9841D01*
X11450Y9840D01*
X11427Y9862D01*
X11428Y9863D01*
X11429Y9863D01*
X11431Y9863D01*
X11432Y9864D01*
X11433Y9865D01*
X11435Y9866D01*
X11437Y9868D01*
X11439Y9869D01*
X11440Y9871D01*
X11458Y9853D01*
D02*
G37*
G36*
X11176Y9928D02*
X11174Y9926D01*
X11171Y9922D01*
X11170Y9921D01*
X11169Y9919D01*
X11168Y9918D01*
X11168Y9917D01*
X11168Y9916D01*
X11167Y9915D01*
X11145Y9937D01*
X11146Y9938D01*
X11147Y9938D01*
X11148Y9938D01*
X11149Y9939D01*
X11151Y9940D01*
X11152Y9941D01*
X11155Y9943D01*
X11156Y9944D01*
X11158Y9946D01*
X11176Y9928D01*
D02*
G37*
G36*
X10915Y10832D02*
X10913Y10832D01*
X10907Y10832D01*
X10906Y10831D01*
X10904Y10831D01*
X10903Y10831D01*
X10902Y10830D01*
X10900Y10830D01*
X10900Y10829D01*
Y10861D01*
X10900Y10860D01*
X10902Y10860D01*
X10903Y10859D01*
X10904Y10859D01*
X10906Y10859D01*
X10907Y10858D01*
X10911Y10858D01*
X10913Y10858D01*
X10915Y10858D01*
Y10832D01*
D02*
G37*
G36*
X11038Y10798D02*
X11036Y10798D01*
X11032Y10798D01*
X11030Y10797D01*
X11029Y10797D01*
X11027Y10797D01*
X11026Y10796D01*
X11025Y10796D01*
X11023Y10795D01*
X11022Y10794D01*
X11022Y10826D01*
X11023Y10826D01*
X11024Y10825D01*
X11025Y10825D01*
X11026Y10824D01*
X11028Y10824D01*
X11029Y10824D01*
X11033Y10823D01*
X11035Y10823D01*
X11037Y10823D01*
X11038Y10798D01*
D02*
G37*
G36*
X13900Y11832D02*
X13900Y11830D01*
X13901Y11825D01*
X13901Y11823D01*
X13901Y11822D01*
X13902Y11820D01*
X13902Y11819D01*
X13903Y11818D01*
X13903Y11817D01*
X13872D01*
X13872Y11818D01*
X13873Y11819D01*
X13873Y11820D01*
X13874Y11822D01*
X13874Y11823D01*
X13874Y11825D01*
X13875Y11828D01*
X13875Y11830D01*
X13875Y11832D01*
X13900D01*
D02*
G37*
G36*
X14148Y11800D02*
X14147Y11798D01*
X14147Y11797D01*
X14146Y11796D01*
X14146Y11794D01*
X14146Y11793D01*
X14145Y11789D01*
X14145Y11787D01*
X14145Y11785D01*
X14120D01*
X14120Y11787D01*
X14119Y11793D01*
X14119Y11794D01*
X14119Y11796D01*
X14118Y11797D01*
X14118Y11798D01*
X14117Y11800D01*
X14117Y11800D01*
X14148D01*
X14148Y11800D01*
D02*
G37*
G36*
X13985Y11774D02*
X13960Y11774D01*
X13960Y11776D01*
X13960Y11778D01*
X13959Y11780D01*
X13959Y11781D01*
X13959Y11783D01*
X13958Y11784D01*
X13957Y11785D01*
X13957Y11786D01*
X13956Y11787D01*
X13955Y11788D01*
X13983Y11797D01*
X13985Y11774D01*
D02*
G37*
G36*
X14118Y10669D02*
X14117Y10670D01*
X14116Y10670D01*
X14115Y10671D01*
X14113Y10671D01*
X14112Y10671D01*
X14110Y10672D01*
X14107Y10672D01*
X14105Y10672D01*
X14103Y10672D01*
Y10698D01*
X14105Y10698D01*
X14110Y10698D01*
X14112Y10699D01*
X14113Y10699D01*
X14115Y10699D01*
X14116Y10700D01*
X14117Y10700D01*
X14118Y10701D01*
Y10669D01*
D02*
G37*
G36*
X14223Y11797D02*
X14222Y11796D01*
X14222Y11795D01*
X14221Y11793D01*
X14221Y11792D01*
X14221Y11790D01*
X14220Y11787D01*
X14220Y11785D01*
X14220Y11783D01*
X14195D01*
X14195Y11785D01*
X14194Y11790D01*
X14194Y11792D01*
X14194Y11793D01*
X14193Y11795D01*
X14193Y11796D01*
X14192Y11797D01*
X14192Y11798D01*
X14223D01*
X14223Y11797D01*
D02*
G37*
G36*
X14358Y11467D02*
X14357Y11467D01*
X14356Y11468D01*
X14355Y11468D01*
X14353Y11469D01*
X14352Y11469D01*
X14350Y11469D01*
X14347Y11470D01*
X14345Y11470D01*
X14343Y11470D01*
Y11495D01*
X14345Y11495D01*
X14350Y11496D01*
X14352Y11496D01*
X14353Y11496D01*
X14355Y11497D01*
X14356Y11497D01*
X14357Y11498D01*
X14358Y11498D01*
Y11467D01*
D02*
G37*
G36*
X14915Y11449D02*
X14915Y11450D01*
X14913Y11450D01*
X14912Y11451D01*
X14911Y11451D01*
X14909Y11451D01*
X14908Y11452D01*
X14904Y11452D01*
X14902Y11452D01*
X14900Y11452D01*
Y11478D01*
X14902Y11478D01*
X14908Y11478D01*
X14909Y11479D01*
X14911Y11479D01*
X14912Y11479D01*
X14913Y11480D01*
X14915Y11480D01*
X14915Y11481D01*
Y11449D01*
D02*
G37*
G36*
X15018Y11450D02*
X15017Y11450D01*
X15016Y11450D01*
X15014Y11449D01*
X15013Y11448D01*
X15012Y11448D01*
X15010Y11447D01*
X15008Y11444D01*
X15006Y11443D01*
X15005Y11442D01*
X14987Y11460D01*
X14988Y11461D01*
X14992Y11465D01*
X14993Y11467D01*
X14993Y11468D01*
X14994Y11469D01*
X14995Y11471D01*
X14995Y11472D01*
X14995Y11473D01*
X15018Y11450D01*
D02*
G37*
G36*
X15175Y11446D02*
X15174Y11446D01*
X15173Y11445D01*
X15172Y11445D01*
X15171Y11444D01*
X15169Y11443D01*
X15168Y11442D01*
X15165Y11440D01*
X15164Y11439D01*
X15162Y11437D01*
X15144Y11454D01*
X15145Y11456D01*
X15148Y11459D01*
X15149Y11460D01*
X15150Y11462D01*
X15150Y11463D01*
X15151Y11464D01*
X15151Y11465D01*
X15152Y11467D01*
X15152Y11468D01*
X15175Y11446D01*
D02*
G37*
G36*
X15094Y11445D02*
X15093Y11445D01*
X15092Y11445D01*
X15091Y11444D01*
X15090Y11444D01*
X15089Y11443D01*
X15086Y11441D01*
X15083Y11438D01*
X15082Y11437D01*
X15062Y11453D01*
X15063Y11454D01*
X15066Y11457D01*
X15067Y11459D01*
X15068Y11460D01*
X15069Y11461D01*
X15069Y11463D01*
X15070Y11464D01*
X15070Y11465D01*
X15070Y11466D01*
X15094Y11445D01*
D02*
G37*
G36*
X15340Y11440D02*
X15339Y11440D01*
X15338Y11440D01*
X15337Y11439D01*
X15336Y11438D01*
X15334Y11438D01*
X15333Y11437D01*
X15330Y11434D01*
X15329Y11433D01*
X15327Y11432D01*
X15309Y11450D01*
X15311Y11451D01*
X15314Y11455D01*
X15315Y11457D01*
X15316Y11458D01*
X15317Y11459D01*
X15317Y11461D01*
X15317Y11462D01*
X15318Y11463D01*
X15340Y11440D01*
D02*
G37*
G36*
X15258D02*
X15257Y11440D01*
X15256Y11440D01*
X15254Y11439D01*
X15253Y11438D01*
X15252Y11438D01*
X15250Y11437D01*
X15248Y11434D01*
X15246Y11433D01*
X15245Y11432D01*
X15227Y11450D01*
X15228Y11451D01*
X15232Y11455D01*
X15233Y11457D01*
X15233Y11458D01*
X15234Y11459D01*
X15235Y11461D01*
X15235Y11462D01*
X15235Y11463D01*
X15258Y11440D01*
D02*
G37*
G36*
X14825Y11359D02*
X14825Y11360D01*
X14823Y11360D01*
X14822Y11361D01*
X14821Y11361D01*
X14819Y11361D01*
X14818Y11362D01*
X14814Y11362D01*
X14812Y11362D01*
X14810Y11362D01*
Y11388D01*
X14812Y11388D01*
X14818Y11388D01*
X14819Y11389D01*
X14821Y11389D01*
X14822Y11389D01*
X14823Y11390D01*
X14825Y11390D01*
X14825Y11391D01*
Y11359D01*
D02*
G37*
G36*
X14878Y10942D02*
X14877Y10941D01*
X14877Y10940D01*
X14876Y10938D01*
X14876Y10937D01*
X14876Y10935D01*
X14875Y10932D01*
X14875Y10930D01*
X14875Y10928D01*
X14850D01*
X14850Y10930D01*
X14849Y10935D01*
X14849Y10937D01*
X14849Y10938D01*
X14848Y10940D01*
X14848Y10941D01*
X14847Y10942D01*
X14847Y10943D01*
X14878D01*
X14878Y10942D01*
D02*
G37*
G36*
X14268Y10660D02*
X14267Y10660D01*
X14266Y10660D01*
X14264Y10659D01*
X14263Y10658D01*
X14262Y10658D01*
X14260Y10657D01*
X14258Y10654D01*
X14256Y10653D01*
X14255Y10652D01*
X14237Y10670D01*
X14238Y10671D01*
X14242Y10675D01*
X14243Y10677D01*
X14243Y10678D01*
X14244Y10679D01*
X14245Y10681D01*
X14245Y10682D01*
X14245Y10683D01*
X14268Y10660D01*
D02*
G37*
G36*
X14609Y10648D02*
X14607Y10648D01*
X14606Y10648D01*
X14605Y10647D01*
X14604Y10646D01*
X14603Y10646D01*
X14601Y10645D01*
X14598Y10642D01*
X14597Y10641D01*
X14595Y10640D01*
X14577Y10658D01*
X14579Y10659D01*
X14582Y10663D01*
X14583Y10665D01*
X14584Y10666D01*
X14585Y10667D01*
X14585Y10669D01*
X14586Y10670D01*
X14586Y10671D01*
X14609Y10648D01*
D02*
G37*
D129*
X19316Y12188D02*
X19374D01*
X19207Y12080D02*
X19316Y12188D01*
X19207Y10906D02*
Y12080D01*
X17886Y9585D02*
X19207Y10906D01*
X13000Y9585D02*
X17886D01*
X11435Y8785D02*
X12239D01*
X11413Y8807D02*
X11435Y8785D01*
X11095Y8807D02*
X11413D01*
X12227Y8813D02*
X13000Y9585D01*
X11446Y8813D02*
X12227D01*
X11379Y8880D02*
X11446Y8813D01*
X11153Y8880D02*
X11379D01*
X12239Y8785D02*
X13011Y9557D01*
X20720Y10822D02*
X21375Y11478D01*
Y12155D01*
X19162Y10822D02*
X20720D01*
X17898Y9557D02*
X19162Y10822D01*
X19374Y10124D02*
X19700Y10450D01*
X19077Y10124D02*
X19374D01*
X13011Y9557D02*
X17898D01*
X21595Y7968D02*
X21727Y8100D01*
X21317Y7968D02*
X21595D01*
X21004Y7654D02*
X21317Y7968D01*
X20057Y7654D02*
X21004D01*
X20035Y7632D02*
X20057Y7654D01*
X19523Y7632D02*
X20035D01*
X18702Y8391D02*
Y9750D01*
Y8391D02*
X18714Y8379D01*
Y7011D02*
Y8379D01*
Y7011D02*
X18965Y6760D01*
X18702Y9750D02*
X19077Y10124D01*
X18745Y7105D02*
X19012Y6838D01*
X18745Y7105D02*
Y9744D01*
X18958Y9957D01*
X19760D01*
X19825Y10022D01*
Y10500D01*
X19950Y10032D02*
Y10450D01*
X19838Y9921D02*
X19950Y10032D01*
X18961Y9921D02*
X19838D01*
X18798Y9757D02*
X18961Y9921D01*
X18798Y7155D02*
Y9757D01*
X19032Y6920D02*
X19035D01*
X18798Y7155D02*
X19032Y6920D01*
X19190Y7745D02*
X21012D01*
X21650Y8383D01*
X20998Y7688D02*
X21611Y8300D01*
X19450Y7688D02*
X20998D01*
X21727Y8100D02*
Y8147D01*
X21650Y8225D02*
X21727Y8147D01*
X21650Y8383D02*
Y8400D01*
X21611Y8300D02*
X21675D01*
X10243Y8987D02*
Y9319D01*
X10202Y9359D02*
Y10278D01*
X10594Y8983D02*
X10957Y8620D01*
X10594Y8983D02*
Y9007D01*
X10230Y9370D02*
X10594Y9007D01*
X10243Y8987D02*
X10321Y8909D01*
X10230Y10289D02*
Y10302D01*
Y9370D02*
Y10289D01*
X10202Y9359D02*
X10243Y9319D01*
X11090Y8490D02*
Y8493D01*
X10957Y8620D02*
X10964D01*
X11090Y8493D01*
X10282Y9443D02*
X10942Y8783D01*
X10282Y9443D02*
Y10355D01*
X10310Y9502D02*
Y10477D01*
Y9502D02*
X11210Y8603D01*
X10942Y8761D02*
X11120Y8582D01*
X10942Y8761D02*
Y8783D01*
X10040Y10748D02*
X10310Y10477D01*
X10072Y10565D02*
X10282Y10355D01*
X9393Y9346D02*
X9645Y9597D01*
X9393Y8042D02*
Y9346D01*
Y8042D02*
X9665Y7770D01*
X9422Y11109D02*
X10230Y10302D01*
X10321Y8765D02*
Y8909D01*
X11210Y8500D02*
Y8603D01*
X9422Y11109D02*
Y11188D01*
X9652Y10828D02*
X10202Y10278D01*
X9628Y10828D02*
X9652D01*
X10095Y6400D02*
X10618D01*
X9999Y6496D02*
X10095Y6400D01*
X9857Y6638D02*
X9936Y6559D01*
X9986Y6509D02*
X9999Y6496D01*
X9977Y6509D02*
X9986D01*
X9968Y6500D02*
X9977Y6509D01*
X9959Y6500D02*
X9968D01*
X9950Y6509D02*
X9959Y6500D01*
X9950Y6509D02*
Y6518D01*
X9963Y6532D01*
X9977Y6545D01*
Y6554D01*
X9968Y6563D02*
X9977Y6554D01*
X9959Y6563D02*
X9968D01*
X9950Y6554D02*
X9959Y6563D01*
X9941Y6554D02*
X9950Y6554D01*
X9936Y6559D02*
X9941Y6554D01*
X9604Y6638D02*
X9857D01*
X10040Y10748D02*
Y11375D01*
X9938Y11750D02*
X9992Y11696D01*
Y11423D02*
Y11696D01*
Y11423D02*
X10040Y11375D01*
X9936Y11183D02*
X9943Y11177D01*
X9936Y11183D02*
Y11669D01*
X9940Y11672D01*
X9943Y10695D02*
X9969Y10669D01*
X10072Y10565D02*
X10072Y10565D01*
X10072Y10565D02*
Y10574D01*
X10081Y10583D01*
Y10592D01*
X10072Y10601D02*
X10081Y10592D01*
X10063Y10601D02*
X10072D01*
X10050Y10588D02*
X10063Y10601D01*
X10036Y10574D02*
X10050Y10588D01*
X10027Y10574D02*
X10036D01*
X10018Y10583D02*
X10027Y10574D01*
X10018Y10583D02*
Y10592D01*
X10032Y10606D01*
X10045Y10619D01*
Y10628D01*
X10036Y10637D02*
X10045Y10628D01*
X10027Y10637D02*
X10036D01*
X10014Y10624D02*
X10027Y10637D01*
X10000Y10610D02*
X10014Y10624D01*
X9991Y10610D02*
X10000D01*
X9982Y10619D02*
X9991Y10610D01*
X9982Y10619D02*
Y10628D01*
X9996Y10642D01*
X10009Y10655D01*
Y10664D01*
X10000Y10673D02*
X10009Y10664D01*
X9991Y10673D02*
X10000D01*
X9982Y10664D02*
X9991Y10673D01*
X9973Y10664D02*
X9982Y10664D01*
X9969Y10669D02*
X9973Y10664D01*
X9943Y10695D02*
Y11177D01*
X10875Y6407D02*
Y6560D01*
X10565Y6870D02*
X10875Y6560D01*
X10559Y6876D02*
X10565Y6870D01*
X10559Y6876D02*
Y6885D01*
X10568Y6894D01*
Y6903D01*
X10559Y6912D02*
X10568Y6903D01*
X10550Y6912D02*
X10559D01*
X10536Y6899D02*
X10550Y6912D01*
X10523Y6885D02*
X10536Y6899D01*
X10514Y6885D02*
X10523D01*
X10505Y6894D02*
X10514Y6885D01*
X10505Y6894D02*
Y6903D01*
X10518Y6917D01*
X10532Y6930D01*
Y6939D01*
X10523Y6948D02*
X10532Y6939D01*
X10514Y6948D02*
X10523D01*
X10500Y6935D02*
X10514Y6948D01*
X10487Y6921D02*
X10500Y6935D01*
X10478Y6921D02*
X10487D01*
X10469Y6930D02*
X10478Y6921D01*
X10469Y6930D02*
Y6939D01*
X10482Y6953D01*
X10496Y6966D01*
Y6975D01*
X10487Y6984D02*
X10496Y6975D01*
X10478Y6984D02*
X10487D01*
X10464Y6971D02*
X10478Y6984D01*
X10451Y6957D02*
X10464Y6971D01*
X10442Y6957D02*
X10451D01*
X10433Y6966D02*
X10442Y6957D01*
X10433Y6966D02*
Y6975D01*
X10446Y6989D01*
X10460Y7002D01*
Y7011D01*
X10451Y7020D02*
X10460Y7011D01*
X10442Y7020D02*
X10451D01*
X10428Y7007D02*
X10442Y7020D01*
X10415Y6993D02*
X10428Y7007D01*
X10406Y6993D02*
X10415D01*
X10397Y7002D02*
X10406Y6993D01*
X10397Y7002D02*
Y7011D01*
X10410Y7025D01*
X10424Y7038D01*
Y7047D01*
X10415Y7056D02*
X10424Y7047D01*
X10406Y7056D02*
X10415D01*
X10392Y7043D02*
X10406Y7056D01*
X10379Y7029D02*
X10392Y7043D01*
X10370Y7029D02*
X10379D01*
X10361Y7038D02*
X10370Y7029D01*
X10361Y7038D02*
Y7047D01*
X10374Y7061D01*
X10388Y7074D01*
Y7083D01*
X10379Y7092D02*
X10388Y7083D01*
X10370Y7092D02*
X10379D01*
X10356Y7079D02*
X10370Y7092D01*
X10343Y7065D02*
X10356Y7079D01*
X10334Y7065D02*
X10343D01*
X10325Y7074D02*
X10334Y7065D01*
X10325Y7074D02*
Y7083D01*
X10339Y7096D01*
X10352Y7110D01*
Y7119D01*
X10343Y7128D02*
X10352Y7119D01*
X10334Y7128D02*
X10343D01*
X10321Y7114D02*
X10334Y7128D01*
X10307Y7101D02*
X10321Y7114D01*
X10298Y7101D02*
X10307D01*
X10289Y7110D02*
X10298Y7101D01*
X10289Y7110D02*
Y7119D01*
X10303Y7132D01*
X10316Y7146D01*
Y7155D01*
X10307Y7164D02*
X10316Y7155D01*
X10298Y7164D02*
X10307D01*
X10285Y7150D02*
X10298Y7164D01*
X10271Y7137D02*
X10285Y7150D01*
X10262Y7137D02*
X10271D01*
X10253Y7146D02*
X10262Y7137D01*
X10253Y7146D02*
Y7155D01*
X10267Y7168D01*
X10280Y7182D01*
Y7191D01*
X10271Y7200D02*
X10280Y7191D01*
X10262Y7200D02*
X10271D01*
X10249Y7186D02*
X10262Y7200D01*
X10235Y7173D02*
X10249Y7186D01*
X10226Y7173D02*
X10235D01*
X10217Y7182D02*
X10226Y7173D01*
X10217Y7182D02*
Y7191D01*
X10231Y7204D01*
X10244Y7218D01*
Y7227D01*
X10235Y7236D02*
X10244Y7227D01*
X10226Y7236D02*
X10235D01*
X10213Y7222D02*
X10226Y7236D01*
X10199Y7209D02*
X10213Y7222D01*
X10190Y7209D02*
X10199D01*
X10181Y7218D02*
X10190Y7209D01*
X10181Y7218D02*
Y7227D01*
X10195Y7240D01*
X10208Y7254D01*
Y7263D01*
X10199Y7272D02*
X10208Y7263D01*
X10190Y7272D02*
X10199D01*
X10177Y7258D02*
X10190Y7272D01*
X10163Y7245D02*
X10177Y7258D01*
X10154Y7245D02*
X10163D01*
X10145Y7254D02*
X10154Y7245D01*
X10145Y7254D02*
Y7263D01*
X10159Y7276D01*
X10172Y7290D01*
Y7299D01*
X10163Y7308D02*
X10172Y7299D01*
X10154Y7308D02*
X10163D01*
X10141Y7294D02*
X10154Y7308D01*
X10127Y7281D02*
X10141Y7294D01*
X10119Y7281D02*
X10127D01*
X10110Y7290D02*
X10119Y7281D01*
X10110Y7290D02*
Y7299D01*
X10123Y7312D01*
X10136Y7325D01*
Y7334D01*
X10127Y7343D02*
X10136Y7334D01*
X10119Y7343D02*
X10127D01*
X10105Y7330D02*
X10119Y7343D01*
X10092Y7316D02*
X10105Y7330D01*
X10083Y7316D02*
X10092D01*
X10074Y7325D02*
X10083Y7316D01*
X10074Y7325D02*
Y7334D01*
X10087Y7348D01*
X10101Y7361D01*
Y7370D01*
X10092Y7379D02*
X10101Y7370D01*
X10083Y7379D02*
X10092D01*
X10069Y7366D02*
X10083Y7379D01*
X10056Y7352D02*
X10069Y7366D01*
X10047Y7352D02*
X10056D01*
X10038Y7361D02*
X10047Y7352D01*
X10038Y7361D02*
Y7370D01*
X10051Y7384D01*
X10065Y7397D01*
Y7406D01*
X10056Y7415D02*
X10065Y7406D01*
X10047Y7415D02*
X10056D01*
X10033Y7402D02*
X10047Y7415D01*
X10020Y7388D02*
X10033Y7402D01*
X10011Y7388D02*
X10020D01*
X10002Y7397D02*
X10011Y7388D01*
X10002Y7397D02*
Y7406D01*
X10015Y7420D01*
X10029Y7433D01*
Y7442D01*
X10020Y7451D02*
X10029Y7442D01*
X10011Y7451D02*
X10020D01*
X9997Y7438D02*
X10011Y7451D01*
X9984Y7424D02*
X9997Y7438D01*
X9975Y7424D02*
X9984D01*
X9966Y7433D02*
X9975Y7424D01*
X9966Y7433D02*
Y7442D01*
X9979Y7456D01*
X9993Y7469D01*
Y7478D01*
X9984Y7487D02*
X9993Y7478D01*
X9975Y7487D02*
X9984D01*
X9961Y7474D02*
X9975Y7487D01*
X9948Y7460D02*
X9961Y7474D01*
X9939Y7460D02*
X9948D01*
X9930Y7469D02*
X9939Y7460D01*
X9930Y7469D02*
Y7478D01*
X9943Y7492D01*
X9957Y7505D01*
Y7514D01*
X9948Y7523D02*
X9957Y7514D01*
X9939Y7523D02*
X9948D01*
X9925Y7510D02*
X9939Y7523D01*
X9912Y7496D02*
X9925Y7510D01*
X9903Y7496D02*
X9912D01*
X9894Y7505D02*
X9903Y7496D01*
X9894Y7505D02*
Y7514D01*
X9907Y7528D01*
X9921Y7541D01*
Y7550D01*
X9912Y7559D02*
X9921Y7550D01*
X9903Y7559D02*
X9912D01*
X9890Y7545D02*
X9903Y7559D01*
X9876Y7532D02*
X9890Y7545D01*
X9867Y7532D02*
X9876D01*
X9858Y7541D02*
X9867Y7532D01*
X9858Y7541D02*
Y7550D01*
X9872Y7563D01*
X9885Y7577D01*
Y7586D01*
X9876Y7595D02*
X9885Y7586D01*
X9867Y7595D02*
X9876D01*
X9854Y7581D02*
X9867Y7595D01*
X9840Y7568D02*
X9854Y7581D01*
X9831Y7568D02*
X9840D01*
X9822Y7577D02*
X9831Y7568D01*
X9822Y7577D02*
Y7586D01*
X9836Y7599D01*
X9849Y7613D01*
Y7622D01*
X9840Y7631D02*
X9849Y7622D01*
X9831Y7631D02*
X9840D01*
X9818Y7617D02*
X9831Y7631D01*
X9804Y7604D02*
X9818Y7617D01*
X9795Y7604D02*
X9804D01*
X9786Y7613D02*
X9795Y7604D01*
X9786Y7613D02*
Y7622D01*
X9800Y7635D01*
X9813Y7649D01*
Y7658D01*
X9804Y7667D02*
X9813Y7658D01*
X9795Y7667D02*
X9804D01*
X9782Y7653D02*
X9795Y7667D01*
X9768Y7640D02*
X9782Y7653D01*
X9759Y7640D02*
X9768D01*
X9750Y7649D02*
X9759Y7640D01*
X9750Y7649D02*
Y7658D01*
X9764Y7671D01*
X9777Y7685D01*
Y7694D01*
X9768Y7703D02*
X9777Y7694D01*
X9759Y7703D02*
X9768D01*
X9746Y7689D02*
X9759Y7703D01*
X9732Y7676D02*
X9746Y7689D01*
X9723Y7676D02*
X9732D01*
X9714Y7685D02*
X9723Y7676D01*
X9714Y7685D02*
Y7694D01*
X9728Y7707D01*
X9741Y7721D01*
Y7730D01*
X9732Y7739D02*
X9741Y7730D01*
X9723Y7739D02*
X9732D01*
X9710Y7725D02*
X9723Y7739D01*
X9696Y7712D02*
X9710Y7725D01*
X9687Y7712D02*
X9696D01*
X9678Y7721D02*
X9687Y7712D01*
X9678Y7721D02*
Y7730D01*
X9692Y7743D01*
X9705Y7757D01*
Y7766D01*
X9696Y7774D02*
X9705Y7766D01*
X9687Y7774D02*
X9696D01*
X9678Y7766D02*
X9687Y7774D01*
X9669Y7766D02*
X9678Y7766D01*
X9665Y7770D02*
X9669Y7766D01*
X9603Y6640D02*
X9604Y6638D01*
D132*
X17388Y12372D02*
X18072D01*
X17405Y12413D02*
X18055D01*
X17399Y12418D02*
X17405Y12413D01*
X18055D02*
X18667Y13025D01*
X17382Y12378D02*
X17388Y12372D01*
X18072D02*
X18676Y12976D01*
X21989D02*
X22198Y13185D01*
X20432Y12976D02*
X21989D01*
X20425Y12983D02*
X20432Y12976D01*
X20375Y12983D02*
X20425D01*
X20368Y12976D02*
X20375Y12983D01*
X18676Y12976D02*
X20368D01*
X12805Y12568D02*
X13026Y12347D01*
X16646Y12378D02*
X17382D01*
X16574Y12307D02*
X16646Y12378D01*
X13009Y12307D02*
X16574D01*
X12793Y12522D02*
X13009Y12307D01*
X9737Y12522D02*
X12793D01*
X16629Y12418D02*
X17399D01*
X16557Y12347D02*
X16629Y12418D01*
X13026Y12347D02*
X16557D01*
X9330Y12115D02*
X9737Y12522D01*
X9330Y11021D02*
Y12115D01*
Y11021D02*
X9499Y10851D01*
Y10697D02*
Y10851D01*
X9415Y10612D02*
X9499Y10697D01*
X9415Y10375D02*
Y10612D01*
X9289Y10587D02*
Y12172D01*
X18667Y13025D02*
X20020D01*
X20195Y13200D01*
X9685Y12568D02*
X12805D01*
X9289Y12172D02*
X9685Y12568D01*
X9289Y10587D02*
X9312Y10564D01*
Y10395D02*
Y10564D01*
X11430Y9843D02*
X11662Y10075D01*
X10000Y9513D02*
Y10175D01*
Y9513D02*
X10209Y9305D01*
Y8982D02*
Y9305D01*
X10200Y8973D02*
X10209Y8982D01*
X10200Y8650D02*
Y8973D01*
Y8650D02*
X11646Y7204D01*
X12044D01*
X12218Y7378D01*
X12838D01*
X12854Y7362D01*
X13480D01*
X11662Y10075D02*
X11945D01*
X10633Y10514D02*
X11756D01*
X10476Y10671D02*
X10633Y10514D01*
X10343Y11072D02*
X10476Y10939D01*
X11756Y10514D02*
X11875Y10634D01*
X10476Y10671D02*
Y10939D01*
X10628Y10647D02*
X11829D01*
X11867Y10685D01*
X10538Y10738D02*
X10628Y10647D01*
X11468Y10425D02*
X11818D01*
X10743Y9700D02*
X11468Y10425D01*
X11011Y10811D02*
X11665D01*
X10973Y11012D02*
X11157D01*
X10782Y10822D02*
X10973Y11012D01*
X10782Y10793D02*
Y10822D01*
X10227Y11464D02*
X10595Y11832D01*
X10227Y11343D02*
Y11464D01*
X10285Y11395D02*
X10568Y11679D01*
X10295Y11322D02*
X10530Y11557D01*
X10860D01*
X10227Y11343D02*
X10228Y11343D01*
X11665Y10811D02*
X11680Y10826D01*
X11010Y10810D02*
X11011Y10811D01*
X10963Y10845D02*
X11051Y10933D01*
X10888Y10845D02*
X10963D01*
X11051Y10933D02*
X12357D01*
X10707Y10845D02*
X10917Y11054D01*
X11480D01*
X10630Y9628D02*
X10750D01*
X10630Y9700D02*
X10743D01*
X10268Y11072D02*
Y11076D01*
X10284Y11093D01*
Y11097D01*
X10664Y11476D01*
X10375Y11280D02*
X10612Y11517D01*
X10538Y10738D02*
Y11072D01*
X10597Y10838D02*
X10932Y11172D01*
X10664Y11476D02*
X10943D01*
X10982Y11516D01*
X10932Y11172D02*
X11285D01*
X10612Y11517D02*
X10927D01*
X10705Y11080D02*
X10853Y11228D01*
Y11242D01*
X10999Y11388D01*
X10927Y11517D02*
X11010Y11600D01*
X10860Y11557D02*
X10860Y11557D01*
X13793Y10525D02*
X14110D01*
X13466Y10319D02*
X14088D01*
X13449Y10279D02*
X14104D01*
X13360Y10425D02*
X13466Y10319D01*
X14104Y10279D02*
X14551Y10726D01*
X13423Y10305D02*
X13449Y10279D01*
X14088Y10319D02*
X14535Y10767D01*
X13790Y10218D02*
X14156D01*
X11867Y10685D02*
X12322D01*
X10999Y11388D02*
X12300D01*
X10910Y11557D02*
X10945Y11593D01*
X10860Y11557D02*
X10910D01*
X14110Y10525D02*
X14265Y10680D01*
X14535Y10767D02*
X14642D01*
X14551Y10726D02*
X14659D01*
X14156Y10218D02*
X14606Y10668D01*
X13310Y10218D02*
X13790D01*
X13309D02*
X13310D01*
X13293Y10203D02*
X13309Y10218D01*
X13293Y10170D02*
Y10203D01*
X13278Y10155D02*
X13293Y10170D01*
X13258Y10155D02*
X13278D01*
X13243Y10170D02*
X13258Y10155D01*
X13243Y10170D02*
Y10218D01*
Y10249D01*
X13227Y10265D02*
X13243Y10249D01*
X13207Y10265D02*
X13227D01*
X13192Y10249D02*
X13207Y10265D01*
X13192Y10218D02*
Y10249D01*
Y10170D02*
Y10218D01*
X13177Y10155D02*
X13192Y10170D01*
X13156Y10155D02*
X13177D01*
X13141Y10170D02*
X13156Y10155D01*
X13141Y10170D02*
Y10218D01*
Y10249D01*
X13126Y10265D02*
X13141Y10249D01*
X13106Y10265D02*
X13126D01*
X13090Y10249D02*
X13106Y10265D01*
X13090Y10218D02*
Y10249D01*
Y10170D02*
Y10218D01*
X13075Y10155D02*
X13090Y10170D01*
X13055Y10155D02*
X13075D01*
X13040Y10170D02*
X13055Y10155D01*
X13040Y10170D02*
Y10218D01*
Y10249D01*
X13024Y10265D02*
X13040Y10249D01*
X13004Y10265D02*
X13024D01*
X12989Y10249D02*
X13004Y10265D01*
X12989Y10218D02*
Y10249D01*
Y10170D02*
Y10218D01*
X12973Y10155D02*
X12989Y10170D01*
X12953Y10155D02*
X12973D01*
X12938Y10170D02*
X12953Y10155D01*
X12938Y10170D02*
Y10218D01*
Y10254D01*
X12923Y10269D02*
X12938Y10254D01*
X12902Y10269D02*
X12923D01*
X12887Y10254D02*
X12902Y10269D01*
X12887Y10218D02*
Y10254D01*
Y10170D02*
Y10218D01*
X12872Y10155D02*
X12887Y10170D01*
X12852Y10155D02*
X12872D01*
X12836Y10170D02*
X12852Y10155D01*
X12836Y10170D02*
Y10218D01*
Y10254D01*
X12821Y10269D02*
X12836Y10254D01*
X12801Y10269D02*
X12821D01*
X12786Y10254D02*
X12801Y10269D01*
X12786Y10218D02*
Y10254D01*
Y10170D02*
Y10218D01*
X12770Y10155D02*
X12786Y10170D01*
X12750Y10155D02*
X12770D01*
X12735Y10170D02*
X12750Y10155D01*
X12735Y10170D02*
Y10218D01*
Y10254D01*
X12719Y10269D02*
X12735Y10254D01*
X12699Y10269D02*
X12719D01*
X12684Y10254D02*
X12699Y10269D01*
X12684Y10218D02*
Y10254D01*
Y10170D02*
Y10218D01*
X12669Y10155D02*
X12684Y10170D01*
X12648Y10155D02*
X12669D01*
X12633Y10170D02*
X12648Y10155D01*
X12633Y10170D02*
Y10218D01*
Y10254D01*
X12618Y10269D02*
X12633Y10254D01*
X12598Y10269D02*
X12618D01*
X12582Y10254D02*
X12598Y10269D01*
X12582Y10218D02*
Y10254D01*
Y10170D02*
Y10218D01*
X12567Y10155D02*
X12582Y10170D01*
X12547Y10155D02*
X12567D01*
X12532Y10170D02*
X12547Y10155D01*
X12532Y10170D02*
Y10218D01*
Y10254D01*
X12516Y10269D02*
X12532Y10254D01*
X12496Y10269D02*
X12516D01*
X12481Y10254D02*
X12496Y10269D01*
X12481Y10218D02*
Y10254D01*
Y10170D02*
Y10218D01*
X12465Y10155D02*
X12481Y10170D01*
X12445Y10155D02*
X12465D01*
X12430Y10170D02*
X12445Y10155D01*
X12430Y10170D02*
Y10218D01*
Y10254D01*
X12415Y10269D02*
X12430Y10254D01*
X12394Y10269D02*
X12415D01*
X12379Y10254D02*
X12394Y10269D01*
X12379Y10218D02*
Y10254D01*
Y10170D02*
Y10218D01*
X12364Y10155D02*
X12379Y10170D01*
X12344Y10155D02*
X12364D01*
X12328Y10170D02*
X12344Y10155D01*
X12328Y10170D02*
Y10218D01*
Y10254D01*
X12313Y10269D02*
X12328Y10254D01*
X12293Y10269D02*
X12313D01*
X12278Y10254D02*
X12293Y10269D01*
X12278Y10218D02*
Y10254D01*
Y10170D02*
Y10218D01*
X12262Y10155D02*
X12278Y10170D01*
X12242Y10155D02*
X12262D01*
X12227Y10170D02*
X12242Y10155D01*
X12227Y10170D02*
Y10218D01*
Y10254D01*
X12211Y10269D02*
X12227Y10254D01*
X12191Y10269D02*
X12211D01*
X12176Y10254D02*
X12191Y10269D01*
X12176Y10218D02*
Y10254D01*
Y10170D02*
Y10218D01*
X12161Y10155D02*
X12176Y10170D01*
X12140Y10155D02*
X12161D01*
X12125Y10170D02*
X12140Y10155D01*
X12125Y10170D02*
Y10218D01*
Y10254D01*
X12110Y10269D02*
X12125Y10254D01*
X12090Y10269D02*
X12110D01*
X12074Y10254D02*
X12090Y10269D01*
X12074Y10218D02*
Y10254D01*
Y10170D02*
Y10218D01*
X12059Y10155D02*
X12074Y10170D01*
X12039Y10155D02*
X12059D01*
X12024Y10170D02*
X12039Y10155D01*
X12024Y10170D02*
Y10218D01*
Y10254D01*
X12008Y10269D02*
X12024Y10254D01*
X11988Y10269D02*
X12008D01*
X11973Y10254D02*
X11988Y10269D01*
X11973Y10218D02*
Y10254D01*
Y10170D02*
Y10218D01*
X11957Y10155D02*
X11973Y10170D01*
X11937Y10155D02*
X11957D01*
X11922Y10170D02*
X11937Y10155D01*
X11922Y10170D02*
Y10218D01*
Y10254D01*
X11907Y10269D02*
X11922Y10254D01*
X11886Y10269D02*
X11907D01*
X11871Y10254D02*
X11886Y10269D01*
X11871Y10218D02*
Y10254D01*
Y10157D02*
Y10218D01*
X11856Y10142D02*
X11871Y10157D01*
X11836Y10142D02*
X11856D01*
X11820Y10157D02*
X11836Y10142D01*
X11820Y10157D02*
Y10218D01*
Y10254D01*
X11805Y10269D02*
X11820Y10254D01*
X11785Y10269D02*
X11805D01*
X11769Y10254D02*
X11785Y10269D01*
X11769Y10218D02*
Y10254D01*
Y10157D02*
Y10218D01*
X11754Y10142D02*
X11769Y10157D01*
X11734Y10142D02*
X11754D01*
X11719Y10157D02*
X11734Y10142D01*
X11719Y10157D02*
Y10203D01*
X11703Y10218D02*
X11719Y10203D01*
X11668Y10218D02*
X11703D01*
X11643D02*
X11668D01*
X11448D02*
X11579D01*
X11604D02*
X11643D01*
X11579D02*
X11604D01*
X11147Y9918D02*
X11448Y10218D01*
X12160Y10525D02*
X12685D01*
X13792D02*
X13793D01*
X13777Y10540D02*
X13792Y10525D01*
X13777Y10540D02*
Y10586D01*
X13762Y10601D02*
X13777Y10586D01*
X13742Y10601D02*
X13762D01*
X13726Y10586D02*
X13742Y10601D01*
X13726Y10525D02*
Y10586D01*
Y10464D02*
Y10525D01*
X13711Y10449D02*
X13726Y10464D01*
X13691Y10449D02*
X13711D01*
X13676Y10464D02*
X13691Y10449D01*
X13676Y10464D02*
Y10525D01*
Y10553D01*
X13660Y10568D02*
X13676Y10553D01*
X13640Y10568D02*
X13660D01*
X13625Y10553D02*
X13640Y10568D01*
X13625Y10525D02*
Y10553D01*
Y10464D02*
Y10525D01*
X13610Y10449D02*
X13625Y10464D01*
X13589Y10449D02*
X13610D01*
X13574Y10464D02*
X13589Y10449D01*
X13574Y10464D02*
Y10525D01*
Y10553D01*
X13559Y10568D02*
X13574Y10553D01*
X13538Y10568D02*
X13559D01*
X13523Y10553D02*
X13538Y10568D01*
X13523Y10525D02*
Y10553D01*
Y10464D02*
Y10525D01*
X13508Y10449D02*
X13523Y10464D01*
X13488Y10449D02*
X13508D01*
X13472Y10464D02*
X13488Y10449D01*
X13472Y10464D02*
Y10525D01*
Y10553D01*
X13457Y10568D02*
X13472Y10553D01*
X13437Y10568D02*
X13457D01*
X13422Y10553D02*
X13437Y10568D01*
X13422Y10525D02*
Y10553D01*
Y10471D02*
Y10525D01*
X13406Y10456D02*
X13422Y10471D01*
X13386Y10456D02*
X13406D01*
X13371Y10471D02*
X13386Y10456D01*
X13371Y10471D02*
Y10525D01*
Y10553D01*
X13356Y10568D02*
X13371Y10553D01*
X13335Y10568D02*
X13356D01*
X13320Y10553D02*
X13335Y10568D01*
X13320Y10525D02*
Y10553D01*
Y10481D02*
Y10525D01*
X13305Y10465D02*
X13320Y10481D01*
X13284Y10465D02*
X13305D01*
X13269Y10481D02*
X13284Y10465D01*
X13269Y10481D02*
Y10525D01*
Y10553D01*
X13254Y10568D02*
X13269Y10553D01*
X13234Y10568D02*
X13254D01*
X13218Y10553D02*
X13234Y10568D01*
X13218Y10525D02*
Y10553D01*
Y10481D02*
Y10525D01*
X13203Y10465D02*
X13218Y10481D01*
X13183Y10465D02*
X13203D01*
X13168Y10481D02*
X13183Y10465D01*
X13168Y10481D02*
Y10525D01*
Y10553D01*
X13152Y10568D02*
X13168Y10553D01*
X13132Y10568D02*
X13152D01*
X13117Y10553D02*
X13132Y10568D01*
X13117Y10525D02*
Y10553D01*
Y10481D02*
Y10525D01*
X13102Y10465D02*
X13117Y10481D01*
X13081Y10465D02*
X13102D01*
X13066Y10481D02*
X13081Y10465D01*
X13066Y10481D02*
Y10525D01*
Y10553D01*
X13051Y10568D02*
X13066Y10553D01*
X13030Y10568D02*
X13051D01*
X13015Y10553D02*
X13030Y10568D01*
X13015Y10525D02*
Y10553D01*
Y10481D02*
Y10525D01*
X13000Y10465D02*
X13015Y10481D01*
X12980Y10465D02*
X13000D01*
X12964Y10481D02*
X12980Y10465D01*
X12964Y10481D02*
Y10525D01*
Y10553D01*
X12949Y10568D02*
X12964Y10553D01*
X12929Y10568D02*
X12949D01*
X12914Y10553D02*
X12929Y10568D01*
X12914Y10525D02*
Y10553D01*
Y10481D02*
Y10525D01*
X12898Y10465D02*
X12914Y10481D01*
X12878Y10465D02*
X12898D01*
X12863Y10481D02*
X12878Y10465D01*
X12863Y10481D02*
Y10525D01*
Y10553D01*
X12848Y10568D02*
X12863Y10553D01*
X12827Y10568D02*
X12848D01*
X12812Y10553D02*
X12827Y10568D01*
X12812Y10525D02*
Y10553D01*
Y10481D02*
Y10525D01*
X12797Y10465D02*
X12812Y10481D01*
X12776Y10465D02*
X12797D01*
X12761Y10481D02*
X12776Y10465D01*
X12761Y10481D02*
Y10525D01*
Y10553D01*
X12746Y10568D02*
X12761Y10553D01*
X12726Y10568D02*
X12746D01*
X12710Y10553D02*
X12726Y10568D01*
X12710Y10540D02*
Y10553D01*
X12695Y10525D02*
X12710Y10540D01*
X12685Y10525D02*
X12695D01*
X12051Y10634D02*
X12160Y10525D01*
X11875Y10634D02*
X12051D01*
X13698Y10685D02*
X14130D01*
X13684D02*
X13698D01*
X13669Y10670D02*
X13684Y10685D01*
X13669Y10624D02*
Y10670D01*
X13653Y10609D02*
X13669Y10624D01*
X13633Y10609D02*
X13653D01*
X13618Y10624D02*
X13633Y10609D01*
X13618Y10624D02*
Y10685D01*
Y10746D01*
X13603Y10761D02*
X13618Y10746D01*
X13582Y10761D02*
X13603D01*
X13567Y10746D02*
X13582Y10761D01*
X13567Y10685D02*
Y10746D01*
Y10624D02*
Y10685D01*
X13552Y10609D02*
X13567Y10624D01*
X13532Y10609D02*
X13552D01*
X13516Y10624D02*
X13532Y10609D01*
X13516Y10624D02*
Y10670D01*
X13501Y10685D02*
X13516Y10670D01*
X13481Y10685D02*
X13501D01*
X13465Y10670D02*
X13481Y10685D01*
X13465Y10624D02*
Y10670D01*
X13450Y10609D02*
X13465Y10624D01*
X13430Y10609D02*
X13450D01*
X13415Y10624D02*
X13430Y10609D01*
X13415Y10624D02*
Y10685D01*
Y10746D01*
X13399Y10761D02*
X13415Y10746D01*
X13379Y10761D02*
X13399D01*
X13364Y10746D02*
X13379Y10761D01*
X13364Y10685D02*
Y10746D01*
Y10624D02*
Y10685D01*
X13349Y10609D02*
X13364Y10624D01*
X13328Y10609D02*
X13349D01*
X13313Y10624D02*
X13328Y10609D01*
X13313Y10624D02*
Y10685D01*
Y10746D01*
X13298Y10761D02*
X13313Y10746D01*
X13278Y10761D02*
X13298D01*
X13262Y10746D02*
X13278Y10761D01*
X13262Y10685D02*
Y10746D01*
Y10624D02*
Y10685D01*
X13247Y10609D02*
X13262Y10624D01*
X13227Y10609D02*
X13247D01*
X13212Y10624D02*
X13227Y10609D01*
X13212Y10624D02*
Y10685D01*
Y10746D01*
X13196Y10761D02*
X13212Y10746D01*
X13176Y10761D02*
X13196D01*
X13161Y10746D02*
X13176Y10761D01*
X13161Y10685D02*
Y10746D01*
Y10624D02*
Y10685D01*
X13145Y10609D02*
X13161Y10624D01*
X13125Y10609D02*
X13145D01*
X13110Y10624D02*
X13125Y10609D01*
X13110Y10624D02*
Y10685D01*
Y10694D01*
X13095Y10710D02*
X13110Y10694D01*
X13074Y10710D02*
X13095D01*
X13059Y10694D02*
X13074Y10710D01*
X13059Y10685D02*
Y10694D01*
Y10624D02*
Y10685D01*
X13044Y10609D02*
X13059Y10624D01*
X13024Y10609D02*
X13044D01*
X13008Y10624D02*
X13024Y10609D01*
X13008Y10624D02*
Y10685D01*
Y10694D01*
X12993Y10710D02*
X13008Y10694D01*
X12973Y10710D02*
X12993D01*
X12957Y10694D02*
X12973Y10710D01*
X12957Y10685D02*
Y10694D01*
Y10624D02*
Y10685D01*
X12942Y10609D02*
X12957Y10624D01*
X12922Y10609D02*
X12942D01*
X12907Y10624D02*
X12922Y10609D01*
X12907Y10624D02*
Y10685D01*
Y10694D01*
X12891Y10710D02*
X12907Y10694D01*
X12871Y10710D02*
X12891D01*
X12856Y10694D02*
X12871Y10710D01*
X12856Y10685D02*
Y10694D01*
Y10624D02*
Y10685D01*
X12841Y10609D02*
X12856Y10624D01*
X12820Y10609D02*
X12841D01*
X12805Y10624D02*
X12820Y10609D01*
X12805Y10624D02*
Y10685D01*
Y10694D01*
X12790Y10710D02*
X12805Y10694D01*
X12770Y10710D02*
X12790D01*
X12754Y10694D02*
X12770Y10710D01*
X12754Y10685D02*
Y10694D01*
Y10624D02*
Y10685D01*
X12739Y10609D02*
X12754Y10624D01*
X12719Y10609D02*
X12739D01*
X12704Y10624D02*
X12719Y10609D01*
X12704Y10624D02*
Y10685D01*
Y10694D01*
X12688Y10710D02*
X12704Y10694D01*
X12668Y10710D02*
X12688D01*
X12653Y10694D02*
X12668Y10710D01*
X12653Y10685D02*
Y10694D01*
Y10624D02*
Y10685D01*
X12637Y10609D02*
X12653Y10624D01*
X12617Y10609D02*
X12637D01*
X12602Y10624D02*
X12617Y10609D01*
X12602Y10624D02*
Y10685D01*
Y10694D01*
X12587Y10710D02*
X12602Y10694D01*
X12566Y10710D02*
X12587D01*
X12551Y10694D02*
X12566Y10710D01*
X12551Y10685D02*
Y10694D01*
Y10624D02*
Y10685D01*
X12536Y10609D02*
X12551Y10624D01*
X12516Y10609D02*
X12536D01*
X12500Y10624D02*
X12516Y10609D01*
X12500Y10624D02*
Y10685D01*
Y10694D01*
X12485Y10710D02*
X12500Y10694D01*
X12465Y10710D02*
X12485D01*
X12450Y10694D02*
X12465Y10710D01*
X12450Y10685D02*
Y10694D01*
Y10624D02*
Y10685D01*
X12434Y10609D02*
X12450Y10624D01*
X12414Y10609D02*
X12434D01*
X12399Y10624D02*
X12414Y10609D01*
X12399Y10624D02*
Y10685D01*
Y10694D01*
X12383Y10710D02*
X12399Y10694D01*
X12363Y10710D02*
X12383D01*
X12348Y10694D02*
X12363Y10710D01*
X12338Y10685D02*
X12348Y10694D01*
X12322Y10685D02*
X12338D01*
X11680Y10826D02*
X12143D01*
X13314Y11482D02*
X14370D01*
X13281Y11516D02*
X13314Y11482D01*
X12223Y11516D02*
X13281D01*
X10982D02*
X11107D01*
X12215D02*
X12223D01*
X12200Y11531D02*
X12215Y11516D01*
X12200Y11531D02*
Y11544D01*
X12184Y11560D02*
X12200Y11544D01*
X12164Y11560D02*
X12184D01*
X12149Y11544D02*
X12164Y11560D01*
X12149Y11516D02*
Y11544D01*
Y11455D02*
Y11516D01*
X12134Y11439D02*
X12149Y11455D01*
X12113Y11439D02*
X12134D01*
X12098Y11455D02*
X12113Y11439D01*
X12098Y11455D02*
Y11516D01*
Y11544D01*
X12083Y11560D02*
X12098Y11544D01*
X12063Y11560D02*
X12083D01*
X12047Y11544D02*
X12063Y11560D01*
X12047Y11516D02*
Y11544D01*
Y11455D02*
Y11516D01*
X12032Y11439D02*
X12047Y11455D01*
X12012Y11439D02*
X12032D01*
X11996Y11455D02*
X12012Y11439D01*
X11996Y11455D02*
Y11516D01*
Y11544D01*
X11981Y11560D02*
X11996Y11544D01*
X11961Y11560D02*
X11981D01*
X11946Y11544D02*
X11961Y11560D01*
X11946Y11516D02*
Y11544D01*
Y11455D02*
Y11516D01*
X11930Y11439D02*
X11946Y11455D01*
X11910Y11439D02*
X11930D01*
X11895Y11455D02*
X11910Y11439D01*
X11895Y11455D02*
Y11516D01*
Y11544D01*
X11880Y11560D02*
X11895Y11544D01*
X11859Y11560D02*
X11880D01*
X11844Y11544D02*
X11859Y11560D01*
X11844Y11516D02*
Y11544D01*
Y11455D02*
Y11516D01*
X11829Y11439D02*
X11844Y11455D01*
X11809Y11439D02*
X11829D01*
X11793Y11455D02*
X11809Y11439D01*
X11793Y11455D02*
Y11516D01*
Y11544D01*
X11778Y11560D02*
X11793Y11544D01*
X11758Y11560D02*
X11778D01*
X11743Y11544D02*
X11758Y11560D01*
X11743Y11516D02*
Y11544D01*
Y11455D02*
Y11516D01*
X11727Y11439D02*
X11743Y11455D01*
X11707Y11439D02*
X11727D01*
X11692Y11455D02*
X11707Y11439D01*
X11692Y11455D02*
Y11516D01*
Y11544D01*
X11676Y11560D02*
X11692Y11544D01*
X11656Y11560D02*
X11676D01*
X11641Y11544D02*
X11656Y11560D01*
X11641Y11516D02*
Y11544D01*
Y11455D02*
Y11516D01*
X11626Y11439D02*
X11641Y11455D01*
X11605Y11439D02*
X11626D01*
X11590Y11455D02*
X11605Y11439D01*
X11590Y11455D02*
Y11516D01*
Y11544D01*
X11575Y11560D02*
X11590Y11544D01*
X11555Y11560D02*
X11575D01*
X11539Y11544D02*
X11555Y11560D01*
X11539Y11516D02*
Y11544D01*
Y11455D02*
Y11516D01*
X11524Y11439D02*
X11539Y11455D01*
X11504Y11439D02*
X11524D01*
X11489Y11455D02*
X11504Y11439D01*
X11489Y11455D02*
Y11516D01*
Y11544D01*
X11473Y11560D02*
X11489Y11544D01*
X11453Y11560D02*
X11473D01*
X11438Y11544D02*
X11453Y11560D01*
X11438Y11516D02*
Y11544D01*
Y11455D02*
Y11516D01*
X11422Y11439D02*
X11438Y11455D01*
X11402Y11439D02*
X11422D01*
X11387Y11455D02*
X11402Y11439D01*
X11387Y11455D02*
Y11516D01*
Y11544D01*
X11372Y11560D02*
X11387Y11544D01*
X11351Y11560D02*
X11372D01*
X11336Y11544D02*
X11351Y11560D01*
X11336Y11516D02*
Y11544D01*
Y11455D02*
Y11516D01*
X11321Y11439D02*
X11336Y11455D01*
X11301Y11439D02*
X11321D01*
X11285Y11455D02*
X11301Y11439D01*
X11285Y11455D02*
Y11516D01*
Y11544D01*
X11270Y11560D02*
X11285Y11544D01*
X11250Y11560D02*
X11270D01*
X11235Y11544D02*
X11250Y11560D01*
X11235Y11516D02*
Y11544D01*
Y11455D02*
Y11516D01*
X11219Y11439D02*
X11235Y11455D01*
X11199Y11439D02*
X11219D01*
X11184Y11455D02*
X11199Y11439D01*
X11184Y11455D02*
Y11516D01*
Y11544D01*
X11168Y11560D02*
X11184Y11544D01*
X11148Y11560D02*
X11168D01*
X11133Y11544D02*
X11148Y11560D01*
X11133Y11531D02*
Y11544D01*
X11118Y11516D02*
X11133Y11531D01*
X11107Y11516D02*
X11118D01*
X14207Y11622D02*
Y11810D01*
X14185Y11600D02*
X14207Y11622D01*
X13582Y11600D02*
X14185D01*
X11010D02*
X12293D01*
X13552D02*
X13582D01*
X13537Y11585D02*
X13552Y11600D01*
X13537Y11539D02*
Y11585D01*
X13522Y11524D02*
X13537Y11539D01*
X13502Y11524D02*
X13522D01*
X13486Y11539D02*
X13502Y11524D01*
X13486Y11539D02*
Y11600D01*
Y11605D01*
X13471Y11620D02*
X13486Y11605D01*
X13451Y11620D02*
X13471D01*
X13435Y11605D02*
X13451Y11620D01*
X13435Y11600D02*
Y11605D01*
Y11539D02*
Y11600D01*
X13420Y11524D02*
X13435Y11539D01*
X13400Y11524D02*
X13420D01*
X13385Y11539D02*
X13400Y11524D01*
X13385Y11539D02*
Y11600D01*
Y11661D01*
X13369Y11676D02*
X13385Y11661D01*
X13349Y11676D02*
X13369D01*
X13334Y11661D02*
X13349Y11676D01*
X13334Y11600D02*
Y11661D01*
Y11567D02*
Y11600D01*
X13319Y11552D02*
X13334Y11567D01*
X13298Y11552D02*
X13319D01*
X13283Y11567D02*
X13298Y11552D01*
X13283Y11567D02*
Y11600D01*
Y11661D01*
X13268Y11676D02*
X13283Y11661D01*
X13248Y11676D02*
X13268D01*
X13232Y11661D02*
X13248Y11676D01*
X13232Y11600D02*
Y11661D01*
Y11571D02*
Y11600D01*
X13217Y11556D02*
X13232Y11571D01*
X13197Y11556D02*
X13217D01*
X13182Y11571D02*
X13197Y11556D01*
X13182Y11571D02*
Y11600D01*
Y11661D01*
X13166Y11676D02*
X13182Y11661D01*
X13146Y11676D02*
X13166D01*
X13131Y11661D02*
X13146Y11676D01*
X13131Y11600D02*
Y11661D01*
Y11571D02*
Y11600D01*
X13115Y11556D02*
X13131Y11571D01*
X13095Y11556D02*
X13115D01*
X13080Y11571D02*
X13095Y11556D01*
X13080Y11571D02*
Y11600D01*
Y11661D01*
X13065Y11676D02*
X13080Y11661D01*
X13044Y11676D02*
X13065D01*
X13029Y11661D02*
X13044Y11676D01*
X13029Y11600D02*
Y11661D01*
Y11571D02*
Y11600D01*
X13014Y11556D02*
X13029Y11571D01*
X12994Y11556D02*
X13014D01*
X12978Y11571D02*
X12994Y11556D01*
X12978Y11571D02*
Y11600D01*
Y11661D01*
X12963Y11676D02*
X12978Y11661D01*
X12943Y11676D02*
X12963D01*
X12927Y11661D02*
X12943Y11676D01*
X12927Y11600D02*
Y11661D01*
Y11571D02*
Y11600D01*
X12912Y11556D02*
X12927Y11571D01*
X12892Y11556D02*
X12912D01*
X12877Y11571D02*
X12892Y11556D01*
X12877Y11571D02*
Y11600D01*
Y11661D01*
X12861Y11676D02*
X12877Y11661D01*
X12841Y11676D02*
X12861D01*
X12826Y11661D02*
X12841Y11676D01*
X12826Y11600D02*
Y11661D01*
Y11571D02*
Y11600D01*
X12811Y11556D02*
X12826Y11571D01*
X12790Y11556D02*
X12811D01*
X12775Y11571D02*
X12790Y11556D01*
X12775Y11571D02*
Y11600D01*
Y11661D01*
X12760Y11676D02*
X12775Y11661D01*
X12740Y11676D02*
X12760D01*
X12724Y11661D02*
X12740Y11676D01*
X12724Y11600D02*
Y11661D01*
Y11571D02*
Y11600D01*
X12709Y11556D02*
X12724Y11571D01*
X12689Y11556D02*
X12709D01*
X12674Y11571D02*
X12689Y11556D01*
X12674Y11571D02*
Y11600D01*
Y11661D01*
X12658Y11676D02*
X12674Y11661D01*
X12638Y11676D02*
X12658D01*
X12623Y11661D02*
X12638Y11676D01*
X12623Y11600D02*
Y11661D01*
Y11571D02*
Y11600D01*
X12607Y11556D02*
X12623Y11571D01*
X12587Y11556D02*
X12607D01*
X12572Y11571D02*
X12587Y11556D01*
X12572Y11571D02*
Y11600D01*
Y11661D01*
X12557Y11676D02*
X12572Y11661D01*
X12536Y11676D02*
X12557D01*
X12521Y11661D02*
X12536Y11676D01*
X12521Y11600D02*
Y11661D01*
Y11571D02*
Y11600D01*
X12506Y11556D02*
X12521Y11571D01*
X12486Y11556D02*
X12506D01*
X12470Y11571D02*
X12486Y11556D01*
X12470Y11571D02*
Y11600D01*
Y11661D01*
X12455Y11676D02*
X12470Y11661D01*
X12435Y11676D02*
X12455D01*
X12419Y11661D02*
X12435Y11676D01*
X12419Y11600D02*
Y11661D01*
Y11571D02*
Y11600D01*
X12404Y11556D02*
X12419Y11571D01*
X12384Y11556D02*
X12404D01*
X12369Y11571D02*
X12384Y11556D01*
X12369Y11571D02*
Y11600D01*
Y11661D01*
X12353Y11676D02*
X12369Y11661D01*
X12333Y11676D02*
X12353D01*
X12318Y11661D02*
X12333Y11676D01*
X12318Y11615D02*
Y11661D01*
X12303Y11600D02*
X12318Y11615D01*
X12293Y11600D02*
X12303D01*
X14132Y11660D02*
Y11812D01*
X13475Y11660D02*
X14132D01*
X13362Y11772D02*
X13475Y11660D01*
X12362Y11772D02*
X13362D01*
X11125D02*
X11360D01*
X12351Y11784D02*
X12362Y11772D01*
X12351Y11784D02*
Y11794D01*
X12335Y11809D02*
X12351Y11794D01*
X12315Y11809D02*
X12335D01*
X12300Y11794D02*
X12315Y11809D01*
X12300Y11772D02*
Y11794D01*
Y11712D02*
Y11772D01*
X12285Y11696D02*
X12300Y11712D01*
X12264Y11696D02*
X12285D01*
X12249Y11712D02*
X12264Y11696D01*
X12249Y11712D02*
Y11772D01*
Y11794D01*
X12234Y11809D02*
X12249Y11794D01*
X12213Y11809D02*
X12234D01*
X12198Y11794D02*
X12213Y11809D01*
X12198Y11772D02*
Y11794D01*
Y11712D02*
Y11772D01*
X12183Y11696D02*
X12198Y11712D01*
X12163Y11696D02*
X12183D01*
X12147Y11712D02*
X12163Y11696D01*
X12147Y11712D02*
Y11772D01*
Y11794D01*
X12132Y11809D02*
X12147Y11794D01*
X12112Y11809D02*
X12132D01*
X12097Y11794D02*
X12112Y11809D01*
X12097Y11772D02*
Y11794D01*
Y11712D02*
Y11772D01*
X12081Y11696D02*
X12097Y11712D01*
X12061Y11696D02*
X12081D01*
X12046Y11712D02*
X12061Y11696D01*
X12046Y11712D02*
Y11772D01*
Y11820D01*
X12031Y11835D02*
X12046Y11820D01*
X12010Y11835D02*
X12031D01*
X11995Y11820D02*
X12010Y11835D01*
X11995Y11772D02*
Y11820D01*
Y11712D02*
Y11772D01*
X11980Y11696D02*
X11995Y11712D01*
X11959Y11696D02*
X11980D01*
X11944Y11712D02*
X11959Y11696D01*
X11944Y11712D02*
Y11772D01*
Y11833D01*
X11929Y11849D02*
X11944Y11833D01*
X11909Y11849D02*
X11929D01*
X11893Y11833D02*
X11909Y11849D01*
X11893Y11772D02*
Y11833D01*
Y11712D02*
Y11772D01*
X11878Y11696D02*
X11893Y11712D01*
X11858Y11696D02*
X11878D01*
X11843Y11712D02*
X11858Y11696D01*
X11843Y11712D02*
Y11772D01*
Y11833D01*
X11827Y11849D02*
X11843Y11833D01*
X11807Y11849D02*
X11827D01*
X11792Y11833D02*
X11807Y11849D01*
X11792Y11772D02*
Y11833D01*
Y11712D02*
Y11772D01*
X11777Y11696D02*
X11792Y11712D01*
X11756Y11696D02*
X11777D01*
X11741Y11712D02*
X11756Y11696D01*
X11741Y11712D02*
Y11772D01*
Y11833D01*
X11726Y11849D02*
X11741Y11833D01*
X11705Y11849D02*
X11726D01*
X11690Y11833D02*
X11705Y11849D01*
X11690Y11772D02*
Y11833D01*
Y11712D02*
Y11772D01*
X11675Y11696D02*
X11690Y11712D01*
X11655Y11696D02*
X11675D01*
X11639Y11712D02*
X11655Y11696D01*
X11639Y11712D02*
Y11772D01*
Y11833D01*
X11624Y11849D02*
X11639Y11833D01*
X11604Y11849D02*
X11624D01*
X11589Y11833D02*
X11604Y11849D01*
X11589Y11772D02*
Y11833D01*
Y11712D02*
Y11772D01*
X11573Y11696D02*
X11589Y11712D01*
X11553Y11696D02*
X11573D01*
X11538Y11712D02*
X11553Y11696D01*
X11538Y11712D02*
Y11772D01*
Y11833D01*
X11523Y11849D02*
X11538Y11833D01*
X11502Y11849D02*
X11523D01*
X11487Y11833D02*
X11502Y11849D01*
X11487Y11772D02*
Y11833D01*
Y11712D02*
Y11772D01*
X11472Y11696D02*
X11487Y11712D01*
X11451Y11696D02*
X11472D01*
X11436Y11712D02*
X11451Y11696D01*
X11436Y11712D02*
Y11772D01*
Y11833D01*
X11421Y11849D02*
X11436Y11833D01*
X11401Y11849D02*
X11421D01*
X11385Y11833D02*
X11401Y11849D01*
X11385Y11788D02*
Y11833D01*
X11370Y11772D02*
X11385Y11788D01*
X11360Y11772D02*
X11370D01*
X10945Y11593D02*
X11125Y11772D01*
X13973Y11730D02*
Y11797D01*
X13588Y11730D02*
X13973D01*
X13395Y11922D02*
X13588Y11730D01*
X13000Y11922D02*
X13395D01*
X11000D02*
X11985D01*
X12991D02*
X13000D01*
X12976Y11938D02*
X12991Y11922D01*
X12976Y11938D02*
Y11983D01*
X12960Y11999D02*
X12976Y11983D01*
X12940Y11999D02*
X12960D01*
X12925Y11983D02*
X12940Y11999D01*
X12925Y11922D02*
Y11983D01*
Y11862D02*
Y11922D01*
X12910Y11846D02*
X12925Y11862D01*
X12889Y11846D02*
X12910D01*
X12874Y11862D02*
X12889Y11846D01*
X12874Y11862D02*
Y11922D01*
Y11983D01*
X12859Y11999D02*
X12874Y11983D01*
X12838Y11999D02*
X12859D01*
X12823Y11983D02*
X12838Y11999D01*
X12823Y11922D02*
Y11983D01*
Y11862D02*
Y11922D01*
X12808Y11846D02*
X12823Y11862D01*
X12788Y11846D02*
X12808D01*
X12772Y11862D02*
X12788Y11846D01*
X12772Y11862D02*
Y11922D01*
Y11983D01*
X12757Y11999D02*
X12772Y11983D01*
X12737Y11999D02*
X12757D01*
X12722Y11983D02*
X12737Y11999D01*
X12722Y11922D02*
Y11983D01*
Y11862D02*
Y11922D01*
X12706Y11846D02*
X12722Y11862D01*
X12686Y11846D02*
X12706D01*
X12671Y11862D02*
X12686Y11846D01*
X12671Y11862D02*
Y11922D01*
Y11983D01*
X12656Y11999D02*
X12671Y11983D01*
X12635Y11999D02*
X12656D01*
X12620Y11983D02*
X12635Y11999D01*
X12620Y11922D02*
Y11983D01*
Y11862D02*
Y11922D01*
X12605Y11846D02*
X12620Y11862D01*
X12584Y11846D02*
X12605D01*
X12569Y11862D02*
X12584Y11846D01*
X12569Y11862D02*
Y11922D01*
Y11983D01*
X12554Y11999D02*
X12569Y11983D01*
X12534Y11999D02*
X12554D01*
X12518Y11983D02*
X12534Y11999D01*
X12518Y11922D02*
Y11983D01*
Y11862D02*
Y11922D01*
X12503Y11846D02*
X12518Y11862D01*
X12483Y11846D02*
X12503D01*
X12468Y11862D02*
X12483Y11846D01*
X12468Y11862D02*
Y11922D01*
Y11983D01*
X12452Y11999D02*
X12468Y11983D01*
X12432Y11999D02*
X12452D01*
X12417Y11983D02*
X12432Y11999D01*
X12417Y11922D02*
Y11983D01*
Y11862D02*
Y11922D01*
X12402Y11846D02*
X12417Y11862D01*
X12381Y11846D02*
X12402D01*
X12366Y11862D02*
X12381Y11846D01*
X12366Y11862D02*
Y11922D01*
Y11983D01*
X12351Y11999D02*
X12366Y11983D01*
X12330Y11999D02*
X12351D01*
X12315Y11983D02*
X12330Y11999D01*
X12315Y11922D02*
Y11983D01*
Y11862D02*
Y11922D01*
X12300Y11846D02*
X12315Y11862D01*
X12280Y11846D02*
X12300D01*
X12264Y11862D02*
X12280Y11846D01*
X12264Y11862D02*
Y11922D01*
Y11983D01*
X12249Y11999D02*
X12264Y11983D01*
X12229Y11999D02*
X12249D01*
X12214Y11983D02*
X12229Y11999D01*
X12214Y11922D02*
Y11983D01*
Y11862D02*
Y11922D01*
X12198Y11846D02*
X12214Y11862D01*
X12178Y11846D02*
X12198D01*
X12163Y11862D02*
X12178Y11846D01*
X12163Y11862D02*
Y11922D01*
Y11983D01*
X12148Y11999D02*
X12163Y11983D01*
X12127Y11999D02*
X12148D01*
X12112Y11983D02*
X12127Y11999D01*
X12112Y11922D02*
Y11983D01*
Y11862D02*
Y11922D01*
X12097Y11846D02*
X12112Y11862D01*
X12076Y11846D02*
X12097D01*
X12061Y11862D02*
X12076Y11846D01*
X12061Y11862D02*
Y11922D01*
Y11983D01*
X12046Y11999D02*
X12061Y11983D01*
X12026Y11999D02*
X12046D01*
X12010Y11983D02*
X12026Y11999D01*
X12010Y11938D02*
Y11983D01*
X11995Y11922D02*
X12010Y11938D01*
X11985Y11922D02*
X11995D01*
X10807Y11730D02*
X11000Y11922D01*
X10690Y11730D02*
X10807D01*
X10639Y11679D02*
X10690Y11730D01*
X10568Y11679D02*
X10639D01*
X13902Y11942D02*
Y12060D01*
X13835Y12128D02*
X13902Y12060D01*
X12362Y12128D02*
X13835D01*
X10972D02*
X11518D01*
X12356Y12121D02*
X12362Y12128D01*
X12356Y12067D02*
Y12121D01*
X12340Y12051D02*
X12356Y12067D01*
X12320Y12051D02*
X12340D01*
X12305Y12067D02*
X12320Y12051D01*
X12305Y12067D02*
Y12128D01*
Y12188D01*
X12290Y12204D02*
X12305Y12188D01*
X12269Y12204D02*
X12290D01*
X12254Y12188D02*
X12269Y12204D01*
X12254Y12128D02*
Y12188D01*
Y12067D02*
Y12128D01*
X12239Y12051D02*
X12254Y12067D01*
X12219Y12051D02*
X12239D01*
X12203Y12067D02*
X12219Y12051D01*
X12203Y12067D02*
Y12128D01*
Y12188D01*
X12188Y12204D02*
X12203Y12188D01*
X12168Y12204D02*
X12188D01*
X12153Y12188D02*
X12168Y12204D01*
X12153Y12128D02*
Y12188D01*
Y12067D02*
Y12128D01*
X12137Y12051D02*
X12153Y12067D01*
X12117Y12051D02*
X12137D01*
X12102Y12067D02*
X12117Y12051D01*
X12102Y12067D02*
Y12128D01*
Y12188D01*
X12086Y12204D02*
X12102Y12188D01*
X12066Y12204D02*
X12086D01*
X12051Y12188D02*
X12066Y12204D01*
X12051Y12128D02*
Y12188D01*
Y12067D02*
Y12128D01*
X12036Y12051D02*
X12051Y12067D01*
X12015Y12051D02*
X12036D01*
X12000Y12067D02*
X12015Y12051D01*
X12000Y12067D02*
Y12128D01*
Y12188D01*
X11985Y12204D02*
X12000Y12188D01*
X11965Y12204D02*
X11985D01*
X11949Y12188D02*
X11965Y12204D01*
X11949Y12128D02*
Y12188D01*
Y12067D02*
Y12128D01*
X11934Y12051D02*
X11949Y12067D01*
X11914Y12051D02*
X11934D01*
X11899Y12067D02*
X11914Y12051D01*
X11899Y12067D02*
Y12128D01*
Y12188D01*
X11883Y12204D02*
X11899Y12188D01*
X11863Y12204D02*
X11883D01*
X11848Y12188D02*
X11863Y12204D01*
X11848Y12128D02*
Y12188D01*
Y12067D02*
Y12128D01*
X11832Y12051D02*
X11848Y12067D01*
X11812Y12051D02*
X11832D01*
X11797Y12067D02*
X11812Y12051D01*
X11797Y12067D02*
Y12128D01*
Y12188D01*
X11782Y12204D02*
X11797Y12188D01*
X11761Y12204D02*
X11782D01*
X11746Y12188D02*
X11761Y12204D01*
X11746Y12128D02*
Y12188D01*
Y12067D02*
Y12128D01*
X11731Y12051D02*
X11746Y12067D01*
X11711Y12051D02*
X11731D01*
X11695Y12067D02*
X11711Y12051D01*
X11695Y12067D02*
Y12128D01*
Y12188D01*
X11680Y12204D02*
X11695Y12188D01*
X11660Y12204D02*
X11680D01*
X11644Y12188D02*
X11660Y12204D01*
X11644Y12128D02*
Y12188D01*
Y12067D02*
Y12128D01*
X11629Y12051D02*
X11644Y12067D01*
X11609Y12051D02*
X11629D01*
X11594Y12067D02*
X11609Y12051D01*
X11594Y12067D02*
Y12128D01*
Y12188D01*
X11578Y12204D02*
X11594Y12188D01*
X11558Y12204D02*
X11578D01*
X11543Y12188D02*
X11558Y12204D01*
X11543Y12143D02*
Y12188D01*
X11528Y12128D02*
X11543Y12143D01*
X11518Y12128D02*
X11528D01*
X10676Y11832D02*
X10972Y12128D01*
X10595Y11832D02*
X10676D01*
X10945Y11593D02*
Y11593D01*
X13888Y11927D02*
X13902Y11942D01*
X13888Y11805D02*
Y11927D01*
X13965Y11805D02*
X13973Y11797D01*
X12107Y11293D02*
X14609D01*
X14686Y11421D02*
X14730Y11465D01*
X13468Y11421D02*
X14686D01*
X13435Y11388D02*
X13468Y11421D01*
X13365Y11388D02*
X13435D01*
X14463Y10809D02*
X14727Y11073D01*
X13162Y10809D02*
X14463D01*
X14727Y11073D02*
X14784D01*
X12628Y10425D02*
X13360D01*
X13023Y10305D02*
X13423D01*
X14889Y11094D02*
X15255Y11460D01*
X14931Y11054D02*
X15338Y11460D01*
X14805Y11094D02*
X14889D01*
X14906Y11054D02*
X14931D01*
X15396Y11442D02*
X15407Y11454D01*
X15396Y11436D02*
Y11442D01*
X14973Y11013D02*
X15396Y11436D01*
X15172Y11465D02*
Y11466D01*
X15090Y11463D02*
Y11465D01*
X15407Y11454D02*
Y11457D01*
X14609Y11293D02*
X14690Y11375D01*
X14838D01*
X14730Y11465D02*
X14927D01*
X13357Y11388D02*
X13365D01*
X13341Y11372D02*
X13357Y11388D01*
X13341Y11349D02*
Y11372D01*
X13326Y11334D02*
X13341Y11349D01*
X13306Y11334D02*
X13326D01*
X13291Y11349D02*
X13306Y11334D01*
X13291Y11349D02*
Y11388D01*
Y11448D01*
X13275Y11464D02*
X13291Y11448D01*
X13255Y11464D02*
X13275D01*
X13240Y11448D02*
X13255Y11464D01*
X13240Y11388D02*
Y11448D01*
Y11349D02*
Y11388D01*
X13225Y11334D02*
X13240Y11349D01*
X13204Y11334D02*
X13225D01*
X13189Y11349D02*
X13204Y11334D01*
X13189Y11349D02*
Y11388D01*
Y11448D01*
X13174Y11464D02*
X13189Y11448D01*
X13153Y11464D02*
X13174D01*
X13138Y11448D02*
X13153Y11464D01*
X13138Y11388D02*
Y11448D01*
Y11349D02*
Y11388D01*
X13123Y11334D02*
X13138Y11349D01*
X13103Y11334D02*
X13123D01*
X13087Y11349D02*
X13103Y11334D01*
X13087Y11349D02*
Y11388D01*
Y11448D01*
X13072Y11464D02*
X13087Y11448D01*
X13052Y11464D02*
X13072D01*
X13037Y11448D02*
X13052Y11464D01*
X13037Y11388D02*
Y11448D01*
Y11349D02*
Y11388D01*
X13021Y11334D02*
X13037Y11349D01*
X13001Y11334D02*
X13021D01*
X12986Y11349D02*
X13001Y11334D01*
X12986Y11349D02*
Y11388D01*
Y11448D01*
X12971Y11464D02*
X12986Y11448D01*
X12950Y11464D02*
X12971D01*
X12935Y11448D02*
X12950Y11464D01*
X12935Y11388D02*
Y11448D01*
Y11349D02*
Y11388D01*
X12920Y11334D02*
X12935Y11349D01*
X12899Y11334D02*
X12920D01*
X12884Y11349D02*
X12899Y11334D01*
X12884Y11349D02*
Y11388D01*
Y11448D01*
X12869Y11464D02*
X12884Y11448D01*
X12849Y11464D02*
X12869D01*
X12833Y11448D02*
X12849Y11464D01*
X12833Y11388D02*
Y11448D01*
Y11349D02*
Y11388D01*
X12818Y11334D02*
X12833Y11349D01*
X12798Y11334D02*
X12818D01*
X12783Y11349D02*
X12798Y11334D01*
X12783Y11349D02*
Y11388D01*
Y11448D01*
X12767Y11464D02*
X12783Y11448D01*
X12747Y11464D02*
X12767D01*
X12732Y11448D02*
X12747Y11464D01*
X12732Y11388D02*
Y11448D01*
Y11349D02*
Y11388D01*
X12717Y11334D02*
X12732Y11349D01*
X12696Y11334D02*
X12717D01*
X12681Y11349D02*
X12696Y11334D01*
X12681Y11349D02*
Y11388D01*
Y11448D01*
X12666Y11464D02*
X12681Y11448D01*
X12645Y11464D02*
X12666D01*
X12630Y11448D02*
X12645Y11464D01*
X12630Y11388D02*
Y11448D01*
Y11349D02*
Y11388D01*
X12615Y11334D02*
X12630Y11349D01*
X12595Y11334D02*
X12615D01*
X12579Y11349D02*
X12595Y11334D01*
X12579Y11349D02*
Y11388D01*
Y11448D01*
X12564Y11464D02*
X12579Y11448D01*
X12544Y11464D02*
X12564D01*
X12529Y11448D02*
X12544Y11464D01*
X12529Y11388D02*
Y11448D01*
Y11349D02*
Y11388D01*
X12513Y11334D02*
X12529Y11349D01*
X12493Y11334D02*
X12513D01*
X12478Y11349D02*
X12493Y11334D01*
X12478Y11349D02*
Y11388D01*
Y11448D01*
X12463Y11464D02*
X12478Y11448D01*
X12442Y11464D02*
X12463D01*
X12427Y11448D02*
X12442Y11464D01*
X12427Y11388D02*
Y11448D01*
Y11349D02*
Y11388D01*
X12412Y11334D02*
X12427Y11349D01*
X12391Y11334D02*
X12412D01*
X12376Y11349D02*
X12391Y11334D01*
X12376Y11349D02*
Y11388D01*
Y11448D01*
X12361Y11464D02*
X12376Y11448D01*
X12341Y11464D02*
X12361D01*
X12325Y11448D02*
X12341Y11464D01*
X12325Y11403D02*
Y11448D01*
X12310Y11388D02*
X12325Y11403D01*
X12300Y11388D02*
X12310D01*
X11407Y11293D02*
X11485D01*
X12084D02*
X12107D01*
X12069Y11309D02*
X12084Y11293D01*
X12069Y11309D02*
Y11332D01*
X12054Y11347D02*
X12069Y11332D01*
X12034Y11347D02*
X12054D01*
X12018Y11332D02*
X12034Y11347D01*
X12018Y11293D02*
Y11332D01*
Y11233D02*
Y11293D01*
X12003Y11217D02*
X12018Y11233D01*
X11983Y11217D02*
X12003D01*
X11968Y11233D02*
X11983Y11217D01*
X11968Y11233D02*
Y11293D01*
Y11332D01*
X11952Y11347D02*
X11968Y11332D01*
X11932Y11347D02*
X11952D01*
X11917Y11332D02*
X11932Y11347D01*
X11917Y11293D02*
Y11332D01*
Y11233D02*
Y11293D01*
X11902Y11217D02*
X11917Y11233D01*
X11881Y11217D02*
X11902D01*
X11866Y11233D02*
X11881Y11217D01*
X11866Y11233D02*
Y11293D01*
Y11332D01*
X11851Y11347D02*
X11866Y11332D01*
X11830Y11347D02*
X11851D01*
X11815Y11332D02*
X11830Y11347D01*
X11815Y11293D02*
Y11332D01*
Y11233D02*
Y11293D01*
X11800Y11217D02*
X11815Y11233D01*
X11780Y11217D02*
X11800D01*
X11764Y11233D02*
X11780Y11217D01*
X11764Y11233D02*
Y11293D01*
Y11332D01*
X11749Y11347D02*
X11764Y11332D01*
X11729Y11347D02*
X11749D01*
X11714Y11332D02*
X11729Y11347D01*
X11714Y11293D02*
Y11332D01*
Y11233D02*
Y11293D01*
X11698Y11217D02*
X11714Y11233D01*
X11678Y11217D02*
X11698D01*
X11663Y11233D02*
X11678Y11217D01*
X11663Y11233D02*
Y11293D01*
Y11332D01*
X11648Y11347D02*
X11663Y11332D01*
X11627Y11347D02*
X11648D01*
X11612Y11332D02*
X11627Y11347D01*
X11612Y11293D02*
Y11332D01*
Y11233D02*
Y11293D01*
X11597Y11217D02*
X11612Y11233D01*
X11576Y11217D02*
X11597D01*
X11561Y11233D02*
X11576Y11217D01*
X11561Y11233D02*
Y11293D01*
Y11332D01*
X11546Y11347D02*
X11561Y11332D01*
X11526Y11347D02*
X11546D01*
X11510Y11332D02*
X11526Y11347D01*
X11510Y11309D02*
Y11332D01*
X11495Y11293D02*
X11510Y11309D01*
X11485Y11293D02*
X11495D01*
X11285Y11172D02*
X11407Y11293D01*
X14731Y11194D02*
X14771Y11234D01*
X13057Y11194D02*
X14731D01*
X13022D02*
X13057D01*
X13007Y11209D02*
X13022Y11194D01*
X13007Y11209D02*
Y11238D01*
X12992Y11253D02*
X13007Y11238D01*
X12972Y11253D02*
X12992D01*
X12956Y11238D02*
X12972Y11253D01*
X12956Y11194D02*
Y11238D01*
Y11139D02*
Y11194D01*
X12941Y11123D02*
X12956Y11139D01*
X12921Y11123D02*
X12941D01*
X12906Y11139D02*
X12921Y11123D01*
X12906Y11139D02*
Y11194D01*
Y11238D01*
X12890Y11253D02*
X12906Y11238D01*
X12870Y11253D02*
X12890D01*
X12855Y11238D02*
X12870Y11253D01*
X12855Y11194D02*
Y11238D01*
Y11139D02*
Y11194D01*
X12840Y11123D02*
X12855Y11139D01*
X12819Y11123D02*
X12840D01*
X12804Y11139D02*
X12819Y11123D01*
X12804Y11139D02*
Y11194D01*
Y11238D01*
X12789Y11253D02*
X12804Y11238D01*
X12768Y11253D02*
X12789D01*
X12753Y11238D02*
X12768Y11253D01*
X12753Y11194D02*
Y11238D01*
Y11139D02*
Y11194D01*
X12738Y11123D02*
X12753Y11139D01*
X12718Y11123D02*
X12738D01*
X12702Y11139D02*
X12718Y11123D01*
X12702Y11139D02*
Y11194D01*
Y11238D01*
X12687Y11253D02*
X12702Y11238D01*
X12667Y11253D02*
X12687D01*
X12652Y11238D02*
X12667Y11253D01*
X12652Y11194D02*
Y11238D01*
Y11139D02*
Y11194D01*
X12636Y11123D02*
X12652Y11139D01*
X12616Y11123D02*
X12636D01*
X12601Y11139D02*
X12616Y11123D01*
X12601Y11139D02*
Y11179D01*
X12586Y11194D02*
X12601Y11179D01*
X12550Y11194D02*
X12586D01*
X12525D02*
X12550D01*
X12511Y11180D02*
X12525Y11194D01*
X12486Y11155D02*
X12511Y11180D01*
X12464Y11155D02*
X12486D01*
X12432Y11187D02*
X12464Y11155D01*
X12410Y11187D02*
X12432D01*
X12396Y11173D02*
X12410Y11187D01*
X12396Y11151D02*
Y11173D01*
Y11151D02*
X12428Y11119D01*
Y11098D02*
Y11119D01*
X12403Y11072D02*
X12428Y11098D01*
X12385Y11054D02*
X12403Y11072D01*
X12369Y11054D02*
X12385D01*
X12318D02*
X12369D01*
X12283D02*
X12318D01*
X12267Y11070D02*
X12283Y11054D01*
X12267Y11070D02*
Y11115D01*
X12252Y11131D02*
X12267Y11115D01*
X12232Y11131D02*
X12252D01*
X12217Y11115D02*
X12232Y11131D01*
X12217Y11070D02*
Y11115D01*
X12201Y11054D02*
X12217Y11070D01*
X12181Y11054D02*
X12201D01*
X12166Y11070D02*
X12181Y11054D01*
X12166Y11070D02*
Y11115D01*
X12151Y11131D02*
X12166Y11115D01*
X12130Y11131D02*
X12151D01*
X12115Y11115D02*
X12130Y11131D01*
X12115Y11070D02*
Y11115D01*
X12100Y11054D02*
X12115Y11070D01*
X12079Y11054D02*
X12100D01*
X12064Y11070D02*
X12079Y11054D01*
X12064Y11070D02*
Y11115D01*
X12049Y11131D02*
X12064Y11115D01*
X12029Y11131D02*
X12049D01*
X12013Y11115D02*
X12029Y11131D01*
X12013Y11070D02*
Y11115D01*
X11998Y11054D02*
X12013Y11070D01*
X11978Y11054D02*
X11998D01*
X11963Y11070D02*
X11978Y11054D01*
X11963Y11070D02*
Y11115D01*
X11947Y11131D02*
X11963Y11115D01*
X11927Y11131D02*
X11947D01*
X11912Y11115D02*
X11927Y11131D01*
X11912Y11070D02*
Y11115D01*
X11897Y11054D02*
X11912Y11070D01*
X11876Y11054D02*
X11897D01*
X11861Y11070D02*
X11876Y11054D01*
X11861Y11070D02*
Y11115D01*
X11846Y11131D02*
X11861Y11115D01*
X11825Y11131D02*
X11846D01*
X11810Y11115D02*
X11825Y11131D01*
X11810Y11070D02*
Y11115D01*
X11795Y11054D02*
X11810Y11070D01*
X11775Y11054D02*
X11795D01*
X11759Y11070D02*
X11775Y11054D01*
X11759Y11070D02*
Y11115D01*
X11744Y11131D02*
X11759Y11115D01*
X11724Y11131D02*
X11744D01*
X11709Y11115D02*
X11724Y11131D01*
X11709Y11070D02*
Y11115D01*
X11693Y11054D02*
X11709Y11070D01*
X11673Y11054D02*
X11693D01*
X11658Y11070D02*
X11673Y11054D01*
X11658Y11070D02*
Y11115D01*
X11643Y11131D02*
X11658Y11115D01*
X11622Y11131D02*
X11643D01*
X11607Y11115D02*
X11622Y11131D01*
X11607Y11070D02*
Y11115D01*
X11592Y11054D02*
X11607Y11070D01*
X11571Y11054D02*
X11592D01*
X11556Y11070D02*
X11571Y11054D01*
X11556Y11070D02*
Y11115D01*
X11541Y11131D02*
X11556Y11115D01*
X11521Y11131D02*
X11541D01*
X11505Y11115D02*
X11521Y11131D01*
X11505Y11070D02*
Y11115D01*
X11490Y11054D02*
X11505Y11070D01*
X11480Y11054D02*
X11490D01*
X12402Y11012D02*
X12433D01*
X12351D02*
X12402D01*
X12316D02*
X12351D01*
X12300Y10997D02*
X12316Y11012D01*
X12300Y10988D02*
Y10997D01*
X12285Y10973D02*
X12300Y10988D01*
X12265Y10973D02*
X12285D01*
X12250Y10988D02*
X12265Y10973D01*
X12250Y10988D02*
Y10997D01*
X12234Y11012D02*
X12250Y10997D01*
X12214Y11012D02*
X12234D01*
X12199Y10997D02*
X12214Y11012D01*
X12199Y10988D02*
Y10997D01*
X12184Y10973D02*
X12199Y10988D01*
X12163Y10973D02*
X12184D01*
X12148Y10988D02*
X12163Y10973D01*
X12148Y10988D02*
Y10997D01*
X12133Y11012D02*
X12148Y10997D01*
X12113Y11012D02*
X12133D01*
X12097Y10997D02*
X12113Y11012D01*
X12097Y10988D02*
Y10997D01*
X12082Y10973D02*
X12097Y10988D01*
X12062Y10973D02*
X12082D01*
X12046Y10988D02*
X12062Y10973D01*
X12046Y10988D02*
Y10997D01*
X12031Y11012D02*
X12046Y10997D01*
X12011Y11012D02*
X12031D01*
X11996Y10997D02*
X12011Y11012D01*
X11996Y10988D02*
Y10997D01*
X11980Y10973D02*
X11996Y10988D01*
X11960Y10973D02*
X11980D01*
X11945Y10988D02*
X11960Y10973D01*
X11945Y10988D02*
Y10997D01*
X11930Y11012D02*
X11945Y10997D01*
X11909Y11012D02*
X11930D01*
X11894Y10997D02*
X11909Y11012D01*
X11894Y10988D02*
Y10997D01*
X11879Y10973D02*
X11894Y10988D01*
X11859Y10973D02*
X11879D01*
X11843Y10988D02*
X11859Y10973D01*
X11843Y10988D02*
Y10997D01*
X11828Y11012D02*
X11843Y10997D01*
X11808Y11012D02*
X11828D01*
X11793Y10997D02*
X11808Y11012D01*
X11793Y10988D02*
Y10997D01*
X11777Y10973D02*
X11793Y10988D01*
X11757Y10973D02*
X11777D01*
X11742Y10988D02*
X11757Y10973D01*
X11742Y10988D02*
Y10997D01*
X11726Y11012D02*
X11742Y10997D01*
X11706Y11012D02*
X11726D01*
X11691Y10997D02*
X11706Y11012D01*
X11691Y10988D02*
Y10997D01*
X11676Y10973D02*
X11691Y10988D01*
X11655Y10973D02*
X11676D01*
X11640Y10988D02*
X11655Y10973D01*
X11640Y10988D02*
Y10997D01*
X11625Y11012D02*
X11640Y10997D01*
X11605Y11012D02*
X11625D01*
X11589Y10997D02*
X11605Y11012D01*
X11589Y10988D02*
Y10997D01*
X11574Y10973D02*
X11589Y10988D01*
X11554Y10973D02*
X11574D01*
X11539Y10988D02*
X11554Y10973D01*
X11539Y10988D02*
Y10997D01*
X11523Y11012D02*
X11539Y10997D01*
X11503Y11012D02*
X11523D01*
X11488Y10997D02*
X11503Y11012D01*
X11488Y10988D02*
Y10997D01*
X11472Y10973D02*
X11488Y10988D01*
X11452Y10973D02*
X11472D01*
X11437Y10988D02*
X11452Y10973D01*
X11437Y10988D02*
Y10997D01*
X11422Y11012D02*
X11437Y10997D01*
X11401Y11012D02*
X11422D01*
X11386Y10997D02*
X11401Y11012D01*
X11386Y10988D02*
Y10997D01*
X11371Y10973D02*
X11386Y10988D01*
X11351Y10973D02*
X11371D01*
X11335Y10988D02*
X11351Y10973D01*
X11335Y10988D02*
Y10997D01*
X11320Y11012D02*
X11335Y10997D01*
X11300Y11012D02*
X11320D01*
X11285Y10997D02*
X11300Y11012D01*
X11285Y10988D02*
Y10997D01*
X11269Y10973D02*
X11285Y10988D01*
X11249Y10973D02*
X11269D01*
X11234Y10988D02*
X11249Y10973D01*
X11234Y10988D02*
Y10997D01*
X11218Y11012D02*
X11234Y10997D01*
X11183Y11012D02*
X11218D01*
X11157D02*
X11183D01*
X14748Y11154D02*
X14788Y11194D01*
X13960Y11154D02*
X14748D01*
X13948D02*
X13960D01*
X13933Y11138D02*
X13948Y11154D01*
X13933Y11093D02*
Y11138D01*
X13917Y11077D02*
X13933Y11093D01*
X13897Y11077D02*
X13917D01*
X13882Y11093D02*
X13897Y11077D01*
X13882Y11093D02*
Y11138D01*
X13867Y11154D02*
X13882Y11138D01*
X13846Y11154D02*
X13867D01*
X13831Y11138D02*
X13846Y11154D01*
X13831Y11093D02*
Y11138D01*
X13816Y11077D02*
X13831Y11093D01*
X13796Y11077D02*
X13816D01*
X13780Y11093D02*
X13796Y11077D01*
X13780Y11093D02*
Y11138D01*
X13765Y11154D02*
X13780Y11138D01*
X13745Y11154D02*
X13765D01*
X13729Y11138D02*
X13745Y11154D01*
X13729Y11093D02*
Y11138D01*
X13714Y11077D02*
X13729Y11093D01*
X13694Y11077D02*
X13714D01*
X13679Y11093D02*
X13694Y11077D01*
X13679Y11093D02*
Y11138D01*
X13663Y11154D02*
X13679Y11138D01*
X13643Y11154D02*
X13663D01*
X13628Y11138D02*
X13643Y11154D01*
X13628Y11093D02*
Y11138D01*
X13613Y11077D02*
X13628Y11093D01*
X13592Y11077D02*
X13613D01*
X13577Y11093D02*
X13592Y11077D01*
X13577Y11093D02*
Y11138D01*
X13562Y11154D02*
X13577Y11138D01*
X13542Y11154D02*
X13562D01*
X13526Y11138D02*
X13542Y11154D01*
X13526Y11093D02*
Y11138D01*
X13511Y11077D02*
X13526Y11093D01*
X13491Y11077D02*
X13511D01*
X13476Y11093D02*
X13491Y11077D01*
X13476Y11093D02*
Y11138D01*
X13460Y11154D02*
X13476Y11138D01*
X13440Y11154D02*
X13460D01*
X13425Y11138D02*
X13440Y11154D01*
X13425Y11093D02*
Y11138D01*
X13409Y11077D02*
X13425Y11093D01*
X13389Y11077D02*
X13409D01*
X13374Y11093D02*
X13389Y11077D01*
X13374Y11093D02*
Y11138D01*
X13359Y11154D02*
X13374Y11138D01*
X13338Y11154D02*
X13359D01*
X13323Y11138D02*
X13338Y11154D01*
X13323Y11093D02*
Y11138D01*
X13308Y11077D02*
X13323Y11093D01*
X13288Y11077D02*
X13308D01*
X13272Y11093D02*
X13288Y11077D01*
X13272Y11093D02*
Y11138D01*
X13257Y11154D02*
X13272Y11138D01*
X13221Y11154D02*
X13257D01*
X13196D02*
X13221D01*
X13181Y11138D02*
X13196Y11154D01*
X13156Y11113D02*
X13181Y11138D01*
X13134Y11113D02*
X13156D01*
X13102Y11145D02*
X13134Y11113D01*
X13080Y11145D02*
X13102D01*
X13066Y11131D02*
X13080Y11145D01*
X13066Y11109D02*
Y11131D01*
Y11109D02*
X13098Y11077D01*
Y11056D02*
Y11077D01*
X13073Y11030D02*
X13098Y11056D01*
X13055Y11012D02*
X13073Y11030D01*
X13017Y11012D02*
X13055D01*
X12966D02*
X13017D01*
X12930D02*
X12966D01*
X12915Y11028D02*
X12930Y11012D01*
X12915Y11028D02*
Y11073D01*
X12900Y11089D02*
X12915Y11073D01*
X12880Y11089D02*
X12900D01*
X12864Y11073D02*
X12880Y11089D01*
X12864Y11028D02*
Y11073D01*
X12849Y11012D02*
X12864Y11028D01*
X12829Y11012D02*
X12849D01*
X12814Y11028D02*
X12829Y11012D01*
X12814Y11028D02*
Y11073D01*
X12798Y11089D02*
X12814Y11073D01*
X12778Y11089D02*
X12798D01*
X12763Y11073D02*
X12778Y11089D01*
X12763Y11028D02*
Y11073D01*
X12748Y11012D02*
X12763Y11028D01*
X12727Y11012D02*
X12748D01*
X12712Y11028D02*
X12727Y11012D01*
X12712Y11028D02*
Y11073D01*
X12697Y11089D02*
X12712Y11073D01*
X12676Y11089D02*
X12697D01*
X12661Y11073D02*
X12676Y11089D01*
X12661Y11028D02*
Y11073D01*
X12646Y11012D02*
X12661Y11028D01*
X12626Y11012D02*
X12646D01*
X12610Y11028D02*
X12626Y11012D01*
X12610Y11028D02*
Y11073D01*
X12595Y11089D02*
X12610Y11073D01*
X12575Y11089D02*
X12595D01*
X12560Y11073D02*
X12575Y11089D01*
X12560Y11028D02*
Y11073D01*
X12544Y11012D02*
X12560Y11028D01*
X12524Y11012D02*
X12544D01*
X12509Y11028D02*
X12524Y11012D01*
X12509Y11028D02*
Y11070D01*
X12494Y11086D02*
X12509Y11070D01*
X12473Y11086D02*
X12494D01*
X12458Y11070D02*
X12473Y11086D01*
X12458Y11028D02*
Y11070D01*
X12443Y11012D02*
X12458Y11028D01*
X12433Y11012D02*
X12443D01*
X14764Y11113D02*
X14785Y11134D01*
X14041Y11113D02*
X14764D01*
X13860Y10933D02*
X14041Y11113D01*
X13767Y10933D02*
X13860D01*
X13754Y10945D02*
X13767Y10933D01*
X13754Y10945D02*
Y10994D01*
X13739Y11009D02*
X13754Y10994D01*
X13719Y11009D02*
X13739D01*
X13704Y10994D02*
X13719Y11009D01*
X13704Y10933D02*
Y10994D01*
Y10872D02*
Y10933D01*
X13688Y10857D02*
X13704Y10872D01*
X13668Y10857D02*
X13688D01*
X13653Y10872D02*
X13668Y10857D01*
X13653Y10872D02*
Y10933D01*
Y10994D01*
X13638Y11009D02*
X13653Y10994D01*
X13617Y11009D02*
X13638D01*
X13602Y10994D02*
X13617Y11009D01*
X13602Y10933D02*
Y10994D01*
Y10872D02*
Y10933D01*
X13587Y10857D02*
X13602Y10872D01*
X13567Y10857D02*
X13587D01*
X13551Y10872D02*
X13567Y10857D01*
X13551Y10872D02*
Y10933D01*
Y10994D01*
X13536Y11009D02*
X13551Y10994D01*
X13516Y11009D02*
X13536D01*
X13501Y10994D02*
X13516Y11009D01*
X13501Y10933D02*
Y10994D01*
Y10872D02*
Y10933D01*
X13485Y10857D02*
X13501Y10872D01*
X13465Y10857D02*
X13485D01*
X13450Y10872D02*
X13465Y10857D01*
X13450Y10872D02*
Y10933D01*
Y10994D01*
X13434Y11009D02*
X13450Y10994D01*
X13414Y11009D02*
X13434D01*
X13399Y10994D02*
X13414Y11009D01*
X13399Y10933D02*
Y10994D01*
Y10872D02*
Y10933D01*
X13384Y10857D02*
X13399Y10872D01*
X13363Y10857D02*
X13384D01*
X13348Y10872D02*
X13363Y10857D01*
X13348Y10872D02*
Y10933D01*
Y10994D01*
X13333Y11009D02*
X13348Y10994D01*
X13313Y11009D02*
X13333D01*
X13297Y10994D02*
X13313Y11009D01*
X13297Y10933D02*
Y10994D01*
Y10872D02*
Y10933D01*
X13282Y10857D02*
X13297Y10872D01*
X13262Y10857D02*
X13282D01*
X13246Y10872D02*
X13262Y10857D01*
X13246Y10872D02*
Y10933D01*
Y10994D01*
X13231Y11009D02*
X13246Y10994D01*
X13211Y11009D02*
X13231D01*
X13196Y10994D02*
X13211Y11009D01*
X13196Y10933D02*
Y10994D01*
Y10878D02*
Y10933D01*
X13180Y10863D02*
X13196Y10878D01*
X13160Y10863D02*
X13180D01*
X13145Y10878D02*
X13160Y10863D01*
X13145Y10878D02*
Y10933D01*
Y10994D01*
X13130Y11009D02*
X13145Y10994D01*
X13109Y11009D02*
X13130D01*
X13094Y10994D02*
X13109Y11009D01*
X13094Y10933D02*
Y10994D01*
Y10922D02*
Y10933D01*
X13079Y10907D02*
X13094Y10922D01*
X13059Y10907D02*
X13079D01*
X13043Y10922D02*
X13059Y10907D01*
X13043Y10922D02*
Y10933D01*
Y10957D01*
X13028Y10972D02*
X13043Y10957D01*
X13008Y10972D02*
X13028D01*
X12993Y10957D02*
X13008Y10972D01*
X12993Y10948D02*
Y10957D01*
X12977Y10933D02*
X12993Y10948D01*
X12957Y10933D02*
X12977D01*
X12942Y10948D02*
X12957Y10933D01*
X12942Y10948D02*
Y10957D01*
X12926Y10972D02*
X12942Y10957D01*
X12906Y10972D02*
X12926D01*
X12891Y10957D02*
X12906Y10972D01*
X12891Y10948D02*
Y10957D01*
X12876Y10933D02*
X12891Y10948D01*
X12855Y10933D02*
X12876D01*
X12840Y10948D02*
X12855Y10933D01*
X12840Y10948D02*
Y10957D01*
X12825Y10972D02*
X12840Y10957D01*
X12805Y10972D02*
X12825D01*
X12789Y10957D02*
X12805Y10972D01*
X12789Y10948D02*
Y10957D01*
X12774Y10933D02*
X12789Y10948D01*
X12754Y10933D02*
X12774D01*
X12739Y10948D02*
X12754Y10933D01*
X12739Y10948D02*
Y10957D01*
X12723Y10972D02*
X12739Y10957D01*
X12703Y10972D02*
X12723D01*
X12688Y10957D02*
X12703Y10972D01*
X12688Y10948D02*
Y10957D01*
X12672Y10933D02*
X12688Y10948D01*
X12652Y10933D02*
X12672D01*
X12637Y10948D02*
X12652Y10933D01*
X12637Y10948D02*
Y10957D01*
X12622Y10972D02*
X12637Y10957D01*
X12601Y10972D02*
X12622D01*
X12586Y10957D02*
X12601Y10972D01*
X12586Y10948D02*
Y10957D01*
X12571Y10933D02*
X12586Y10948D01*
X12551Y10933D02*
X12571D01*
X12535Y10948D02*
X12551Y10933D01*
X12535Y10948D02*
Y10957D01*
X12520Y10972D02*
X12535Y10957D01*
X12500Y10972D02*
X12520D01*
X12485Y10957D02*
X12500Y10972D01*
X12485Y10948D02*
Y10957D01*
X12469Y10933D02*
X12485Y10948D01*
X12449Y10933D02*
X12469D01*
X12434Y10948D02*
X12449Y10933D01*
X12434Y10948D02*
Y10957D01*
X12418Y10972D02*
X12434Y10957D01*
X12398Y10972D02*
X12418D01*
X12383Y10957D02*
X12398Y10972D01*
X12383Y10948D02*
Y10957D01*
X12368Y10933D02*
X12383Y10948D01*
X12357Y10933D02*
X12368D01*
X13116Y10826D02*
X13145D01*
X13098D02*
X13116D01*
X13082Y10810D02*
X13098Y10826D01*
X13082Y10765D02*
Y10810D01*
X13067Y10749D02*
X13082Y10765D01*
X13047Y10749D02*
X13067D01*
X13032Y10765D02*
X13047Y10749D01*
X13032Y10765D02*
Y10826D01*
Y10877D01*
X13016Y10892D02*
X13032Y10877D01*
X12996Y10892D02*
X13016D01*
X12981Y10877D02*
X12996Y10892D01*
X12981Y10826D02*
Y10877D01*
Y10765D02*
Y10826D01*
X12965Y10749D02*
X12981Y10765D01*
X12945Y10749D02*
X12965D01*
X12930Y10765D02*
X12945Y10749D01*
X12930Y10765D02*
Y10826D01*
Y10877D01*
X12915Y10892D02*
X12930Y10877D01*
X12894Y10892D02*
X12915D01*
X12879Y10877D02*
X12894Y10892D01*
X12879Y10826D02*
Y10877D01*
Y10765D02*
Y10826D01*
X12864Y10749D02*
X12879Y10765D01*
X12844Y10749D02*
X12864D01*
X12828Y10765D02*
X12844Y10749D01*
X12828Y10765D02*
Y10826D01*
Y10877D01*
X12813Y10892D02*
X12828Y10877D01*
X12793Y10892D02*
X12813D01*
X12778Y10877D02*
X12793Y10892D01*
X12778Y10826D02*
Y10877D01*
Y10765D02*
Y10826D01*
X12762Y10749D02*
X12778Y10765D01*
X12742Y10749D02*
X12762D01*
X12727Y10765D02*
X12742Y10749D01*
X12727Y10765D02*
Y10826D01*
Y10877D01*
X12711Y10892D02*
X12727Y10877D01*
X12691Y10892D02*
X12711D01*
X12676Y10877D02*
X12691Y10892D01*
X12676Y10826D02*
Y10877D01*
Y10765D02*
Y10826D01*
X12661Y10749D02*
X12676Y10765D01*
X12640Y10749D02*
X12661D01*
X12625Y10765D02*
X12640Y10749D01*
X12625Y10765D02*
Y10826D01*
Y10877D01*
X12610Y10892D02*
X12625Y10877D01*
X12590Y10892D02*
X12610D01*
X12574Y10877D02*
X12590Y10892D01*
X12574Y10826D02*
Y10877D01*
Y10765D02*
Y10826D01*
X12559Y10749D02*
X12574Y10765D01*
X12539Y10749D02*
X12559D01*
X12524Y10765D02*
X12539Y10749D01*
X12524Y10765D02*
Y10826D01*
Y10877D01*
X12508Y10892D02*
X12524Y10877D01*
X12488Y10892D02*
X12508D01*
X12473Y10877D02*
X12488Y10892D01*
X12473Y10826D02*
Y10877D01*
Y10765D02*
Y10826D01*
X12457Y10749D02*
X12473Y10765D01*
X12437Y10749D02*
X12457D01*
X12422Y10765D02*
X12437Y10749D01*
X12422Y10765D02*
Y10826D01*
Y10877D01*
X12407Y10892D02*
X12422Y10877D01*
X12386Y10892D02*
X12407D01*
X12371Y10877D02*
X12386Y10892D01*
X12371Y10826D02*
Y10877D01*
Y10765D02*
Y10826D01*
X12356Y10749D02*
X12371Y10765D01*
X12336Y10749D02*
X12356D01*
X12320Y10765D02*
X12336Y10749D01*
X12320Y10765D02*
Y10826D01*
Y10877D01*
X12305Y10892D02*
X12320Y10877D01*
X12285Y10892D02*
X12305D01*
X12269Y10877D02*
X12285Y10892D01*
X12269Y10826D02*
Y10877D01*
Y10765D02*
Y10826D01*
X12254Y10749D02*
X12269Y10765D01*
X12234Y10749D02*
X12254D01*
X12219Y10765D02*
X12234Y10749D01*
X12219Y10765D02*
Y10826D01*
Y10877D01*
X12203Y10892D02*
X12219Y10877D01*
X12183Y10892D02*
X12203D01*
X12168Y10877D02*
X12183Y10892D01*
X12168Y10841D02*
Y10877D01*
X12153Y10826D02*
X12168Y10841D01*
X12143Y10826D02*
X12153D01*
X14779Y11234D02*
X15015Y11470D01*
X14771Y11234D02*
X14779D01*
X14861Y11234D02*
X15090Y11463D01*
X14836Y11234D02*
X14861D01*
X14901Y11194D02*
X15172Y11465D01*
X14853Y11194D02*
X14901D01*
X14794Y11134D02*
X14853Y11194D01*
X14822Y11054D02*
X14906D01*
X14838Y11013D02*
X14973D01*
X14797Y10972D02*
X14838Y11013D01*
X14785Y11134D02*
X14794D01*
X14788Y11194D02*
X14796D01*
X14836Y11234D01*
X14757Y10988D02*
X14822Y11054D01*
X14797Y10864D02*
Y10972D01*
X14862Y10785D02*
Y10955D01*
X14506Y10441D02*
X14518D01*
X14757Y10881D02*
Y10988D01*
X14518Y10441D02*
X14862Y10785D01*
X14472Y10407D02*
X14506Y10441D01*
X14659Y10726D02*
X14797Y10864D01*
X13377Y10075D02*
X14143D01*
X14784Y11073D02*
X14805Y11094D01*
X14642Y10767D02*
X14757Y10881D01*
X13145Y10826D02*
X13162Y10809D01*
X12620Y10425D02*
X12628D01*
X12605Y10440D02*
X12620Y10425D01*
X12605Y10440D02*
Y10461D01*
X12590Y10476D02*
X12605Y10461D01*
X12569Y10476D02*
X12590D01*
X12554Y10461D02*
X12569Y10476D01*
X12554Y10425D02*
Y10461D01*
Y10411D02*
Y10425D01*
X12539Y10396D02*
X12554Y10411D01*
X12519Y10396D02*
X12539D01*
X12503Y10411D02*
X12519Y10396D01*
X12503Y10411D02*
Y10425D01*
Y10461D01*
X12488Y10476D02*
X12503Y10461D01*
X12468Y10476D02*
X12488D01*
X12453Y10461D02*
X12468Y10476D01*
X12453Y10425D02*
Y10461D01*
Y10411D02*
Y10425D01*
X12437Y10396D02*
X12453Y10411D01*
X12417Y10396D02*
X12437D01*
X12402Y10411D02*
X12417Y10396D01*
X12402Y10411D02*
Y10425D01*
Y10461D01*
X12386Y10476D02*
X12402Y10461D01*
X12366Y10476D02*
X12386D01*
X12351Y10461D02*
X12366Y10476D01*
X12351Y10425D02*
Y10461D01*
Y10411D02*
Y10425D01*
X12336Y10396D02*
X12351Y10411D01*
X12315Y10396D02*
X12336D01*
X12300Y10411D02*
X12315Y10396D01*
X12300Y10411D02*
Y10425D01*
Y10461D01*
X12285Y10476D02*
X12300Y10461D01*
X12265Y10476D02*
X12285D01*
X12249Y10461D02*
X12265Y10476D01*
X12249Y10425D02*
Y10461D01*
Y10411D02*
Y10425D01*
X12234Y10396D02*
X12249Y10411D01*
X12214Y10396D02*
X12234D01*
X12199Y10411D02*
X12214Y10396D01*
X12199Y10411D02*
Y10425D01*
Y10461D01*
X12183Y10476D02*
X12199Y10461D01*
X12163Y10476D02*
X12183D01*
X12148Y10461D02*
X12163Y10476D01*
X12148Y10425D02*
Y10461D01*
Y10411D02*
Y10425D01*
X12132Y10396D02*
X12148Y10411D01*
X12112Y10396D02*
X12132D01*
X12097Y10411D02*
X12112Y10396D01*
X12097Y10411D02*
Y10425D01*
Y10461D01*
X12082Y10476D02*
X12097Y10461D01*
X12061Y10476D02*
X12082D01*
X12046Y10461D02*
X12061Y10476D01*
X12046Y10425D02*
Y10461D01*
Y10411D02*
Y10425D01*
X12031Y10396D02*
X12046Y10411D01*
X12011Y10396D02*
X12031D01*
X11995Y10411D02*
X12011Y10396D01*
X11995Y10411D02*
Y10425D01*
Y10461D01*
X11980Y10476D02*
X11995Y10461D01*
X11960Y10476D02*
X11980D01*
X11944Y10461D02*
X11960Y10476D01*
X11944Y10425D02*
Y10461D01*
Y10411D02*
Y10425D01*
X11929Y10396D02*
X11944Y10411D01*
X11909Y10396D02*
X11929D01*
X11894Y10411D02*
X11909Y10396D01*
X11894Y10411D02*
Y10425D01*
Y10461D01*
X11878Y10476D02*
X11894Y10461D01*
X11858Y10476D02*
X11878D01*
X11843Y10461D02*
X11858Y10476D01*
X11843Y10440D02*
Y10461D01*
X11828Y10425D02*
X11843Y10440D01*
X11818Y10425D02*
X11828D01*
X11428Y10305D02*
X11553D01*
X13000D02*
X13023D01*
X12965D02*
X13000D01*
X12949Y10320D02*
X12965Y10305D01*
X12949Y10320D02*
Y10341D01*
X12934Y10356D02*
X12949Y10341D01*
X12914Y10356D02*
X12934D01*
X12899Y10341D02*
X12914Y10356D01*
X12899Y10320D02*
Y10341D01*
X12883Y10305D02*
X12899Y10320D01*
X12863Y10305D02*
X12883D01*
X12848Y10320D02*
X12863Y10305D01*
X12848Y10320D02*
Y10341D01*
X12833Y10356D02*
X12848Y10341D01*
X12812Y10356D02*
X12833D01*
X12797Y10341D02*
X12812Y10356D01*
X12797Y10320D02*
Y10341D01*
X12782Y10305D02*
X12797Y10320D01*
X12762Y10305D02*
X12782D01*
X12746Y10320D02*
X12762Y10305D01*
X12746Y10320D02*
Y10341D01*
X12731Y10356D02*
X12746Y10341D01*
X12711Y10356D02*
X12731D01*
X12696Y10341D02*
X12711Y10356D01*
X12696Y10320D02*
Y10341D01*
X12680Y10305D02*
X12696Y10320D01*
X12660Y10305D02*
X12680D01*
X12645Y10320D02*
X12660Y10305D01*
X12645Y10320D02*
Y10341D01*
X12629Y10356D02*
X12645Y10341D01*
X12609Y10356D02*
X12629D01*
X12594Y10341D02*
X12609Y10356D01*
X12594Y10320D02*
Y10341D01*
X12579Y10305D02*
X12594Y10320D01*
X12558Y10305D02*
X12579D01*
X12543Y10320D02*
X12558Y10305D01*
X12543Y10320D02*
Y10341D01*
X12528Y10356D02*
X12543Y10341D01*
X12508Y10356D02*
X12528D01*
X12492Y10341D02*
X12508Y10356D01*
X12492Y10320D02*
Y10341D01*
X12477Y10305D02*
X12492Y10320D01*
X12457Y10305D02*
X12477D01*
X12442Y10320D02*
X12457Y10305D01*
X12442Y10320D02*
Y10341D01*
X12426Y10356D02*
X12442Y10341D01*
X12406Y10356D02*
X12426D01*
X12391Y10341D02*
X12406Y10356D01*
X12391Y10320D02*
Y10341D01*
X12375Y10305D02*
X12391Y10320D01*
X12355Y10305D02*
X12375D01*
X12340Y10320D02*
X12355Y10305D01*
X12340Y10320D02*
Y10341D01*
X12325Y10356D02*
X12340Y10341D01*
X12304Y10356D02*
X12325D01*
X12289Y10341D02*
X12304Y10356D01*
X12289Y10320D02*
Y10341D01*
X12274Y10305D02*
X12289Y10320D01*
X12254Y10305D02*
X12274D01*
X12238Y10320D02*
X12254Y10305D01*
X12238Y10320D02*
Y10341D01*
X12223Y10356D02*
X12238Y10341D01*
X12203Y10356D02*
X12223D01*
X12188Y10341D02*
X12203Y10356D01*
X12188Y10320D02*
Y10341D01*
X12172Y10305D02*
X12188Y10320D01*
X12152Y10305D02*
X12172D01*
X12137Y10320D02*
X12152Y10305D01*
X12137Y10320D02*
Y10341D01*
X12121Y10356D02*
X12137Y10341D01*
X12101Y10356D02*
X12121D01*
X12086Y10341D02*
X12101Y10356D01*
X12086Y10320D02*
Y10341D01*
X12071Y10305D02*
X12086Y10320D01*
X12050Y10305D02*
X12071D01*
X12035Y10320D02*
X12050Y10305D01*
X12035Y10320D02*
Y10341D01*
X12020Y10356D02*
X12035Y10341D01*
X12000Y10356D02*
X12020D01*
X11984Y10341D02*
X12000Y10356D01*
X11984Y10320D02*
Y10341D01*
X11969Y10305D02*
X11984Y10320D01*
X11949Y10305D02*
X11969D01*
X11933Y10320D02*
X11949Y10305D01*
X11933Y10320D02*
Y10341D01*
X11918Y10356D02*
X11933Y10341D01*
X11898Y10356D02*
X11918D01*
X11883Y10341D02*
X11898Y10356D01*
X11883Y10320D02*
Y10341D01*
X11867Y10305D02*
X11883Y10320D01*
X11847Y10305D02*
X11867D01*
X11832Y10320D02*
X11847Y10305D01*
X11832Y10320D02*
Y10341D01*
X11817Y10356D02*
X11832Y10341D01*
X11796Y10356D02*
X11817D01*
X11781Y10341D02*
X11796Y10356D01*
X11781Y10320D02*
Y10341D01*
X11766Y10305D02*
X11781Y10320D01*
X11746Y10305D02*
X11766D01*
X11730Y10320D02*
X11746Y10305D01*
X11730Y10320D02*
Y10341D01*
X11715Y10356D02*
X11730Y10341D01*
X11695Y10356D02*
X11715D01*
X11679Y10341D02*
X11695Y10356D01*
X11679Y10320D02*
Y10341D01*
X11664Y10305D02*
X11679Y10320D01*
X11644Y10305D02*
X11664D01*
X11629Y10320D02*
X11644Y10305D01*
X11629Y10320D02*
Y10341D01*
X11613Y10356D02*
X11629Y10341D01*
X11593Y10356D02*
X11613D01*
X11578Y10341D02*
X11593Y10356D01*
X11578Y10320D02*
Y10341D01*
X11563Y10305D02*
X11578Y10320D01*
X11553Y10305D02*
X11563D01*
X10750Y9628D02*
X11428Y10305D01*
X14143Y10075D02*
X14472Y10404D01*
X13357Y10075D02*
X13377D01*
X13342Y10090D02*
X13357Y10075D01*
X13342Y10090D02*
Y10111D01*
X13327Y10126D02*
X13342Y10111D01*
X13306Y10126D02*
X13327D01*
X13291Y10111D02*
X13306Y10126D01*
X13291Y10075D02*
Y10111D01*
Y10039D02*
Y10075D01*
X13276Y10024D02*
X13291Y10039D01*
X13256Y10024D02*
X13276D01*
X13240Y10039D02*
X13256Y10024D01*
X13240Y10039D02*
Y10075D01*
Y10111D01*
X13225Y10126D02*
X13240Y10111D01*
X13205Y10126D02*
X13225D01*
X13190Y10111D02*
X13205Y10126D01*
X13190Y10075D02*
Y10111D01*
Y10039D02*
Y10075D01*
X13174Y10024D02*
X13190Y10039D01*
X13154Y10024D02*
X13174D01*
X13139Y10039D02*
X13154Y10024D01*
X13139Y10039D02*
Y10075D01*
Y10111D01*
X13124Y10126D02*
X13139Y10111D01*
X13103Y10126D02*
X13124D01*
X13088Y10111D02*
X13103Y10126D01*
X13088Y10075D02*
Y10111D01*
Y10039D02*
Y10075D01*
X13073Y10024D02*
X13088Y10039D01*
X13052Y10024D02*
X13073D01*
X13037Y10039D02*
X13052Y10024D01*
X13037Y10039D02*
Y10075D01*
Y10111D01*
X13022Y10126D02*
X13037Y10111D01*
X13002Y10126D02*
X13022D01*
X12986Y10111D02*
X13002Y10126D01*
X12986Y10075D02*
Y10111D01*
Y10039D02*
Y10075D01*
X12971Y10024D02*
X12986Y10039D01*
X12951Y10024D02*
X12971D01*
X12936Y10039D02*
X12951Y10024D01*
X12936Y10039D02*
Y10075D01*
Y10111D01*
X12920Y10126D02*
X12936Y10111D01*
X12900Y10126D02*
X12920D01*
X12885Y10111D02*
X12900Y10126D01*
X12885Y10075D02*
Y10111D01*
Y10039D02*
Y10075D01*
X12870Y10024D02*
X12885Y10039D01*
X12849Y10024D02*
X12870D01*
X12834Y10039D02*
X12849Y10024D01*
X12834Y10039D02*
Y10075D01*
Y10111D01*
X12819Y10126D02*
X12834Y10111D01*
X12798Y10126D02*
X12819D01*
X12783Y10111D02*
X12798Y10126D01*
X12783Y10075D02*
Y10111D01*
Y10039D02*
Y10075D01*
X12768Y10024D02*
X12783Y10039D01*
X12748Y10024D02*
X12768D01*
X12732Y10039D02*
X12748Y10024D01*
X12732Y10039D02*
Y10075D01*
Y10111D01*
X12717Y10126D02*
X12732Y10111D01*
X12697Y10126D02*
X12717D01*
X12682Y10111D02*
X12697Y10126D01*
X12682Y10075D02*
Y10111D01*
Y10039D02*
Y10075D01*
X12666Y10024D02*
X12682Y10039D01*
X12646Y10024D02*
X12666D01*
X12631Y10039D02*
X12646Y10024D01*
X12631Y10039D02*
Y10075D01*
Y10111D01*
X12616Y10126D02*
X12631Y10111D01*
X12595Y10126D02*
X12616D01*
X12580Y10111D02*
X12595Y10126D01*
X12580Y10075D02*
Y10111D01*
Y10039D02*
Y10075D01*
X12565Y10024D02*
X12580Y10039D01*
X12544Y10024D02*
X12565D01*
X12529Y10039D02*
X12544Y10024D01*
X12529Y10039D02*
Y10075D01*
Y10111D01*
X12514Y10126D02*
X12529Y10111D01*
X12494Y10126D02*
X12514D01*
X12478Y10111D02*
X12494Y10126D01*
X12478Y10075D02*
Y10111D01*
Y10039D02*
Y10075D01*
X12463Y10024D02*
X12478Y10039D01*
X12443Y10024D02*
X12463D01*
X12428Y10039D02*
X12443Y10024D01*
X12428Y10039D02*
Y10075D01*
Y10111D01*
X12412Y10126D02*
X12428Y10111D01*
X12392Y10126D02*
X12412D01*
X12377Y10111D02*
X12392Y10126D01*
X12377Y10075D02*
Y10111D01*
Y10039D02*
Y10075D01*
X12362Y10024D02*
X12377Y10039D01*
X12341Y10024D02*
X12362D01*
X12326Y10039D02*
X12341Y10024D01*
X12326Y10039D02*
Y10075D01*
Y10111D01*
X12311Y10126D02*
X12326Y10111D01*
X12290Y10126D02*
X12311D01*
X12275Y10111D02*
X12290Y10126D01*
X12275Y10075D02*
Y10111D01*
Y10039D02*
Y10075D01*
X12260Y10024D02*
X12275Y10039D01*
X12240Y10024D02*
X12260D01*
X12224Y10039D02*
X12240Y10024D01*
X12224Y10039D02*
Y10075D01*
Y10111D01*
X12209Y10126D02*
X12224Y10111D01*
X12189Y10126D02*
X12209D01*
X12174Y10111D02*
X12189Y10126D01*
X12174Y10075D02*
Y10111D01*
Y10039D02*
Y10075D01*
X12158Y10024D02*
X12174Y10039D01*
X12138Y10024D02*
X12158D01*
X12123Y10039D02*
X12138Y10024D01*
X12123Y10039D02*
Y10075D01*
Y10111D01*
X12108Y10126D02*
X12123Y10111D01*
X12087Y10126D02*
X12108D01*
X12072Y10111D02*
X12087Y10126D01*
X12072Y10075D02*
Y10111D01*
Y10039D02*
Y10075D01*
X12057Y10024D02*
X12072Y10039D01*
X12036Y10024D02*
X12057D01*
X12021Y10039D02*
X12036Y10024D01*
X12021Y10039D02*
Y10075D01*
Y10111D01*
X12006Y10126D02*
X12021Y10111D01*
X11986Y10126D02*
X12006D01*
X11970Y10111D02*
X11986Y10126D01*
X11970Y10090D02*
Y10111D01*
X11955Y10075D02*
X11970Y10090D01*
X11945Y10075D02*
X11955D01*
X14472Y10404D02*
Y10407D01*
D133*
X9218Y10300D02*
X10093D01*
X9062Y10145D02*
X9218Y10300D01*
X9062Y9922D02*
Y10145D01*
X8970Y9830D02*
X9062Y9922D01*
D138*
X22198Y13185D02*
D03*
X20195Y13200D02*
D03*
X9415Y10375D02*
D03*
X9312Y10395D02*
D03*
X19374Y12188D02*
D03*
X11095Y8807D02*
D03*
X11153Y8880D02*
D03*
X21375Y12155D02*
D03*
X19700Y10450D02*
D03*
X18965Y6760D02*
D03*
X19012Y6838D02*
D03*
X19035Y6920D02*
D03*
X19825Y10500D02*
D03*
X19190Y7745D02*
D03*
X19450Y7688D02*
D03*
X19523Y7632D02*
D03*
X21650Y8225D02*
D03*
X21675Y8300D02*
D03*
X21650Y8400D02*
D03*
X19950Y10450D02*
D03*
X10000Y10175D02*
D03*
X13480Y7362D02*
D03*
X10093Y10300D02*
D03*
X8970Y9830D02*
D03*
D140*
X11430Y9843D02*
D03*
X11090Y8490D02*
D03*
X11120Y8582D02*
D03*
X9422Y11188D02*
D03*
X10782Y10793D02*
D03*
X10618Y6400D02*
D03*
X9938Y11750D02*
D03*
X10285Y11395D02*
D03*
X11210Y8500D02*
D03*
X9940Y11672D02*
D03*
X9628Y10828D02*
D03*
X9645Y9597D02*
D03*
X10875Y6407D02*
D03*
X9603Y6640D02*
D03*
X10321Y8765D02*
D03*
X10228Y11343D02*
D03*
X11010Y10810D02*
D03*
X10630Y9628D02*
D03*
Y9700D02*
D03*
X10268Y11072D02*
D03*
X10375Y11280D02*
D03*
X10538Y11072D02*
D03*
X10597Y10838D02*
D03*
X10343Y11072D02*
D03*
X10705Y11080D02*
D03*
X10707Y10845D02*
D03*
X10295Y11322D02*
D03*
X13888Y11805D02*
D03*
X13965D02*
D03*
X14132Y11812D02*
D03*
X14370Y11482D02*
D03*
X14207Y11810D02*
D03*
X14265Y10680D02*
D03*
X14130Y10685D02*
D03*
X15255Y11460D02*
D03*
X15338D02*
D03*
X15172Y11466D02*
D03*
X15090Y11465D02*
D03*
X15407Y11457D02*
D03*
X14927Y11465D02*
D03*
X14838Y11375D02*
D03*
X14862Y10955D02*
D03*
X10888Y10845D02*
D03*
X15015Y11470D02*
D03*
X14606Y10668D02*
D03*
X11147Y9918D02*
D03*
M02*
