G04*
G04 #@! TF.GenerationSoftware,Altium Limited,Altium Designer,19.1.9 (167)*
G04*
G04 Layer_Physical_Order=4*
G04 Layer_Color=16737945*
%FSLAX42Y42*%
%MOMM*%
G71*
G01*
G75*
%ADD68C,1.52*%
%ADD128R,1.57X1.57*%
%ADD135R,1.55X1.55*%
%ADD136C,1.55*%
%ADD138C,0.45*%
%ADD139C,0.80*%
%ADD140C,0.40*%
G36*
X13000Y13502D02*
Y13295D01*
X13107Y13188D01*
X14130D01*
X14138Y13180D01*
X14140Y12394D01*
X14131Y12385D01*
X7420D01*
X7180Y12145D01*
Y10828D01*
X6953Y10600D01*
X6815Y10463D01*
X6815Y9755D01*
X7938Y8632D01*
X7938Y5780D01*
X8120Y5597D01*
X9310Y5597D01*
X9645Y5933D01*
X11130D01*
X11425Y5638D01*
X12201Y5638D01*
Y5620D01*
X12389D01*
Y5644D01*
X13060Y6315D01*
X13788Y6315D01*
X13977Y6125D01*
Y5483D01*
X6310D01*
X6305Y5478D01*
X5983Y5800D01*
Y9768D01*
Y13365D01*
X6160Y13543D01*
X7194D01*
X7202Y13533D01*
X7202Y13532D01*
X7205Y13518D01*
X7213Y13505D01*
X7225Y13497D01*
X7240Y13494D01*
X7255Y13497D01*
X7267Y13505D01*
X7275Y13518D01*
X7278Y13532D01*
X7278Y13533D01*
X7286Y13543D01*
X8644Y13543D01*
X8652Y13533D01*
X8652Y13530D01*
X8655Y13515D01*
X8663Y13503D01*
X8675Y13495D01*
X8690Y13492D01*
X8705Y13495D01*
X8717Y13503D01*
X8725Y13515D01*
X8728Y13530D01*
X8728Y13533D01*
X8736Y13543D01*
X12960Y13543D01*
X13000Y13502D01*
D02*
G37*
G36*
X23507Y13365D02*
Y13325D01*
X23495Y13322D01*
X23495Y13322D01*
X23482Y13330D01*
X23468Y13333D01*
X23453Y13330D01*
X23440Y13322D01*
X23432Y13310D01*
X23429Y13295D01*
X23432Y13280D01*
X23440Y13268D01*
X23453Y13260D01*
X23468Y13257D01*
X23482Y13260D01*
X23495Y13268D01*
X23495Y13268D01*
X23507Y13265D01*
Y5647D01*
X23312Y5453D01*
X16982D01*
X16760Y5675D01*
Y6812D01*
X16094Y7479D01*
X16096Y7494D01*
X16102Y7498D01*
X16110Y7510D01*
X16113Y7525D01*
X16110Y7540D01*
X16102Y7552D01*
X16090Y7560D01*
X16075Y7563D01*
X16060Y7560D01*
X16048Y7552D01*
X16044Y7546D01*
X16029Y7544D01*
X15475Y8097D01*
Y8645D01*
X15357Y8762D01*
X14778D01*
X14774Y8775D01*
X14790Y8785D01*
X14802Y8804D01*
X14806Y8825D01*
X14802Y8846D01*
X14790Y8865D01*
X14771Y8877D01*
X14750Y8881D01*
X14729Y8877D01*
X14710Y8865D01*
X14698Y8846D01*
X14694Y8825D01*
X14698Y8804D01*
X14710Y8785D01*
X14726Y8775D01*
X14722Y8762D01*
X14628D01*
X14624Y8775D01*
X14640Y8785D01*
X14652Y8804D01*
X14656Y8825D01*
X14652Y8846D01*
X14640Y8865D01*
X14621Y8877D01*
X14600Y8881D01*
X14579Y8877D01*
X14560Y8865D01*
X14548Y8846D01*
X14544Y8825D01*
X14548Y8804D01*
X14560Y8785D01*
X14576Y8775D01*
X14572Y8762D01*
X14478D01*
X14474Y8775D01*
X14490Y8785D01*
X14502Y8804D01*
X14506Y8825D01*
X14502Y8846D01*
X14490Y8865D01*
X14471Y8877D01*
X14450Y8881D01*
X14429Y8877D01*
X14410Y8865D01*
X14398Y8846D01*
X14394Y8825D01*
X14398Y8804D01*
X14410Y8785D01*
X14426Y8775D01*
X14422Y8762D01*
X14328D01*
X14324Y8775D01*
X14340Y8785D01*
X14352Y8804D01*
X14356Y8825D01*
X14352Y8846D01*
X14340Y8865D01*
X14321Y8877D01*
X14300Y8881D01*
X14279Y8877D01*
X14260Y8865D01*
X14248Y8846D01*
X14244Y8825D01*
X14248Y8804D01*
X14260Y8785D01*
X14276Y8775D01*
X14272Y8762D01*
X14190D01*
X14157Y8730D01*
X14150Y8731D01*
X14129Y8727D01*
X14110Y8715D01*
X14098Y8696D01*
X14094Y8675D01*
X14095Y8668D01*
X14000Y8572D01*
Y7656D01*
X13996Y7654D01*
X13987Y7641D01*
X13984Y7625D01*
X13987Y7609D01*
X13996Y7596D01*
X13997Y7592D01*
X13860Y7455D01*
X13846Y7459D01*
X13845Y7465D01*
X13837Y7477D01*
X13825Y7485D01*
X13810Y7488D01*
X13795Y7485D01*
X13783Y7477D01*
X13775Y7465D01*
X13772Y7450D01*
X13775Y7435D01*
X13783Y7423D01*
X13795Y7415D01*
X13801Y7414D01*
X13805Y7400D01*
X13755Y7350D01*
X13526D01*
X13518Y7360D01*
X13518Y7362D01*
X13515Y7377D01*
X13507Y7390D01*
X13495Y7398D01*
X13480Y7401D01*
X13465Y7398D01*
X13453Y7390D01*
X13445Y7377D01*
X13442Y7362D01*
X13442Y7360D01*
X13434Y7350D01*
X12670D01*
X12512Y7192D01*
X12496Y7202D01*
X12475Y7206D01*
X12454Y7202D01*
X12435Y7190D01*
X12423Y7171D01*
X12419Y7150D01*
X12423Y7129D01*
X12433Y7113D01*
X12172Y6853D01*
Y6668D01*
X11853Y6347D01*
X11097D01*
Y6315D01*
X10963Y6180D01*
X10949Y6184D01*
X10942Y6195D01*
X10930Y6203D01*
X10915Y6206D01*
X10900Y6203D01*
X10888Y6195D01*
X10880Y6182D01*
X10877Y6167D01*
X10880Y6153D01*
X10888Y6140D01*
X10898Y6134D01*
X10902Y6120D01*
X10803Y6020D01*
X9618D01*
X9211Y5614D01*
X8127Y5614D01*
X7954Y5787D01*
X7954Y8632D01*
X7949Y8644D01*
X6831Y9762D01*
X6831Y10456D01*
X6964Y10589D01*
X7191Y10816D01*
X7196Y10828D01*
Y12138D01*
X7427Y12369D01*
X14131D01*
X14131Y12369D01*
X14131Y12369D01*
X14137Y12371D01*
X14142Y12374D01*
X14142Y12374D01*
X14143Y12374D01*
X14151Y12383D01*
X14151Y12383D01*
X14151Y12383D01*
X14154Y12388D01*
X14156Y12394D01*
X14156Y12394D01*
X14156Y12394D01*
X14156Y12429D01*
X14165Y12438D01*
X15096D01*
X15098Y12429D01*
X15110Y12410D01*
X15129Y12398D01*
X15150Y12394D01*
X15171Y12398D01*
X15190Y12410D01*
X15202Y12429D01*
X15204Y12438D01*
X15246D01*
X15248Y12429D01*
X15260Y12410D01*
X15279Y12398D01*
X15300Y12394D01*
X15321Y12398D01*
X15340Y12410D01*
X15352Y12429D01*
X15354Y12438D01*
X15396D01*
X15398Y12429D01*
X15410Y12410D01*
X15429Y12398D01*
X15450Y12394D01*
X15471Y12398D01*
X15490Y12410D01*
X15502Y12429D01*
X15504Y12438D01*
X15546D01*
X15548Y12429D01*
X15560Y12410D01*
X15579Y12398D01*
X15600Y12394D01*
X15621Y12398D01*
X15640Y12410D01*
X15652Y12429D01*
X15654Y12438D01*
X15696D01*
X15698Y12429D01*
X15710Y12410D01*
X15729Y12398D01*
X15750Y12394D01*
X15771Y12398D01*
X15790Y12410D01*
X15802Y12429D01*
X15804Y12438D01*
X15846D01*
X15848Y12429D01*
X15860Y12410D01*
X15879Y12398D01*
X15900Y12394D01*
X15921Y12398D01*
X15940Y12410D01*
X15952Y12429D01*
X15954Y12438D01*
X15996D01*
X15998Y12429D01*
X16010Y12410D01*
X16029Y12398D01*
X16050Y12394D01*
X16071Y12398D01*
X16090Y12410D01*
X16102Y12429D01*
X16104Y12438D01*
X16146D01*
X16148Y12429D01*
X16160Y12410D01*
X16179Y12398D01*
X16200Y12394D01*
X16221Y12398D01*
X16240Y12410D01*
X16252Y12429D01*
X16254Y12438D01*
X16296D01*
X16298Y12429D01*
X16310Y12410D01*
X16329Y12398D01*
X16350Y12394D01*
X16371Y12398D01*
X16390Y12410D01*
X16402Y12429D01*
X16404Y12438D01*
X18030D01*
X19148Y13555D01*
X23318D01*
X23507Y13365D01*
D02*
G37*
G36*
X15143Y8635D02*
X15182Y8595D01*
X15182Y8228D01*
X15125Y8170D01*
X14748Y8170D01*
Y7547D01*
X14429Y7229D01*
X14420Y7230D01*
X14401Y7242D01*
X14380Y7246D01*
X14359Y7242D01*
X14340Y7230D01*
X14328Y7211D01*
X14324Y7190D01*
X14328Y7169D01*
X14340Y7150D01*
X14341Y7141D01*
X13885Y6685D01*
X12805Y6685D01*
X12389Y6269D01*
X12374Y6272D01*
X12362Y6288D01*
X12342Y6303D01*
X12319Y6313D01*
X12295Y6316D01*
X12271Y6313D01*
X12248Y6303D01*
X12228Y6288D01*
X12213Y6269D01*
X12204Y6246D01*
X12201Y6222D01*
X12204Y6197D01*
X12212Y6178D01*
X12206Y6165D01*
X11410D01*
X11350Y6225D01*
Y6300D01*
X11900Y6300D01*
X12750Y7150D01*
X13925Y7150D01*
X14230Y7455D01*
X14230Y8415D01*
X14785Y8415D01*
X14900Y8530D01*
X14900Y8615D01*
X14920Y8635D01*
X15143Y8635D01*
D02*
G37*
G36*
X15750Y6603D02*
Y6443D01*
X15655Y6347D01*
X13020D01*
X12400Y5728D01*
X12389Y5733D01*
Y5807D01*
X12201D01*
Y5678D01*
X11498D01*
X11115Y6060D01*
X11115Y6140D01*
X11150Y6175D01*
X11218D01*
X11505Y5888D01*
X11650D01*
X11653Y5886D01*
X11707D01*
X11710Y5888D01*
X12246D01*
X12248Y5886D01*
X12271Y5876D01*
X12295Y5873D01*
X12319Y5876D01*
X12342Y5886D01*
X12344Y5888D01*
X12425D01*
X12605Y6068D01*
X12617Y6062D01*
X12617Y6060D01*
X12620Y6045D01*
X12628Y6033D01*
X12640Y6025D01*
X12655Y6022D01*
X12670Y6025D01*
X12682Y6033D01*
X12690Y6045D01*
X12693Y6060D01*
X12690Y6075D01*
X12682Y6087D01*
X12670Y6095D01*
X12655Y6098D01*
X12653Y6098D01*
X12647Y6110D01*
X13077Y6540D01*
X14440D01*
X14823Y6922D01*
X15430D01*
X15750Y6603D01*
D02*
G37*
G36*
X16600Y6725D02*
X16600Y5675D01*
X16525Y5600D01*
X16012Y5600D01*
X16012Y6562D01*
X15173Y7403D01*
Y7448D01*
X14302Y6577D01*
X13035Y6578D01*
X12469Y5989D01*
X12387D01*
X12386Y5992D01*
X12377Y6015D01*
X12362Y6034D01*
X12342Y6049D01*
X12319Y6059D01*
X12295Y6062D01*
X12271Y6059D01*
X12248Y6049D01*
X12228Y6034D01*
X12213Y6015D01*
X12204Y5992D01*
X12203Y5989D01*
X11950D01*
Y6100D01*
X12326D01*
X12850Y6647D01*
X13998D01*
X14741Y7391D01*
X14748Y7390D01*
X14760Y7382D01*
X14775Y7379D01*
X14790Y7382D01*
X14802Y7390D01*
X14810Y7403D01*
X14813Y7418D01*
X14810Y7432D01*
X14802Y7445D01*
X14801Y7451D01*
X14943Y7593D01*
X14943D01*
X15075Y7725D01*
X15600Y7725D01*
X16600Y6725D01*
D02*
G37*
%LPC*%
G36*
X9455Y13323D02*
X9440Y13320D01*
X9428Y13312D01*
X9420Y13300D01*
X9417Y13285D01*
X9420Y13270D01*
X9428Y13258D01*
X9440Y13250D01*
X9455Y13247D01*
X9470Y13250D01*
X9482Y13258D01*
X9490Y13270D01*
X9493Y13285D01*
X9490Y13300D01*
X9482Y13312D01*
X9470Y13320D01*
X9455Y13323D01*
D02*
G37*
G36*
X9155Y13321D02*
X9140Y13318D01*
X9128Y13310D01*
X9120Y13297D01*
X9117Y13282D01*
X9120Y13268D01*
X9128Y13255D01*
X9140Y13247D01*
X9155Y13244D01*
X9170Y13247D01*
X9182Y13255D01*
X9190Y13268D01*
X9193Y13282D01*
X9190Y13297D01*
X9182Y13310D01*
X9170Y13318D01*
X9155Y13321D01*
D02*
G37*
G36*
X11375Y13231D02*
X11354Y13227D01*
X11335Y13215D01*
X11323Y13196D01*
X11319Y13175D01*
X11323Y13154D01*
X11335Y13135D01*
X11354Y13123D01*
X11375Y13119D01*
X11396Y13123D01*
X11415Y13135D01*
X11427Y13154D01*
X11431Y13175D01*
X11427Y13196D01*
X11415Y13215D01*
X11396Y13227D01*
X11375Y13231D01*
D02*
G37*
G36*
X8053Y13098D02*
X8038Y13095D01*
X8025Y13087D01*
X8017Y13075D01*
X8014Y13060D01*
X8017Y13045D01*
X8025Y13033D01*
X8038Y13025D01*
X8053Y13022D01*
X8067Y13025D01*
X8080Y13033D01*
X8088Y13045D01*
X8091Y13060D01*
X8088Y13075D01*
X8080Y13087D01*
X8067Y13095D01*
X8053Y13098D01*
D02*
G37*
G36*
X7862Y13096D02*
X7848Y13093D01*
X7835Y13085D01*
X7827Y13072D01*
X7824Y13057D01*
X7827Y13043D01*
X7835Y13030D01*
X7848Y13022D01*
X7862Y13019D01*
X7877Y13022D01*
X7890Y13030D01*
X7898Y13043D01*
X7901Y13057D01*
X7898Y13072D01*
X7890Y13085D01*
X7877Y13093D01*
X7862Y13096D01*
D02*
G37*
G36*
X7680D02*
X7665Y13093D01*
X7653Y13085D01*
X7645Y13072D01*
X7642Y13057D01*
X7645Y13043D01*
X7653Y13030D01*
X7665Y13022D01*
X7680Y13019D01*
X7695Y13022D01*
X7707Y13030D01*
X7715Y13043D01*
X7718Y13057D01*
X7715Y13072D01*
X7707Y13085D01*
X7695Y13093D01*
X7680Y13096D01*
D02*
G37*
G36*
X11225Y13131D02*
X11204Y13127D01*
X11185Y13115D01*
X11173Y13096D01*
X11169Y13075D01*
X11173Y13054D01*
X11185Y13035D01*
X11204Y13023D01*
X11225Y13019D01*
X11246Y13023D01*
X11265Y13035D01*
X11277Y13054D01*
X11281Y13075D01*
X11277Y13096D01*
X11265Y13115D01*
X11246Y13127D01*
X11225Y13131D01*
D02*
G37*
G36*
X11075D02*
X11054Y13127D01*
X11035Y13115D01*
X11023Y13096D01*
X11019Y13075D01*
X11023Y13054D01*
X11035Y13035D01*
X11054Y13023D01*
X11075Y13019D01*
X11096Y13023D01*
X11115Y13035D01*
X11127Y13054D01*
X11131Y13075D01*
X11127Y13096D01*
X11115Y13115D01*
X11096Y13127D01*
X11075Y13131D01*
D02*
G37*
G36*
X10925D02*
X10904Y13127D01*
X10885Y13115D01*
X10873Y13096D01*
X10869Y13075D01*
X10873Y13054D01*
X10885Y13035D01*
X10904Y13023D01*
X10925Y13019D01*
X10946Y13023D01*
X10965Y13035D01*
X10977Y13054D01*
X10981Y13075D01*
X10977Y13096D01*
X10965Y13115D01*
X10946Y13127D01*
X10925Y13131D01*
D02*
G37*
G36*
X10775D02*
X10754Y13127D01*
X10735Y13115D01*
X10723Y13096D01*
X10719Y13075D01*
X10723Y13054D01*
X10735Y13035D01*
X10754Y13023D01*
X10775Y13019D01*
X10796Y13023D01*
X10815Y13035D01*
X10827Y13054D01*
X10831Y13075D01*
X10827Y13096D01*
X10815Y13115D01*
X10796Y13127D01*
X10775Y13131D01*
D02*
G37*
G36*
X10625D02*
X10604Y13127D01*
X10585Y13115D01*
X10573Y13096D01*
X10569Y13075D01*
X10573Y13054D01*
X10585Y13035D01*
X10604Y13023D01*
X10625Y13019D01*
X10646Y13023D01*
X10665Y13035D01*
X10677Y13054D01*
X10681Y13075D01*
X10677Y13096D01*
X10665Y13115D01*
X10646Y13127D01*
X10625Y13131D01*
D02*
G37*
G36*
X8145Y12821D02*
X8130Y12818D01*
X8118Y12810D01*
X8110Y12797D01*
X8107Y12782D01*
X8110Y12768D01*
X8118Y12755D01*
X8130Y12747D01*
X8145Y12744D01*
X8160Y12747D01*
X8172Y12755D01*
X8180Y12768D01*
X8183Y12782D01*
X8180Y12797D01*
X8172Y12810D01*
X8160Y12818D01*
X8145Y12821D01*
D02*
G37*
G36*
X7868Y12818D02*
X7853Y12815D01*
X7840Y12807D01*
X7832Y12795D01*
X7829Y12780D01*
X7832Y12765D01*
X7840Y12753D01*
X7853Y12745D01*
X7868Y12742D01*
X7882Y12745D01*
X7895Y12753D01*
X7903Y12765D01*
X7906Y12780D01*
X7903Y12795D01*
X7895Y12807D01*
X7882Y12815D01*
X7868Y12818D01*
D02*
G37*
G36*
X7585Y12816D02*
X7570Y12813D01*
X7558Y12805D01*
X7550Y12792D01*
X7547Y12778D01*
X7550Y12763D01*
X7558Y12750D01*
X7570Y12742D01*
X7585Y12739D01*
X7600Y12742D01*
X7612Y12750D01*
X7620Y12763D01*
X7623Y12778D01*
X7620Y12792D01*
X7612Y12805D01*
X7600Y12813D01*
X7585Y12816D01*
D02*
G37*
G36*
X8055Y12538D02*
X8040Y12535D01*
X8028Y12527D01*
X8020Y12515D01*
X8017Y12500D01*
X8020Y12485D01*
X8028Y12473D01*
X8040Y12465D01*
X8055Y12462D01*
X8070Y12465D01*
X8082Y12473D01*
X8090Y12485D01*
X8093Y12500D01*
X8090Y12515D01*
X8082Y12527D01*
X8070Y12535D01*
X8055Y12538D01*
D02*
G37*
G36*
X7685D02*
X7670Y12535D01*
X7658Y12527D01*
X7650Y12515D01*
X7647Y12500D01*
X7650Y12485D01*
X7658Y12473D01*
X7670Y12465D01*
X7685Y12462D01*
X7700Y12465D01*
X7712Y12473D01*
X7720Y12485D01*
X7723Y12500D01*
X7720Y12515D01*
X7712Y12527D01*
X7700Y12535D01*
X7685Y12538D01*
D02*
G37*
G36*
X7865Y12536D02*
X7850Y12533D01*
X7838Y12525D01*
X7830Y12512D01*
X7827Y12497D01*
X7830Y12483D01*
X7838Y12470D01*
X7850Y12462D01*
X7865Y12459D01*
X7880Y12462D01*
X7892Y12470D01*
X7900Y12483D01*
X7903Y12497D01*
X7900Y12512D01*
X7892Y12525D01*
X7880Y12533D01*
X7865Y12536D01*
D02*
G37*
G36*
X6555Y11698D02*
X6540Y11695D01*
X6528Y11687D01*
X6520Y11675D01*
X6517Y11660D01*
X6520Y11645D01*
X6528Y11633D01*
X6540Y11625D01*
X6555Y11622D01*
X6570Y11625D01*
X6582Y11633D01*
X6590Y11645D01*
X6593Y11660D01*
X6590Y11675D01*
X6582Y11687D01*
X6570Y11695D01*
X6555Y11698D01*
D02*
G37*
G36*
X6140D02*
X6125Y11695D01*
X6113Y11687D01*
X6105Y11675D01*
X6102Y11660D01*
X6105Y11645D01*
X6113Y11633D01*
X6125Y11625D01*
X6140Y11622D01*
X6155Y11625D01*
X6167Y11633D01*
X6175Y11645D01*
X6178Y11660D01*
X6175Y11675D01*
X6167Y11687D01*
X6155Y11695D01*
X6140Y11698D01*
D02*
G37*
G36*
X6317Y11314D02*
X6294Y11309D01*
X6274Y11296D01*
X6261Y11276D01*
X6256Y11253D01*
X6261Y11229D01*
X6274Y11209D01*
X6294Y11196D01*
X6317Y11191D01*
X6341Y11196D01*
X6361Y11209D01*
X6374Y11229D01*
X6379Y11253D01*
X6374Y11276D01*
X6361Y11296D01*
X6341Y11309D01*
X6317Y11314D01*
D02*
G37*
G36*
X6745Y10913D02*
X6730Y10910D01*
X6718Y10902D01*
X6710Y10890D01*
X6707Y10875D01*
X6710Y10860D01*
X6718Y10848D01*
X6730Y10840D01*
X6745Y10837D01*
X6760Y10840D01*
X6772Y10848D01*
X6780Y10860D01*
X6783Y10875D01*
X6780Y10890D01*
X6772Y10902D01*
X6760Y10910D01*
X6745Y10913D01*
D02*
G37*
G36*
X6317Y10874D02*
X6294Y10869D01*
X6274Y10856D01*
X6261Y10836D01*
X6256Y10813D01*
X6261Y10789D01*
X6274Y10769D01*
X6294Y10756D01*
X6317Y10751D01*
X6341Y10756D01*
X6361Y10769D01*
X6374Y10789D01*
X6379Y10813D01*
X6374Y10836D01*
X6361Y10856D01*
X6341Y10869D01*
X6317Y10874D01*
D02*
G37*
G36*
X6555Y10451D02*
X6540Y10448D01*
X6528Y10440D01*
X6520Y10427D01*
X6517Y10412D01*
X6520Y10398D01*
X6528Y10385D01*
X6540Y10377D01*
X6555Y10374D01*
X6570Y10377D01*
X6582Y10385D01*
X6590Y10398D01*
X6593Y10412D01*
X6590Y10427D01*
X6582Y10440D01*
X6570Y10448D01*
X6555Y10451D01*
D02*
G37*
G36*
X6125Y10446D02*
X6110Y10443D01*
X6098Y10435D01*
X6090Y10422D01*
X6087Y10407D01*
X6090Y10393D01*
X6098Y10380D01*
X6110Y10372D01*
X6125Y10369D01*
X6140Y10372D01*
X6152Y10380D01*
X6160Y10393D01*
X6163Y10407D01*
X6160Y10422D01*
X6152Y10435D01*
X6140Y10443D01*
X6125Y10446D01*
D02*
G37*
G36*
X7300Y8306D02*
X7279Y8302D01*
X7260Y8290D01*
X7248Y8271D01*
X7244Y8250D01*
X7248Y8229D01*
X7260Y8210D01*
X7279Y8198D01*
X7300Y8194D01*
X7321Y8198D01*
X7340Y8210D01*
X7352Y8229D01*
X7356Y8250D01*
X7352Y8271D01*
X7340Y8290D01*
X7321Y8302D01*
X7300Y8306D01*
D02*
G37*
G36*
X7175D02*
X7154Y8302D01*
X7135Y8290D01*
X7123Y8271D01*
X7119Y8250D01*
X7123Y8229D01*
X7135Y8210D01*
X7154Y8198D01*
X7175Y8194D01*
X7196Y8198D01*
X7215Y8210D01*
X7227Y8229D01*
X7231Y8250D01*
X7227Y8271D01*
X7215Y8290D01*
X7196Y8302D01*
X7175Y8306D01*
D02*
G37*
G36*
X7050D02*
X7029Y8302D01*
X7010Y8290D01*
X6998Y8271D01*
X6994Y8250D01*
X6998Y8229D01*
X7010Y8210D01*
X7029Y8198D01*
X7050Y8194D01*
X7071Y8198D01*
X7090Y8210D01*
X7102Y8229D01*
X7106Y8250D01*
X7102Y8271D01*
X7090Y8290D01*
X7071Y8302D01*
X7050Y8306D01*
D02*
G37*
G36*
X7300Y8181D02*
X7279Y8177D01*
X7260Y8165D01*
X7248Y8146D01*
X7244Y8125D01*
X7248Y8104D01*
X7260Y8085D01*
X7279Y8073D01*
X7300Y8069D01*
X7321Y8073D01*
X7340Y8085D01*
X7352Y8104D01*
X7356Y8125D01*
X7352Y8146D01*
X7340Y8165D01*
X7321Y8177D01*
X7300Y8181D01*
D02*
G37*
G36*
X7175D02*
X7154Y8177D01*
X7135Y8165D01*
X7123Y8146D01*
X7119Y8125D01*
X7123Y8104D01*
X7135Y8085D01*
X7154Y8073D01*
X7175Y8069D01*
X7196Y8073D01*
X7215Y8085D01*
X7227Y8104D01*
X7231Y8125D01*
X7227Y8146D01*
X7215Y8165D01*
X7196Y8177D01*
X7175Y8181D01*
D02*
G37*
G36*
X7050D02*
X7029Y8177D01*
X7010Y8165D01*
X6998Y8146D01*
X6994Y8125D01*
X6998Y8104D01*
X7010Y8085D01*
X7029Y8073D01*
X7050Y8069D01*
X7071Y8073D01*
X7090Y8085D01*
X7102Y8104D01*
X7106Y8125D01*
X7102Y8146D01*
X7090Y8165D01*
X7071Y8177D01*
X7050Y8181D01*
D02*
G37*
G36*
X7300Y8056D02*
X7279Y8052D01*
X7260Y8040D01*
X7248Y8021D01*
X7244Y8000D01*
X7248Y7979D01*
X7260Y7960D01*
X7279Y7948D01*
X7300Y7944D01*
X7321Y7948D01*
X7340Y7960D01*
X7352Y7979D01*
X7356Y8000D01*
X7352Y8021D01*
X7340Y8040D01*
X7321Y8052D01*
X7300Y8056D01*
D02*
G37*
G36*
X7175D02*
X7154Y8052D01*
X7135Y8040D01*
X7123Y8021D01*
X7119Y8000D01*
X7123Y7979D01*
X7135Y7960D01*
X7154Y7948D01*
X7175Y7944D01*
X7196Y7948D01*
X7215Y7960D01*
X7227Y7979D01*
X7231Y8000D01*
X7227Y8021D01*
X7215Y8040D01*
X7196Y8052D01*
X7175Y8056D01*
D02*
G37*
G36*
X7050D02*
X7029Y8052D01*
X7010Y8040D01*
X6998Y8021D01*
X6994Y8000D01*
X6998Y7979D01*
X7010Y7960D01*
X7029Y7948D01*
X7050Y7944D01*
X7071Y7948D01*
X7090Y7960D01*
X7102Y7979D01*
X7106Y8000D01*
X7102Y8021D01*
X7090Y8040D01*
X7071Y8052D01*
X7050Y8056D01*
D02*
G37*
G36*
X7020Y7138D02*
X7005Y7135D01*
X6993Y7127D01*
X6985Y7115D01*
X6982Y7100D01*
X6985Y7085D01*
X6993Y7073D01*
X7005Y7065D01*
X7020Y7062D01*
X7035Y7065D01*
X7047Y7073D01*
X7055Y7085D01*
X7058Y7100D01*
X7055Y7115D01*
X7047Y7127D01*
X7035Y7135D01*
X7020Y7138D01*
D02*
G37*
G36*
X6930Y6571D02*
X6909Y6567D01*
X6890Y6555D01*
X6878Y6536D01*
X6874Y6515D01*
X6878Y6494D01*
X6890Y6475D01*
X6909Y6463D01*
X6930Y6459D01*
X6951Y6463D01*
X6970Y6475D01*
X6982Y6494D01*
X6986Y6515D01*
X6982Y6536D01*
X6970Y6555D01*
X6951Y6567D01*
X6930Y6571D01*
D02*
G37*
G36*
Y6446D02*
X6909Y6442D01*
X6890Y6430D01*
X6878Y6411D01*
X6874Y6390D01*
X6878Y6369D01*
X6890Y6350D01*
X6909Y6338D01*
X6930Y6334D01*
X6951Y6338D01*
X6970Y6350D01*
X6982Y6369D01*
X6986Y6390D01*
X6982Y6411D01*
X6970Y6430D01*
X6951Y6442D01*
X6930Y6446D01*
D02*
G37*
G36*
Y6321D02*
X6909Y6317D01*
X6890Y6305D01*
X6878Y6286D01*
X6874Y6265D01*
X6878Y6244D01*
X6890Y6225D01*
X6909Y6213D01*
X6930Y6209D01*
X6951Y6213D01*
X6970Y6225D01*
X6982Y6244D01*
X6986Y6265D01*
X6982Y6286D01*
X6970Y6305D01*
X6951Y6317D01*
X6930Y6321D01*
D02*
G37*
G36*
X20182Y13373D02*
X20168Y13370D01*
X20155Y13362D01*
X20147Y13350D01*
X20144Y13335D01*
X20147Y13320D01*
X20155Y13308D01*
X20168Y13300D01*
X20182Y13297D01*
X20197Y13300D01*
X20210Y13308D01*
X20218Y13320D01*
X20221Y13335D01*
X20218Y13350D01*
X20210Y13362D01*
X20197Y13370D01*
X20182Y13373D01*
D02*
G37*
G36*
X22152Y13366D02*
X22138Y13363D01*
X22125Y13355D01*
X22117Y13342D01*
X22114Y13327D01*
X22117Y13313D01*
X22125Y13300D01*
X22138Y13292D01*
X22152Y13289D01*
X22167Y13292D01*
X22180Y13300D01*
X22188Y13313D01*
X22191Y13327D01*
X22188Y13342D01*
X22180Y13355D01*
X22167Y13363D01*
X22152Y13366D01*
D02*
G37*
G36*
X20195Y13238D02*
X20180Y13235D01*
X20168Y13227D01*
X20160Y13215D01*
X20157Y13200D01*
X20160Y13185D01*
X20168Y13173D01*
X20180Y13165D01*
X20195Y13162D01*
X20210Y13165D01*
X20222Y13173D01*
X20230Y13185D01*
X20233Y13200D01*
X20230Y13215D01*
X20222Y13227D01*
X20210Y13235D01*
X20195Y13238D01*
D02*
G37*
G36*
X22198Y13223D02*
X22183Y13220D01*
X22170Y13212D01*
X22162Y13200D01*
X22159Y13185D01*
X22162Y13170D01*
X22170Y13158D01*
X22183Y13150D01*
X22198Y13147D01*
X22212Y13150D01*
X22225Y13158D01*
X22233Y13170D01*
X22236Y13185D01*
X22233Y13200D01*
X22225Y13212D01*
X22212Y13220D01*
X22198Y13223D01*
D02*
G37*
G36*
X20707Y13198D02*
X20692Y13195D01*
X20680Y13187D01*
X20672Y13175D01*
X20669Y13160D01*
X20672Y13145D01*
X20680Y13133D01*
X20692Y13125D01*
X20707Y13122D01*
X20722Y13125D01*
X20734Y13133D01*
X20742Y13145D01*
X20745Y13160D01*
X20742Y13175D01*
X20734Y13187D01*
X20722Y13195D01*
X20707Y13198D01*
D02*
G37*
G36*
X20583D02*
X20569Y13195D01*
X20556Y13187D01*
X20548Y13175D01*
X20545Y13160D01*
X20548Y13145D01*
X20556Y13133D01*
X20569Y13125D01*
X20583Y13122D01*
X20598Y13125D01*
X20610Y13133D01*
X20619Y13145D01*
X20622Y13160D01*
X20619Y13175D01*
X20610Y13187D01*
X20598Y13195D01*
X20583Y13198D01*
D02*
G37*
G36*
X20460D02*
X20445Y13195D01*
X20433Y13187D01*
X20425Y13175D01*
X20422Y13160D01*
X20425Y13145D01*
X20433Y13133D01*
X20445Y13125D01*
X20460Y13122D01*
X20475Y13125D01*
X20487Y13133D01*
X20495Y13145D01*
X20498Y13160D01*
X20495Y13175D01*
X20487Y13187D01*
X20475Y13195D01*
X20460Y13198D01*
D02*
G37*
G36*
X22719Y13168D02*
X22705Y13166D01*
X22692Y13157D01*
X22684Y13145D01*
X22681Y13130D01*
X22684Y13116D01*
X22692Y13103D01*
X22705Y13095D01*
X22719Y13092D01*
X22734Y13095D01*
X22746Y13103D01*
X22755Y13116D01*
X22758Y13130D01*
X22755Y13145D01*
X22746Y13157D01*
X22734Y13166D01*
X22719Y13168D01*
D02*
G37*
G36*
X22596D02*
X22581Y13166D01*
X22569Y13157D01*
X22561Y13145D01*
X22558Y13130D01*
X22561Y13116D01*
X22569Y13103D01*
X22581Y13095D01*
X22596Y13092D01*
X22610Y13095D01*
X22623Y13103D01*
X22631Y13116D01*
X22634Y13130D01*
X22631Y13145D01*
X22623Y13157D01*
X22610Y13166D01*
X22596Y13168D01*
D02*
G37*
G36*
X22472D02*
X22458Y13166D01*
X22445Y13157D01*
X22437Y13145D01*
X22434Y13130D01*
X22437Y13116D01*
X22445Y13103D01*
X22458Y13095D01*
X22472Y13092D01*
X22487Y13095D01*
X22499Y13103D01*
X22508Y13116D01*
X22511Y13130D01*
X22508Y13145D01*
X22499Y13157D01*
X22487Y13166D01*
X22472Y13168D01*
D02*
G37*
G36*
X19852Y13123D02*
X19838Y13120D01*
X19825Y13112D01*
X19817Y13100D01*
X19814Y13085D01*
X19817Y13070D01*
X19825Y13058D01*
X19838Y13050D01*
X19852Y13047D01*
X19867Y13050D01*
X19879Y13058D01*
X19888Y13070D01*
X19891Y13085D01*
X19888Y13100D01*
X19879Y13112D01*
X19867Y13120D01*
X19852Y13123D01*
D02*
G37*
G36*
X21835Y13118D02*
X21820Y13116D01*
X21808Y13107D01*
X21799Y13095D01*
X21796Y13080D01*
X21799Y13066D01*
X21808Y13053D01*
X21820Y13045D01*
X21835Y13042D01*
X21849Y13045D01*
X21862Y13053D01*
X21870Y13066D01*
X21873Y13080D01*
X21870Y13095D01*
X21862Y13107D01*
X21849Y13116D01*
X21835Y13118D01*
D02*
G37*
G36*
X20400Y12961D02*
X20385Y12958D01*
X20373Y12950D01*
X20364Y12937D01*
X20362Y12923D01*
X20364Y12908D01*
X20373Y12896D01*
X20385Y12887D01*
X20400Y12884D01*
X20414Y12887D01*
X20427Y12896D01*
X20435Y12908D01*
X20438Y12923D01*
X20435Y12937D01*
X20427Y12950D01*
X20414Y12958D01*
X20400Y12961D01*
D02*
G37*
G36*
X20750Y12953D02*
X20735Y12950D01*
X20723Y12942D01*
X20714Y12930D01*
X20712Y12915D01*
X20714Y12900D01*
X20723Y12888D01*
X20735Y12880D01*
X20750Y12877D01*
X20764Y12880D01*
X20777Y12888D01*
X20785Y12900D01*
X20788Y12915D01*
X20785Y12930D01*
X20777Y12942D01*
X20764Y12950D01*
X20750Y12953D01*
D02*
G37*
G36*
X22417Y12922D02*
X22402Y12919D01*
X22390Y12911D01*
X22382Y12899D01*
X22379Y12884D01*
X22382Y12869D01*
X22390Y12857D01*
X22402Y12849D01*
X22417Y12846D01*
X22432Y12849D01*
X22444Y12857D01*
X22452Y12869D01*
X22455Y12884D01*
X22452Y12899D01*
X22444Y12911D01*
X22432Y12919D01*
X22417Y12922D01*
D02*
G37*
G36*
X22772Y12898D02*
X22757Y12896D01*
X22745Y12887D01*
X22737Y12875D01*
X22734Y12860D01*
X22737Y12846D01*
X22745Y12833D01*
X22757Y12825D01*
X22772Y12822D01*
X22787Y12825D01*
X22799Y12833D01*
X22807Y12846D01*
X22810Y12860D01*
X22807Y12875D01*
X22799Y12887D01*
X22787Y12896D01*
X22772Y12898D01*
D02*
G37*
G36*
X20750Y12743D02*
X20735Y12740D01*
X20723Y12732D01*
X20714Y12720D01*
X20712Y12705D01*
X20714Y12690D01*
X20723Y12678D01*
X20735Y12670D01*
X20750Y12667D01*
X20764Y12670D01*
X20777Y12678D01*
X20785Y12690D01*
X20788Y12705D01*
X20785Y12720D01*
X20777Y12732D01*
X20764Y12740D01*
X20750Y12743D01*
D02*
G37*
G36*
X22772Y12677D02*
X22757Y12674D01*
X22745Y12666D01*
X22737Y12654D01*
X22734Y12639D01*
X22737Y12624D01*
X22745Y12612D01*
X22757Y12604D01*
X22772Y12601D01*
X22787Y12604D01*
X22799Y12612D01*
X22807Y12624D01*
X22810Y12639D01*
X22807Y12654D01*
X22799Y12666D01*
X22787Y12674D01*
X22772Y12677D01*
D02*
G37*
G36*
X23090Y12631D02*
X23075Y12628D01*
X23063Y12620D01*
X23055Y12607D01*
X23052Y12593D01*
X23055Y12578D01*
X23063Y12565D01*
X23075Y12557D01*
X23090Y12554D01*
X23105Y12557D01*
X23117Y12565D01*
X23125Y12578D01*
X23128Y12593D01*
X23125Y12607D01*
X23117Y12620D01*
X23105Y12628D01*
X23090Y12631D01*
D02*
G37*
G36*
X23157Y12558D02*
X23143Y12555D01*
X23130Y12547D01*
X23122Y12535D01*
X23119Y12520D01*
X23122Y12505D01*
X23130Y12493D01*
X23143Y12485D01*
X23157Y12482D01*
X23172Y12485D01*
X23185Y12493D01*
X23193Y12505D01*
X23196Y12520D01*
X23193Y12535D01*
X23185Y12547D01*
X23172Y12555D01*
X23157Y12558D01*
D02*
G37*
G36*
X20750Y12512D02*
X20735Y12509D01*
X20723Y12501D01*
X20714Y12488D01*
X20712Y12474D01*
X20714Y12459D01*
X20723Y12447D01*
X20735Y12439D01*
X20750Y12436D01*
X20764Y12439D01*
X20777Y12447D01*
X20785Y12459D01*
X20788Y12474D01*
X20785Y12488D01*
X20777Y12501D01*
X20764Y12509D01*
X20750Y12512D01*
D02*
G37*
G36*
X22770Y12446D02*
X22755Y12443D01*
X22743Y12435D01*
X22734Y12422D01*
X22731Y12408D01*
X22734Y12393D01*
X22743Y12381D01*
X22755Y12372D01*
X22770Y12369D01*
X22784Y12372D01*
X22797Y12381D01*
X22805Y12393D01*
X22808Y12408D01*
X22805Y12422D01*
X22797Y12435D01*
X22784Y12443D01*
X22770Y12446D01*
D02*
G37*
G36*
X18555Y12408D02*
X18540Y12405D01*
X18528Y12397D01*
X18520Y12385D01*
X18517Y12370D01*
X18520Y12355D01*
X18528Y12343D01*
X18540Y12335D01*
X18555Y12332D01*
X18570Y12335D01*
X18582Y12343D01*
X18590Y12355D01*
X18593Y12370D01*
X18590Y12385D01*
X18582Y12397D01*
X18570Y12405D01*
X18555Y12408D01*
D02*
G37*
G36*
X19530Y12396D02*
X19515Y12393D01*
X19503Y12385D01*
X19495Y12372D01*
X19492Y12357D01*
X19495Y12343D01*
X19503Y12330D01*
X19515Y12322D01*
X19530Y12319D01*
X19545Y12322D01*
X19557Y12330D01*
X19565Y12343D01*
X19568Y12357D01*
X19565Y12372D01*
X19557Y12385D01*
X19545Y12393D01*
X19530Y12396D01*
D02*
G37*
G36*
X21490Y12383D02*
X21475Y12380D01*
X21463Y12372D01*
X21455Y12360D01*
X21452Y12345D01*
X21455Y12330D01*
X21463Y12318D01*
X21475Y12310D01*
X21490Y12307D01*
X21505Y12310D01*
X21517Y12318D01*
X21525Y12330D01*
X21528Y12345D01*
X21525Y12360D01*
X21517Y12372D01*
X21505Y12380D01*
X21490Y12383D01*
D02*
G37*
G36*
X20352Y12373D02*
X20338Y12370D01*
X20325Y12362D01*
X20317Y12350D01*
X20314Y12335D01*
X20317Y12320D01*
X20325Y12308D01*
X20338Y12300D01*
X20352Y12297D01*
X20367Y12300D01*
X20379Y12308D01*
X20388Y12320D01*
X20391Y12335D01*
X20388Y12350D01*
X20379Y12362D01*
X20367Y12370D01*
X20352Y12373D01*
D02*
G37*
G36*
X22412Y12351D02*
X22397Y12348D01*
X22385Y12340D01*
X22377Y12327D01*
X22374Y12313D01*
X22377Y12298D01*
X22385Y12286D01*
X22397Y12277D01*
X22412Y12274D01*
X22427Y12277D01*
X22439Y12286D01*
X22447Y12298D01*
X22450Y12313D01*
X22447Y12327D01*
X22439Y12340D01*
X22427Y12348D01*
X22412Y12351D01*
D02*
G37*
G36*
X19440Y12311D02*
X19425Y12308D01*
X19413Y12300D01*
X19405Y12287D01*
X19402Y12272D01*
X19405Y12258D01*
X19413Y12245D01*
X19425Y12237D01*
X19440Y12234D01*
X19455Y12237D01*
X19467Y12245D01*
X19475Y12258D01*
X19478Y12272D01*
X19475Y12287D01*
X19467Y12300D01*
X19455Y12308D01*
X19440Y12311D01*
D02*
G37*
G36*
X19987Y12311D02*
X19972Y12308D01*
X19958Y12299D01*
X19950Y12286D01*
X19947Y12270D01*
X19950Y12254D01*
X19958Y12241D01*
X19972Y12232D01*
X19987Y12229D01*
X20003Y12232D01*
X20016Y12241D01*
X20025Y12254D01*
X20028Y12270D01*
X20025Y12286D01*
X20016Y12299D01*
X20003Y12308D01*
X19987Y12311D01*
D02*
G37*
G36*
X19877D02*
X19862Y12308D01*
X19848Y12299D01*
X19840Y12286D01*
X19837Y12270D01*
X19840Y12254D01*
X19848Y12241D01*
X19862Y12232D01*
X19877Y12229D01*
X19893Y12232D01*
X19906Y12241D01*
X19915Y12254D01*
X19918Y12270D01*
X19915Y12286D01*
X19906Y12299D01*
X19893Y12308D01*
X19877Y12311D01*
D02*
G37*
G36*
X19767D02*
X19752Y12308D01*
X19738Y12299D01*
X19730Y12286D01*
X19727Y12270D01*
X19730Y12254D01*
X19738Y12241D01*
X19752Y12232D01*
X19767Y12229D01*
X19783Y12232D01*
X19796Y12241D01*
X19805Y12254D01*
X19808Y12270D01*
X19805Y12286D01*
X19796Y12299D01*
X19783Y12308D01*
X19767Y12311D01*
D02*
G37*
G36*
X21967Y12296D02*
X21951Y12293D01*
X21938Y12284D01*
X21929Y12271D01*
X21926Y12255D01*
X21929Y12240D01*
X21938Y12226D01*
X21951Y12218D01*
X21967Y12214D01*
X21983Y12218D01*
X21996Y12226D01*
X22005Y12240D01*
X22008Y12255D01*
X22005Y12271D01*
X21996Y12284D01*
X21983Y12293D01*
X21967Y12296D01*
D02*
G37*
G36*
X21857D02*
X21841Y12293D01*
X21828Y12284D01*
X21819Y12271D01*
X21816Y12255D01*
X21819Y12240D01*
X21828Y12226D01*
X21841Y12218D01*
X21857Y12214D01*
X21873Y12218D01*
X21886Y12226D01*
X21895Y12240D01*
X21898Y12255D01*
X21895Y12271D01*
X21886Y12284D01*
X21873Y12293D01*
X21857Y12296D01*
D02*
G37*
G36*
X21747D02*
X21731Y12293D01*
X21718Y12284D01*
X21709Y12271D01*
X21706Y12255D01*
X21709Y12240D01*
X21718Y12226D01*
X21731Y12218D01*
X21747Y12214D01*
X21763Y12218D01*
X21776Y12226D01*
X21785Y12240D01*
X21788Y12255D01*
X21785Y12271D01*
X21776Y12284D01*
X21763Y12293D01*
X21747Y12296D01*
D02*
G37*
G36*
X16775Y12281D02*
X16760Y12278D01*
X16748Y12270D01*
X16740Y12257D01*
X16737Y12243D01*
X16740Y12228D01*
X16748Y12215D01*
X16760Y12207D01*
X16775Y12204D01*
X16790Y12207D01*
X16802Y12215D01*
X16810Y12228D01*
X16813Y12243D01*
X16810Y12257D01*
X16802Y12270D01*
X16790Y12278D01*
X16775Y12281D01*
D02*
G37*
G36*
X20273Y12256D02*
X20259Y12253D01*
X20246Y12245D01*
X20238Y12233D01*
X20235Y12218D01*
X20238Y12203D01*
X20246Y12191D01*
X20259Y12183D01*
X20273Y12180D01*
X20288Y12183D01*
X20301Y12191D01*
X20309Y12203D01*
X20312Y12218D01*
X20309Y12233D01*
X20301Y12245D01*
X20288Y12253D01*
X20273Y12256D01*
D02*
G37*
G36*
X19374Y12227D02*
X19359Y12224D01*
X19347Y12215D01*
X19339Y12203D01*
X19336Y12188D01*
X19339Y12174D01*
X19347Y12161D01*
X19359Y12153D01*
X19374Y12150D01*
X19389Y12153D01*
X19401Y12161D01*
X19409Y12174D01*
X19412Y12188D01*
X19409Y12203D01*
X19401Y12215D01*
X19389Y12224D01*
X19374Y12227D01*
D02*
G37*
G36*
X19987Y12201D02*
X19972Y12198D01*
X19958Y12189D01*
X19950Y12176D01*
X19947Y12160D01*
X19950Y12144D01*
X19958Y12131D01*
X19972Y12122D01*
X19987Y12119D01*
X20003Y12122D01*
X20016Y12131D01*
X20025Y12144D01*
X20028Y12160D01*
X20025Y12176D01*
X20016Y12189D01*
X20003Y12198D01*
X19987Y12201D01*
D02*
G37*
G36*
X19877D02*
X19862Y12198D01*
X19848Y12189D01*
X19840Y12176D01*
X19837Y12160D01*
X19840Y12144D01*
X19848Y12131D01*
X19862Y12122D01*
X19877Y12119D01*
X19893Y12122D01*
X19906Y12131D01*
X19915Y12144D01*
X19918Y12160D01*
X19915Y12176D01*
X19906Y12189D01*
X19893Y12198D01*
X19877Y12201D01*
D02*
G37*
G36*
X19767D02*
X19752Y12198D01*
X19738Y12189D01*
X19730Y12176D01*
X19727Y12160D01*
X19730Y12144D01*
X19738Y12131D01*
X19752Y12122D01*
X19767Y12119D01*
X19783Y12122D01*
X19796Y12131D01*
X19805Y12144D01*
X19808Y12160D01*
X19805Y12176D01*
X19796Y12189D01*
X19783Y12198D01*
X19767Y12201D01*
D02*
G37*
G36*
X21318Y12253D02*
X21303Y12250D01*
X21290Y12242D01*
X21282Y12230D01*
X21279Y12215D01*
X21282Y12200D01*
X21290Y12188D01*
X21303Y12180D01*
X21318Y12177D01*
X21331Y12179D01*
X21334Y12177D01*
X21337Y12173D01*
X21340Y12169D01*
X21337Y12155D01*
X21340Y12140D01*
X21348Y12128D01*
X21360Y12120D01*
X21375Y12117D01*
X21390Y12120D01*
X21402Y12128D01*
X21410Y12140D01*
X21413Y12155D01*
X21410Y12170D01*
X21402Y12182D01*
X21390Y12190D01*
X21375Y12193D01*
X21362Y12191D01*
X21358Y12193D01*
X21355Y12197D01*
X21353Y12201D01*
X21356Y12215D01*
X21353Y12230D01*
X21345Y12242D01*
X21332Y12250D01*
X21318Y12253D01*
D02*
G37*
G36*
X21967Y12186D02*
X21951Y12183D01*
X21938Y12174D01*
X21929Y12161D01*
X21926Y12145D01*
X21929Y12130D01*
X21938Y12116D01*
X21951Y12108D01*
X21967Y12104D01*
X21983Y12108D01*
X21996Y12116D01*
X22005Y12130D01*
X22008Y12145D01*
X22005Y12161D01*
X21996Y12174D01*
X21983Y12183D01*
X21967Y12186D01*
D02*
G37*
G36*
X21857D02*
X21841Y12183D01*
X21828Y12174D01*
X21819Y12161D01*
X21816Y12145D01*
X21819Y12130D01*
X21828Y12116D01*
X21841Y12108D01*
X21857Y12104D01*
X21873Y12108D01*
X21886Y12116D01*
X21895Y12130D01*
X21898Y12145D01*
X21895Y12161D01*
X21886Y12174D01*
X21873Y12183D01*
X21857Y12186D01*
D02*
G37*
G36*
X21747D02*
X21731Y12183D01*
X21718Y12174D01*
X21709Y12161D01*
X21706Y12145D01*
X21709Y12130D01*
X21718Y12116D01*
X21731Y12108D01*
X21747Y12104D01*
X21763Y12108D01*
X21776Y12116D01*
X21785Y12130D01*
X21788Y12145D01*
X21785Y12161D01*
X21776Y12174D01*
X21763Y12183D01*
X21747Y12186D01*
D02*
G37*
G36*
X22342Y12176D02*
X22327Y12173D01*
X22315Y12165D01*
X22307Y12152D01*
X22304Y12138D01*
X22307Y12123D01*
X22315Y12111D01*
X22327Y12102D01*
X22342Y12099D01*
X22357Y12102D01*
X22369Y12111D01*
X22377Y12123D01*
X22380Y12138D01*
X22377Y12152D01*
X22369Y12165D01*
X22357Y12173D01*
X22342Y12176D01*
D02*
G37*
G36*
X17825Y12206D02*
X17804Y12202D01*
X17785Y12190D01*
X17773Y12171D01*
X17769Y12150D01*
X17773Y12129D01*
X17785Y12110D01*
X17804Y12098D01*
X17825Y12094D01*
X17846Y12098D01*
X17865Y12110D01*
X17877Y12129D01*
X17881Y12150D01*
X17877Y12171D01*
X17865Y12190D01*
X17846Y12202D01*
X17825Y12206D01*
D02*
G37*
G36*
X17350D02*
X17329Y12202D01*
X17310Y12190D01*
X17298Y12171D01*
X17294Y12150D01*
X17298Y12129D01*
X17310Y12110D01*
X17329Y12098D01*
X17350Y12094D01*
X17371Y12098D01*
X17390Y12110D01*
X17402Y12129D01*
X17406Y12150D01*
X17402Y12171D01*
X17390Y12190D01*
X17371Y12202D01*
X17350Y12206D01*
D02*
G37*
G36*
X16450Y12181D02*
X16429Y12177D01*
X16410Y12165D01*
X16398Y12146D01*
X16394Y12125D01*
X16398Y12104D01*
X16410Y12085D01*
X16429Y12073D01*
X16450Y12069D01*
X16471Y12073D01*
X16490Y12085D01*
X16502Y12104D01*
X16506Y12125D01*
X16502Y12146D01*
X16490Y12165D01*
X16471Y12177D01*
X16450Y12181D01*
D02*
G37*
G36*
X18560Y12136D02*
X18545Y12133D01*
X18533Y12125D01*
X18525Y12112D01*
X18522Y12097D01*
X18525Y12083D01*
X18533Y12070D01*
X18545Y12062D01*
X18560Y12059D01*
X18575Y12062D01*
X18587Y12070D01*
X18595Y12083D01*
X18598Y12097D01*
X18595Y12112D01*
X18587Y12125D01*
X18575Y12133D01*
X18560Y12136D01*
D02*
G37*
G36*
X10053Y12113D02*
X10038Y12110D01*
X10025Y12102D01*
X10017Y12090D01*
X10014Y12075D01*
X10017Y12060D01*
X10025Y12048D01*
X10038Y12040D01*
X10053Y12037D01*
X10067Y12040D01*
X10080Y12048D01*
X10088Y12060D01*
X10091Y12075D01*
X10088Y12090D01*
X10080Y12102D01*
X10067Y12110D01*
X10053Y12113D01*
D02*
G37*
G36*
X19987Y12091D02*
X19972Y12088D01*
X19958Y12079D01*
X19950Y12066D01*
X19947Y12050D01*
X19950Y12034D01*
X19958Y12021D01*
X19972Y12012D01*
X19987Y12009D01*
X20003Y12012D01*
X20016Y12021D01*
X20025Y12034D01*
X20028Y12050D01*
X20025Y12066D01*
X20016Y12079D01*
X20003Y12088D01*
X19987Y12091D01*
D02*
G37*
G36*
X19877D02*
X19862Y12088D01*
X19848Y12079D01*
X19840Y12066D01*
X19837Y12050D01*
X19840Y12034D01*
X19848Y12021D01*
X19862Y12012D01*
X19877Y12009D01*
X19893Y12012D01*
X19906Y12021D01*
X19915Y12034D01*
X19918Y12050D01*
X19915Y12066D01*
X19906Y12079D01*
X19893Y12088D01*
X19877Y12091D01*
D02*
G37*
G36*
X19767D02*
X19752Y12088D01*
X19738Y12079D01*
X19730Y12066D01*
X19727Y12050D01*
X19730Y12034D01*
X19738Y12021D01*
X19752Y12012D01*
X19767Y12009D01*
X19783Y12012D01*
X19796Y12021D01*
X19805Y12034D01*
X19808Y12050D01*
X19805Y12066D01*
X19796Y12079D01*
X19783Y12088D01*
X19767Y12091D01*
D02*
G37*
G36*
X23315Y12086D02*
X23300Y12083D01*
X23288Y12075D01*
X23280Y12062D01*
X23277Y12047D01*
X23280Y12033D01*
X23288Y12020D01*
X23300Y12012D01*
X23315Y12009D01*
X23330Y12012D01*
X23342Y12020D01*
X23350Y12033D01*
X23353Y12047D01*
X23350Y12062D01*
X23342Y12075D01*
X23330Y12083D01*
X23315Y12086D01*
D02*
G37*
G36*
X21967Y12076D02*
X21951Y12073D01*
X21938Y12064D01*
X21929Y12051D01*
X21926Y12035D01*
X21929Y12020D01*
X21938Y12006D01*
X21951Y11998D01*
X21967Y11994D01*
X21983Y11998D01*
X21996Y12006D01*
X22005Y12020D01*
X22008Y12035D01*
X22005Y12051D01*
X21996Y12064D01*
X21983Y12073D01*
X21967Y12076D01*
D02*
G37*
G36*
X21857D02*
X21841Y12073D01*
X21828Y12064D01*
X21819Y12051D01*
X21816Y12035D01*
X21819Y12020D01*
X21828Y12006D01*
X21841Y11998D01*
X21857Y11994D01*
X21873Y11998D01*
X21886Y12006D01*
X21895Y12020D01*
X21898Y12035D01*
X21895Y12051D01*
X21886Y12064D01*
X21873Y12073D01*
X21857Y12076D01*
D02*
G37*
G36*
X21747D02*
X21731Y12073D01*
X21718Y12064D01*
X21709Y12051D01*
X21706Y12035D01*
X21709Y12020D01*
X21718Y12006D01*
X21731Y11998D01*
X21747Y11994D01*
X21763Y11998D01*
X21776Y12006D01*
X21785Y12020D01*
X21788Y12035D01*
X21785Y12051D01*
X21776Y12064D01*
X21763Y12073D01*
X21747Y12076D01*
D02*
G37*
G36*
X13612Y12051D02*
X13598Y12048D01*
X13585Y12040D01*
X13577Y12027D01*
X13574Y12012D01*
X13577Y11998D01*
X13585Y11985D01*
X13598Y11977D01*
X13612Y11974D01*
X13627Y11977D01*
X13640Y11985D01*
X13648Y11998D01*
X13651Y12012D01*
X13648Y12027D01*
X13640Y12040D01*
X13627Y12048D01*
X13612Y12051D01*
D02*
G37*
G36*
X14460Y12046D02*
X14445Y12043D01*
X14433Y12035D01*
X14425Y12022D01*
X14422Y12007D01*
X14425Y11993D01*
X14433Y11980D01*
X14445Y11972D01*
X14460Y11969D01*
X14475Y11972D01*
X14487Y11980D01*
X14495Y11993D01*
X14498Y12007D01*
X14495Y12022D01*
X14487Y12035D01*
X14475Y12043D01*
X14460Y12046D01*
D02*
G37*
G36*
X17825Y12056D02*
X17804Y12052D01*
X17785Y12040D01*
X17773Y12021D01*
X17769Y12000D01*
X17773Y11979D01*
X17785Y11960D01*
X17804Y11948D01*
X17825Y11944D01*
X17846Y11948D01*
X17865Y11960D01*
X17877Y11979D01*
X17881Y12000D01*
X17877Y12021D01*
X17865Y12040D01*
X17846Y12052D01*
X17825Y12056D01*
D02*
G37*
G36*
X17350D02*
X17329Y12052D01*
X17310Y12040D01*
X17298Y12021D01*
X17294Y12000D01*
X17298Y11979D01*
X17310Y11960D01*
X17329Y11948D01*
X17350Y11944D01*
X17371Y11948D01*
X17390Y11960D01*
X17402Y11979D01*
X17406Y12000D01*
X17402Y12021D01*
X17390Y12040D01*
X17371Y12052D01*
X17350Y12056D01*
D02*
G37*
G36*
X16450D02*
X16429Y12052D01*
X16410Y12040D01*
X16398Y12021D01*
X16394Y12000D01*
X16398Y11979D01*
X16410Y11960D01*
X16429Y11948D01*
X16450Y11944D01*
X16471Y11948D01*
X16490Y11960D01*
X16502Y11979D01*
X16506Y12000D01*
X16502Y12021D01*
X16490Y12040D01*
X16471Y12052D01*
X16450Y12056D01*
D02*
G37*
G36*
X7395Y11946D02*
X7380Y11943D01*
X7368Y11935D01*
X7360Y11922D01*
X7357Y11907D01*
X7360Y11893D01*
X7368Y11880D01*
X7380Y11872D01*
X7395Y11869D01*
X7410Y11872D01*
X7422Y11880D01*
X7430Y11893D01*
X7433Y11907D01*
X7430Y11922D01*
X7422Y11935D01*
X7410Y11943D01*
X7395Y11946D01*
D02*
G37*
G36*
X9812Y11928D02*
X9798Y11925D01*
X9785Y11917D01*
X9777Y11905D01*
X9774Y11890D01*
X9777Y11875D01*
X9785Y11863D01*
X9798Y11855D01*
X9812Y11852D01*
X9827Y11855D01*
X9840Y11863D01*
X9848Y11875D01*
X9851Y11890D01*
X9848Y11905D01*
X9840Y11917D01*
X9827Y11925D01*
X9812Y11928D01*
D02*
G37*
G36*
X16970Y11918D02*
X16955Y11915D01*
X16943Y11907D01*
X16935Y11895D01*
X16932Y11880D01*
X16935Y11865D01*
X16943Y11853D01*
X16955Y11845D01*
X16970Y11842D01*
X16985Y11845D01*
X16997Y11853D01*
X17005Y11865D01*
X17008Y11880D01*
X17005Y11895D01*
X16997Y11907D01*
X16985Y11915D01*
X16970Y11918D01*
D02*
G37*
G36*
X13965Y11841D02*
X13951Y11838D01*
X13940Y11830D01*
X13933Y11820D01*
X13926Y11819D01*
X13919Y11820D01*
X13913Y11830D01*
X13901Y11838D01*
X13888Y11841D01*
X13874Y11838D01*
X13862Y11830D01*
X13855Y11819D01*
X13852Y11805D01*
X13855Y11791D01*
X13862Y11780D01*
X13874Y11772D01*
X13888Y11769D01*
X13901Y11772D01*
X13913Y11780D01*
X13919Y11790D01*
X13926Y11791D01*
X13933Y11790D01*
X13940Y11780D01*
X13951Y11772D01*
X13965Y11769D01*
X13979Y11772D01*
X13990Y11780D01*
X13998Y11791D01*
X14001Y11805D01*
X13998Y11819D01*
X13990Y11830D01*
X13979Y11838D01*
X13965Y11841D01*
D02*
G37*
G36*
X16450Y11931D02*
X16429Y11927D01*
X16410Y11915D01*
X16398Y11896D01*
X16394Y11875D01*
X16398Y11854D01*
X16410Y11835D01*
X16429Y11823D01*
X16450Y11819D01*
X16471Y11823D01*
X16490Y11835D01*
X16502Y11854D01*
X16506Y11875D01*
X16502Y11896D01*
X16490Y11915D01*
X16471Y11927D01*
X16450Y11931D01*
D02*
G37*
G36*
X17825Y11906D02*
X17804Y11902D01*
X17785Y11890D01*
X17773Y11871D01*
X17769Y11850D01*
X17773Y11829D01*
X17785Y11810D01*
X17804Y11798D01*
X17825Y11794D01*
X17846Y11798D01*
X17865Y11810D01*
X17877Y11829D01*
X17881Y11850D01*
X17877Y11871D01*
X17865Y11890D01*
X17846Y11902D01*
X17825Y11906D01*
D02*
G37*
G36*
X17350D02*
X17329Y11902D01*
X17310Y11890D01*
X17298Y11871D01*
X17294Y11850D01*
X17298Y11829D01*
X17310Y11810D01*
X17329Y11798D01*
X17350Y11794D01*
X17371Y11798D01*
X17390Y11810D01*
X17402Y11829D01*
X17406Y11850D01*
X17402Y11871D01*
X17390Y11890D01*
X17371Y11902D01*
X17350Y11906D01*
D02*
G37*
G36*
X18555Y11858D02*
X18540Y11855D01*
X18528Y11847D01*
X18520Y11835D01*
X18517Y11820D01*
X18520Y11805D01*
X18528Y11793D01*
X18540Y11785D01*
X18555Y11782D01*
X18570Y11785D01*
X18582Y11793D01*
X18590Y11805D01*
X18593Y11820D01*
X18590Y11835D01*
X18582Y11847D01*
X18570Y11855D01*
X18555Y11858D01*
D02*
G37*
G36*
X14132Y11848D02*
X14119Y11845D01*
X14107Y11838D01*
X14100Y11826D01*
X14097Y11812D01*
X14100Y11799D01*
X14107Y11787D01*
X14119Y11780D01*
X14132Y11777D01*
X14146Y11780D01*
X14158Y11787D01*
X14162Y11794D01*
X14166Y11795D01*
X14176Y11794D01*
X14182Y11785D01*
X14194Y11777D01*
X14207Y11774D01*
X14221Y11777D01*
X14233Y11785D01*
X14240Y11796D01*
X14243Y11810D01*
X14240Y11824D01*
X14233Y11835D01*
X14221Y11843D01*
X14207Y11846D01*
X14194Y11843D01*
X14182Y11835D01*
X14178Y11829D01*
X14174Y11828D01*
X14164Y11829D01*
X14158Y11838D01*
X14146Y11845D01*
X14132Y11848D01*
D02*
G37*
G36*
X10722Y11831D02*
X10708Y11828D01*
X10695Y11820D01*
X10687Y11807D01*
X10684Y11793D01*
X10687Y11778D01*
X10695Y11765D01*
X10708Y11757D01*
X10722Y11754D01*
X10737Y11757D01*
X10750Y11765D01*
X10758Y11778D01*
X10761Y11793D01*
X10758Y11807D01*
X10750Y11820D01*
X10737Y11828D01*
X10722Y11831D01*
D02*
G37*
G36*
X16450Y11806D02*
X16429Y11802D01*
X16410Y11790D01*
X16398Y11771D01*
X16394Y11750D01*
X16398Y11729D01*
X16410Y11710D01*
X16429Y11698D01*
X16450Y11694D01*
X16471Y11698D01*
X16490Y11710D01*
X16502Y11729D01*
X16506Y11750D01*
X16502Y11771D01*
X16490Y11790D01*
X16471Y11802D01*
X16450Y11806D01*
D02*
G37*
G36*
X17825Y11756D02*
X17804Y11752D01*
X17785Y11740D01*
X17773Y11721D01*
X17769Y11700D01*
X17773Y11679D01*
X17785Y11660D01*
X17804Y11648D01*
X17825Y11644D01*
X17846Y11648D01*
X17865Y11660D01*
X17877Y11679D01*
X17881Y11700D01*
X17877Y11721D01*
X17865Y11740D01*
X17846Y11752D01*
X17825Y11756D01*
D02*
G37*
G36*
X17350D02*
X17329Y11752D01*
X17310Y11740D01*
X17298Y11721D01*
X17294Y11700D01*
X17298Y11679D01*
X17310Y11660D01*
X17329Y11648D01*
X17350Y11644D01*
X17371Y11648D01*
X17390Y11660D01*
X17402Y11679D01*
X17406Y11700D01*
X17402Y11721D01*
X17390Y11740D01*
X17371Y11752D01*
X17350Y11756D01*
D02*
G37*
G36*
X9938Y11786D02*
X9924Y11783D01*
X9912Y11775D01*
X9905Y11764D01*
X9902Y11750D01*
X9905Y11736D01*
X9912Y11725D01*
X9923Y11717D01*
X9924Y11714D01*
X9924Y11704D01*
X9915Y11698D01*
X9907Y11686D01*
X9904Y11672D01*
X9907Y11659D01*
X9915Y11647D01*
X9926Y11640D01*
X9940Y11637D01*
X9954Y11640D01*
X9965Y11647D01*
X9973Y11659D01*
X9976Y11672D01*
X9973Y11686D01*
X9965Y11698D01*
X9954Y11705D01*
X9953Y11709D01*
X9953Y11718D01*
X9963Y11725D01*
X9970Y11736D01*
X9973Y11750D01*
X9970Y11764D01*
X9963Y11775D01*
X9951Y11783D01*
X9938Y11786D01*
D02*
G37*
G36*
X10212Y11708D02*
X10198Y11705D01*
X10185Y11697D01*
X10177Y11685D01*
X10174Y11670D01*
X10177Y11655D01*
X10185Y11643D01*
X10198Y11635D01*
X10212Y11632D01*
X10227Y11635D01*
X10240Y11643D01*
X10248Y11655D01*
X10251Y11670D01*
X10248Y11685D01*
X10240Y11697D01*
X10227Y11705D01*
X10212Y11708D01*
D02*
G37*
G36*
X15852Y11683D02*
X15838Y11680D01*
X15825Y11672D01*
X15817Y11660D01*
X15814Y11645D01*
X15817Y11630D01*
X15825Y11618D01*
X15838Y11610D01*
X15852Y11607D01*
X15867Y11610D01*
X15880Y11618D01*
X15888Y11630D01*
X15891Y11645D01*
X15888Y11660D01*
X15880Y11672D01*
X15867Y11680D01*
X15852Y11683D01*
D02*
G37*
G36*
X10735Y11663D02*
X10721Y11660D01*
X10710Y11653D01*
X10702Y11641D01*
X10699Y11628D01*
X10702Y11614D01*
X10710Y11602D01*
X10721Y11595D01*
X10735Y11592D01*
X10749Y11595D01*
X10760Y11602D01*
X10768Y11614D01*
X10771Y11628D01*
X10768Y11641D01*
X10760Y11653D01*
X10749Y11660D01*
X10735Y11663D01*
D02*
G37*
G36*
X16900Y11681D02*
X16879Y11677D01*
X16860Y11665D01*
X16848Y11646D01*
X16844Y11625D01*
X16848Y11604D01*
X16860Y11585D01*
X16879Y11573D01*
X16900Y11569D01*
X16921Y11573D01*
X16940Y11585D01*
X16952Y11604D01*
X16956Y11625D01*
X16952Y11646D01*
X16940Y11665D01*
X16921Y11677D01*
X16900Y11681D01*
D02*
G37*
G36*
X16600D02*
X16579Y11677D01*
X16560Y11665D01*
X16548Y11646D01*
X16544Y11625D01*
X16548Y11604D01*
X16560Y11585D01*
X16579Y11573D01*
X16600Y11569D01*
X16621Y11573D01*
X16640Y11585D01*
X16652Y11604D01*
X16656Y11625D01*
X16652Y11646D01*
X16640Y11665D01*
X16621Y11677D01*
X16600Y11681D01*
D02*
G37*
G36*
X16450D02*
X16429Y11677D01*
X16410Y11665D01*
X16398Y11646D01*
X16394Y11625D01*
X16398Y11604D01*
X16410Y11585D01*
X16429Y11573D01*
X16450Y11569D01*
X16471Y11573D01*
X16490Y11585D01*
X16502Y11604D01*
X16506Y11625D01*
X16502Y11646D01*
X16490Y11665D01*
X16471Y11677D01*
X16450Y11681D01*
D02*
G37*
G36*
X9557Y11636D02*
X9543Y11633D01*
X9530Y11625D01*
X9522Y11612D01*
X9519Y11598D01*
X9522Y11583D01*
X9530Y11571D01*
X9543Y11562D01*
X9557Y11559D01*
X9572Y11562D01*
X9584Y11571D01*
X9593Y11583D01*
X9596Y11598D01*
X9593Y11612D01*
X9584Y11625D01*
X9572Y11633D01*
X9557Y11636D01*
D02*
G37*
G36*
X19102Y11586D02*
X19088Y11583D01*
X19075Y11575D01*
X19067Y11562D01*
X19064Y11548D01*
X19067Y11533D01*
X19075Y11521D01*
X19088Y11512D01*
X19102Y11509D01*
X19117Y11512D01*
X19129Y11521D01*
X19138Y11533D01*
X19141Y11548D01*
X19138Y11562D01*
X19129Y11575D01*
X19117Y11583D01*
X19102Y11586D01*
D02*
G37*
G36*
X17825Y11606D02*
X17804Y11602D01*
X17785Y11590D01*
X17773Y11571D01*
X17769Y11550D01*
X17773Y11529D01*
X17785Y11510D01*
X17804Y11498D01*
X17825Y11494D01*
X17846Y11498D01*
X17865Y11510D01*
X17877Y11529D01*
X17881Y11550D01*
X17877Y11571D01*
X17865Y11590D01*
X17846Y11602D01*
X17825Y11606D01*
D02*
G37*
G36*
X21145Y11567D02*
X21130Y11564D01*
X21118Y11556D01*
X21109Y11544D01*
X21106Y11529D01*
X21109Y11514D01*
X21118Y11502D01*
X21130Y11494D01*
X21145Y11491D01*
X21159Y11494D01*
X21172Y11502D01*
X21180Y11514D01*
X21183Y11529D01*
X21180Y11544D01*
X21172Y11556D01*
X21159Y11564D01*
X21145Y11567D01*
D02*
G37*
G36*
X14370Y11518D02*
X14356Y11515D01*
X14345Y11508D01*
X14337Y11496D01*
X14334Y11482D01*
X14337Y11469D01*
X14345Y11457D01*
X14356Y11450D01*
X14370Y11447D01*
X14384Y11450D01*
X14395Y11457D01*
X14403Y11469D01*
X14406Y11482D01*
X14403Y11496D01*
X14395Y11508D01*
X14384Y11515D01*
X14370Y11518D01*
D02*
G37*
G36*
X16760Y11511D02*
X16745Y11508D01*
X16733Y11500D01*
X16725Y11487D01*
X16722Y11472D01*
X16725Y11458D01*
X16733Y11445D01*
X16745Y11437D01*
X16760Y11434D01*
X16775Y11437D01*
X16787Y11445D01*
X16795Y11458D01*
X16798Y11472D01*
X16795Y11487D01*
X16787Y11500D01*
X16775Y11508D01*
X16760Y11511D01*
D02*
G37*
G36*
X14927Y11501D02*
X14914Y11498D01*
X14902Y11490D01*
X14895Y11479D01*
X14892Y11465D01*
X14895Y11451D01*
X14902Y11440D01*
X14914Y11432D01*
X14927Y11429D01*
X14941Y11432D01*
X14953Y11440D01*
X14960Y11451D01*
X14963Y11465D01*
X14960Y11479D01*
X14953Y11490D01*
X14941Y11498D01*
X14927Y11501D01*
D02*
G37*
G36*
X15015Y11506D02*
X15001Y11503D01*
X14990Y11495D01*
X14982Y11484D01*
X14979Y11470D01*
X14982Y11456D01*
X14990Y11445D01*
X15001Y11437D01*
X15015Y11434D01*
X15029Y11437D01*
X15040Y11445D01*
X15044Y11451D01*
X15049Y11451D01*
X15058Y11449D01*
X15065Y11440D01*
X15076Y11432D01*
X15090Y11429D01*
X15104Y11432D01*
X15115Y11440D01*
X15123Y11451D01*
X15124Y11459D01*
X15125Y11459D01*
X15137D01*
X15138Y11459D01*
X15139Y11452D01*
X15147Y11440D01*
X15158Y11433D01*
X15172Y11430D01*
X15186Y11433D01*
X15197Y11440D01*
X15205Y11452D01*
X15207Y11462D01*
X15219Y11460D01*
X15222Y11446D01*
X15230Y11435D01*
X15241Y11427D01*
X15255Y11424D01*
X15269Y11427D01*
X15280Y11435D01*
X15288Y11446D01*
X15289Y11452D01*
X15290Y11455D01*
X15303D01*
X15303Y11452D01*
X15305Y11446D01*
X15312Y11435D01*
X15324Y11427D01*
X15338Y11424D01*
X15351Y11427D01*
X15363Y11435D01*
X15364Y11437D01*
X15379D01*
X15382Y11432D01*
X15394Y11425D01*
X15407Y11422D01*
X15421Y11425D01*
X15433Y11432D01*
X15440Y11444D01*
X15443Y11457D01*
X15440Y11471D01*
X15433Y11483D01*
X15421Y11490D01*
X15407Y11493D01*
X15394Y11490D01*
X15382Y11483D01*
X15381Y11481D01*
X15366D01*
X15363Y11485D01*
X15351Y11493D01*
X15338Y11496D01*
X15324Y11493D01*
X15312Y11485D01*
X15305Y11474D01*
X15303Y11468D01*
X15303Y11465D01*
X15290D01*
X15289Y11468D01*
X15288Y11474D01*
X15280Y11485D01*
X15269Y11493D01*
X15255Y11496D01*
X15241Y11493D01*
X15230Y11485D01*
X15222Y11474D01*
X15220Y11463D01*
X15208Y11466D01*
X15205Y11479D01*
X15197Y11491D01*
X15186Y11499D01*
X15172Y11501D01*
X15158Y11499D01*
X15147Y11491D01*
X15139Y11479D01*
X15137Y11472D01*
X15137Y11471D01*
X15124D01*
X15124Y11472D01*
X15123Y11479D01*
X15115Y11490D01*
X15104Y11498D01*
X15090Y11501D01*
X15076Y11498D01*
X15065Y11490D01*
X15061Y11484D01*
X15056Y11484D01*
X15047Y11486D01*
X15040Y11495D01*
X15029Y11503D01*
X15015Y11506D01*
D02*
G37*
G36*
X11007Y11493D02*
X10993Y11490D01*
X10980Y11482D01*
X10972Y11470D01*
X10969Y11455D01*
X10972Y11440D01*
X10980Y11428D01*
X10993Y11420D01*
X11007Y11417D01*
X11022Y11420D01*
X11035Y11428D01*
X11043Y11440D01*
X11046Y11455D01*
X11043Y11470D01*
X11035Y11482D01*
X11022Y11490D01*
X11007Y11493D01*
D02*
G37*
G36*
X18989Y11468D02*
X18974Y11465D01*
X18962Y11457D01*
X18953Y11445D01*
X18950Y11430D01*
X18953Y11415D01*
X18962Y11403D01*
X18974Y11395D01*
X18989Y11392D01*
X19003Y11395D01*
X19016Y11403D01*
X19024Y11415D01*
X19027Y11430D01*
X19024Y11445D01*
X19016Y11457D01*
X19003Y11465D01*
X18989Y11468D01*
D02*
G37*
G36*
X10068Y11456D02*
X10054Y11453D01*
X10042Y11445D01*
X10035Y11434D01*
X10032Y11420D01*
X10035Y11406D01*
X10042Y11395D01*
X10054Y11387D01*
X10068Y11384D01*
X10081Y11387D01*
X10093Y11395D01*
X10100Y11406D01*
X10103Y11420D01*
X10100Y11434D01*
X10093Y11445D01*
X10081Y11453D01*
X10068Y11456D01*
D02*
G37*
G36*
X10132Y11516D02*
X10119Y11513D01*
X10107Y11505D01*
X10100Y11494D01*
X10097Y11480D01*
X10100Y11466D01*
X10107Y11455D01*
X10119Y11447D01*
X10129Y11445D01*
X10134Y11436D01*
X10135Y11432D01*
X10135Y11432D01*
X10132Y11418D01*
X10135Y11404D01*
X10143Y11393D01*
X10154Y11385D01*
X10168Y11382D01*
X10182Y11385D01*
X10193Y11393D01*
X10201Y11404D01*
X10204Y11418D01*
X10201Y11432D01*
X10193Y11443D01*
X10182Y11451D01*
X10172Y11453D01*
X10166Y11462D01*
X10165Y11466D01*
X10165Y11466D01*
X10168Y11480D01*
X10165Y11494D01*
X10158Y11505D01*
X10146Y11513D01*
X10132Y11516D01*
D02*
G37*
G36*
X13727Y11398D02*
X13714Y11395D01*
X13702Y11388D01*
X13697Y11380D01*
X13696Y11380D01*
X13684D01*
X13683Y11380D01*
X13678Y11388D01*
X13666Y11395D01*
X13652Y11398D01*
X13639Y11395D01*
X13627Y11388D01*
X13620Y11376D01*
X13617Y11362D01*
X13620Y11349D01*
X13627Y11337D01*
X13639Y11330D01*
X13652Y11327D01*
X13666Y11330D01*
X13678Y11337D01*
X13683Y11345D01*
X13684Y11345D01*
X13696D01*
X13697Y11345D01*
X13702Y11337D01*
X13714Y11330D01*
X13727Y11327D01*
X13741Y11330D01*
X13753Y11337D01*
X13760Y11349D01*
X13763Y11362D01*
X13760Y11376D01*
X13753Y11388D01*
X13741Y11395D01*
X13727Y11398D01*
D02*
G37*
G36*
X10285Y11431D02*
X10271Y11428D01*
X10260Y11420D01*
X10252Y11409D01*
X10249Y11395D01*
X10252Y11384D01*
X10246Y11378D01*
X10241Y11375D01*
X10241Y11375D01*
X10228Y11378D01*
X10214Y11375D01*
X10202Y11368D01*
X10195Y11356D01*
X10192Y11343D01*
X10195Y11329D01*
X10202Y11317D01*
X10214Y11310D01*
X10228Y11307D01*
X10241Y11310D01*
X10248Y11314D01*
X10261Y11310D01*
X10262Y11309D01*
X10262Y11309D01*
X10270Y11297D01*
X10281Y11290D01*
X10295Y11287D01*
X10309Y11290D01*
X10320Y11297D01*
X10328Y11309D01*
X10331Y11322D01*
X10328Y11336D01*
X10320Y11348D01*
X10310Y11354D01*
X10308Y11362D01*
X10308Y11368D01*
X10310Y11370D01*
X10318Y11381D01*
X10321Y11395D01*
X10318Y11409D01*
X10310Y11420D01*
X10299Y11428D01*
X10285Y11431D01*
D02*
G37*
G36*
X19320Y11441D02*
X19305Y11438D01*
X19293Y11430D01*
X19284Y11417D01*
X19282Y11403D01*
X19284Y11388D01*
X19293Y11376D01*
X19305Y11367D01*
X19320Y11364D01*
X19334Y11367D01*
X19347Y11376D01*
X19355Y11388D01*
X19358Y11403D01*
X19355Y11417D01*
X19347Y11430D01*
X19334Y11438D01*
X19320Y11441D01*
D02*
G37*
G36*
X7390Y11438D02*
X7375Y11435D01*
X7363Y11427D01*
X7355Y11415D01*
X7352Y11400D01*
X7355Y11385D01*
X7363Y11373D01*
X7375Y11365D01*
X7390Y11362D01*
X7405Y11365D01*
X7417Y11373D01*
X7425Y11385D01*
X7428Y11400D01*
X7425Y11415D01*
X7417Y11427D01*
X7405Y11435D01*
X7390Y11438D01*
D02*
G37*
G36*
X17825Y11456D02*
X17804Y11452D01*
X17785Y11440D01*
X17773Y11421D01*
X17769Y11400D01*
X17773Y11379D01*
X17785Y11360D01*
X17804Y11348D01*
X17825Y11344D01*
X17846Y11348D01*
X17865Y11360D01*
X17877Y11379D01*
X17881Y11400D01*
X17877Y11421D01*
X17865Y11440D01*
X17846Y11452D01*
X17825Y11456D01*
D02*
G37*
G36*
X17675D02*
X17654Y11452D01*
X17635Y11440D01*
X17623Y11421D01*
X17619Y11400D01*
X17623Y11379D01*
X17635Y11360D01*
X17654Y11348D01*
X17675Y11344D01*
X17696Y11348D01*
X17715Y11360D01*
X17727Y11379D01*
X17731Y11400D01*
X17727Y11421D01*
X17715Y11440D01*
X17696Y11452D01*
X17675Y11456D01*
D02*
G37*
G36*
X17525D02*
X17504Y11452D01*
X17485Y11440D01*
X17473Y11421D01*
X17469Y11400D01*
X17473Y11379D01*
X17485Y11360D01*
X17504Y11348D01*
X17525Y11344D01*
X17546Y11348D01*
X17565Y11360D01*
X17577Y11379D01*
X17581Y11400D01*
X17577Y11421D01*
X17565Y11440D01*
X17546Y11452D01*
X17525Y11456D01*
D02*
G37*
G36*
X14838Y11411D02*
X14824Y11408D01*
X14812Y11400D01*
X14805Y11389D01*
X14802Y11375D01*
X14805Y11361D01*
X14812Y11350D01*
X14824Y11342D01*
X14838Y11339D01*
X14851Y11342D01*
X14863Y11350D01*
X14870Y11361D01*
X14873Y11375D01*
X14870Y11389D01*
X14863Y11400D01*
X14851Y11408D01*
X14838Y11411D01*
D02*
G37*
G36*
X21027Y11403D02*
X21012Y11401D01*
X21000Y11392D01*
X20992Y11380D01*
X20989Y11365D01*
X20992Y11351D01*
X21000Y11338D01*
X21012Y11330D01*
X21027Y11327D01*
X21042Y11330D01*
X21054Y11338D01*
X21062Y11351D01*
X21065Y11365D01*
X21062Y11380D01*
X21054Y11392D01*
X21042Y11401D01*
X21027Y11403D01*
D02*
G37*
G36*
X13493Y11398D02*
X13479Y11395D01*
X13467Y11388D01*
X13460Y11376D01*
X13457Y11362D01*
X13460Y11349D01*
X13467Y11337D01*
X13479Y11330D01*
X13493Y11327D01*
X13506Y11330D01*
X13518Y11337D01*
X13525Y11349D01*
X13528Y11362D01*
X13525Y11376D01*
X13518Y11388D01*
X13506Y11395D01*
X13493Y11398D01*
D02*
G37*
G36*
X9988Y11386D02*
X9974Y11384D01*
X9963Y11376D01*
X9955Y11364D01*
X9952Y11351D01*
X9955Y11337D01*
X9963Y11325D01*
X9974Y11318D01*
X9988Y11315D01*
X10002Y11318D01*
X10013Y11325D01*
X10021Y11337D01*
X10024Y11351D01*
X10021Y11364D01*
X10013Y11376D01*
X10002Y11384D01*
X9988Y11386D01*
D02*
G37*
G36*
X20392Y11353D02*
X20378Y11350D01*
X20365Y11342D01*
X20357Y11330D01*
X20354Y11315D01*
X20357Y11300D01*
X20365Y11288D01*
X20378Y11280D01*
X20392Y11277D01*
X20407Y11280D01*
X20419Y11288D01*
X20428Y11300D01*
X20431Y11315D01*
X20428Y11330D01*
X20419Y11342D01*
X20407Y11350D01*
X20392Y11353D01*
D02*
G37*
G36*
X21382Y11348D02*
X21367Y11346D01*
X21355Y11337D01*
X21347Y11325D01*
X21344Y11310D01*
X21347Y11296D01*
X21355Y11283D01*
X21367Y11275D01*
X21382Y11272D01*
X21397Y11275D01*
X21409Y11283D01*
X21417Y11296D01*
X21420Y11310D01*
X21417Y11325D01*
X21409Y11337D01*
X21397Y11346D01*
X21382Y11348D01*
D02*
G37*
G36*
X11000Y11343D02*
X10987Y11340D01*
X10975Y11332D01*
X10967Y11321D01*
X10965Y11307D01*
X10967Y11294D01*
X10975Y11282D01*
X10987Y11274D01*
X11000Y11271D01*
X11014Y11274D01*
X11026Y11282D01*
X11033Y11294D01*
X11036Y11307D01*
X11033Y11321D01*
X11026Y11332D01*
X11014Y11340D01*
X11000Y11343D01*
D02*
G37*
G36*
X22347Y11338D02*
X22332Y11336D01*
X22320Y11327D01*
X22312Y11315D01*
X22309Y11300D01*
X22312Y11286D01*
X22320Y11273D01*
X22332Y11265D01*
X22347Y11262D01*
X22362Y11265D01*
X22374Y11273D01*
X22382Y11286D01*
X22385Y11300D01*
X22382Y11315D01*
X22374Y11327D01*
X22362Y11336D01*
X22347Y11338D01*
D02*
G37*
G36*
X14690Y11328D02*
X14676Y11325D01*
X14665Y11318D01*
X14657Y11306D01*
X14654Y11293D01*
X14657Y11279D01*
X14665Y11267D01*
X14676Y11260D01*
X14690Y11257D01*
X14704Y11260D01*
X14715Y11267D01*
X14723Y11279D01*
X14726Y11293D01*
X14723Y11306D01*
X14715Y11318D01*
X14704Y11325D01*
X14690Y11328D01*
D02*
G37*
G36*
X10375Y11316D02*
X10361Y11313D01*
X10350Y11305D01*
X10342Y11294D01*
X10339Y11280D01*
X10342Y11266D01*
X10350Y11255D01*
X10361Y11247D01*
X10375Y11244D01*
X10389Y11247D01*
X10400Y11255D01*
X10408Y11266D01*
X10411Y11280D01*
X10408Y11294D01*
X10400Y11305D01*
X10389Y11313D01*
X10375Y11316D01*
D02*
G37*
G36*
X9480Y11273D02*
X9465Y11270D01*
X9453Y11262D01*
X9445Y11250D01*
X9442Y11235D01*
X9443Y11231D01*
X9441Y11229D01*
X9432Y11221D01*
X9422Y11223D01*
X9409Y11220D01*
X9397Y11213D01*
X9390Y11201D01*
X9387Y11188D01*
X9390Y11174D01*
X9397Y11162D01*
X9409Y11155D01*
X9422Y11152D01*
X9436Y11155D01*
X9448Y11162D01*
X9455Y11174D01*
X9458Y11188D01*
X9458Y11189D01*
X9460Y11193D01*
X9469Y11199D01*
X9480Y11197D01*
X9495Y11200D01*
X9507Y11208D01*
X9515Y11220D01*
X9518Y11235D01*
X9515Y11250D01*
X9507Y11262D01*
X9495Y11270D01*
X9480Y11273D01*
D02*
G37*
G36*
X11088Y11266D02*
X11074Y11263D01*
X11062Y11255D01*
X11055Y11244D01*
X11052Y11230D01*
X11055Y11216D01*
X11062Y11205D01*
X11074Y11197D01*
X11088Y11194D01*
X11101Y11197D01*
X11113Y11205D01*
X11120Y11216D01*
X11123Y11230D01*
X11120Y11244D01*
X11113Y11255D01*
X11101Y11263D01*
X11088Y11266D01*
D02*
G37*
G36*
X17675Y11306D02*
X17654Y11302D01*
X17635Y11290D01*
X17623Y11271D01*
X17619Y11250D01*
X17623Y11229D01*
X17635Y11210D01*
X17654Y11198D01*
X17675Y11194D01*
X17696Y11198D01*
X17715Y11210D01*
X17727Y11229D01*
X17731Y11250D01*
X17727Y11271D01*
X17715Y11290D01*
X17696Y11302D01*
X17675Y11306D01*
D02*
G37*
G36*
X17525D02*
X17504Y11302D01*
X17485Y11290D01*
X17473Y11271D01*
X17469Y11250D01*
X17473Y11229D01*
X17485Y11210D01*
X17504Y11198D01*
X17525Y11194D01*
X17546Y11198D01*
X17565Y11210D01*
X17577Y11229D01*
X17581Y11250D01*
X17577Y11271D01*
X17565Y11290D01*
X17546Y11302D01*
X17525Y11306D01*
D02*
G37*
G36*
X17825Y11306D02*
X17804Y11302D01*
X17785Y11290D01*
X17773Y11271D01*
X17769Y11250D01*
X17773Y11229D01*
X17785Y11210D01*
X17804Y11198D01*
X17825Y11194D01*
X17846Y11198D01*
X17865Y11210D01*
X17877Y11229D01*
X17881Y11250D01*
X17877Y11271D01*
X17865Y11290D01*
X17846Y11302D01*
X17825Y11306D01*
D02*
G37*
G36*
X9172Y11233D02*
X9158Y11230D01*
X9145Y11222D01*
X9137Y11210D01*
X9134Y11195D01*
X9137Y11180D01*
X9145Y11168D01*
X9158Y11160D01*
X9172Y11157D01*
X9187Y11160D01*
X9200Y11168D01*
X9208Y11180D01*
X9211Y11195D01*
X9208Y11210D01*
X9200Y11222D01*
X9187Y11230D01*
X9172Y11233D01*
D02*
G37*
G36*
X10343Y11108D02*
X10329Y11105D01*
X10317Y11098D01*
X10312Y11090D01*
X10311Y11090D01*
X10299D01*
X10298Y11090D01*
X10293Y11098D01*
X10281Y11105D01*
X10268Y11108D01*
X10254Y11105D01*
X10242Y11098D01*
X10235Y11086D01*
X10232Y11072D01*
X10235Y11059D01*
X10242Y11047D01*
X10254Y11040D01*
X10268Y11037D01*
X10281Y11040D01*
X10293Y11047D01*
X10298Y11055D01*
X10299Y11055D01*
X10311D01*
X10312Y11055D01*
X10317Y11047D01*
X10329Y11040D01*
X10343Y11037D01*
X10356Y11040D01*
X10368Y11047D01*
X10375Y11059D01*
X10378Y11072D01*
X10375Y11086D01*
X10368Y11098D01*
X10356Y11105D01*
X10343Y11108D01*
D02*
G37*
G36*
X11370Y11153D02*
X11355Y11150D01*
X11343Y11142D01*
X11335Y11130D01*
X11332Y11115D01*
X11335Y11100D01*
X11343Y11088D01*
X11355Y11080D01*
X11370Y11077D01*
X11385Y11080D01*
X11397Y11088D01*
X11405Y11100D01*
X11408Y11115D01*
X11405Y11130D01*
X11397Y11142D01*
X11385Y11150D01*
X11370Y11153D01*
D02*
G37*
G36*
X20392Y11128D02*
X20378Y11125D01*
X20365Y11117D01*
X20357Y11105D01*
X20354Y11090D01*
X20357Y11075D01*
X20365Y11063D01*
X20378Y11055D01*
X20392Y11052D01*
X20407Y11055D01*
X20419Y11063D01*
X20428Y11075D01*
X20431Y11090D01*
X20428Y11105D01*
X20419Y11117D01*
X20407Y11125D01*
X20392Y11128D01*
D02*
G37*
G36*
X10705Y11116D02*
X10691Y11113D01*
X10680Y11105D01*
X10672Y11094D01*
X10669Y11080D01*
X10672Y11066D01*
X10680Y11055D01*
X10691Y11047D01*
X10705Y11044D01*
X10719Y11047D01*
X10730Y11055D01*
X10738Y11066D01*
X10741Y11080D01*
X10738Y11094D01*
X10730Y11105D01*
X10719Y11113D01*
X10705Y11116D01*
D02*
G37*
G36*
X17825Y11156D02*
X17804Y11152D01*
X17785Y11140D01*
X17773Y11121D01*
X17769Y11100D01*
X17773Y11079D01*
X17785Y11060D01*
X17804Y11048D01*
X17825Y11044D01*
X17846Y11048D01*
X17865Y11060D01*
X17877Y11079D01*
X17881Y11100D01*
X17877Y11121D01*
X17865Y11140D01*
X17846Y11152D01*
X17825Y11156D01*
D02*
G37*
G36*
X17675D02*
X17654Y11152D01*
X17635Y11140D01*
X17623Y11121D01*
X17619Y11100D01*
X17623Y11079D01*
X17635Y11060D01*
X17654Y11048D01*
X17675Y11044D01*
X17696Y11048D01*
X17715Y11060D01*
X17727Y11079D01*
X17731Y11100D01*
X17727Y11121D01*
X17715Y11140D01*
X17696Y11152D01*
X17675Y11156D01*
D02*
G37*
G36*
X17525D02*
X17504Y11152D01*
X17485Y11140D01*
X17473Y11121D01*
X17469Y11100D01*
X17473Y11079D01*
X17485Y11060D01*
X17504Y11048D01*
X17525Y11044D01*
X17546Y11048D01*
X17565Y11060D01*
X17577Y11079D01*
X17581Y11100D01*
X17577Y11121D01*
X17565Y11140D01*
X17546Y11152D01*
X17525Y11156D01*
D02*
G37*
G36*
X22347Y11113D02*
X22332Y11111D01*
X22320Y11102D01*
X22312Y11090D01*
X22309Y11075D01*
X22312Y11061D01*
X22320Y11048D01*
X22332Y11040D01*
X22347Y11037D01*
X22362Y11040D01*
X22374Y11048D01*
X22382Y11061D01*
X22385Y11075D01*
X22382Y11090D01*
X22374Y11102D01*
X22362Y11111D01*
X22347Y11113D01*
D02*
G37*
G36*
X10538Y11108D02*
X10524Y11105D01*
X10512Y11098D01*
X10505Y11086D01*
X10502Y11072D01*
X10505Y11059D01*
X10512Y11047D01*
X10524Y11040D01*
X10538Y11037D01*
X10551Y11040D01*
X10563Y11047D01*
X10570Y11059D01*
X10573Y11072D01*
X10570Y11086D01*
X10563Y11098D01*
X10551Y11105D01*
X10538Y11108D01*
D02*
G37*
G36*
X9768Y10988D02*
X9754Y10985D01*
X9742Y10978D01*
X9735Y10966D01*
X9732Y10953D01*
X9735Y10939D01*
X9739Y10932D01*
X9730Y10923D01*
X9726Y10925D01*
X9712Y10928D01*
X9699Y10925D01*
X9687Y10918D01*
X9680Y10906D01*
X9677Y10893D01*
X9680Y10879D01*
X9687Y10867D01*
X9699Y10860D01*
X9712Y10857D01*
X9726Y10860D01*
X9738Y10867D01*
X9745Y10879D01*
X9748Y10893D01*
X9745Y10906D01*
X9741Y10913D01*
X9750Y10922D01*
X9754Y10920D01*
X9768Y10917D01*
X9781Y10920D01*
X9793Y10927D01*
X9800Y10939D01*
X9803Y10953D01*
X9800Y10966D01*
X9793Y10978D01*
X9781Y10985D01*
X9768Y10988D01*
D02*
G37*
G36*
X14862Y10991D02*
X14849Y10988D01*
X14837Y10980D01*
X14830Y10969D01*
X14827Y10955D01*
X14830Y10941D01*
X14837Y10930D01*
X14849Y10922D01*
X14862Y10919D01*
X14876Y10922D01*
X14888Y10930D01*
X14895Y10941D01*
X14898Y10955D01*
X14895Y10969D01*
X14888Y10980D01*
X14876Y10988D01*
X14862Y10991D01*
D02*
G37*
G36*
X17825Y11006D02*
X17804Y11002D01*
X17785Y10990D01*
X17773Y10971D01*
X17769Y10950D01*
X17773Y10929D01*
X17785Y10910D01*
X17804Y10898D01*
X17825Y10894D01*
X17846Y10898D01*
X17865Y10910D01*
X17877Y10929D01*
X17881Y10950D01*
X17877Y10971D01*
X17865Y10990D01*
X17846Y11002D01*
X17825Y11006D01*
D02*
G37*
G36*
X17675D02*
X17654Y11002D01*
X17635Y10990D01*
X17623Y10971D01*
X17619Y10950D01*
X17623Y10929D01*
X17635Y10910D01*
X17654Y10898D01*
X17675Y10894D01*
X17696Y10898D01*
X17715Y10910D01*
X17727Y10929D01*
X17731Y10950D01*
X17727Y10971D01*
X17715Y10990D01*
X17696Y11002D01*
X17675Y11006D01*
D02*
G37*
G36*
X17525D02*
X17504Y11002D01*
X17485Y10990D01*
X17473Y10971D01*
X17469Y10950D01*
X17473Y10929D01*
X17485Y10910D01*
X17504Y10898D01*
X17525Y10894D01*
X17546Y10898D01*
X17565Y10910D01*
X17577Y10929D01*
X17581Y10950D01*
X17577Y10971D01*
X17565Y10990D01*
X17546Y11002D01*
X17525Y11006D01*
D02*
G37*
G36*
X9535Y10933D02*
X9521Y10930D01*
X9510Y10923D01*
X9502Y10911D01*
X9499Y10897D01*
X9502Y10884D01*
X9510Y10872D01*
X9521Y10865D01*
X9535Y10862D01*
X9549Y10865D01*
X9560Y10872D01*
X9568Y10884D01*
X9571Y10897D01*
X9568Y10911D01*
X9560Y10923D01*
X9549Y10930D01*
X9535Y10933D01*
D02*
G37*
G36*
X9830Y10931D02*
X9816Y10928D01*
X9805Y10920D01*
X9797Y10909D01*
X9794Y10895D01*
X9797Y10881D01*
X9805Y10870D01*
X9816Y10862D01*
X9830Y10859D01*
X9844Y10862D01*
X9855Y10870D01*
X9863Y10881D01*
X9866Y10895D01*
X9863Y10909D01*
X9855Y10920D01*
X9844Y10928D01*
X9830Y10931D01*
D02*
G37*
G36*
X14603Y10903D02*
X14590Y10900D01*
X14578Y10892D01*
X14570Y10881D01*
X14568Y10867D01*
X14570Y10854D01*
X14578Y10842D01*
X14590Y10834D01*
X14603Y10832D01*
X14617Y10834D01*
X14629Y10842D01*
X14636Y10854D01*
X14639Y10867D01*
X14636Y10881D01*
X14629Y10892D01*
X14617Y10900D01*
X14603Y10903D01*
D02*
G37*
G36*
X10888Y10881D02*
X10874Y10878D01*
X10862Y10870D01*
X10855Y10859D01*
X10852Y10845D01*
X10855Y10831D01*
X10862Y10820D01*
X10874Y10812D01*
X10888Y10809D01*
X10901Y10812D01*
X10913Y10820D01*
X10920Y10831D01*
X10923Y10845D01*
X10920Y10859D01*
X10913Y10870D01*
X10901Y10878D01*
X10888Y10881D01*
D02*
G37*
G36*
X10707D02*
X10694Y10878D01*
X10682Y10870D01*
X10675Y10859D01*
X10672Y10845D01*
X10675Y10831D01*
X10682Y10820D01*
X10694Y10812D01*
X10707Y10809D01*
X10721Y10812D01*
X10733Y10820D01*
X10740Y10831D01*
X10743Y10845D01*
X10740Y10859D01*
X10733Y10870D01*
X10721Y10878D01*
X10707Y10881D01*
D02*
G37*
G36*
X10597Y10873D02*
X10584Y10870D01*
X10572Y10863D01*
X10565Y10851D01*
X10562Y10838D01*
X10565Y10824D01*
X10572Y10812D01*
X10584Y10805D01*
X10597Y10802D01*
X10611Y10805D01*
X10623Y10812D01*
X10630Y10824D01*
X10633Y10838D01*
X10630Y10851D01*
X10623Y10863D01*
X10611Y10870D01*
X10597Y10873D01*
D02*
G37*
G36*
X9890Y10871D02*
X9876Y10868D01*
X9865Y10860D01*
X9857Y10849D01*
X9854Y10835D01*
X9857Y10821D01*
X9865Y10810D01*
X9876Y10802D01*
X9890Y10799D01*
X9904Y10802D01*
X9915Y10810D01*
X9923Y10821D01*
X9926Y10835D01*
X9923Y10849D01*
X9915Y10860D01*
X9904Y10868D01*
X9890Y10871D01*
D02*
G37*
G36*
X9628Y10864D02*
X9614Y10861D01*
X9603Y10853D01*
X9595Y10842D01*
X9592Y10828D01*
X9595Y10814D01*
X9603Y10803D01*
X9614Y10795D01*
X9628Y10792D01*
X9642Y10795D01*
X9653Y10803D01*
X9661Y10814D01*
X9664Y10828D01*
X9661Y10842D01*
X9653Y10853D01*
X9642Y10861D01*
X9628Y10864D01*
D02*
G37*
G36*
X9040Y10858D02*
X9025Y10855D01*
X9013Y10847D01*
X9005Y10835D01*
X9002Y10820D01*
X9005Y10805D01*
X9013Y10793D01*
X9025Y10785D01*
X9040Y10782D01*
X9055Y10785D01*
X9067Y10793D01*
X9075Y10805D01*
X9078Y10820D01*
X9075Y10835D01*
X9067Y10847D01*
X9055Y10855D01*
X9040Y10858D01*
D02*
G37*
G36*
X11010Y10846D02*
X10996Y10843D01*
X10985Y10835D01*
X10977Y10824D01*
X10974Y10810D01*
X10977Y10796D01*
X10985Y10785D01*
X10996Y10777D01*
X11010Y10774D01*
X11024Y10777D01*
X11035Y10785D01*
X11043Y10796D01*
X11046Y10810D01*
X11043Y10824D01*
X11035Y10835D01*
X11024Y10843D01*
X11010Y10846D01*
D02*
G37*
G36*
X17825Y10881D02*
X17804Y10877D01*
X17785Y10865D01*
X17773Y10846D01*
X17769Y10825D01*
X17773Y10804D01*
X17785Y10785D01*
X17804Y10773D01*
X17825Y10769D01*
X17846Y10773D01*
X17865Y10785D01*
X17877Y10804D01*
X17881Y10825D01*
X17877Y10846D01*
X17865Y10865D01*
X17846Y10877D01*
X17825Y10881D01*
D02*
G37*
G36*
X10782Y10828D02*
X10769Y10825D01*
X10757Y10818D01*
X10750Y10806D01*
X10747Y10793D01*
X10750Y10779D01*
X10757Y10767D01*
X10769Y10760D01*
X10782Y10757D01*
X10796Y10760D01*
X10808Y10767D01*
X10815Y10779D01*
X10818Y10793D01*
X10815Y10806D01*
X10808Y10818D01*
X10796Y10825D01*
X10782Y10828D01*
D02*
G37*
G36*
X17675Y10856D02*
X17654Y10852D01*
X17635Y10840D01*
X17623Y10821D01*
X17619Y10800D01*
X17623Y10779D01*
X17635Y10760D01*
X17654Y10748D01*
X17675Y10744D01*
X17696Y10748D01*
X17715Y10760D01*
X17727Y10779D01*
X17731Y10800D01*
X17727Y10821D01*
X17715Y10840D01*
X17696Y10852D01*
X17675Y10856D01*
D02*
G37*
G36*
X17525D02*
X17504Y10852D01*
X17485Y10840D01*
X17473Y10821D01*
X17469Y10800D01*
X17473Y10779D01*
X17485Y10760D01*
X17504Y10748D01*
X17525Y10744D01*
X17546Y10748D01*
X17565Y10760D01*
X17577Y10779D01*
X17581Y10800D01*
X17577Y10821D01*
X17565Y10840D01*
X17546Y10852D01*
X17525Y10856D01*
D02*
G37*
G36*
X11468Y10788D02*
X11454Y10785D01*
X11442Y10778D01*
X11435Y10766D01*
X11432Y10753D01*
X11435Y10739D01*
X11442Y10727D01*
X11454Y10720D01*
X11468Y10717D01*
X11481Y10720D01*
X11493Y10727D01*
X11500Y10739D01*
X11503Y10753D01*
X11500Y10766D01*
X11493Y10778D01*
X11481Y10785D01*
X11468Y10788D01*
D02*
G37*
G36*
X13493Y10783D02*
X13479Y10780D01*
X13467Y10773D01*
X13460Y10761D01*
X13457Y10747D01*
X13460Y10734D01*
X13467Y10722D01*
X13479Y10715D01*
X13493Y10712D01*
X13506Y10715D01*
X13518Y10722D01*
X13525Y10734D01*
X13528Y10747D01*
X13525Y10761D01*
X13518Y10773D01*
X13506Y10780D01*
X13493Y10783D01*
D02*
G37*
G36*
X9440Y10776D02*
X9426Y10773D01*
X9415Y10765D01*
X9407Y10754D01*
X9404Y10740D01*
X9407Y10726D01*
X9415Y10715D01*
X9426Y10707D01*
X9440Y10704D01*
X9454Y10707D01*
X9465Y10715D01*
X9473Y10726D01*
X9476Y10740D01*
X9473Y10754D01*
X9465Y10765D01*
X9454Y10773D01*
X9440Y10776D01*
D02*
G37*
G36*
X9347Y10763D02*
X9334Y10760D01*
X9322Y10753D01*
X9315Y10741D01*
X9312Y10728D01*
X9315Y10714D01*
X9322Y10702D01*
X9334Y10695D01*
X9347Y10692D01*
X9361Y10695D01*
X9373Y10702D01*
X9380Y10714D01*
X9383Y10728D01*
X9380Y10741D01*
X9373Y10753D01*
X9361Y10760D01*
X9347Y10763D01*
D02*
G37*
G36*
X8718Y10763D02*
X8703Y10760D01*
X8690Y10752D01*
X8682Y10740D01*
X8679Y10725D01*
X8682Y10710D01*
X8690Y10698D01*
X8703Y10690D01*
X8718Y10687D01*
X8732Y10690D01*
X8745Y10698D01*
X8753Y10710D01*
X8756Y10725D01*
X8753Y10740D01*
X8745Y10752D01*
X8732Y10760D01*
X8718Y10763D01*
D02*
G37*
G36*
X11026Y10745D02*
X11012Y10742D01*
X11000Y10735D01*
X10993Y10723D01*
X10990Y10709D01*
X10993Y10696D01*
X11000Y10684D01*
X11012Y10676D01*
X11026Y10674D01*
X11039Y10676D01*
X11051Y10684D01*
X11058Y10696D01*
X11061Y10709D01*
X11058Y10723D01*
X11051Y10735D01*
X11039Y10742D01*
X11026Y10745D01*
D02*
G37*
G36*
X21825Y10738D02*
X21810Y10735D01*
X21798Y10727D01*
X21790Y10715D01*
X21787Y10700D01*
X21790Y10685D01*
X21798Y10673D01*
X21810Y10665D01*
X21825Y10662D01*
X21840Y10665D01*
X21852Y10673D01*
X21860Y10685D01*
X21863Y10700D01*
X21860Y10715D01*
X21852Y10727D01*
X21840Y10735D01*
X21825Y10738D01*
D02*
G37*
G36*
X15843Y10731D02*
X15828Y10728D01*
X15815Y10720D01*
X15807Y10707D01*
X15804Y10693D01*
X15807Y10678D01*
X15815Y10665D01*
X15828Y10657D01*
X15843Y10654D01*
X15857Y10657D01*
X15870Y10665D01*
X15878Y10678D01*
X15881Y10693D01*
X15878Y10707D01*
X15870Y10720D01*
X15857Y10728D01*
X15843Y10731D01*
D02*
G37*
G36*
X14130Y10721D02*
X14116Y10718D01*
X14105Y10710D01*
X14097Y10699D01*
X14094Y10685D01*
X14097Y10671D01*
X14105Y10660D01*
X14116Y10652D01*
X14130Y10649D01*
X14144Y10652D01*
X14155Y10660D01*
X14163Y10671D01*
X14166Y10685D01*
X14163Y10699D01*
X14155Y10710D01*
X14144Y10718D01*
X14130Y10721D01*
D02*
G37*
G36*
X14932D02*
X14919Y10718D01*
X14907Y10710D01*
X14900Y10699D01*
X14897Y10685D01*
X14900Y10671D01*
X14907Y10660D01*
X14919Y10652D01*
X14932Y10649D01*
X14946Y10652D01*
X14958Y10660D01*
X14962Y10666D01*
X14966Y10667D01*
X14976Y10666D01*
X14982Y10657D01*
X14994Y10650D01*
X15007Y10647D01*
X15021Y10650D01*
X15033Y10657D01*
X15040Y10669D01*
X15043Y10682D01*
X15040Y10696D01*
X15033Y10708D01*
X15021Y10715D01*
X15007Y10718D01*
X14994Y10715D01*
X14982Y10708D01*
X14978Y10701D01*
X14974Y10700D01*
X14964Y10701D01*
X14958Y10710D01*
X14946Y10718D01*
X14932Y10721D01*
D02*
G37*
G36*
X14265Y10716D02*
X14251Y10713D01*
X14240Y10705D01*
X14232Y10694D01*
X14229Y10680D01*
X14232Y10666D01*
X14240Y10655D01*
X14251Y10647D01*
X14265Y10644D01*
X14279Y10647D01*
X14290Y10655D01*
X14298Y10666D01*
X14301Y10680D01*
X14298Y10694D01*
X14290Y10705D01*
X14279Y10713D01*
X14265Y10716D01*
D02*
G37*
G36*
X19825Y10713D02*
X19810Y10710D01*
X19798Y10702D01*
X19790Y10690D01*
X19787Y10675D01*
X19790Y10660D01*
X19798Y10648D01*
X19810Y10640D01*
X19825Y10637D01*
X19840Y10640D01*
X19852Y10648D01*
X19860Y10660D01*
X19863Y10675D01*
X19860Y10690D01*
X19852Y10702D01*
X19840Y10710D01*
X19825Y10713D01*
D02*
G37*
G36*
X14606Y10704D02*
X14592Y10701D01*
X14580Y10693D01*
X14573Y10682D01*
X14570Y10668D01*
X14573Y10654D01*
X14580Y10643D01*
X14592Y10635D01*
X14606Y10632D01*
X14619Y10635D01*
X14631Y10643D01*
X14639Y10654D01*
X14641Y10668D01*
X14639Y10682D01*
X14631Y10693D01*
X14619Y10701D01*
X14606Y10704D01*
D02*
G37*
G36*
X17825Y10731D02*
X17804Y10727D01*
X17785Y10715D01*
X17773Y10696D01*
X17769Y10675D01*
X17773Y10654D01*
X17785Y10635D01*
X17804Y10623D01*
X17825Y10619D01*
X17846Y10623D01*
X17865Y10635D01*
X17877Y10654D01*
X17881Y10675D01*
X17877Y10696D01*
X17865Y10715D01*
X17846Y10727D01*
X17825Y10731D01*
D02*
G37*
G36*
X17675Y10706D02*
X17654Y10702D01*
X17635Y10690D01*
X17623Y10671D01*
X17619Y10650D01*
X17623Y10629D01*
X17635Y10610D01*
X17654Y10598D01*
X17675Y10594D01*
X17696Y10598D01*
X17715Y10610D01*
X17727Y10629D01*
X17731Y10650D01*
X17727Y10671D01*
X17715Y10690D01*
X17696Y10702D01*
X17675Y10706D01*
D02*
G37*
G36*
X17525D02*
X17504Y10702D01*
X17485Y10690D01*
X17473Y10671D01*
X17469Y10650D01*
X17473Y10629D01*
X17485Y10610D01*
X17504Y10598D01*
X17525Y10594D01*
X17546Y10598D01*
X17565Y10610D01*
X17577Y10629D01*
X17581Y10650D01*
X17577Y10671D01*
X17565Y10690D01*
X17546Y10702D01*
X17525Y10706D01*
D02*
G37*
G36*
X11275Y10621D02*
X11260Y10618D01*
X11248Y10610D01*
X11240Y10597D01*
X11239Y10591D01*
X11229Y10590D01*
X11225Y10590D01*
X11218Y10601D01*
X11207Y10608D01*
X11193Y10611D01*
X11179Y10608D01*
X11168Y10601D01*
X11167Y10599D01*
X11153Y10598D01*
X11141Y10605D01*
X11128Y10608D01*
X11114Y10605D01*
X11102Y10598D01*
X11095Y10586D01*
X11094Y10585D01*
X11081D01*
X11080Y10589D01*
X11073Y10600D01*
X11061Y10608D01*
X11047Y10611D01*
X11034Y10608D01*
X11022Y10600D01*
X11015Y10589D01*
X11012Y10575D01*
X11015Y10561D01*
X11022Y10550D01*
X11034Y10542D01*
X11047Y10539D01*
X11061Y10542D01*
X11073Y10550D01*
X11080Y10561D01*
X11081Y10563D01*
X11094D01*
X11095Y10559D01*
X11102Y10547D01*
X11114Y10540D01*
X11128Y10537D01*
X11141Y10540D01*
X11153Y10547D01*
X11154Y10549D01*
X11168Y10550D01*
X11179Y10543D01*
X11193Y10540D01*
X11207Y10543D01*
X11218Y10550D01*
X11226Y10562D01*
X11227Y10567D01*
X11238Y10568D01*
X11240Y10567D01*
X11248Y10555D01*
X11260Y10547D01*
X11275Y10544D01*
X11290Y10547D01*
X11302Y10555D01*
X11310Y10568D01*
X11313Y10582D01*
X11310Y10597D01*
X11302Y10610D01*
X11290Y10618D01*
X11275Y10621D01*
D02*
G37*
G36*
X9197Y10648D02*
X9184Y10645D01*
X9172Y10638D01*
X9165Y10626D01*
X9162Y10612D01*
X9165Y10599D01*
X9172Y10587D01*
X9184Y10580D01*
X9197Y10577D01*
X9211Y10580D01*
X9223Y10587D01*
X9230Y10599D01*
X9233Y10612D01*
X9230Y10626D01*
X9223Y10638D01*
X9211Y10645D01*
X9197Y10648D01*
D02*
G37*
G36*
X11901Y10611D02*
X11886Y10608D01*
X11874Y10600D01*
X11865Y10588D01*
X11862Y10573D01*
X11865Y10558D01*
X11874Y10546D01*
X11886Y10538D01*
X11901Y10535D01*
X11915Y10538D01*
X11928Y10546D01*
X11936Y10558D01*
X11939Y10573D01*
X11936Y10588D01*
X11928Y10600D01*
X11915Y10608D01*
X11901Y10611D01*
D02*
G37*
G36*
X9182Y10543D02*
X9169Y10540D01*
X9157Y10533D01*
X9150Y10521D01*
X9147Y10507D01*
X9150Y10494D01*
X9157Y10482D01*
X9169Y10475D01*
X9182Y10472D01*
X9196Y10475D01*
X9208Y10482D01*
X9215Y10494D01*
X9218Y10507D01*
X9215Y10521D01*
X9208Y10533D01*
X9196Y10540D01*
X9182Y10543D01*
D02*
G37*
G36*
X17825Y10581D02*
X17804Y10577D01*
X17785Y10565D01*
X17773Y10546D01*
X17769Y10525D01*
X17773Y10504D01*
X17785Y10485D01*
X17804Y10473D01*
X17825Y10469D01*
X17846Y10473D01*
X17865Y10485D01*
X17877Y10504D01*
X17881Y10525D01*
X17877Y10546D01*
X17865Y10565D01*
X17846Y10577D01*
X17825Y10581D01*
D02*
G37*
G36*
X21825Y10538D02*
X21810Y10535D01*
X21798Y10527D01*
X21790Y10515D01*
X21787Y10500D01*
X21790Y10485D01*
X21798Y10473D01*
X21810Y10465D01*
X21825Y10462D01*
X21840Y10465D01*
X21852Y10473D01*
X21860Y10485D01*
X21863Y10500D01*
X21860Y10515D01*
X21852Y10527D01*
X21840Y10535D01*
X21825Y10538D01*
D02*
G37*
G36*
X19825D02*
X19810Y10535D01*
X19798Y10527D01*
X19790Y10515D01*
X19787Y10500D01*
X19790Y10485D01*
X19798Y10473D01*
X19810Y10465D01*
X19825Y10462D01*
X19840Y10465D01*
X19852Y10473D01*
X19860Y10485D01*
X19863Y10500D01*
X19860Y10515D01*
X19852Y10527D01*
X19840Y10535D01*
X19825Y10538D01*
D02*
G37*
G36*
X16697Y10534D02*
X16682Y10531D01*
X16670Y10523D01*
X16662Y10510D01*
X16659Y10496D01*
X16662Y10481D01*
X16670Y10469D01*
X16682Y10460D01*
X16697Y10457D01*
X16711Y10460D01*
X16724Y10469D01*
X16732Y10481D01*
X16735Y10496D01*
X16732Y10510D01*
X16724Y10523D01*
X16711Y10531D01*
X16697Y10534D01*
D02*
G37*
G36*
X17675Y10556D02*
X17654Y10552D01*
X17635Y10540D01*
X17623Y10521D01*
X17619Y10500D01*
X17623Y10479D01*
X17635Y10460D01*
X17654Y10448D01*
X17675Y10444D01*
X17696Y10448D01*
X17715Y10460D01*
X17727Y10479D01*
X17731Y10500D01*
X17727Y10521D01*
X17715Y10540D01*
X17696Y10552D01*
X17675Y10556D01*
D02*
G37*
G36*
X17525D02*
X17504Y10552D01*
X17485Y10540D01*
X17473Y10521D01*
X17469Y10500D01*
X17473Y10479D01*
X17485Y10460D01*
X17504Y10448D01*
X17525Y10444D01*
X17546Y10448D01*
X17565Y10460D01*
X17577Y10479D01*
X17581Y10500D01*
X17577Y10521D01*
X17565Y10540D01*
X17546Y10552D01*
X17525Y10556D01*
D02*
G37*
G36*
X21700Y10513D02*
X21685Y10510D01*
X21673Y10502D01*
X21665Y10490D01*
X21662Y10475D01*
X21665Y10460D01*
X21673Y10448D01*
X21685Y10440D01*
X21700Y10437D01*
X21715Y10440D01*
X21727Y10448D01*
X21735Y10460D01*
X21738Y10475D01*
X21735Y10490D01*
X21727Y10502D01*
X21715Y10510D01*
X21700Y10513D01*
D02*
G37*
G36*
X19950Y10488D02*
X19935Y10485D01*
X19923Y10477D01*
X19915Y10465D01*
X19912Y10450D01*
X19915Y10435D01*
X19923Y10423D01*
X19935Y10415D01*
X19950Y10412D01*
X19965Y10415D01*
X19977Y10423D01*
X19985Y10435D01*
X19988Y10450D01*
X19985Y10465D01*
X19977Y10477D01*
X19965Y10485D01*
X19950Y10488D01*
D02*
G37*
G36*
X19700D02*
X19685Y10485D01*
X19673Y10477D01*
X19665Y10465D01*
X19662Y10450D01*
X19665Y10435D01*
X19673Y10423D01*
X19685Y10415D01*
X19700Y10412D01*
X19715Y10415D01*
X19727Y10423D01*
X19735Y10435D01*
X19738Y10450D01*
X19735Y10465D01*
X19727Y10477D01*
X19715Y10485D01*
X19700Y10488D01*
D02*
G37*
G36*
X13730Y10416D02*
X13716Y10413D01*
X13705Y10405D01*
X13698Y10395D01*
X13691Y10394D01*
X13684Y10395D01*
X13678Y10405D01*
X13666Y10413D01*
X13652Y10416D01*
X13639Y10413D01*
X13627Y10405D01*
X13620Y10394D01*
X13617Y10380D01*
X13620Y10366D01*
X13627Y10355D01*
X13639Y10347D01*
X13652Y10344D01*
X13666Y10347D01*
X13678Y10355D01*
X13684Y10365D01*
X13691Y10366D01*
X13698Y10365D01*
X13705Y10355D01*
X13716Y10347D01*
X13730Y10344D01*
X13744Y10347D01*
X13755Y10355D01*
X13763Y10366D01*
X13766Y10380D01*
X13763Y10394D01*
X13755Y10405D01*
X13744Y10413D01*
X13730Y10416D01*
D02*
G37*
G36*
X13970Y10413D02*
X13956Y10410D01*
X13945Y10403D01*
X13937Y10391D01*
X13936Y10388D01*
X13924D01*
X13923Y10391D01*
X13915Y10403D01*
X13904Y10410D01*
X13890Y10413D01*
X13876Y10410D01*
X13865Y10403D01*
X13857Y10391D01*
X13854Y10378D01*
X13857Y10364D01*
X13865Y10352D01*
X13876Y10345D01*
X13890Y10342D01*
X13904Y10345D01*
X13915Y10352D01*
X13923Y10364D01*
X13924Y10367D01*
X13936D01*
X13937Y10364D01*
X13945Y10352D01*
X13956Y10345D01*
X13970Y10342D01*
X13984Y10345D01*
X13995Y10352D01*
X14003Y10364D01*
X14006Y10378D01*
X14003Y10391D01*
X13995Y10403D01*
X13984Y10410D01*
X13970Y10413D01*
D02*
G37*
G36*
X14088Y10441D02*
X14075Y10438D01*
X14063Y10431D01*
X14055Y10419D01*
X14053Y10406D01*
X14055Y10392D01*
X14063Y10380D01*
X14075Y10373D01*
X14088Y10370D01*
X14102Y10373D01*
X14113Y10380D01*
X14121Y10392D01*
X14124Y10406D01*
X14121Y10419D01*
X14113Y10431D01*
X14102Y10438D01*
X14088Y10441D01*
D02*
G37*
G36*
X23100Y10438D02*
X23085Y10435D01*
X23073Y10427D01*
X23065Y10415D01*
X23062Y10400D01*
X23065Y10385D01*
X23073Y10373D01*
X23085Y10365D01*
X23100Y10362D01*
X23115Y10365D01*
X23127Y10373D01*
X23135Y10385D01*
X23138Y10400D01*
X23135Y10415D01*
X23127Y10427D01*
X23115Y10435D01*
X23100Y10438D01*
D02*
G37*
G36*
X9312Y10433D02*
X9298Y10430D01*
X9285Y10422D01*
X9277Y10410D01*
X9274Y10395D01*
X9277Y10380D01*
X9285Y10368D01*
X9298Y10360D01*
X9312Y10357D01*
X9327Y10360D01*
X9340Y10368D01*
X9348Y10380D01*
X9351Y10395D01*
X9348Y10410D01*
X9340Y10422D01*
X9327Y10430D01*
X9312Y10433D01*
D02*
G37*
G36*
X14530Y10418D02*
X14516Y10415D01*
X14505Y10408D01*
X14497Y10396D01*
X14494Y10382D01*
X14497Y10369D01*
X14505Y10357D01*
X14516Y10350D01*
X14530Y10347D01*
X14544Y10350D01*
X14555Y10357D01*
X14563Y10369D01*
X14566Y10382D01*
X14563Y10396D01*
X14555Y10408D01*
X14544Y10415D01*
X14530Y10418D01*
D02*
G37*
G36*
X13490Y10413D02*
X13476Y10410D01*
X13465Y10403D01*
X13457Y10391D01*
X13454Y10378D01*
X13457Y10364D01*
X13465Y10352D01*
X13476Y10345D01*
X13490Y10342D01*
X13504Y10345D01*
X13515Y10352D01*
X13523Y10364D01*
X13526Y10378D01*
X13523Y10391D01*
X13515Y10403D01*
X13504Y10410D01*
X13490Y10413D01*
D02*
G37*
G36*
X9415Y10413D02*
X9400Y10410D01*
X9388Y10402D01*
X9380Y10390D01*
X9377Y10375D01*
X9380Y10360D01*
X9388Y10348D01*
X9400Y10340D01*
X9415Y10337D01*
X9430Y10340D01*
X9442Y10348D01*
X9450Y10360D01*
X9453Y10375D01*
X9450Y10390D01*
X9442Y10402D01*
X9430Y10410D01*
X9415Y10413D01*
D02*
G37*
G36*
X17825Y10431D02*
X17804Y10427D01*
X17785Y10415D01*
X17773Y10396D01*
X17769Y10375D01*
X17773Y10354D01*
X17785Y10335D01*
X17804Y10323D01*
X17825Y10319D01*
X17846Y10323D01*
X17865Y10335D01*
X17877Y10354D01*
X17881Y10375D01*
X17877Y10396D01*
X17865Y10415D01*
X17846Y10427D01*
X17825Y10431D01*
D02*
G37*
G36*
X14848Y10383D02*
X14834Y10380D01*
X14822Y10373D01*
X14815Y10361D01*
X14812Y10347D01*
X14815Y10334D01*
X14822Y10322D01*
X14834Y10315D01*
X14848Y10312D01*
X14861Y10315D01*
X14873Y10322D01*
X14880Y10334D01*
X14883Y10347D01*
X14880Y10361D01*
X14873Y10373D01*
X14861Y10380D01*
X14848Y10383D01*
D02*
G37*
G36*
X17675Y10406D02*
X17654Y10402D01*
X17635Y10390D01*
X17623Y10371D01*
X17619Y10350D01*
X17623Y10329D01*
X17635Y10310D01*
X17654Y10298D01*
X17675Y10294D01*
X17696Y10298D01*
X17715Y10310D01*
X17727Y10329D01*
X17731Y10350D01*
X17727Y10371D01*
X17715Y10390D01*
X17696Y10402D01*
X17675Y10406D01*
D02*
G37*
G36*
X21712Y10348D02*
X21697Y10345D01*
X21685Y10337D01*
X21676Y10325D01*
X21673Y10310D01*
X21676Y10295D01*
X21685Y10283D01*
X21697Y10275D01*
X21712Y10272D01*
X21726Y10275D01*
X21739Y10283D01*
X21747Y10295D01*
X21750Y10310D01*
X21747Y10325D01*
X21739Y10337D01*
X21726Y10345D01*
X21712Y10348D01*
D02*
G37*
G36*
X10093Y10338D02*
X10078Y10335D01*
X10065Y10327D01*
X10057Y10315D01*
X10054Y10300D01*
X10057Y10285D01*
X10065Y10273D01*
X10078Y10265D01*
X10093Y10262D01*
X10107Y10265D01*
X10120Y10273D01*
X10128Y10285D01*
X10131Y10300D01*
X10128Y10315D01*
X10120Y10327D01*
X10107Y10335D01*
X10093Y10338D01*
D02*
G37*
G36*
X14688Y10316D02*
X14674Y10313D01*
X14662Y10305D01*
X14655Y10294D01*
X14652Y10280D01*
X14655Y10266D01*
X14662Y10255D01*
X14674Y10247D01*
X14688Y10244D01*
X14701Y10247D01*
X14713Y10255D01*
X14720Y10266D01*
X14723Y10280D01*
X14720Y10294D01*
X14713Y10305D01*
X14701Y10313D01*
X14688Y10316D01*
D02*
G37*
G36*
X11130Y10295D02*
X11116Y10293D01*
X11105Y10285D01*
X11097Y10273D01*
X11094Y10260D01*
X11097Y10246D01*
X11105Y10235D01*
X11116Y10227D01*
X11130Y10224D01*
X11144Y10227D01*
X11155Y10235D01*
X11163Y10246D01*
X11166Y10260D01*
X11163Y10273D01*
X11155Y10285D01*
X11144Y10293D01*
X11130Y10295D01*
D02*
G37*
G36*
X10905Y10263D02*
X10891Y10260D01*
X10880Y10253D01*
X10872Y10241D01*
X10869Y10228D01*
X10872Y10214D01*
X10880Y10202D01*
X10891Y10195D01*
X10905Y10192D01*
X10919Y10195D01*
X10930Y10202D01*
X10938Y10214D01*
X10941Y10228D01*
X10938Y10241D01*
X10930Y10253D01*
X10919Y10260D01*
X10905Y10263D01*
D02*
G37*
G36*
X23200Y10263D02*
X23185Y10260D01*
X23173Y10252D01*
X23165Y10240D01*
X23162Y10225D01*
X23165Y10210D01*
X23173Y10198D01*
X23185Y10190D01*
X23200Y10187D01*
X23215Y10190D01*
X23227Y10198D01*
X23235Y10210D01*
X23238Y10225D01*
X23235Y10240D01*
X23227Y10252D01*
X23215Y10260D01*
X23200Y10263D01*
D02*
G37*
G36*
X23100D02*
X23085Y10260D01*
X23073Y10252D01*
X23065Y10240D01*
X23062Y10225D01*
X23065Y10210D01*
X23073Y10198D01*
X23085Y10190D01*
X23100Y10187D01*
X23115Y10190D01*
X23127Y10198D01*
X23135Y10210D01*
X23138Y10225D01*
X23135Y10240D01*
X23127Y10252D01*
X23115Y10260D01*
X23100Y10263D01*
D02*
G37*
G36*
X22975D02*
X22960Y10260D01*
X22948Y10252D01*
X22940Y10240D01*
X22937Y10225D01*
X22940Y10210D01*
X22948Y10198D01*
X22960Y10190D01*
X22975Y10187D01*
X22990Y10190D01*
X23002Y10198D01*
X23010Y10210D01*
X23013Y10225D01*
X23010Y10240D01*
X23002Y10252D01*
X22990Y10260D01*
X22975Y10263D01*
D02*
G37*
G36*
X17825Y10281D02*
X17804Y10277D01*
X17785Y10265D01*
X17773Y10246D01*
X17769Y10225D01*
X17773Y10204D01*
X17785Y10185D01*
X17804Y10173D01*
X17825Y10169D01*
X17846Y10173D01*
X17865Y10185D01*
X17877Y10204D01*
X17881Y10225D01*
X17877Y10246D01*
X17865Y10265D01*
X17846Y10277D01*
X17825Y10281D01*
D02*
G37*
G36*
X17675Y10256D02*
X17654Y10252D01*
X17635Y10240D01*
X17623Y10221D01*
X17619Y10200D01*
X17623Y10179D01*
X17635Y10160D01*
X17654Y10148D01*
X17675Y10144D01*
X17696Y10148D01*
X17715Y10160D01*
X17727Y10179D01*
X17731Y10200D01*
X17727Y10221D01*
X17715Y10240D01*
X17696Y10252D01*
X17675Y10256D01*
D02*
G37*
G36*
X10000Y10213D02*
X9985Y10210D01*
X9973Y10202D01*
X9965Y10190D01*
X9962Y10175D01*
X9965Y10160D01*
X9973Y10148D01*
X9985Y10140D01*
X10000Y10137D01*
X10015Y10140D01*
X10027Y10148D01*
X10035Y10160D01*
X10038Y10175D01*
X10035Y10190D01*
X10027Y10202D01*
X10015Y10210D01*
X10000Y10213D01*
D02*
G37*
G36*
X10845Y10203D02*
X10831Y10200D01*
X10820Y10193D01*
X10812Y10181D01*
X10809Y10168D01*
X10812Y10154D01*
X10820Y10142D01*
X10831Y10135D01*
X10845Y10132D01*
X10859Y10135D01*
X10870Y10142D01*
X10878Y10154D01*
X10881Y10168D01*
X10878Y10181D01*
X10870Y10193D01*
X10859Y10200D01*
X10845Y10203D01*
D02*
G37*
G36*
X7520Y10198D02*
X7505Y10195D01*
X7493Y10187D01*
X7485Y10175D01*
X7482Y10160D01*
X7485Y10145D01*
X7493Y10133D01*
X7505Y10125D01*
X7520Y10122D01*
X7535Y10125D01*
X7547Y10133D01*
X7555Y10145D01*
X7558Y10160D01*
X7555Y10175D01*
X7547Y10187D01*
X7535Y10195D01*
X7520Y10198D01*
D02*
G37*
G36*
X14335Y10193D02*
X14320Y10190D01*
X14308Y10182D01*
X14300Y10170D01*
X14297Y10155D01*
X14300Y10140D01*
X14308Y10128D01*
X14320Y10120D01*
X14335Y10117D01*
X14350Y10120D01*
X14362Y10128D01*
X14370Y10140D01*
X14373Y10155D01*
X14370Y10170D01*
X14362Y10182D01*
X14350Y10190D01*
X14335Y10193D01*
D02*
G37*
G36*
X14138D02*
X14123Y10190D01*
X14110Y10182D01*
X14102Y10170D01*
X14099Y10155D01*
X14102Y10140D01*
X14110Y10128D01*
X14123Y10120D01*
X14138Y10117D01*
X14152Y10120D01*
X14165Y10128D01*
X14173Y10140D01*
X14176Y10155D01*
X14173Y10170D01*
X14165Y10182D01*
X14152Y10190D01*
X14138Y10193D01*
D02*
G37*
G36*
X13770Y10191D02*
X13755Y10188D01*
X13743Y10180D01*
X13735Y10167D01*
X13732Y10153D01*
X13735Y10138D01*
X13743Y10125D01*
X13755Y10117D01*
X13770Y10114D01*
X13785Y10117D01*
X13797Y10125D01*
X13805Y10138D01*
X13808Y10153D01*
X13805Y10167D01*
X13797Y10180D01*
X13785Y10188D01*
X13770Y10191D01*
D02*
G37*
G36*
X23402Y10171D02*
X23388Y10168D01*
X23375Y10160D01*
X23367Y10147D01*
X23364Y10132D01*
X23367Y10118D01*
X23375Y10105D01*
X23388Y10097D01*
X23402Y10094D01*
X23417Y10097D01*
X23430Y10105D01*
X23438Y10118D01*
X23441Y10132D01*
X23438Y10147D01*
X23430Y10160D01*
X23417Y10168D01*
X23402Y10171D01*
D02*
G37*
G36*
X19388Y10108D02*
X19373Y10105D01*
X19360Y10097D01*
X19352Y10085D01*
X19349Y10070D01*
X19352Y10055D01*
X19360Y10043D01*
X19373Y10035D01*
X19388Y10032D01*
X19402Y10035D01*
X19415Y10043D01*
X19423Y10055D01*
X19426Y10070D01*
X19423Y10085D01*
X19415Y10097D01*
X19402Y10105D01*
X19388Y10108D01*
D02*
G37*
G36*
X19540Y10106D02*
X19525Y10103D01*
X19513Y10095D01*
X19505Y10082D01*
X19502Y10068D01*
X19505Y10053D01*
X19513Y10040D01*
X19525Y10032D01*
X19540Y10029D01*
X19555Y10032D01*
X19567Y10040D01*
X19575Y10053D01*
X19578Y10068D01*
X19575Y10082D01*
X19567Y10095D01*
X19555Y10103D01*
X19540Y10106D01*
D02*
G37*
G36*
X9147Y10133D02*
X9134Y10130D01*
X9122Y10123D01*
X9115Y10111D01*
X9112Y10097D01*
X9115Y10084D01*
X9122Y10072D01*
X9134Y10065D01*
X9147Y10062D01*
X9156Y10063D01*
X9161Y10057D01*
X9164Y10053D01*
X9162Y10040D01*
X9165Y10026D01*
X9172Y10015D01*
X9184Y10007D01*
X9197Y10004D01*
X9211Y10007D01*
X9223Y10015D01*
X9230Y10026D01*
X9233Y10040D01*
X9230Y10054D01*
X9223Y10065D01*
X9211Y10073D01*
X9197Y10076D01*
X9189Y10074D01*
X9184Y10080D01*
X9181Y10085D01*
X9183Y10097D01*
X9180Y10111D01*
X9173Y10123D01*
X9161Y10130D01*
X9147Y10133D01*
D02*
G37*
G36*
X14507Y10066D02*
X14494Y10063D01*
X14482Y10055D01*
X14475Y10044D01*
X14472Y10030D01*
X14475Y10016D01*
X14482Y10005D01*
X14494Y9997D01*
X14507Y9994D01*
X14521Y9997D01*
X14533Y10005D01*
X14540Y10016D01*
X14543Y10030D01*
X14540Y10044D01*
X14533Y10055D01*
X14521Y10063D01*
X14507Y10066D01*
D02*
G37*
G36*
X17825Y10106D02*
X17804Y10102D01*
X17785Y10090D01*
X17773Y10071D01*
X17769Y10050D01*
X17773Y10029D01*
X17785Y10010D01*
X17804Y9998D01*
X17825Y9994D01*
X17846Y9998D01*
X17865Y10010D01*
X17877Y10029D01*
X17881Y10050D01*
X17877Y10071D01*
X17865Y10090D01*
X17846Y10102D01*
X17825Y10106D01*
D02*
G37*
G36*
X17675D02*
X17654Y10102D01*
X17635Y10090D01*
X17623Y10071D01*
X17619Y10050D01*
X17623Y10029D01*
X17635Y10010D01*
X17654Y9998D01*
X17675Y9994D01*
X17696Y9998D01*
X17715Y10010D01*
X17727Y10029D01*
X17731Y10050D01*
X17727Y10071D01*
X17715Y10090D01*
X17696Y10102D01*
X17675Y10106D01*
D02*
G37*
G36*
X17525D02*
X17504Y10102D01*
X17485Y10090D01*
X17473Y10071D01*
X17469Y10050D01*
X17473Y10029D01*
X17485Y10010D01*
X17504Y9998D01*
X17525Y9994D01*
X17546Y9998D01*
X17565Y10010D01*
X17577Y10029D01*
X17581Y10050D01*
X17577Y10071D01*
X17565Y10090D01*
X17546Y10102D01*
X17525Y10106D01*
D02*
G37*
G36*
X9260Y10016D02*
X9246Y10013D01*
X9235Y10005D01*
X9227Y9994D01*
X9224Y9980D01*
X9227Y9966D01*
X9235Y9955D01*
X9246Y9947D01*
X9260Y9944D01*
X9274Y9947D01*
X9285Y9955D01*
X9293Y9966D01*
X9296Y9980D01*
X9293Y9994D01*
X9285Y10005D01*
X9274Y10013D01*
X9260Y10016D01*
D02*
G37*
G36*
X14431Y9976D02*
X14417Y9973D01*
X14405Y9966D01*
X14398Y9954D01*
X14395Y9940D01*
X14398Y9927D01*
X14403Y9919D01*
X14405Y9915D01*
X14398Y9905D01*
X14394Y9908D01*
X14380Y9911D01*
X14366Y9908D01*
X14355Y9900D01*
X14347Y9889D01*
X14344Y9875D01*
X14347Y9861D01*
X14355Y9850D01*
X14366Y9842D01*
X14380Y9839D01*
X14394Y9842D01*
X14405Y9850D01*
X14413Y9861D01*
X14416Y9875D01*
X14413Y9889D01*
X14407Y9897D01*
X14405Y9900D01*
X14412Y9911D01*
X14417Y9908D01*
X14431Y9905D01*
X14444Y9908D01*
X14456Y9915D01*
X14464Y9927D01*
X14466Y9940D01*
X14464Y9954D01*
X14456Y9966D01*
X14444Y9973D01*
X14431Y9976D01*
D02*
G37*
G36*
X21630Y9906D02*
X21615Y9903D01*
X21603Y9895D01*
X21596Y9885D01*
X21587Y9883D01*
X21582Y9883D01*
X21580Y9887D01*
X21567Y9895D01*
X21552Y9898D01*
X21538Y9895D01*
X21525Y9887D01*
X21517Y9875D01*
X21514Y9860D01*
X21517Y9845D01*
X21525Y9833D01*
X21538Y9825D01*
X21552Y9822D01*
X21567Y9825D01*
X21580Y9833D01*
X21586Y9843D01*
X21596Y9845D01*
X21601Y9844D01*
X21603Y9840D01*
X21615Y9832D01*
X21630Y9829D01*
X21645Y9832D01*
X21657Y9840D01*
X21665Y9853D01*
X21668Y9868D01*
X21665Y9882D01*
X21657Y9895D01*
X21645Y9903D01*
X21630Y9906D01*
D02*
G37*
G36*
X11147Y9953D02*
X11134Y9950D01*
X11122Y9943D01*
X11115Y9931D01*
X11112Y9918D01*
X11115Y9904D01*
X11122Y9892D01*
X11134Y9885D01*
X11147Y9882D01*
X11161Y9885D01*
X11173Y9892D01*
X11180Y9904D01*
X11183Y9918D01*
X11180Y9931D01*
X11173Y9943D01*
X11161Y9950D01*
X11147Y9953D01*
D02*
G37*
G36*
X11683Y9949D02*
X11668Y9946D01*
X11656Y9938D01*
X11648Y9925D01*
X11645Y9910D01*
X11648Y9896D01*
X11656Y9883D01*
X11668Y9875D01*
X11683Y9872D01*
X11698Y9875D01*
X11710Y9883D01*
X11718Y9896D01*
X11721Y9910D01*
X11718Y9925D01*
X11710Y9938D01*
X11698Y9946D01*
X11683Y9949D01*
D02*
G37*
G36*
X11430Y9878D02*
X11416Y9875D01*
X11405Y9868D01*
X11397Y9856D01*
X11394Y9843D01*
X11397Y9829D01*
X11405Y9817D01*
X11416Y9810D01*
X11430Y9807D01*
X11444Y9810D01*
X11455Y9817D01*
X11463Y9829D01*
X11466Y9843D01*
X11463Y9856D01*
X11455Y9868D01*
X11444Y9875D01*
X11430Y9878D01*
D02*
G37*
G36*
X16540Y9876D02*
X16525Y9873D01*
X16513Y9865D01*
X16505Y9852D01*
X16502Y9838D01*
X16505Y9823D01*
X16513Y9810D01*
X16525Y9802D01*
X16540Y9799D01*
X16555Y9802D01*
X16567Y9810D01*
X16575Y9823D01*
X16578Y9838D01*
X16575Y9852D01*
X16567Y9865D01*
X16555Y9873D01*
X16540Y9876D01*
D02*
G37*
G36*
X14303Y9866D02*
X14290Y9863D01*
X14278Y9856D01*
X14270Y9844D01*
X14268Y9830D01*
X14270Y9817D01*
X14278Y9805D01*
X14290Y9798D01*
X14303Y9795D01*
X14317Y9798D01*
X14328Y9805D01*
X14336Y9817D01*
X14339Y9830D01*
X14336Y9844D01*
X14328Y9856D01*
X14317Y9863D01*
X14303Y9866D01*
D02*
G37*
G36*
X11033Y9864D02*
X11019Y9861D01*
X11008Y9853D01*
X11000Y9842D01*
X10997Y9828D01*
X11000Y9814D01*
X11008Y9803D01*
X11019Y9795D01*
X11033Y9792D01*
X11047Y9795D01*
X11058Y9803D01*
X11066Y9814D01*
X11069Y9828D01*
X11066Y9842D01*
X11058Y9853D01*
X11047Y9861D01*
X11033Y9864D01*
D02*
G37*
G36*
X8970Y9868D02*
X8955Y9865D01*
X8943Y9857D01*
X8935Y9845D01*
X8932Y9830D01*
X8935Y9815D01*
X8943Y9803D01*
X8955Y9795D01*
X8970Y9792D01*
X8985Y9795D01*
X8997Y9803D01*
X9005Y9815D01*
X9008Y9830D01*
X9005Y9845D01*
X8997Y9857D01*
X8985Y9865D01*
X8970Y9868D01*
D02*
G37*
G36*
X20643Y9858D02*
X20628Y9855D01*
X20615Y9847D01*
X20607Y9835D01*
X20604Y9820D01*
X20607Y9805D01*
X20615Y9793D01*
X20628Y9785D01*
X20643Y9782D01*
X20657Y9785D01*
X20670Y9793D01*
X20678Y9805D01*
X20681Y9820D01*
X20678Y9835D01*
X20670Y9847D01*
X20657Y9855D01*
X20643Y9858D01*
D02*
G37*
G36*
X19323D02*
X19308Y9855D01*
X19295Y9847D01*
X19287Y9835D01*
X19284Y9820D01*
X19287Y9805D01*
X19295Y9793D01*
X19308Y9785D01*
X19323Y9782D01*
X19337Y9785D01*
X19350Y9793D01*
X19358Y9805D01*
X19361Y9820D01*
X19358Y9835D01*
X19350Y9847D01*
X19337Y9855D01*
X19323Y9858D01*
D02*
G37*
G36*
X9453Y9851D02*
X9439Y9848D01*
X9427Y9840D01*
X9420Y9829D01*
X9417Y9815D01*
X9420Y9801D01*
X9427Y9790D01*
X9439Y9782D01*
X9453Y9779D01*
X9466Y9782D01*
X9478Y9790D01*
X9485Y9801D01*
X9488Y9815D01*
X9485Y9829D01*
X9478Y9840D01*
X9466Y9848D01*
X9453Y9851D01*
D02*
G37*
G36*
X20060Y9856D02*
X20045Y9853D01*
X20033Y9845D01*
X20025Y9832D01*
X20022Y9818D01*
X20025Y9803D01*
X20033Y9790D01*
X20045Y9782D01*
X20060Y9779D01*
X20075Y9782D01*
X20087Y9790D01*
X20095Y9803D01*
X20098Y9818D01*
X20095Y9832D01*
X20087Y9845D01*
X20075Y9853D01*
X20060Y9856D01*
D02*
G37*
G36*
X19888D02*
X19873Y9853D01*
X19860Y9845D01*
X19852Y9832D01*
X19849Y9818D01*
X19852Y9803D01*
X19860Y9790D01*
X19873Y9782D01*
X19888Y9779D01*
X19902Y9782D01*
X19915Y9790D01*
X19923Y9803D01*
X19926Y9818D01*
X19923Y9832D01*
X19915Y9845D01*
X19902Y9853D01*
X19888Y9856D01*
D02*
G37*
G36*
X19140Y9851D02*
X19125Y9848D01*
X19113Y9840D01*
X19105Y9827D01*
X19102Y9812D01*
X19105Y9798D01*
X19113Y9785D01*
X19125Y9777D01*
X19140Y9774D01*
X19155Y9777D01*
X19167Y9785D01*
X19175Y9798D01*
X19178Y9812D01*
X19175Y9827D01*
X19167Y9840D01*
X19155Y9848D01*
X19140Y9851D01*
D02*
G37*
G36*
X11833Y9828D02*
X11818Y9826D01*
X11806Y9817D01*
X11797Y9805D01*
X11794Y9790D01*
X11797Y9776D01*
X11806Y9763D01*
X11818Y9755D01*
X11833Y9752D01*
X11847Y9755D01*
X11860Y9763D01*
X11868Y9776D01*
X11871Y9790D01*
X11868Y9805D01*
X11860Y9817D01*
X11847Y9826D01*
X11833Y9828D01*
D02*
G37*
G36*
X11995Y9798D02*
X11981Y9795D01*
X11970Y9788D01*
X11962Y9776D01*
X11959Y9762D01*
X11962Y9749D01*
X11970Y9737D01*
X11981Y9730D01*
X11995Y9727D01*
X12009Y9730D01*
X12020Y9737D01*
X12028Y9749D01*
X12031Y9762D01*
X12028Y9776D01*
X12020Y9788D01*
X12009Y9795D01*
X11995Y9798D01*
D02*
G37*
G36*
X13010Y9771D02*
X12995Y9768D01*
X12983Y9760D01*
X12975Y9747D01*
X12972Y9732D01*
X12975Y9718D01*
X12983Y9705D01*
X12995Y9697D01*
X13010Y9694D01*
X13025Y9697D01*
X13037Y9705D01*
X13045Y9718D01*
X13048Y9732D01*
X13045Y9747D01*
X13037Y9760D01*
X13025Y9768D01*
X13010Y9771D01*
D02*
G37*
G36*
X9755Y9748D02*
X9741Y9745D01*
X9730Y9738D01*
X9722Y9726D01*
X9719Y9712D01*
X9722Y9699D01*
X9730Y9687D01*
X9741Y9680D01*
X9755Y9677D01*
X9769Y9680D01*
X9780Y9687D01*
X9788Y9699D01*
X9791Y9712D01*
X9788Y9726D01*
X9780Y9738D01*
X9769Y9745D01*
X9755Y9748D01*
D02*
G37*
G36*
X12110Y9743D02*
X12096Y9740D01*
X12085Y9733D01*
X12077Y9721D01*
X12074Y9707D01*
X12077Y9694D01*
X12085Y9682D01*
X12096Y9675D01*
X12110Y9672D01*
X12124Y9675D01*
X12135Y9682D01*
X12143Y9694D01*
X12146Y9707D01*
X12143Y9721D01*
X12135Y9733D01*
X12124Y9740D01*
X12110Y9743D01*
D02*
G37*
G36*
X18875Y9713D02*
X18860Y9710D01*
X18848Y9702D01*
X18840Y9690D01*
X18837Y9675D01*
X18840Y9660D01*
X18848Y9648D01*
X18860Y9640D01*
X18875Y9637D01*
X18890Y9640D01*
X18902Y9648D01*
X18910Y9660D01*
X18913Y9675D01*
X18910Y9690D01*
X18902Y9702D01*
X18890Y9710D01*
X18875Y9713D01*
D02*
G37*
G36*
X9524Y9682D02*
X9511Y9679D01*
X9499Y9671D01*
X9491Y9659D01*
X9489Y9646D01*
X9491Y9632D01*
X9499Y9621D01*
X9511Y9613D01*
X9524Y9610D01*
X9538Y9613D01*
X9550Y9621D01*
X9557Y9632D01*
X9560Y9646D01*
X9557Y9659D01*
X9550Y9671D01*
X9538Y9679D01*
X9524Y9682D01*
D02*
G37*
G36*
X10630Y9736D02*
X10616Y9733D01*
X10605Y9725D01*
X10597Y9714D01*
X10594Y9700D01*
X10597Y9686D01*
X10605Y9675D01*
X10610Y9671D01*
Y9656D01*
X10605Y9653D01*
X10597Y9641D01*
X10594Y9628D01*
X10597Y9614D01*
X10597Y9613D01*
X10590Y9605D01*
X10589Y9604D01*
X10576Y9606D01*
X10562Y9603D01*
X10550Y9596D01*
X10543Y9584D01*
X10540Y9570D01*
X10543Y9557D01*
X10550Y9545D01*
X10552Y9544D01*
Y9532D01*
X10550Y9530D01*
X10542Y9519D01*
X10539Y9505D01*
X10542Y9491D01*
X10550Y9480D01*
X10553Y9478D01*
Y9462D01*
X10549Y9460D01*
X10542Y9449D01*
X10539Y9435D01*
X10542Y9421D01*
X10549Y9410D01*
X10551Y9408D01*
X10551Y9402D01*
X10550Y9394D01*
X10540Y9388D01*
X10532Y9376D01*
X10529Y9362D01*
X10532Y9349D01*
X10540Y9337D01*
X10551Y9330D01*
X10565Y9327D01*
X10579Y9330D01*
X10590Y9337D01*
X10598Y9349D01*
X10601Y9362D01*
X10598Y9376D01*
X10590Y9388D01*
X10588Y9389D01*
X10588Y9395D01*
X10590Y9403D01*
X10600Y9410D01*
X10608Y9421D01*
X10610Y9435D01*
X10608Y9449D01*
X10600Y9460D01*
X10597Y9462D01*
Y9478D01*
X10600Y9480D01*
X10608Y9491D01*
X10611Y9505D01*
X10608Y9519D01*
X10600Y9530D01*
X10599Y9531D01*
Y9544D01*
X10601Y9545D01*
X10608Y9557D01*
X10611Y9570D01*
X10608Y9584D01*
X10608Y9585D01*
X10615Y9593D01*
X10617Y9594D01*
X10630Y9592D01*
X10644Y9595D01*
X10655Y9602D01*
X10663Y9614D01*
X10666Y9628D01*
X10663Y9641D01*
X10655Y9653D01*
X10650Y9656D01*
Y9671D01*
X10655Y9675D01*
X10663Y9686D01*
X10666Y9700D01*
X10663Y9714D01*
X10655Y9725D01*
X10644Y9733D01*
X10630Y9736D01*
D02*
G37*
G36*
X9645Y9633D02*
X9631Y9630D01*
X9620Y9623D01*
X9612Y9611D01*
X9609Y9597D01*
X9612Y9584D01*
X9620Y9572D01*
X9631Y9565D01*
X9645Y9562D01*
X9659Y9565D01*
X9670Y9572D01*
X9678Y9584D01*
X9681Y9597D01*
X9678Y9611D01*
X9670Y9623D01*
X9659Y9630D01*
X9645Y9633D01*
D02*
G37*
G36*
X8982Y9628D02*
X8968Y9625D01*
X8955Y9617D01*
X8947Y9605D01*
X8944Y9590D01*
X8947Y9575D01*
X8955Y9563D01*
X8968Y9555D01*
X8982Y9552D01*
X8997Y9555D01*
X9010Y9563D01*
X9018Y9575D01*
X9021Y9590D01*
X9018Y9605D01*
X9010Y9617D01*
X8997Y9625D01*
X8982Y9628D01*
D02*
G37*
G36*
X7715Y9618D02*
X7700Y9615D01*
X7688Y9607D01*
X7679Y9594D01*
X7677Y9580D01*
X7679Y9565D01*
X7688Y9553D01*
X7700Y9544D01*
X7715Y9542D01*
X7729Y9544D01*
X7742Y9553D01*
X7750Y9565D01*
X7753Y9580D01*
X7750Y9594D01*
X7742Y9607D01*
X7729Y9615D01*
X7715Y9618D01*
D02*
G37*
G36*
X8197Y9608D02*
X8183Y9605D01*
X8170Y9597D01*
X8162Y9585D01*
X8159Y9570D01*
X8162Y9555D01*
X8170Y9543D01*
X8183Y9535D01*
X8197Y9532D01*
X8212Y9535D01*
X8225Y9543D01*
X8233Y9555D01*
X8236Y9570D01*
X8233Y9585D01*
X8225Y9597D01*
X8212Y9605D01*
X8197Y9608D01*
D02*
G37*
G36*
X18875Y9588D02*
X18860Y9585D01*
X18848Y9577D01*
X18840Y9565D01*
X18837Y9550D01*
X18840Y9535D01*
X18848Y9523D01*
X18860Y9515D01*
X18875Y9512D01*
X18890Y9515D01*
X18902Y9523D01*
X18910Y9535D01*
X18913Y9550D01*
X18910Y9565D01*
X18902Y9577D01*
X18890Y9585D01*
X18875Y9588D01*
D02*
G37*
G36*
X11553Y9556D02*
X11538Y9553D01*
X11525Y9545D01*
X11517Y9532D01*
X11514Y9518D01*
X11517Y9503D01*
X11525Y9490D01*
X11538Y9482D01*
X11553Y9479D01*
X11567Y9482D01*
X11580Y9490D01*
X11588Y9503D01*
X11591Y9518D01*
X11588Y9532D01*
X11580Y9545D01*
X11567Y9553D01*
X11553Y9556D01*
D02*
G37*
G36*
X9308Y9513D02*
X9293Y9510D01*
X9281Y9502D01*
X9273Y9489D01*
X9270Y9475D01*
X9273Y9460D01*
X9281Y9448D01*
X9293Y9439D01*
X9308Y9436D01*
X9323Y9439D01*
X9335Y9448D01*
X9343Y9460D01*
X9346Y9475D01*
X9343Y9489D01*
X9335Y9502D01*
X9323Y9510D01*
X9308Y9513D01*
D02*
G37*
G36*
X9790Y9506D02*
X9776Y9503D01*
X9765Y9495D01*
X9757Y9484D01*
X9754Y9470D01*
X9757Y9456D01*
X9765Y9445D01*
X9776Y9437D01*
X9790Y9434D01*
X9804Y9437D01*
X9815Y9445D01*
X9823Y9456D01*
X9826Y9470D01*
X9823Y9484D01*
X9815Y9495D01*
X9804Y9503D01*
X9790Y9506D01*
D02*
G37*
G36*
X18875Y9463D02*
X18860Y9460D01*
X18848Y9452D01*
X18840Y9440D01*
X18837Y9425D01*
X18840Y9410D01*
X18848Y9398D01*
X18860Y9390D01*
X18875Y9387D01*
X18890Y9390D01*
X18902Y9398D01*
X18910Y9410D01*
X18913Y9425D01*
X18910Y9440D01*
X18902Y9452D01*
X18890Y9460D01*
X18875Y9463D01*
D02*
G37*
G36*
X19025Y9338D02*
X19010Y9335D01*
X18998Y9327D01*
X18990Y9315D01*
X18987Y9300D01*
X18990Y9285D01*
X18998Y9273D01*
X19010Y9265D01*
X19025Y9262D01*
X19040Y9265D01*
X19052Y9273D01*
X19060Y9285D01*
X19063Y9300D01*
X19060Y9315D01*
X19052Y9327D01*
X19040Y9335D01*
X19025Y9338D01*
D02*
G37*
G36*
X18875D02*
X18860Y9335D01*
X18848Y9327D01*
X18840Y9315D01*
X18837Y9300D01*
X18840Y9285D01*
X18848Y9273D01*
X18860Y9265D01*
X18875Y9262D01*
X18890Y9265D01*
X18902Y9273D01*
X18910Y9285D01*
X18913Y9300D01*
X18910Y9315D01*
X18902Y9327D01*
X18890Y9335D01*
X18875Y9338D01*
D02*
G37*
G36*
X10150Y9316D02*
X10137Y9313D01*
X10125Y9306D01*
X10118Y9294D01*
X10115Y9280D01*
X10118Y9267D01*
X10125Y9255D01*
X10137Y9247D01*
X10150Y9245D01*
X10164Y9247D01*
X10176Y9255D01*
X10183Y9267D01*
X10186Y9280D01*
X10183Y9294D01*
X10176Y9306D01*
X10164Y9313D01*
X10150Y9316D01*
D02*
G37*
G36*
X11465Y9293D02*
X11450Y9290D01*
X11438Y9282D01*
X11430Y9270D01*
X11427Y9255D01*
X11430Y9240D01*
X11438Y9228D01*
X11450Y9220D01*
X11465Y9217D01*
X11480Y9220D01*
X11492Y9228D01*
X11500Y9240D01*
X11503Y9255D01*
X11500Y9270D01*
X11492Y9282D01*
X11480Y9290D01*
X11465Y9293D01*
D02*
G37*
G36*
X9330D02*
X9315Y9290D01*
X9303Y9282D01*
X9295Y9270D01*
X9292Y9255D01*
X9295Y9240D01*
X9303Y9228D01*
X9315Y9220D01*
X9330Y9217D01*
X9345Y9220D01*
X9357Y9228D01*
X9365Y9240D01*
X9368Y9255D01*
X9365Y9270D01*
X9357Y9282D01*
X9345Y9290D01*
X9330Y9293D01*
D02*
G37*
G36*
X21423Y9261D02*
X21408Y9258D01*
X21395Y9250D01*
X21387Y9237D01*
X21384Y9222D01*
X21387Y9208D01*
X21395Y9195D01*
X21408Y9187D01*
X21423Y9184D01*
X21437Y9187D01*
X21450Y9195D01*
X21458Y9208D01*
X21461Y9222D01*
X21458Y9237D01*
X21450Y9250D01*
X21437Y9258D01*
X21423Y9261D01*
D02*
G37*
G36*
X11968Y9333D02*
X11948Y9331D01*
X11930Y9323D01*
X11914Y9311D01*
X11902Y9295D01*
X11894Y9277D01*
X11892Y9258D01*
X11894Y9238D01*
X11902Y9220D01*
X11914Y9204D01*
X11930Y9192D01*
X11948Y9184D01*
X11968Y9182D01*
X11987Y9184D01*
X12005Y9192D01*
X12021Y9204D01*
X12033Y9220D01*
X12041Y9238D01*
X12043Y9258D01*
X12041Y9277D01*
X12033Y9295D01*
X12021Y9311D01*
X12005Y9323D01*
X11987Y9331D01*
X11968Y9333D01*
D02*
G37*
G36*
X9985Y9233D02*
X9971Y9230D01*
X9960Y9223D01*
X9952Y9211D01*
X9949Y9197D01*
X9952Y9184D01*
X9960Y9172D01*
X9971Y9165D01*
X9985Y9162D01*
X9999Y9165D01*
X10010Y9172D01*
X10018Y9184D01*
X10021Y9197D01*
X10018Y9211D01*
X10010Y9223D01*
X9999Y9230D01*
X9985Y9233D01*
D02*
G37*
G36*
X11072Y9231D02*
X11058Y9228D01*
X11045Y9220D01*
X11037Y9207D01*
X11034Y9193D01*
X11037Y9178D01*
X11045Y9165D01*
X11058Y9157D01*
X11072Y9154D01*
X11087Y9157D01*
X11100Y9165D01*
X11108Y9178D01*
X11111Y9193D01*
X11108Y9207D01*
X11100Y9220D01*
X11087Y9228D01*
X11072Y9231D01*
D02*
G37*
G36*
X9638Y9206D02*
X9623Y9203D01*
X9611Y9195D01*
X9603Y9183D01*
X9600Y9168D01*
X9603Y9153D01*
X9611Y9141D01*
X9623Y9133D01*
X9638Y9130D01*
X9653Y9133D01*
X9665Y9141D01*
X9673Y9153D01*
X9676Y9168D01*
X9673Y9183D01*
X9665Y9195D01*
X9653Y9203D01*
X9638Y9206D01*
D02*
G37*
G36*
X8138Y9196D02*
X8123Y9193D01*
X8110Y9185D01*
X8102Y9172D01*
X8099Y9157D01*
X8102Y9143D01*
X8110Y9130D01*
X8123Y9122D01*
X8138Y9119D01*
X8152Y9122D01*
X8165Y9130D01*
X8173Y9143D01*
X8176Y9157D01*
X8173Y9172D01*
X8165Y9185D01*
X8152Y9193D01*
X8138Y9196D01*
D02*
G37*
G36*
X10090Y9189D02*
X10077Y9186D01*
X10065Y9178D01*
X10058Y9167D01*
X10055Y9153D01*
X10058Y9139D01*
X10065Y9128D01*
X10077Y9120D01*
X10090Y9117D01*
X10104Y9120D01*
X10116Y9128D01*
X10123Y9139D01*
X10126Y9153D01*
X10123Y9167D01*
X10116Y9178D01*
X10104Y9186D01*
X10090Y9189D01*
D02*
G37*
G36*
X10322Y9073D02*
X10309Y9070D01*
X10297Y9063D01*
X10290Y9051D01*
X10287Y9038D01*
X10290Y9024D01*
X10297Y9012D01*
X10309Y9005D01*
X10322Y9002D01*
X10336Y9005D01*
X10348Y9012D01*
X10355Y9024D01*
X10358Y9038D01*
X10355Y9051D01*
X10348Y9063D01*
X10336Y9070D01*
X10322Y9073D01*
D02*
G37*
G36*
X9458Y9026D02*
X9443Y9023D01*
X9431Y9015D01*
X9423Y9003D01*
X9420Y8988D01*
X9423Y8973D01*
X9431Y8961D01*
X9443Y8953D01*
X9458Y8950D01*
X9473Y8953D01*
X9485Y8961D01*
X9493Y8973D01*
X9496Y8988D01*
X9493Y9003D01*
X9485Y9015D01*
X9473Y9023D01*
X9458Y9026D01*
D02*
G37*
G36*
X19775Y8988D02*
X19760Y8985D01*
X19748Y8977D01*
X19740Y8965D01*
X19737Y8950D01*
X19740Y8935D01*
X19748Y8923D01*
X19760Y8915D01*
X19775Y8912D01*
X19790Y8915D01*
X19802Y8923D01*
X19810Y8935D01*
X19813Y8950D01*
X19810Y8965D01*
X19802Y8977D01*
X19790Y8985D01*
X19775Y8988D01*
D02*
G37*
G36*
X21112Y8983D02*
X21098Y8980D01*
X21085Y8972D01*
X21077Y8960D01*
X21074Y8945D01*
X21077Y8930D01*
X21085Y8918D01*
X21098Y8910D01*
X21112Y8907D01*
X21127Y8910D01*
X21140Y8918D01*
X21148Y8930D01*
X21151Y8945D01*
X21148Y8960D01*
X21140Y8972D01*
X21127Y8980D01*
X21112Y8983D01*
D02*
G37*
G36*
X20600Y8971D02*
X20585Y8968D01*
X20573Y8960D01*
X20565Y8947D01*
X20562Y8932D01*
X20565Y8918D01*
X20573Y8905D01*
X20585Y8897D01*
X20600Y8894D01*
X20615Y8897D01*
X20627Y8905D01*
X20635Y8918D01*
X20638Y8932D01*
X20635Y8947D01*
X20627Y8960D01*
X20615Y8968D01*
X20600Y8971D01*
D02*
G37*
G36*
X9205Y8958D02*
X9190Y8955D01*
X9178Y8947D01*
X9170Y8935D01*
X9167Y8920D01*
X9170Y8905D01*
X9178Y8893D01*
X9190Y8885D01*
X9205Y8882D01*
X9220Y8885D01*
X9232Y8893D01*
X9240Y8905D01*
X9243Y8920D01*
X9240Y8935D01*
X9232Y8947D01*
X9220Y8955D01*
X9205Y8958D01*
D02*
G37*
G36*
X11153Y8919D02*
X11138Y8916D01*
X11126Y8907D01*
X11118Y8895D01*
X11115Y8880D01*
X11118Y8866D01*
X11126Y8853D01*
X11138Y8845D01*
X11153Y8842D01*
X11168Y8845D01*
X11180Y8853D01*
X11188Y8866D01*
X11191Y8880D01*
X11188Y8895D01*
X11180Y8907D01*
X11168Y8916D01*
X11153Y8919D01*
D02*
G37*
G36*
X11622Y8988D02*
X11603Y8986D01*
X11585Y8978D01*
X11569Y8966D01*
X11557Y8950D01*
X11549Y8932D01*
X11547Y8912D01*
X11549Y8893D01*
X11557Y8875D01*
X11569Y8859D01*
X11585Y8847D01*
X11603Y8839D01*
X11622Y8837D01*
X11642Y8839D01*
X11660Y8847D01*
X11676Y8859D01*
X11688Y8875D01*
X11696Y8893D01*
X11698Y8912D01*
X11696Y8932D01*
X11688Y8950D01*
X11676Y8966D01*
X11660Y8978D01*
X11642Y8986D01*
X11622Y8988D01*
D02*
G37*
G36*
X19775Y8888D02*
X19760Y8885D01*
X19748Y8877D01*
X19740Y8865D01*
X19737Y8850D01*
X19740Y8835D01*
X19748Y8823D01*
X19760Y8815D01*
X19775Y8812D01*
X19790Y8815D01*
X19802Y8823D01*
X19810Y8835D01*
X19813Y8850D01*
X19810Y8865D01*
X19802Y8877D01*
X19790Y8885D01*
X19775Y8888D01*
D02*
G37*
G36*
X9747Y8879D02*
X9734Y8876D01*
X9722Y8868D01*
X9715Y8857D01*
X9712Y8843D01*
X9715Y8830D01*
X9722Y8818D01*
X9734Y8810D01*
X9747Y8808D01*
X9761Y8810D01*
X9773Y8818D01*
X9780Y8830D01*
X9783Y8843D01*
X9780Y8857D01*
X9773Y8868D01*
X9761Y8876D01*
X9747Y8879D01*
D02*
G37*
G36*
X11095Y8846D02*
X11080Y8843D01*
X11068Y8835D01*
X11060Y8822D01*
X11057Y8807D01*
X11060Y8793D01*
X11068Y8780D01*
X11080Y8772D01*
X11095Y8769D01*
X11110Y8772D01*
X11122Y8780D01*
X11130Y8793D01*
X11133Y8807D01*
X11130Y8822D01*
X11122Y8835D01*
X11110Y8843D01*
X11095Y8846D01*
D02*
G37*
G36*
X17620Y8843D02*
X17605Y8840D01*
X17593Y8832D01*
X17585Y8819D01*
X17582Y8804D01*
X17585Y8790D01*
X17593Y8777D01*
X17605Y8769D01*
X17620Y8766D01*
X17635Y8769D01*
X17647Y8777D01*
X17655Y8790D01*
X17658Y8804D01*
X17655Y8819D01*
X17647Y8832D01*
X17635Y8840D01*
X17620Y8843D01*
D02*
G37*
G36*
X20302Y8826D02*
X20288Y8823D01*
X20275Y8815D01*
X20267Y8802D01*
X20264Y8788D01*
X20267Y8773D01*
X20275Y8760D01*
X20288Y8752D01*
X20302Y8749D01*
X20317Y8752D01*
X20330Y8760D01*
X20338Y8773D01*
X20341Y8788D01*
X20338Y8802D01*
X20330Y8815D01*
X20317Y8823D01*
X20302Y8826D01*
D02*
G37*
G36*
X10635Y8818D02*
X10620Y8815D01*
X10608Y8807D01*
X10600Y8795D01*
X10597Y8780D01*
X10600Y8765D01*
X10608Y8753D01*
X10620Y8745D01*
X10635Y8742D01*
X10650Y8745D01*
X10662Y8753D01*
X10670Y8765D01*
X10673Y8780D01*
X10670Y8795D01*
X10662Y8807D01*
X10650Y8815D01*
X10635Y8818D01*
D02*
G37*
G36*
X9507D02*
X9493Y8815D01*
X9480Y8807D01*
X9472Y8795D01*
X9469Y8780D01*
X9472Y8765D01*
X9480Y8753D01*
X9493Y8745D01*
X9507Y8742D01*
X9522Y8745D01*
X9535Y8753D01*
X9543Y8765D01*
X9546Y8780D01*
X9543Y8795D01*
X9535Y8807D01*
X9522Y8815D01*
X9507Y8818D01*
D02*
G37*
G36*
X10321Y8801D02*
X10307Y8798D01*
X10295Y8791D01*
X10288Y8779D01*
X10285Y8765D01*
X10288Y8752D01*
X10295Y8740D01*
X10307Y8732D01*
X10321Y8730D01*
X10334Y8732D01*
X10346Y8740D01*
X10353Y8752D01*
X10356Y8765D01*
X10353Y8779D01*
X10346Y8791D01*
X10334Y8798D01*
X10321Y8801D01*
D02*
G37*
G36*
X10890Y8796D02*
X10876Y8793D01*
X10865Y8785D01*
X10857Y8774D01*
X10854Y8760D01*
X10857Y8746D01*
X10865Y8735D01*
X10876Y8727D01*
X10890Y8724D01*
X10904Y8727D01*
X10915Y8735D01*
X10923Y8746D01*
X10926Y8760D01*
X10923Y8774D01*
X10915Y8785D01*
X10904Y8793D01*
X10890Y8796D01*
D02*
G37*
G36*
X12293Y8801D02*
X12278Y8798D01*
X12266Y8789D01*
X12257Y8777D01*
X12254Y8762D01*
X12257Y8748D01*
X12266Y8735D01*
X12278Y8727D01*
X12293Y8724D01*
X12307Y8727D01*
X12320Y8735D01*
X12328Y8748D01*
X12331Y8762D01*
X12328Y8777D01*
X12320Y8789D01*
X12307Y8798D01*
X12293Y8801D01*
D02*
G37*
G36*
X9275Y8798D02*
X9260Y8795D01*
X9248Y8787D01*
X9240Y8775D01*
X9237Y8760D01*
X9240Y8745D01*
X9248Y8733D01*
X9260Y8725D01*
X9275Y8722D01*
X9290Y8725D01*
X9302Y8733D01*
X9310Y8745D01*
X9313Y8760D01*
X9310Y8775D01*
X9302Y8787D01*
X9290Y8795D01*
X9275Y8798D01*
D02*
G37*
G36*
X19775Y8788D02*
X19760Y8785D01*
X19748Y8777D01*
X19740Y8765D01*
X19737Y8750D01*
X19740Y8735D01*
X19748Y8723D01*
X19760Y8715D01*
X19775Y8712D01*
X19790Y8715D01*
X19802Y8723D01*
X19810Y8735D01*
X19813Y8750D01*
X19810Y8765D01*
X19802Y8777D01*
X19790Y8785D01*
X19775Y8788D01*
D02*
G37*
G36*
X19675D02*
X19660Y8785D01*
X19648Y8777D01*
X19640Y8765D01*
X19637Y8750D01*
X19640Y8735D01*
X19648Y8723D01*
X19660Y8715D01*
X19675Y8712D01*
X19690Y8715D01*
X19702Y8723D01*
X19710Y8735D01*
X19713Y8750D01*
X19710Y8765D01*
X19702Y8777D01*
X19690Y8785D01*
X19675Y8788D01*
D02*
G37*
G36*
X19575D02*
X19560Y8785D01*
X19548Y8777D01*
X19540Y8765D01*
X19537Y8750D01*
X19540Y8735D01*
X19548Y8723D01*
X19560Y8715D01*
X19575Y8712D01*
X19590Y8715D01*
X19602Y8723D01*
X19610Y8735D01*
X19613Y8750D01*
X19610Y8765D01*
X19602Y8777D01*
X19590Y8785D01*
X19575Y8788D01*
D02*
G37*
G36*
X10090Y8753D02*
X10076Y8750D01*
X10065Y8743D01*
X10057Y8731D01*
X10054Y8718D01*
X10057Y8704D01*
X10065Y8692D01*
X10076Y8685D01*
X10090Y8682D01*
X10104Y8685D01*
X10115Y8692D01*
X10123Y8704D01*
X10126Y8718D01*
X10123Y8731D01*
X10115Y8743D01*
X10104Y8750D01*
X10090Y8753D01*
D02*
G37*
G36*
X12210Y8723D02*
X12195Y8720D01*
X12183Y8712D01*
X12175Y8700D01*
X12172Y8685D01*
X12175Y8670D01*
X12183Y8658D01*
X12195Y8650D01*
X12210Y8647D01*
X12225Y8650D01*
X12237Y8658D01*
X12245Y8670D01*
X12248Y8685D01*
X12245Y8700D01*
X12237Y8712D01*
X12225Y8720D01*
X12210Y8723D01*
D02*
G37*
G36*
X10022Y8701D02*
X10009Y8698D01*
X9997Y8690D01*
X9990Y8679D01*
X9987Y8665D01*
X9990Y8651D01*
X9997Y8640D01*
X10009Y8632D01*
X10022Y8629D01*
X10036Y8632D01*
X10048Y8640D01*
X10055Y8651D01*
X10058Y8665D01*
X10055Y8679D01*
X10048Y8690D01*
X10036Y8698D01*
X10022Y8701D01*
D02*
G37*
G36*
X14000Y8731D02*
X13979Y8727D01*
X13960Y8715D01*
X13948Y8696D01*
X13944Y8675D01*
X13948Y8654D01*
X13960Y8635D01*
X13979Y8623D01*
X14000Y8619D01*
X14021Y8623D01*
X14040Y8635D01*
X14052Y8654D01*
X14056Y8675D01*
X14052Y8696D01*
X14040Y8715D01*
X14021Y8727D01*
X14000Y8731D01*
D02*
G37*
G36*
X13850D02*
X13829Y8727D01*
X13810Y8715D01*
X13798Y8696D01*
X13794Y8675D01*
X13798Y8654D01*
X13810Y8635D01*
X13829Y8623D01*
X13850Y8619D01*
X13871Y8623D01*
X13890Y8635D01*
X13902Y8654D01*
X13906Y8675D01*
X13902Y8696D01*
X13890Y8715D01*
X13871Y8727D01*
X13850Y8731D01*
D02*
G37*
G36*
X13725D02*
X13704Y8727D01*
X13685Y8715D01*
X13673Y8696D01*
X13669Y8675D01*
X13673Y8654D01*
X13685Y8635D01*
X13704Y8623D01*
X13725Y8619D01*
X13746Y8623D01*
X13765Y8635D01*
X13777Y8654D01*
X13781Y8675D01*
X13777Y8696D01*
X13765Y8715D01*
X13746Y8727D01*
X13725Y8731D01*
D02*
G37*
G36*
X13575D02*
X13554Y8727D01*
X13535Y8715D01*
X13523Y8696D01*
X13519Y8675D01*
X13523Y8654D01*
X13535Y8635D01*
X13554Y8623D01*
X13575Y8619D01*
X13596Y8623D01*
X13615Y8635D01*
X13627Y8654D01*
X13631Y8675D01*
X13627Y8696D01*
X13615Y8715D01*
X13596Y8727D01*
X13575Y8731D01*
D02*
G37*
G36*
X13425D02*
X13404Y8727D01*
X13385Y8715D01*
X13373Y8696D01*
X13369Y8675D01*
X13373Y8654D01*
X13385Y8635D01*
X13404Y8623D01*
X13425Y8619D01*
X13446Y8623D01*
X13465Y8635D01*
X13477Y8654D01*
X13481Y8675D01*
X13477Y8696D01*
X13465Y8715D01*
X13446Y8727D01*
X13425Y8731D01*
D02*
G37*
G36*
X13275D02*
X13254Y8727D01*
X13235Y8715D01*
X13223Y8696D01*
X13219Y8675D01*
X13223Y8654D01*
X13235Y8635D01*
X13254Y8623D01*
X13275Y8619D01*
X13296Y8623D01*
X13315Y8635D01*
X13327Y8654D01*
X13331Y8675D01*
X13327Y8696D01*
X13315Y8715D01*
X13296Y8727D01*
X13275Y8731D01*
D02*
G37*
G36*
X13125D02*
X13104Y8727D01*
X13085Y8715D01*
X13073Y8696D01*
X13069Y8675D01*
X13073Y8654D01*
X13085Y8635D01*
X13104Y8623D01*
X13125Y8619D01*
X13146Y8623D01*
X13165Y8635D01*
X13177Y8654D01*
X13181Y8675D01*
X13177Y8696D01*
X13165Y8715D01*
X13146Y8727D01*
X13125Y8731D01*
D02*
G37*
G36*
X12975D02*
X12954Y8727D01*
X12935Y8715D01*
X12923Y8696D01*
X12919Y8675D01*
X12923Y8654D01*
X12935Y8635D01*
X12954Y8623D01*
X12975Y8619D01*
X12996Y8623D01*
X13015Y8635D01*
X13027Y8654D01*
X13031Y8675D01*
X13027Y8696D01*
X13015Y8715D01*
X12996Y8727D01*
X12975Y8731D01*
D02*
G37*
G36*
X12825D02*
X12804Y8727D01*
X12785Y8715D01*
X12773Y8696D01*
X12769Y8675D01*
X12773Y8654D01*
X12785Y8635D01*
X12804Y8623D01*
X12825Y8619D01*
X12846Y8623D01*
X12865Y8635D01*
X12877Y8654D01*
X12881Y8675D01*
X12877Y8696D01*
X12865Y8715D01*
X12846Y8727D01*
X12825Y8731D01*
D02*
G37*
G36*
X12675D02*
X12654Y8727D01*
X12635Y8715D01*
X12623Y8696D01*
X12619Y8675D01*
X12623Y8654D01*
X12635Y8635D01*
X12654Y8623D01*
X12675Y8619D01*
X12696Y8623D01*
X12715Y8635D01*
X12727Y8654D01*
X12731Y8675D01*
X12727Y8696D01*
X12715Y8715D01*
X12696Y8727D01*
X12675Y8731D01*
D02*
G37*
G36*
X19775Y8688D02*
X19760Y8685D01*
X19748Y8677D01*
X19740Y8665D01*
X19737Y8650D01*
X19740Y8635D01*
X19748Y8623D01*
X19760Y8615D01*
X19775Y8612D01*
X19790Y8615D01*
X19802Y8623D01*
X19810Y8635D01*
X19813Y8650D01*
X19810Y8665D01*
X19802Y8677D01*
X19790Y8685D01*
X19775Y8688D01*
D02*
G37*
G36*
X10832Y8681D02*
X10819Y8678D01*
X10807Y8670D01*
X10800Y8659D01*
X10797Y8645D01*
X10800Y8631D01*
X10807Y8620D01*
X10819Y8612D01*
X10832Y8609D01*
X10846Y8612D01*
X10858Y8620D01*
X10865Y8631D01*
X10868Y8645D01*
X10865Y8659D01*
X10858Y8670D01*
X10846Y8678D01*
X10832Y8681D01*
D02*
G37*
G36*
X19375Y8671D02*
X19360Y8668D01*
X19348Y8660D01*
X19340Y8647D01*
X19337Y8632D01*
X19340Y8618D01*
X19348Y8605D01*
X19360Y8597D01*
X19375Y8594D01*
X19390Y8597D01*
X19402Y8605D01*
X19410Y8618D01*
X19413Y8632D01*
X19410Y8647D01*
X19402Y8660D01*
X19390Y8668D01*
X19375Y8671D01*
D02*
G37*
G36*
X9540Y8663D02*
X9526Y8660D01*
X9515Y8653D01*
X9507Y8641D01*
X9504Y8628D01*
X9507Y8614D01*
X9515Y8602D01*
X9526Y8595D01*
X9540Y8592D01*
X9554Y8595D01*
X9565Y8602D01*
X9573Y8614D01*
X9576Y8628D01*
X9573Y8641D01*
X9565Y8653D01*
X9554Y8660D01*
X9540Y8663D01*
D02*
G37*
G36*
X18982Y8649D02*
X18967Y8646D01*
X18955Y8638D01*
X18947Y8625D01*
X18944Y8611D01*
X18947Y8596D01*
X18955Y8584D01*
X18967Y8575D01*
X18982Y8572D01*
X18997Y8575D01*
X19009Y8584D01*
X19017Y8596D01*
X19020Y8611D01*
X19017Y8625D01*
X19009Y8638D01*
X18997Y8646D01*
X18982Y8649D01*
D02*
G37*
G36*
X12125Y8633D02*
X12110Y8630D01*
X12098Y8622D01*
X12090Y8610D01*
X12087Y8595D01*
X12090Y8580D01*
X12098Y8568D01*
X12110Y8560D01*
X12125Y8557D01*
X12140Y8560D01*
X12152Y8568D01*
X12160Y8580D01*
X12163Y8595D01*
X12160Y8610D01*
X12152Y8622D01*
X12140Y8630D01*
X12125Y8633D01*
D02*
G37*
G36*
X9693Y8631D02*
X9678Y8628D01*
X9666Y8620D01*
X9658Y8608D01*
X9655Y8593D01*
X9658Y8578D01*
X9666Y8566D01*
X9678Y8558D01*
X9693Y8555D01*
X9708Y8558D01*
X9720Y8566D01*
X9728Y8578D01*
X9731Y8593D01*
X9728Y8608D01*
X9720Y8620D01*
X9708Y8628D01*
X9693Y8631D01*
D02*
G37*
G36*
X20302Y8628D02*
X20288Y8625D01*
X20275Y8617D01*
X20267Y8605D01*
X20264Y8590D01*
X20267Y8575D01*
X20275Y8563D01*
X20288Y8555D01*
X20302Y8552D01*
X20317Y8555D01*
X20330Y8563D01*
X20338Y8575D01*
X20341Y8590D01*
X20338Y8605D01*
X20330Y8617D01*
X20317Y8625D01*
X20302Y8628D01*
D02*
G37*
G36*
X11120Y8618D02*
X11106Y8615D01*
X11095Y8608D01*
X11087Y8596D01*
X11084Y8582D01*
X11087Y8569D01*
X11095Y8557D01*
X11106Y8550D01*
X11120Y8547D01*
X11134Y8550D01*
X11145Y8557D01*
X11153Y8569D01*
X11156Y8582D01*
X11153Y8596D01*
X11145Y8608D01*
X11134Y8615D01*
X11120Y8618D01*
D02*
G37*
G36*
X10945Y8601D02*
X10931Y8598D01*
X10920Y8590D01*
X10912Y8579D01*
X10909Y8565D01*
X10912Y8551D01*
X10920Y8540D01*
X10931Y8532D01*
X10945Y8529D01*
X10959Y8532D01*
X10970Y8540D01*
X10978Y8551D01*
X10981Y8565D01*
X10978Y8579D01*
X10970Y8590D01*
X10959Y8598D01*
X10945Y8601D01*
D02*
G37*
G36*
X21440Y8598D02*
X21425Y8595D01*
X21413Y8587D01*
X21405Y8575D01*
X21402Y8560D01*
X21405Y8545D01*
X21413Y8533D01*
X21425Y8525D01*
X21440Y8522D01*
X21455Y8525D01*
X21467Y8533D01*
X21475Y8545D01*
X21478Y8560D01*
X21475Y8575D01*
X21467Y8587D01*
X21455Y8595D01*
X21440Y8598D01*
D02*
G37*
G36*
X17302Y8588D02*
X17288Y8585D01*
X17275Y8577D01*
X17267Y8564D01*
X17264Y8550D01*
X17267Y8535D01*
X17275Y8522D01*
X17288Y8514D01*
X17302Y8511D01*
X17317Y8514D01*
X17330Y8522D01*
X17338Y8535D01*
X17341Y8550D01*
X17338Y8564D01*
X17330Y8577D01*
X17317Y8585D01*
X17302Y8588D01*
D02*
G37*
G36*
X10768Y8576D02*
X10754Y8573D01*
X10743Y8566D01*
X10735Y8554D01*
X10732Y8540D01*
X10735Y8527D01*
X10743Y8515D01*
X10754Y8507D01*
X10768Y8505D01*
X10782Y8507D01*
X10793Y8515D01*
X10801Y8527D01*
X10804Y8540D01*
X10801Y8554D01*
X10793Y8566D01*
X10782Y8573D01*
X10768Y8576D01*
D02*
G37*
G36*
X8722Y8681D02*
X8698Y8678D01*
X8675Y8668D01*
X8656Y8653D01*
X8641Y8634D01*
X8632Y8612D01*
X8629Y8588D01*
X8632Y8563D01*
X8641Y8541D01*
X8656Y8522D01*
X8675Y8507D01*
X8698Y8497D01*
X8722Y8494D01*
X8746Y8497D01*
X8769Y8507D01*
X8788Y8522D01*
X8803Y8541D01*
X8812Y8563D01*
X8815Y8588D01*
X8812Y8612D01*
X8803Y8634D01*
X8788Y8653D01*
X8769Y8668D01*
X8746Y8678D01*
X8722Y8681D01*
D02*
G37*
G36*
X8468D02*
X8444Y8678D01*
X8421Y8668D01*
X8402Y8653D01*
X8387Y8634D01*
X8378Y8612D01*
X8375Y8588D01*
X8378Y8563D01*
X8387Y8541D01*
X8402Y8522D01*
X8421Y8507D01*
X8444Y8497D01*
X8468Y8494D01*
X8492Y8497D01*
X8515Y8507D01*
X8534Y8522D01*
X8549Y8541D01*
X8558Y8563D01*
X8561Y8588D01*
X8558Y8612D01*
X8549Y8634D01*
X8534Y8653D01*
X8515Y8668D01*
X8492Y8678D01*
X8468Y8681D01*
D02*
G37*
G36*
X19375Y8566D02*
X19360Y8563D01*
X19348Y8555D01*
X19340Y8542D01*
X19337Y8528D01*
X19340Y8513D01*
X19348Y8500D01*
X19360Y8492D01*
X19375Y8489D01*
X19390Y8492D01*
X19402Y8500D01*
X19410Y8513D01*
X19413Y8528D01*
X19410Y8542D01*
X19402Y8555D01*
X19390Y8563D01*
X19375Y8566D01*
D02*
G37*
G36*
X19475Y8563D02*
X19460Y8560D01*
X19448Y8552D01*
X19440Y8540D01*
X19437Y8525D01*
X19440Y8510D01*
X19448Y8498D01*
X19460Y8490D01*
X19475Y8487D01*
X19490Y8490D01*
X19502Y8498D01*
X19510Y8510D01*
X19513Y8525D01*
X19510Y8540D01*
X19502Y8552D01*
X19490Y8560D01*
X19475Y8563D01*
D02*
G37*
G36*
X19275D02*
X19260Y8560D01*
X19248Y8552D01*
X19240Y8540D01*
X19237Y8525D01*
X19240Y8510D01*
X19248Y8498D01*
X19260Y8490D01*
X19275Y8487D01*
X19290Y8490D01*
X19302Y8498D01*
X19310Y8510D01*
X19313Y8525D01*
X19310Y8540D01*
X19302Y8552D01*
X19290Y8560D01*
X19275Y8563D01*
D02*
G37*
G36*
X11210Y8536D02*
X11196Y8533D01*
X11185Y8525D01*
X11177Y8514D01*
X11174Y8500D01*
X11177Y8486D01*
X11185Y8475D01*
X11196Y8467D01*
X11210Y8464D01*
X11224Y8467D01*
X11235Y8475D01*
X11243Y8486D01*
X11246Y8500D01*
X11243Y8514D01*
X11235Y8525D01*
X11224Y8533D01*
X11210Y8536D01*
D02*
G37*
G36*
X11090Y8526D02*
X11076Y8523D01*
X11065Y8515D01*
X11057Y8504D01*
X11054Y8490D01*
X11057Y8476D01*
X11065Y8465D01*
X11076Y8457D01*
X11090Y8454D01*
X11104Y8457D01*
X11115Y8465D01*
X11123Y8476D01*
X11126Y8490D01*
X11123Y8504D01*
X11115Y8515D01*
X11104Y8523D01*
X11090Y8526D01*
D02*
G37*
G36*
X9855Y8511D02*
X9841Y8508D01*
X9830Y8500D01*
X9822Y8489D01*
X9819Y8475D01*
X9822Y8461D01*
X9830Y8450D01*
X9841Y8442D01*
X9855Y8439D01*
X9869Y8442D01*
X9880Y8450D01*
X9888Y8461D01*
X9891Y8475D01*
X9888Y8489D01*
X9880Y8500D01*
X9869Y8508D01*
X9855Y8511D01*
D02*
G37*
G36*
X16350Y8488D02*
X16335Y8485D01*
X16323Y8477D01*
X16315Y8465D01*
X16312Y8450D01*
X16315Y8435D01*
X16323Y8423D01*
X16335Y8415D01*
X16350Y8412D01*
X16365Y8415D01*
X16377Y8423D01*
X16385Y8435D01*
X16388Y8450D01*
X16385Y8465D01*
X16377Y8477D01*
X16365Y8485D01*
X16350Y8488D01*
D02*
G37*
G36*
X10990Y8463D02*
X10976Y8460D01*
X10965Y8453D01*
X10957Y8441D01*
X10954Y8428D01*
X10957Y8414D01*
X10965Y8402D01*
X10976Y8395D01*
X10990Y8392D01*
X11004Y8395D01*
X11015Y8402D01*
X11023Y8414D01*
X11026Y8428D01*
X11023Y8441D01*
X11015Y8453D01*
X11004Y8460D01*
X10990Y8463D01*
D02*
G37*
G36*
X17302Y8465D02*
X17288Y8462D01*
X17275Y8454D01*
X17267Y8442D01*
X17264Y8427D01*
X17267Y8412D01*
X17275Y8400D01*
X17288Y8392D01*
X17302Y8389D01*
X17317Y8392D01*
X17330Y8400D01*
X17338Y8412D01*
X17341Y8427D01*
X17338Y8442D01*
X17330Y8454D01*
X17317Y8462D01*
X17302Y8465D01*
D02*
G37*
G36*
X19375Y8446D02*
X19360Y8443D01*
X19348Y8435D01*
X19340Y8422D01*
X19337Y8407D01*
X19340Y8393D01*
X19348Y8380D01*
X19360Y8372D01*
X19375Y8369D01*
X19390Y8372D01*
X19402Y8380D01*
X19410Y8393D01*
X19413Y8407D01*
X19410Y8422D01*
X19402Y8435D01*
X19390Y8443D01*
X19375Y8446D01*
D02*
G37*
G36*
X9710Y8433D02*
X9696Y8430D01*
X9685Y8423D01*
X9677Y8411D01*
X9674Y8397D01*
X9677Y8384D01*
X9685Y8372D01*
X9696Y8365D01*
X9710Y8362D01*
X9724Y8365D01*
X9735Y8372D01*
X9743Y8384D01*
X9746Y8397D01*
X9743Y8411D01*
X9735Y8423D01*
X9724Y8430D01*
X9710Y8433D01*
D02*
G37*
G36*
X8722Y8427D02*
X8698Y8424D01*
X8675Y8414D01*
X8656Y8399D01*
X8641Y8380D01*
X8635Y8364D01*
X8630Y8363D01*
X8620Y8362D01*
X8610Y8369D01*
X8595Y8372D01*
X8580Y8369D01*
X8570Y8362D01*
X8560Y8363D01*
X8555Y8364D01*
X8549Y8380D01*
X8534Y8399D01*
X8515Y8414D01*
X8492Y8424D01*
X8468Y8427D01*
X8444Y8424D01*
X8421Y8414D01*
X8402Y8399D01*
X8387Y8380D01*
X8378Y8358D01*
X8375Y8333D01*
X8378Y8309D01*
X8387Y8287D01*
X8402Y8268D01*
X8421Y8253D01*
X8444Y8243D01*
X8468Y8240D01*
X8492Y8243D01*
X8515Y8253D01*
X8534Y8268D01*
X8549Y8287D01*
X8555Y8303D01*
X8560Y8304D01*
X8570Y8305D01*
X8580Y8298D01*
X8595Y8295D01*
X8610Y8298D01*
X8620Y8305D01*
X8630Y8304D01*
X8635Y8303D01*
X8641Y8287D01*
X8656Y8268D01*
X8675Y8253D01*
X8698Y8243D01*
X8722Y8240D01*
X8746Y8243D01*
X8769Y8253D01*
X8788Y8268D01*
X8803Y8287D01*
X8812Y8309D01*
X8815Y8333D01*
X8812Y8358D01*
X8803Y8380D01*
X8788Y8399D01*
X8769Y8414D01*
X8746Y8424D01*
X8722Y8427D01*
D02*
G37*
G36*
X21650Y8438D02*
X21635Y8435D01*
X21623Y8427D01*
X21615Y8415D01*
X21612Y8400D01*
X21615Y8385D01*
X21623Y8373D01*
X21635Y8365D01*
X21650Y8362D01*
X21665Y8365D01*
X21677Y8373D01*
X21685Y8385D01*
X21688Y8400D01*
X21685Y8415D01*
X21677Y8427D01*
X21665Y8435D01*
X21650Y8438D01*
D02*
G37*
G36*
X9918Y8389D02*
X9904Y8386D01*
X9893Y8378D01*
X9885Y8367D01*
X9882Y8353D01*
X9885Y8339D01*
X9893Y8328D01*
X9904Y8320D01*
X9918Y8317D01*
X9932Y8320D01*
X9943Y8328D01*
X9951Y8339D01*
X9954Y8353D01*
X9951Y8367D01*
X9943Y8378D01*
X9932Y8386D01*
X9918Y8389D01*
D02*
G37*
G36*
X9640Y8381D02*
X9626Y8378D01*
X9615Y8370D01*
X9607Y8359D01*
X9604Y8345D01*
X9607Y8331D01*
X9615Y8320D01*
X9626Y8312D01*
X9640Y8309D01*
X9654Y8312D01*
X9665Y8320D01*
X9673Y8331D01*
X9676Y8345D01*
X9673Y8359D01*
X9665Y8370D01*
X9654Y8378D01*
X9640Y8381D01*
D02*
G37*
G36*
X21495Y8343D02*
X21480Y8340D01*
X21468Y8332D01*
X21460Y8320D01*
X21457Y8305D01*
X21460Y8290D01*
X21468Y8278D01*
X21480Y8270D01*
X21495Y8267D01*
X21510Y8270D01*
X21522Y8278D01*
X21530Y8290D01*
X21533Y8305D01*
X21530Y8320D01*
X21522Y8332D01*
X21510Y8340D01*
X21495Y8343D01*
D02*
G37*
G36*
X15900Y8338D02*
X15885Y8335D01*
X15873Y8327D01*
X15865Y8315D01*
X15862Y8300D01*
X15865Y8285D01*
X15873Y8273D01*
X15885Y8265D01*
X15900Y8262D01*
X15915Y8265D01*
X15927Y8273D01*
X15935Y8285D01*
X15938Y8300D01*
X15935Y8315D01*
X15927Y8327D01*
X15915Y8335D01*
X15900Y8338D01*
D02*
G37*
G36*
X17077Y8333D02*
X17063Y8330D01*
X17050Y8322D01*
X17042Y8309D01*
X17039Y8294D01*
X17042Y8280D01*
X17050Y8267D01*
X17063Y8259D01*
X17077Y8256D01*
X17092Y8259D01*
X17105Y8267D01*
X17113Y8280D01*
X17116Y8294D01*
X17113Y8309D01*
X17105Y8322D01*
X17092Y8330D01*
X17077Y8333D01*
D02*
G37*
G36*
X21802Y8331D02*
X21788Y8328D01*
X21775Y8320D01*
X21767Y8307D01*
X21764Y8293D01*
X21767Y8278D01*
X21775Y8265D01*
X21788Y8257D01*
X21802Y8254D01*
X21817Y8257D01*
X21830Y8265D01*
X21838Y8278D01*
X21841Y8293D01*
X21838Y8307D01*
X21830Y8320D01*
X21817Y8328D01*
X21802Y8331D01*
D02*
G37*
G36*
X16014Y8278D02*
X16000Y8275D01*
X15987Y8266D01*
X15979Y8254D01*
X15976Y8239D01*
X15979Y8225D01*
X15987Y8212D01*
X16000Y8204D01*
X16014Y8201D01*
X16029Y8204D01*
X16041Y8212D01*
X16050Y8225D01*
X16053Y8239D01*
X16050Y8254D01*
X16041Y8266D01*
X16029Y8275D01*
X16014Y8278D01*
D02*
G37*
G36*
X21675Y8338D02*
X21660Y8335D01*
X21648Y8327D01*
X21640Y8315D01*
X21637Y8300D01*
X21640Y8285D01*
X21646Y8275D01*
X21644Y8266D01*
X21642Y8262D01*
X21635Y8260D01*
X21623Y8252D01*
X21615Y8240D01*
X21612Y8225D01*
X21615Y8210D01*
X21623Y8198D01*
X21635Y8190D01*
X21650Y8187D01*
X21665Y8190D01*
X21677Y8198D01*
X21685Y8210D01*
X21688Y8225D01*
X21685Y8240D01*
X21679Y8250D01*
X21681Y8259D01*
X21683Y8263D01*
X21690Y8265D01*
X21702Y8273D01*
X21710Y8285D01*
X21713Y8300D01*
X21710Y8315D01*
X21702Y8327D01*
X21690Y8335D01*
X21675Y8338D01*
D02*
G37*
G36*
X21552Y8118D02*
X21538Y8115D01*
X21525Y8107D01*
X21517Y8095D01*
X21514Y8080D01*
X21517Y8065D01*
X21525Y8053D01*
X21538Y8045D01*
X21552Y8042D01*
X21567Y8045D01*
X21580Y8053D01*
X21588Y8065D01*
X21591Y8080D01*
X21588Y8095D01*
X21580Y8107D01*
X21567Y8115D01*
X21552Y8118D01*
D02*
G37*
G36*
X21440Y8091D02*
X21425Y8088D01*
X21413Y8080D01*
X21405Y8067D01*
X21402Y8053D01*
X21405Y8038D01*
X21413Y8025D01*
X21425Y8017D01*
X21440Y8014D01*
X21455Y8017D01*
X21467Y8025D01*
X21475Y8038D01*
X21478Y8053D01*
X21475Y8067D01*
X21467Y8080D01*
X21455Y8088D01*
X21440Y8091D01*
D02*
G37*
G36*
X12475Y8081D02*
X12454Y8077D01*
X12435Y8065D01*
X12423Y8046D01*
X12419Y8025D01*
X12423Y8004D01*
X12435Y7985D01*
X12454Y7973D01*
X12475Y7969D01*
X12496Y7973D01*
X12515Y7985D01*
X12527Y8004D01*
X12531Y8025D01*
X12527Y8046D01*
X12515Y8065D01*
X12496Y8077D01*
X12475Y8081D01*
D02*
G37*
G36*
X12250D02*
X12229Y8077D01*
X12210Y8065D01*
X12198Y8046D01*
X12194Y8025D01*
X12198Y8004D01*
X12210Y7985D01*
X12229Y7973D01*
X12250Y7969D01*
X12271Y7973D01*
X12290Y7985D01*
X12302Y8004D01*
X12306Y8025D01*
X12302Y8046D01*
X12290Y8065D01*
X12271Y8077D01*
X12250Y8081D01*
D02*
G37*
G36*
X19431Y7966D02*
X19417Y7963D01*
X19404Y7955D01*
X19396Y7942D01*
X19393Y7928D01*
X19396Y7913D01*
X19404Y7900D01*
X19417Y7892D01*
X19431Y7889D01*
X19446Y7892D01*
X19458Y7900D01*
X19467Y7913D01*
X19469Y7928D01*
X19467Y7942D01*
X19458Y7955D01*
X19446Y7963D01*
X19431Y7966D01*
D02*
G37*
G36*
X11982Y7985D02*
X11958Y7982D01*
X11935Y7972D01*
X11916Y7957D01*
X11901Y7938D01*
X11892Y7916D01*
X11889Y7892D01*
X11892Y7867D01*
X11901Y7845D01*
X11916Y7826D01*
X11935Y7811D01*
X11958Y7801D01*
X11982Y7798D01*
X12006Y7801D01*
X12029Y7811D01*
X12048Y7826D01*
X12063Y7845D01*
X12072Y7866D01*
X12077Y7868D01*
X12085Y7869D01*
X12085Y7868D01*
X12098Y7860D01*
X12112Y7857D01*
X12127Y7860D01*
X12140Y7868D01*
X12148Y7880D01*
X12151Y7895D01*
X12148Y7910D01*
X12140Y7922D01*
X12127Y7930D01*
X12112Y7933D01*
X12098Y7930D01*
X12085Y7922D01*
X12084Y7920D01*
X12070Y7921D01*
X12063Y7938D01*
X12048Y7957D01*
X12029Y7972D01*
X12006Y7982D01*
X11982Y7985D01*
D02*
G37*
G36*
X12475Y7956D02*
X12454Y7952D01*
X12435Y7940D01*
X12423Y7921D01*
X12419Y7900D01*
X12423Y7879D01*
X12435Y7860D01*
X12454Y7848D01*
X12475Y7844D01*
X12496Y7848D01*
X12515Y7860D01*
X12527Y7879D01*
X12531Y7900D01*
X12527Y7921D01*
X12515Y7940D01*
X12496Y7952D01*
X12475Y7956D01*
D02*
G37*
G36*
X12250D02*
X12229Y7952D01*
X12210Y7940D01*
X12198Y7921D01*
X12194Y7900D01*
X12198Y7879D01*
X12210Y7860D01*
X12229Y7848D01*
X12250Y7844D01*
X12271Y7848D01*
X12290Y7860D01*
X12302Y7879D01*
X12306Y7900D01*
X12302Y7921D01*
X12290Y7940D01*
X12271Y7952D01*
X12250Y7956D01*
D02*
G37*
G36*
X13875Y7913D02*
X13860Y7910D01*
X13848Y7902D01*
X13840Y7890D01*
X13837Y7875D01*
X13840Y7860D01*
X13848Y7848D01*
X13860Y7840D01*
X13875Y7837D01*
X13890Y7840D01*
X13902Y7848D01*
X13910Y7860D01*
X13913Y7875D01*
X13910Y7890D01*
X13902Y7902D01*
X13890Y7910D01*
X13875Y7913D01*
D02*
G37*
G36*
X19357Y7896D02*
X19343Y7893D01*
X19330Y7885D01*
X19322Y7872D01*
X19319Y7857D01*
X19322Y7843D01*
X19330Y7830D01*
X19343Y7822D01*
X19357Y7819D01*
X19372Y7822D01*
X19385Y7830D01*
X19393Y7843D01*
X19396Y7857D01*
X19393Y7872D01*
X19385Y7885D01*
X19372Y7893D01*
X19357Y7896D01*
D02*
G37*
G36*
X19270Y7858D02*
X19255Y7855D01*
X19243Y7847D01*
X19235Y7835D01*
X19232Y7820D01*
X19235Y7805D01*
X19243Y7793D01*
X19255Y7785D01*
X19270Y7782D01*
X19285Y7785D01*
X19297Y7793D01*
X19305Y7805D01*
X19308Y7820D01*
X19305Y7835D01*
X19297Y7847D01*
X19285Y7855D01*
X19270Y7858D01*
D02*
G37*
G36*
X22162Y7853D02*
X22148Y7850D01*
X22135Y7842D01*
X22127Y7830D01*
X22124Y7815D01*
X22127Y7800D01*
X22135Y7788D01*
X22148Y7780D01*
X22162Y7777D01*
X22177Y7780D01*
X22190Y7788D01*
X22198Y7800D01*
X22201Y7815D01*
X22198Y7830D01*
X22190Y7842D01*
X22177Y7850D01*
X22162Y7853D01*
D02*
G37*
G36*
X10588Y7838D02*
X10574Y7835D01*
X10562Y7828D01*
X10555Y7816D01*
X10552Y7803D01*
X10555Y7789D01*
X10562Y7777D01*
X10574Y7770D01*
X10588Y7767D01*
X10601Y7770D01*
X10613Y7777D01*
X10620Y7789D01*
X10623Y7803D01*
X10620Y7816D01*
X10613Y7828D01*
X10601Y7835D01*
X10588Y7838D01*
D02*
G37*
G36*
X13893Y7796D02*
X13878Y7793D01*
X13865Y7785D01*
X13857Y7772D01*
X13854Y7757D01*
X13857Y7743D01*
X13865Y7730D01*
X13878Y7722D01*
X13893Y7719D01*
X13907Y7722D01*
X13920Y7730D01*
X13928Y7743D01*
X13931Y7757D01*
X13928Y7772D01*
X13920Y7785D01*
X13907Y7793D01*
X13893Y7796D01*
D02*
G37*
G36*
X22275Y7788D02*
X22260Y7785D01*
X22248Y7777D01*
X22240Y7765D01*
X22237Y7750D01*
X22240Y7735D01*
X22248Y7723D01*
X22260Y7715D01*
X22275Y7712D01*
X22290Y7715D01*
X22302Y7723D01*
X22310Y7735D01*
X22313Y7750D01*
X22310Y7765D01*
X22302Y7777D01*
X22290Y7785D01*
X22275Y7788D01*
D02*
G37*
G36*
X19190Y7783D02*
X19175Y7780D01*
X19163Y7772D01*
X19155Y7760D01*
X19152Y7745D01*
X19155Y7730D01*
X19163Y7718D01*
X19175Y7710D01*
X19190Y7707D01*
X19205Y7710D01*
X19217Y7718D01*
X19225Y7730D01*
X19228Y7745D01*
X19225Y7760D01*
X19217Y7772D01*
X19205Y7780D01*
X19190Y7783D01*
D02*
G37*
G36*
X12475Y7806D02*
X12454Y7802D01*
X12435Y7790D01*
X12423Y7771D01*
X12419Y7750D01*
X12423Y7729D01*
X12435Y7710D01*
X12454Y7698D01*
X12475Y7694D01*
X12496Y7698D01*
X12515Y7710D01*
X12527Y7729D01*
X12531Y7750D01*
X12527Y7771D01*
X12515Y7790D01*
X12496Y7802D01*
X12475Y7806D01*
D02*
G37*
G36*
X12250D02*
X12229Y7802D01*
X12210Y7790D01*
X12198Y7771D01*
X12194Y7750D01*
X12198Y7729D01*
X12210Y7710D01*
X12229Y7698D01*
X12250Y7694D01*
X12271Y7698D01*
X12290Y7710D01*
X12302Y7729D01*
X12306Y7750D01*
X12302Y7771D01*
X12290Y7790D01*
X12271Y7802D01*
X12250Y7806D01*
D02*
G37*
G36*
X16000Y7763D02*
X15985Y7760D01*
X15973Y7752D01*
X15965Y7740D01*
X15962Y7725D01*
X15965Y7710D01*
X15973Y7698D01*
X15985Y7690D01*
X16000Y7687D01*
X16015Y7690D01*
X16027Y7698D01*
X16035Y7710D01*
X16038Y7725D01*
X16035Y7740D01*
X16027Y7752D01*
X16015Y7760D01*
X16000Y7763D01*
D02*
G37*
G36*
X11728Y7731D02*
X11704Y7728D01*
X11681Y7718D01*
X11662Y7703D01*
X11647Y7684D01*
X11641Y7668D01*
X11636Y7667D01*
X11626Y7666D01*
X11616Y7673D01*
X11601Y7676D01*
X11586Y7673D01*
X11574Y7665D01*
X11566Y7652D01*
X11563Y7637D01*
X11566Y7623D01*
X11574Y7610D01*
X11586Y7602D01*
X11601Y7599D01*
X11616Y7602D01*
X11626Y7609D01*
X11636Y7608D01*
X11641Y7607D01*
X11647Y7591D01*
X11662Y7572D01*
X11681Y7557D01*
X11704Y7547D01*
X11728Y7544D01*
X11752Y7547D01*
X11775Y7557D01*
X11794Y7572D01*
X11809Y7591D01*
X11818Y7613D01*
X11821Y7638D01*
X11818Y7662D01*
X11809Y7684D01*
X11794Y7703D01*
X11775Y7718D01*
X11752Y7728D01*
X11728Y7731D01*
D02*
G37*
G36*
X10538Y7736D02*
X10524Y7733D01*
X10512Y7725D01*
X10505Y7714D01*
X10502Y7700D01*
X10505Y7686D01*
X10512Y7675D01*
X10524Y7667D01*
X10538Y7664D01*
X10551Y7667D01*
X10563Y7675D01*
X10570Y7686D01*
X10573Y7700D01*
X10570Y7714D01*
X10563Y7725D01*
X10551Y7733D01*
X10538Y7736D01*
D02*
G37*
G36*
X22350Y7738D02*
X22335Y7735D01*
X22323Y7727D01*
X22315Y7715D01*
X22312Y7700D01*
X22315Y7685D01*
X22323Y7673D01*
X22335Y7665D01*
X22350Y7662D01*
X22365Y7665D01*
X22377Y7673D01*
X22385Y7685D01*
X22388Y7700D01*
X22385Y7715D01*
X22377Y7727D01*
X22365Y7735D01*
X22350Y7738D01*
D02*
G37*
G36*
X22200D02*
X22185Y7735D01*
X22173Y7727D01*
X22165Y7715D01*
X22162Y7700D01*
X22165Y7685D01*
X22173Y7673D01*
X22185Y7665D01*
X22200Y7662D01*
X22215Y7665D01*
X22227Y7673D01*
X22235Y7685D01*
X22238Y7700D01*
X22235Y7715D01*
X22227Y7727D01*
X22215Y7735D01*
X22200Y7738D01*
D02*
G37*
G36*
X17620Y7728D02*
X17605Y7725D01*
X17593Y7717D01*
X17585Y7704D01*
X17582Y7689D01*
X17585Y7675D01*
X17593Y7662D01*
X17605Y7654D01*
X17620Y7651D01*
X17635Y7654D01*
X17647Y7662D01*
X17655Y7675D01*
X17658Y7689D01*
X17655Y7704D01*
X17647Y7717D01*
X17635Y7725D01*
X17620Y7728D01*
D02*
G37*
G36*
X19450Y7726D02*
X19435Y7723D01*
X19423Y7715D01*
X19415Y7702D01*
X19412Y7688D01*
X19415Y7673D01*
X19423Y7660D01*
X19435Y7652D01*
X19450Y7649D01*
X19465Y7652D01*
X19477Y7660D01*
X19485Y7673D01*
X19488Y7688D01*
X19485Y7702D01*
X19477Y7715D01*
X19465Y7723D01*
X19450Y7726D01*
D02*
G37*
G36*
X22455Y7721D02*
X22440Y7718D01*
X22428Y7710D01*
X22420Y7697D01*
X22417Y7682D01*
X22420Y7668D01*
X22428Y7655D01*
X22440Y7647D01*
X22455Y7644D01*
X22470Y7647D01*
X22482Y7655D01*
X22490Y7668D01*
X22493Y7682D01*
X22490Y7697D01*
X22482Y7710D01*
X22470Y7718D01*
X22455Y7721D01*
D02*
G37*
G36*
X11982Y7731D02*
X11958Y7728D01*
X11935Y7718D01*
X11916Y7703D01*
X11901Y7684D01*
X11892Y7662D01*
X11889Y7638D01*
X11892Y7613D01*
X11901Y7591D01*
X11916Y7572D01*
X11935Y7557D01*
X11958Y7547D01*
X11982Y7544D01*
X12006Y7547D01*
X12029Y7557D01*
X12048Y7572D01*
X12063Y7591D01*
X12072Y7613D01*
X12073Y7618D01*
X12086Y7620D01*
X12092Y7610D01*
X12104Y7602D01*
X12119Y7599D01*
X12134Y7602D01*
X12146Y7610D01*
X12154Y7623D01*
X12157Y7638D01*
X12154Y7652D01*
X12146Y7665D01*
X12134Y7673D01*
X12119Y7676D01*
X12104Y7673D01*
X12092Y7665D01*
X12086Y7655D01*
X12073Y7657D01*
X12072Y7662D01*
X12063Y7684D01*
X12048Y7703D01*
X12029Y7718D01*
X12006Y7728D01*
X11982Y7731D01*
D02*
G37*
G36*
X19523Y7671D02*
X19508Y7668D01*
X19495Y7660D01*
X19487Y7647D01*
X19484Y7632D01*
X19487Y7618D01*
X19495Y7605D01*
X19508Y7597D01*
X19523Y7594D01*
X19537Y7597D01*
X19550Y7605D01*
X19558Y7618D01*
X19561Y7632D01*
X19558Y7647D01*
X19550Y7660D01*
X19537Y7668D01*
X19523Y7671D01*
D02*
G37*
G36*
X20750Y7638D02*
X20735Y7635D01*
X20723Y7627D01*
X20715Y7615D01*
X20712Y7600D01*
X20715Y7585D01*
X20723Y7573D01*
X20735Y7565D01*
X20750Y7562D01*
X20765Y7565D01*
X20777Y7573D01*
X20785Y7585D01*
X20788Y7600D01*
X20785Y7615D01*
X20777Y7627D01*
X20765Y7635D01*
X20750Y7638D01*
D02*
G37*
G36*
X12475Y7656D02*
X12454Y7652D01*
X12435Y7640D01*
X12423Y7621D01*
X12419Y7600D01*
X12423Y7579D01*
X12435Y7560D01*
X12454Y7548D01*
X12475Y7544D01*
X12496Y7548D01*
X12515Y7560D01*
X12527Y7579D01*
X12531Y7600D01*
X12527Y7621D01*
X12515Y7640D01*
X12496Y7652D01*
X12475Y7656D01*
D02*
G37*
G36*
X12250D02*
X12229Y7652D01*
X12210Y7640D01*
X12198Y7621D01*
X12194Y7600D01*
X12198Y7579D01*
X12210Y7560D01*
X12229Y7548D01*
X12250Y7544D01*
X12271Y7548D01*
X12290Y7560D01*
X12302Y7579D01*
X12306Y7600D01*
X12302Y7621D01*
X12290Y7640D01*
X12271Y7652D01*
X12250Y7656D01*
D02*
G37*
G36*
X19593Y7601D02*
X19578Y7598D01*
X19565Y7590D01*
X19557Y7577D01*
X19554Y7562D01*
X19557Y7548D01*
X19565Y7535D01*
X19578Y7527D01*
X19593Y7524D01*
X19607Y7527D01*
X19620Y7535D01*
X19628Y7548D01*
X19631Y7562D01*
X19628Y7577D01*
X19620Y7590D01*
X19607Y7598D01*
X19593Y7601D01*
D02*
G37*
G36*
X10513Y7564D02*
X10499Y7561D01*
X10488Y7553D01*
X10480Y7542D01*
X10477Y7528D01*
X10480Y7514D01*
X10488Y7503D01*
X10499Y7495D01*
X10513Y7492D01*
X10527Y7495D01*
X10538Y7503D01*
X10546Y7514D01*
X10549Y7528D01*
X10546Y7542D01*
X10538Y7553D01*
X10527Y7561D01*
X10513Y7564D01*
D02*
G37*
G36*
X19338Y7546D02*
X19323Y7543D01*
X19310Y7535D01*
X19302Y7522D01*
X19299Y7507D01*
X19302Y7493D01*
X19310Y7480D01*
X19323Y7472D01*
X19338Y7469D01*
X19352Y7472D01*
X19365Y7480D01*
X19373Y7493D01*
X19376Y7507D01*
X19373Y7522D01*
X19365Y7535D01*
X19352Y7543D01*
X19338Y7546D01*
D02*
G37*
G36*
X21020Y7541D02*
X21005Y7538D01*
X20993Y7530D01*
X20985Y7517D01*
X20982Y7503D01*
X20985Y7488D01*
X20993Y7475D01*
X21005Y7467D01*
X21020Y7464D01*
X21035Y7467D01*
X21047Y7475D01*
X21055Y7488D01*
X21058Y7503D01*
X21055Y7517D01*
X21047Y7530D01*
X21035Y7538D01*
X21020Y7541D01*
D02*
G37*
G36*
X22275Y7538D02*
X22260Y7535D01*
X22248Y7527D01*
X22240Y7515D01*
X22237Y7500D01*
X22240Y7485D01*
X22248Y7473D01*
X22260Y7465D01*
X22275Y7462D01*
X22290Y7465D01*
X22302Y7473D01*
X22310Y7485D01*
X22313Y7500D01*
X22310Y7515D01*
X22302Y7527D01*
X22290Y7535D01*
X22275Y7538D01*
D02*
G37*
G36*
X20575D02*
X20560Y7535D01*
X20548Y7527D01*
X20540Y7515D01*
X20537Y7500D01*
X20540Y7485D01*
X20548Y7473D01*
X20560Y7465D01*
X20575Y7462D01*
X20590Y7465D01*
X20602Y7473D01*
X20610Y7485D01*
X20613Y7500D01*
X20610Y7515D01*
X20602Y7527D01*
X20590Y7535D01*
X20575Y7538D01*
D02*
G37*
G36*
X22557Y7518D02*
X22543Y7515D01*
X22530Y7507D01*
X22522Y7495D01*
X22519Y7480D01*
X22522Y7465D01*
X22530Y7453D01*
X22543Y7445D01*
X22557Y7442D01*
X22572Y7445D01*
X22585Y7453D01*
X22593Y7465D01*
X22596Y7480D01*
X22593Y7495D01*
X22585Y7507D01*
X22572Y7515D01*
X22557Y7518D01*
D02*
G37*
G36*
X19448D02*
X19433Y7515D01*
X19420Y7507D01*
X19412Y7495D01*
X19409Y7480D01*
X19412Y7465D01*
X19420Y7453D01*
X19433Y7445D01*
X19448Y7442D01*
X19462Y7445D01*
X19475Y7453D01*
X19483Y7465D01*
X19486Y7480D01*
X19483Y7495D01*
X19475Y7507D01*
X19462Y7515D01*
X19448Y7518D01*
D02*
G37*
G36*
X12475Y7531D02*
X12454Y7527D01*
X12435Y7515D01*
X12423Y7496D01*
X12419Y7475D01*
X12423Y7454D01*
X12435Y7435D01*
X12454Y7423D01*
X12475Y7419D01*
X12496Y7423D01*
X12515Y7435D01*
X12527Y7454D01*
X12531Y7475D01*
X12527Y7496D01*
X12515Y7515D01*
X12496Y7527D01*
X12475Y7531D01*
D02*
G37*
G36*
X12250D02*
X12229Y7527D01*
X12210Y7515D01*
X12198Y7496D01*
X12194Y7475D01*
X12198Y7454D01*
X12210Y7435D01*
X12229Y7423D01*
X12250Y7419D01*
X12271Y7423D01*
X12290Y7435D01*
X12302Y7454D01*
X12306Y7475D01*
X12302Y7496D01*
X12290Y7515D01*
X12271Y7527D01*
X12250Y7531D01*
D02*
G37*
G36*
X19545Y7493D02*
X19530Y7490D01*
X19518Y7482D01*
X19510Y7470D01*
X19507Y7455D01*
X19510Y7440D01*
X19518Y7428D01*
X19530Y7420D01*
X19545Y7417D01*
X19560Y7420D01*
X19572Y7428D01*
X19580Y7440D01*
X19583Y7455D01*
X19580Y7470D01*
X19572Y7482D01*
X19560Y7490D01*
X19545Y7493D01*
D02*
G37*
G36*
X17075Y7470D02*
X17060Y7467D01*
X17048Y7459D01*
X17040Y7447D01*
X17037Y7432D01*
X17040Y7417D01*
X17048Y7405D01*
X17060Y7397D01*
X17075Y7394D01*
X17090Y7397D01*
X17102Y7405D01*
X17110Y7417D01*
X17113Y7432D01*
X17110Y7447D01*
X17102Y7459D01*
X17090Y7467D01*
X17075Y7470D01*
D02*
G37*
G36*
X11982Y7477D02*
X11958Y7474D01*
X11935Y7464D01*
X11916Y7449D01*
X11901Y7430D01*
X11892Y7408D01*
X11889Y7383D01*
X11892Y7359D01*
X11901Y7337D01*
X11916Y7318D01*
X11935Y7303D01*
X11958Y7293D01*
X11982Y7290D01*
X12006Y7293D01*
X12029Y7303D01*
X12048Y7318D01*
X12063Y7337D01*
X12070Y7355D01*
X12082Y7358D01*
X12084Y7357D01*
X12085Y7355D01*
X12098Y7347D01*
X12112Y7344D01*
X12127Y7347D01*
X12140Y7355D01*
X12148Y7368D01*
X12151Y7382D01*
X12148Y7397D01*
X12140Y7410D01*
X12127Y7418D01*
X12112Y7421D01*
X12098Y7418D01*
X12085Y7410D01*
X12085Y7409D01*
X12080Y7408D01*
X12071Y7411D01*
X12063Y7430D01*
X12048Y7449D01*
X12029Y7464D01*
X12006Y7474D01*
X11982Y7477D01*
D02*
G37*
G36*
X20750Y7413D02*
X20735Y7410D01*
X20723Y7402D01*
X20715Y7390D01*
X20712Y7375D01*
X20715Y7360D01*
X20723Y7348D01*
X20735Y7340D01*
X20750Y7337D01*
X20765Y7340D01*
X20777Y7348D01*
X20785Y7360D01*
X20788Y7375D01*
X20785Y7390D01*
X20777Y7402D01*
X20765Y7410D01*
X20750Y7413D01*
D02*
G37*
G36*
X17075Y7363D02*
X17060Y7360D01*
X17048Y7352D01*
X17040Y7340D01*
X17037Y7325D01*
X17040Y7310D01*
X17048Y7298D01*
X17060Y7290D01*
X17075Y7287D01*
X17090Y7290D01*
X17102Y7298D01*
X17110Y7310D01*
X17113Y7325D01*
X17110Y7340D01*
X17102Y7352D01*
X17090Y7360D01*
X17075Y7363D01*
D02*
G37*
G36*
X12475Y7356D02*
X12454Y7352D01*
X12435Y7340D01*
X12423Y7321D01*
X12419Y7300D01*
X12423Y7279D01*
X12435Y7260D01*
X12454Y7248D01*
X12475Y7244D01*
X12496Y7248D01*
X12515Y7260D01*
X12527Y7279D01*
X12531Y7300D01*
X12527Y7321D01*
X12515Y7340D01*
X12496Y7352D01*
X12475Y7356D01*
D02*
G37*
G36*
X12250D02*
X12229Y7352D01*
X12210Y7340D01*
X12198Y7321D01*
X12194Y7300D01*
X12198Y7279D01*
X12210Y7260D01*
X12229Y7248D01*
X12250Y7244D01*
X12271Y7248D01*
X12290Y7260D01*
X12302Y7279D01*
X12306Y7300D01*
X12302Y7321D01*
X12290Y7340D01*
X12271Y7352D01*
X12250Y7356D01*
D02*
G37*
G36*
X20488Y7316D02*
X20473Y7313D01*
X20460Y7305D01*
X20452Y7292D01*
X20449Y7278D01*
X20452Y7263D01*
X20460Y7250D01*
X20473Y7242D01*
X20488Y7239D01*
X20502Y7242D01*
X20515Y7250D01*
X20523Y7263D01*
X20526Y7278D01*
X20523Y7292D01*
X20515Y7305D01*
X20502Y7313D01*
X20488Y7316D01*
D02*
G37*
G36*
X11728Y7477D02*
X11704Y7474D01*
X11681Y7464D01*
X11662Y7449D01*
X11647Y7430D01*
X11638Y7408D01*
X11635Y7383D01*
X11638Y7359D01*
X11647Y7337D01*
X11662Y7318D01*
X11681Y7303D01*
X11694Y7298D01*
X11699Y7282D01*
X11697Y7280D01*
X11694Y7265D01*
X11697Y7250D01*
X11705Y7238D01*
X11718Y7230D01*
X11732Y7227D01*
X11747Y7230D01*
X11760Y7238D01*
X11768Y7250D01*
X11771Y7265D01*
X11768Y7280D01*
X11764Y7285D01*
X11769Y7300D01*
X11775Y7303D01*
X11794Y7318D01*
X11809Y7337D01*
X11818Y7359D01*
X11821Y7383D01*
X11818Y7408D01*
X11809Y7430D01*
X11794Y7449D01*
X11775Y7464D01*
X11752Y7474D01*
X11728Y7477D01*
D02*
G37*
G36*
X18660Y7288D02*
X18645Y7285D01*
X18633Y7277D01*
X18625Y7265D01*
X18622Y7250D01*
X18625Y7235D01*
X18633Y7223D01*
X18645Y7215D01*
X18660Y7212D01*
X18675Y7215D01*
X18687Y7223D01*
X18695Y7235D01*
X18698Y7250D01*
X18695Y7265D01*
X18687Y7277D01*
X18675Y7285D01*
X18660Y7288D01*
D02*
G37*
G36*
X17077Y7218D02*
X17063Y7215D01*
X17050Y7207D01*
X17042Y7194D01*
X17039Y7179D01*
X17042Y7165D01*
X17050Y7152D01*
X17063Y7144D01*
X17077Y7141D01*
X17092Y7144D01*
X17105Y7152D01*
X17113Y7165D01*
X17116Y7179D01*
X17113Y7194D01*
X17105Y7207D01*
X17092Y7215D01*
X17077Y7218D01*
D02*
G37*
G36*
X12250Y7206D02*
X12229Y7202D01*
X12210Y7190D01*
X12198Y7171D01*
X12194Y7150D01*
X12198Y7129D01*
X12210Y7110D01*
X12229Y7098D01*
X12250Y7094D01*
X12271Y7098D01*
X12290Y7110D01*
X12302Y7129D01*
X12306Y7150D01*
X12302Y7171D01*
X12290Y7190D01*
X12271Y7202D01*
X12250Y7206D01*
D02*
G37*
G36*
X9165Y7053D02*
X9151Y7050D01*
X9140Y7043D01*
X9132Y7031D01*
X9129Y7018D01*
X9132Y7004D01*
X9140Y6992D01*
X9151Y6985D01*
X9165Y6982D01*
X9179Y6985D01*
X9190Y6992D01*
X9198Y7004D01*
X9201Y7018D01*
X9198Y7031D01*
X9190Y7043D01*
X9179Y7050D01*
X9165Y7053D01*
D02*
G37*
G36*
X19423Y7058D02*
X19408Y7055D01*
X19395Y7047D01*
X19387Y7035D01*
X19384Y7020D01*
X19387Y7005D01*
X19395Y6993D01*
X19408Y6985D01*
X19423Y6982D01*
X19437Y6985D01*
X19450Y6993D01*
X19458Y7005D01*
X19461Y7020D01*
X19458Y7035D01*
X19450Y7047D01*
X19437Y7055D01*
X19423Y7058D01*
D02*
G37*
G36*
X19035Y6958D02*
X19020Y6955D01*
X19008Y6947D01*
X19000Y6935D01*
X18997Y6920D01*
X19000Y6905D01*
X19008Y6893D01*
X19015Y6888D01*
X19013Y6879D01*
X19011Y6875D01*
X18998Y6873D01*
X18985Y6865D01*
X18977Y6852D01*
X18974Y6838D01*
X18977Y6823D01*
X18985Y6810D01*
X18998Y6802D01*
X19012Y6799D01*
X19027Y6802D01*
X19040Y6810D01*
X19048Y6823D01*
X19051Y6838D01*
X19048Y6852D01*
X19040Y6865D01*
X19032Y6869D01*
X19034Y6878D01*
X19036Y6882D01*
X19050Y6885D01*
X19062Y6893D01*
X19070Y6905D01*
X19073Y6920D01*
X19070Y6935D01*
X19062Y6947D01*
X19050Y6955D01*
X19035Y6958D01*
D02*
G37*
G36*
X9165Y6838D02*
X9151Y6835D01*
X9140Y6828D01*
X9132Y6816D01*
X9129Y6803D01*
X9132Y6789D01*
X9140Y6777D01*
X9151Y6770D01*
X9165Y6767D01*
X9179Y6770D01*
X9190Y6777D01*
X9198Y6789D01*
X9201Y6803D01*
X9198Y6816D01*
X9190Y6828D01*
X9179Y6835D01*
X9165Y6838D01*
D02*
G37*
G36*
X18965Y6798D02*
X18950Y6795D01*
X18938Y6787D01*
X18930Y6775D01*
X18927Y6760D01*
X18930Y6745D01*
X18938Y6733D01*
X18950Y6725D01*
X18965Y6722D01*
X18980Y6725D01*
X18992Y6733D01*
X19000Y6745D01*
X19003Y6760D01*
X19000Y6775D01*
X18992Y6787D01*
X18980Y6795D01*
X18965Y6798D01*
D02*
G37*
G36*
X9665Y6763D02*
X9651Y6760D01*
X9640Y6753D01*
X9632Y6741D01*
X9629Y6728D01*
X9632Y6714D01*
X9640Y6702D01*
X9651Y6695D01*
X9665Y6692D01*
X9679Y6695D01*
X9690Y6702D01*
X9698Y6714D01*
X9701Y6728D01*
X9698Y6741D01*
X9690Y6753D01*
X9679Y6760D01*
X9665Y6763D01*
D02*
G37*
G36*
X9805Y6726D02*
X9791Y6723D01*
X9780Y6715D01*
X9772Y6704D01*
X9769Y6690D01*
X9772Y6676D01*
X9780Y6665D01*
X9791Y6657D01*
X9805Y6654D01*
X9819Y6657D01*
X9830Y6665D01*
X9838Y6676D01*
X9841Y6690D01*
X9838Y6704D01*
X9830Y6715D01*
X9819Y6723D01*
X9805Y6726D01*
D02*
G37*
G36*
X9603Y6676D02*
X9589Y6673D01*
X9577Y6665D01*
X9570Y6654D01*
X9567Y6640D01*
X9570Y6626D01*
X9577Y6615D01*
X9589Y6607D01*
X9603Y6604D01*
X9616Y6607D01*
X9628Y6615D01*
X9635Y6626D01*
X9638Y6640D01*
X9635Y6654D01*
X9628Y6665D01*
X9616Y6673D01*
X9603Y6676D01*
D02*
G37*
G36*
X11565Y6674D02*
X11550Y6672D01*
X11538Y6663D01*
X11530Y6651D01*
X11527Y6636D01*
X11530Y6622D01*
X11538Y6609D01*
X11550Y6601D01*
X11565Y6598D01*
X11580Y6601D01*
X11592Y6609D01*
X11600Y6622D01*
X11603Y6636D01*
X11600Y6651D01*
X11592Y6663D01*
X11580Y6672D01*
X11565Y6674D01*
D02*
G37*
G36*
X10150Y6624D02*
X10137Y6621D01*
X10125Y6613D01*
X10118Y6601D01*
X10115Y6588D01*
X10118Y6574D01*
X10125Y6563D01*
X10137Y6555D01*
X10150Y6552D01*
X10164Y6555D01*
X10176Y6563D01*
X10183Y6574D01*
X10186Y6588D01*
X10183Y6601D01*
X10176Y6613D01*
X10164Y6621D01*
X10150Y6624D01*
D02*
G37*
G36*
X9162Y6621D02*
X9149Y6618D01*
X9137Y6610D01*
X9130Y6599D01*
X9127Y6585D01*
X9130Y6571D01*
X9137Y6560D01*
X9149Y6552D01*
X9162Y6549D01*
X9176Y6552D01*
X9188Y6560D01*
X9195Y6571D01*
X9198Y6585D01*
X9195Y6599D01*
X9188Y6610D01*
X9176Y6618D01*
X9162Y6621D01*
D02*
G37*
G36*
X17615Y6610D02*
X17600Y6607D01*
X17588Y6599D01*
X17580Y6587D01*
X17577Y6572D01*
X17580Y6557D01*
X17588Y6545D01*
X17600Y6537D01*
X17615Y6534D01*
X17630Y6537D01*
X17642Y6545D01*
X17650Y6557D01*
X17653Y6572D01*
X17650Y6587D01*
X17642Y6599D01*
X17630Y6607D01*
X17615Y6610D01*
D02*
G37*
G36*
X10204Y6555D02*
X10191Y6552D01*
X10179Y6544D01*
X10171Y6533D01*
X10169Y6519D01*
X10171Y6505D01*
X10179Y6494D01*
X10191Y6486D01*
X10204Y6483D01*
X10218Y6486D01*
X10230Y6494D01*
X10237Y6505D01*
X10240Y6519D01*
X10237Y6533D01*
X10230Y6544D01*
X10218Y6552D01*
X10204Y6555D01*
D02*
G37*
G36*
X10376Y6496D02*
X10362Y6493D01*
X10350Y6486D01*
X10343Y6474D01*
X10340Y6460D01*
X10343Y6447D01*
X10350Y6435D01*
X10362Y6427D01*
X10376Y6425D01*
X10389Y6427D01*
X10401Y6435D01*
X10408Y6447D01*
X10411Y6460D01*
X10408Y6474D01*
X10401Y6486D01*
X10389Y6493D01*
X10376Y6496D01*
D02*
G37*
G36*
X10267Y6494D02*
X10254Y6491D01*
X10242Y6484D01*
X10234Y6472D01*
X10232Y6458D01*
X10234Y6445D01*
X10242Y6433D01*
X10254Y6425D01*
X10267Y6423D01*
X10281Y6425D01*
X10293Y6433D01*
X10300Y6445D01*
X10303Y6458D01*
X10300Y6472D01*
X10293Y6484D01*
X10281Y6491D01*
X10267Y6494D01*
D02*
G37*
G36*
X9770Y6488D02*
X9756Y6485D01*
X9745Y6478D01*
X9737Y6466D01*
X9734Y6453D01*
X9737Y6439D01*
X9745Y6427D01*
X9756Y6420D01*
X9770Y6417D01*
X9784Y6420D01*
X9795Y6427D01*
X9803Y6439D01*
X9806Y6453D01*
X9803Y6466D01*
X9795Y6478D01*
X9784Y6485D01*
X9770Y6488D01*
D02*
G37*
G36*
X9615Y6563D02*
X9601Y6560D01*
X9590Y6553D01*
X9582Y6541D01*
X9579Y6528D01*
X9582Y6514D01*
X9590Y6502D01*
X9601Y6495D01*
X9607Y6493D01*
X9610Y6493D01*
Y6480D01*
X9607Y6479D01*
X9601Y6478D01*
X9590Y6470D01*
X9582Y6459D01*
X9579Y6445D01*
X9582Y6431D01*
X9590Y6420D01*
X9601Y6412D01*
X9615Y6409D01*
X9629Y6412D01*
X9640Y6420D01*
X9648Y6431D01*
X9651Y6445D01*
X9648Y6459D01*
X9640Y6470D01*
X9629Y6478D01*
X9623Y6479D01*
X9620Y6480D01*
Y6493D01*
X9623Y6493D01*
X9629Y6495D01*
X9640Y6502D01*
X9648Y6514D01*
X9651Y6528D01*
X9648Y6541D01*
X9640Y6553D01*
X9629Y6560D01*
X9615Y6563D01*
D02*
G37*
G36*
X10875Y6443D02*
X10861Y6440D01*
X10850Y6433D01*
X10842Y6421D01*
X10839Y6407D01*
X10842Y6394D01*
X10850Y6382D01*
X10861Y6375D01*
X10875Y6372D01*
X10889Y6375D01*
X10900Y6382D01*
X10908Y6394D01*
X10911Y6407D01*
X10908Y6421D01*
X10900Y6433D01*
X10889Y6440D01*
X10875Y6443D01*
D02*
G37*
G36*
X10618Y6436D02*
X10604Y6433D01*
X10592Y6425D01*
X10585Y6414D01*
X10582Y6400D01*
X10585Y6386D01*
X10592Y6375D01*
X10604Y6367D01*
X10618Y6364D01*
X10631Y6367D01*
X10643Y6375D01*
X10650Y6386D01*
X10653Y6400D01*
X10650Y6414D01*
X10643Y6425D01*
X10631Y6433D01*
X10618Y6436D01*
D02*
G37*
G36*
X11425Y6438D02*
X11410Y6435D01*
X11398Y6427D01*
X11390Y6415D01*
X11387Y6400D01*
X11390Y6385D01*
X11398Y6373D01*
X11410Y6365D01*
X11425Y6362D01*
X11440Y6365D01*
X11452Y6373D01*
X11460Y6385D01*
X11463Y6400D01*
X11460Y6415D01*
X11452Y6427D01*
X11440Y6435D01*
X11425Y6438D01*
D02*
G37*
G36*
X22700Y6256D02*
X22679Y6252D01*
X22660Y6240D01*
X22648Y6221D01*
X22644Y6200D01*
X22648Y6179D01*
X22660Y6160D01*
X22679Y6148D01*
X22700Y6144D01*
X22721Y6148D01*
X22740Y6160D01*
X22752Y6179D01*
X22756Y6200D01*
X22752Y6221D01*
X22740Y6240D01*
X22721Y6252D01*
X22700Y6256D01*
D02*
G37*
G36*
X21850D02*
X21829Y6252D01*
X21810Y6240D01*
X21798Y6221D01*
X21794Y6200D01*
X21798Y6179D01*
X21810Y6160D01*
X21829Y6148D01*
X21850Y6144D01*
X21871Y6148D01*
X21890Y6160D01*
X21902Y6179D01*
X21906Y6200D01*
X21902Y6221D01*
X21890Y6240D01*
X21871Y6252D01*
X21850Y6256D01*
D02*
G37*
G36*
X21050D02*
X21029Y6252D01*
X21010Y6240D01*
X20998Y6221D01*
X20994Y6200D01*
X20998Y6179D01*
X21010Y6160D01*
X21029Y6148D01*
X21050Y6144D01*
X21071Y6148D01*
X21090Y6160D01*
X21102Y6179D01*
X21106Y6200D01*
X21102Y6221D01*
X21090Y6240D01*
X21071Y6252D01*
X21050Y6256D01*
D02*
G37*
G36*
X20150D02*
X20129Y6252D01*
X20110Y6240D01*
X20098Y6221D01*
X20094Y6200D01*
X20098Y6179D01*
X20110Y6160D01*
X20129Y6148D01*
X20150Y6144D01*
X20171Y6148D01*
X20190Y6160D01*
X20202Y6179D01*
X20206Y6200D01*
X20202Y6221D01*
X20190Y6240D01*
X20171Y6252D01*
X20150Y6256D01*
D02*
G37*
G36*
X8497Y6310D02*
X8473Y6307D01*
X8450Y6297D01*
X8431Y6282D01*
X8416Y6263D01*
X8406Y6240D01*
X8403Y6215D01*
X8406Y6191D01*
X8416Y6168D01*
X8431Y6149D01*
X8450Y6134D01*
X8473Y6124D01*
X8497Y6121D01*
X8522Y6124D01*
X8545Y6134D01*
X8564Y6149D01*
X8579Y6168D01*
X8589Y6191D01*
X8592Y6215D01*
X8589Y6240D01*
X8579Y6263D01*
X8564Y6282D01*
X8545Y6297D01*
X8522Y6307D01*
X8497Y6310D01*
D02*
G37*
G36*
X9425Y6188D02*
X9410Y6185D01*
X9398Y6177D01*
X9390Y6165D01*
X9387Y6150D01*
X9390Y6135D01*
X9398Y6123D01*
X9410Y6115D01*
X9425Y6112D01*
X9440Y6115D01*
X9452Y6123D01*
X9460Y6135D01*
X9463Y6150D01*
X9460Y6165D01*
X9452Y6177D01*
X9440Y6185D01*
X9425Y6188D01*
D02*
G37*
G36*
X8225Y6138D02*
X8210Y6135D01*
X8198Y6127D01*
X8190Y6115D01*
X8187Y6100D01*
X8190Y6085D01*
X8198Y6073D01*
X8210Y6065D01*
X8225Y6062D01*
X8240Y6065D01*
X8252Y6073D01*
X8260Y6085D01*
X8263Y6100D01*
X8260Y6115D01*
X8252Y6127D01*
X8240Y6135D01*
X8225Y6138D01*
D02*
G37*
G36*
X17280Y6100D02*
X17265Y6097D01*
X17253Y6089D01*
X17245Y6077D01*
X17242Y6062D01*
X17245Y6047D01*
X17253Y6035D01*
X17265Y6027D01*
X17280Y6024D01*
X17295Y6027D01*
X17307Y6035D01*
X17315Y6047D01*
X17318Y6062D01*
X17315Y6077D01*
X17307Y6089D01*
X17295Y6097D01*
X17280Y6100D01*
D02*
G37*
G36*
X22700Y6106D02*
X22679Y6102D01*
X22660Y6090D01*
X22648Y6071D01*
X22644Y6050D01*
X22648Y6029D01*
X22660Y6010D01*
X22679Y5998D01*
X22700Y5994D01*
X22721Y5998D01*
X22740Y6010D01*
X22752Y6029D01*
X22756Y6050D01*
X22752Y6071D01*
X22740Y6090D01*
X22721Y6102D01*
X22700Y6106D01*
D02*
G37*
G36*
X21850D02*
X21829Y6102D01*
X21810Y6090D01*
X21798Y6071D01*
X21794Y6050D01*
X21798Y6029D01*
X21810Y6010D01*
X21829Y5998D01*
X21850Y5994D01*
X21871Y5998D01*
X21890Y6010D01*
X21902Y6029D01*
X21906Y6050D01*
X21902Y6071D01*
X21890Y6090D01*
X21871Y6102D01*
X21850Y6106D01*
D02*
G37*
G36*
X21050D02*
X21029Y6102D01*
X21010Y6090D01*
X20998Y6071D01*
X20994Y6050D01*
X20998Y6029D01*
X21010Y6010D01*
X21029Y5998D01*
X21050Y5994D01*
X21071Y5998D01*
X21090Y6010D01*
X21102Y6029D01*
X21106Y6050D01*
X21102Y6071D01*
X21090Y6090D01*
X21071Y6102D01*
X21050Y6106D01*
D02*
G37*
G36*
X20150D02*
X20129Y6102D01*
X20110Y6090D01*
X20098Y6071D01*
X20094Y6050D01*
X20098Y6029D01*
X20110Y6010D01*
X20129Y5998D01*
X20150Y5994D01*
X20171Y5998D01*
X20190Y6010D01*
X20202Y6029D01*
X20206Y6050D01*
X20202Y6071D01*
X20190Y6090D01*
X20171Y6102D01*
X20150Y6106D01*
D02*
G37*
G36*
X9132Y6089D02*
X9078D01*
X9066Y6084D01*
X9061Y6072D01*
Y5903D01*
X9066Y5891D01*
X9078Y5886D01*
X9132D01*
X9144Y5891D01*
X9149Y5903D01*
Y6072D01*
X9144Y6084D01*
X9132Y6089D01*
D02*
G37*
G36*
X8497Y6056D02*
X8473Y6053D01*
X8450Y6043D01*
X8431Y6028D01*
X8416Y6009D01*
X8406Y5986D01*
X8403Y5962D01*
X8406Y5937D01*
X8416Y5914D01*
X8431Y5895D01*
X8450Y5880D01*
X8473Y5870D01*
X8497Y5867D01*
X8522Y5870D01*
X8545Y5880D01*
X8564Y5895D01*
X8579Y5914D01*
X8589Y5937D01*
X8592Y5962D01*
X8589Y5986D01*
X8579Y6009D01*
X8564Y6028D01*
X8545Y6043D01*
X8522Y6053D01*
X8497Y6056D01*
D02*
G37*
G36*
X22700Y5956D02*
X22679Y5952D01*
X22660Y5940D01*
X22648Y5921D01*
X22644Y5900D01*
X22648Y5879D01*
X22660Y5860D01*
X22679Y5848D01*
X22700Y5844D01*
X22721Y5848D01*
X22740Y5860D01*
X22752Y5879D01*
X22756Y5900D01*
X22752Y5921D01*
X22740Y5940D01*
X22721Y5952D01*
X22700Y5956D01*
D02*
G37*
G36*
X21850D02*
X21829Y5952D01*
X21810Y5940D01*
X21798Y5921D01*
X21794Y5900D01*
X21798Y5879D01*
X21810Y5860D01*
X21829Y5848D01*
X21850Y5844D01*
X21871Y5848D01*
X21890Y5860D01*
X21902Y5879D01*
X21906Y5900D01*
X21902Y5921D01*
X21890Y5940D01*
X21871Y5952D01*
X21850Y5956D01*
D02*
G37*
G36*
X21050D02*
X21029Y5952D01*
X21010Y5940D01*
X20998Y5921D01*
X20994Y5900D01*
X20998Y5879D01*
X21010Y5860D01*
X21029Y5848D01*
X21050Y5844D01*
X21071Y5848D01*
X21090Y5860D01*
X21102Y5879D01*
X21106Y5900D01*
X21102Y5921D01*
X21090Y5940D01*
X21071Y5952D01*
X21050Y5956D01*
D02*
G37*
G36*
X20150D02*
X20129Y5952D01*
X20110Y5940D01*
X20098Y5921D01*
X20094Y5900D01*
X20098Y5879D01*
X20110Y5860D01*
X20129Y5848D01*
X20150Y5844D01*
X20171Y5848D01*
X20190Y5860D01*
X20202Y5879D01*
X20206Y5900D01*
X20202Y5921D01*
X20190Y5940D01*
X20171Y5952D01*
X20150Y5956D01*
D02*
G37*
G36*
X18805Y5968D02*
X18790Y5965D01*
X18778Y5957D01*
X18770Y5945D01*
X18767Y5930D01*
X18770Y5915D01*
X18778Y5903D01*
X18790Y5895D01*
X18796Y5893D01*
X18799Y5893D01*
Y5880D01*
X18796Y5879D01*
X18788Y5878D01*
X18775Y5870D01*
X18767Y5857D01*
X18764Y5842D01*
X18767Y5828D01*
X18775Y5815D01*
X18788Y5807D01*
X18802Y5804D01*
X18817Y5807D01*
X18830Y5815D01*
X18838Y5828D01*
X18841Y5842D01*
X18838Y5857D01*
X18830Y5870D01*
X18817Y5878D01*
X18811Y5879D01*
X18809Y5880D01*
Y5892D01*
X18812Y5893D01*
X18820Y5895D01*
X18832Y5903D01*
X18840Y5915D01*
X18843Y5930D01*
X18840Y5945D01*
X18832Y5957D01*
X18820Y5965D01*
X18805Y5968D01*
D02*
G37*
G36*
X22700Y5806D02*
X22679Y5802D01*
X22660Y5790D01*
X22648Y5771D01*
X22644Y5750D01*
X22648Y5729D01*
X22660Y5710D01*
X22679Y5698D01*
X22700Y5694D01*
X22721Y5698D01*
X22740Y5710D01*
X22752Y5729D01*
X22756Y5750D01*
X22752Y5771D01*
X22740Y5790D01*
X22721Y5802D01*
X22700Y5806D01*
D02*
G37*
G36*
X21850D02*
X21829Y5802D01*
X21810Y5790D01*
X21798Y5771D01*
X21794Y5750D01*
X21798Y5729D01*
X21810Y5710D01*
X21829Y5698D01*
X21850Y5694D01*
X21871Y5698D01*
X21890Y5710D01*
X21902Y5729D01*
X21906Y5750D01*
X21902Y5771D01*
X21890Y5790D01*
X21871Y5802D01*
X21850Y5806D01*
D02*
G37*
G36*
X21050D02*
X21029Y5802D01*
X21010Y5790D01*
X20998Y5771D01*
X20994Y5750D01*
X20998Y5729D01*
X21010Y5710D01*
X21029Y5698D01*
X21050Y5694D01*
X21071Y5698D01*
X21090Y5710D01*
X21102Y5729D01*
X21106Y5750D01*
X21102Y5771D01*
X21090Y5790D01*
X21071Y5802D01*
X21050Y5806D01*
D02*
G37*
G36*
X20150D02*
X20129Y5802D01*
X20110Y5790D01*
X20098Y5771D01*
X20094Y5750D01*
X20098Y5729D01*
X20110Y5710D01*
X20129Y5698D01*
X20150Y5694D01*
X20171Y5698D01*
X20190Y5710D01*
X20202Y5729D01*
X20206Y5750D01*
X20202Y5771D01*
X20190Y5790D01*
X20171Y5802D01*
X20150Y5806D01*
D02*
G37*
G36*
X22700Y5656D02*
X22679Y5652D01*
X22660Y5640D01*
X22648Y5621D01*
X22644Y5600D01*
X22648Y5579D01*
X22660Y5560D01*
X22679Y5548D01*
X22700Y5544D01*
X22721Y5548D01*
X22740Y5560D01*
X22752Y5579D01*
X22756Y5600D01*
X22752Y5621D01*
X22740Y5640D01*
X22721Y5652D01*
X22700Y5656D01*
D02*
G37*
G36*
X21850D02*
X21829Y5652D01*
X21810Y5640D01*
X21798Y5621D01*
X21794Y5600D01*
X21798Y5579D01*
X21810Y5560D01*
X21829Y5548D01*
X21850Y5544D01*
X21871Y5548D01*
X21890Y5560D01*
X21902Y5579D01*
X21906Y5600D01*
X21902Y5621D01*
X21890Y5640D01*
X21871Y5652D01*
X21850Y5656D01*
D02*
G37*
G36*
X21050D02*
X21029Y5652D01*
X21010Y5640D01*
X20998Y5621D01*
X20994Y5600D01*
X20998Y5579D01*
X21010Y5560D01*
X21029Y5548D01*
X21050Y5544D01*
X21071Y5548D01*
X21090Y5560D01*
X21102Y5579D01*
X21106Y5600D01*
X21102Y5621D01*
X21090Y5640D01*
X21071Y5652D01*
X21050Y5656D01*
D02*
G37*
G36*
X20150D02*
X20129Y5652D01*
X20110Y5640D01*
X20098Y5621D01*
X20094Y5600D01*
X20098Y5579D01*
X20110Y5560D01*
X20129Y5548D01*
X20150Y5544D01*
X20171Y5548D01*
X20190Y5560D01*
X20202Y5579D01*
X20206Y5600D01*
X20202Y5621D01*
X20190Y5640D01*
X20171Y5652D01*
X20150Y5656D01*
D02*
G37*
G36*
X14300Y7346D02*
X14285Y7343D01*
X14273Y7335D01*
X14265Y7322D01*
X14262Y7307D01*
X14265Y7293D01*
X14273Y7280D01*
X14285Y7272D01*
X14300Y7269D01*
X14315Y7272D01*
X14327Y7280D01*
X14335Y7293D01*
X14338Y7307D01*
X14335Y7322D01*
X14327Y7335D01*
X14315Y7343D01*
X14300Y7346D01*
D02*
G37*
G36*
X14245Y7246D02*
X14224Y7242D01*
X14205Y7230D01*
X14193Y7211D01*
X14189Y7190D01*
X14193Y7169D01*
X14205Y7150D01*
X14224Y7138D01*
X14245Y7134D01*
X14266Y7138D01*
X14285Y7150D01*
X14297Y7169D01*
X14301Y7190D01*
X14297Y7211D01*
X14285Y7230D01*
X14266Y7242D01*
X14245Y7246D01*
D02*
G37*
G36*
X13200Y7106D02*
X13179Y7102D01*
X13160Y7090D01*
X13148Y7071D01*
X13144Y7050D01*
X13148Y7029D01*
X13160Y7010D01*
X13179Y6998D01*
X13200Y6994D01*
X13221Y6998D01*
X13240Y7010D01*
X13252Y7029D01*
X13256Y7050D01*
X13252Y7071D01*
X13240Y7090D01*
X13221Y7102D01*
X13200Y7106D01*
D02*
G37*
G36*
Y6956D02*
X13179Y6952D01*
X13160Y6940D01*
X13148Y6921D01*
X13144Y6900D01*
X13148Y6879D01*
X13160Y6860D01*
X13179Y6848D01*
X13200Y6844D01*
X13221Y6848D01*
X13240Y6860D01*
X13252Y6879D01*
X13256Y6900D01*
X13252Y6921D01*
X13240Y6940D01*
X13221Y6952D01*
X13200Y6956D01*
D02*
G37*
G36*
Y6831D02*
X13179Y6827D01*
X13160Y6815D01*
X13148Y6796D01*
X13144Y6775D01*
X13148Y6754D01*
X13160Y6735D01*
X13179Y6723D01*
X13200Y6719D01*
X13221Y6723D01*
X13240Y6735D01*
X13252Y6754D01*
X13256Y6775D01*
X13252Y6796D01*
X13240Y6815D01*
X13221Y6827D01*
X13200Y6831D01*
D02*
G37*
G36*
X13050D02*
X13029Y6827D01*
X13010Y6815D01*
X12998Y6796D01*
X12994Y6775D01*
X12998Y6754D01*
X13010Y6735D01*
X13029Y6723D01*
X13050Y6719D01*
X13071Y6723D01*
X13090Y6735D01*
X13102Y6754D01*
X13106Y6775D01*
X13102Y6796D01*
X13090Y6815D01*
X13071Y6827D01*
X13050Y6831D01*
D02*
G37*
G36*
X12900D02*
X12879Y6827D01*
X12860Y6815D01*
X12848Y6796D01*
X12844Y6775D01*
X12848Y6754D01*
X12860Y6735D01*
X12879Y6723D01*
X12900Y6719D01*
X12921Y6723D01*
X12940Y6735D01*
X12952Y6754D01*
X12956Y6775D01*
X12952Y6796D01*
X12940Y6815D01*
X12921Y6827D01*
X12900Y6831D01*
D02*
G37*
G36*
X12750D02*
X12729Y6827D01*
X12710Y6815D01*
X12698Y6796D01*
X12694Y6775D01*
X12698Y6754D01*
X12710Y6735D01*
X12729Y6723D01*
X12750Y6719D01*
X12771Y6723D01*
X12790Y6735D01*
X12802Y6754D01*
X12806Y6775D01*
X12802Y6796D01*
X12790Y6815D01*
X12771Y6827D01*
X12750Y6831D01*
D02*
G37*
G36*
X12600D02*
X12579Y6827D01*
X12560Y6815D01*
X12548Y6796D01*
X12544Y6775D01*
X12548Y6754D01*
X12560Y6735D01*
X12579Y6723D01*
X12600Y6719D01*
X12621Y6723D01*
X12640Y6735D01*
X12652Y6754D01*
X12656Y6775D01*
X12652Y6796D01*
X12640Y6815D01*
X12621Y6827D01*
X12600Y6831D01*
D02*
G37*
G36*
X14900Y7313D02*
X14885Y7310D01*
X14873Y7302D01*
X14865Y7290D01*
X14862Y7275D01*
X14865Y7260D01*
X14873Y7248D01*
X14885Y7240D01*
X14900Y7237D01*
X14915Y7240D01*
X14927Y7248D01*
X14935Y7260D01*
X14938Y7275D01*
X14935Y7290D01*
X14927Y7302D01*
X14915Y7310D01*
X14900Y7313D01*
D02*
G37*
G36*
X16125Y6418D02*
X16110Y6415D01*
X16098Y6407D01*
X16090Y6395D01*
X16087Y6380D01*
X16090Y6365D01*
X16098Y6353D01*
X16110Y6345D01*
X16125Y6342D01*
X16140Y6345D01*
X16152Y6353D01*
X16160Y6365D01*
X16163Y6380D01*
X16160Y6395D01*
X16152Y6407D01*
X16140Y6415D01*
X16125Y6418D01*
D02*
G37*
%LPD*%
D68*
X7060Y11297D02*
D03*
D128*
X8497Y5708D02*
D03*
D135*
X11728Y7892D02*
D03*
X8468Y8842D02*
D03*
D136*
X8722D02*
D03*
D138*
X22477Y11565D02*
D03*
X22577D02*
D03*
X19698Y10543D02*
D03*
X21517Y12060D02*
D03*
X21690Y10568D02*
D03*
X21623Y8132D02*
D03*
X23330Y12488D02*
D03*
X23223Y12973D02*
D03*
X22920Y10295D02*
D03*
X20673Y7345D02*
D03*
X22380Y7630D02*
D03*
X19677Y11460D02*
D03*
X9397Y7249D02*
D03*
X12005Y6038D02*
D03*
X19977Y12535D02*
D03*
X19927Y12635D02*
D03*
X19502Y12060D02*
D03*
X19702Y12485D02*
D03*
X20702Y11735D02*
D03*
X20602D02*
D03*
X20502D02*
D03*
Y11660D02*
D03*
X20602D02*
D03*
X20702D02*
D03*
Y11585D02*
D03*
X20602D02*
D03*
X20502D02*
D03*
X20402Y11760D02*
D03*
X21675Y11773D02*
D03*
X19677Y11635D02*
D03*
X22632Y11700D02*
D03*
X22277Y11790D02*
D03*
X22527Y11700D02*
D03*
X22577Y11640D02*
D03*
X22477D02*
D03*
X21675Y11435D02*
D03*
X22347Y11655D02*
D03*
X22007Y12495D02*
D03*
X21907Y12620D02*
D03*
X9260Y7488D02*
D03*
X9505Y6803D02*
D03*
X9503Y6585D02*
D03*
X9700Y12200D02*
D03*
X9500Y12025D02*
D03*
X11425Y6175D02*
D03*
X11225Y6100D02*
D03*
X12250Y6900D02*
D03*
X11735Y8022D02*
D03*
X17282Y7917D02*
D03*
X7262Y9910D02*
D03*
X7745Y11525D02*
D03*
X12760Y9722D02*
D03*
X8468Y8955D02*
D03*
X8722Y8945D02*
D03*
X7955Y9820D02*
D03*
X17280Y5682D02*
D03*
X17282Y6442D02*
D03*
Y6804D02*
D03*
X17080Y7562D02*
D03*
X17075Y8679D02*
D03*
X11838Y6521D02*
D03*
X8225Y5760D02*
D03*
X10516Y8660D02*
D03*
X9105Y9475D02*
D03*
X11705Y10765D02*
D03*
X10885Y11618D02*
D03*
X13605Y10157D02*
D03*
X13782Y12012D02*
D03*
X14293Y12007D02*
D03*
X15850Y11472D02*
D03*
X15840Y10520D02*
D03*
X14507Y10153D02*
D03*
X13962Y10157D02*
D03*
X11442Y9700D02*
D03*
X11253Y11232D02*
D03*
X10593Y11893D02*
D03*
X9437Y11475D02*
D03*
X9055Y11075D02*
D03*
X8595Y10612D02*
D03*
X9447Y9132D02*
D03*
X11190Y9312D02*
D03*
D139*
X13775Y12525D02*
D03*
X13875Y12425D02*
D03*
X13775D02*
D03*
Y12625D02*
D03*
X13875Y12525D02*
D03*
X16925Y9975D02*
D03*
X17125Y10125D02*
D03*
X17025Y9975D02*
D03*
X16925Y10500D02*
D03*
X17125Y10575D02*
D03*
X17025Y10125D02*
D03*
X17225Y10575D02*
D03*
X17125Y10275D02*
D03*
X14930Y8482D02*
D03*
X15032Y8557D02*
D03*
X16150Y5625D02*
D03*
X16350D02*
D03*
X16500Y5650D02*
D03*
X16150Y5775D02*
D03*
X16350D02*
D03*
X16550D02*
D03*
X16150Y5925D02*
D03*
X16350D02*
D03*
X16550Y6075D02*
D03*
X16350D02*
D03*
X16150D02*
D03*
X15025Y7600D02*
D03*
X14650Y8125D02*
D03*
Y7975D02*
D03*
X15127Y8482D02*
D03*
X15525Y6725D02*
D03*
X15375D02*
D03*
X15225D02*
D03*
X15375Y6850D02*
D03*
X15225D02*
D03*
X15075Y6475D02*
D03*
Y6600D02*
D03*
Y6725D02*
D03*
Y6850D02*
D03*
X13852Y6200D02*
D03*
X13700D02*
D03*
X13550D02*
D03*
X13375D02*
D03*
X13225D02*
D03*
X13075D02*
D03*
X12925Y6050D02*
D03*
X13075D02*
D03*
X13225D02*
D03*
X13375D02*
D03*
X13550D02*
D03*
X13700D02*
D03*
X13850D02*
D03*
X12925Y5875D02*
D03*
X13075D02*
D03*
X13225D02*
D03*
X13375D02*
D03*
X13550D02*
D03*
X13700D02*
D03*
X13850D02*
D03*
Y5700D02*
D03*
X13700D02*
D03*
X13550D02*
D03*
X13375D02*
D03*
X13225D02*
D03*
X13075D02*
D03*
X12925D02*
D03*
X11425Y12300D02*
D03*
X11275D02*
D03*
X11125D02*
D03*
X10975D02*
D03*
X10825D02*
D03*
X10650D02*
D03*
X6075Y10125D02*
D03*
X6200D02*
D03*
X6325D02*
D03*
X6450D02*
D03*
X6575D02*
D03*
X6700D02*
D03*
X6075Y9725D02*
D03*
X6200D02*
D03*
X6325D02*
D03*
X6450D02*
D03*
X6575D02*
D03*
X6700D02*
D03*
X6075Y9825D02*
D03*
X6200D02*
D03*
X6325D02*
D03*
X6450D02*
D03*
X6575D02*
D03*
X6700D02*
D03*
X6075Y9925D02*
D03*
X6200D02*
D03*
X6325D02*
D03*
X6450D02*
D03*
X6575D02*
D03*
X6700D02*
D03*
Y10025D02*
D03*
X6575D02*
D03*
X6450D02*
D03*
X6325D02*
D03*
X6200D02*
D03*
X6075D02*
D03*
X17325Y10500D02*
D03*
Y9975D02*
D03*
X17025Y10575D02*
D03*
Y10425D02*
D03*
Y10275D02*
D03*
X17125Y10425D02*
D03*
Y9975D02*
D03*
X17225Y10425D02*
D03*
Y10275D02*
D03*
Y10125D02*
D03*
Y9975D02*
D03*
X13590Y12520D02*
D03*
X13390D02*
D03*
X13190D02*
D03*
X13590Y12720D02*
D03*
X13390D02*
D03*
X13190D02*
D03*
Y12920D02*
D03*
X13390D02*
D03*
X13590D02*
D03*
X13875Y13125D02*
D03*
Y13025D02*
D03*
Y12925D02*
D03*
Y12825D02*
D03*
Y12725D02*
D03*
Y12625D02*
D03*
X13775Y12725D02*
D03*
Y12825D02*
D03*
Y12925D02*
D03*
Y13025D02*
D03*
Y13125D02*
D03*
D140*
X10022Y8853D02*
D03*
M02*
