G04*
G04 #@! TF.GenerationSoftware,Altium Limited,Altium Designer,19.1.9 (167)*
G04*
G04 Layer_Color=32768*
%FSLAX42Y42*%
%MOMM*%
G71*
G01*
G75*
%ADD10C,0.10*%
%ADD14C,0.20*%
%ADD143C,0.05*%
D10*
X20702Y8937D02*
X20802D01*
X20752Y8887D02*
Y8987D01*
D14*
X14860Y12488D02*
Y12877D01*
Y12488D02*
X15375D01*
Y12877D01*
X14860D02*
X15375D01*
X14885Y6693D02*
Y6893D01*
X14445D02*
X14885D01*
X14445Y6693D02*
Y6893D01*
Y6693D02*
X14885D01*
X15188Y5822D02*
X15657D01*
Y6643D01*
X15188D02*
X15657D01*
X15188Y5822D02*
Y6643D01*
X12582Y7735D02*
X13052D01*
X12582Y6915D02*
Y7735D01*
Y6915D02*
X13052D01*
Y7735D01*
X16945Y11522D02*
X17335D01*
Y12038D01*
X16945D02*
X17335D01*
X16945Y11522D02*
Y12038D01*
X6640Y5920D02*
X6840D01*
Y6360D01*
X6640D02*
X6840D01*
X6640Y5920D02*
Y6360D01*
X7481Y7397D02*
Y7878D01*
X6660D02*
X7481D01*
X6660Y7397D02*
Y7878D01*
Y7397D02*
X7481D01*
X11415Y12690D02*
Y13360D01*
Y12690D02*
X12194D01*
Y13360D01*
X11415D02*
X12194D01*
X17807Y7836D02*
Y8886D01*
X17093D02*
X17807D01*
X17093Y7836D02*
Y8886D01*
Y7836D02*
X17807D01*
X18252Y8207D02*
X18532D01*
X18252Y7847D02*
Y8207D01*
Y7847D02*
X18532D01*
Y8207D01*
X18257Y8675D02*
X18538D01*
X18257Y8314D02*
Y8675D01*
Y8314D02*
X18538D01*
Y8675D01*
X17807Y6719D02*
Y7769D01*
X17093D02*
X17807D01*
X17093Y6719D02*
Y7769D01*
Y6719D02*
X17807D01*
X18250Y7087D02*
X18530D01*
X18250Y6727D02*
Y7087D01*
Y6727D02*
X18530D01*
Y7087D01*
X18250Y7552D02*
X18530D01*
X18250Y7192D02*
Y7552D01*
Y7192D02*
X18530D01*
Y7552D01*
X7695Y9350D02*
X8062Y8982D01*
X8550Y9470D01*
X8183Y9838D02*
X8550Y9470D01*
X7695Y9350D02*
X8183Y9838D01*
X17807Y5600D02*
Y6650D01*
X17093D02*
X17807D01*
X17093Y5600D02*
Y6650D01*
Y5600D02*
X17807D01*
X18255Y5977D02*
X18535D01*
X18255Y5617D02*
Y5977D01*
Y5617D02*
X18535D01*
Y5977D01*
X18257Y6437D02*
X18538D01*
X18257Y6077D02*
Y6437D01*
Y6077D02*
X18538D01*
Y6437D01*
X7007Y11670D02*
Y14295D01*
Y11670D02*
X8926D01*
Y14295D01*
X7007D02*
X8926D01*
X10232Y8688D02*
X11845Y10300D01*
X10232Y11912D02*
X11845Y10300D01*
X8620D02*
X10232Y11912D01*
X8620Y10300D02*
X10232Y8688D01*
X7312Y11425D02*
Y11625D01*
Y11425D02*
X7732D01*
Y11625D01*
X7312D02*
X7732D01*
X12148Y5579D02*
X12442D01*
Y6356D01*
X12148D02*
X12442D01*
X12148Y5579D02*
Y6356D01*
X8350Y5573D02*
X8644D01*
Y6350D01*
X8350D02*
X8644D01*
X8350Y5573D02*
Y6350D01*
X21935Y5510D02*
Y6190D01*
Y5510D02*
X22615D01*
Y6190D01*
X21935D02*
X22615D01*
X21635Y11213D02*
Y11328D01*
Y11213D02*
X21855D01*
Y11328D01*
X21635D02*
X21855D01*
X20260Y5510D02*
Y6190D01*
Y5510D02*
X20940D01*
Y6190D01*
X20260D02*
X20940D01*
X22350Y11980D02*
X22465D01*
X22350Y11760D02*
Y11980D01*
Y11760D02*
X22465D01*
Y11980D01*
X23160Y13010D02*
X23455D01*
Y13370D01*
X23160D02*
X23455D01*
X23160Y13010D02*
Y13370D01*
X23040Y12410D02*
X23380D01*
X23040Y11810D02*
Y12410D01*
Y11810D02*
X23380D01*
Y12410D01*
X19875Y11230D02*
Y11345D01*
X19655D02*
X19875D01*
X19655Y11230D02*
Y11345D01*
Y11230D02*
X19875D01*
X20470Y12013D02*
X20585D01*
X20470Y11793D02*
Y12013D01*
Y11793D02*
X20585D01*
Y12013D01*
D143*
X20622Y8677D02*
Y9197D01*
X21302Y8677D02*
Y9197D01*
X20622D02*
X21302D01*
X20622Y8677D02*
X21302D01*
M02*
