G04*
G04 #@! TF.GenerationSoftware,Altium Limited,Altium Designer,19.1.9 (167)*
G04*
G04 Layer_Color=2752767*
%FSLAX42Y42*%
%MOMM*%
G71*
G01*
G75*
%ADD145C,0.05*%
%ADD146C,0.07*%
D145*
X7040Y11277D02*
Y11318D01*
X7080D01*
Y11277D01*
X7040D01*
X11728Y7871D02*
X11708Y7912D01*
X11748D01*
X11728Y7871D01*
X11982D02*
X11962Y7912D01*
X12002D01*
X11982Y7871D01*
X11728Y7617D02*
X11708Y7658D01*
X11748D01*
X11728Y7617D01*
Y7363D02*
X11708Y7404D01*
X11748D01*
X11728Y7363D01*
X11982Y7617D02*
X11962Y7658D01*
X12002D01*
X11982Y7617D01*
Y7363D02*
X11962Y7404D01*
X12002D01*
X11982Y7363D01*
X11622Y8892D02*
X11633Y8902D01*
X11643D01*
X11633Y8912D01*
X11643Y8923D01*
X11633D01*
X11622Y8933D01*
X11612Y8923D01*
X11602D01*
X11612Y8912D01*
X11602Y8902D01*
X11612D01*
X11622Y8892D01*
X11968Y9237D02*
X11978Y9247D01*
X11988D01*
X11978Y9258D01*
X11988Y9268D01*
X11978D01*
X11968Y9278D01*
X11957Y9268D01*
X11947D01*
X11957Y9258D01*
X11947Y9247D01*
X11957D01*
X11968Y9237D01*
X8468Y8821D02*
X8448Y8862D01*
X8488D01*
X8468Y8821D01*
X8722D02*
X8702Y8862D01*
X8742D01*
X8722Y8821D01*
X8468Y8567D02*
X8448Y8608D01*
X8488D01*
X8468Y8567D01*
Y8313D02*
X8448Y8354D01*
X8488D01*
X8468Y8313D01*
X8722Y8567D02*
X8702Y8608D01*
X8742D01*
X8722Y8567D01*
Y8313D02*
X8702Y8354D01*
X8742D01*
X8722Y8313D01*
X12295Y6201D02*
X12275Y6242D01*
X12315D01*
X12295Y6201D01*
Y5947D02*
X12275Y5988D01*
X12315D01*
X12295Y5947D01*
Y5693D02*
X12275Y5734D01*
X12315D01*
X12295Y5693D01*
X8497Y6195D02*
X8477Y6236D01*
X8518D01*
X8497Y6195D01*
Y5941D02*
X8477Y5982D01*
X8518D01*
X8497Y5941D01*
Y5687D02*
X8477Y5728D01*
X8518D01*
X8497Y5687D01*
X20162Y13315D02*
X20172Y13335D01*
X20162Y13355D01*
X20182Y13345D01*
X20203Y13355D01*
X20193Y13335D01*
X20203Y13315D01*
X20182Y13325D01*
X20162Y13315D01*
X22132Y13307D02*
X22142Y13327D01*
X22132Y13348D01*
X22152Y13338D01*
X22173Y13348D01*
X22163Y13327D01*
X22173Y13307D01*
X22152Y13317D01*
X22132Y13307D01*
X9792Y11870D02*
X9802Y11890D01*
X9792Y11910D01*
X9812Y11900D01*
X9833Y11910D01*
X9823Y11890D01*
X9833Y11870D01*
X9812Y11880D01*
X9792Y11870D01*
X23070Y12572D02*
X23080Y12593D01*
X23070Y12613D01*
X23090Y12603D01*
X23110Y12613D01*
X23100Y12593D01*
X23110Y12572D01*
X23090Y12582D01*
X23070Y12572D01*
X10032Y12055D02*
X10042Y12075D01*
X10032Y12095D01*
X10053Y12085D01*
X10073Y12095D01*
X10063Y12075D01*
X10073Y12055D01*
X10053Y12065D01*
X10032Y12055D01*
X23137Y12500D02*
X23147Y12520D01*
X23137Y12540D01*
X23157Y12530D01*
X23178Y12540D01*
X23168Y12520D01*
X23178Y12500D01*
X23157Y12510D01*
X23137Y12500D01*
X17815Y12140D02*
Y12130D01*
X17835D01*
Y12140D01*
X17845D01*
Y12160D01*
X17835D01*
Y12170D01*
X17815D01*
Y12160D01*
X17805D01*
Y12140D01*
X17815D01*
X16440Y11990D02*
Y11980D01*
X16460D01*
Y11990D01*
X16470D01*
Y12010D01*
X16460D01*
Y12020D01*
X16440D01*
Y12010D01*
X16430D01*
Y11990D01*
X16440D01*
Y12115D02*
Y12105D01*
X16460D01*
Y12115D01*
X16470D01*
Y12135D01*
X16460D01*
Y12145D01*
X16440D01*
Y12135D01*
X16430D01*
Y12115D01*
X16440D01*
Y11865D02*
Y11855D01*
X16460D01*
Y11865D01*
X16470D01*
Y11885D01*
X16460D01*
Y11895D01*
X16440D01*
Y11885D01*
X16430D01*
Y11865D01*
X16440D01*
X22177Y13165D02*
X22187Y13185D01*
X22177Y13205D01*
X22198Y13195D01*
X22218Y13205D01*
X22208Y13185D01*
X22218Y13165D01*
X22198Y13175D01*
X22177Y13165D01*
X17340Y11990D02*
Y11980D01*
X17360D01*
Y11990D01*
X17370D01*
Y12010D01*
X17360D01*
Y12020D01*
X17340D01*
Y12010D01*
X17330D01*
Y11990D01*
X17340D01*
X9327Y10707D02*
X9337Y10728D01*
X9327Y10748D01*
X9347Y10738D01*
X9368Y10748D01*
X9358Y10728D01*
X9368Y10707D01*
X9347Y10717D01*
X9327Y10707D01*
X20175Y13180D02*
X20185Y13200D01*
X20175Y13220D01*
X20195Y13210D01*
X20215Y13220D01*
X20205Y13200D01*
X20215Y13180D01*
X20195Y13190D01*
X20175Y13180D01*
X19832Y13065D02*
X19842Y13085D01*
X19832Y13105D01*
X19852Y13095D01*
X19873Y13105D01*
X19862Y13085D01*
X19873Y13065D01*
X19852Y13075D01*
X19832Y13065D01*
X13765Y12515D02*
Y12505D01*
X13785D01*
Y12515D01*
X13795D01*
Y12535D01*
X13785D01*
Y12545D01*
X13765D01*
Y12535D01*
X13755D01*
Y12515D01*
X13765D01*
X13865Y12415D02*
Y12405D01*
X13885D01*
Y12415D01*
X13895D01*
Y12435D01*
X13885D01*
Y12445D01*
X13865D01*
Y12435D01*
X13855D01*
Y12415D01*
X13865D01*
X13765D02*
Y12405D01*
X13785D01*
Y12415D01*
X13795D01*
Y12435D01*
X13785D01*
Y12445D01*
X13765D01*
Y12435D01*
X13755D01*
Y12415D01*
X13765D01*
Y12615D02*
Y12605D01*
X13785D01*
Y12615D01*
X13795D01*
Y12635D01*
X13785D01*
Y12645D01*
X13765D01*
Y12635D01*
X13755D01*
Y12615D01*
X13765D01*
X13865Y12515D02*
Y12505D01*
X13885D01*
Y12515D01*
X13895D01*
Y12535D01*
X13885D01*
Y12545D01*
X13865D01*
Y12535D01*
X13855D01*
Y12515D01*
X13865D01*
X15740Y12440D02*
Y12430D01*
X15760D01*
Y12440D01*
X15770D01*
Y12460D01*
X15760D01*
Y12470D01*
X15740D01*
Y12460D01*
X15730D01*
Y12440D01*
X15740D01*
X16590Y11615D02*
Y11605D01*
X16610D01*
Y11615D01*
X16620D01*
Y11635D01*
X16610D01*
Y11645D01*
X16590D01*
Y11635D01*
X16580D01*
Y11615D01*
X16590D01*
X16440Y11740D02*
Y11730D01*
X16460D01*
Y11740D01*
X16470D01*
Y11760D01*
X16460D01*
Y11770D01*
X16440D01*
Y11760D01*
X16430D01*
Y11740D01*
X16440D01*
X9162Y10487D02*
X9172Y10507D01*
X9162Y10528D01*
X9182Y10518D01*
X9203Y10528D01*
X9193Y10507D01*
X9203Y10487D01*
X9182Y10497D01*
X9162Y10487D01*
X9395Y10355D02*
X9405Y10375D01*
X9395Y10395D01*
X9415Y10385D01*
X9435Y10395D01*
X9425Y10375D01*
X9435Y10355D01*
X9415Y10365D01*
X9395Y10355D01*
X9292Y10375D02*
X9302Y10395D01*
X9292Y10415D01*
X9312Y10405D01*
X9333Y10415D01*
X9323Y10395D01*
X9333Y10375D01*
X9312Y10385D01*
X9292Y10375D01*
X20253Y12198D02*
X20263Y12218D01*
X20253Y12238D01*
X20273Y12228D01*
X20294Y12238D01*
X20284Y12218D01*
X20294Y12198D01*
X20273Y12208D01*
X20253Y12198D01*
X21470Y12325D02*
X21480Y12345D01*
X21470Y12365D01*
X21490Y12355D01*
X21510Y12365D01*
X21500Y12345D01*
X21510Y12325D01*
X21490Y12335D01*
X21470Y12325D01*
X21297Y12195D02*
X21307Y12215D01*
X21297Y12235D01*
X21318Y12225D01*
X21338Y12235D01*
X21328Y12215D01*
X21338Y12195D01*
X21318Y12205D01*
X21297Y12195D01*
X19354Y12168D02*
X19364Y12188D01*
X19354Y12209D01*
X19374Y12199D01*
X19394Y12209D01*
X19384Y12188D01*
X19394Y12168D01*
X19374Y12178D01*
X19354Y12168D01*
X19299Y11382D02*
X19310Y11403D01*
X19299Y11423D01*
X19320Y11413D01*
X19340Y11423D01*
X19330Y11403D01*
X19340Y11382D01*
X19320Y11392D01*
X19299Y11382D01*
X17815Y10940D02*
Y10930D01*
X17835D01*
Y10940D01*
X17845D01*
Y10960D01*
X17835D01*
Y10970D01*
X17815D01*
Y10960D01*
X17805D01*
Y10940D01*
X17815D01*
X11075Y8787D02*
X11085Y8807D01*
X11075Y8828D01*
X11095Y8818D01*
X11115Y8828D01*
X11105Y8807D01*
X11115Y8787D01*
X11095Y8797D01*
X11075Y8787D01*
X11133Y8860D02*
X11143Y8880D01*
X11133Y8901D01*
X11153Y8891D01*
X11173Y8901D01*
X11163Y8880D01*
X11173Y8860D01*
X11153Y8870D01*
X11133Y8860D01*
X21355Y12135D02*
X21365Y12155D01*
X21355Y12175D01*
X21375Y12165D01*
X21395Y12175D01*
X21385Y12155D01*
X21395Y12135D01*
X21375Y12145D01*
X21355Y12135D01*
X22457Y11545D02*
X22467Y11565D01*
X22457Y11586D01*
X22477Y11575D01*
X22497Y11586D01*
X22487Y11565D01*
X22497Y11545D01*
X22477Y11555D01*
X22457Y11545D01*
X22557D02*
X22567Y11565D01*
X22557Y11586D01*
X22577Y11575D01*
X22597Y11586D01*
X22587Y11565D01*
X22597Y11545D01*
X22577Y11555D01*
X22557Y11545D01*
X19680Y10430D02*
X19690Y10450D01*
X19680Y10470D01*
X19700Y10460D01*
X19720Y10470D01*
X19710Y10450D01*
X19720Y10430D01*
X19700Y10440D01*
X19680Y10430D01*
X19677Y10522D02*
X19687Y10543D01*
X19677Y10563D01*
X19698Y10553D01*
X19718Y10563D01*
X19708Y10543D01*
X19718Y10522D01*
X19698Y10532D01*
X19677Y10522D01*
X19420Y12252D02*
X19430Y12272D01*
X19420Y12293D01*
X19440Y12283D01*
X19460Y12293D01*
X19450Y12272D01*
X19460Y12252D01*
X19440Y12262D01*
X19420Y12252D01*
X16915Y9965D02*
Y9955D01*
X16935D01*
Y9965D01*
X16945D01*
Y9985D01*
X16935D01*
Y9995D01*
X16915D01*
Y9985D01*
X16905D01*
Y9965D01*
X16915D01*
X17115Y10115D02*
Y10105D01*
X17135D01*
Y10115D01*
X17145D01*
Y10135D01*
X17135D01*
Y10145D01*
X17115D01*
Y10135D01*
X17105D01*
Y10115D01*
X17115D01*
X17015Y9965D02*
Y9955D01*
X17035D01*
Y9965D01*
X17045D01*
Y9985D01*
X17035D01*
Y9995D01*
X17015D01*
Y9985D01*
X17005D01*
Y9965D01*
X17015D01*
X16915Y10490D02*
Y10480D01*
X16935D01*
Y10490D01*
X16945D01*
Y10510D01*
X16935D01*
Y10520D01*
X16915D01*
Y10510D01*
X16905D01*
Y10490D01*
X16915D01*
X17115Y10565D02*
Y10555D01*
X17135D01*
Y10565D01*
X17145D01*
Y10585D01*
X17135D01*
Y10595D01*
X17115D01*
Y10585D01*
X17105D01*
Y10565D01*
X17115D01*
X17015Y10115D02*
Y10105D01*
X17035D01*
Y10115D01*
X17045D01*
Y10135D01*
X17035D01*
Y10145D01*
X17015D01*
Y10135D01*
X17005D01*
Y10115D01*
X17015D01*
X21680Y10455D02*
X21690Y10475D01*
X21680Y10495D01*
X21700Y10485D01*
X21720Y10495D01*
X21710Y10475D01*
X21720Y10455D01*
X21700Y10465D01*
X21680Y10455D01*
X17215Y10565D02*
Y10555D01*
X17235D01*
Y10565D01*
X17245D01*
Y10585D01*
X17235D01*
Y10595D01*
X17215D01*
Y10585D01*
X17205D01*
Y10565D01*
X17215D01*
X17115Y10265D02*
Y10255D01*
X17135D01*
Y10265D01*
X17145D01*
Y10285D01*
X17135D01*
Y10295D01*
X17115D01*
Y10285D01*
X17105D01*
Y10265D01*
X17115D01*
X12990Y9712D02*
X13000Y9732D01*
X12990Y9753D01*
X13010Y9743D01*
X13030Y9753D01*
X13020Y9732D01*
X13030Y9712D01*
X13010Y9722D01*
X12990Y9712D01*
X14360Y9855D02*
X14370Y9875D01*
X14360Y9895D01*
X14380Y9885D01*
X14400Y9895D01*
X14390Y9875D01*
X14400Y9855D01*
X14380Y9865D01*
X14360Y9855D01*
X14410Y9920D02*
X14421Y9940D01*
X14410Y9961D01*
X14431Y9951D01*
X14451Y9961D01*
X14441Y9940D01*
X14451Y9920D01*
X14431Y9930D01*
X14410Y9920D01*
X14487Y10010D02*
X14497Y10030D01*
X14487Y10050D01*
X14507Y10040D01*
X14528Y10050D01*
X14518Y10030D01*
X14528Y10010D01*
X14507Y10020D01*
X14487Y10010D01*
X14283Y9810D02*
X14293Y9830D01*
X14283Y9851D01*
X14303Y9841D01*
X14324Y9851D01*
X14313Y9830D01*
X14324Y9810D01*
X14303Y9820D01*
X14283Y9810D01*
X11410Y9822D02*
X11420Y9843D01*
X11410Y9863D01*
X11430Y9853D01*
X11450Y9863D01*
X11440Y9843D01*
X11450Y9822D01*
X11430Y9832D01*
X11410Y9822D01*
X16440Y12790D02*
Y12780D01*
X16460D01*
Y12790D01*
X16470D01*
Y12810D01*
X16460D01*
Y12820D01*
X16440D01*
Y12810D01*
X16430D01*
Y12790D01*
X16440D01*
X10192Y11650D02*
X10202Y11670D01*
X10192Y11690D01*
X10212Y11680D01*
X10233Y11690D01*
X10223Y11670D01*
X10233Y11650D01*
X10212Y11660D01*
X10192Y11650D01*
X19510Y12337D02*
X19520Y12357D01*
X19510Y12378D01*
X19530Y12368D01*
X19550Y12378D01*
X19540Y12357D01*
X19550Y12337D01*
X19530Y12347D01*
X19510Y12337D01*
X21497Y12040D02*
X21507Y12060D01*
X21497Y12081D01*
X21517Y12070D01*
X21537Y12081D01*
X21527Y12060D01*
X21537Y12040D01*
X21517Y12050D01*
X21497Y12040D01*
X22690Y5590D02*
Y5580D01*
X22710D01*
Y5590D01*
X22720D01*
Y5610D01*
X22710D01*
Y5620D01*
X22690D01*
Y5610D01*
X22680D01*
Y5590D01*
X22690D01*
Y5740D02*
Y5730D01*
X22710D01*
Y5740D01*
X22720D01*
Y5760D01*
X22710D01*
Y5770D01*
X22690D01*
Y5760D01*
X22680D01*
Y5740D01*
X22690D01*
Y5890D02*
Y5880D01*
X22710D01*
Y5890D01*
X22720D01*
Y5910D01*
X22710D01*
Y5920D01*
X22690D01*
Y5910D01*
X22680D01*
Y5890D01*
X22690D01*
Y6040D02*
Y6030D01*
X22710D01*
Y6040D01*
X22720D01*
Y6060D01*
X22710D01*
Y6070D01*
X22690D01*
Y6060D01*
X22680D01*
Y6040D01*
X22690D01*
Y6190D02*
Y6180D01*
X22710D01*
Y6190D01*
X22720D01*
Y6210D01*
X22710D01*
Y6220D01*
X22690D01*
Y6210D01*
X22680D01*
Y6190D01*
X22690D01*
X21840Y5590D02*
Y5580D01*
X21860D01*
Y5590D01*
X21870D01*
Y5610D01*
X21860D01*
Y5620D01*
X21840D01*
Y5610D01*
X21830D01*
Y5590D01*
X21840D01*
Y5740D02*
Y5730D01*
X21860D01*
Y5740D01*
X21870D01*
Y5760D01*
X21860D01*
Y5770D01*
X21840D01*
Y5760D01*
X21830D01*
Y5740D01*
X21840D01*
Y5890D02*
Y5880D01*
X21860D01*
Y5890D01*
X21870D01*
Y5910D01*
X21860D01*
Y5920D01*
X21840D01*
Y5910D01*
X21830D01*
Y5890D01*
X21840D01*
Y6040D02*
Y6030D01*
X21860D01*
Y6040D01*
X21870D01*
Y6060D01*
X21860D01*
Y6070D01*
X21840D01*
Y6060D01*
X21830D01*
Y6040D01*
X21840D01*
Y6190D02*
Y6180D01*
X21860D01*
Y6190D01*
X21870D01*
Y6210D01*
X21860D01*
Y6220D01*
X21840D01*
Y6210D01*
X21830D01*
Y6190D01*
X21840D01*
X21040Y5590D02*
Y5580D01*
X21060D01*
Y5590D01*
X21070D01*
Y5610D01*
X21060D01*
Y5620D01*
X21040D01*
Y5610D01*
X21030D01*
Y5590D01*
X21040D01*
Y5740D02*
Y5730D01*
X21060D01*
Y5740D01*
X21070D01*
Y5760D01*
X21060D01*
Y5770D01*
X21040D01*
Y5760D01*
X21030D01*
Y5740D01*
X21040D01*
Y5890D02*
Y5880D01*
X21060D01*
Y5890D01*
X21070D01*
Y5910D01*
X21060D01*
Y5920D01*
X21040D01*
Y5910D01*
X21030D01*
Y5890D01*
X21040D01*
Y6040D02*
Y6030D01*
X21060D01*
Y6040D01*
X21070D01*
Y6060D01*
X21060D01*
Y6070D01*
X21040D01*
Y6060D01*
X21030D01*
Y6040D01*
X21040D01*
Y6190D02*
Y6180D01*
X21060D01*
Y6190D01*
X21070D01*
Y6210D01*
X21060D01*
Y6220D01*
X21040D01*
Y6210D01*
X21030D01*
Y6190D01*
X21040D01*
X20140Y5590D02*
Y5580D01*
X20160D01*
Y5590D01*
X20170D01*
Y5610D01*
X20160D01*
Y5620D01*
X20140D01*
Y5610D01*
X20130D01*
Y5590D01*
X20140D01*
Y5740D02*
Y5730D01*
X20160D01*
Y5740D01*
X20170D01*
Y5760D01*
X20160D01*
Y5770D01*
X20140D01*
Y5760D01*
X20130D01*
Y5740D01*
X20140D01*
Y5890D02*
Y5880D01*
X20160D01*
Y5890D01*
X20170D01*
Y5910D01*
X20160D01*
Y5920D01*
X20140D01*
Y5910D01*
X20130D01*
Y5890D01*
X20140D01*
Y6040D02*
Y6030D01*
X20160D01*
Y6040D01*
X20170D01*
Y6060D01*
X20160D01*
Y6070D01*
X20140D01*
Y6060D01*
X20130D01*
Y6040D01*
X20140D01*
Y6190D02*
Y6180D01*
X20160D01*
Y6190D01*
X20170D01*
Y6210D01*
X20160D01*
Y6220D01*
X20140D01*
Y6210D01*
X20130D01*
Y6190D01*
X20140D01*
X18945Y6740D02*
X18955Y6760D01*
X18945Y6780D01*
X18965Y6770D01*
X18985Y6780D01*
X18975Y6760D01*
X18985Y6740D01*
X18965Y6750D01*
X18945Y6740D01*
X18992Y6817D02*
X19002Y6838D01*
X18992Y6858D01*
X19012Y6848D01*
X19033Y6858D01*
X19023Y6838D01*
X19033Y6817D01*
X19012Y6827D01*
X18992Y6817D01*
X19015Y6900D02*
X19025Y6920D01*
X19015Y6940D01*
X19035Y6930D01*
X19055Y6940D01*
X19045Y6920D01*
X19055Y6900D01*
X19035Y6910D01*
X19015Y6900D01*
X19455Y8505D02*
X19465Y8525D01*
X19455Y8545D01*
X19475Y8535D01*
X19495Y8545D01*
X19485Y8525D01*
X19495Y8505D01*
X19475Y8515D01*
X19455Y8505D01*
X19355Y8612D02*
X19365Y8632D01*
X19355Y8653D01*
X19375Y8643D01*
X19395Y8653D01*
X19385Y8632D01*
X19395Y8612D01*
X19375Y8622D01*
X19355Y8612D01*
Y8507D02*
X19365Y8528D01*
X19355Y8548D01*
X19375Y8538D01*
X19395Y8548D01*
X19385Y8528D01*
X19395Y8507D01*
X19375Y8517D01*
X19355Y8507D01*
X19805Y10480D02*
X19815Y10500D01*
X19805Y10520D01*
X19825Y10510D01*
X19845Y10520D01*
X19835Y10500D01*
X19845Y10480D01*
X19825Y10490D01*
X19805Y10480D01*
X18640Y7230D02*
X18650Y7250D01*
X18640Y7270D01*
X18660Y7260D01*
X18680Y7270D01*
X18670Y7250D01*
X18680Y7230D01*
X18660Y7240D01*
X18640Y7230D01*
X19367Y10050D02*
X19377Y10070D01*
X19367Y10090D01*
X19388Y10080D01*
X19408Y10090D01*
X19398Y10070D01*
X19408Y10050D01*
X19388Y10060D01*
X19367Y10050D01*
X21691Y10290D02*
X21702Y10310D01*
X21691Y10330D01*
X21712Y10320D01*
X21732Y10330D01*
X21722Y10310D01*
X21732Y10290D01*
X21712Y10300D01*
X21691Y10290D01*
X21805Y10480D02*
X21815Y10500D01*
X21805Y10520D01*
X21825Y10510D01*
X21845Y10520D01*
X21835Y10500D01*
X21845Y10480D01*
X21825Y10490D01*
X21805Y10480D01*
X18785Y5910D02*
X18795Y5930D01*
X18785Y5950D01*
X18805Y5940D01*
X18825Y5950D01*
X18815Y5930D01*
X18825Y5910D01*
X18805Y5920D01*
X18785Y5910D01*
X18782Y5822D02*
X18792Y5842D01*
X18782Y5863D01*
X18802Y5853D01*
X18823Y5863D01*
X18813Y5842D01*
X18823Y5822D01*
X18802Y5832D01*
X18782Y5822D01*
X21532Y9840D02*
X21542Y9860D01*
X21532Y9880D01*
X21552Y9870D01*
X21573Y9880D01*
X21563Y9860D01*
X21573Y9840D01*
X21552Y9850D01*
X21532Y9840D01*
X21475Y8285D02*
X21485Y8305D01*
X21475Y8325D01*
X21495Y8315D01*
X21515Y8325D01*
X21505Y8305D01*
X21515Y8285D01*
X21495Y8295D01*
X21475Y8285D01*
X19755Y8830D02*
X19765Y8850D01*
X19755Y8870D01*
X19775Y8860D01*
X19795Y8870D01*
X19785Y8850D01*
X19795Y8830D01*
X19775Y8840D01*
X19755Y8830D01*
Y8730D02*
X19765Y8750D01*
X19755Y8770D01*
X19775Y8760D01*
X19795Y8770D01*
X19785Y8750D01*
X19795Y8730D01*
X19775Y8740D01*
X19755Y8730D01*
Y8930D02*
X19765Y8950D01*
X19755Y8970D01*
X19775Y8960D01*
X19795Y8970D01*
X19785Y8950D01*
X19795Y8930D01*
X19775Y8940D01*
X19755Y8930D01*
X19655Y8730D02*
X19665Y8750D01*
X19655Y8770D01*
X19675Y8760D01*
X19695Y8770D01*
X19685Y8750D01*
X19695Y8730D01*
X19675Y8740D01*
X19655Y8730D01*
X19170Y7725D02*
X19180Y7745D01*
X19170Y7765D01*
X19190Y7755D01*
X19210Y7765D01*
X19200Y7745D01*
X19210Y7725D01*
X19190Y7735D01*
X19170Y7725D01*
X19411Y7907D02*
X19421Y7928D01*
X19411Y7948D01*
X19431Y7938D01*
X19452Y7948D01*
X19441Y7928D01*
X19452Y7907D01*
X19431Y7917D01*
X19411Y7907D01*
X19337Y7837D02*
X19347Y7857D01*
X19337Y7878D01*
X19357Y7868D01*
X19378Y7878D01*
X19368Y7857D01*
X19378Y7837D01*
X19357Y7847D01*
X19337Y7837D01*
X19250Y7800D02*
X19260Y7820D01*
X19250Y7840D01*
X19270Y7830D01*
X19290Y7840D01*
X19280Y7820D01*
X19290Y7800D01*
X19270Y7810D01*
X19250Y7800D01*
X19430Y7667D02*
X19440Y7688D01*
X19430Y7708D01*
X19450Y7698D01*
X19470Y7708D01*
X19460Y7688D01*
X19470Y7667D01*
X19450Y7677D01*
X19430Y7667D01*
X20730Y7580D02*
X20740Y7600D01*
X20730Y7620D01*
X20750Y7610D01*
X20770Y7620D01*
X20760Y7600D01*
X20770Y7580D01*
X20750Y7590D01*
X20730Y7580D01*
X19572Y7542D02*
X19582Y7562D01*
X19572Y7583D01*
X19593Y7573D01*
X19613Y7583D01*
X19603Y7562D01*
X19613Y7542D01*
X19593Y7552D01*
X19572Y7542D01*
X19317Y7487D02*
X19327Y7507D01*
X19317Y7528D01*
X19338Y7518D01*
X19358Y7528D01*
X19348Y7507D01*
X19358Y7487D01*
X19338Y7497D01*
X19317Y7487D01*
X19427Y7460D02*
X19437Y7480D01*
X19427Y7500D01*
X19448Y7490D01*
X19468Y7500D01*
X19458Y7480D01*
X19468Y7460D01*
X19448Y7470D01*
X19427Y7460D01*
X19502Y7612D02*
X19512Y7632D01*
X19502Y7653D01*
X19523Y7643D01*
X19543Y7653D01*
X19533Y7632D01*
X19543Y7612D01*
X19523Y7622D01*
X19502Y7612D01*
X18962Y8590D02*
X18972Y8611D01*
X18962Y8631D01*
X18982Y8621D01*
X19002Y8631D01*
X18992Y8611D01*
X19002Y8590D01*
X18982Y8600D01*
X18962Y8590D01*
X19525Y7435D02*
X19535Y7455D01*
X19525Y7475D01*
X19545Y7465D01*
X19565Y7475D01*
X19555Y7455D01*
X19565Y7435D01*
X19545Y7445D01*
X19525Y7435D01*
X19402Y7000D02*
X19412Y7020D01*
X19402Y7040D01*
X19423Y7030D01*
X19443Y7040D01*
X19433Y7020D01*
X19443Y7000D01*
X19423Y7010D01*
X19402Y7000D01*
X22255Y7730D02*
X22265Y7750D01*
X22255Y7770D01*
X22275Y7760D01*
X22295Y7770D01*
X22285Y7750D01*
X22295Y7730D01*
X22275Y7740D01*
X22255Y7730D01*
X22142Y7795D02*
X22152Y7815D01*
X22142Y7835D01*
X22162Y7825D01*
X22183Y7835D01*
X22173Y7815D01*
X22183Y7795D01*
X22162Y7805D01*
X22142Y7795D01*
X22180Y7680D02*
X22190Y7700D01*
X22180Y7720D01*
X22200Y7710D01*
X22220Y7720D01*
X22210Y7700D01*
X22220Y7680D01*
X22200Y7690D01*
X22180Y7680D01*
X20730Y7355D02*
X20740Y7375D01*
X20730Y7395D01*
X20750Y7385D01*
X20770Y7395D01*
X20760Y7375D01*
X20770Y7355D01*
X20750Y7365D01*
X20730Y7355D01*
X21610Y9847D02*
X21620Y9868D01*
X21610Y9888D01*
X21630Y9878D01*
X21650Y9888D01*
X21640Y9868D01*
X21650Y9847D01*
X21630Y9857D01*
X21610Y9847D01*
X21670Y10547D02*
X21680Y10568D01*
X21670Y10588D01*
X21690Y10578D01*
X21710Y10588D01*
X21700Y10568D01*
X21710Y10547D01*
X21690Y10557D01*
X21670Y10547D01*
X21420Y8032D02*
X21430Y8053D01*
X21420Y8073D01*
X21440Y8063D01*
X21460Y8073D01*
X21450Y8053D01*
X21460Y8032D01*
X21440Y8042D01*
X21420Y8032D01*
X21630Y8205D02*
X21640Y8225D01*
X21630Y8245D01*
X21650Y8235D01*
X21670Y8245D01*
X21660Y8225D01*
X21670Y8205D01*
X21650Y8215D01*
X21630Y8205D01*
X21602Y8112D02*
X21612Y8132D01*
X21602Y8153D01*
X21623Y8143D01*
X21643Y8153D01*
X21633Y8132D01*
X21643Y8112D01*
X21623Y8122D01*
X21602Y8112D01*
X21000Y7482D02*
X21010Y7503D01*
X21000Y7523D01*
X21020Y7513D01*
X21040Y7523D01*
X21030Y7503D01*
X21040Y7482D01*
X21020Y7492D01*
X21000Y7482D01*
X21092Y8925D02*
X21102Y8945D01*
X21092Y8965D01*
X21112Y8955D01*
X21133Y8965D01*
X21123Y8945D01*
X21133Y8925D01*
X21112Y8935D01*
X21092Y8925D01*
X21655Y8280D02*
X21665Y8300D01*
X21655Y8320D01*
X21675Y8310D01*
X21695Y8320D01*
X21685Y8300D01*
X21695Y8280D01*
X21675Y8290D01*
X21655Y8280D01*
X21630Y8380D02*
X21640Y8400D01*
X21630Y8420D01*
X21650Y8410D01*
X21670Y8420D01*
X21660Y8400D01*
X21670Y8380D01*
X21650Y8390D01*
X21630Y8380D01*
X22330Y7680D02*
X22340Y7700D01*
X22330Y7720D01*
X22350Y7710D01*
X22370Y7720D01*
X22360Y7700D01*
X22370Y7680D01*
X22350Y7690D01*
X22330Y7680D01*
X23180Y10205D02*
X23190Y10225D01*
X23180Y10245D01*
X23200Y10235D01*
X23220Y10245D01*
X23210Y10225D01*
X23220Y10205D01*
X23200Y10215D01*
X23180Y10205D01*
X23080D02*
X23090Y10225D01*
X23080Y10245D01*
X23100Y10235D01*
X23120Y10245D01*
X23110Y10225D01*
X23120Y10205D01*
X23100Y10215D01*
X23080Y10205D01*
X22955D02*
X22965Y10225D01*
X22955Y10245D01*
X22975Y10235D01*
X22995Y10245D01*
X22985Y10225D01*
X22995Y10205D01*
X22975Y10215D01*
X22955Y10205D01*
X19930Y10430D02*
X19940Y10450D01*
X19930Y10470D01*
X19950Y10460D01*
X19970Y10470D01*
X19960Y10450D01*
X19970Y10430D01*
X19950Y10440D01*
X19930Y10430D01*
X21532Y8060D02*
X21542Y8080D01*
X21532Y8100D01*
X21552Y8090D01*
X21573Y8100D01*
X21563Y8080D01*
X21573Y8060D01*
X21552Y8070D01*
X21532Y8060D01*
X23295Y12027D02*
X23305Y12047D01*
X23295Y12068D01*
X23315Y12058D01*
X23335Y12068D01*
X23325Y12047D01*
X23335Y12027D01*
X23315Y12037D01*
X23295Y12027D01*
X23310Y12467D02*
X23320Y12488D01*
X23310Y12508D01*
X23330Y12498D01*
X23350Y12508D01*
X23340Y12488D01*
X23350Y12467D01*
X23330Y12477D01*
X23310Y12467D01*
X23447Y13275D02*
X23457Y13295D01*
X23447Y13315D01*
X23468Y13305D01*
X23488Y13315D01*
X23478Y13295D01*
X23488Y13275D01*
X23468Y13285D01*
X23447Y13275D01*
X23202Y12952D02*
X23212Y12973D01*
X23202Y12993D01*
X23223Y12983D01*
X23243Y12993D01*
X23233Y12973D01*
X23243Y12952D01*
X23223Y12962D01*
X23202Y12952D01*
X22900Y10275D02*
X22910Y10295D01*
X22900Y10315D01*
X22920Y10305D01*
X22940Y10315D01*
X22930Y10295D01*
X22940Y10275D01*
X22920Y10285D01*
X22900Y10275D01*
X20652Y7325D02*
X20662Y7345D01*
X20652Y7365D01*
X20673Y7355D01*
X20693Y7365D01*
X20683Y7345D01*
X20693Y7325D01*
X20673Y7335D01*
X20652Y7325D01*
X23382Y10112D02*
X23392Y10132D01*
X23382Y10153D01*
X23402Y10143D01*
X23423Y10153D01*
X23413Y10132D01*
X23423Y10112D01*
X23402Y10122D01*
X23382Y10112D01*
X20467Y7257D02*
X20477Y7278D01*
X20467Y7298D01*
X20488Y7288D01*
X20508Y7298D01*
X20498Y7278D01*
X20508Y7257D01*
X20488Y7267D01*
X20467Y7257D01*
X23080Y10380D02*
X23090Y10400D01*
X23080Y10420D01*
X23100Y10410D01*
X23120Y10420D01*
X23110Y10400D01*
X23120Y10380D01*
X23100Y10390D01*
X23080Y10380D01*
X19805Y10655D02*
X19815Y10675D01*
X19805Y10695D01*
X19825Y10685D01*
X19845Y10695D01*
X19835Y10675D01*
X19845Y10655D01*
X19825Y10665D01*
X19805Y10655D01*
X21805Y10680D02*
X21815Y10700D01*
X21805Y10720D01*
X21825Y10710D01*
X21845Y10720D01*
X21835Y10700D01*
X21845Y10680D01*
X21825Y10690D01*
X21805Y10680D01*
X20555Y7480D02*
X20565Y7500D01*
X20555Y7520D01*
X20575Y7510D01*
X20595Y7520D01*
X20585Y7500D01*
X20595Y7480D01*
X20575Y7490D01*
X20555Y7480D01*
X22255D02*
X22265Y7500D01*
X22255Y7520D01*
X22275Y7510D01*
X22295Y7520D01*
X22285Y7500D01*
X22295Y7480D01*
X22275Y7490D01*
X22255Y7480D01*
X22360Y7610D02*
X22370Y7630D01*
X22360Y7650D01*
X22380Y7640D01*
X22400Y7650D01*
X22390Y7630D01*
X22400Y7610D01*
X22380Y7620D01*
X22360Y7610D01*
X21420Y8540D02*
X21430Y8560D01*
X21420Y8580D01*
X21440Y8570D01*
X21460Y8580D01*
X21450Y8560D01*
X21460Y8540D01*
X21440Y8550D01*
X21420Y8540D01*
X21782Y8272D02*
X21792Y8293D01*
X21782Y8313D01*
X21802Y8303D01*
X21823Y8313D01*
X21813Y8293D01*
X21823Y8272D01*
X21802Y8282D01*
X21782Y8272D01*
X22435Y7662D02*
X22445Y7682D01*
X22435Y7703D01*
X22455Y7693D01*
X22475Y7703D01*
X22465Y7682D01*
X22475Y7662D01*
X22455Y7672D01*
X22435Y7662D01*
X22537Y7460D02*
X22547Y7480D01*
X22537Y7500D01*
X22557Y7490D01*
X22578Y7500D01*
X22568Y7480D01*
X22578Y7460D01*
X22557Y7470D01*
X22537Y7460D01*
X19520Y10047D02*
X19530Y10068D01*
X19520Y10088D01*
X19540Y10078D01*
X19560Y10088D01*
X19550Y10068D01*
X19560Y10047D01*
X19540Y10057D01*
X19520Y10047D01*
X19657Y11440D02*
X19667Y11460D01*
X19657Y11480D01*
X19677Y11470D01*
X19698Y11480D01*
X19687Y11460D01*
X19698Y11440D01*
X19677Y11450D01*
X19657Y11440D01*
X21402Y9202D02*
X21412Y9222D01*
X21402Y9243D01*
X21423Y9233D01*
X21443Y9243D01*
X21433Y9222D01*
X21443Y9202D01*
X21423Y9212D01*
X21402Y9202D01*
X20282Y8570D02*
X20292Y8590D01*
X20282Y8610D01*
X20302Y8600D01*
X20323Y8610D01*
X20313Y8590D01*
X20323Y8570D01*
X20302Y8580D01*
X20282Y8570D01*
Y8767D02*
X20292Y8788D01*
X20282Y8808D01*
X20302Y8798D01*
X20323Y8808D01*
X20313Y8788D01*
X20323Y8767D01*
X20302Y8777D01*
X20282Y8767D01*
X20580Y8912D02*
X20590Y8932D01*
X20580Y8953D01*
X20600Y8943D01*
X20620Y8953D01*
X20610Y8932D01*
X20620Y8912D01*
X20600Y8922D01*
X20580Y8912D01*
X19302Y9800D02*
X19312Y9820D01*
X19302Y9840D01*
X19323Y9830D01*
X19343Y9840D01*
X19333Y9820D01*
X19343Y9800D01*
X19323Y9810D01*
X19302Y9800D01*
X20040Y9797D02*
X20050Y9818D01*
X20040Y9838D01*
X20060Y9828D01*
X20080Y9838D01*
X20070Y9818D01*
X20080Y9797D01*
X20060Y9807D01*
X20040Y9797D01*
X19867D02*
X19877Y9818D01*
X19867Y9838D01*
X19888Y9828D01*
X19908Y9838D01*
X19898Y9818D01*
X19908Y9797D01*
X19888Y9807D01*
X19867Y9797D01*
X20622Y9800D02*
X20632Y9820D01*
X20622Y9840D01*
X20643Y9830D01*
X20663Y9840D01*
X20653Y9820D01*
X20663Y9800D01*
X20643Y9810D01*
X20622Y9800D01*
X19120Y9792D02*
X19130Y9812D01*
X19120Y9833D01*
X19140Y9823D01*
X19160Y9833D01*
X19150Y9812D01*
X19160Y9792D01*
X19140Y9802D01*
X19120Y9792D01*
X19005Y9280D02*
X19015Y9300D01*
X19005Y9320D01*
X19025Y9310D01*
X19045Y9320D01*
X19035Y9300D01*
X19045Y9280D01*
X19025Y9290D01*
X19005Y9280D01*
X18855D02*
X18865Y9300D01*
X18855Y9320D01*
X18875Y9310D01*
X18895Y9320D01*
X18885Y9300D01*
X18895Y9280D01*
X18875Y9290D01*
X18855Y9280D01*
Y9405D02*
X18865Y9425D01*
X18855Y9445D01*
X18875Y9435D01*
X18895Y9445D01*
X18885Y9425D01*
X18895Y9405D01*
X18875Y9415D01*
X18855Y9405D01*
Y9530D02*
X18865Y9550D01*
X18855Y9570D01*
X18875Y9560D01*
X18895Y9570D01*
X18885Y9550D01*
X18895Y9530D01*
X18875Y9540D01*
X18855Y9530D01*
Y9655D02*
X18865Y9675D01*
X18855Y9695D01*
X18875Y9685D01*
X18895Y9695D01*
X18885Y9675D01*
X18895Y9655D01*
X18875Y9665D01*
X18855Y9655D01*
X19255Y8505D02*
X19265Y8525D01*
X19255Y8545D01*
X19275Y8535D01*
X19295Y8545D01*
X19285Y8525D01*
X19295Y8505D01*
X19275Y8515D01*
X19255Y8505D01*
X19355Y8387D02*
X19365Y8407D01*
X19355Y8428D01*
X19375Y8418D01*
X19395Y8428D01*
X19385Y8407D01*
X19395Y8387D01*
X19375Y8397D01*
X19355Y8387D01*
X19555Y8730D02*
X19565Y8750D01*
X19555Y8770D01*
X19575Y8760D01*
X19595Y8770D01*
X19585Y8750D01*
X19595Y8730D01*
X19575Y8740D01*
X19555Y8730D01*
X19755Y8630D02*
X19765Y8650D01*
X19755Y8670D01*
X19775Y8660D01*
X19795Y8670D01*
X19785Y8650D01*
X19795Y8630D01*
X19775Y8640D01*
X19755Y8630D01*
X9377Y7229D02*
X9387Y7249D01*
X9377Y7269D01*
X9397Y7259D01*
X9418Y7269D01*
X9408Y7249D01*
X9418Y7229D01*
X9397Y7239D01*
X9377Y7229D01*
X18535Y11800D02*
X18545Y11820D01*
X18535Y11840D01*
X18555Y11830D01*
X18575Y11840D01*
X18565Y11820D01*
X18575Y11800D01*
X18555Y11810D01*
X18535Y11800D01*
X18540Y12077D02*
X18550Y12097D01*
X18540Y12118D01*
X18560Y12108D01*
X18580Y12118D01*
X18570Y12097D01*
X18580Y12077D01*
X18560Y12087D01*
X18540Y12077D01*
X18535Y12350D02*
X18545Y12370D01*
X18535Y12390D01*
X18555Y12380D01*
X18575Y12390D01*
X18565Y12370D01*
X18575Y12350D01*
X18555Y12360D01*
X18535Y12350D01*
X11985Y6017D02*
X11995Y6038D01*
X11985Y6058D01*
X12005Y6048D01*
X12025Y6058D01*
X12015Y6038D01*
X12025Y6017D01*
X12005Y6027D01*
X11985Y6017D01*
X16380Y7080D02*
X16390Y7100D01*
X16380Y7120D01*
X16400Y7110D01*
X16420Y7120D01*
X16410Y7100D01*
X16420Y7080D01*
X16400Y7090D01*
X16380Y7080D01*
X15980Y7705D02*
X15990Y7725D01*
X15980Y7745D01*
X16000Y7735D01*
X16020Y7745D01*
X16010Y7725D01*
X16020Y7705D01*
X16000Y7715D01*
X15980Y7705D01*
X19957Y12515D02*
X19967Y12535D01*
X19957Y12555D01*
X19977Y12545D01*
X19998Y12555D01*
X19987Y12535D01*
X19998Y12515D01*
X19977Y12525D01*
X19957Y12515D01*
X19907Y12615D02*
X19917Y12635D01*
X19907Y12655D01*
X19927Y12645D01*
X19948Y12655D01*
X19937Y12635D01*
X19948Y12615D01*
X19927Y12625D01*
X19907Y12615D01*
X19482Y12040D02*
X19492Y12060D01*
X19482Y12080D01*
X19502Y12070D01*
X19523Y12080D01*
X19512Y12060D01*
X19523Y12040D01*
X19502Y12050D01*
X19482Y12040D01*
X19682Y12465D02*
X19692Y12485D01*
X19682Y12505D01*
X19702Y12495D01*
X19723Y12505D01*
X19712Y12485D01*
X19723Y12465D01*
X19702Y12475D01*
X19682Y12465D01*
X20332Y12315D02*
X20342Y12335D01*
X20332Y12355D01*
X20352Y12345D01*
X20373Y12355D01*
X20362Y12335D01*
X20373Y12315D01*
X20352Y12325D01*
X20332Y12315D01*
X21007Y11345D02*
X21017Y11365D01*
X21007Y11386D01*
X21027Y11375D01*
X21047Y11386D01*
X21037Y11365D01*
X21047Y11345D01*
X21027Y11355D01*
X21007Y11345D01*
X21124Y11509D02*
X21134Y11529D01*
X21124Y11549D01*
X21145Y11539D01*
X21165Y11549D01*
X21155Y11529D01*
X21165Y11509D01*
X21145Y11519D01*
X21124Y11509D01*
X18968Y11410D02*
X18978Y11430D01*
X18968Y11450D01*
X18989Y11440D01*
X19009Y11450D01*
X18999Y11430D01*
X19009Y11410D01*
X18989Y11420D01*
X18968Y11410D01*
X19082Y11527D02*
X19092Y11548D01*
X19082Y11568D01*
X19102Y11558D01*
X19123Y11568D01*
X19112Y11548D01*
X19123Y11527D01*
X19102Y11537D01*
X19082Y11527D01*
X22327Y11055D02*
X22337Y11075D01*
X22327Y11096D01*
X22347Y11085D01*
X22367Y11096D01*
X22357Y11075D01*
X22367Y11055D01*
X22347Y11065D01*
X22327Y11055D01*
Y11280D02*
X22337Y11300D01*
X22327Y11321D01*
X22347Y11310D01*
X22367Y11321D01*
X22357Y11300D01*
X22367Y11280D01*
X22347Y11290D01*
X22327Y11280D01*
X20372Y11295D02*
X20382Y11315D01*
X20372Y11335D01*
X20392Y11325D01*
X20413Y11335D01*
X20402Y11315D01*
X20413Y11295D01*
X20392Y11305D01*
X20372Y11295D01*
Y11070D02*
X20382Y11090D01*
X20372Y11110D01*
X20392Y11100D01*
X20413Y11110D01*
X20402Y11090D01*
X20413Y11070D01*
X20392Y11080D01*
X20372Y11070D01*
X20682Y11715D02*
X20692Y11735D01*
X20682Y11755D01*
X20702Y11745D01*
X20723Y11755D01*
X20712Y11735D01*
X20723Y11715D01*
X20702Y11725D01*
X20682Y11715D01*
X20582D02*
X20592Y11735D01*
X20582Y11755D01*
X20602Y11745D01*
X20623Y11755D01*
X20612Y11735D01*
X20623Y11715D01*
X20602Y11725D01*
X20582Y11715D01*
X20482D02*
X20492Y11735D01*
X20482Y11755D01*
X20502Y11745D01*
X20523Y11755D01*
X20512Y11735D01*
X20523Y11715D01*
X20502Y11725D01*
X20482Y11715D01*
Y11640D02*
X20492Y11660D01*
X20482Y11680D01*
X20502Y11670D01*
X20523Y11680D01*
X20512Y11660D01*
X20523Y11640D01*
X20502Y11650D01*
X20482Y11640D01*
X20582D02*
X20592Y11660D01*
X20582Y11680D01*
X20602Y11670D01*
X20623Y11680D01*
X20612Y11660D01*
X20623Y11640D01*
X20602Y11650D01*
X20582Y11640D01*
X20682D02*
X20692Y11660D01*
X20682Y11680D01*
X20702Y11670D01*
X20723Y11680D01*
X20712Y11660D01*
X20723Y11640D01*
X20702Y11650D01*
X20682Y11640D01*
Y11565D02*
X20692Y11585D01*
X20682Y11605D01*
X20702Y11595D01*
X20723Y11605D01*
X20712Y11585D01*
X20723Y11565D01*
X20702Y11575D01*
X20682Y11565D01*
X20582D02*
X20592Y11585D01*
X20582Y11605D01*
X20602Y11595D01*
X20623Y11605D01*
X20612Y11585D01*
X20623Y11565D01*
X20602Y11575D01*
X20582Y11565D01*
X20482D02*
X20492Y11585D01*
X20482Y11605D01*
X20502Y11595D01*
X20523Y11605D01*
X20512Y11585D01*
X20523Y11565D01*
X20502Y11575D01*
X20482Y11565D01*
X20382Y11740D02*
X20392Y11760D01*
X20382Y11780D01*
X20402Y11770D01*
X20423Y11780D01*
X20412Y11760D01*
X20423Y11740D01*
X20402Y11750D01*
X20382Y11740D01*
X21654Y11753D02*
X21664Y11773D01*
X21654Y11793D01*
X21675Y11783D01*
X21695Y11793D01*
X21685Y11773D01*
X21695Y11753D01*
X21675Y11763D01*
X21654Y11753D01*
X19657Y11615D02*
X19667Y11635D01*
X19657Y11655D01*
X19677Y11645D01*
X19698Y11655D01*
X19687Y11635D01*
X19698Y11615D01*
X19677Y11625D01*
X19657Y11615D01*
X22397Y12864D02*
X22407Y12884D01*
X22397Y12904D01*
X22417Y12894D01*
X22437Y12904D01*
X22427Y12884D01*
X22437Y12864D01*
X22417Y12874D01*
X22397Y12864D01*
X20379Y12902D02*
X20390Y12923D01*
X20379Y12943D01*
X20400Y12933D01*
X20420Y12943D01*
X20410Y12923D01*
X20420Y12902D01*
X20400Y12912D01*
X20379Y12902D01*
X20729Y12454D02*
X20740Y12474D01*
X20729Y12494D01*
X20750Y12484D01*
X20770Y12494D01*
X20760Y12474D01*
X20770Y12454D01*
X20750Y12464D01*
X20729Y12454D01*
Y12685D02*
X20740Y12705D01*
X20729Y12725D01*
X20750Y12715D01*
X20770Y12725D01*
X20760Y12705D01*
X20770Y12685D01*
X20750Y12695D01*
X20729Y12685D01*
Y12895D02*
X20740Y12915D01*
X20729Y12935D01*
X20750Y12925D01*
X20770Y12935D01*
X20760Y12915D01*
X20770Y12895D01*
X20750Y12905D01*
X20729Y12895D01*
X20440Y13140D02*
X20450Y13160D01*
X20440Y13180D01*
X20460Y13170D01*
X20480Y13180D01*
X20470Y13160D01*
X20480Y13140D01*
X20460Y13150D01*
X20440Y13140D01*
X20563D02*
X20573Y13160D01*
X20563Y13180D01*
X20583Y13170D01*
X20604Y13180D01*
X20594Y13160D01*
X20604Y13140D01*
X20583Y13150D01*
X20563Y13140D01*
X20687D02*
X20697Y13160D01*
X20687Y13180D01*
X20707Y13170D01*
X20727Y13180D01*
X20717Y13160D01*
X20727Y13140D01*
X20707Y13150D01*
X20687Y13140D01*
X22612Y11680D02*
X22622Y11700D01*
X22612Y11721D01*
X22632Y11710D01*
X22652Y11721D01*
X22642Y11700D01*
X22652Y11680D01*
X22632Y11690D01*
X22612Y11680D01*
X22257Y11770D02*
X22267Y11790D01*
X22257Y11811D01*
X22277Y11800D01*
X22297Y11811D01*
X22287Y11790D01*
X22297Y11770D01*
X22277Y11780D01*
X22257Y11770D01*
X22507Y11680D02*
X22517Y11700D01*
X22507Y11721D01*
X22527Y11710D01*
X22547Y11721D01*
X22537Y11700D01*
X22547Y11680D01*
X22527Y11690D01*
X22507Y11680D01*
X22557Y11620D02*
X22567Y11640D01*
X22557Y11661D01*
X22577Y11650D01*
X22597Y11661D01*
X22587Y11640D01*
X22597Y11620D01*
X22577Y11630D01*
X22557Y11620D01*
X22457D02*
X22467Y11640D01*
X22457Y11661D01*
X22477Y11650D01*
X22497Y11661D01*
X22487Y11640D01*
X22497Y11620D01*
X22477Y11630D01*
X22457Y11620D01*
X22749Y12387D02*
X22759Y12408D01*
X22749Y12428D01*
X22770Y12418D01*
X22790Y12428D01*
X22780Y12408D01*
X22790Y12387D01*
X22770Y12398D01*
X22749Y12387D01*
X22752Y12619D02*
X22762Y12639D01*
X22752Y12659D01*
X22772Y12649D01*
X22792Y12659D01*
X22782Y12639D01*
X22792Y12619D01*
X22772Y12629D01*
X22752Y12619D01*
Y12840D02*
X22762Y12860D01*
X22752Y12881D01*
X22772Y12870D01*
X22792Y12881D01*
X22782Y12860D01*
X22792Y12840D01*
X22772Y12850D01*
X22752Y12840D01*
X22699Y13110D02*
X22709Y13130D01*
X22699Y13151D01*
X22719Y13140D01*
X22740Y13151D01*
X22730Y13130D01*
X22740Y13110D01*
X22719Y13120D01*
X22699Y13110D01*
X22576D02*
X22586Y13130D01*
X22576Y13151D01*
X22596Y13140D01*
X22616Y13151D01*
X22606Y13130D01*
X22616Y13110D01*
X22596Y13120D01*
X22576Y13110D01*
X22452D02*
X22462Y13130D01*
X22452Y13151D01*
X22472Y13140D01*
X22493Y13151D01*
X22482Y13130D01*
X22493Y13110D01*
X22472Y13120D01*
X22452Y13110D01*
X21814Y13060D02*
X21824Y13080D01*
X21814Y13101D01*
X21835Y13090D01*
X21855Y13101D01*
X21845Y13080D01*
X21855Y13060D01*
X21835Y13070D01*
X21814Y13060D01*
X22392Y12292D02*
X22402Y12313D01*
X22392Y12333D01*
X22412Y12323D01*
X22432Y12333D01*
X22422Y12313D01*
X22432Y12292D01*
X22412Y12303D01*
X22392Y12292D01*
X21654Y11415D02*
X21664Y11435D01*
X21654Y11456D01*
X21675Y11445D01*
X21695Y11456D01*
X21685Y11435D01*
X21695Y11415D01*
X21675Y11425D01*
X21654Y11415D01*
X22322Y12117D02*
X22332Y12138D01*
X22322Y12158D01*
X22342Y12148D01*
X22362Y12158D01*
X22352Y12138D01*
X22362Y12117D01*
X22342Y12128D01*
X22322Y12117D01*
X21362Y11290D02*
X21372Y11310D01*
X21362Y11331D01*
X21382Y11320D01*
X21402Y11331D01*
X21392Y11310D01*
X21402Y11290D01*
X21382Y11300D01*
X21362Y11290D01*
X22327Y11635D02*
X22337Y11655D01*
X22327Y11676D01*
X22347Y11665D01*
X22367Y11676D01*
X22357Y11655D01*
X22367Y11635D01*
X22347Y11645D01*
X22327Y11635D01*
X21987Y12475D02*
X21997Y12495D01*
X21987Y12516D01*
X22007Y12505D01*
X22027Y12516D01*
X22017Y12495D01*
X22027Y12475D01*
X22007Y12485D01*
X21987Y12475D01*
X21887Y12600D02*
X21897Y12620D01*
X21887Y12641D01*
X21907Y12630D01*
X21927Y12641D01*
X21917Y12620D01*
X21927Y12600D01*
X21907Y12610D01*
X21887Y12600D01*
X17055Y7305D02*
X17065Y7325D01*
X17055Y7345D01*
X17075Y7335D01*
X17095Y7345D01*
X17085Y7325D01*
X17095Y7305D01*
X17075Y7315D01*
X17055Y7305D01*
X14905Y7122D02*
X14915Y7143D01*
X14905Y7163D01*
X14925Y7153D01*
X14945Y7163D01*
X14935Y7143D01*
X14945Y7122D01*
X14925Y7132D01*
X14905Y7122D01*
X14290Y8815D02*
Y8805D01*
X14310D01*
Y8815D01*
X14320D01*
Y8835D01*
X14310D01*
Y8845D01*
X14290D01*
Y8835D01*
X14280D01*
Y8815D01*
X14290D01*
X14740D02*
Y8805D01*
X14760D01*
Y8815D01*
X14770D01*
Y8835D01*
X14760D01*
Y8845D01*
X14740D01*
Y8835D01*
X14730D01*
Y8815D01*
X14740D01*
X14590D02*
Y8805D01*
X14610D01*
Y8815D01*
X14620D01*
Y8835D01*
X14610D01*
Y8845D01*
X14590D01*
Y8835D01*
X14580D01*
Y8815D01*
X14590D01*
X14440D02*
Y8805D01*
X14460D01*
Y8815D01*
X14470D01*
Y8835D01*
X14460D01*
Y8845D01*
X14440D01*
Y8835D01*
X14430D01*
Y8815D01*
X14440D01*
X14740Y8665D02*
Y8655D01*
X14760D01*
Y8665D01*
X14770D01*
Y8685D01*
X14760D01*
Y8695D01*
X14740D01*
Y8685D01*
X14730D01*
Y8665D01*
X14740D01*
X14590D02*
Y8655D01*
X14610D01*
Y8665D01*
X14620D01*
Y8685D01*
X14610D01*
Y8695D01*
X14590D01*
Y8685D01*
X14580D01*
Y8665D01*
X14590D01*
X14440D02*
Y8655D01*
X14460D01*
Y8665D01*
X14470D01*
Y8685D01*
X14460D01*
Y8695D01*
X14440D01*
Y8685D01*
X14430D01*
Y8665D01*
X14440D01*
X13840D02*
Y8655D01*
X13860D01*
Y8665D01*
X13870D01*
Y8685D01*
X13860D01*
Y8695D01*
X13840D01*
Y8685D01*
X13830D01*
Y8665D01*
X13840D01*
X13990D02*
Y8655D01*
X14010D01*
Y8665D01*
X14020D01*
Y8685D01*
X14010D01*
Y8695D01*
X13990D01*
Y8685D01*
X13980D01*
Y8665D01*
X13990D01*
X14140D02*
Y8655D01*
X14160D01*
Y8665D01*
X14170D01*
Y8685D01*
X14160D01*
Y8695D01*
X14140D01*
Y8685D01*
X14130D01*
Y8665D01*
X14140D01*
X14290D02*
Y8655D01*
X14310D01*
Y8665D01*
X14320D01*
Y8685D01*
X14310D01*
Y8695D01*
X14290D01*
Y8685D01*
X14280D01*
Y8665D01*
X14290D01*
X13265D02*
Y8655D01*
X13285D01*
Y8665D01*
X13295D01*
Y8685D01*
X13285D01*
Y8695D01*
X13265D01*
Y8685D01*
X13255D01*
Y8665D01*
X13265D01*
X13415D02*
Y8655D01*
X13435D01*
Y8665D01*
X13445D01*
Y8685D01*
X13435D01*
Y8695D01*
X13415D01*
Y8685D01*
X13405D01*
Y8665D01*
X13415D01*
X13565D02*
Y8655D01*
X13585D01*
Y8665D01*
X13595D01*
Y8685D01*
X13585D01*
Y8695D01*
X13565D01*
Y8685D01*
X13555D01*
Y8665D01*
X13565D01*
X13715D02*
Y8655D01*
X13735D01*
Y8665D01*
X13745D01*
Y8685D01*
X13735D01*
Y8695D01*
X13715D01*
Y8685D01*
X13705D01*
Y8665D01*
X13715D01*
X13115D02*
Y8655D01*
X13135D01*
Y8665D01*
X13145D01*
Y8685D01*
X13135D01*
Y8695D01*
X13115D01*
Y8685D01*
X13105D01*
Y8665D01*
X13115D01*
X12965D02*
Y8655D01*
X12985D01*
Y8665D01*
X12995D01*
Y8685D01*
X12985D01*
Y8695D01*
X12965D01*
Y8685D01*
X12955D01*
Y8665D01*
X12965D01*
X12815D02*
Y8655D01*
X12835D01*
Y8665D01*
X12845D01*
Y8685D01*
X12835D01*
Y8695D01*
X12815D01*
Y8685D01*
X12805D01*
Y8665D01*
X12815D01*
X12665D02*
Y8655D01*
X12685D01*
Y8665D01*
X12695D01*
Y8685D01*
X12685D01*
Y8695D01*
X12665D01*
Y8685D01*
X12655D01*
Y8665D01*
X12665D01*
X9240Y7467D02*
X9250Y7488D01*
X9240Y7508D01*
X9260Y7498D01*
X9280Y7508D01*
X9270Y7488D01*
X9280Y7467D01*
X9260Y7477D01*
X9240Y7467D01*
X9485Y6782D02*
X9495Y6803D01*
X9485Y6823D01*
X9505Y6813D01*
X9525Y6823D01*
X9515Y6803D01*
X9525Y6782D01*
X9505Y6792D01*
X9485Y6782D01*
X9482Y6565D02*
X9492Y6585D01*
X9482Y6605D01*
X9503Y6595D01*
X9523Y6605D01*
X9513Y6585D01*
X9523Y6565D01*
X9503Y6575D01*
X9482Y6565D01*
X9680Y12180D02*
X9690Y12200D01*
X9680Y12220D01*
X9700Y12210D01*
X9720Y12220D01*
X9710Y12200D01*
X9720Y12180D01*
X9700Y12190D01*
X9680Y12180D01*
X9480Y12005D02*
X9490Y12025D01*
X9480Y12045D01*
X9500Y12035D01*
X9520Y12045D01*
X9510Y12025D01*
X9520Y12005D01*
X9500Y12015D01*
X9480Y12005D01*
X9420Y10720D02*
X9430Y10740D01*
X9420Y10760D01*
X9440Y10750D01*
X9460Y10760D01*
X9450Y10740D01*
X9460Y10720D01*
X9440Y10730D01*
X9420Y10720D01*
X9980Y10155D02*
X9990Y10175D01*
X9980Y10195D01*
X10000Y10185D01*
X10020Y10195D01*
X10010Y10175D01*
X10020Y10155D01*
X10000Y10165D01*
X9980Y10155D01*
X12240Y7465D02*
Y7455D01*
X12260D01*
Y7465D01*
X12270D01*
Y7485D01*
X12260D01*
Y7495D01*
X12240D01*
Y7485D01*
X12230D01*
Y7465D01*
X12240D01*
X12465D02*
Y7455D01*
X12485D01*
Y7465D01*
X12495D01*
Y7485D01*
X12485D01*
Y7495D01*
X12465D01*
Y7485D01*
X12455D01*
Y7465D01*
X12465D01*
X10615Y8760D02*
X10625Y8780D01*
X10615Y8800D01*
X10635Y8790D01*
X10655Y8800D01*
X10645Y8780D01*
X10655Y8760D01*
X10635Y8770D01*
X10615Y8760D01*
X12099Y7617D02*
X12109Y7638D01*
X12099Y7658D01*
X12119Y7648D01*
X12139Y7658D01*
X12129Y7638D01*
X12139Y7617D01*
X12119Y7627D01*
X12099Y7617D01*
X11070Y8470D02*
X11080Y8490D01*
X11070Y8510D01*
X11090Y8500D01*
X11110Y8510D01*
X11100Y8490D01*
X11110Y8470D01*
X11090Y8480D01*
X11070Y8470D01*
X12240Y7590D02*
Y7580D01*
X12260D01*
Y7590D01*
X12270D01*
Y7610D01*
X12260D01*
Y7620D01*
X12240D01*
Y7610D01*
X12230D01*
Y7590D01*
X12240D01*
X10970Y8407D02*
X10980Y8428D01*
X10970Y8448D01*
X10990Y8438D01*
X11010Y8448D01*
X11000Y8428D01*
X11010Y8407D01*
X10990Y8417D01*
X10970Y8407D01*
X10870Y8740D02*
X10880Y8760D01*
X10870Y8780D01*
X10890Y8770D01*
X10910Y8780D01*
X10900Y8760D01*
X10910Y8740D01*
X10890Y8750D01*
X10870Y8740D01*
X12092Y7875D02*
X12102Y7895D01*
X12092Y7915D01*
X12112Y7905D01*
X12133Y7915D01*
X12123Y7895D01*
X12133Y7875D01*
X12112Y7885D01*
X12092Y7875D01*
X12465Y7740D02*
Y7730D01*
X12485D01*
Y7740D01*
X12495D01*
Y7760D01*
X12485D01*
Y7770D01*
X12465D01*
Y7760D01*
X12455D01*
Y7740D01*
X12465D01*
X16330Y8430D02*
X16340Y8450D01*
X16330Y8470D01*
X16350Y8460D01*
X16370Y8470D01*
X16360Y8450D01*
X16370Y8430D01*
X16350Y8440D01*
X16330Y8430D01*
X15994Y8219D02*
X16004Y8239D01*
X15994Y8260D01*
X16014Y8250D01*
X16035Y8260D01*
X16025Y8239D01*
X16035Y8219D01*
X16014Y8229D01*
X15994Y8219D01*
X15880Y8280D02*
X15890Y8300D01*
X15880Y8320D01*
X15900Y8310D01*
X15920Y8320D01*
X15910Y8300D01*
X15920Y8280D01*
X15900Y8290D01*
X15880Y8280D01*
X10925Y8545D02*
X10935Y8565D01*
X10925Y8585D01*
X10945Y8575D01*
X10965Y8585D01*
X10955Y8565D01*
X10965Y8545D01*
X10945Y8555D01*
X10925Y8545D01*
X14920Y8472D02*
Y8462D01*
X14940D01*
Y8472D01*
X14950D01*
Y8493D01*
X14940D01*
Y8503D01*
X14920D01*
Y8493D01*
X14910D01*
Y8472D01*
X14920D01*
X15022Y8547D02*
Y8537D01*
X15043D01*
Y8547D01*
X15053D01*
Y8568D01*
X15043D01*
Y8578D01*
X15022D01*
Y8568D01*
X15012D01*
Y8547D01*
X15022D01*
X11100Y8562D02*
X11110Y8582D01*
X11100Y8603D01*
X11120Y8593D01*
X11140Y8603D01*
X11130Y8582D01*
X11140Y8562D01*
X11120Y8572D01*
X11100Y8562D01*
X12590Y6765D02*
Y6755D01*
X12610D01*
Y6765D01*
X12620D01*
Y6785D01*
X12610D01*
Y6795D01*
X12590D01*
Y6785D01*
X12580D01*
Y6765D01*
X12590D01*
X14370Y7180D02*
Y7170D01*
X14390D01*
Y7180D01*
X14400D01*
Y7200D01*
X14390D01*
Y7210D01*
X14370D01*
Y7200D01*
X14360D01*
Y7180D01*
X14370D01*
X14880Y7255D02*
X14890Y7275D01*
X14880Y7295D01*
X14900Y7285D01*
X14920Y7295D01*
X14910Y7275D01*
X14920Y7255D01*
X14900Y7265D01*
X14880Y7255D01*
X11405Y6380D02*
X11415Y6400D01*
X11405Y6420D01*
X11425Y6410D01*
X11445Y6420D01*
X11435Y6400D01*
X11445Y6380D01*
X11425Y6390D01*
X11405Y6380D01*
X10895Y6147D02*
X10905Y6167D01*
X10895Y6188D01*
X10915Y6178D01*
X10935Y6188D01*
X10925Y6167D01*
X10935Y6147D01*
X10915Y6157D01*
X10895Y6147D01*
X9405Y6130D02*
X9415Y6150D01*
X9405Y6170D01*
X9425Y6160D01*
X9445Y6170D01*
X9435Y6150D01*
X9445Y6130D01*
X9425Y6140D01*
X9405Y6130D01*
X11405Y6155D02*
X11415Y6175D01*
X11405Y6195D01*
X11425Y6185D01*
X11445Y6195D01*
X11435Y6175D01*
X11445Y6155D01*
X11425Y6165D01*
X11405Y6155D01*
X11205Y6080D02*
X11215Y6100D01*
X11205Y6120D01*
X11225Y6110D01*
X11245Y6120D01*
X11235Y6100D01*
X11245Y6080D01*
X11225Y6090D01*
X11205Y6080D01*
X12230Y6880D02*
X12240Y6900D01*
X12230Y6920D01*
X12250Y6910D01*
X12270Y6920D01*
X12260Y6900D01*
X12270Y6880D01*
X12250Y6890D01*
X12230Y6880D01*
X12240Y7140D02*
Y7130D01*
X12260D01*
Y7140D01*
X12270D01*
Y7160D01*
X12260D01*
Y7170D01*
X12240D01*
Y7160D01*
X12230D01*
Y7140D01*
X12240D01*
X12465D02*
Y7130D01*
X12485D01*
Y7140D01*
X12495D01*
Y7160D01*
X12485D01*
Y7170D01*
X12465D01*
Y7160D01*
X12455D01*
Y7140D01*
X12465D01*
X16140Y5615D02*
Y5605D01*
X16160D01*
Y5615D01*
X16170D01*
Y5635D01*
X16160D01*
Y5645D01*
X16140D01*
Y5635D01*
X16130D01*
Y5615D01*
X16140D01*
X16340D02*
Y5605D01*
X16360D01*
Y5615D01*
X16370D01*
Y5635D01*
X16360D01*
Y5645D01*
X16340D01*
Y5635D01*
X16330D01*
Y5615D01*
X16340D01*
X16490Y5640D02*
Y5630D01*
X16510D01*
Y5640D01*
X16520D01*
Y5660D01*
X16510D01*
Y5670D01*
X16490D01*
Y5660D01*
X16480D01*
Y5640D01*
X16490D01*
X16140Y5765D02*
Y5755D01*
X16160D01*
Y5765D01*
X16170D01*
Y5785D01*
X16160D01*
Y5795D01*
X16140D01*
Y5785D01*
X16130D01*
Y5765D01*
X16140D01*
X16340D02*
Y5755D01*
X16360D01*
Y5765D01*
X16370D01*
Y5785D01*
X16360D01*
Y5795D01*
X16340D01*
Y5785D01*
X16330D01*
Y5765D01*
X16340D01*
X16540D02*
Y5755D01*
X16560D01*
Y5765D01*
X16570D01*
Y5785D01*
X16560D01*
Y5795D01*
X16540D01*
Y5785D01*
X16530D01*
Y5765D01*
X16540D01*
X16140Y5915D02*
Y5905D01*
X16160D01*
Y5915D01*
X16170D01*
Y5935D01*
X16160D01*
Y5945D01*
X16140D01*
Y5935D01*
X16130D01*
Y5915D01*
X16140D01*
X16340D02*
Y5905D01*
X16360D01*
Y5915D01*
X16370D01*
Y5935D01*
X16360D01*
Y5945D01*
X16340D01*
Y5935D01*
X16330D01*
Y5915D01*
X16340D01*
X16540Y6065D02*
Y6055D01*
X16560D01*
Y6065D01*
X16570D01*
Y6085D01*
X16560D01*
Y6095D01*
X16540D01*
Y6085D01*
X16530D01*
Y6065D01*
X16540D01*
X16340D02*
Y6055D01*
X16360D01*
Y6065D01*
X16370D01*
Y6085D01*
X16360D01*
Y6095D01*
X16340D01*
Y6085D01*
X16330D01*
Y6065D01*
X16340D01*
X16140D02*
Y6055D01*
X16160D01*
Y6065D01*
X16170D01*
Y6085D01*
X16160D01*
Y6095D01*
X16140D01*
Y6085D01*
X16130D01*
Y6065D01*
X16140D01*
X15015Y7590D02*
Y7580D01*
X15035D01*
Y7590D01*
X15045D01*
Y7610D01*
X15035D01*
Y7620D01*
X15015D01*
Y7610D01*
X15005D01*
Y7590D01*
X15015D01*
X14640Y8115D02*
Y8105D01*
X14660D01*
Y8115D01*
X14670D01*
Y8135D01*
X14660D01*
Y8145D01*
X14640D01*
Y8135D01*
X14630D01*
Y8115D01*
X14640D01*
Y7965D02*
Y7955D01*
X14660D01*
Y7965D01*
X14670D01*
Y7985D01*
X14660D01*
Y7995D01*
X14640D01*
Y7985D01*
X14630D01*
Y7965D01*
X14640D01*
X15117Y8472D02*
Y8462D01*
X15138D01*
Y8472D01*
X15148D01*
Y8493D01*
X15138D01*
Y8503D01*
X15117D01*
Y8493D01*
X15107D01*
Y8472D01*
X15117D01*
X15405Y8130D02*
X15415Y8150D01*
X15405Y8170D01*
X15425Y8160D01*
X15445Y8170D01*
X15435Y8150D01*
X15445Y8130D01*
X15425Y8140D01*
X15405Y8130D01*
X10812Y8625D02*
X10822Y8645D01*
X10812Y8665D01*
X10832Y8655D01*
X10853Y8665D01*
X10843Y8645D01*
X10853Y8625D01*
X10832Y8635D01*
X10812Y8625D01*
X10748Y8520D02*
X10758Y8540D01*
X10748Y8561D01*
X10768Y8551D01*
X10788Y8561D01*
X10778Y8540D01*
X10788Y8520D01*
X10768Y8530D01*
X10748Y8520D01*
X13872Y7737D02*
X13882Y7757D01*
X13872Y7778D01*
X13893Y7768D01*
X13913Y7778D01*
X13903Y7757D01*
X13913Y7737D01*
X13893Y7747D01*
X13872Y7737D01*
X11715Y8002D02*
X11725Y8022D01*
X11715Y8043D01*
X11735Y8033D01*
X11755Y8043D01*
X11745Y8022D01*
X11755Y8002D01*
X11735Y8012D01*
X11715Y8002D01*
X10567Y7782D02*
X10577Y7803D01*
X10567Y7823D01*
X10588Y7813D01*
X10608Y7823D01*
X10598Y7803D01*
X10608Y7782D01*
X10588Y7792D01*
X10567Y7782D01*
X17262Y7897D02*
X17272Y7917D01*
X17262Y7937D01*
X17282Y7927D01*
X17303Y7937D01*
X17293Y7917D01*
X17303Y7897D01*
X17282Y7907D01*
X17262Y7897D01*
X13855Y7855D02*
X13865Y7875D01*
X13855Y7895D01*
X13875Y7885D01*
X13895Y7895D01*
X13885Y7875D01*
X13895Y7855D01*
X13875Y7865D01*
X13855Y7855D01*
X12272Y8742D02*
X12282Y8762D01*
X12272Y8783D01*
X12293Y8773D01*
X12313Y8783D01*
X12303Y8762D01*
X12313Y8742D01*
X12293Y8752D01*
X12272Y8742D01*
X12465Y8015D02*
Y8005D01*
X12485D01*
Y8015D01*
X12495D01*
Y8035D01*
X12485D01*
Y8045D01*
X12465D01*
Y8035D01*
X12455D01*
Y8015D01*
X12465D01*
X12240D02*
Y8005D01*
X12260D01*
Y8015D01*
X12270D01*
Y8035D01*
X12260D01*
Y8045D01*
X12240D01*
Y8035D01*
X12230D01*
Y8015D01*
X12240D01*
Y7890D02*
Y7880D01*
X12260D01*
Y7890D01*
X12270D01*
Y7910D01*
X12260D01*
Y7920D01*
X12240D01*
Y7910D01*
X12230D01*
Y7890D01*
X12240D01*
X12465D02*
Y7880D01*
X12485D01*
Y7890D01*
X12495D01*
Y7910D01*
X12485D01*
Y7920D01*
X12465D01*
Y7910D01*
X12455D01*
Y7890D01*
X12465D01*
X16055Y7505D02*
X16065Y7525D01*
X16055Y7545D01*
X16075Y7535D01*
X16095Y7545D01*
X16085Y7525D01*
X16095Y7505D01*
X16075Y7515D01*
X16055Y7505D01*
X12740Y6765D02*
Y6755D01*
X12760D01*
Y6765D01*
X12770D01*
Y6785D01*
X12760D01*
Y6795D01*
X12740D01*
Y6785D01*
X12730D01*
Y6765D01*
X12740D01*
X12890D02*
Y6755D01*
X12910D01*
Y6765D01*
X12920D01*
Y6785D01*
X12910D01*
Y6795D01*
X12890D01*
Y6785D01*
X12880D01*
Y6765D01*
X12890D01*
X13040D02*
Y6755D01*
X13060D01*
Y6765D01*
X13070D01*
Y6785D01*
X13060D01*
Y6795D01*
X13040D01*
Y6785D01*
X13030D01*
Y6765D01*
X13040D01*
X13190D02*
Y6755D01*
X13210D01*
Y6765D01*
X13220D01*
Y6785D01*
X13210D01*
Y6795D01*
X13190D01*
Y6785D01*
X13180D01*
Y6765D01*
X13190D01*
Y6890D02*
Y6880D01*
X13210D01*
Y6890D01*
X13220D01*
Y6910D01*
X13210D01*
Y6920D01*
X13190D01*
Y6910D01*
X13180D01*
Y6890D01*
X13190D01*
Y7040D02*
Y7030D01*
X13210D01*
Y7040D01*
X13220D01*
Y7060D01*
X13210D01*
Y7070D01*
X13190D01*
Y7060D01*
X13180D01*
Y7040D01*
X13190D01*
X15440Y5640D02*
Y5630D01*
X15460D01*
Y5640D01*
X15470D01*
Y5660D01*
X15460D01*
Y5670D01*
X15440D01*
Y5660D01*
X15430D01*
Y5640D01*
X15440D01*
X15565Y5765D02*
Y5755D01*
X15585D01*
Y5765D01*
X15595D01*
Y5785D01*
X15585D01*
Y5795D01*
X15565D01*
Y5785D01*
X15555D01*
Y5765D01*
X15565D01*
X15440D02*
Y5755D01*
X15460D01*
Y5765D01*
X15470D01*
Y5785D01*
X15460D01*
Y5795D01*
X15440D01*
Y5785D01*
X15430D01*
Y5765D01*
X15440D01*
X15315D02*
Y5755D01*
X15335D01*
Y5765D01*
X15345D01*
Y5785D01*
X15335D01*
Y5795D01*
X15315D01*
Y5785D01*
X15305D01*
Y5765D01*
X15315D01*
Y5640D02*
Y5630D01*
X15335D01*
Y5640D01*
X15345D01*
Y5660D01*
X15335D01*
Y5670D01*
X15315D01*
Y5660D01*
X15305D01*
Y5640D01*
X15315D01*
Y5515D02*
Y5505D01*
X15335D01*
Y5515D01*
X15345D01*
Y5535D01*
X15335D01*
Y5545D01*
X15315D01*
Y5535D01*
X15305D01*
Y5515D01*
X15315D01*
X15190D02*
Y5505D01*
X15210D01*
Y5515D01*
X15220D01*
Y5535D01*
X15210D01*
Y5545D01*
X15190D01*
Y5535D01*
X15180D01*
Y5515D01*
X15190D01*
Y5640D02*
Y5630D01*
X15210D01*
Y5640D01*
X15220D01*
Y5660D01*
X15210D01*
Y5670D01*
X15190D01*
Y5660D01*
X15180D01*
Y5640D01*
X15190D01*
Y5765D02*
Y5755D01*
X15210D01*
Y5765D01*
X15220D01*
Y5785D01*
X15210D01*
Y5795D01*
X15190D01*
Y5785D01*
X15180D01*
Y5765D01*
X15190D01*
X14915Y5515D02*
Y5505D01*
X14935D01*
Y5515D01*
X14945D01*
Y5535D01*
X14935D01*
Y5545D01*
X14915D01*
Y5535D01*
X14905D01*
Y5515D01*
X14915D01*
Y5640D02*
Y5630D01*
X14935D01*
Y5640D01*
X14945D01*
Y5660D01*
X14935D01*
Y5670D01*
X14915D01*
Y5660D01*
X14905D01*
Y5640D01*
X14915D01*
X15065Y5515D02*
Y5505D01*
X15085D01*
Y5515D01*
X15095D01*
Y5535D01*
X15085D01*
Y5545D01*
X15065D01*
Y5535D01*
X15055D01*
Y5515D01*
X15065D01*
Y5640D02*
Y5630D01*
X15085D01*
Y5640D01*
X15095D01*
Y5660D01*
X15085D01*
Y5670D01*
X15065D01*
Y5660D01*
X15055D01*
Y5640D01*
X15065D01*
Y5765D02*
Y5755D01*
X15085D01*
Y5765D01*
X15095D01*
Y5785D01*
X15085D01*
Y5795D01*
X15065D01*
Y5785D01*
X15055D01*
Y5765D01*
X15065D01*
Y5890D02*
Y5880D01*
X15085D01*
Y5890D01*
X15095D01*
Y5910D01*
X15085D01*
Y5920D01*
X15065D01*
Y5910D01*
X15055D01*
Y5890D01*
X15065D01*
Y6015D02*
Y6005D01*
X15085D01*
Y6015D01*
X15095D01*
Y6035D01*
X15085D01*
Y6045D01*
X15065D01*
Y6035D01*
X15055D01*
Y6015D01*
X15065D01*
Y6140D02*
Y6130D01*
X15085D01*
Y6140D01*
X15095D01*
Y6160D01*
X15085D01*
Y6170D01*
X15065D01*
Y6160D01*
X15055D01*
Y6140D01*
X15065D01*
X15515Y6715D02*
Y6705D01*
X15535D01*
Y6715D01*
X15545D01*
Y6735D01*
X15535D01*
Y6745D01*
X15515D01*
Y6735D01*
X15505D01*
Y6715D01*
X15515D01*
X15365D02*
Y6705D01*
X15385D01*
Y6715D01*
X15395D01*
Y6735D01*
X15385D01*
Y6745D01*
X15365D01*
Y6735D01*
X15355D01*
Y6715D01*
X15365D01*
X15215D02*
Y6705D01*
X15235D01*
Y6715D01*
X15245D01*
Y6735D01*
X15235D01*
Y6745D01*
X15215D01*
Y6735D01*
X15205D01*
Y6715D01*
X15215D01*
X15365Y6840D02*
Y6830D01*
X15385D01*
Y6840D01*
X15395D01*
Y6860D01*
X15385D01*
Y6870D01*
X15365D01*
Y6860D01*
X15355D01*
Y6840D01*
X15365D01*
X15215D02*
Y6830D01*
X15235D01*
Y6840D01*
X15245D01*
Y6860D01*
X15235D01*
Y6870D01*
X15215D01*
Y6860D01*
X15205D01*
Y6840D01*
X15215D01*
X15065Y6465D02*
Y6455D01*
X15085D01*
Y6465D01*
X15095D01*
Y6485D01*
X15085D01*
Y6495D01*
X15065D01*
Y6485D01*
X15055D01*
Y6465D01*
X15065D01*
Y6590D02*
Y6580D01*
X15085D01*
Y6590D01*
X15095D01*
Y6610D01*
X15085D01*
Y6620D01*
X15065D01*
Y6610D01*
X15055D01*
Y6590D01*
X15065D01*
Y6715D02*
Y6705D01*
X15085D01*
Y6715D01*
X15095D01*
Y6735D01*
X15085D01*
Y6745D01*
X15065D01*
Y6735D01*
X15055D01*
Y6715D01*
X15065D01*
Y6840D02*
Y6830D01*
X15085D01*
Y6840D01*
X15095D01*
Y6860D01*
X15085D01*
Y6870D01*
X15065D01*
Y6860D01*
X15055D01*
Y6840D01*
X15065D01*
X13842Y6190D02*
Y6180D01*
X13863D01*
Y6190D01*
X13873D01*
Y6210D01*
X13863D01*
Y6220D01*
X13842D01*
Y6210D01*
X13832D01*
Y6190D01*
X13842D01*
X14755Y7397D02*
X14765Y7418D01*
X14755Y7438D01*
X14775Y7428D01*
X14795Y7438D01*
X14785Y7418D01*
X14795Y7397D01*
X14775Y7407D01*
X14755Y7397D01*
X14235Y7180D02*
Y7170D01*
X14255D01*
Y7180D01*
X14265D01*
Y7200D01*
X14255D01*
Y7210D01*
X14235D01*
Y7200D01*
X14225D01*
Y7180D01*
X14235D01*
X14875Y7005D02*
X14885Y7025D01*
X14875Y7045D01*
X14895Y7035D01*
X14915Y7045D01*
X14905Y7025D01*
X14915Y7005D01*
X14895Y7015D01*
X14875Y7005D01*
X16105Y6360D02*
X16115Y6380D01*
X16105Y6400D01*
X16125Y6390D01*
X16145Y6400D01*
X16135Y6380D01*
X16145Y6360D01*
X16125Y6370D01*
X16105Y6360D01*
X14280Y7287D02*
X14290Y7307D01*
X14280Y7328D01*
X14300Y7318D01*
X14320Y7328D01*
X14310Y7307D01*
X14320Y7287D01*
X14300Y7297D01*
X14280Y7287D01*
X12465Y7590D02*
Y7580D01*
X12485D01*
Y7590D01*
X12495D01*
Y7610D01*
X12485D01*
Y7620D01*
X12465D01*
Y7610D01*
X12455D01*
Y7590D01*
X12465D01*
Y7290D02*
Y7280D01*
X12485D01*
Y7290D01*
X12495D01*
Y7310D01*
X12485D01*
Y7320D01*
X12465D01*
Y7310D01*
X12455D01*
Y7290D01*
X12465D01*
X12240D02*
Y7280D01*
X12260D01*
Y7290D01*
X12270D01*
Y7310D01*
X12260D01*
Y7320D01*
X12240D01*
Y7310D01*
X12230D01*
Y7290D01*
X12240D01*
Y7740D02*
Y7730D01*
X12260D01*
Y7740D01*
X12270D01*
Y7760D01*
X12260D01*
Y7770D01*
X12240D01*
Y7760D01*
X12230D01*
Y7740D01*
X12240D01*
X13790Y7430D02*
X13800Y7450D01*
X13790Y7470D01*
X13810Y7460D01*
X13830Y7470D01*
X13820Y7450D01*
X13830Y7430D01*
X13810Y7440D01*
X13790Y7430D01*
X13460Y7342D02*
X13470Y7362D01*
X13460Y7383D01*
X13480Y7373D01*
X13500Y7383D01*
X13490Y7362D01*
X13500Y7342D01*
X13480Y7352D01*
X13460Y7342D01*
X13690Y6190D02*
Y6180D01*
X13710D01*
Y6190D01*
X13720D01*
Y6210D01*
X13710D01*
Y6220D01*
X13690D01*
Y6210D01*
X13680D01*
Y6190D01*
X13690D01*
X13540D02*
Y6180D01*
X13560D01*
Y6190D01*
X13570D01*
Y6210D01*
X13560D01*
Y6220D01*
X13540D01*
Y6210D01*
X13530D01*
Y6190D01*
X13540D01*
X13365D02*
Y6180D01*
X13385D01*
Y6190D01*
X13395D01*
Y6210D01*
X13385D01*
Y6220D01*
X13365D01*
Y6210D01*
X13355D01*
Y6190D01*
X13365D01*
X13215D02*
Y6180D01*
X13235D01*
Y6190D01*
X13245D01*
Y6210D01*
X13235D01*
Y6220D01*
X13215D01*
Y6210D01*
X13205D01*
Y6190D01*
X13215D01*
X13065D02*
Y6180D01*
X13085D01*
Y6190D01*
X13095D01*
Y6210D01*
X13085D01*
Y6220D01*
X13065D01*
Y6210D01*
X13055D01*
Y6190D01*
X13065D01*
X12915Y6040D02*
Y6030D01*
X12935D01*
Y6040D01*
X12945D01*
Y6060D01*
X12935D01*
Y6070D01*
X12915D01*
Y6060D01*
X12905D01*
Y6040D01*
X12915D01*
X13065D02*
Y6030D01*
X13085D01*
Y6040D01*
X13095D01*
Y6060D01*
X13085D01*
Y6070D01*
X13065D01*
Y6060D01*
X13055D01*
Y6040D01*
X13065D01*
X13215D02*
Y6030D01*
X13235D01*
Y6040D01*
X13245D01*
Y6060D01*
X13235D01*
Y6070D01*
X13215D01*
Y6060D01*
X13205D01*
Y6040D01*
X13215D01*
X13365D02*
Y6030D01*
X13385D01*
Y6040D01*
X13395D01*
Y6060D01*
X13385D01*
Y6070D01*
X13365D01*
Y6060D01*
X13355D01*
Y6040D01*
X13365D01*
X13540D02*
Y6030D01*
X13560D01*
Y6040D01*
X13570D01*
Y6060D01*
X13560D01*
Y6070D01*
X13540D01*
Y6060D01*
X13530D01*
Y6040D01*
X13540D01*
X13690D02*
Y6030D01*
X13710D01*
Y6040D01*
X13720D01*
Y6060D01*
X13710D01*
Y6070D01*
X13690D01*
Y6060D01*
X13680D01*
Y6040D01*
X13690D01*
X13840D02*
Y6030D01*
X13860D01*
Y6040D01*
X13870D01*
Y6060D01*
X13860D01*
Y6070D01*
X13840D01*
Y6060D01*
X13830D01*
Y6040D01*
X13840D01*
X12915Y5865D02*
Y5855D01*
X12935D01*
Y5865D01*
X12945D01*
Y5885D01*
X12935D01*
Y5895D01*
X12915D01*
Y5885D01*
X12905D01*
Y5865D01*
X12915D01*
X13065D02*
Y5855D01*
X13085D01*
Y5865D01*
X13095D01*
Y5885D01*
X13085D01*
Y5895D01*
X13065D01*
Y5885D01*
X13055D01*
Y5865D01*
X13065D01*
X13215D02*
Y5855D01*
X13235D01*
Y5865D01*
X13245D01*
Y5885D01*
X13235D01*
Y5895D01*
X13215D01*
Y5885D01*
X13205D01*
Y5865D01*
X13215D01*
X13365D02*
Y5855D01*
X13385D01*
Y5865D01*
X13395D01*
Y5885D01*
X13385D01*
Y5895D01*
X13365D01*
Y5885D01*
X13355D01*
Y5865D01*
X13365D01*
X13540D02*
Y5855D01*
X13560D01*
Y5865D01*
X13570D01*
Y5885D01*
X13560D01*
Y5895D01*
X13540D01*
Y5885D01*
X13530D01*
Y5865D01*
X13540D01*
X13690D02*
Y5855D01*
X13710D01*
Y5865D01*
X13720D01*
Y5885D01*
X13710D01*
Y5895D01*
X13690D01*
Y5885D01*
X13680D01*
Y5865D01*
X13690D01*
X13840D02*
Y5855D01*
X13860D01*
Y5865D01*
X13870D01*
Y5885D01*
X13860D01*
Y5895D01*
X13840D01*
Y5885D01*
X13830D01*
Y5865D01*
X13840D01*
Y5690D02*
Y5680D01*
X13860D01*
Y5690D01*
X13870D01*
Y5710D01*
X13860D01*
Y5720D01*
X13840D01*
Y5710D01*
X13830D01*
Y5690D01*
X13840D01*
X13690D02*
Y5680D01*
X13710D01*
Y5690D01*
X13720D01*
Y5710D01*
X13710D01*
Y5720D01*
X13690D01*
Y5710D01*
X13680D01*
Y5690D01*
X13690D01*
X13540D02*
Y5680D01*
X13560D01*
Y5690D01*
X13570D01*
Y5710D01*
X13560D01*
Y5720D01*
X13540D01*
Y5710D01*
X13530D01*
Y5690D01*
X13540D01*
X13365D02*
Y5680D01*
X13385D01*
Y5690D01*
X13395D01*
Y5710D01*
X13385D01*
Y5720D01*
X13365D01*
Y5710D01*
X13355D01*
Y5690D01*
X13365D01*
X13215D02*
Y5680D01*
X13235D01*
Y5690D01*
X13245D01*
Y5710D01*
X13235D01*
Y5720D01*
X13215D01*
Y5710D01*
X13205D01*
Y5690D01*
X13215D01*
X13065D02*
Y5680D01*
X13085D01*
Y5690D01*
X13095D01*
Y5710D01*
X13085D01*
Y5720D01*
X13065D01*
Y5710D01*
X13055D01*
Y5690D01*
X13065D01*
X12915D02*
Y5680D01*
X12935D01*
Y5690D01*
X12945D01*
Y5710D01*
X12935D01*
Y5720D01*
X12915D01*
Y5710D01*
X12905D01*
Y5690D01*
X12915D01*
X11365Y13165D02*
Y13155D01*
X11385D01*
Y13165D01*
X11395D01*
Y13185D01*
X11385D01*
Y13195D01*
X11365D01*
Y13185D01*
X11355D01*
Y13165D01*
X11365D01*
X11215Y13065D02*
Y13055D01*
X11235D01*
Y13065D01*
X11245D01*
Y13085D01*
X11235D01*
Y13095D01*
X11215D01*
Y13085D01*
X11205D01*
Y13065D01*
X11215D01*
X11065D02*
Y13055D01*
X11085D01*
Y13065D01*
X11095D01*
Y13085D01*
X11085D01*
Y13095D01*
X11065D01*
Y13085D01*
X11055D01*
Y13065D01*
X11065D01*
X10915D02*
Y13055D01*
X10935D01*
Y13065D01*
X10945D01*
Y13085D01*
X10935D01*
Y13095D01*
X10915D01*
Y13085D01*
X10905D01*
Y13065D01*
X10915D01*
X10765D02*
Y13055D01*
X10785D01*
Y13065D01*
X10795D01*
Y13085D01*
X10785D01*
Y13095D01*
X10765D01*
Y13085D01*
X10755D01*
Y13065D01*
X10765D01*
X10615D02*
Y13055D01*
X10635D01*
Y13065D01*
X10645D01*
Y13085D01*
X10635D01*
Y13095D01*
X10615D01*
Y13085D01*
X10605D01*
Y13065D01*
X10615D01*
X11415Y12290D02*
Y12280D01*
X11435D01*
Y12290D01*
X11445D01*
Y12310D01*
X11435D01*
Y12320D01*
X11415D01*
Y12310D01*
X11405D01*
Y12290D01*
X11415D01*
X11265D02*
Y12280D01*
X11285D01*
Y12290D01*
X11295D01*
Y12310D01*
X11285D01*
Y12320D01*
X11265D01*
Y12310D01*
X11255D01*
Y12290D01*
X11265D01*
X11115D02*
Y12280D01*
X11135D01*
Y12290D01*
X11145D01*
Y12310D01*
X11135D01*
Y12320D01*
X11115D01*
Y12310D01*
X11105D01*
Y12290D01*
X11115D01*
X10965D02*
Y12280D01*
X10985D01*
Y12290D01*
X10995D01*
Y12310D01*
X10985D01*
Y12320D01*
X10965D01*
Y12310D01*
X10955D01*
Y12290D01*
X10965D01*
X10815D02*
Y12280D01*
X10835D01*
Y12290D01*
X10845D01*
Y12310D01*
X10835D01*
Y12320D01*
X10815D01*
Y12310D01*
X10805D01*
Y12290D01*
X10815D01*
X10640D02*
Y12280D01*
X10660D01*
Y12290D01*
X10670D01*
Y12310D01*
X10660D01*
Y12320D01*
X10640D01*
Y12310D01*
X10630D01*
Y12290D01*
X10640D01*
X6920Y6505D02*
Y6495D01*
X6940D01*
Y6505D01*
X6950D01*
Y6525D01*
X6940D01*
Y6535D01*
X6920D01*
Y6525D01*
X6910D01*
Y6505D01*
X6920D01*
Y6380D02*
Y6370D01*
X6940D01*
Y6380D01*
X6950D01*
Y6400D01*
X6940D01*
Y6410D01*
X6920D01*
Y6400D01*
X6910D01*
Y6380D01*
X6920D01*
Y6255D02*
Y6245D01*
X6940D01*
Y6255D01*
X6950D01*
Y6275D01*
X6940D01*
Y6285D01*
X6920D01*
Y6275D01*
X6910D01*
Y6255D01*
X6920D01*
X7290Y7990D02*
Y7980D01*
X7310D01*
Y7990D01*
X7320D01*
Y8010D01*
X7310D01*
Y8020D01*
X7290D01*
Y8010D01*
X7280D01*
Y7990D01*
X7290D01*
X7165D02*
Y7980D01*
X7185D01*
Y7990D01*
X7195D01*
Y8010D01*
X7185D01*
Y8020D01*
X7165D01*
Y8010D01*
X7155D01*
Y7990D01*
X7165D01*
X7040D02*
Y7980D01*
X7060D01*
Y7990D01*
X7070D01*
Y8010D01*
X7060D01*
Y8020D01*
X7040D01*
Y8010D01*
X7030D01*
Y7990D01*
X7040D01*
X7290Y8115D02*
Y8105D01*
X7310D01*
Y8115D01*
X7320D01*
Y8135D01*
X7310D01*
Y8145D01*
X7290D01*
Y8135D01*
X7280D01*
Y8115D01*
X7290D01*
X7165D02*
Y8105D01*
X7185D01*
Y8115D01*
X7195D01*
Y8135D01*
X7185D01*
Y8145D01*
X7165D01*
Y8135D01*
X7155D01*
Y8115D01*
X7165D01*
X7040D02*
Y8105D01*
X7060D01*
Y8115D01*
X7070D01*
Y8135D01*
X7060D01*
Y8145D01*
X7040D01*
Y8135D01*
X7030D01*
Y8115D01*
X7040D01*
X7290Y8240D02*
Y8230D01*
X7310D01*
Y8240D01*
X7320D01*
Y8260D01*
X7310D01*
Y8270D01*
X7290D01*
Y8260D01*
X7280D01*
Y8240D01*
X7290D01*
X7165D02*
Y8230D01*
X7185D01*
Y8240D01*
X7195D01*
Y8260D01*
X7185D01*
Y8270D01*
X7165D01*
Y8260D01*
X7155D01*
Y8240D01*
X7165D01*
X7040D02*
Y8230D01*
X7060D01*
Y8240D01*
X7070D01*
Y8260D01*
X7060D01*
Y8270D01*
X7040D01*
Y8260D01*
X7030D01*
Y8240D01*
X7040D01*
X6065Y10115D02*
Y10105D01*
X6085D01*
Y10115D01*
X6095D01*
Y10135D01*
X6085D01*
Y10145D01*
X6065D01*
Y10135D01*
X6055D01*
Y10115D01*
X6065D01*
X6190D02*
Y10105D01*
X6210D01*
Y10115D01*
X6220D01*
Y10135D01*
X6210D01*
Y10145D01*
X6190D01*
Y10135D01*
X6180D01*
Y10115D01*
X6190D01*
X6315D02*
Y10105D01*
X6335D01*
Y10115D01*
X6345D01*
Y10135D01*
X6335D01*
Y10145D01*
X6315D01*
Y10135D01*
X6305D01*
Y10115D01*
X6315D01*
X6440D02*
Y10105D01*
X6460D01*
Y10115D01*
X6470D01*
Y10135D01*
X6460D01*
Y10145D01*
X6440D01*
Y10135D01*
X6430D01*
Y10115D01*
X6440D01*
X6565D02*
Y10105D01*
X6585D01*
Y10115D01*
X6595D01*
Y10135D01*
X6585D01*
Y10145D01*
X6565D01*
Y10135D01*
X6555D01*
Y10115D01*
X6565D01*
X6690D02*
Y10105D01*
X6710D01*
Y10115D01*
X6720D01*
Y10135D01*
X6710D01*
Y10145D01*
X6690D01*
Y10135D01*
X6680D01*
Y10115D01*
X6690D01*
X6065Y9715D02*
Y9705D01*
X6085D01*
Y9715D01*
X6095D01*
Y9735D01*
X6085D01*
Y9745D01*
X6065D01*
Y9735D01*
X6055D01*
Y9715D01*
X6065D01*
X6190D02*
Y9705D01*
X6210D01*
Y9715D01*
X6220D01*
Y9735D01*
X6210D01*
Y9745D01*
X6190D01*
Y9735D01*
X6180D01*
Y9715D01*
X6190D01*
X6315D02*
Y9705D01*
X6335D01*
Y9715D01*
X6345D01*
Y9735D01*
X6335D01*
Y9745D01*
X6315D01*
Y9735D01*
X6305D01*
Y9715D01*
X6315D01*
X6440D02*
Y9705D01*
X6460D01*
Y9715D01*
X6470D01*
Y9735D01*
X6460D01*
Y9745D01*
X6440D01*
Y9735D01*
X6430D01*
Y9715D01*
X6440D01*
X6565D02*
Y9705D01*
X6585D01*
Y9715D01*
X6595D01*
Y9735D01*
X6585D01*
Y9745D01*
X6565D01*
Y9735D01*
X6555D01*
Y9715D01*
X6565D01*
X6690D02*
Y9705D01*
X6710D01*
Y9715D01*
X6720D01*
Y9735D01*
X6710D01*
Y9745D01*
X6690D01*
Y9735D01*
X6680D01*
Y9715D01*
X6690D01*
X6065Y9815D02*
Y9805D01*
X6085D01*
Y9815D01*
X6095D01*
Y9835D01*
X6085D01*
Y9845D01*
X6065D01*
Y9835D01*
X6055D01*
Y9815D01*
X6065D01*
X6190D02*
Y9805D01*
X6210D01*
Y9815D01*
X6220D01*
Y9835D01*
X6210D01*
Y9845D01*
X6190D01*
Y9835D01*
X6180D01*
Y9815D01*
X6190D01*
X6315D02*
Y9805D01*
X6335D01*
Y9815D01*
X6345D01*
Y9835D01*
X6335D01*
Y9845D01*
X6315D01*
Y9835D01*
X6305D01*
Y9815D01*
X6315D01*
X6440D02*
Y9805D01*
X6460D01*
Y9815D01*
X6470D01*
Y9835D01*
X6460D01*
Y9845D01*
X6440D01*
Y9835D01*
X6430D01*
Y9815D01*
X6440D01*
X6565D02*
Y9805D01*
X6585D01*
Y9815D01*
X6595D01*
Y9835D01*
X6585D01*
Y9845D01*
X6565D01*
Y9835D01*
X6555D01*
Y9815D01*
X6565D01*
X6690D02*
Y9805D01*
X6710D01*
Y9815D01*
X6720D01*
Y9835D01*
X6710D01*
Y9845D01*
X6690D01*
Y9835D01*
X6680D01*
Y9815D01*
X6690D01*
X6065Y9915D02*
Y9905D01*
X6085D01*
Y9915D01*
X6095D01*
Y9935D01*
X6085D01*
Y9945D01*
X6065D01*
Y9935D01*
X6055D01*
Y9915D01*
X6065D01*
X6190D02*
Y9905D01*
X6210D01*
Y9915D01*
X6220D01*
Y9935D01*
X6210D01*
Y9945D01*
X6190D01*
Y9935D01*
X6180D01*
Y9915D01*
X6190D01*
X6315D02*
Y9905D01*
X6335D01*
Y9915D01*
X6345D01*
Y9935D01*
X6335D01*
Y9945D01*
X6315D01*
Y9935D01*
X6305D01*
Y9915D01*
X6315D01*
X6440D02*
Y9905D01*
X6460D01*
Y9915D01*
X6470D01*
Y9935D01*
X6460D01*
Y9945D01*
X6440D01*
Y9935D01*
X6430D01*
Y9915D01*
X6440D01*
X6565D02*
Y9905D01*
X6585D01*
Y9915D01*
X6595D01*
Y9935D01*
X6585D01*
Y9945D01*
X6565D01*
Y9935D01*
X6555D01*
Y9915D01*
X6565D01*
X6690D02*
Y9905D01*
X6710D01*
Y9915D01*
X6720D01*
Y9935D01*
X6710D01*
Y9945D01*
X6690D01*
Y9935D01*
X6680D01*
Y9915D01*
X6690D01*
Y10015D02*
Y10005D01*
X6710D01*
Y10015D01*
X6720D01*
Y10035D01*
X6710D01*
Y10045D01*
X6690D01*
Y10035D01*
X6680D01*
Y10015D01*
X6690D01*
X6565D02*
Y10005D01*
X6585D01*
Y10015D01*
X6595D01*
Y10035D01*
X6585D01*
Y10045D01*
X6565D01*
Y10035D01*
X6555D01*
Y10015D01*
X6565D01*
X6440D02*
Y10005D01*
X6460D01*
Y10015D01*
X6470D01*
Y10035D01*
X6460D01*
Y10045D01*
X6440D01*
Y10035D01*
X6430D01*
Y10015D01*
X6440D01*
X6315D02*
Y10005D01*
X6335D01*
Y10015D01*
X6345D01*
Y10035D01*
X6335D01*
Y10045D01*
X6315D01*
Y10035D01*
X6305D01*
Y10015D01*
X6315D01*
X6190D02*
Y10005D01*
X6210D01*
Y10015D01*
X6220D01*
Y10035D01*
X6210D01*
Y10045D01*
X6190D01*
Y10035D01*
X6180D01*
Y10015D01*
X6190D01*
X6065D02*
Y10005D01*
X6085D01*
Y10015D01*
X6095D01*
Y10035D01*
X6085D01*
Y10045D01*
X6065D01*
Y10035D01*
X6055D01*
Y10015D01*
X6065D01*
X9020Y10800D02*
X9030Y10820D01*
X9020Y10840D01*
X9040Y10830D01*
X9060Y10840D01*
X9050Y10820D01*
X9060Y10800D01*
X9040Y10810D01*
X9020Y10800D01*
X7000Y7080D02*
X7010Y7100D01*
X7000Y7120D01*
X7020Y7110D01*
X7040Y7120D01*
X7030Y7100D01*
X7040Y7080D01*
X7020Y7090D01*
X7000Y7080D01*
X17665Y13040D02*
Y13030D01*
X17685D01*
Y13040D01*
X17695D01*
Y13060D01*
X17685D01*
Y13070D01*
X17665D01*
Y13060D01*
X17655D01*
Y13040D01*
X17665D01*
Y13490D02*
Y13480D01*
X17685D01*
Y13490D01*
X17695D01*
Y13510D01*
X17685D01*
Y13520D01*
X17665D01*
Y13510D01*
X17655D01*
Y13490D01*
X17665D01*
Y13340D02*
Y13330D01*
X17685D01*
Y13340D01*
X17695D01*
Y13360D01*
X17685D01*
Y13370D01*
X17665D01*
Y13360D01*
X17655D01*
Y13340D01*
X17665D01*
Y13190D02*
Y13180D01*
X17685D01*
Y13190D01*
X17695D01*
Y13210D01*
X17685D01*
Y13220D01*
X17665D01*
Y13210D01*
X17655D01*
Y13190D01*
X17665D01*
X17815Y13490D02*
Y13480D01*
X17835D01*
Y13490D01*
X17845D01*
Y13510D01*
X17835D01*
Y13520D01*
X17815D01*
Y13510D01*
X17805D01*
Y13490D01*
X17815D01*
Y13340D02*
Y13330D01*
X17835D01*
Y13340D01*
X17845D01*
Y13360D01*
X17835D01*
Y13370D01*
X17815D01*
Y13360D01*
X17805D01*
Y13340D01*
X17815D01*
Y13190D02*
Y13180D01*
X17835D01*
Y13190D01*
X17845D01*
Y13210D01*
X17835D01*
Y13220D01*
X17815D01*
Y13210D01*
X17805D01*
Y13190D01*
X17815D01*
Y12590D02*
Y12580D01*
X17835D01*
Y12590D01*
X17845D01*
Y12610D01*
X17835D01*
Y12620D01*
X17815D01*
Y12610D01*
X17805D01*
Y12590D01*
X17815D01*
Y12740D02*
Y12730D01*
X17835D01*
Y12740D01*
X17845D01*
Y12760D01*
X17835D01*
Y12770D01*
X17815D01*
Y12760D01*
X17805D01*
Y12740D01*
X17815D01*
Y12890D02*
Y12880D01*
X17835D01*
Y12890D01*
X17845D01*
Y12910D01*
X17835D01*
Y12920D01*
X17815D01*
Y12910D01*
X17805D01*
Y12890D01*
X17815D01*
Y13040D02*
Y13030D01*
X17835D01*
Y13040D01*
X17845D01*
Y13060D01*
X17835D01*
Y13070D01*
X17815D01*
Y13060D01*
X17805D01*
Y13040D01*
X17815D01*
Y10040D02*
Y10030D01*
X17835D01*
Y10040D01*
X17845D01*
Y10060D01*
X17835D01*
Y10070D01*
X17815D01*
Y10060D01*
X17805D01*
Y10040D01*
X17815D01*
X17515D02*
Y10030D01*
X17535D01*
Y10040D01*
X17545D01*
Y10060D01*
X17535D01*
Y10070D01*
X17515D01*
Y10060D01*
X17505D01*
Y10040D01*
X17515D01*
Y10490D02*
Y10480D01*
X17535D01*
Y10490D01*
X17545D01*
Y10510D01*
X17535D01*
Y10520D01*
X17515D01*
Y10510D01*
X17505D01*
Y10490D01*
X17515D01*
Y10640D02*
Y10630D01*
X17535D01*
Y10640D01*
X17545D01*
Y10660D01*
X17535D01*
Y10670D01*
X17515D01*
Y10660D01*
X17505D01*
Y10640D01*
X17515D01*
X17315Y10490D02*
Y10480D01*
X17335D01*
Y10490D01*
X17345D01*
Y10510D01*
X17335D01*
Y10520D01*
X17315D01*
Y10510D01*
X17305D01*
Y10490D01*
X17315D01*
Y9965D02*
Y9955D01*
X17335D01*
Y9965D01*
X17345D01*
Y9985D01*
X17335D01*
Y9995D01*
X17315D01*
Y9985D01*
X17305D01*
Y9965D01*
X17315D01*
X17015Y10565D02*
Y10555D01*
X17035D01*
Y10565D01*
X17045D01*
Y10585D01*
X17035D01*
Y10595D01*
X17015D01*
Y10585D01*
X17005D01*
Y10565D01*
X17015D01*
Y10415D02*
Y10405D01*
X17035D01*
Y10415D01*
X17045D01*
Y10435D01*
X17035D01*
Y10445D01*
X17015D01*
Y10435D01*
X17005D01*
Y10415D01*
X17015D01*
Y10265D02*
Y10255D01*
X17035D01*
Y10265D01*
X17045D01*
Y10285D01*
X17035D01*
Y10295D01*
X17015D01*
Y10285D01*
X17005D01*
Y10265D01*
X17015D01*
X17115Y10415D02*
Y10405D01*
X17135D01*
Y10415D01*
X17145D01*
Y10435D01*
X17135D01*
Y10445D01*
X17115D01*
Y10435D01*
X17105D01*
Y10415D01*
X17115D01*
Y9965D02*
Y9955D01*
X17135D01*
Y9965D01*
X17145D01*
Y9985D01*
X17135D01*
Y9995D01*
X17115D01*
Y9985D01*
X17105D01*
Y9965D01*
X17115D01*
X17215Y10415D02*
Y10405D01*
X17235D01*
Y10415D01*
X17245D01*
Y10435D01*
X17235D01*
Y10445D01*
X17215D01*
Y10435D01*
X17205D01*
Y10415D01*
X17215D01*
Y10265D02*
Y10255D01*
X17235D01*
Y10265D01*
X17245D01*
Y10285D01*
X17235D01*
Y10295D01*
X17215D01*
Y10285D01*
X17205D01*
Y10265D01*
X17215D01*
Y10115D02*
Y10105D01*
X17235D01*
Y10115D01*
X17245D01*
Y10135D01*
X17235D01*
Y10145D01*
X17215D01*
Y10135D01*
X17205D01*
Y10115D01*
X17215D01*
Y9965D02*
Y9955D01*
X17235D01*
Y9965D01*
X17245D01*
Y9985D01*
X17235D01*
Y9995D01*
X17215D01*
Y9985D01*
X17205D01*
Y9965D01*
X17215D01*
X17665Y10640D02*
Y10630D01*
X17685D01*
Y10640D01*
X17695D01*
Y10660D01*
X17685D01*
Y10670D01*
X17665D01*
Y10660D01*
X17655D01*
Y10640D01*
X17665D01*
Y10490D02*
Y10480D01*
X17685D01*
Y10490D01*
X17695D01*
Y10510D01*
X17685D01*
Y10520D01*
X17665D01*
Y10510D01*
X17655D01*
Y10490D01*
X17665D01*
Y10340D02*
Y10330D01*
X17685D01*
Y10340D01*
X17695D01*
Y10360D01*
X17685D01*
Y10370D01*
X17665D01*
Y10360D01*
X17655D01*
Y10340D01*
X17665D01*
Y10190D02*
Y10180D01*
X17685D01*
Y10190D01*
X17695D01*
Y10210D01*
X17685D01*
Y10220D01*
X17665D01*
Y10210D01*
X17655D01*
Y10190D01*
X17665D01*
Y10040D02*
Y10030D01*
X17685D01*
Y10040D01*
X17695D01*
Y10060D01*
X17685D01*
Y10070D01*
X17665D01*
Y10060D01*
X17655D01*
Y10040D01*
X17665D01*
X17515Y11390D02*
Y11380D01*
X17535D01*
Y11390D01*
X17545D01*
Y11410D01*
X17535D01*
Y11420D01*
X17515D01*
Y11410D01*
X17505D01*
Y11390D01*
X17515D01*
Y11240D02*
Y11230D01*
X17535D01*
Y11240D01*
X17545D01*
Y11260D01*
X17535D01*
Y11270D01*
X17515D01*
Y11260D01*
X17505D01*
Y11240D01*
X17515D01*
Y11090D02*
Y11080D01*
X17535D01*
Y11090D01*
X17545D01*
Y11110D01*
X17535D01*
Y11120D01*
X17515D01*
Y11110D01*
X17505D01*
Y11090D01*
X17515D01*
Y10940D02*
Y10930D01*
X17535D01*
Y10940D01*
X17545D01*
Y10960D01*
X17535D01*
Y10970D01*
X17515D01*
Y10960D01*
X17505D01*
Y10940D01*
X17515D01*
Y10790D02*
Y10780D01*
X17535D01*
Y10790D01*
X17545D01*
Y10810D01*
X17535D01*
Y10820D01*
X17515D01*
Y10810D01*
X17505D01*
Y10790D01*
X17515D01*
X17665Y11390D02*
Y11380D01*
X17685D01*
Y11390D01*
X17695D01*
Y11410D01*
X17685D01*
Y11420D01*
X17665D01*
Y11410D01*
X17655D01*
Y11390D01*
X17665D01*
Y11240D02*
Y11230D01*
X17685D01*
Y11240D01*
X17695D01*
Y11260D01*
X17685D01*
Y11270D01*
X17665D01*
Y11260D01*
X17655D01*
Y11240D01*
X17665D01*
Y11090D02*
Y11080D01*
X17685D01*
Y11090D01*
X17695D01*
Y11110D01*
X17685D01*
Y11120D01*
X17665D01*
Y11110D01*
X17655D01*
Y11090D01*
X17665D01*
Y10940D02*
Y10930D01*
X17685D01*
Y10940D01*
X17695D01*
Y10960D01*
X17685D01*
Y10970D01*
X17665D01*
Y10960D01*
X17655D01*
Y10940D01*
X17665D01*
Y10790D02*
Y10780D01*
X17685D01*
Y10790D01*
X17695D01*
Y10810D01*
X17685D01*
Y10820D01*
X17665D01*
Y10810D01*
X17655D01*
Y10790D01*
X17665D01*
X17815Y10815D02*
Y10805D01*
X17835D01*
Y10815D01*
X17845D01*
Y10835D01*
X17835D01*
Y10845D01*
X17815D01*
Y10835D01*
X17805D01*
Y10815D01*
X17815D01*
Y10665D02*
Y10655D01*
X17835D01*
Y10665D01*
X17845D01*
Y10685D01*
X17835D01*
Y10695D01*
X17815D01*
Y10685D01*
X17805D01*
Y10665D01*
X17815D01*
Y10515D02*
Y10505D01*
X17835D01*
Y10515D01*
X17845D01*
Y10535D01*
X17835D01*
Y10545D01*
X17815D01*
Y10535D01*
X17805D01*
Y10515D01*
X17815D01*
Y10365D02*
Y10355D01*
X17835D01*
Y10365D01*
X17845D01*
Y10385D01*
X17835D01*
Y10395D01*
X17815D01*
Y10385D01*
X17805D01*
Y10365D01*
X17815D01*
Y10215D02*
Y10205D01*
X17835D01*
Y10215D01*
X17845D01*
Y10235D01*
X17835D01*
Y10245D01*
X17815D01*
Y10235D01*
X17805D01*
Y10215D01*
X17815D01*
Y11540D02*
Y11530D01*
X17835D01*
Y11540D01*
X17845D01*
Y11560D01*
X17835D01*
Y11570D01*
X17815D01*
Y11560D01*
X17805D01*
Y11540D01*
X17815D01*
Y11390D02*
Y11380D01*
X17835D01*
Y11390D01*
X17845D01*
Y11410D01*
X17835D01*
Y11420D01*
X17815D01*
Y11410D01*
X17805D01*
Y11390D01*
X17815D01*
Y11240D02*
Y11230D01*
X17835D01*
Y11240D01*
X17845D01*
Y11260D01*
X17835D01*
Y11270D01*
X17815D01*
Y11260D01*
X17805D01*
Y11240D01*
X17815D01*
Y11090D02*
Y11080D01*
X17835D01*
Y11090D01*
X17845D01*
Y11110D01*
X17835D01*
Y11120D01*
X17815D01*
Y11110D01*
X17805D01*
Y11090D01*
X17815D01*
Y11990D02*
Y11980D01*
X17835D01*
Y11990D01*
X17845D01*
Y12010D01*
X17835D01*
Y12020D01*
X17815D01*
Y12010D01*
X17805D01*
Y11990D01*
X17815D01*
Y11840D02*
Y11830D01*
X17835D01*
Y11840D01*
X17845D01*
Y11860D01*
X17835D01*
Y11870D01*
X17815D01*
Y11860D01*
X17805D01*
Y11840D01*
X17815D01*
Y11690D02*
Y11680D01*
X17835D01*
Y11690D01*
X17845D01*
Y11710D01*
X17835D01*
Y11720D01*
X17815D01*
Y11710D01*
X17805D01*
Y11690D01*
X17815D01*
X16440Y11615D02*
Y11605D01*
X16460D01*
Y11615D01*
X16470D01*
Y11635D01*
X16460D01*
Y11645D01*
X16440D01*
Y11635D01*
X16430D01*
Y11615D01*
X16440D01*
X16890D02*
Y11605D01*
X16910D01*
Y11615D01*
X16920D01*
Y11635D01*
X16910D01*
Y11645D01*
X16890D01*
Y11635D01*
X16880D01*
Y11615D01*
X16890D01*
X17340Y11690D02*
Y11680D01*
X17360D01*
Y11690D01*
X17370D01*
Y11710D01*
X17360D01*
Y11720D01*
X17340D01*
Y11710D01*
X17330D01*
Y11690D01*
X17340D01*
Y11840D02*
Y11830D01*
X17360D01*
Y11840D01*
X17370D01*
Y11860D01*
X17360D01*
Y11870D01*
X17340D01*
Y11860D01*
X17330D01*
Y11840D01*
X17340D01*
Y12140D02*
Y12130D01*
X17360D01*
Y12140D01*
X17370D01*
Y12160D01*
X17360D01*
Y12170D01*
X17340D01*
Y12160D01*
X17330D01*
Y12140D01*
X17340D01*
X16520Y9817D02*
X16530Y9838D01*
X16520Y9858D01*
X16540Y9848D01*
X16560Y9858D01*
X16550Y9838D01*
X16560Y9817D01*
X16540Y9827D01*
X16520Y9817D01*
X16677Y10475D02*
X16687Y10496D01*
X16677Y10516D01*
X16697Y10506D01*
X16717Y10516D01*
X16707Y10496D01*
X16717Y10475D01*
X16697Y10485D01*
X16677Y10475D01*
X16755Y12222D02*
X16765Y12243D01*
X16755Y12263D01*
X16775Y12253D01*
X16795Y12263D01*
X16785Y12243D01*
X16795Y12222D01*
X16775Y12232D01*
X16755Y12222D01*
X16950Y11860D02*
X16960Y11880D01*
X16950Y11900D01*
X16970Y11890D01*
X16990Y11900D01*
X16980Y11880D01*
X16990Y11860D01*
X16970Y11870D01*
X16950Y11860D01*
X16740Y11452D02*
X16750Y11472D01*
X16740Y11493D01*
X16760Y11483D01*
X16780Y11493D01*
X16770Y11472D01*
X16780Y11452D01*
X16760Y11462D01*
X16740Y11452D01*
X13810Y13290D02*
Y13280D01*
X13830D01*
Y13290D01*
X13840D01*
Y13310D01*
X13830D01*
Y13320D01*
X13810D01*
Y13310D01*
X13800D01*
Y13290D01*
X13810D01*
X13960D02*
Y13280D01*
X13980D01*
Y13290D01*
X13990D01*
Y13310D01*
X13980D01*
Y13320D01*
X13960D01*
Y13310D01*
X13950D01*
Y13290D01*
X13960D01*
X14110D02*
Y13280D01*
X14130D01*
Y13290D01*
X14140D01*
Y13310D01*
X14130D01*
Y13320D01*
X14110D01*
Y13310D01*
X14100D01*
Y13290D01*
X14110D01*
X14260D02*
Y13280D01*
X14280D01*
Y13290D01*
X14290D01*
Y13310D01*
X14280D01*
Y13320D01*
X14260D01*
Y13310D01*
X14250D01*
Y13290D01*
X14260D01*
X13810Y13510D02*
Y13500D01*
X13830D01*
Y13510D01*
X13840D01*
Y13530D01*
X13830D01*
Y13540D01*
X13810D01*
Y13530D01*
X13800D01*
Y13510D01*
X13810D01*
X13960D02*
Y13500D01*
X13980D01*
Y13510D01*
X13990D01*
Y13530D01*
X13980D01*
Y13540D01*
X13960D01*
Y13530D01*
X13950D01*
Y13510D01*
X13960D01*
X14110D02*
Y13500D01*
X14130D01*
Y13510D01*
X14140D01*
Y13530D01*
X14130D01*
Y13540D01*
X14110D01*
Y13530D01*
X14100D01*
Y13510D01*
X14110D01*
X14260D02*
Y13500D01*
X14280D01*
Y13510D01*
X14290D01*
Y13530D01*
X14280D01*
Y13540D01*
X14260D01*
Y13530D01*
X14250D01*
Y13510D01*
X14260D01*
X13210D02*
Y13500D01*
X13230D01*
Y13510D01*
X13240D01*
Y13530D01*
X13230D01*
Y13540D01*
X13210D01*
Y13530D01*
X13200D01*
Y13510D01*
X13210D01*
X13360D02*
Y13500D01*
X13380D01*
Y13510D01*
X13390D01*
Y13530D01*
X13380D01*
Y13540D01*
X13360D01*
Y13530D01*
X13350D01*
Y13510D01*
X13360D01*
X13510D02*
Y13500D01*
X13530D01*
Y13510D01*
X13540D01*
Y13530D01*
X13530D01*
Y13540D01*
X13510D01*
Y13530D01*
X13500D01*
Y13510D01*
X13510D01*
X13660D02*
Y13500D01*
X13680D01*
Y13510D01*
X13690D01*
Y13530D01*
X13680D01*
Y13540D01*
X13660D01*
Y13530D01*
X13650D01*
Y13510D01*
X13660D01*
X13580Y12510D02*
Y12500D01*
X13600D01*
Y12510D01*
X13610D01*
Y12530D01*
X13600D01*
Y12540D01*
X13580D01*
Y12530D01*
X13570D01*
Y12510D01*
X13580D01*
X13380D02*
Y12500D01*
X13400D01*
Y12510D01*
X13410D01*
Y12530D01*
X13400D01*
Y12540D01*
X13380D01*
Y12530D01*
X13370D01*
Y12510D01*
X13380D01*
X13180D02*
Y12500D01*
X13200D01*
Y12510D01*
X13210D01*
Y12530D01*
X13200D01*
Y12540D01*
X13180D01*
Y12530D01*
X13170D01*
Y12510D01*
X13180D01*
X13580Y12710D02*
Y12700D01*
X13600D01*
Y12710D01*
X13610D01*
Y12730D01*
X13600D01*
Y12740D01*
X13580D01*
Y12730D01*
X13570D01*
Y12710D01*
X13580D01*
X13380D02*
Y12700D01*
X13400D01*
Y12710D01*
X13410D01*
Y12730D01*
X13400D01*
Y12740D01*
X13380D01*
Y12730D01*
X13370D01*
Y12710D01*
X13380D01*
X13180D02*
Y12700D01*
X13200D01*
Y12710D01*
X13210D01*
Y12730D01*
X13200D01*
Y12740D01*
X13180D01*
Y12730D01*
X13170D01*
Y12710D01*
X13180D01*
Y12910D02*
Y12900D01*
X13200D01*
Y12910D01*
X13210D01*
Y12930D01*
X13200D01*
Y12940D01*
X13180D01*
Y12930D01*
X13170D01*
Y12910D01*
X13180D01*
X13380D02*
Y12900D01*
X13400D01*
Y12910D01*
X13410D01*
Y12930D01*
X13400D01*
Y12940D01*
X13380D01*
Y12930D01*
X13370D01*
Y12910D01*
X13380D01*
X13580D02*
Y12900D01*
X13600D01*
Y12910D01*
X13610D01*
Y12930D01*
X13600D01*
Y12940D01*
X13580D01*
Y12930D01*
X13570D01*
Y12910D01*
X13580D01*
X14920Y13000D02*
X14930Y13020D01*
X14920Y13040D01*
X14940Y13030D01*
X14960Y13040D01*
X14950Y13020D01*
X14960Y13000D01*
X14940Y13010D01*
X14920Y13000D01*
Y12940D02*
X14930Y12960D01*
X14920Y12980D01*
X14940Y12970D01*
X14960Y12980D01*
X14950Y12960D01*
X14960Y12940D01*
X14940Y12950D01*
X14920Y12940D01*
X15040Y12880D02*
X15050Y12900D01*
X15040Y12920D01*
X15060Y12910D01*
X15080Y12920D01*
X15070Y12900D01*
X15080Y12880D01*
X15060Y12890D01*
X15040Y12880D01*
X14980D02*
X14990Y12900D01*
X14980Y12920D01*
X15000Y12910D01*
X15020Y12920D01*
X15010Y12900D01*
X15020Y12880D01*
X15000Y12890D01*
X14980Y12880D01*
X14920D02*
X14930Y12900D01*
X14920Y12920D01*
X14940Y12910D01*
X14960Y12920D01*
X14950Y12900D01*
X14960Y12880D01*
X14940Y12890D01*
X14920Y12880D01*
X15040Y12820D02*
X15050Y12840D01*
X15040Y12860D01*
X15060Y12850D01*
X15080Y12860D01*
X15070Y12840D01*
X15080Y12820D01*
X15060Y12830D01*
X15040Y12820D01*
X14980D02*
X14990Y12840D01*
X14980Y12860D01*
X15000Y12850D01*
X15020Y12860D01*
X15010Y12840D01*
X15020Y12820D01*
X15000Y12830D01*
X14980Y12820D01*
X14920D02*
X14930Y12840D01*
X14920Y12860D01*
X14940Y12850D01*
X14960Y12860D01*
X14950Y12840D01*
X14960Y12820D01*
X14940Y12830D01*
X14920Y12820D01*
X15020Y13160D02*
X15030Y13180D01*
X15020Y13200D01*
X15040Y13190D01*
X15060Y13200D01*
X15050Y13180D01*
X15060Y13160D01*
X15040Y13170D01*
X15020Y13160D01*
X14970D02*
X14980Y13180D01*
X14970Y13200D01*
X14990Y13190D01*
X15010Y13200D01*
X15000Y13180D01*
X15010Y13160D01*
X14990Y13170D01*
X14970Y13160D01*
X14920D02*
X14930Y13180D01*
X14920Y13200D01*
X14940Y13190D01*
X14960Y13200D01*
X14950Y13180D01*
X14960Y13160D01*
X14940Y13170D01*
X14920Y13160D01*
Y13210D02*
X14930Y13230D01*
X14920Y13250D01*
X14940Y13240D01*
X14960Y13250D01*
X14950Y13230D01*
X14960Y13210D01*
X14940Y13220D01*
X14920Y13210D01*
Y13260D02*
X14930Y13280D01*
X14920Y13300D01*
X14940Y13290D01*
X14960Y13300D01*
X14950Y13280D01*
X14960Y13260D01*
X14940Y13270D01*
X14920Y13260D01*
Y13320D02*
X14930Y13340D01*
X14920Y13360D01*
X14940Y13350D01*
X14960Y13360D01*
X14950Y13340D01*
X14960Y13320D01*
X14940Y13330D01*
X14920Y13320D01*
X16540Y12790D02*
Y12780D01*
X16560D01*
Y12790D01*
X16570D01*
Y12810D01*
X16560D01*
Y12820D01*
X16540D01*
Y12810D01*
X16530D01*
Y12790D01*
X16540D01*
Y13190D02*
Y13180D01*
X16560D01*
Y13190D01*
X16570D01*
Y13210D01*
X16560D01*
Y13220D01*
X16540D01*
Y13210D01*
X16530D01*
Y13190D01*
X16540D01*
Y13340D02*
Y13330D01*
X16560D01*
Y13340D01*
X16570D01*
Y13360D01*
X16560D01*
Y13370D01*
X16540D01*
Y13360D01*
X16530D01*
Y13340D01*
X16540D01*
Y13490D02*
Y13480D01*
X16560D01*
Y13490D01*
X16570D01*
Y13510D01*
X16560D01*
Y13520D01*
X16540D01*
Y13510D01*
X16530D01*
Y13490D01*
X16540D01*
X16190Y12590D02*
Y12580D01*
X16210D01*
Y12590D01*
X16220D01*
Y12610D01*
X16210D01*
Y12620D01*
X16190D01*
Y12610D01*
X16180D01*
Y12590D01*
X16190D01*
X16340D02*
Y12580D01*
X16360D01*
Y12590D01*
X16370D01*
Y12610D01*
X16360D01*
Y12620D01*
X16340D01*
Y12610D01*
X16330D01*
Y12590D01*
X16340D01*
X16440D02*
Y12580D01*
X16460D01*
Y12590D01*
X16470D01*
Y12610D01*
X16460D01*
Y12620D01*
X16440D01*
Y12610D01*
X16430D01*
Y12590D01*
X16440D01*
X16340Y12740D02*
Y12730D01*
X16360D01*
Y12740D01*
X16370D01*
Y12760D01*
X16360D01*
Y12770D01*
X16340D01*
Y12760D01*
X16330D01*
Y12740D01*
X16340D01*
Y12440D02*
Y12430D01*
X16360D01*
Y12440D01*
X16370D01*
Y12460D01*
X16360D01*
Y12470D01*
X16340D01*
Y12460D01*
X16330D01*
Y12440D01*
X16340D01*
X16190D02*
Y12430D01*
X16210D01*
Y12440D01*
X16220D01*
Y12460D01*
X16210D01*
Y12470D01*
X16190D01*
Y12460D01*
X16180D01*
Y12440D01*
X16190D01*
X16040D02*
Y12430D01*
X16060D01*
Y12440D01*
X16070D01*
Y12460D01*
X16060D01*
Y12470D01*
X16040D01*
Y12460D01*
X16030D01*
Y12440D01*
X16040D01*
X15890D02*
Y12430D01*
X15910D01*
Y12440D01*
X15920D01*
Y12460D01*
X15910D01*
Y12470D01*
X15890D01*
Y12460D01*
X15880D01*
Y12440D01*
X15890D01*
X15590D02*
Y12430D01*
X15610D01*
Y12440D01*
X15620D01*
Y12460D01*
X15610D01*
Y12470D01*
X15590D01*
Y12460D01*
X15580D01*
Y12440D01*
X15590D01*
X15440D02*
Y12430D01*
X15460D01*
Y12440D01*
X15470D01*
Y12460D01*
X15460D01*
Y12470D01*
X15440D01*
Y12460D01*
X15430D01*
Y12440D01*
X15440D01*
X15290D02*
Y12430D01*
X15310D01*
Y12440D01*
X15320D01*
Y12460D01*
X15310D01*
Y12470D01*
X15290D01*
Y12460D01*
X15280D01*
Y12440D01*
X15290D01*
X15140D02*
Y12430D01*
X15160D01*
Y12440D01*
X15170D01*
Y12460D01*
X15160D01*
Y12470D01*
X15140D01*
Y12460D01*
X15130D01*
Y12440D01*
X15140D01*
X15990Y12890D02*
Y12880D01*
X16010D01*
Y12890D01*
X16020D01*
Y12910D01*
X16010D01*
Y12920D01*
X15990D01*
Y12910D01*
X15980D01*
Y12890D01*
X15990D01*
X15840D02*
Y12880D01*
X15860D01*
Y12890D01*
X15870D01*
Y12910D01*
X15860D01*
Y12920D01*
X15840D01*
Y12910D01*
X15830D01*
Y12890D01*
X15840D01*
X15690D02*
Y12880D01*
X15710D01*
Y12890D01*
X15720D01*
Y12910D01*
X15710D01*
Y12920D01*
X15690D01*
Y12910D01*
X15680D01*
Y12890D01*
X15690D01*
X15540D02*
Y12880D01*
X15560D01*
Y12890D01*
X15570D01*
Y12910D01*
X15560D01*
Y12920D01*
X15540D01*
Y12910D01*
X15530D01*
Y12890D01*
X15540D01*
X16290Y13040D02*
Y13030D01*
X16310D01*
Y13040D01*
X16320D01*
Y13060D01*
X16310D01*
Y13070D01*
X16290D01*
Y13060D01*
X16280D01*
Y13040D01*
X16290D01*
X16140D02*
Y13030D01*
X16160D01*
Y13040D01*
X16170D01*
Y13060D01*
X16160D01*
Y13070D01*
X16140D01*
Y13060D01*
X16130D01*
Y13040D01*
X16140D01*
X15990D02*
Y13030D01*
X16010D01*
Y13040D01*
X16020D01*
Y13060D01*
X16010D01*
Y13070D01*
X15990D01*
Y13060D01*
X15980D01*
Y13040D01*
X15990D01*
X15840D02*
Y13030D01*
X15860D01*
Y13040D01*
X15870D01*
Y13060D01*
X15860D01*
Y13070D01*
X15840D01*
Y13060D01*
X15830D01*
Y13040D01*
X15840D01*
X15690D02*
Y13030D01*
X15710D01*
Y13040D01*
X15720D01*
Y13060D01*
X15710D01*
Y13070D01*
X15690D01*
Y13060D01*
X15680D01*
Y13040D01*
X15690D01*
X15540D02*
Y13030D01*
X15560D01*
Y13040D01*
X15570D01*
Y13060D01*
X15560D01*
Y13070D01*
X15540D01*
Y13060D01*
X15530D01*
Y13040D01*
X15540D01*
X16440Y13190D02*
Y13180D01*
X16460D01*
Y13190D01*
X16470D01*
Y13210D01*
X16460D01*
Y13220D01*
X16440D01*
Y13210D01*
X16430D01*
Y13190D01*
X16440D01*
X16290D02*
Y13180D01*
X16310D01*
Y13190D01*
X16320D01*
Y13210D01*
X16310D01*
Y13220D01*
X16290D01*
Y13210D01*
X16280D01*
Y13190D01*
X16290D01*
X16140D02*
Y13180D01*
X16160D01*
Y13190D01*
X16170D01*
Y13210D01*
X16160D01*
Y13220D01*
X16140D01*
Y13210D01*
X16130D01*
Y13190D01*
X16140D01*
X15990D02*
Y13180D01*
X16010D01*
Y13190D01*
X16020D01*
Y13210D01*
X16010D01*
Y13220D01*
X15990D01*
Y13210D01*
X15980D01*
Y13190D01*
X15990D01*
X15840D02*
Y13180D01*
X15860D01*
Y13190D01*
X15870D01*
Y13210D01*
X15860D01*
Y13220D01*
X15840D01*
Y13210D01*
X15830D01*
Y13190D01*
X15840D01*
X15690D02*
Y13180D01*
X15710D01*
Y13190D01*
X15720D01*
Y13210D01*
X15710D01*
Y13220D01*
X15690D01*
Y13210D01*
X15680D01*
Y13190D01*
X15690D01*
X15540D02*
Y13180D01*
X15560D01*
Y13190D01*
X15570D01*
Y13210D01*
X15560D01*
Y13220D01*
X15540D01*
Y13210D01*
X15530D01*
Y13190D01*
X15540D01*
X15390D02*
Y13180D01*
X15410D01*
Y13190D01*
X15420D01*
Y13210D01*
X15410D01*
Y13220D01*
X15390D01*
Y13210D01*
X15380D01*
Y13190D01*
X15390D01*
X16440Y13340D02*
Y13330D01*
X16460D01*
Y13340D01*
X16470D01*
Y13360D01*
X16460D01*
Y13370D01*
X16440D01*
Y13360D01*
X16430D01*
Y13340D01*
X16440D01*
X16290D02*
Y13330D01*
X16310D01*
Y13340D01*
X16320D01*
Y13360D01*
X16310D01*
Y13370D01*
X16290D01*
Y13360D01*
X16280D01*
Y13340D01*
X16290D01*
X16140D02*
Y13330D01*
X16160D01*
Y13340D01*
X16170D01*
Y13360D01*
X16160D01*
Y13370D01*
X16140D01*
Y13360D01*
X16130D01*
Y13340D01*
X16140D01*
X15990D02*
Y13330D01*
X16010D01*
Y13340D01*
X16020D01*
Y13360D01*
X16010D01*
Y13370D01*
X15990D01*
Y13360D01*
X15980D01*
Y13340D01*
X15990D01*
X15840D02*
Y13330D01*
X15860D01*
Y13340D01*
X15870D01*
Y13360D01*
X15860D01*
Y13370D01*
X15840D01*
Y13360D01*
X15830D01*
Y13340D01*
X15840D01*
X15690D02*
Y13330D01*
X15710D01*
Y13340D01*
X15720D01*
Y13360D01*
X15710D01*
Y13370D01*
X15690D01*
Y13360D01*
X15680D01*
Y13340D01*
X15690D01*
X15540D02*
Y13330D01*
X15560D01*
Y13340D01*
X15570D01*
Y13360D01*
X15560D01*
Y13370D01*
X15540D01*
Y13360D01*
X15530D01*
Y13340D01*
X15540D01*
X15390D02*
Y13330D01*
X15410D01*
Y13340D01*
X15420D01*
Y13360D01*
X15410D01*
Y13370D01*
X15390D01*
Y13360D01*
X15380D01*
Y13340D01*
X15390D01*
X16440Y13490D02*
Y13480D01*
X16460D01*
Y13490D01*
X16470D01*
Y13510D01*
X16460D01*
Y13520D01*
X16440D01*
Y13510D01*
X16430D01*
Y13490D01*
X16440D01*
X16290D02*
Y13480D01*
X16310D01*
Y13490D01*
X16320D01*
Y13510D01*
X16310D01*
Y13520D01*
X16290D01*
Y13510D01*
X16280D01*
Y13490D01*
X16290D01*
X16140D02*
Y13480D01*
X16160D01*
Y13490D01*
X16170D01*
Y13510D01*
X16160D01*
Y13520D01*
X16140D01*
Y13510D01*
X16130D01*
Y13490D01*
X16140D01*
X15990D02*
Y13480D01*
X16010D01*
Y13490D01*
X16020D01*
Y13510D01*
X16010D01*
Y13520D01*
X15990D01*
Y13510D01*
X15980D01*
Y13490D01*
X15990D01*
X15840D02*
Y13480D01*
X15860D01*
Y13490D01*
X15870D01*
Y13510D01*
X15860D01*
Y13520D01*
X15840D01*
Y13510D01*
X15830D01*
Y13490D01*
X15840D01*
X15690D02*
Y13480D01*
X15710D01*
Y13490D01*
X15720D01*
Y13510D01*
X15710D01*
Y13520D01*
X15690D01*
Y13510D01*
X15680D01*
Y13490D01*
X15690D01*
X15540D02*
Y13480D01*
X15560D01*
Y13490D01*
X15570D01*
Y13510D01*
X15560D01*
Y13520D01*
X15540D01*
Y13510D01*
X15530D01*
Y13490D01*
X15540D01*
X15390D02*
Y13480D01*
X15410D01*
Y13490D01*
X15420D01*
Y13510D01*
X15410D01*
Y13520D01*
X15390D01*
Y13510D01*
X15380D01*
Y13490D01*
X15390D01*
X13865Y13115D02*
Y13105D01*
X13885D01*
Y13115D01*
X13895D01*
Y13135D01*
X13885D01*
Y13145D01*
X13865D01*
Y13135D01*
X13855D01*
Y13115D01*
X13865D01*
Y13015D02*
Y13005D01*
X13885D01*
Y13015D01*
X13895D01*
Y13035D01*
X13885D01*
Y13045D01*
X13865D01*
Y13035D01*
X13855D01*
Y13015D01*
X13865D01*
Y12915D02*
Y12905D01*
X13885D01*
Y12915D01*
X13895D01*
Y12935D01*
X13885D01*
Y12945D01*
X13865D01*
Y12935D01*
X13855D01*
Y12915D01*
X13865D01*
Y12815D02*
Y12805D01*
X13885D01*
Y12815D01*
X13895D01*
Y12835D01*
X13885D01*
Y12845D01*
X13865D01*
Y12835D01*
X13855D01*
Y12815D01*
X13865D01*
Y12715D02*
Y12705D01*
X13885D01*
Y12715D01*
X13895D01*
Y12735D01*
X13885D01*
Y12745D01*
X13865D01*
Y12735D01*
X13855D01*
Y12715D01*
X13865D01*
Y12615D02*
Y12605D01*
X13885D01*
Y12615D01*
X13895D01*
Y12635D01*
X13885D01*
Y12645D01*
X13865D01*
Y12635D01*
X13855D01*
Y12615D01*
X13865D01*
X13765Y12715D02*
Y12705D01*
X13785D01*
Y12715D01*
X13795D01*
Y12735D01*
X13785D01*
Y12745D01*
X13765D01*
Y12735D01*
X13755D01*
Y12715D01*
X13765D01*
Y12815D02*
Y12805D01*
X13785D01*
Y12815D01*
X13795D01*
Y12835D01*
X13785D01*
Y12845D01*
X13765D01*
Y12835D01*
X13755D01*
Y12815D01*
X13765D01*
Y12915D02*
Y12905D01*
X13785D01*
Y12915D01*
X13795D01*
Y12935D01*
X13785D01*
Y12945D01*
X13765D01*
Y12935D01*
X13755D01*
Y12915D01*
X13765D01*
Y13015D02*
Y13005D01*
X13785D01*
Y13015D01*
X13795D01*
Y13035D01*
X13785D01*
Y13045D01*
X13765D01*
Y13035D01*
X13755D01*
Y13015D01*
X13765D01*
Y13115D02*
Y13105D01*
X13785D01*
Y13115D01*
X13795D01*
Y13135D01*
X13785D01*
Y13145D01*
X13765D01*
Y13135D01*
X13755D01*
Y13115D01*
X13765D01*
X15212Y12827D02*
X15222Y12848D01*
X15212Y12868D01*
X15232Y12858D01*
X15253Y12868D01*
X15243Y12848D01*
X15253Y12827D01*
X15232Y12837D01*
X15212Y12827D01*
X14687Y13075D02*
X14697Y13095D01*
X14687Y13115D01*
X14707Y13105D01*
X14728Y13115D01*
X14718Y13095D01*
X14728Y13075D01*
X14707Y13085D01*
X14687Y13075D01*
X7500Y10140D02*
X7510Y10160D01*
X7500Y10180D01*
X7520Y10170D01*
X7540Y10180D01*
X7530Y10160D01*
X7540Y10140D01*
X7520Y10150D01*
X7500Y10140D01*
X7242Y9890D02*
X7252Y9910D01*
X7242Y9930D01*
X7262Y9920D01*
X7283Y9930D01*
X7273Y9910D01*
X7283Y9890D01*
X7262Y9900D01*
X7242Y9890D01*
X9618Y9148D02*
X9628Y9168D01*
X9618Y9188D01*
X9638Y9178D01*
X9658Y9188D01*
X9648Y9168D01*
X9658Y9148D01*
X9638Y9158D01*
X9618Y9148D01*
X9438Y8968D02*
X9448Y8988D01*
X9438Y9008D01*
X9458Y8998D01*
X9478Y9008D01*
X9468Y8988D01*
X9478Y8968D01*
X9458Y8978D01*
X9438Y8968D01*
X9185Y8900D02*
X9195Y8920D01*
X9185Y8940D01*
X9205Y8930D01*
X9225Y8940D01*
X9215Y8920D01*
X9225Y8900D01*
X9205Y8910D01*
X9185Y8900D01*
X9402Y11167D02*
X9412Y11188D01*
X9402Y11208D01*
X9422Y11198D01*
X9443Y11208D01*
X9433Y11188D01*
X9443Y11167D01*
X9422Y11177D01*
X9402Y11167D01*
X9460Y11215D02*
X9470Y11235D01*
X9460Y11255D01*
X9480Y11245D01*
X9500Y11255D01*
X9490Y11235D01*
X9500Y11215D01*
X9480Y11225D01*
X9460Y11215D01*
X9435Y13265D02*
X9445Y13285D01*
X9435Y13305D01*
X9455Y13295D01*
X9475Y13305D01*
X9465Y13285D01*
X9475Y13265D01*
X9455Y13275D01*
X9435Y13265D01*
X9255Y8740D02*
X9265Y8760D01*
X9255Y8780D01*
X9275Y8770D01*
X9295Y8780D01*
X9285Y8760D01*
X9295Y8740D01*
X9275Y8750D01*
X9255Y8740D01*
X9135Y13262D02*
X9145Y13282D01*
X9135Y13303D01*
X9155Y13293D01*
X9175Y13303D01*
X9165Y13282D01*
X9175Y13262D01*
X9155Y13272D01*
X9135Y13262D01*
X7725Y11505D02*
X7735Y11525D01*
X7725Y11545D01*
X7745Y11535D01*
X7765Y11545D01*
X7755Y11525D01*
X7765Y11505D01*
X7745Y11515D01*
X7725Y11505D01*
X7370Y11380D02*
X7380Y11400D01*
X7370Y11420D01*
X7390Y11410D01*
X7410Y11420D01*
X7400Y11400D01*
X7410Y11380D01*
X7390Y11390D01*
X7370Y11380D01*
X7847Y12760D02*
X7857Y12780D01*
X7847Y12800D01*
X7868Y12790D01*
X7888Y12800D01*
X7878Y12780D01*
X7888Y12760D01*
X7868Y12770D01*
X7847Y12760D01*
X7565Y12757D02*
X7575Y12778D01*
X7565Y12798D01*
X7585Y12788D01*
X7605Y12798D01*
X7595Y12778D01*
X7605Y12757D01*
X7585Y12767D01*
X7565Y12757D01*
X7665Y12480D02*
X7675Y12500D01*
X7665Y12520D01*
X7685Y12510D01*
X7705Y12520D01*
X7695Y12500D01*
X7705Y12480D01*
X7685Y12490D01*
X7665Y12480D01*
X7845Y12477D02*
X7855Y12497D01*
X7845Y12518D01*
X7865Y12508D01*
X7885Y12518D01*
X7875Y12497D01*
X7885Y12477D01*
X7865Y12487D01*
X7845Y12477D01*
X8035Y12480D02*
X8045Y12500D01*
X8035Y12520D01*
X8055Y12510D01*
X8075Y12520D01*
X8065Y12500D01*
X8075Y12480D01*
X8055Y12490D01*
X8035Y12480D01*
X8125Y12762D02*
X8135Y12782D01*
X8125Y12803D01*
X8145Y12793D01*
X8165Y12803D01*
X8155Y12782D01*
X8165Y12762D01*
X8145Y12772D01*
X8125Y12762D01*
X8032Y13040D02*
X8042Y13060D01*
X8032Y13080D01*
X8053Y13070D01*
X8073Y13080D01*
X8063Y13060D01*
X8073Y13040D01*
X8053Y13050D01*
X8032Y13040D01*
X7842Y13037D02*
X7852Y13057D01*
X7842Y13078D01*
X7862Y13068D01*
X7883Y13078D01*
X7873Y13057D01*
X7883Y13037D01*
X7862Y13047D01*
X7842Y13037D01*
X7660D02*
X7670Y13057D01*
X7660Y13078D01*
X7680Y13068D01*
X7700Y13078D01*
X7690Y13057D01*
X7700Y13037D01*
X7680Y13047D01*
X7660Y13037D01*
X8670Y13510D02*
X8680Y13530D01*
X8670Y13550D01*
X8690Y13540D01*
X8710Y13550D01*
X8700Y13530D01*
X8710Y13510D01*
X8690Y13520D01*
X8670Y13510D01*
X7220Y13512D02*
X7230Y13532D01*
X7220Y13553D01*
X7240Y13543D01*
X7260Y13553D01*
X7250Y13532D01*
X7260Y13512D01*
X7240Y13522D01*
X7220Y13512D01*
X7375Y11887D02*
X7385Y11907D01*
X7375Y11928D01*
X7395Y11918D01*
X7415Y11928D01*
X7405Y11907D01*
X7415Y11887D01*
X7395Y11897D01*
X7375Y11887D01*
X12740Y9702D02*
X12750Y9722D01*
X12740Y9743D01*
X12760Y9733D01*
X12780Y9743D01*
X12770Y9722D01*
X12780Y9702D01*
X12760Y9712D01*
X12740Y9702D01*
X6105Y10387D02*
X6115Y10407D01*
X6105Y10428D01*
X6125Y10418D01*
X6145Y10428D01*
X6135Y10407D01*
X6145Y10387D01*
X6125Y10397D01*
X6105Y10387D01*
X6535Y10392D02*
X6545Y10412D01*
X6535Y10433D01*
X6555Y10423D01*
X6575Y10433D01*
X6565Y10412D01*
X6575Y10392D01*
X6555Y10402D01*
X6535Y10392D01*
Y11640D02*
X6545Y11660D01*
X6535Y11680D01*
X6555Y11670D01*
X6575Y11680D01*
X6565Y11660D01*
X6575Y11640D01*
X6555Y11650D01*
X6535Y11640D01*
X6120D02*
X6130Y11660D01*
X6120Y11680D01*
X6140Y11670D01*
X6160Y11680D01*
X6150Y11660D01*
X6160Y11640D01*
X6140Y11650D01*
X6120Y11640D01*
X6725Y10855D02*
X6735Y10875D01*
X6725Y10895D01*
X6745Y10885D01*
X6765Y10895D01*
X6755Y10875D01*
X6765Y10855D01*
X6745Y10865D01*
X6725Y10855D01*
X8697Y10705D02*
X8707Y10725D01*
X8697Y10745D01*
X8718Y10735D01*
X8738Y10745D01*
X8728Y10725D01*
X8738Y10705D01*
X8718Y10715D01*
X8697Y10705D01*
X11255Y10562D02*
X11265Y10582D01*
X11255Y10603D01*
X11275Y10593D01*
X11295Y10603D01*
X11285Y10582D01*
X11295Y10562D01*
X11275Y10572D01*
X11255Y10562D01*
X11173Y10555D02*
X11183Y10576D01*
X11173Y10596D01*
X11193Y10586D01*
X11213Y10596D01*
X11203Y10576D01*
X11213Y10555D01*
X11193Y10565D01*
X11173Y10555D01*
X11107Y10552D02*
X11117Y10572D01*
X11107Y10593D01*
X11128Y10583D01*
X11148Y10593D01*
X11138Y10572D01*
X11148Y10552D01*
X11128Y10562D01*
X11107Y10552D01*
X11027Y10555D02*
X11037Y10575D01*
X11027Y10595D01*
X11047Y10585D01*
X11068Y10595D01*
X11058Y10575D01*
X11068Y10555D01*
X11047Y10565D01*
X11027Y10555D01*
X11110Y10239D02*
X11120Y10260D01*
X11110Y10280D01*
X11130Y10270D01*
X11150Y10280D01*
X11140Y10260D01*
X11150Y10239D01*
X11130Y10250D01*
X11110Y10239D01*
X11880Y10553D02*
X11890Y10573D01*
X11880Y10593D01*
X11901Y10583D01*
X11921Y10593D01*
X11911Y10573D01*
X11921Y10553D01*
X11901Y10563D01*
X11880Y10553D01*
X11445Y9235D02*
X11455Y9255D01*
X11445Y9275D01*
X11465Y9265D01*
X11485Y9275D01*
X11475Y9255D01*
X11485Y9235D01*
X11465Y9245D01*
X11445Y9235D01*
X10072Y10280D02*
X10082Y10300D01*
X10072Y10320D01*
X10093Y10310D01*
X10113Y10320D01*
X10103Y10300D01*
X10113Y10280D01*
X10093Y10290D01*
X10072Y10280D01*
X9177Y10020D02*
X9187Y10040D01*
X9177Y10060D01*
X9197Y10050D01*
X9218Y10060D01*
X9208Y10040D01*
X9218Y10020D01*
X9197Y10030D01*
X9177Y10020D01*
X9127Y10077D02*
X9137Y10097D01*
X9127Y10118D01*
X9147Y10108D01*
X9168Y10118D01*
X9158Y10097D01*
X9168Y10077D01*
X9147Y10087D01*
X9127Y10077D01*
X8950Y9810D02*
X8960Y9830D01*
X8950Y9850D01*
X8970Y9840D01*
X8990Y9850D01*
X8980Y9830D01*
X8990Y9810D01*
X8970Y9820D01*
X8950Y9810D01*
X8447Y8935D02*
X8457Y8955D01*
X8447Y8975D01*
X8468Y8965D01*
X8488Y8975D01*
X8478Y8955D01*
X8488Y8935D01*
X8468Y8945D01*
X8447Y8935D01*
X8702Y8925D02*
X8712Y8945D01*
X8702Y8965D01*
X8722Y8955D01*
X8743Y8965D01*
X8733Y8945D01*
X8743Y8925D01*
X8722Y8935D01*
X8702Y8925D01*
X8575Y8313D02*
X8585Y8333D01*
X8575Y8354D01*
X8595Y8344D01*
X8615Y8354D01*
X8605Y8333D01*
X8615Y8313D01*
X8595Y8323D01*
X8575Y8313D01*
X8177Y9550D02*
X8187Y9570D01*
X8177Y9590D01*
X8197Y9580D01*
X8218Y9590D01*
X8208Y9570D01*
X8218Y9550D01*
X8197Y9560D01*
X8177Y9550D01*
X8117Y9137D02*
X8127Y9157D01*
X8117Y9178D01*
X8138Y9168D01*
X8158Y9178D01*
X8148Y9157D01*
X8158Y9137D01*
X8138Y9147D01*
X8117Y9137D01*
X7694Y9559D02*
X7705Y9580D01*
X7694Y9600D01*
X7715Y9590D01*
X7735Y9600D01*
X7725Y9580D01*
X7735Y9559D01*
X7715Y9570D01*
X7694Y9559D01*
X7935Y9800D02*
X7945Y9820D01*
X7935Y9841D01*
X7955Y9830D01*
X7976Y9841D01*
X7965Y9820D01*
X7976Y9800D01*
X7955Y9810D01*
X7935Y9800D01*
X9288Y9454D02*
X9298Y9475D01*
X9288Y9495D01*
X9308Y9485D01*
X9328Y9495D01*
X9318Y9475D01*
X9328Y9454D01*
X9308Y9464D01*
X9288Y9454D01*
X9673Y8573D02*
X9683Y8593D01*
X9673Y8613D01*
X9693Y8603D01*
X9713Y8613D01*
X9703Y8593D01*
X9713Y8573D01*
X9693Y8583D01*
X9673Y8573D01*
X9898Y8333D02*
X9908Y8353D01*
X9898Y8373D01*
X9918Y8363D01*
X9938Y8373D01*
X9928Y8353D01*
X9938Y8333D01*
X9918Y8343D01*
X9898Y8333D01*
X9620Y8325D02*
X9630Y8345D01*
X9620Y8365D01*
X9640Y8355D01*
X9660Y8365D01*
X9650Y8345D01*
X9660Y8325D01*
X9640Y8335D01*
X9620Y8325D01*
X9690Y8377D02*
X9700Y8397D01*
X9690Y8418D01*
X9710Y8408D01*
X9730Y8418D01*
X9720Y8397D01*
X9730Y8377D01*
X9710Y8387D01*
X9690Y8377D01*
X9177Y10592D02*
X9187Y10612D01*
X9177Y10633D01*
X9197Y10623D01*
X9218Y10633D01*
X9208Y10612D01*
X9218Y10592D01*
X9197Y10602D01*
X9177Y10592D01*
X10070Y8697D02*
X10080Y8718D01*
X10070Y8738D01*
X10090Y8728D01*
X10110Y8738D01*
X10100Y8718D01*
X10110Y8697D01*
X10090Y8707D01*
X10070Y8697D01*
X10002Y8645D02*
X10012Y8665D01*
X10002Y8685D01*
X10022Y8675D01*
X10043Y8685D01*
X10033Y8665D01*
X10043Y8645D01*
X10022Y8655D01*
X10002Y8645D01*
Y8832D02*
X10012Y8853D01*
X10002Y8873D01*
X10022Y8863D01*
X10043Y8873D01*
X10033Y8853D01*
X10043Y8832D01*
X10022Y8842D01*
X10002Y8832D01*
X17282Y8529D02*
X17292Y8550D01*
X17282Y8570D01*
X17302Y8560D01*
X17323Y8570D01*
X17313Y8550D01*
X17323Y8529D01*
X17302Y8539D01*
X17282Y8529D01*
X17055Y7412D02*
X17065Y7432D01*
X17055Y7452D01*
X17075Y7442D01*
X17095Y7452D01*
X17085Y7432D01*
X17095Y7412D01*
X17075Y7422D01*
X17055Y7412D01*
X17282Y8407D02*
X17292Y8427D01*
X17282Y8447D01*
X17302Y8437D01*
X17323Y8447D01*
X17313Y8427D01*
X17323Y8407D01*
X17302Y8417D01*
X17282Y8407D01*
X17260Y5662D02*
X17270Y5682D01*
X17260Y5702D01*
X17280Y5692D01*
X17300Y5702D01*
X17290Y5682D01*
X17300Y5662D01*
X17280Y5672D01*
X17260Y5662D01*
Y6042D02*
X17270Y6062D01*
X17260Y6082D01*
X17280Y6072D01*
X17300Y6082D01*
X17290Y6062D01*
X17300Y6042D01*
X17280Y6052D01*
X17260Y6042D01*
X17262Y6422D02*
X17272Y6442D01*
X17262Y6462D01*
X17282Y6452D01*
X17303Y6462D01*
X17293Y6442D01*
X17303Y6422D01*
X17282Y6432D01*
X17262Y6422D01*
Y6784D02*
X17272Y6804D01*
X17262Y6825D01*
X17282Y6815D01*
X17303Y6825D01*
X17293Y6804D01*
X17303Y6784D01*
X17282Y6794D01*
X17262Y6784D01*
X17057Y7159D02*
X17067Y7179D01*
X17057Y7200D01*
X17077Y7190D01*
X17098Y7200D01*
X17088Y7179D01*
X17098Y7159D01*
X17077Y7169D01*
X17057Y7159D01*
X17060Y7542D02*
X17070Y7562D01*
X17060Y7582D01*
X17080Y7572D01*
X17100Y7582D01*
X17090Y7562D01*
X17100Y7542D01*
X17080Y7552D01*
X17060Y7542D01*
X17057Y8274D02*
X17067Y8294D01*
X17057Y8315D01*
X17077Y8305D01*
X17098Y8315D01*
X17088Y8294D01*
X17098Y8274D01*
X17077Y8284D01*
X17057Y8274D01*
X17055Y8659D02*
X17065Y8679D01*
X17055Y8700D01*
X17075Y8690D01*
X17095Y8700D01*
X17085Y8679D01*
X17095Y8659D01*
X17075Y8669D01*
X17055Y8659D01*
X17600Y8784D02*
X17610Y8804D01*
X17600Y8825D01*
X17620Y8815D01*
X17640Y8825D01*
X17630Y8804D01*
X17640Y8784D01*
X17620Y8794D01*
X17600Y8784D01*
Y7669D02*
X17610Y7689D01*
X17600Y7710D01*
X17620Y7700D01*
X17640Y7710D01*
X17630Y7689D01*
X17640Y7669D01*
X17620Y7679D01*
X17600Y7669D01*
X17595Y6552D02*
X17605Y6572D01*
X17595Y6592D01*
X17615Y6582D01*
X17635Y6592D01*
X17625Y6572D01*
X17635Y6552D01*
X17615Y6562D01*
X17595Y6552D01*
X11532Y9497D02*
X11542Y9518D01*
X11532Y9538D01*
X11553Y9528D01*
X11573Y9538D01*
X11563Y9518D01*
X11573Y9497D01*
X11553Y9507D01*
X11532Y9497D01*
X11581Y7617D02*
X11591Y7637D01*
X11581Y7658D01*
X11601Y7648D01*
X11621Y7658D01*
X11611Y7637D01*
X11621Y7617D01*
X11601Y7627D01*
X11581Y7617D01*
X11712Y7245D02*
X11722Y7265D01*
X11712Y7285D01*
X11732Y7275D01*
X11753Y7285D01*
X11743Y7265D01*
X11753Y7245D01*
X11732Y7255D01*
X11712Y7245D01*
X12092Y7362D02*
X12102Y7382D01*
X12092Y7403D01*
X12112Y7393D01*
X12133Y7403D01*
X12123Y7382D01*
X12133Y7362D01*
X12112Y7372D01*
X12092Y7362D01*
X10997Y6147D02*
X11007Y6167D01*
X10997Y6188D01*
X11018Y6178D01*
X11038Y6188D01*
X11028Y6167D01*
X11038Y6147D01*
X11018Y6157D01*
X10997Y6147D01*
X11817Y6501D02*
X11827Y6521D01*
X11817Y6542D01*
X11838Y6531D01*
X11858Y6542D01*
X11848Y6521D01*
X11858Y6501D01*
X11838Y6511D01*
X11817Y6501D01*
X11545Y6616D02*
X11555Y6636D01*
X11545Y6657D01*
X11565Y6646D01*
X11585Y6657D01*
X11575Y6636D01*
X11585Y6616D01*
X11565Y6626D01*
X11545Y6616D01*
X12635Y6040D02*
X12645Y6060D01*
X12635Y6080D01*
X12655Y6070D01*
X12675Y6080D01*
X12665Y6060D01*
X12675Y6040D01*
X12655Y6050D01*
X12635Y6040D01*
X8205Y5740D02*
X8215Y5760D01*
X8205Y5780D01*
X8225Y5770D01*
X8245Y5780D01*
X8235Y5760D01*
X8245Y5740D01*
X8225Y5750D01*
X8205Y5740D01*
Y6080D02*
X8215Y6100D01*
X8205Y6120D01*
X8225Y6110D01*
X8245Y6120D01*
X8235Y6100D01*
X8245Y6080D01*
X8225Y6090D01*
X8205Y6080D01*
X10762Y10772D02*
X10772Y10793D01*
X10762Y10813D01*
X10782Y10803D01*
X10803Y10813D01*
X10793Y10793D01*
X10803Y10772D01*
X10782Y10782D01*
X10762Y10772D01*
X10597Y6380D02*
X10607Y6400D01*
X10597Y6420D01*
X10618Y6410D01*
X10638Y6420D01*
X10628Y6400D01*
X10638Y6380D01*
X10618Y6390D01*
X10597Y6380D01*
X9142Y6565D02*
X9152Y6585D01*
X9142Y6605D01*
X9162Y6595D01*
X9183Y6605D01*
X9173Y6585D01*
X9183Y6565D01*
X9162Y6575D01*
X9142Y6565D01*
X9145Y6782D02*
X9155Y6803D01*
X9145Y6823D01*
X9165Y6813D01*
X9185Y6823D01*
X9175Y6803D01*
X9185Y6782D01*
X9165Y6792D01*
X9145Y6782D01*
Y6997D02*
X9155Y7018D01*
X9145Y7038D01*
X9165Y7028D01*
X9185Y7038D01*
X9175Y7018D01*
X9185Y6997D01*
X9165Y7007D01*
X9145Y6997D01*
X9917Y11730D02*
X9927Y11750D01*
X9917Y11770D01*
X9938Y11760D01*
X9958Y11770D01*
X9948Y11750D01*
X9958Y11730D01*
X9938Y11740D01*
X9917Y11730D01*
X9968Y11330D02*
X9978Y11351D01*
X9968Y11371D01*
X9988Y11361D01*
X10008Y11371D01*
X9998Y11351D01*
X10008Y11330D01*
X9988Y11340D01*
X9968Y11330D01*
X10148Y11398D02*
X10158Y11418D01*
X10148Y11438D01*
X10168Y11428D01*
X10188Y11438D01*
X10178Y11418D01*
X10188Y11398D01*
X10168Y11408D01*
X10148Y11398D01*
X10265Y11375D02*
X10275Y11395D01*
X10265Y11415D01*
X10285Y11405D01*
X10305Y11415D01*
X10295Y11395D01*
X10305Y11375D01*
X10285Y11385D01*
X10265Y11375D01*
X10047Y11400D02*
X10057Y11420D01*
X10047Y11440D01*
X10068Y11430D01*
X10088Y11440D01*
X10078Y11420D01*
X10088Y11400D01*
X10068Y11410D01*
X10047Y11400D01*
X10112Y11460D02*
X10122Y11480D01*
X10112Y11500D01*
X10132Y11490D01*
X10153Y11500D01*
X10143Y11480D01*
X10153Y11460D01*
X10132Y11470D01*
X10112Y11460D01*
X10545Y9342D02*
X10555Y9362D01*
X10545Y9383D01*
X10565Y9373D01*
X10585Y9383D01*
X10575Y9362D01*
X10585Y9342D01*
X10565Y9352D01*
X10545Y9342D01*
X11052Y9172D02*
X11062Y9193D01*
X11052Y9213D01*
X11072Y9203D01*
X11093Y9213D01*
X11083Y9193D01*
X11093Y9172D01*
X11072Y9182D01*
X11052Y9172D01*
X11190Y8480D02*
X11200Y8500D01*
X11190Y8520D01*
X11210Y8510D01*
X11230Y8520D01*
X11220Y8500D01*
X11230Y8480D01*
X11210Y8490D01*
X11190Y8480D01*
X9920Y11652D02*
X9930Y11672D01*
X9920Y11693D01*
X9940Y11683D01*
X9960Y11693D01*
X9950Y11672D01*
X9960Y11652D01*
X9940Y11662D01*
X9920Y11652D01*
X9692Y10872D02*
X9702Y10893D01*
X9692Y10913D01*
X9712Y10903D01*
X9733Y10913D01*
X9723Y10893D01*
X9733Y10872D01*
X9712Y10882D01*
X9692Y10872D01*
X9747Y10932D02*
X9757Y10953D01*
X9747Y10973D01*
X9768Y10963D01*
X9788Y10973D01*
X9778Y10953D01*
X9788Y10932D01*
X9768Y10942D01*
X9747Y10932D01*
X9608Y10808D02*
X9618Y10828D01*
X9608Y10848D01*
X9628Y10838D01*
X9648Y10848D01*
X9638Y10828D01*
X9648Y10808D01*
X9628Y10818D01*
X9608Y10808D01*
X9625Y9577D02*
X9635Y9597D01*
X9625Y9618D01*
X9645Y9608D01*
X9665Y9618D01*
X9655Y9597D01*
X9665Y9577D01*
X9645Y9587D01*
X9625Y9577D01*
X10855Y6387D02*
X10865Y6407D01*
X10855Y6428D01*
X10875Y6418D01*
X10895Y6428D01*
X10885Y6407D01*
X10895Y6387D01*
X10875Y6397D01*
X10855Y6387D01*
X11663Y9890D02*
X11673Y9910D01*
X11663Y9931D01*
X11683Y9921D01*
X11703Y9931D01*
X11693Y9910D01*
X11703Y9890D01*
X11683Y9900D01*
X11663Y9890D01*
X12090Y9687D02*
X12100Y9707D01*
X12090Y9728D01*
X12110Y9718D01*
X12130Y9728D01*
X12120Y9707D01*
X12130Y9687D01*
X12110Y9697D01*
X12090Y9687D01*
X11975Y9742D02*
X11985Y9762D01*
X11975Y9783D01*
X11995Y9773D01*
X12015Y9783D01*
X12005Y9762D01*
X12015Y9742D01*
X11995Y9752D01*
X11975Y9742D01*
X11013Y9808D02*
X11023Y9828D01*
X11013Y9848D01*
X11033Y9838D01*
X11053Y9848D01*
X11043Y9828D01*
X11053Y9808D01*
X11033Y9818D01*
X11013Y9808D01*
X11447Y10732D02*
X11457Y10753D01*
X11447Y10773D01*
X11468Y10763D01*
X11488Y10773D01*
X11478Y10753D01*
X11488Y10732D01*
X11468Y10742D01*
X11447Y10732D01*
X10184Y6499D02*
X10194Y6519D01*
X10184Y6539D01*
X10204Y6529D01*
X10225Y6539D01*
X10215Y6519D01*
X10225Y6499D01*
X10204Y6509D01*
X10184Y6499D01*
X9582Y6620D02*
X9592Y6640D01*
X9582Y6660D01*
X9603Y6650D01*
X9623Y6660D01*
X9613Y6640D01*
X9623Y6620D01*
X9603Y6630D01*
X9582Y6620D01*
X9595Y6507D02*
X9605Y6528D01*
X9595Y6548D01*
X9615Y6538D01*
X9635Y6548D01*
X9625Y6528D01*
X9635Y6507D01*
X9615Y6517D01*
X9595Y6507D01*
X10517Y7680D02*
X10527Y7700D01*
X10517Y7720D01*
X10538Y7710D01*
X10558Y7720D01*
X10548Y7700D01*
X10558Y7680D01*
X10538Y7690D01*
X10517Y7680D01*
X10300Y8745D02*
X10310Y8765D01*
X10300Y8786D01*
X10321Y8776D01*
X10341Y8786D01*
X10331Y8765D01*
X10341Y8745D01*
X10321Y8755D01*
X10300Y8745D01*
X10495Y8640D02*
X10505Y8660D01*
X10495Y8681D01*
X10516Y8671D01*
X10536Y8681D01*
X10526Y8660D01*
X10536Y8640D01*
X10516Y8650D01*
X10495Y8640D01*
X10302Y9017D02*
X10312Y9038D01*
X10302Y9058D01*
X10322Y9048D01*
X10343Y9058D01*
X10333Y9038D01*
X10343Y9017D01*
X10322Y9027D01*
X10302Y9017D01*
X9785Y6670D02*
X9795Y6690D01*
X9785Y6710D01*
X9805Y6700D01*
X9825Y6710D01*
X9815Y6690D01*
X9825Y6670D01*
X9805Y6680D01*
X9785Y6670D01*
X10493Y7508D02*
X10503Y7528D01*
X10493Y7548D01*
X10513Y7538D01*
X10533Y7548D01*
X10523Y7528D01*
X10533Y7508D01*
X10513Y7518D01*
X10493Y7508D01*
X10885Y10207D02*
X10895Y10228D01*
X10885Y10248D01*
X10905Y10238D01*
X10925Y10248D01*
X10915Y10228D01*
X10925Y10207D01*
X10905Y10217D01*
X10885Y10207D01*
X10555Y9485D02*
X10565Y9505D01*
X10555Y9525D01*
X10575Y9515D01*
X10595Y9525D01*
X10585Y9505D01*
X10595Y9485D01*
X10575Y9495D01*
X10555Y9485D01*
X9595Y6425D02*
X9605Y6445D01*
X9595Y6465D01*
X9615Y6455D01*
X9635Y6465D01*
X9625Y6445D01*
X9635Y6425D01*
X9615Y6435D01*
X9595Y6425D01*
X9085Y9455D02*
X9095Y9475D01*
X9085Y9495D01*
X9105Y9485D01*
X9125Y9495D01*
X9115Y9475D01*
X9125Y9455D01*
X9105Y9465D01*
X9085Y9455D01*
X9240Y9960D02*
X9250Y9980D01*
X9240Y10000D01*
X9260Y9990D01*
X9280Y10000D01*
X9270Y9980D01*
X9280Y9960D01*
X9260Y9970D01*
X9240Y9960D01*
X9645Y6707D02*
X9655Y6728D01*
X9645Y6748D01*
X9665Y6738D01*
X9685Y6748D01*
X9675Y6728D01*
X9685Y6707D01*
X9665Y6717D01*
X9645Y6707D01*
X10825Y10147D02*
X10835Y10168D01*
X10825Y10188D01*
X10845Y10178D01*
X10865Y10188D01*
X10855Y10168D01*
X10865Y10147D01*
X10845Y10157D01*
X10825Y10147D01*
X9750Y6432D02*
X9760Y6453D01*
X9750Y6473D01*
X9770Y6463D01*
X9790Y6473D01*
X9780Y6453D01*
X9790Y6432D01*
X9770Y6442D01*
X9750Y6432D01*
X9727Y8823D02*
X9737Y8843D01*
X9727Y8864D01*
X9747Y8853D01*
X9768Y8864D01*
X9758Y8843D01*
X9768Y8823D01*
X9747Y8833D01*
X9727Y8823D01*
X9520Y8607D02*
X9530Y8628D01*
X9520Y8648D01*
X9540Y8638D01*
X9560Y8648D01*
X9550Y8628D01*
X9560Y8607D01*
X9540Y8617D01*
X9520Y8607D01*
X9965Y9177D02*
X9975Y9197D01*
X9965Y9218D01*
X9985Y9208D01*
X10005Y9218D01*
X9995Y9197D01*
X10005Y9177D01*
X9985Y9187D01*
X9965Y9177D01*
X9504Y9625D02*
X9514Y9646D01*
X9504Y9666D01*
X9524Y9656D01*
X9545Y9666D01*
X9534Y9646D01*
X9545Y9625D01*
X9524Y9636D01*
X9504Y9625D01*
X9735Y9692D02*
X9745Y9712D01*
X9735Y9733D01*
X9755Y9723D01*
X9775Y9733D01*
X9765Y9712D01*
X9775Y9692D01*
X9755Y9702D01*
X9735Y9692D01*
X9835Y8455D02*
X9845Y8475D01*
X9835Y8495D01*
X9855Y8485D01*
X9875Y8495D01*
X9865Y8475D01*
X9875Y8455D01*
X9855Y8465D01*
X9835Y8455D01*
X9432Y9795D02*
X9442Y9815D01*
X9432Y9835D01*
X9453Y9825D01*
X9473Y9835D01*
X9463Y9815D01*
X9473Y9795D01*
X9453Y9805D01*
X9432Y9795D01*
X10130Y9260D02*
X10140Y9280D01*
X10130Y9301D01*
X10150Y9291D01*
X10171Y9301D01*
X10161Y9280D01*
X10171Y9260D01*
X10150Y9270D01*
X10130Y9260D01*
X10070Y9133D02*
X10080Y9153D01*
X10070Y9173D01*
X10090Y9163D01*
X10111Y9173D01*
X10101Y9153D01*
X10111Y9133D01*
X10090Y9143D01*
X10070Y9133D01*
X9770Y9450D02*
X9780Y9470D01*
X9770Y9490D01*
X9790Y9480D01*
X9810Y9490D01*
X9800Y9470D01*
X9810Y9450D01*
X9790Y9460D01*
X9770Y9450D01*
X10247Y6438D02*
X10257Y6458D01*
X10247Y6479D01*
X10267Y6468D01*
X10288Y6479D01*
X10278Y6458D01*
X10288Y6438D01*
X10267Y6448D01*
X10247Y6438D01*
X10355Y6440D02*
X10365Y6460D01*
X10355Y6481D01*
X10376Y6470D01*
X10396Y6481D01*
X10386Y6460D01*
X10396Y6440D01*
X10376Y6450D01*
X10355Y6440D01*
X10130Y6568D02*
X10140Y6588D01*
X10130Y6608D01*
X10150Y6598D01*
X10171Y6608D01*
X10161Y6588D01*
X10171Y6568D01*
X10150Y6578D01*
X10130Y6568D01*
X10207Y11322D02*
X10217Y11343D01*
X10207Y11363D01*
X10228Y11353D01*
X10248Y11363D01*
X10238Y11343D01*
X10248Y11322D01*
X10228Y11332D01*
X10207Y11322D01*
X10990Y10790D02*
X11000Y10810D01*
X10990Y10830D01*
X11010Y10820D01*
X11030Y10830D01*
X11020Y10810D01*
X11030Y10790D01*
X11010Y10800D01*
X10990Y10790D01*
X11005Y10689D02*
X11015Y10709D01*
X11005Y10730D01*
X11026Y10720D01*
X11046Y10730D01*
X11036Y10709D01*
X11046Y10689D01*
X11026Y10699D01*
X11005Y10689D01*
X10554Y9415D02*
X10565Y9435D01*
X10554Y9455D01*
X10575Y9445D01*
X10595Y9455D01*
X10585Y9435D01*
X10595Y9415D01*
X10575Y9425D01*
X10554Y9415D01*
X10555Y9550D02*
X10565Y9570D01*
X10555Y9591D01*
X10576Y9581D01*
X10596Y9591D01*
X10586Y9570D01*
X10596Y9550D01*
X10576Y9560D01*
X10555Y9550D01*
X10610Y9607D02*
X10620Y9628D01*
X10610Y9648D01*
X10630Y9638D01*
X10650Y9648D01*
X10640Y9628D01*
X10650Y9607D01*
X10630Y9617D01*
X10610Y9607D01*
Y9680D02*
X10620Y9700D01*
X10610Y9720D01*
X10630Y9710D01*
X10650Y9720D01*
X10640Y9700D01*
X10650Y9680D01*
X10630Y9690D01*
X10610Y9680D01*
X10247Y11052D02*
X10257Y11072D01*
X10247Y11093D01*
X10268Y11083D01*
X10288Y11093D01*
X10278Y11072D01*
X10288Y11052D01*
X10268Y11062D01*
X10247Y11052D01*
X10355Y11260D02*
X10365Y11280D01*
X10355Y11300D01*
X10375Y11290D01*
X10395Y11300D01*
X10385Y11280D01*
X10395Y11260D01*
X10375Y11270D01*
X10355Y11260D01*
X10517Y11052D02*
X10527Y11072D01*
X10517Y11093D01*
X10538Y11083D01*
X10558Y11093D01*
X10548Y11072D01*
X10558Y11052D01*
X10538Y11062D01*
X10517Y11052D01*
X10577Y10817D02*
X10587Y10838D01*
X10577Y10858D01*
X10597Y10848D01*
X10618Y10858D01*
X10608Y10838D01*
X10618Y10817D01*
X10597Y10827D01*
X10577Y10817D01*
X10322Y11052D02*
X10332Y11072D01*
X10322Y11093D01*
X10343Y11083D01*
X10363Y11093D01*
X10353Y11072D01*
X10363Y11052D01*
X10343Y11062D01*
X10322Y11052D01*
X10685Y11060D02*
X10695Y11080D01*
X10685Y11100D01*
X10705Y11090D01*
X10725Y11100D01*
X10715Y11080D01*
X10725Y11060D01*
X10705Y11070D01*
X10685Y11060D01*
X10687Y10825D02*
X10697Y10845D01*
X10687Y10865D01*
X10707Y10855D01*
X10728Y10865D01*
X10718Y10845D01*
X10728Y10825D01*
X10707Y10835D01*
X10687Y10825D01*
X10715Y11607D02*
X10725Y11628D01*
X10715Y11648D01*
X10735Y11638D01*
X10755Y11648D01*
X10745Y11628D01*
X10755Y11607D01*
X10735Y11617D01*
X10715Y11607D01*
X14827Y10327D02*
X14837Y10347D01*
X14827Y10368D01*
X14848Y10358D01*
X14868Y10368D01*
X14858Y10347D01*
X14868Y10327D01*
X14848Y10337D01*
X14827Y10327D01*
X13950Y10357D02*
X13960Y10378D01*
X13950Y10398D01*
X13970Y10388D01*
X13990Y10398D01*
X13980Y10378D01*
X13990Y10357D01*
X13970Y10367D01*
X13950Y10357D01*
X13632Y10360D02*
X13642Y10380D01*
X13632Y10400D01*
X13652Y10390D01*
X13673Y10400D01*
X13663Y10380D01*
X13673Y10360D01*
X13652Y10370D01*
X13632Y10360D01*
X13870Y10357D02*
X13880Y10378D01*
X13870Y10398D01*
X13890Y10388D01*
X13910Y10398D01*
X13900Y10378D01*
X13910Y10357D01*
X13890Y10367D01*
X13870Y10357D01*
X14068Y10385D02*
X14078Y10406D01*
X14068Y10426D01*
X14088Y10416D01*
X14109Y10426D01*
X14098Y10406D01*
X14109Y10385D01*
X14088Y10395D01*
X14068Y10385D01*
X11685Y10745D02*
X11695Y10765D01*
X11685Y10785D01*
X11705Y10775D01*
X11725Y10785D01*
X11715Y10765D01*
X11725Y10745D01*
X11705Y10755D01*
X11685Y10745D01*
X10980Y11287D02*
X10990Y11307D01*
X10980Y11327D01*
X11000Y11317D01*
X11021Y11327D01*
X11010Y11307D01*
X11021Y11287D01*
X11000Y11297D01*
X10980Y11287D01*
X11067Y11210D02*
X11077Y11230D01*
X11067Y11250D01*
X11088Y11240D01*
X11108Y11250D01*
X11098Y11230D01*
X11108Y11210D01*
X11088Y11220D01*
X11067Y11210D01*
X10275Y11302D02*
X10285Y11322D01*
X10275Y11343D01*
X10295Y11333D01*
X10315Y11343D01*
X10305Y11322D01*
X10315Y11302D01*
X10295Y11312D01*
X10275Y11302D01*
X13472Y10727D02*
X13482Y10747D01*
X13472Y10768D01*
X13493Y10758D01*
X13513Y10768D01*
X13503Y10747D01*
X13513Y10727D01*
X13493Y10737D01*
X13472Y10727D01*
X13867Y11785D02*
X13877Y11805D01*
X13867Y11825D01*
X13888Y11815D01*
X13908Y11825D01*
X13898Y11805D01*
X13908Y11785D01*
X13888Y11795D01*
X13867Y11785D01*
X10864Y11598D02*
X10875Y11618D01*
X10864Y11638D01*
X10885Y11628D01*
X10905Y11638D01*
X10895Y11618D01*
X10905Y11598D01*
X10885Y11608D01*
X10864Y11598D01*
X13945Y11785D02*
X13955Y11805D01*
X13945Y11825D01*
X13965Y11815D01*
X13985Y11825D01*
X13975Y11805D01*
X13985Y11785D01*
X13965Y11795D01*
X13945Y11785D01*
X10987Y11435D02*
X10997Y11455D01*
X10987Y11475D01*
X11007Y11465D01*
X11028Y11475D01*
X11018Y11455D01*
X11028Y11435D01*
X11007Y11445D01*
X10987Y11435D01*
X14112Y11792D02*
X14122Y11812D01*
X14112Y11833D01*
X14132Y11823D01*
X14153Y11833D01*
X14143Y11812D01*
X14153Y11792D01*
X14132Y11802D01*
X14112Y11792D01*
X14350Y11462D02*
X14360Y11482D01*
X14350Y11503D01*
X14370Y11493D01*
X14390Y11503D01*
X14380Y11482D01*
X14390Y11462D01*
X14370Y11472D01*
X14350Y11462D01*
X14187Y11790D02*
X14197Y11810D01*
X14187Y11830D01*
X14207Y11820D01*
X14228Y11830D01*
X14218Y11810D01*
X14228Y11790D01*
X14207Y11800D01*
X14187Y11790D01*
X14245Y10660D02*
X14255Y10680D01*
X14245Y10700D01*
X14265Y10690D01*
X14285Y10700D01*
X14275Y10680D01*
X14285Y10660D01*
X14265Y10670D01*
X14245Y10660D01*
X13585Y10137D02*
X13595Y10157D01*
X13585Y10178D01*
X13605Y10168D01*
X13625Y10178D01*
X13615Y10157D01*
X13625Y10137D01*
X13605Y10147D01*
X13585Y10137D01*
X14110Y10665D02*
X14120Y10685D01*
X14110Y10705D01*
X14130Y10695D01*
X14150Y10705D01*
X14140Y10685D01*
X14150Y10665D01*
X14130Y10675D01*
X14110Y10665D01*
X15235Y11440D02*
X15245Y11460D01*
X15235Y11480D01*
X15255Y11470D01*
X15275Y11480D01*
X15265Y11460D01*
X15275Y11440D01*
X15255Y11450D01*
X15235Y11440D01*
X15317D02*
X15327Y11460D01*
X15317Y11480D01*
X15338Y11470D01*
X15358Y11480D01*
X15348Y11460D01*
X15358Y11440D01*
X15338Y11450D01*
X15317Y11440D01*
X15152Y11445D02*
X15162Y11466D01*
X15152Y11486D01*
X15172Y11476D01*
X15192Y11486D01*
X15182Y11466D01*
X15192Y11445D01*
X15172Y11455D01*
X15152Y11445D01*
X15070Y11445D02*
X15080Y11465D01*
X15070Y11485D01*
X15090Y11475D01*
X15110Y11485D01*
X15100Y11465D01*
X15110Y11445D01*
X15090Y11455D01*
X15070Y11445D01*
X15387Y11437D02*
X15397Y11457D01*
X15387Y11478D01*
X15407Y11468D01*
X15428Y11478D01*
X15418Y11457D01*
X15428Y11437D01*
X15407Y11447D01*
X15387Y11437D01*
X14907Y11445D02*
X14917Y11465D01*
X14907Y11485D01*
X14927Y11475D01*
X14948Y11485D01*
X14938Y11465D01*
X14948Y11445D01*
X14927Y11455D01*
X14907Y11445D01*
X14817Y11355D02*
X14827Y11375D01*
X14817Y11395D01*
X14838Y11385D01*
X14858Y11395D01*
X14848Y11375D01*
X14858Y11355D01*
X14838Y11365D01*
X14817Y11355D01*
X14842Y10935D02*
X14852Y10955D01*
X14842Y10975D01*
X14862Y10965D01*
X14883Y10975D01*
X14873Y10955D01*
X14883Y10935D01*
X14862Y10945D01*
X14842Y10935D01*
X14670Y11272D02*
X14680Y11293D01*
X14670Y11313D01*
X14690Y11303D01*
X14710Y11313D01*
X14700Y11293D01*
X14710Y11272D01*
X14690Y11282D01*
X14670Y11272D01*
X10867Y10825D02*
X10877Y10845D01*
X10867Y10865D01*
X10888Y10855D01*
X10908Y10865D01*
X10898Y10845D01*
X10908Y10825D01*
X10888Y10835D01*
X10867Y10825D01*
X14995Y11450D02*
X15005Y11470D01*
X14995Y11490D01*
X15015Y11480D01*
X15035Y11490D01*
X15025Y11470D01*
X15035Y11450D01*
X15015Y11460D01*
X14995Y11450D01*
X14585Y10648D02*
X14596Y10668D01*
X14585Y10688D01*
X14606Y10678D01*
X14626Y10688D01*
X14616Y10668D01*
X14626Y10648D01*
X14606Y10658D01*
X14585Y10648D01*
X14987Y10662D02*
X14997Y10682D01*
X14987Y10703D01*
X15007Y10693D01*
X15028Y10703D01*
X15018Y10682D01*
X15028Y10662D01*
X15007Y10672D01*
X14987Y10662D01*
X14912Y10665D02*
X14922Y10685D01*
X14912Y10705D01*
X14932Y10695D01*
X14953Y10705D01*
X14943Y10685D01*
X14953Y10665D01*
X14932Y10675D01*
X14912Y10665D01*
X12190Y8665D02*
X12200Y8685D01*
X12190Y8705D01*
X12210Y8695D01*
X12230Y8705D01*
X12220Y8685D01*
X12230Y8665D01*
X12210Y8675D01*
X12190Y8665D01*
X11127Y9897D02*
X11137Y9918D01*
X11127Y9938D01*
X11147Y9928D01*
X11168Y9938D01*
X11158Y9918D01*
X11168Y9897D01*
X11147Y9907D01*
X11127Y9897D01*
X14315Y10135D02*
X14325Y10155D01*
X14315Y10175D01*
X14335Y10165D01*
X14355Y10175D01*
X14345Y10155D01*
X14355Y10135D01*
X14335Y10145D01*
X14315Y10135D01*
X13750Y10132D02*
X13760Y10153D01*
X13750Y10173D01*
X13770Y10163D01*
X13790Y10173D01*
X13780Y10153D01*
X13790Y10132D01*
X13770Y10142D01*
X13750Y10132D01*
X14583Y10847D02*
X14593Y10867D01*
X14583Y10888D01*
X14603Y10877D01*
X14624Y10888D01*
X14614Y10867D01*
X14624Y10847D01*
X14603Y10857D01*
X14583Y10847D01*
X14510Y10362D02*
X14520Y10382D01*
X14510Y10403D01*
X14530Y10393D01*
X14550Y10403D01*
X14540Y10382D01*
X14550Y10362D01*
X14530Y10372D01*
X14510Y10362D01*
X13707Y11342D02*
X13717Y11362D01*
X13707Y11383D01*
X13727Y11373D01*
X13748Y11383D01*
X13738Y11362D01*
X13748Y11342D01*
X13727Y11352D01*
X13707Y11342D01*
X13632D02*
X13642Y11362D01*
X13632Y11383D01*
X13652Y11373D01*
X13673Y11383D01*
X13663Y11362D01*
X13673Y11342D01*
X13652Y11352D01*
X13632Y11342D01*
X13472D02*
X13482Y11362D01*
X13472Y11383D01*
X13493Y11373D01*
X13513Y11383D01*
X13503Y11362D01*
X13513Y11342D01*
X13493Y11352D01*
X13472Y11342D01*
X13470Y10357D02*
X13480Y10378D01*
X13470Y10398D01*
X13490Y10388D01*
X13510Y10398D01*
X13500Y10378D01*
X13510Y10357D01*
X13490Y10367D01*
X13470Y10357D01*
X13710Y10360D02*
X13720Y10380D01*
X13710Y10400D01*
X13730Y10390D01*
X13750Y10400D01*
X13740Y10380D01*
X13750Y10360D01*
X13730Y10370D01*
X13710Y10360D01*
X9870Y10815D02*
X9880Y10835D01*
X9870Y10855D01*
X9890Y10845D01*
X9910Y10855D01*
X9900Y10835D01*
X9910Y10815D01*
X9890Y10825D01*
X9870Y10815D01*
X9810Y10875D02*
X9820Y10895D01*
X9810Y10915D01*
X9830Y10905D01*
X9850Y10915D01*
X9840Y10895D01*
X9850Y10875D01*
X9830Y10885D01*
X9810Y10875D01*
X9515Y10877D02*
X9525Y10897D01*
X9515Y10918D01*
X9535Y10908D01*
X9555Y10918D01*
X9545Y10897D01*
X9555Y10877D01*
X9535Y10887D01*
X9515Y10877D01*
X14667Y10260D02*
X14677Y10280D01*
X14667Y10300D01*
X14688Y10290D01*
X14708Y10300D01*
X14698Y10280D01*
X14708Y10260D01*
X14688Y10270D01*
X14667Y10260D01*
X10702Y11772D02*
X10712Y11793D01*
X10702Y11813D01*
X10722Y11803D01*
X10743Y11813D01*
X10733Y11793D01*
X10743Y11772D01*
X10722Y11782D01*
X10702Y11772D01*
X13762Y11992D02*
X13772Y12012D01*
X13762Y12033D01*
X13782Y12023D01*
X13803Y12033D01*
X13793Y12012D01*
X13803Y11992D01*
X13782Y12002D01*
X13762Y11992D01*
X13592D02*
X13602Y12012D01*
X13592Y12033D01*
X13612Y12023D01*
X13633Y12033D01*
X13623Y12012D01*
X13633Y11992D01*
X13612Y12002D01*
X13592Y11992D01*
X14272Y11987D02*
X14282Y12007D01*
X14272Y12028D01*
X14293Y12018D01*
X14313Y12028D01*
X14303Y12007D01*
X14313Y11987D01*
X14293Y11997D01*
X14272Y11987D01*
X14440D02*
X14450Y12007D01*
X14440Y12028D01*
X14460Y12018D01*
X14480Y12028D01*
X14470Y12007D01*
X14480Y11987D01*
X14460Y11997D01*
X14440Y11987D01*
X15832Y11625D02*
X15842Y11645D01*
X15832Y11665D01*
X15852Y11655D01*
X15873Y11665D01*
X15863Y11645D01*
X15873Y11625D01*
X15852Y11635D01*
X15832Y11625D01*
X15830Y11452D02*
X15840Y11472D01*
X15830Y11493D01*
X15850Y11483D01*
X15870Y11493D01*
X15860Y11472D01*
X15870Y11452D01*
X15850Y11462D01*
X15830Y11452D01*
X15822Y10672D02*
X15832Y10693D01*
X15822Y10713D01*
X15843Y10703D01*
X15863Y10713D01*
X15853Y10693D01*
X15863Y10672D01*
X15843Y10682D01*
X15822Y10672D01*
X15820Y10500D02*
X15830Y10520D01*
X15820Y10540D01*
X15840Y10530D01*
X15860Y10540D01*
X15850Y10520D01*
X15860Y10500D01*
X15840Y10510D01*
X15820Y10500D01*
X14487Y10132D02*
X14497Y10153D01*
X14487Y10173D01*
X14507Y10163D01*
X14528Y10173D01*
X14518Y10153D01*
X14528Y10132D01*
X14507Y10142D01*
X14487Y10132D01*
X14117Y10135D02*
X14127Y10155D01*
X14117Y10175D01*
X14138Y10165D01*
X14158Y10175D01*
X14148Y10155D01*
X14158Y10135D01*
X14138Y10145D01*
X14117Y10135D01*
X13942Y10137D02*
X13952Y10157D01*
X13942Y10178D01*
X13962Y10168D01*
X13983Y10178D01*
X13973Y10157D01*
X13983Y10137D01*
X13962Y10147D01*
X13942Y10137D01*
X11422Y9679D02*
X11432Y9700D01*
X11422Y9720D01*
X11442Y9710D01*
X11463Y9720D01*
X11452Y9700D01*
X11463Y9679D01*
X11442Y9690D01*
X11422Y9679D01*
X11812Y9770D02*
X11823Y9790D01*
X11812Y9811D01*
X11833Y9800D01*
X11853Y9811D01*
X11843Y9790D01*
X11853Y9770D01*
X11833Y9780D01*
X11812Y9770D01*
X11350Y11095D02*
X11360Y11115D01*
X11350Y11135D01*
X11370Y11125D01*
X11390Y11135D01*
X11380Y11115D01*
X11390Y11095D01*
X11370Y11105D01*
X11350Y11095D01*
X11232Y11212D02*
X11242Y11232D01*
X11232Y11253D01*
X11253Y11243D01*
X11273Y11253D01*
X11263Y11232D01*
X11273Y11212D01*
X11253Y11222D01*
X11232Y11212D01*
X10572Y11872D02*
X10582Y11893D01*
X10572Y11913D01*
X10593Y11903D01*
X10613Y11913D01*
X10603Y11893D01*
X10613Y11872D01*
X10593Y11882D01*
X10572Y11872D01*
X9417Y11455D02*
X9427Y11475D01*
X9417Y11496D01*
X9437Y11485D01*
X9458Y11496D01*
X9447Y11475D01*
X9458Y11455D01*
X9437Y11465D01*
X9417Y11455D01*
X9537Y11577D02*
X9547Y11598D01*
X9537Y11618D01*
X9557Y11608D01*
X9578Y11618D01*
X9567Y11598D01*
X9578Y11577D01*
X9557Y11588D01*
X9537Y11577D01*
X9035Y11055D02*
X9045Y11075D01*
X9035Y11095D01*
X9055Y11085D01*
X9075Y11095D01*
X9065Y11075D01*
X9075Y11055D01*
X9055Y11065D01*
X9035Y11055D01*
X9152Y11175D02*
X9162Y11195D01*
X9152Y11215D01*
X9172Y11205D01*
X9193Y11215D01*
X9183Y11195D01*
X9193Y11175D01*
X9172Y11185D01*
X9152Y11175D01*
X8575Y10592D02*
X8585Y10612D01*
X8575Y10633D01*
X8595Y10623D01*
X8615Y10633D01*
X8605Y10612D01*
X8615Y10592D01*
X8595Y10602D01*
X8575Y10592D01*
X8962Y9570D02*
X8972Y9590D01*
X8962Y9610D01*
X8982Y9600D01*
X9003Y9610D01*
X8993Y9590D01*
X9003Y9570D01*
X8982Y9580D01*
X8962Y9570D01*
X9310Y9235D02*
X9320Y9255D01*
X9310Y9275D01*
X9330Y9265D01*
X9350Y9275D01*
X9340Y9255D01*
X9350Y9235D01*
X9330Y9245D01*
X9310Y9235D01*
X9427Y9112D02*
X9437Y9132D01*
X9427Y9153D01*
X9447Y9143D01*
X9468Y9153D01*
X9458Y9132D01*
X9468Y9112D01*
X9447Y9122D01*
X9427Y9112D01*
X9487Y8760D02*
X9497Y8780D01*
X9487Y8800D01*
X9507Y8790D01*
X9528Y8800D01*
X9518Y8780D01*
X9528Y8760D01*
X9507Y8770D01*
X9487Y8760D01*
X11170Y9292D02*
X11180Y9312D01*
X11170Y9333D01*
X11190Y9323D01*
X11210Y9333D01*
X11200Y9312D01*
X11210Y9292D01*
X11190Y9302D01*
X11170Y9292D01*
X12105Y8575D02*
X12115Y8595D01*
X12105Y8615D01*
X12125Y8605D01*
X12145Y8615D01*
X12135Y8595D01*
X12145Y8575D01*
X12125Y8585D01*
X12105Y8575D01*
X14080Y7530D02*
X14090Y7550D01*
X14080Y7570D01*
X14100Y7560D01*
X14120Y7570D01*
X14110Y7550D01*
X14120Y7530D01*
X14100Y7540D01*
X14080Y7530D01*
X14005Y7605D02*
X14015Y7625D01*
X14005Y7645D01*
X14025Y7635D01*
X14045Y7645D01*
X14035Y7625D01*
X14045Y7605D01*
X14025Y7615D01*
X14005Y7605D01*
X14155D02*
X14165Y7625D01*
X14155Y7645D01*
X14175Y7635D01*
X14195Y7645D01*
X14185Y7625D01*
X14195Y7605D01*
X14175Y7615D01*
X14155Y7605D01*
X14005Y7455D02*
X14015Y7475D01*
X14005Y7495D01*
X14025Y7485D01*
X14045Y7495D01*
X14035Y7475D01*
X14045Y7455D01*
X14025Y7465D01*
X14005Y7455D01*
X14155D02*
X14165Y7475D01*
X14155Y7495D01*
X14175Y7485D01*
X14195Y7495D01*
X14185Y7475D01*
X14195Y7455D01*
X14175Y7465D01*
X14155Y7455D01*
X21947Y12015D02*
X21957Y12035D01*
X21947Y12056D01*
X21967Y12045D01*
X21987Y12056D01*
X21977Y12035D01*
X21987Y12015D01*
X21967Y12025D01*
X21947Y12015D01*
X21837D02*
X21847Y12035D01*
X21837Y12056D01*
X21857Y12045D01*
X21877Y12056D01*
X21867Y12035D01*
X21877Y12015D01*
X21857Y12025D01*
X21837Y12015D01*
X21727D02*
X21737Y12035D01*
X21727Y12056D01*
X21747Y12045D01*
X21767Y12056D01*
X21757Y12035D01*
X21767Y12015D01*
X21747Y12025D01*
X21727Y12015D01*
X21947Y12125D02*
X21957Y12145D01*
X21947Y12166D01*
X21967Y12155D01*
X21987Y12166D01*
X21977Y12145D01*
X21987Y12125D01*
X21967Y12135D01*
X21947Y12125D01*
X21837D02*
X21847Y12145D01*
X21837Y12166D01*
X21857Y12155D01*
X21877Y12166D01*
X21867Y12145D01*
X21877Y12125D01*
X21857Y12135D01*
X21837Y12125D01*
X21727D02*
X21737Y12145D01*
X21727Y12166D01*
X21747Y12155D01*
X21767Y12166D01*
X21757Y12145D01*
X21767Y12125D01*
X21747Y12135D01*
X21727Y12125D01*
X21947Y12235D02*
X21957Y12255D01*
X21947Y12276D01*
X21967Y12265D01*
X21987Y12276D01*
X21977Y12255D01*
X21987Y12235D01*
X21967Y12245D01*
X21947Y12235D01*
X21837D02*
X21847Y12255D01*
X21837Y12276D01*
X21857Y12265D01*
X21877Y12276D01*
X21867Y12255D01*
X21877Y12235D01*
X21857Y12245D01*
X21837Y12235D01*
X21727D02*
X21737Y12255D01*
X21727Y12276D01*
X21747Y12265D01*
X21767Y12276D01*
X21757Y12255D01*
X21767Y12235D01*
X21747Y12245D01*
X21727Y12235D01*
X19967Y12030D02*
X19977Y12050D01*
X19967Y12070D01*
X19987Y12060D01*
X20008Y12070D01*
X19997Y12050D01*
X20008Y12030D01*
X19987Y12040D01*
X19967Y12030D01*
X19857D02*
X19867Y12050D01*
X19857Y12070D01*
X19877Y12060D01*
X19898Y12070D01*
X19887Y12050D01*
X19898Y12030D01*
X19877Y12040D01*
X19857Y12030D01*
X19747D02*
X19757Y12050D01*
X19747Y12070D01*
X19767Y12060D01*
X19788Y12070D01*
X19777Y12050D01*
X19788Y12030D01*
X19767Y12040D01*
X19747Y12030D01*
X19967Y12140D02*
X19977Y12160D01*
X19967Y12180D01*
X19987Y12170D01*
X20008Y12180D01*
X19997Y12160D01*
X20008Y12140D01*
X19987Y12150D01*
X19967Y12140D01*
X19857D02*
X19867Y12160D01*
X19857Y12180D01*
X19877Y12170D01*
X19898Y12180D01*
X19887Y12160D01*
X19898Y12140D01*
X19877Y12150D01*
X19857Y12140D01*
X19747D02*
X19757Y12160D01*
X19747Y12180D01*
X19767Y12170D01*
X19788Y12180D01*
X19777Y12160D01*
X19788Y12140D01*
X19767Y12150D01*
X19747Y12140D01*
X19967Y12250D02*
X19977Y12270D01*
X19967Y12290D01*
X19987Y12280D01*
X20008Y12290D01*
X19997Y12270D01*
X20008Y12250D01*
X19987Y12260D01*
X19967Y12250D01*
X19857D02*
X19867Y12270D01*
X19857Y12290D01*
X19877Y12280D01*
X19898Y12290D01*
X19887Y12270D01*
X19898Y12250D01*
X19877Y12260D01*
X19857Y12250D01*
X19747D02*
X19757Y12270D01*
X19747Y12290D01*
X19767Y12280D01*
X19788Y12290D01*
X19777Y12270D01*
X19788Y12250D01*
X19767Y12260D01*
X19747Y12250D01*
D146*
X6338Y11253D02*
G03*
X6338Y11253I-20J0D01*
G01*
Y10813D02*
G03*
X6338Y10813I-20J0D01*
G01*
M02*
